<?xml version="1.0" encoding="UTF-8"?>
<svg width="165px" height="40px" viewBox="0 0 165 40" version="1.1" xmlns="http://www.w3.org/2000/svg" xmlns:xlink="http://www.w3.org/1999/xlink">
    <!-- Generator: Sketch 48.2 (47327) - http://www.bohemiancoding.com/sketch -->
    <title>企業理念</title>
    <desc>Created with Sketch.</desc>
    <defs>
        <path d="M5.792,17.728 L4.544,15.2 C11.52,12.576 16.32,8.32 18.56,4.992 L21.44,4.992 C26.336,11.584 33.472,14.432 35.456,15.2 L34.08,17.856 C29.984,16 24.8,13.184 19.968,7.296 C16.896,11.168 11.776,15.392 5.792,17.728 Z M32.16,20.064 L32.16,22.656 L21.792,22.656 L21.792,31.296 L34.304,31.296 L34.304,33.856 L5.696,33.856 L5.696,31.296 L9.984,31.296 L9.984,18.144 L12.704,18.144 L12.704,31.296 L19.072,31.296 L19.072,13.472 L21.792,13.472 L21.792,20.064 L32.16,20.064 Z M76.3660002,31.776 L74.8620002,34.176 C69.4220002,32.192 66.7340002,30.816 62.8940002,27.296 L62.8940002,34.72 L60.3660002,34.72 L60.3660002,27.264 C56.6220002,30.88 52.9100002,32.544 48.3660002,34.112 L46.9580002,31.808 C49.9020002,30.976 54.3500002,29.536 58.4460002,26.08 L46.8620002,26.08 L46.8620002,23.936 L60.3660002,23.936 L60.3660002,21.6 L48.9740002,21.6 L48.9740002,19.552 L60.3660002,19.552 L60.3660002,17.312 L48.2060002,17.312 L48.2060002,15.2 L55.7260002,15.2 C55.5340002,14.432 54.9900002,12.832 54.6700002,12.128 L46.8620002,12.128 L46.8620002,9.952 L52.3980002,9.952 C51.7580002,8.544 51.4060002,7.904 50.2540002,5.888 L52.8460002,5.024 C53.2300002,5.664 53.9980002,6.912 55.1180002,9.952 L57.4860002,9.952 L57.4860002,4.992 L59.9820002,4.992 L59.9820002,9.952 L63.2780002,9.952 L63.2780002,4.992 L65.7740002,4.992 L65.7740002,9.952 L68.0460002,9.952 C69.0380002,8.288 69.8380002,6.368 70.3820002,5.024 L72.9740002,5.888 C72.5260002,6.848 71.5340002,8.672 70.7340002,9.952 L76.3660002,9.952 L76.3660002,12.128 L68.4300002,12.128 C68.0140002,13.504 67.7900002,14.176 67.4380002,15.2 L75.1500002,15.2 L75.1500002,17.312 L62.8940002,17.312 L62.8940002,19.552 L74.3820002,19.552 L74.3820002,21.6 L62.8940002,21.6 L62.8940002,23.936 L76.3660002,23.936 L76.3660002,26.08 L64.8460002,26.08 C68.4620002,29.152 71.3100002,30.432 76.3660002,31.776 Z M58.4140002,15.2 L64.8140002,15.2 C64.9420002,14.88 65.4860002,13.408 65.7100002,12.128 L57.3580002,12.128 C57.5180002,12.576 58.2220002,14.72 58.4140002,15.2 Z M99.6120004,5.856 L116.988,5.856 L116.988,20.896 L109.564,20.896 L109.564,24.544 L117.308,24.544 L117.308,26.912 L109.564,26.912 L109.564,31.424 L117.884,31.424 L117.884,33.824 L97.5640004,33.824 L97.5640004,31.424 L107.068,31.424 L107.068,26.912 L99.3880004,26.912 L99.3880004,24.544 L107.068,24.544 L107.068,20.896 L99.6120004,20.896 L99.6120004,5.856 Z M107.068,12.288 L107.068,8.16 L102.076,8.16 L102.076,12.288 L107.068,12.288 Z M107.068,18.624 L107.068,14.432 L102.076,14.432 L102.076,18.624 L107.068,18.624 Z M114.524,12.288 L114.524,8.16 L109.564,8.16 L109.564,12.288 L114.524,12.288 Z M114.524,18.624 L114.524,14.432 L109.564,14.432 L109.564,18.624 L114.524,18.624 Z M98.5240004,26.048 L98.5560004,28.672 C95.3880004,30.048 90.8440004,31.296 88.2840004,32 L87.8680004,29.376 C88.9880004,29.12 90.7480004,28.608 92.2200004,28.224 L92.2200004,18.88 L88.6040004,18.88 L88.6040004,16.384 L92.2200004,16.384 L92.2200004,9.056 L88.2840004,9.056 L88.2840004,6.592 L98.5240004,6.592 L98.5240004,9.056 L94.7800004,9.056 L94.7800004,16.384 L97.9480004,16.384 L97.9480004,18.88 L94.7800004,18.88 L94.7800004,27.424 C96.3480004,26.88 97.3400004,26.496 98.5240004,26.048 Z M151.914001,12.288 L151.914001,13.632 L137.130001,13.632 L137.130001,12.256 C133.770001,14.08 131.594001,14.752 130.506001,15.072 L129.322001,12.576 C131.210001,12.032 138.154001,10.048 143.114001,4.96 L145.802001,4.96 C150.986001,10.016 157.514001,12.032 159.850001,12.704 L158.634001,15.104 C156.618001,14.432 154.410001,13.664 151.914001,12.288 Z M138.442001,11.52 L150.538001,11.52 C147.178001,9.568 145.418001,7.904 144.522001,7.04 C142.954001,8.736 141.002001,10.08 138.442001,11.52 Z M132.394001,15.872 L156.554001,15.872 L156.554001,18.048 C154.826001,20.128 152.810001,21.984 146.890001,24.512 L145.354001,22.464 C146.666001,21.984 150.346001,20.704 153.194001,18.048 L132.394001,18.048 L132.394001,15.872 Z M131.498001,33.664 L129.322001,32.032 C131.946001,29.28 132.810001,25.632 133.034001,24.736 L135.562001,25.248 C134.282001,30.432 132.554001,32.512 131.498001,33.664 Z M137.226001,25.792 L139.850001,25.792 L139.850001,30.624 C139.850001,31.68 140.266001,31.744 141.066001,31.744 L147.658001,31.744 C148.874001,31.744 149.034001,31.648 149.258001,28.096 L151.850001,28.704 C151.530001,32.992 150.794001,34.208 148.330001,34.208 L139.754001,34.208 C138.282001,34.208 137.226001,33.504 137.226001,31.84 L137.226001,25.792 Z M146.762001,25.312 L145.258001,27.552 C142.826001,25.504 140.106001,24.128 139.210001,23.712 L140.490001,21.6 C142.634001,22.528 145.034001,23.936 146.762001,25.312 Z M159.626001,31.968 L157.322001,33.44 C155.786001,30.208 152.970001,26.752 151.818001,25.44 L153.962001,24.224 C155.306001,25.664 158.154001,29.056 159.626001,31.968 Z" id="path-1"></path>
        <filter x="-4.8%" y="-25.2%" width="109.7%" height="150.4%" filterUnits="objectBoundingBox" id="filter-2">
            <feOffset dx="0" dy="0" in="SourceAlpha" result="shadowOffsetOuter1"></feOffset>
            <feGaussianBlur stdDeviation="2.5" in="shadowOffsetOuter1" result="shadowBlurOuter1"></feGaussianBlur>
            <feColorMatrix values="0 0 0 0 0   0 0 0 0 0   0 0 0 0 0  0 0 0 0.75 0" type="matrix" in="shadowBlurOuter1"></feColorMatrix>
        </filter>
    </defs>
    <g id="Page-1" stroke="none" stroke-width="1" fill="none" fill-rule="evenodd">
        <g id="企業理念">
            <use fill="black" fill-opacity="1" filter="url(#filter-2)" xlink:href="#path-1"></use>
            <use fill="#FFFFFF" fill-rule="evenodd" xlink:href="#path-1"></use>
        </g>
    </g>
</svg>