<svg xmlns="http://www.w3.org/2000/svg" xmlns:xlink="http://www.w3.org/1999/xlink" width="165" height="40" viewBox="0 0 165 40">
  <metadata><?xpacket begin="﻿" id="W5M0MpCehiHzreSzNTczkc9d"?>
<x:xmpmeta xmlns:x="adobe:ns:meta/" x:xmptk="Adobe XMP Core 5.6-c140 79.160451, 2017/05/06-01:08:21        ">
   <rdf:RDF xmlns:rdf="http://www.w3.org/1999/02/22-rdf-syntax-ns#">
      <rdf:Description rdf:about=""/>
   </rdf:RDF>
</x:xmpmeta>
                                                                                                    
                                                                                                    
                                                                                                    
                                                                                                    
                                                                                                    
                                                                                                    
                                                                                                    
                                                                                                    
                                                                                                    
                                                                                                    
                                                                                                    
                                                                                                    
                                                                                                    
                                                                                                    
                                                                                                    
                                                                                                    
                                                                                                    
                                                                                                    
                                                                                                    
                                                                                                    
                           
<?xpacket end="w"?></metadata>
<defs>
    <style>
      .cls-1 {
        fill: #fff;
        fill-rule: evenodd;
        filter: url(#filter);
      }
    </style>
    <filter id="filter" x="568" y="237" width="165" height="40" filterUnits="userSpaceOnUse">
      <feOffset result="offset" in="SourceAlpha"/>
      <feGaussianBlur result="blur" stdDeviation="2.236"/>
      <feFlood result="flood" flood-opacity="0.75"/>
      <feComposite result="composite" operator="in" in2="blur"/>
      <feBlend result="blend" in="SourceGraphic"/>
    </filter>
  </defs>
  <path id="ttl_header_pc.svg" data-name="ttl_header@pc.svg" class="cls-1" d="M573.392,254.729A35.274,35.274,0,0,0,587.567,244.3a37.089,37.089,0,0,0,14.111,10.559l1.376-2.656c-1.984-.768-9.12-3.616-14.015-10.207h-2.88c-2.24,3.328-7.039,7.583-14.015,10.207Zm26.366,2.336H589.391v-6.592h-2.72V268.3H580.3V255.145h-2.719V268.3H573.3v2.56H601.9V268.3H589.391v-8.639h10.367v-2.592Zm44.256,11.711c-5.056-1.344-7.9-2.624-11.519-5.7h11.519v-2.143H630.543V258.6H642.03v-2.048H630.543v-2.24H642.8V252.2h-7.711c0.351-1.024.575-1.7,0.991-3.072h7.936v-2.175h-5.632c0.8-1.28,1.792-3.1,2.24-4.064l-2.592-.864a36.915,36.915,0,0,1-2.336,4.928h-2.271v-4.96h-2.5v4.96h-3.3v-4.96h-2.5v4.96h-2.368a25.832,25.832,0,0,0-2.271-4.928l-2.592.864a40.97,40.97,0,0,1,2.144,4.064h-5.536v2.175h7.807a24.823,24.823,0,0,1,1.056,3.072h-7.519v2.112h12.159v2.24H616.624V258.6h11.391v2.336h-13.5v2.143H626.1a29.8,29.8,0,0,1-11.487,5.728l1.408,2.3c4.544-1.568,8.255-3.232,12-6.848v7.456h2.528V264.3c3.84,3.52,6.527,4.9,11.967,6.88ZM626.063,252.2c-0.192-.48-0.9-2.624-1.056-3.072h8.352a18.405,18.405,0,0,1-.9,3.072h-6.4Zm41.248-9.343V257.9h7.456v3.648h-7.68v2.367h7.68v4.512h-9.5v2.4h20.319v-2.4h-8.32v-4.512h7.744v-2.367h-7.744V257.9h7.424V242.858H667.311Zm7.456,6.431h-4.992v-4.127h4.992v4.127Zm0,6.336h-4.992v-4.192h4.992v4.192Zm7.455-6.336h-4.96v-4.127h4.96v4.127Zm0,6.336h-4.96v-4.192h4.96v4.192Zm-16,7.423c-1.184.448-2.176,0.832-3.743,1.376v-8.543h3.167v-2.5H662.48v-7.327h3.743v-2.464H655.984v2.464h3.936v7.327H656.3v2.5h3.616v9.343c-1.472.384-3.232,0.9-4.352,1.152L655.984,269a85.82,85.82,0,0,0,10.271-3.328Zm53.439-13.759a38.037,38.037,0,0,0,6.72,2.816l1.216-2.4a33.68,33.68,0,0,1-14.047-7.743h-2.688c-4.96,5.088-11.9,7.071-13.791,7.615l1.184,2.5a32.238,32.238,0,0,0,6.623-2.816v1.376h14.783v-1.344Zm-13.471-.768a23.954,23.954,0,0,0,6.08-4.479,29.248,29.248,0,0,0,6.016,4.479h-12.1Zm-6.047,4.352v2.176h20.8a22.9,22.9,0,0,1-7.839,4.416l1.536,2.048c5.919-2.528,7.935-4.384,9.663-6.464v-2.176H700.144Zm-0.9,17.791c1.056-1.152,2.784-3.232,4.064-8.416l-2.528-.511a16.407,16.407,0,0,1-3.712,7.295Zm5.727-7.872v6.048a2.217,2.217,0,0,0,2.528,2.368h8.576c2.463,0,3.2-1.216,3.519-5.5l-2.591-.608c-0.224,3.552-.384,3.648-1.6,3.648h-6.592c-0.8,0-1.216-.064-1.216-1.12v-4.832h-2.624Zm9.536-.48a29.783,29.783,0,0,0-6.272-3.711l-1.28,2.112a29.359,29.359,0,0,1,6.048,3.839Zm12.863,6.656a39.787,39.787,0,0,0-5.664-7.743l-2.144,1.215a40.083,40.083,0,0,1,5.5,8Z" transform="translate(-568 -237)"/>
</svg>
