<?xml version="1.0" encoding="UTF-8"?>
<svg width="106px" height="29px" viewBox="0 0 106 29" version="1.1" xmlns="http://www.w3.org/2000/svg" xmlns:xlink="http://www.w3.org/1999/xlink">
    <!-- Generator: Sketch 48.2 (47327) - http://www.bohemiancoding.com/sketch -->
    <title>企業理念</title>
    <desc>Created with Sketch.</desc>
    <defs>
        <path d="M5.12,13.08 L4.34,11.5 C8.7,9.86 11.7,7.2 13.1,5.12 L14.9,5.12 C17.96,9.24 22.42,11.02 23.66,11.5 L22.8,13.16 C20.24,12 17,10.24 13.98,6.56 C12.06,8.98 8.86,11.62 5.12,13.08 Z M21.6,14.54 L21.6,16.16 L15.12,16.16 L15.12,21.56 L22.94,21.56 L22.94,23.16 L5.06,23.16 L5.06,21.56 L7.74,21.56 L7.74,13.34 L9.44,13.34 L9.44,21.56 L13.42,21.56 L13.42,10.42 L15.12,10.42 L15.12,14.54 L21.6,14.54 Z M49.2287505,21.86 L48.2887505,23.36 C44.8887505,22.12 43.2087505,21.26 40.8087505,19.06 L40.8087505,23.7 L39.2287505,23.7 L39.2287505,19.04 C36.8887505,21.3 34.5687505,22.34 31.7287505,23.32 L30.8487505,21.88 C32.6887505,21.36 35.4687505,20.46 38.0287505,18.3 L30.7887505,18.3 L30.7887505,16.96 L39.2287505,16.96 L39.2287505,15.5 L32.1087505,15.5 L32.1087505,14.22 L39.2287505,14.22 L39.2287505,12.82 L31.6287505,12.82 L31.6287505,11.5 L36.3287505,11.5 C36.2087505,11.02 35.8687505,10.02 35.6687505,9.58 L30.7887505,9.58 L30.7887505,8.22 L34.2487505,8.22 C33.8487505,7.34 33.6287505,6.94 32.9087505,5.68 L34.5287505,5.14 C34.7687505,5.54 35.2487505,6.32 35.9487505,8.22 L37.4287505,8.22 L37.4287505,5.12 L38.9887505,5.12 L38.9887505,8.22 L41.0487505,8.22 L41.0487505,5.12 L42.6087505,5.12 L42.6087505,8.22 L44.0287505,8.22 C44.6487505,7.18 45.1487505,5.98 45.4887505,5.14 L47.1087505,5.68 C46.8287505,6.28 46.2087505,7.42 45.7087505,8.22 L49.2287505,8.22 L49.2287505,9.58 L44.2687505,9.58 C44.0087505,10.44 43.8687505,10.86 43.6487505,11.5 L48.4687505,11.5 L48.4687505,12.82 L40.8087505,12.82 L40.8087505,14.22 L47.9887505,14.22 L47.9887505,15.5 L40.8087505,15.5 L40.8087505,16.96 L49.2287505,16.96 L49.2287505,18.3 L42.0287505,18.3 C44.2887505,20.22 46.0687505,21.02 49.2287505,21.86 Z M38.0087505,11.5 L42.0087505,11.5 C42.0887505,11.3 42.4287505,10.38 42.5687505,9.58 L37.3487505,9.58 C37.4487505,9.86 37.8887505,11.2 38.0087505,11.5 Z M63.757501,5.66 L74.617501,5.66 L74.617501,15.06 L69.977501,15.06 L69.977501,17.34 L74.817501,17.34 L74.817501,18.82 L69.977501,18.82 L69.977501,21.64 L75.177501,21.64 L75.177501,23.14 L62.477501,23.14 L62.477501,21.64 L68.417501,21.64 L68.417501,18.82 L63.617501,18.82 L63.617501,17.34 L68.417501,17.34 L68.417501,15.06 L63.757501,15.06 L63.757501,5.66 Z M68.417501,9.68 L68.417501,7.1 L65.297501,7.1 L65.297501,9.68 L68.417501,9.68 Z M68.417501,13.64 L68.417501,11.02 L65.297501,11.02 L65.297501,13.64 L68.417501,13.64 Z M73.077501,9.68 L73.077501,7.1 L69.977501,7.1 L69.977501,9.68 L73.077501,9.68 Z M73.077501,13.64 L73.077501,11.02 L69.977501,11.02 L69.977501,13.64 L73.077501,13.64 Z M63.077501,18.28 L63.097501,19.92 C61.117501,20.78 58.277501,21.56 56.677501,22 L56.417501,20.36 C57.117501,20.2 58.217501,19.88 59.137501,19.64 L59.137501,13.8 L56.877501,13.8 L56.877501,12.24 L59.137501,12.24 L59.137501,7.66 L56.677501,7.66 L56.677501,6.12 L63.077501,6.12 L63.077501,7.66 L60.737501,7.66 L60.737501,12.24 L62.717501,12.24 L62.717501,13.8 L60.737501,13.8 L60.737501,19.14 C61.717501,18.8 62.337501,18.56 63.077501,18.28 Z M96.4462514,9.68 L96.4462514,10.52 L87.2062514,10.52 L87.2062514,9.66 C85.1062514,10.8 83.7462514,11.22 83.0662514,11.42 L82.3262514,9.86 C83.5062514,9.52 87.8462514,8.28 90.9462514,5.1 L92.6262514,5.1 C95.8662514,8.26 99.9462514,9.52 101.406251,9.94 L100.646251,11.44 C99.3862514,11.02 98.0062514,10.54 96.4462514,9.68 Z M88.0262514,9.2 L95.5862514,9.2 C93.4862514,7.98 92.3862514,6.94 91.8262514,6.4 C90.8462514,7.46 89.6262514,8.3 88.0262514,9.2 Z M84.2462514,11.92 L99.3462514,11.92 L99.3462514,13.28 C98.2662514,14.58 97.0062514,15.74 93.3062514,17.32 L92.3462514,16.04 C93.1662514,15.74 95.4662514,14.94 97.2462514,13.28 L84.2462514,13.28 L84.2462514,11.92 Z M83.6862514,23.04 L82.3262514,22.02 C83.9662514,20.3 84.5062514,18.02 84.6462514,17.46 L86.2262514,17.78 C85.4262514,21.02 84.3462514,22.32 83.6862514,23.04 Z M87.2662514,18.12 L88.9062514,18.12 L88.9062514,21.14 C88.9062514,21.8 89.1662514,21.84 89.6662514,21.84 L93.7862514,21.84 C94.5462514,21.84 94.6462514,21.78 94.7862514,19.56 L96.4062514,19.94 C96.2062514,22.62 95.7462514,23.38 94.2062514,23.38 L88.8462514,23.38 C87.9262514,23.38 87.2662514,22.94 87.2662514,21.9 L87.2662514,18.12 Z M93.2262514,17.82 L92.2862514,19.22 C90.7662514,17.94 89.0662514,17.08 88.5062514,16.82 L89.3062514,15.5 C90.6462514,16.08 92.1462514,16.96 93.2262514,17.82 Z M101.266251,21.98 L99.8262514,22.9 C98.8662514,20.88 97.1062514,18.72 96.3862514,17.9 L97.7262514,17.14 C98.5662514,18.04 100.346251,20.16 101.266251,21.98 Z" id="path-1"></path>
        <filter x="-7.7%" y="-40.3%" width="115.5%" height="180.6%" filterUnits="objectBoundingBox" id="filter-2">
            <feOffset dx="0" dy="0" in="SourceAlpha" result="shadowOffsetOuter1"></feOffset>
            <feGaussianBlur stdDeviation="2.5" in="shadowOffsetOuter1" result="shadowBlurOuter1"></feGaussianBlur>
            <feColorMatrix values="0 0 0 0 0   0 0 0 0 0   0 0 0 0 0  0 0 0 0.75 0" type="matrix" in="shadowBlurOuter1"></feColorMatrix>
        </filter>
    </defs>
    <g id="Page-1" stroke="none" stroke-width="1" fill="none" fill-rule="evenodd">
        <g id="企業理念">
            <use fill="black" fill-opacity="1" filter="url(#filter-2)" xlink:href="#path-1"></use>
            <use fill="#FFFFFF" fill-rule="evenodd" xlink:href="#path-1"></use>
        </g>
    </g>
</svg>