<svg xmlns="http://www.w3.org/2000/svg" xmlns:xlink="http://www.w3.org/1999/xlink" width="127" height="32" viewBox="0 0 127 32">
  <defs>
    <style>
      .cls-1 {
        fill: #fff;
        fill-rule: evenodd;
        filter: url(#filter);
      }
    </style>
    <filter id="filter" x="99" y="143" width="127" height="32" filterUnits="userSpaceOnUse">
      <feOffset result="offset" in="SourceAlpha"/>
      <feGaussianBlur result="blur" stdDeviation="2.236"/>
      <feFlood result="flood" flood-opacity="0.75"/>
      <feComposite result="composite" operator="in" in2="blur"/>
      <feBlend result="blend" in="SourceGraphic"/>
    </filter>
  </defs>
  <path id="ttl_header_sp.svg" data-name="ttl_header@sp.svg" class="cls-1" d="M104.906,156.922a26.511,26.511,0,0,0,10.657-7.824,27.881,27.881,0,0,0,10.609,7.92l1.034-1.992a24.07,24.07,0,0,1-10.536-7.656h-2.165a22.444,22.444,0,0,1-10.537,7.656Zm19.822,1.752h-7.794V153.73H114.89V167.1H110.1v-9.863h-2.045V167.1h-3.224v1.92H126.34V167.1h-9.406v-6.479h7.794v-1.944ZM158,167.457a19.226,19.226,0,0,1-8.66-4.272H158v-1.608H147.872v-1.751h8.636V158.29h-8.636v-1.68h9.214v-1.584h-5.8c0.265-.768.433-1.272,0.746-2.3H158V151.09h-4.234c0.6-.96,1.347-2.328,1.684-3.048l-1.949-.648a27.629,27.629,0,0,1-1.756,3.7h-1.708v-3.72h-1.876v3.72h-2.478v-3.72h-1.876v3.72h-1.78a19.382,19.382,0,0,0-1.708-3.7l-1.949.648a30.691,30.691,0,0,1,1.612,3.048H135.82v1.632h5.87a18.792,18.792,0,0,1,.794,2.3h-5.653v1.584h9.141v1.68h-8.564v1.536h8.564v1.751H135.82v1.608h8.708a22.421,22.421,0,0,1-8.636,4.3l1.059,1.728a22.307,22.307,0,0,0,9.021-5.136v5.592h1.9V164.1c2.887,2.64,4.908,3.672,9,5.16Zm-13.5-12.431c-0.144-.36-0.673-1.968-0.793-2.3h6.278a13.778,13.778,0,0,1-.673,2.3H144.5Zm31.01-7.008V159.3h5.6v2.735h-5.773v1.776h5.773v3.384h-7.144v1.8H189.25v-1.8H183v-3.384h5.821v-1.776H183V159.3h5.581v-11.28H175.514Zm5.6,4.824h-3.752v-3.1h3.752v3.1Zm0,4.752h-3.752V154.45h3.752v3.144Zm5.6-4.752H183v-3.1h3.728v3.1Zm0,4.752H183V154.45h3.728v3.144ZM174.7,163.161c-0.89.336-1.636,0.624-2.815,1.032v-6.407h2.382v-1.872h-2.382v-5.5H174.7V148.57H167v1.848h2.959v5.5h-2.719v1.872h2.719v7.007c-1.107.288-2.43,0.672-3.272,0.864L167,167.625a64.685,64.685,0,0,0,7.722-2.5Zm40.175-10.319a28.607,28.607,0,0,0,5.052,2.112l0.914-1.8a25.349,25.349,0,0,1-10.561-5.808h-2.02c-3.729,3.816-8.949,5.3-10.368,5.712l0.89,1.872a24.308,24.308,0,0,0,4.979-2.112v1.032h11.114v-1.008Zm-10.128-.576a18.022,18.022,0,0,0,4.571-3.36,22.035,22.035,0,0,0,4.522,3.36h-9.093ZM200.2,155.53v1.632h15.636a17.231,17.231,0,0,1-5.894,3.312l1.155,1.535c4.45-1.895,5.966-3.287,7.265-4.847V155.53H200.2Zm-0.674,13.343c0.794-.864,2.093-2.424,3.055-6.312l-1.9-.384a12.291,12.291,0,0,1-2.79,5.472Zm4.306-5.9v4.536a1.665,1.665,0,0,0,1.9,1.776h6.447c1.852,0,2.405-.912,2.646-4.128l-1.949-.456c-0.168,2.664-.288,2.736-1.2,2.736h-4.955c-0.6,0-.914-0.048-0.914-0.84v-3.624H203.83Zm7.169-.36a22.361,22.361,0,0,0-4.715-2.783l-0.962,1.583a22.1,22.1,0,0,1,4.546,2.88Zm9.67,4.992a29.825,29.825,0,0,0-4.258-5.808l-1.611.912a30.035,30.035,0,0,1,4.137,6Z" transform="translate(-99 -143)"/>
</svg>
