<svg xmlns="http://www.w3.org/2000/svg" xmlns:xlink="http://www.w3.org/1999/xlink" width="123" height="39" viewBox="0 0 123 39">
  <defs>
    <style>
      .cls-1 {
        fill: #fff;
        fill-rule: evenodd;
        filter: url(#filter);
      }
    </style>
    <filter id="filter" x="588" y="238" width="123" height="39" filterUnits="userSpaceOnUse">
      <feOffset result="offset" in="SourceAlpha"/>
      <feGaussianBlur result="blur" stdDeviation="2.236"/>
      <feFlood result="flood" flood-opacity="0.75"/>
      <feComposite result="composite" operator="in" in2="blur"/>
      <feBlend result="blend" in="SourceGraphic"/>
    </filter>
  </defs>
  <path id="ttl_header_pc.svg" data-name="ttl_header@pc.svg" class="cls-1" d="M614.822,250.185a20.294,20.294,0,0,1,3.68,2.848h-8.383c-0.128-1.792-.16-2.784-0.192-3.584h-2.592c0.032,0.9.064,1.952,0.192,3.584H595.112v5.408c0,7.807-1.728,9.951-2.912,11.391l2.144,2.08c2.528-3.2,3.424-7.968,3.424-13.471v-3.008h10.015a28.975,28.975,0,0,0,2.56,8.927,28.2,28.2,0,0,1-11.295,4.544l1.5,2.464a34.406,34.406,0,0,0,11.04-4.832c2.559,3.84,5.663,5.312,7.007,5.312,1.472,0,2.816-.928,3.936-6.144l-2.4-1.5c-0.16,1.664-.832,4.64-1.856,4.64-0.7,0-2.848-1.472-4.543-3.9a27.623,27.623,0,0,0,5.887-6.719L617.35,256.9a23.278,23.278,0,0,1-4.895,5.823,24.633,24.633,0,0,1-2.048-7.3H622.15v-2.4h-3.2l1.44-1.7a17.008,17.008,0,0,0-4.032-2.88Zm-13.951-8.127v2.88h-8.223V247.4h8.223v2.783h2.656V247.4h7.936v2.783h2.592V247.4h8.1v-2.464h-8.1v-2.88h-2.592v2.88h-7.936v-2.88h-2.656Zm34.529,6.655v12.7a20.331,20.331,0,0,1-1.568,8.479l2.144,1.728a23.088,23.088,0,0,0,1.7-7.936h3.648v4.8a0.6,0.6,0,0,1-.7.736l-2.688-.032,0.448,2.4h2.912a2.092,2.092,0,0,0,2.335-2.4V248.713H635.4Zm6.879-6.655v1.728h-8.063v2.3h8.063v1.92h2.528v-1.92h8.384v1.792h2.559V246.09h8.032v-2.3H655.75v-1.728h-2.559v1.728h-8.384v-1.728h-2.528Zm10.3,21.278a19.913,19.913,0,0,0-2.88-3.007,15.935,15.935,0,0,0,2.176-2.528h5.247a15.149,15.149,0,0,0,2.144,2.624,24.076,24.076,0,0,1-2.656,2.879l1.536,1.44a23.932,23.932,0,0,0,2.784-2.815,17.6,17.6,0,0,0,1.824,1.343l1.472-2.015a14.518,14.518,0,0,1-4.448-3.456h4v-2.048H658.31a11.111,11.111,0,0,1-1.12-2.464h5.856v-2.016h-3.3A17.891,17.891,0,0,0,661,249.065l-2.3-.767a18.423,18.423,0,0,1-1.472,2.975h-2.559a20.242,20.242,0,0,0,.512-2.848l-2.528-.127a28.893,28.893,0,0,1-.48,2.975h-1.5a28.287,28.287,0,0,0-1.184-2.975l-2.3.767a16.377,16.377,0,0,1,1.056,2.208h-2.848v2.016h6.208a10.417,10.417,0,0,1-1.184,2.464h-5.792V257.8h4.224a17.025,17.025,0,0,1-4.928,3.488l1.408,2.015a17.509,17.509,0,0,0,2.656-1.567,22.463,22.463,0,0,1,2.912,3.039Zm-11.263-8.255h-3.648v-4.1h3.648v4.1Zm0,6.432h-3.648v-4.256h3.648v4.256Zm13.663-8.224a15.155,15.155,0,0,0,.927,2.464h-2.847a16.4,16.4,0,0,0,1.024-2.464h0.9Zm0.831,12.9a17.735,17.735,0,0,0,6.816,4.9l1.28-2.144a19.83,19.83,0,0,1-8.1-5.216v-4.7h-2.431v9.567a0.589,0.589,0,0,1-.736.7l-2.752-.064,0.384,2.368,3.1-.032c1.216,0,2.431-.1,2.431-2.112v-3.264Zm-10.527,4.288c2.336-1.024,5.184-2.24,6.88-3.232l-0.64-2.08a52.86,52.86,0,0,1-7.264,3.072Zm42.368-20.383h-7.487V248.2h7.487v1.887Zm3.264,6.624c-0.608.064-5.248,0.48-5.792,0.544v-0.32a29.836,29.836,0,0,0,4.864-2.4V253H676.968v1.7h9.375a16.031,16.031,0,0,1-2.528,1.12h-0.959v1.632c-2.048.192-4.224,0.288-6.848,0.352l0.16,2.048c0.224,0,6.016-.48,6.688-0.512v0.928c0,0.672-.032.864-0.64,0.864l-2.5-.032,0.608,2.111h2.784c2.015,0,2.015-1.056,2.015-1.823v-2.272c0.512-.064,5.216-0.576,5.792-0.64v-1.76Zm-13.055-10.047v4.991h12.127v-4.991H677.864Zm21.95,9.759a30.476,30.476,0,0,0-2.943-2.592,31.543,31.543,0,0,0,.927-5.823h2.592c-0.1,1.151-.256,3.391-0.256,6.175,0,5.6.608,8.575,3.008,8.575,2.016,0,2.528-4.095,2.816-6.047l-1.7-1.024c-0.16,1.568-.416,3.776-0.96,3.776-0.768,0-.832-4.032-0.832-4.864a81.552,81.552,0,0,1,.608-8.9h-5.12c0.032-.576.1-1.408,0.1-3.68h-2.4c0,1.664,0,2.528-.064,3.68h-3.872v2.3h3.712c-0.256,2.271-.48,3.583-0.608,4.351-0.736-.48-1.28-0.832-2.72-1.632l-1.184,2.016c0.832,0.512,1.856,1.12,3.2,2.112A12.236,12.236,0,0,1,689.383,261l2.144,1.631h-2.048v1.536H678.312v2.112h11.167v2.4H675.816v2.176H705.51V268.68H692.071v-2.4h11.007v-2.112H692.071v-1.536h-0.48a15.905,15.905,0,0,0,4.448-6.335,29.054,29.054,0,0,1,2.271,2.08ZM676.168,243.5v1.856h15.487V243.5h-6.4v-1.472h-2.5V243.5h-6.592Z" transform="translate(-588 -238)"/>
</svg>
