<svg xmlns="http://www.w3.org/2000/svg" xmlns:xlink="http://www.w3.org/1999/xlink" width="163" height="39" viewBox="0 0 163 39">
  <defs>
    <style>
      .cls-1 {
        fill: #fff;
        fill-rule: evenodd;
        filter: url(#filter);
      }
    </style>
    <filter id="filter" x="570" y="237" width="163" height="39" filterUnits="userSpaceOnUse">
      <feOffset result="offset" in="SourceAlpha"/>
      <feGaussianBlur result="blur" stdDeviation="2.236"/>
      <feFlood result="flood" flood-opacity="0.75"/>
      <feComposite result="composite" operator="in" in2="blur"/>
      <feBlend result="blend" in="SourceGraphic"/>
    </filter>
  </defs>
  <path id="ttl_header_pc.svg" data-name="ttl_header@pc.svg" class="cls-1" d="M600.406,262.5a57.6,57.6,0,0,0-6.783-6.527,68.154,68.154,0,0,0,5.631-11.615l-3.3-.928a53.5,53.5,0,0,1-4.767,10.655,55.565,55.565,0,0,0-9.664-5.791l-1.759,2.207a76.618,76.618,0,0,1,9.695,6.24,33.783,33.783,0,0,1-14.655,11.3l1.728,2.336c5.855-2.848,11.327-6.56,15.231-11.743a61.955,61.955,0,0,1,6.271,6.079ZM619.8,244.2v2.592h18.622V244.2H619.8Zm-2.88,8.287v2.688h12.9c0.192,9.119-3.808,11.583-11.167,12.991l1.184,2.56c8.479-1.728,12.959-5.6,13.023-15.551h10.751v-2.688H616.92Zm25.406-6.143a19.516,19.516,0,0,0-1.536-4.672l-2.016.512a20.721,20.721,0,0,1,1.44,4.672Zm3.52-.544a23.735,23.735,0,0,0-1.7-4.672l-1.888.576a28.988,28.988,0,0,1,1.632,4.736ZM674.679,257.1a70.4,70.4,0,0,0,7.167-6.752l-2.4-1.728a39.389,39.389,0,0,1-18.878,13.152l1.312,2.335a36.7,36.7,0,0,0,10.079-5.023v11.807h2.72V257.1Zm25.185-12.927v2.72H723.19c-1.408,4.575-4.191,6.719-8.031,8.319l1.856,2.368c4.447-2.24,8.735-5.472,10.015-13.407H699.864Zm2.912,26.174c10.143-4.96,10.879-13.055,11.071-20.159l-3.136-.032c-0.1,8.384-1.5,14.431-9.823,17.887Z" transform="translate(-570 -237)"/>
</svg>
