<?xml version="1.0" encoding="UTF-8"?>
<svg width="161px" height="39px" viewBox="0 0 161 39" version="1.1" xmlns="http://www.w3.org/2000/svg" xmlns:xlink="http://www.w3.org/1999/xlink">
    <!-- Generator: Sketch 48.2 (47327) - http://www.bohemiancoding.com/sketch -->
    <title>メディア</title>
    <desc>Created with Sketch.</desc>
    <defs>
        <path d="M29.808,25.504 L27.44,27.712 C26.064,26.208 24.144,24.128 21.168,21.632 C17.264,26.816 11.792,30.528 5.936,33.376 L4.208,31.04 C10.032,28.672 15.152,24.832 18.864,19.744 C15.056,16.8 11.44,14.784 9.168,13.504 L10.928,11.296 C13.008,12.288 16.528,14.048 20.592,17.088 C22.832,13.408 24.208,9.76 25.36,6.432 L28.656,7.36 C27.12,11.2 25.36,15.36 23.024,18.976 C26.48,21.792 28.592,24.16 29.808,25.504 Z M49.1500002,7.2 L67.7740002,7.2 L67.7740002,9.792 L49.1500002,9.792 L49.1500002,7.2 Z M46.2700002,15.488 L72.9580002,15.488 L72.9580002,18.176 L62.2060002,18.176 C62.1420002,28.128 57.6620002,32 49.1820002,33.728 L47.9980002,31.168 C55.3580002,29.76 59.3580002,27.296 59.1660002,18.176 L46.2700002,18.176 L46.2700002,15.488 Z M71.6780002,9.344 L69.5660002,9.856 C69.2460002,8.288 68.8300002,6.688 68.1260002,5.184 L70.1420002,4.672 C70.8460002,6.144 71.3580002,7.712 71.6780002,9.344 Z M75.1980002,8.8 L73.2460002,9.44 C72.6060002,7.2 72.3820002,6.432 71.6140002,4.704 L73.5020002,4.128 C74.2060002,5.44 74.9100002,7.616 75.1980002,8.8 Z M103.98,20.096 L103.98,33.888 L101.26,33.888 L101.26,22.08 C97.8040004,24.416 95.1160004,25.824 91.1800004,27.104 L89.8680004,24.768 C98.8600004,21.696 104.972,16.576 108.748,11.616 L111.148,13.344 C108.172,16.416 106.604,17.984 103.98,20.096 Z M129.114001,7.168 L156.282001,7.168 C155.002001,15.104 150.714001,18.336 146.266001,20.576 L144.410001,18.208 C148.250001,16.608 151.034001,14.464 152.442001,9.888 L129.114001,9.888 L129.114001,7.168 Z M132.026001,33.344 L130.138001,31.04 C138.458001,27.584 139.866001,21.536 139.962001,13.152 L143.098001,13.184 C142.906001,20.288 142.170001,28.384 132.026001,33.344 Z" id="path-1"></path>
        <filter x="-4.9%" y="-25.2%" width="109.9%" height="150.4%" filterUnits="objectBoundingBox" id="filter-2">
            <feOffset dx="0" dy="0" in="SourceAlpha" result="shadowOffsetOuter1"></feOffset>
            <feGaussianBlur stdDeviation="2.5" in="shadowOffsetOuter1" result="shadowBlurOuter1"></feGaussianBlur>
            <feColorMatrix values="0 0 0 0 0   0 0 0 0 0   0 0 0 0 0  0 0 0 0.75 0" type="matrix" in="shadowBlurOuter1"></feColorMatrix>
        </filter>
    </defs>
    <g id="Page-1" stroke="none" stroke-width="1" fill="none" fill-rule="evenodd">
        <g id="メディア">
            <use fill="black" fill-opacity="1" filter="url(#filter-2)" xlink:href="#path-1"></use>
            <use fill="#FFFFFF" fill-rule="evenodd" xlink:href="#path-1"></use>
        </g>
    </g>
</svg>