<svg xmlns="http://www.w3.org/2000/svg" xmlns:xlink="http://www.w3.org/1999/xlink" width="125" height="32" viewBox="0 0 125 32">
  <metadata><?xpacket begin="﻿" id="W5M0MpCehiHzreSzNTczkc9d"?>
<x:xmpmeta xmlns:x="adobe:ns:meta/" x:xmptk="Adobe XMP Core 5.6-c140 79.160451, 2017/05/06-01:08:21        ">
   <rdf:RDF xmlns:rdf="http://www.w3.org/1999/02/22-rdf-syntax-ns#">
      <rdf:Description rdf:about=""/>
   </rdf:RDF>
</x:xmpmeta>
                                                                                                    
                                                                                                    
                                                                                                    
                                                                                                    
                                                                                                    
                                                                                                    
                                                                                                    
                                                                                                    
                                                                                                    
                                                                                                    
                                                                                                    
                                                                                                    
                                                                                                    
                                                                                                    
                                                                                                    
                                                                                                    
                                                                                                    
                                                                                                    
                                                                                                    
                                                                                                    
                           
<?xpacket end="w"?></metadata>
<defs>
    <style>
      .cls-1 {
        fill: #fff;
        fill-rule: evenodd;
        filter: url(#filter);
      }
    </style>
    <filter id="filter" x="99" y="140" width="125" height="32" filterUnits="userSpaceOnUse">
      <feOffset result="offset" in="SourceAlpha"/>
      <feGaussianBlur result="blur" stdDeviation="2.236"/>
      <feFlood result="flood" flood-opacity="0.75"/>
      <feComposite result="composite" operator="in" in2="blur"/>
      <feBlend result="blend" in="SourceGraphic"/>
    </filter>
  </defs>
  <path id="ttl_header_sp.svg" data-name="ttl_header@sp.svg" class="cls-1" d="M123.058,160.128a42.991,42.991,0,0,0-5.088-4.9,51.043,51.043,0,0,0,4.224-8.713l-2.472-.7a40.069,40.069,0,0,1-3.577,7.993,41.738,41.738,0,0,0-7.248-4.344l-1.32,1.656a57.408,57.408,0,0,1,7.272,4.68,25.333,25.333,0,0,1-10.993,8.473l1.3,1.752a30.818,30.818,0,0,0,11.425-8.809,46.312,46.312,0,0,1,4.7,4.561ZM137.6,146.4v1.945H151.57V146.4H137.6Zm-2.161,6.217v2.016h9.673c0.144,6.841-2.856,8.689-8.377,9.745l0.889,1.92c6.36-1.3,9.72-4.2,9.768-11.665h8.065v-2.016H135.44Zm19.058-4.608a14.63,14.63,0,0,0-1.152-3.5l-1.512.384a15.533,15.533,0,0,1,1.08,3.5Zm2.64-.409a17.8,17.8,0,0,0-1.272-3.5l-1.416.432a21.721,21.721,0,0,1,1.224,3.553Zm21.623,8.473a52.7,52.7,0,0,0,5.377-5.064l-1.8-1.3a29.563,29.563,0,0,1-14.161,9.865l0.984,1.752a27.494,27.494,0,0,0,7.56-3.769v8.857h2.04V156.071Zm18.887-9.7v2.041h17.5c-1.056,3.432-3.144,5.04-6.025,6.24l1.392,1.776c3.337-1.68,6.553-4.1,7.513-10.057H197.648Zm2.185,19.634c7.608-3.72,8.16-9.793,8.3-15.121l-2.352-.024c-0.072,6.288-1.128,10.825-7.369,13.417Z" transform="translate(-99 -140)"/>
</svg>
