<svg xmlns="http://www.w3.org/2000/svg" xmlns:xlink="http://www.w3.org/1999/xlink" width="127" height="33" viewBox="0 0 127 33">
  <metadata><?xpacket begin="﻿" id="W5M0MpCehiHzreSzNTczkc9d"?>
<x:xmpmeta xmlns:x="adobe:ns:meta/" x:xmptk="Adobe XMP Core 5.6-c140 79.160451, 2017/05/06-01:08:21        ">
   <rdf:RDF xmlns:rdf="http://www.w3.org/1999/02/22-rdf-syntax-ns#">
      <rdf:Description rdf:about=""/>
   </rdf:RDF>
</x:xmpmeta>
                                                                                                    
                                                                                                    
                                                                                                    
                                                                                                    
                                                                                                    
                                                                                                    
                                                                                                    
                                                                                                    
                                                                                                    
                                                                                                    
                                                                                                    
                                                                                                    
                                                                                                    
                                                                                                    
                                                                                                    
                                                                                                    
                                                                                                    
                                                                                                    
                                                                                                    
                                                                                                    
                           
<?xpacket end="w"?></metadata>
<defs>
    <style>
      .cls-1 {
        fill: #fff;
        fill-rule: evenodd;
        filter: url(#filter);
      }
    </style>
    <filter id="filter" x="102" y="149" width="127" height="33" filterUnits="userSpaceOnUse">
      <feOffset result="offset" in="SourceAlpha"/>
      <feGaussianBlur result="blur" stdDeviation="2.236"/>
      <feFlood result="flood" flood-opacity="0.75"/>
      <feComposite result="composite" operator="in" in2="blur"/>
      <feBlend result="blend" in="SourceGraphic"/>
    </filter>
  </defs>
  <path id="ttl_header_sp.svg" data-name="ttl_header@sp.svg" class="cls-1" d="M114.145,164.279c-0.576.24-1.008,0.432-1.968,0.816v-5.208h2.3v-1.776h-2.3v-4.345h-1.944v4.345h-3.121v1.776h3.121v5.928a27.181,27.181,0,0,1-3.433,1.008l0.312,1.969c0.984-.288,1.9-0.552,3.121-0.985V173.5a0.476,0.476,0,0,1-.577.576l-2.4-.024,0.336,1.992H110.5a1.583,1.583,0,0,0,1.68-1.656v-7.345c1.2-.528,1.584-0.7,2.16-0.984Zm0.216,10.633a22.118,22.118,0,0,0,6.624-6.24v7.368h1.873v-7.488c0.816,1.536,1.992,3.24,5.448,6.1l1.224-1.728a16.487,16.487,0,0,1-6.192-6.433h5.952v-1.776h-6.456v-1.824h-1.873v1.824h-6.1v1.776h5.784a19.609,19.609,0,0,1-7.344,6.745Zm4.128-12.529a19.727,19.727,0,0,0-1.824-4.344l-1.632.648a17.116,17.116,0,0,1,1.776,4.3Zm-3.312-5.448a57.473,57.473,0,0,0,13.489-1.585l-0.96-1.656c-3.36,1.176-9.553,1.488-12.913,1.536Zm7.921,4.512a14.329,14.329,0,0,0-1.416-4.224l-1.777.552a14.411,14.411,0,0,1,1.393,4.152Zm3.288,1.608a28.227,28.227,0,0,0,2.856-5.712l-1.872-.672a22.5,22.5,0,0,1-2.64,5.664Zm32.808-8.281H140.832v11.065a20.426,20.426,0,0,1-.768,4.969,9.432,9.432,0,0,1-1.92,3.408l1.368,1.752a13.268,13.268,0,0,0,3.1-7.392H148.8V175.8h1.9v-7.224h6.481v4.848a0.546,0.546,0,0,1-.552.648l-2.808-.048,0.24,1.992h3.24a1.726,1.726,0,0,0,1.9-2.016V154.774Zm-2.016,12H150.7v-4.224h6.481v4.224Zm0-6.048H150.7v-4.081h6.481v4.081Zm-8.377,0h-5.976v-4.081H148.8v4.081Zm0,6.048h-6c0.024-.288.024-0.384,0.024-1.248v-2.976H148.8v4.224Zm36.385-9.984h6.1V155.23h-6.1v-1.488h-1.945v1.488h-6.072v1.561h6.072V158.4h-5.472v1.464h5.472v1.608h-6.6v1.536h15.1v-1.536h-6.552v-1.608H190.8V158.4h-5.616v-1.608Zm-12.745-3.049v22.3h1.968v-22.3h-1.968Zm4.728,6.913a20.348,20.348,0,0,0-1.152-2.9l-1.44.576a17.974,17.974,0,0,1,1.08,2.976Zm13.465,3.672H177.865V176.04h1.92v-4.3h8.953v1.728a0.586,0.586,0,0,1-.624.744h-2.688l0.384,1.824h2.544c1.944,0,2.28-.576,2.28-2.208v-9.5Zm-1.9,3h-8.953v-1.512h8.953v1.512Zm0,2.953h-8.953v-1.512h8.953v1.512ZM169.92,158.591a17.492,17.492,0,0,1-.864,5.976l1.584,0.816a23.272,23.272,0,0,0,.864-6.72Zm53.234,15.649a22.149,22.149,0,0,1-3.12-2.856,21.516,21.516,0,0,0,2.352-8.3h-7.753v-6.745h5.545c-0.12,3.265-.408,3.625-1.464,3.625l-2.328-.024,0.336,1.848h2.664c1.488,0,1.824-.7,1.992-1.08a21.6,21.6,0,0,0,.648-6.193h-9.265v21.506h1.872V164.831h5.713a18.822,18.822,0,0,1-1.536,4.9,23.641,23.641,0,0,1-1.92-4.129l-1.68.528a18.375,18.375,0,0,0,2.568,5.353,12.577,12.577,0,0,1-2.736,2.856l1.2,1.608a14.7,14.7,0,0,0,2.712-2.88A16.916,16.916,0,0,0,222,176.016Zm-17.713-20.5v2.064h-4.129v1.777h4.129v2.544h-4.729v1.752H202.3a23.037,23.037,0,0,1,.888,3.36h-2.256v1.776h4.513v2.809h-4.129V171.6h4.129v4.416h1.9V171.6h4.128v-1.776h-4.128v-2.809h4.512v-1.776h-2.136c0.216-.7.624-2.256,0.84-3.36h1.512v-1.752h-4.728v-2.544h4.128v-1.777h-4.128v-2.064h-1.9Zm-0.48,11.5a27.259,27.259,0,0,0-.816-3.36h4.464a16.949,16.949,0,0,1-.7,3.36h-2.952Z" transform="translate(-102 -149)"/>
</svg>
