<?xml version="1.0" encoding="UTF-8"?>
<svg width="164px" height="40px" viewBox="0 0 164 40" version="1.1" xmlns="http://www.w3.org/2000/svg" xmlns:xlink="http://www.w3.org/1999/xlink">
    <!-- Generator: Sketch 48.2 (47327) - http://www.bohemiancoding.com/sketch -->
    <title>採用情報</title>
    <desc>Created with Sketch.</desc>
    <defs>
        <path d="M14.592,19.04 L14.848,21.408 C14.08,21.792 13.568,22.016 11.968,22.72 L11.968,32.512 C11.968,34.272 10.56,34.72 9.728,34.72 L5.856,34.72 L5.408,32.064 L8.608,32.096 C9.248,32.096 9.376,31.84 9.376,31.328 L9.376,23.744 C7.744,24.32 6.528,24.672 5.216,25.056 L4.8,22.432 C6.848,21.952 8.064,21.568 9.376,21.088 L9.376,13.184 L5.216,13.184 L5.216,10.816 L9.376,10.816 L9.376,5.024 L11.968,5.024 L11.968,10.816 L15.04,10.816 L15.04,13.184 L11.968,13.184 L11.968,20.128 C13.248,19.616 13.824,19.36 14.592,19.04 Z M14.88,33.216 L13.472,30.976 C15.936,29.6 19.968,27.136 23.264,21.984 L15.552,21.984 L15.552,19.616 L23.68,19.616 L23.68,17.184 L26.176,17.184 L26.176,19.616 L34.784,19.616 L34.784,21.984 L26.848,21.984 C29.76,27.36 33.824,29.792 35.104,30.56 L33.472,32.864 C28.864,29.056 27.296,26.784 26.208,24.736 L26.208,34.72 L23.712,34.72 L23.712,24.896 C21.184,28.64 18.4,30.848 14.88,33.216 Z M20.384,16.512 L18.144,17.312 C17.504,14.944 16.8,13.408 15.776,11.584 L17.952,10.72 C19.136,12.8 19.744,14.432 20.384,16.512 Z M15.968,9.248 L15.456,6.976 C19.936,6.912 28.192,6.496 32.672,4.928 L33.952,7.136 C28.672,8.672 20.704,9.216 15.968,9.248 Z M26.528,15.264 L24.128,15.904 C23.968,15.136 23.552,12.704 22.272,10.368 L24.64,9.632 C25.056,10.4 25.728,11.648 26.528,15.264 Z M30.912,17.408 L28.704,16.448 C30.336,14.08 31.68,10.752 32.224,8.896 L34.72,9.792 C33.44,12.992 32.672,14.688 30.912,17.408 Z M74.6060002,6.368 L74.6060002,32 C74.6060002,34.336 73.1660002,34.688 72.0780002,34.688 L67.7580002,34.688 L67.4380002,32.032 L71.1820002,32.096 C71.7260002,32.096 71.9180002,31.712 71.9180002,31.232 L71.9180002,24.768 L63.2780002,24.768 L63.2780002,34.4 L60.7500002,34.4 L60.7500002,24.768 L52.4940002,24.768 C51.9180002,29.408 50.1580002,32.672 48.3660002,34.624 L46.5420002,32.288 C47.2780002,31.392 48.4620002,29.92 49.1020002,27.744 C49.7420002,25.472 50.1260002,22.848 50.1260002,21.12 L50.1260002,6.368 L74.6060002,6.368 Z M71.9180002,22.368 L71.9180002,16.736 L63.2780002,16.736 L63.2780002,22.368 L71.9180002,22.368 Z M71.9180002,14.304 L71.9180002,8.864 L63.2780002,8.864 L63.2780002,14.304 L71.9180002,14.304 Z M60.7500002,14.304 L60.7500002,8.864 L52.7820002,8.864 L52.7820002,14.304 L60.7500002,14.304 Z M60.7500002,22.368 L60.7500002,16.736 L52.7820002,16.736 L52.7820002,20.704 C52.7820002,21.856 52.7820002,21.984 52.7500002,22.368 L60.7500002,22.368 Z M109.212,9.056 L109.212,11.2 L116.7,11.2 L116.7,13.152 L109.212,13.152 L109.212,15.296 L117.948,15.296 L117.948,17.344 L97.8200004,17.344 L97.8200004,15.296 L106.62,15.296 L106.62,13.152 L99.3240004,13.152 L99.3240004,11.2 L106.62,11.2 L106.62,9.056 L98.5240004,9.056 L98.5240004,6.976 L106.62,6.976 L106.62,4.992 L109.212,4.992 L109.212,6.976 L117.34,6.976 L117.34,9.056 L109.212,9.056 Z M92.2200004,4.992 L94.8440004,4.992 L94.8440004,34.72 L92.2200004,34.72 L92.2200004,4.992 Z M98.5240004,14.208 L96.5080004,15.072 C96.0920004,13.408 95.3560004,11.712 95.0680004,11.104 L96.9880004,10.336 C97.2120004,10.816 98.0760004,12.608 98.5240004,14.208 Z M116.476,19.104 L116.476,31.776 C116.476,33.952 116.028,34.72 113.436,34.72 L110.044,34.72 L109.532,32.288 L113.116,32.288 C113.948,32.288 113.948,31.712 113.948,31.296 L113.948,28.992 L102.012,28.992 L102.012,34.72 L99.4520004,34.72 L99.4520004,19.104 L116.476,19.104 Z M113.948,23.104 L113.948,21.088 L102.012,21.088 L102.012,23.104 L113.948,23.104 Z M113.948,27.04 L113.948,25.024 L102.012,25.024 L102.012,27.04 L113.948,27.04 Z M88.8600004,11.456 L90.9720004,11.552 C90.9720004,12.544 90.9720004,17.184 89.8200004,20.512 L87.7080004,19.424 C88.6360004,17.088 88.9240004,13.44 88.8600004,11.456 Z M159.786001,32.32 L158.250001,34.688 C157.258001,33.92 155.978001,32.928 154.186001,30.752 C152.682001,32.8 151.530001,33.792 150.570001,34.592 L148.970001,32.448 C149.898001,31.68 151.242001,30.656 152.618001,28.64 C150.282001,25.152 149.546001,22.688 149.194001,21.504 L151.434001,20.8 C152.426001,23.392 153.130001,24.896 153.994001,26.304 C155.370001,23.488 155.850001,20.8 156.042001,19.776 L148.426001,19.776 L148.426001,34.688 L145.930001,34.688 L145.930001,6.016 L158.282001,6.016 C158.314001,9.696 157.866001,13.28 157.418001,14.272 C157.194001,14.784 156.746001,15.712 154.762001,15.712 L151.210001,15.712 L150.762001,13.248 L153.866001,13.28 C155.274001,13.28 155.658001,12.8 155.818001,8.448 L148.426001,8.448 L148.426001,17.44 L158.762001,17.44 C158.506001,19.936 157.962001,24.256 155.626001,28.512 C156.746001,29.792 157.962001,30.88 159.786001,32.32 Z M136.170001,4.992 L138.698001,4.992 L138.698001,7.744 L144.202001,7.744 L144.202001,10.112 L138.698001,10.112 L138.698001,13.504 L145.002001,13.504 L145.002001,15.84 L142.986001,15.84 C142.698001,17.312 142.154001,19.392 141.866001,20.32 L144.714001,20.32 L144.714001,22.688 L138.698001,22.688 L138.698001,26.432 L144.202001,26.432 L144.202001,28.8 L138.698001,28.8 L138.698001,34.688 L136.170001,34.688 L136.170001,28.8 L130.666001,28.8 L130.666001,26.432 L136.170001,26.432 L136.170001,22.688 L130.154001,22.688 L130.154001,20.32 L133.162001,20.32 C132.906001,18.784 132.330001,16.832 131.978001,15.84 L129.866001,15.84 L129.866001,13.504 L136.170001,13.504 L136.170001,10.112 L130.666001,10.112 L130.666001,7.744 L136.170001,7.744 L136.170001,4.992 Z M135.530001,20.32 L139.466001,20.32 C139.850001,19.2 140.266001,17.248 140.394001,15.84 L134.442001,15.84 C134.890001,17.312 135.306001,18.944 135.530001,20.32 Z" id="path-1"></path>
        <filter x="-4.8%" y="-25.2%" width="109.7%" height="150.3%" filterUnits="objectBoundingBox" id="filter-2">
            <feOffset dx="0" dy="0" in="SourceAlpha" result="shadowOffsetOuter1"></feOffset>
            <feGaussianBlur stdDeviation="2.5" in="shadowOffsetOuter1" result="shadowBlurOuter1"></feGaussianBlur>
            <feColorMatrix values="0 0 0 0 0   0 0 0 0 0   0 0 0 0 0  0 0 0 0.75 0" type="matrix" in="shadowBlurOuter1"></feColorMatrix>
        </filter>
    </defs>
    <g id="Page-1" stroke="none" stroke-width="1" fill="none" fill-rule="evenodd">
        <g id="採用情報">
            <use fill="black" fill-opacity="1" filter="url(#filter-2)" xlink:href="#path-1"></use>
            <use fill="#FFFFFF" fill-rule="evenodd" xlink:href="#path-1"></use>
        </g>
    </g>
</svg>