<svg xmlns="http://www.w3.org/2000/svg" xmlns:xlink="http://www.w3.org/1999/xlink" width="165" height="40" viewBox="0 0 165 40">
  <metadata><?xpacket begin="﻿" id="W5M0MpCehiHzreSzNTczkc9d"?>
<x:xmpmeta xmlns:x="adobe:ns:meta/" x:xmptk="Adobe XMP Core 5.6-c140 79.160451, 2017/05/06-01:08:21        ">
   <rdf:RDF xmlns:rdf="http://www.w3.org/1999/02/22-rdf-syntax-ns#">
      <rdf:Description rdf:about=""/>
   </rdf:RDF>
</x:xmpmeta>
                                                                                                    
                                                                                                    
                                                                                                    
                                                                                                    
                                                                                                    
                                                                                                    
                                                                                                    
                                                                                                    
                                                                                                    
                                                                                                    
                                                                                                    
                                                                                                    
                                                                                                    
                                                                                                    
                                                                                                    
                                                                                                    
                                                                                                    
                                                                                                    
                                                                                                    
                                                                                                    
                           
<?xpacket end="w"?></metadata>
<defs>
    <style>
      .cls-1 {
        fill: #fff;
        fill-rule: evenodd;
        filter: url(#filter);
      }
    </style>
    <filter id="filter" x="567" y="237" width="165" height="40" filterUnits="userSpaceOnUse">
      <feOffset result="offset" in="SourceAlpha"/>
      <feGaussianBlur result="blur" stdDeviation="2.236"/>
      <feFlood result="flood" flood-opacity="0.75"/>
      <feComposite result="composite" operator="in" in2="blur"/>
      <feBlend result="blend" in="SourceGraphic"/>
    </filter>
  </defs>
  <path id="採用情報" class="cls-1" d="M581.191,256.041c-0.768.32-1.344,0.576-2.623,1.088v-6.944h3.071v-2.367h-3.071v-5.792h-2.592v5.792h-4.16v2.367h4.16v7.9a36.145,36.145,0,0,1-4.576,1.344l0.416,2.624c1.312-.384,2.528-0.736,4.16-1.312v7.583a0.634,0.634,0,0,1-.768.768l-3.2-.032,0.448,2.656h3.872a2.111,2.111,0,0,0,2.24-2.208v-9.791c1.6-.7,2.111-0.928,2.879-1.312Zm0.288,14.175a29.5,29.5,0,0,0,8.832-8.319v9.823h2.5v-9.983c1.088,2.047,2.656,4.319,7.264,8.127l1.632-2.3a21.989,21.989,0,0,1-8.256-8.575h7.936v-2.368h-8.608v-2.432h-2.5v2.432h-8.128v2.368h7.712a26.155,26.155,0,0,1-9.792,8.991Zm5.5-16.7a26.276,26.276,0,0,0-2.432-5.791l-2.176.863a22.821,22.821,0,0,1,2.368,5.728Zm-4.416-7.263c4.736-.032,12.7-0.576,17.983-2.112l-1.28-2.208c-4.48,1.568-12.735,1.984-17.215,2.048Zm10.559,6.015a19.074,19.074,0,0,0-1.887-5.631l-2.368.736a19.143,19.143,0,0,1,1.856,5.535Zm4.384,2.144a37.654,37.654,0,0,0,3.808-7.615l-2.5-.9a29.993,29.993,0,0,1-3.52,7.551Zm43.744-11.039H616.776v14.751a27.218,27.218,0,0,1-1.024,6.623,12.576,12.576,0,0,1-2.56,4.544l1.824,2.336a17.691,17.691,0,0,0,4.128-9.855H627.4V271.4h2.528v-9.631h8.639v6.463a0.728,0.728,0,0,1-.736.864l-3.743-.064,0.319,2.656h4.32c1.088,0,2.528-.352,2.528-2.688V243.37Zm-2.688,16h-8.639v-5.632h8.639v5.632Zm0-8.064h-8.639v-5.439h8.639v5.439Zm-11.167,0h-7.967v-5.439H627.4v5.439Zm0,8.064h-8c0.032-.384.032-0.512,0.032-1.664v-3.968H627.4v5.632Zm48.511-13.311h8.128v-2.08H675.91v-1.984h-2.591v1.984h-8.1v2.08h8.1V248.2h-7.3v1.951h7.3V252.3h-8.8v2.048h20.127V252.3H675.91v-2.144H683.4V248.2H675.91v-2.144Zm-16.99-4.064V271.72h2.624V241.994H658.92Zm6.3,9.215a27.105,27.105,0,0,0-1.536-3.871l-1.919.768a24.023,24.023,0,0,1,1.439,3.967Zm17.951,4.9H666.151V271.72h2.56v-5.728h11.935v2.3a0.782,0.782,0,0,1-.832.992H676.23l0.512,2.432h3.392c2.592,0,3.04-.768,3.04-2.944V256.105Zm-2.528,4H668.711v-2.016h11.935v2.016Zm0,3.935H668.711v-2.015h11.935v2.015ZM655.56,248.457a23.323,23.323,0,0,1-1.152,7.968l2.112,1.088a31.029,31.029,0,0,0,1.152-8.96Zm70.974,20.863a29.532,29.532,0,0,1-4.16-3.808,28.669,28.669,0,0,0,3.136-11.071H715.175V245.45h7.391c-0.16,4.351-.544,4.831-1.952,4.831l-3.1-.032,0.448,2.464h3.552c1.984,0,2.432-.928,2.656-1.44,0.448-.992.9-4.575,0.864-8.255H712.679v28.67h2.5V256.777h7.615a25.061,25.061,0,0,1-2.048,6.527,31.448,31.448,0,0,1-2.56-5.5l-2.239.7a24.512,24.512,0,0,0,3.423,7.135,16.77,16.77,0,0,1-3.647,3.808l1.6,2.144a19.635,19.635,0,0,0,3.615-3.84A22.554,22.554,0,0,0,725,271.688ZM702.92,241.994v2.752h-5.5v2.368h5.5v3.391h-6.3v2.336h2.112a30.717,30.717,0,0,1,1.184,4.48H696.9v2.368h6.016v3.743h-5.5V265.8h5.5v5.888h2.527V265.8h5.5v-2.368h-5.5v-3.743h6.016v-2.368h-2.848c0.288-.928.832-3.008,1.12-4.48h2.016v-2.336h-6.3v-3.391h5.5v-2.368h-5.5v-2.752H702.92Zm-0.64,15.327a36.345,36.345,0,0,0-1.088-4.48h5.951a22.6,22.6,0,0,1-.928,4.48H702.28Z" transform="translate(-567 -237)"/>
</svg>
