<?xml version="1.0" encoding="UTF-8"?>
<svg width="106px" height="29px" viewBox="0 0 106 29" version="1.1" xmlns="http://www.w3.org/2000/svg" xmlns:xlink="http://www.w3.org/1999/xlink">
    <!-- Generator: Sketch 48.2 (47327) - http://www.bohemiancoding.com/sketch -->
    <title>採用情報</title>
    <desc>Created with Sketch.</desc>
    <defs>
        <path d="M10.62,13.9 L10.78,15.38 C10.3,15.62 9.98,15.76 8.98,16.2 L8.98,22.32 C8.98,23.42 8.1,23.7 7.58,23.7 L5.16,23.7 L4.88,22.04 L6.88,22.06 C7.28,22.06 7.36,21.9 7.36,21.58 L7.36,16.84 C6.34,17.2 5.58,17.42 4.76,17.66 L4.5,16.02 C5.78,15.72 6.54,15.48 7.36,15.18 L7.36,10.24 L4.76,10.24 L4.76,8.76 L7.36,8.76 L7.36,5.14 L8.98,5.14 L8.98,8.76 L10.9,8.76 L10.9,10.24 L8.98,10.24 L8.98,14.58 C9.78,14.26 10.14,14.1 10.62,13.9 Z M10.8,22.76 L9.92,21.36 C11.46,20.5 13.98,18.96 16.04,15.74 L11.22,15.74 L11.22,14.26 L16.3,14.26 L16.3,12.74 L17.86,12.74 L17.86,14.26 L23.24,14.26 L23.24,15.74 L18.28,15.74 C20.1,19.1 22.64,20.62 23.44,21.1 L22.42,22.54 C19.54,20.16 18.56,18.74 17.88,17.46 L17.88,23.7 L16.32,23.7 L16.32,17.56 C14.74,19.9 13,21.28 10.8,22.76 Z M14.24,12.32 L12.84,12.82 C12.44,11.34 12,10.38 11.36,9.24 L12.72,8.7 C13.46,10 13.84,11.02 14.24,12.32 Z M11.48,7.78 L11.16,6.36 C13.96,6.32 19.12,6.06 21.92,5.08 L22.72,6.46 C19.42,7.42 14.44,7.76 11.48,7.78 Z M18.08,11.54 L16.58,11.94 C16.48,11.46 16.22,9.94 15.42,8.48 L16.9,8.02 C17.16,8.5 17.58,9.28 18.08,11.54 Z M20.82,12.88 L19.44,12.28 C20.46,10.8 21.3,8.72 21.64,7.56 L23.2,8.12 C22.4,10.12 21.92,11.18 20.82,12.88 Z M48.1287505,5.98 L48.1287505,22 C48.1287505,23.46 47.2287505,23.68 46.5487505,23.68 L43.8487505,23.68 L43.6487505,22.02 L45.9887505,22.06 C46.3287505,22.06 46.4487505,21.82 46.4487505,21.52 L46.4487505,17.48 L41.0487505,17.48 L41.0487505,23.5 L39.4687505,23.5 L39.4687505,17.48 L34.3087505,17.48 C33.9487505,20.38 32.8487505,22.42 31.7287505,23.64 L30.5887505,22.18 C31.0487505,21.62 31.7887505,20.7 32.1887505,19.34 C32.5887505,17.92 32.8287505,16.28 32.8287505,15.2 L32.8287505,5.98 L48.1287505,5.98 Z M46.4487505,15.98 L46.4487505,12.46 L41.0487505,12.46 L41.0487505,15.98 L46.4487505,15.98 Z M46.4487505,10.94 L46.4487505,7.54 L41.0487505,7.54 L41.0487505,10.94 L46.4487505,10.94 Z M39.4687505,10.94 L39.4687505,7.54 L34.4887505,7.54 L34.4887505,10.94 L39.4687505,10.94 Z M39.4687505,15.98 L39.4687505,12.46 L34.4887505,12.46 L34.4887505,14.94 C34.4887505,15.66 34.4887505,15.74 34.4687505,15.98 L39.4687505,15.98 Z M69.757501,7.66 L69.757501,9 L74.437501,9 L74.437501,10.22 L69.757501,10.22 L69.757501,11.56 L75.217501,11.56 L75.217501,12.84 L62.637501,12.84 L62.637501,11.56 L68.137501,11.56 L68.137501,10.22 L63.577501,10.22 L63.577501,9 L68.137501,9 L68.137501,7.66 L63.077501,7.66 L63.077501,6.36 L68.137501,6.36 L68.137501,5.12 L69.757501,5.12 L69.757501,6.36 L74.837501,6.36 L74.837501,7.66 L69.757501,7.66 Z M59.137501,5.12 L60.777501,5.12 L60.777501,23.7 L59.137501,23.7 L59.137501,5.12 Z M63.077501,10.88 L61.817501,11.42 C61.557501,10.38 61.097501,9.32 60.917501,8.94 L62.117501,8.46 C62.257501,8.76 62.797501,9.88 63.077501,10.88 Z M74.297501,13.94 L74.297501,21.86 C74.297501,23.22 74.017501,23.7 72.397501,23.7 L70.277501,23.7 L69.957501,22.18 L72.197501,22.18 C72.717501,22.18 72.717501,21.82 72.717501,21.56 L72.717501,20.12 L65.257501,20.12 L65.257501,23.7 L63.657501,23.7 L63.657501,13.94 L74.297501,13.94 Z M72.717501,16.44 L72.717501,15.18 L65.257501,15.18 L65.257501,16.44 L72.717501,16.44 Z M72.717501,18.9 L72.717501,17.64 L65.257501,17.64 L65.257501,18.9 L72.717501,18.9 Z M57.037501,9.16 L58.357501,9.22 C58.357501,9.84 58.357501,12.74 57.637501,14.82 L56.317501,14.14 C56.897501,12.68 57.077501,10.4 57.037501,9.16 Z M101.366251,22.2 L100.406251,23.68 C99.7862514,23.2 98.9862514,22.58 97.8662514,21.22 C96.9262514,22.5 96.2062514,23.12 95.6062514,23.62 L94.6062514,22.28 C95.1862514,21.8 96.0262514,21.16 96.8862514,19.9 C95.4262514,17.72 94.9662514,16.18 94.7462514,15.44 L96.1462514,15 C96.7662514,16.62 97.2062514,17.56 97.7462514,18.44 C98.6062514,16.68 98.9062514,15 99.0262514,14.36 L94.2662514,14.36 L94.2662514,23.68 L92.7062514,23.68 L92.7062514,5.76 L100.426251,5.76 C100.446251,8.06 100.166251,10.3 99.8862514,10.92 C99.7462514,11.24 99.4662514,11.82 98.2262514,11.82 L96.0062514,11.82 L95.7262514,10.28 L97.6662514,10.3 C98.5462514,10.3 98.7862514,10 98.8862514,7.28 L94.2662514,7.28 L94.2662514,12.9 L100.726251,12.9 C100.566251,14.46 100.226251,17.16 98.7662514,19.82 C99.4662514,20.62 100.226251,21.3 101.366251,22.2 Z M86.6062514,5.12 L88.1862514,5.12 L88.1862514,6.84 L91.6262514,6.84 L91.6262514,8.32 L88.1862514,8.32 L88.1862514,10.44 L92.1262514,10.44 L92.1262514,11.9 L90.8662514,11.9 C90.6862514,12.82 90.3462514,14.12 90.1662514,14.7 L91.9462514,14.7 L91.9462514,16.18 L88.1862514,16.18 L88.1862514,18.52 L91.6262514,18.52 L91.6262514,20 L88.1862514,20 L88.1862514,23.68 L86.6062514,23.68 L86.6062514,20 L83.1662514,20 L83.1662514,18.52 L86.6062514,18.52 L86.6062514,16.18 L82.8462514,16.18 L82.8462514,14.7 L84.7262514,14.7 C84.5662514,13.74 84.2062514,12.52 83.9862514,11.9 L82.6662514,11.9 L82.6662514,10.44 L86.6062514,10.44 L86.6062514,8.32 L83.1662514,8.32 L83.1662514,6.84 L86.6062514,6.84 L86.6062514,5.12 Z M86.2062514,14.7 L88.6662514,14.7 C88.9062514,14 89.1662514,12.78 89.2462514,11.9 L85.5262514,11.9 C85.8062514,12.82 86.0662514,13.84 86.2062514,14.7 Z" id="path-1"></path>
        <filter x="-7.7%" y="-40.3%" width="115.5%" height="180.6%" filterUnits="objectBoundingBox" id="filter-2">
            <feOffset dx="0" dy="0" in="SourceAlpha" result="shadowOffsetOuter1"></feOffset>
            <feGaussianBlur stdDeviation="2.5" in="shadowOffsetOuter1" result="shadowBlurOuter1"></feGaussianBlur>
            <feColorMatrix values="0 0 0 0 0   0 0 0 0 0   0 0 0 0 0  0 0 0 0.75 0" type="matrix" in="shadowBlurOuter1"></feColorMatrix>
        </filter>
    </defs>
    <g id="Page-1" stroke="none" stroke-width="1" fill="none" fill-rule="evenodd">
        <g id="採用情報">
            <use fill="black" fill-opacity="1" filter="url(#filter-2)" xlink:href="#path-1"></use>
            <use fill="#FFFFFF" fill-rule="evenodd" xlink:href="#path-1"></use>
        </g>
    </g>
</svg>