<svg xmlns="http://www.w3.org/2000/svg" xmlns:xlink="http://www.w3.org/1999/xlink" width="127" height="33" viewBox="0 0 127 33">
  <metadata><?xpacket begin="﻿" id="W5M0MpCehiHzreSzNTczkc9d"?>
<x:xmpmeta xmlns:x="adobe:ns:meta/" x:xmptk="Adobe XMP Core 5.6-c140 79.160451, 2017/05/06-01:08:21        ">
   <rdf:RDF xmlns:rdf="http://www.w3.org/1999/02/22-rdf-syntax-ns#">
      <rdf:Description rdf:about=""/>
   </rdf:RDF>
</x:xmpmeta>
                                                                                                    
                                                                                                    
                                                                                                    
                                                                                                    
                                                                                                    
                                                                                                    
                                                                                                    
                                                                                                    
                                                                                                    
                                                                                                    
                                                                                                    
                                                                                                    
                                                                                                    
                                                                                                    
                                                                                                    
                                                                                                    
                                                                                                    
                                                                                                    
                                                                                                    
                                                                                                    
                           
<?xpacket end="w"?></metadata>
<defs>
    <style>
      .cls-1 {
        fill: #fff;
        fill-rule: evenodd;
        filter: url(#filter);
      }
    </style>
    <filter id="filter" x="96" y="153" width="127" height="33" filterUnits="userSpaceOnUse">
      <feOffset result="offset" in="SourceAlpha"/>
      <feGaussianBlur result="blur" stdDeviation="2.236"/>
      <feFlood result="flood" flood-opacity="0.75"/>
      <feComposite result="composite" operator="in" in2="blur"/>
      <feBlend result="blend" in="SourceGraphic"/>
    </filter>
  </defs>
  <path id="ttl_header.svg" class="cls-1" d="M114.865,172.96a44.049,44.049,0,0,1,3.313,3.72c-1.776.168-4.249,0.384-7.177,0.5-0.5.024-3.192,0.1-3.792,0.12a65.521,65.521,0,0,0,3.1-6.169h12.529v-1.848H101.4v1.848h6.577a41.088,41.088,0,0,1-2.952,6.217h-3.313l0.216,1.968c3.7,0,13.49-.432,17.5-1.008,0.5,0.744.792,1.2,1.176,1.848l1.728-1.152a35.1,35.1,0,0,0-5.88-7.129Zm3.7-8.089a25.934,25.934,0,0,0,4.1,2.256l1.056-1.92a23.236,23.236,0,0,1-10.489-7.729H111.1c-0.648.96-3.336,4.849-10.489,7.657l0.984,1.944a27.835,27.835,0,0,0,4.273-2.232v1.344h12.7v-1.32Zm-11.953-.5a22.311,22.311,0,0,0,5.568-5.185,24.566,24.566,0,0,0,5.617,5.185H106.609ZM138,169.743a16.252,16.252,0,0,0,2.856,2.881l1.08-1.753a17.315,17.315,0,0,1-3.456-3.144,16.8,16.8,0,0,0,2.616-4.248v-1.824H138v-3.913h-1.944v3.913h-3.793v1.8h6.721a17.366,17.366,0,0,1-7.033,7.44l0.816,1.969a22.419,22.419,0,0,0,3.289-2.545v9.721H138v-10.3Zm8.617-12v6.937H141.6v1.968h5.017v10.561h-6.145v1.968h13.993v-1.968h-5.832V166.647h5.28v-1.968h-5.28v-6.937h-2.016Zm32.568,3.049h6.1V159.23h-6.1v-1.488h-1.945v1.488h-6.072v1.561h6.072V162.4h-5.472v1.464h5.472v1.608h-6.6v1.536h15.1v-1.536h-6.552v-1.608H184.8V162.4h-5.616v-1.608Zm-12.745-3.049v22.3h1.968v-22.3h-1.968Zm4.728,6.913a20.348,20.348,0,0,0-1.152-2.9l-1.44.576a17.974,17.974,0,0,1,1.08,2.976Zm13.465,3.672H171.865V180.04h1.92v-4.3h8.953v1.728a0.586,0.586,0,0,1-.624.744h-2.688l0.384,1.824h2.544c1.944,0,2.28-.576,2.28-2.208v-9.5Zm-1.9,3h-8.953v-1.512h8.953v1.512Zm0,2.953h-8.953v-1.512h8.953v1.512ZM163.92,162.591a17.492,17.492,0,0,1-.864,5.976l1.584,0.816a23.272,23.272,0,0,0,.864-6.72Zm53.234,15.649a22.149,22.149,0,0,1-3.12-2.856,21.516,21.516,0,0,0,2.352-8.3h-7.753v-6.745h5.545c-0.12,3.265-.408,3.625-1.464,3.625l-2.328-.024,0.336,1.848h2.664c1.488,0,1.824-.7,1.992-1.08a21.6,21.6,0,0,0,.648-6.193h-9.265v21.506h1.872V168.831h5.713a18.822,18.822,0,0,1-1.536,4.9,23.641,23.641,0,0,1-1.92-4.129l-1.68.528a18.375,18.375,0,0,0,2.568,5.353,12.577,12.577,0,0,1-2.736,2.856l1.2,1.608a14.7,14.7,0,0,0,2.712-2.88A16.916,16.916,0,0,0,216,180.016Zm-17.713-20.5v2.064h-4.129v1.777h4.129v2.544h-4.729v1.752H196.3a23.037,23.037,0,0,1,.888,3.36h-2.256v1.776h4.513v2.809h-4.129V175.6h4.129v4.416h1.9V175.6h4.128v-1.776h-4.128v-2.809h4.512v-1.776h-2.136c0.216-.7.624-2.256,0.84-3.36h1.512v-1.752h-4.728v-2.544h4.128v-1.777h-4.128v-2.064h-1.9Zm-0.48,11.5a27.259,27.259,0,0,0-.816-3.36h4.464a16.949,16.949,0,0,1-.7,3.36h-2.952Z" transform="translate(-96 -153)"/>
</svg>
