<svg xmlns="http://www.w3.org/2000/svg" xmlns:xlink="http://www.w3.org/1999/xlink" width="165" height="40" viewBox="0 0 165 40">
  <metadata><?xpacket begin="﻿" id="W5M0MpCehiHzreSzNTczkc9d"?>
<x:xmpmeta xmlns:x="adobe:ns:meta/" x:xmptk="Adobe XMP Core 5.6-c140 79.160451, 2017/05/06-01:08:21        ">
   <rdf:RDF xmlns:rdf="http://www.w3.org/1999/02/22-rdf-syntax-ns#">
      <rdf:Description rdf:about=""/>
   </rdf:RDF>
</x:xmpmeta>
                                                                                                    
                                                                                                    
                                                                                                    
                                                                                                    
                                                                                                    
                                                                                                    
                                                                                                    
                                                                                                    
                                                                                                    
                                                                                                    
                                                                                                    
                                                                                                    
                                                                                                    
                                                                                                    
                                                                                                    
                                                                                                    
                                                                                                    
                                                                                                    
                                                                                                    
                                                                                                    
                           
<?xpacket end="w"?></metadata>
<defs>
    <style>
      .cls-1 {
        fill: #fff;
        fill-rule: evenodd;
        filter: url(#filter);
      }
    </style>
    <filter id="filter" x="567" y="237" width="165" height="40" filterUnits="userSpaceOnUse">
      <feOffset result="offset" in="SourceAlpha"/>
      <feGaussianBlur result="blur" stdDeviation="2.236"/>
      <feFlood result="flood" flood-opacity="0.75"/>
      <feComposite result="composite" operator="in" in2="blur"/>
      <feBlend result="blend" in="SourceGraphic"/>
    </filter>
  </defs>
  <path id="ttl_header.svg" class="cls-1" d="M590.151,262.28a58.962,58.962,0,0,1,4.415,4.96c-2.367.224-5.663,0.512-9.567,0.672-0.672.032-4.256,0.128-5.056,0.16a87.558,87.558,0,0,0,4.128-8.223h16.7v-2.464H572.2v2.464h8.767a54.916,54.916,0,0,1-3.935,8.287h-4.416l0.288,2.624c4.928,0,17.983-.576,23.326-1.344,0.672,0.992,1.056,1.6,1.568,2.464l2.3-1.536a46.752,46.752,0,0,0-7.839-9.5Zm4.927-10.783a34.578,34.578,0,0,0,5.472,3.008l1.408-2.56a30.973,30.973,0,0,1-13.983-10.3h-2.848c-0.864,1.28-4.448,6.464-13.983,10.207l1.312,2.592a37.121,37.121,0,0,0,5.7-2.976v1.792h16.926V251.5Zm-15.935-.672a29.762,29.762,0,0,0,7.424-6.911,32.765,32.765,0,0,0,7.487,6.911H579.143ZM621,257.993a21.613,21.613,0,0,0,3.808,3.84l1.44-2.336a23.087,23.087,0,0,1-4.608-4.192,22.405,22.405,0,0,0,3.488-5.664V247.21H621v-5.216h-2.591v5.216h-5.056v2.4h8.959a23.154,23.154,0,0,1-9.375,9.92l1.088,2.623a29.691,29.691,0,0,0,4.384-3.391V271.72H621V257.993Zm11.488-16v9.247H625.8v2.624h6.688v14.079h-8.192v2.624H642.95v-2.624h-7.776V253.865h7.04v-2.624h-7.04v-9.247h-2.687Zm43.423,4.064h8.128v-2.08H675.91v-1.984h-2.591v1.984h-8.1v2.08h8.1V248.2h-7.3v1.951h7.3V252.3h-8.8v2.048h20.127V252.3H675.91v-2.144H683.4V248.2H675.91v-2.144Zm-16.99-4.064V271.72h2.624V241.994H658.92Zm6.3,9.215a27.105,27.105,0,0,0-1.536-3.871l-1.919.768a24.023,24.023,0,0,1,1.439,3.967Zm17.951,4.9H666.151V271.72h2.56v-5.728h11.935v2.3a0.782,0.782,0,0,1-.832.992H676.23l0.512,2.432h3.392c2.592,0,3.04-.768,3.04-2.944V256.105Zm-2.528,4H668.711v-2.016h11.935v2.016Zm0,3.935H668.711v-2.015h11.935v2.015ZM655.56,248.457a23.323,23.323,0,0,1-1.152,7.968l2.112,1.088a31.029,31.029,0,0,0,1.152-8.96Zm70.974,20.863a29.532,29.532,0,0,1-4.16-3.808,28.669,28.669,0,0,0,3.136-11.071H715.175V245.45h7.391c-0.16,4.351-.544,4.831-1.952,4.831l-3.1-.032,0.448,2.464h3.552c1.984,0,2.432-.928,2.656-1.44,0.448-.992.9-4.575,0.864-8.255H712.679v28.67h2.5V256.777h7.615a25.061,25.061,0,0,1-2.048,6.527,31.448,31.448,0,0,1-2.56-5.5l-2.239.7a24.512,24.512,0,0,0,3.423,7.135,16.77,16.77,0,0,1-3.647,3.808l1.6,2.144a19.635,19.635,0,0,0,3.615-3.84A22.554,22.554,0,0,0,725,271.688ZM702.92,241.994v2.752h-5.5v2.368h5.5v3.391h-6.3v2.336h2.112a30.717,30.717,0,0,1,1.184,4.48H696.9v2.368h6.016v3.743h-5.5V265.8h5.5v5.888h2.527V265.8h5.5v-2.368h-5.5v-3.743h6.016v-2.368h-2.848c0.288-.928.832-3.008,1.12-4.48h2.016v-2.336h-6.3v-3.391h5.5v-2.368h-5.5v-2.752H702.92Zm-0.64,15.327a36.345,36.345,0,0,0-1.088-4.48h5.951a22.6,22.6,0,0,1-.928,4.48H702.28Z" transform="translate(-567 -237)"/>
</svg>
