<?xml version="1.0" encoding="UTF-8"?>
<svg width="106px" height="29px" viewBox="0 0 106 29" version="1.1" xmlns="http://www.w3.org/2000/svg" xmlns:xlink="http://www.w3.org/1999/xlink">
    <!-- Generator: Sketch 48.2 (47327) - http://www.bohemiancoding.com/sketch -->
    <title>会社情報 copy 2</title>
    <desc>Created with Sketch.</desc>
    <defs>
        <path d="M16.22,17.8 L17.54,16.9 C19.68,19 20.9,20.4 22.44,22.84 L21,23.8 C20.68,23.26 20.44,22.88 20.02,22.26 C16.68,22.74 8.52,23.1 5.44,23.1 L5.26,21.46 L8.02,21.46 C9.28,19.3 10.04,17.44 10.48,16.28 L5,16.28 L5,14.74 L22.86,14.74 L22.86,16.28 L12.42,16.28 C11.94,17.38 11.14,19.12 9.84,21.42 C10.34,21.4 12.58,21.34 13,21.32 C15.44,21.22 17.5,21.04 18.98,20.9 C18.78,20.64 17.78,19.38 16.22,17.8 Z M19.3,11.06 L19.3,12.16 L8.72,12.16 L8.72,11.04 C6.94,12.14 5.84,12.62 5.16,12.9 L4.34,11.28 C10.3,8.94 12.54,5.7 13.08,4.9 L14.86,4.9 C16.94,7.68 20.12,10.1 23.6,11.34 L22.72,12.94 C21.84,12.54 20.72,12.02 19.3,11.06 Z M9.34,10.64 L18.66,10.64 C15.84,8.64 14.68,7.2 13.98,6.32 C12.72,8.08 11.02,9.48 9.34,10.64 Z M35.4687505,15.12 L35.4687505,23.7 L33.8487505,23.7 L33.8487505,15.6 C32.5887505,16.76 31.6687505,17.36 31.1087505,17.72 L30.4287505,16.08 C33.7487505,14.08 35.6087505,11.5 36.2887505,9.88 L30.6887505,9.88 L30.6887505,8.38 L33.8487505,8.38 L33.8487505,5.12 L35.4687505,5.12 L35.4687505,8.38 L38.0487505,8.38 L38.0487505,9.9 C37.8487505,10.38 37.3287505,11.62 35.8687505,13.44 C36.9287505,14.66 37.6287505,15.26 38.7487505,16.06 L37.8487505,17.52 C36.7887505,16.66 36.5687505,16.42 35.4687505,15.12 Z M42.6487505,5.12 L44.3287505,5.12 L44.3287505,10.9 L48.7287505,10.9 L48.7287505,12.54 L44.3287505,12.54 L44.3287505,21.34 L49.1887505,21.34 L49.1887505,22.98 L37.5287505,22.98 L37.5287505,21.34 L42.6487505,21.34 L42.6487505,12.54 L38.4687505,12.54 L38.4687505,10.9 L42.6487505,10.9 L42.6487505,5.12 Z M69.757501,7.66 L69.757501,9 L74.437501,9 L74.437501,10.22 L69.757501,10.22 L69.757501,11.56 L75.217501,11.56 L75.217501,12.84 L62.637501,12.84 L62.637501,11.56 L68.137501,11.56 L68.137501,10.22 L63.577501,10.22 L63.577501,9 L68.137501,9 L68.137501,7.66 L63.077501,7.66 L63.077501,6.36 L68.137501,6.36 L68.137501,5.12 L69.757501,5.12 L69.757501,6.36 L74.837501,6.36 L74.837501,7.66 L69.757501,7.66 Z M59.137501,5.12 L60.777501,5.12 L60.777501,23.7 L59.137501,23.7 L59.137501,5.12 Z M63.077501,10.88 L61.817501,11.42 C61.557501,10.38 61.097501,9.32 60.917501,8.94 L62.117501,8.46 C62.257501,8.76 62.797501,9.88 63.077501,10.88 Z M74.297501,13.94 L74.297501,21.86 C74.297501,23.22 74.017501,23.7 72.397501,23.7 L70.277501,23.7 L69.957501,22.18 L72.197501,22.18 C72.717501,22.18 72.717501,21.82 72.717501,21.56 L72.717501,20.12 L65.257501,20.12 L65.257501,23.7 L63.657501,23.7 L63.657501,13.94 L74.297501,13.94 Z M72.717501,16.44 L72.717501,15.18 L65.257501,15.18 L65.257501,16.44 L72.717501,16.44 Z M72.717501,18.9 L72.717501,17.64 L65.257501,17.64 L65.257501,18.9 L72.717501,18.9 Z M57.037501,9.16 L58.357501,9.22 C58.357501,9.84 58.357501,12.74 57.637501,14.82 L56.317501,14.14 C56.897501,12.68 57.077501,10.4 57.037501,9.16 Z M101.366251,22.2 L100.406251,23.68 C99.7862514,23.2 98.9862514,22.58 97.8662514,21.22 C96.9262514,22.5 96.2062514,23.12 95.6062514,23.62 L94.6062514,22.28 C95.1862514,21.8 96.0262514,21.16 96.8862514,19.9 C95.4262514,17.72 94.9662514,16.18 94.7462514,15.44 L96.1462514,15 C96.7662514,16.62 97.2062514,17.56 97.7462514,18.44 C98.6062514,16.68 98.9062514,15 99.0262514,14.36 L94.2662514,14.36 L94.2662514,23.68 L92.7062514,23.68 L92.7062514,5.76 L100.426251,5.76 C100.446251,8.06 100.166251,10.3 99.8862514,10.92 C99.7462514,11.24 99.4662514,11.82 98.2262514,11.82 L96.0062514,11.82 L95.7262514,10.28 L97.6662514,10.3 C98.5462514,10.3 98.7862514,10 98.8862514,7.28 L94.2662514,7.28 L94.2662514,12.9 L100.726251,12.9 C100.566251,14.46 100.226251,17.16 98.7662514,19.82 C99.4662514,20.62 100.226251,21.3 101.366251,22.2 Z M86.6062514,5.12 L88.1862514,5.12 L88.1862514,6.84 L91.6262514,6.84 L91.6262514,8.32 L88.1862514,8.32 L88.1862514,10.44 L92.1262514,10.44 L92.1262514,11.9 L90.8662514,11.9 C90.6862514,12.82 90.3462514,14.12 90.1662514,14.7 L91.9462514,14.7 L91.9462514,16.18 L88.1862514,16.18 L88.1862514,18.52 L91.6262514,18.52 L91.6262514,20 L88.1862514,20 L88.1862514,23.68 L86.6062514,23.68 L86.6062514,20 L83.1662514,20 L83.1662514,18.52 L86.6062514,18.52 L86.6062514,16.18 L82.8462514,16.18 L82.8462514,14.7 L84.7262514,14.7 C84.5662514,13.74 84.2062514,12.52 83.9862514,11.9 L82.6662514,11.9 L82.6662514,10.44 L86.6062514,10.44 L86.6062514,8.32 L83.1662514,8.32 L83.1662514,6.84 L86.6062514,6.84 L86.6062514,5.12 Z M86.2062514,14.7 L88.6662514,14.7 C88.9062514,14 89.1662514,12.78 89.2462514,11.9 L85.5262514,11.9 C85.8062514,12.82 86.0662514,13.84 86.2062514,14.7 Z" id="path-1"></path>
        <filter x="-7.7%" y="-39.7%" width="115.5%" height="179.4%" filterUnits="objectBoundingBox" id="filter-2">
            <feOffset dx="0" dy="0" in="SourceAlpha" result="shadowOffsetOuter1"></feOffset>
            <feGaussianBlur stdDeviation="2.5" in="shadowOffsetOuter1" result="shadowBlurOuter1"></feGaussianBlur>
            <feColorMatrix values="0 0 0 0 0   0 0 0 0 0   0 0 0 0 0  0 0 0 0.75 0" type="matrix" in="shadowBlurOuter1"></feColorMatrix>
        </filter>
    </defs>
    <g id="Page-1" stroke="none" stroke-width="1" fill="none" fill-rule="evenodd">
        <g id="会社情報-copy-2">
            <use fill="black" fill-opacity="1" filter="url(#filter-2)" xlink:href="#path-1"></use>
            <use fill="#FFFFFF" fill-rule="evenodd" xlink:href="#path-1"></use>
        </g>
    </g>
</svg>