<?xml version="1.0" encoding="UTF-8"?>
<svg width="164px" height="40px" viewBox="0 0 164 40" version="1.1" xmlns="http://www.w3.org/2000/svg" xmlns:xlink="http://www.w3.org/1999/xlink">
    <!-- Generator: Sketch 48.2 (47327) - http://www.bohemiancoding.com/sketch -->
    <title>会社情報 copy 3</title>
    <desc>Created with Sketch.</desc>
    <defs>
        <path d="M23.552,25.28 L25.664,23.84 C29.088,27.2 31.04,29.44 33.504,33.344 L31.2,34.88 C30.688,34.016 30.304,33.408 29.632,32.416 C24.288,33.184 11.232,33.76 6.304,33.76 L6.016,31.136 L10.432,31.136 C12.448,27.68 13.664,24.704 14.368,22.848 L5.6,22.848 L5.6,20.384 L34.176,20.384 L34.176,22.848 L17.472,22.848 C16.704,24.608 15.424,27.392 13.344,31.072 C14.144,31.04 17.728,30.944 18.4,30.912 C22.304,30.752 25.6,30.464 27.968,30.24 C27.648,29.824 26.048,27.808 23.552,25.28 Z M28.48,14.496 L28.48,16.256 L11.552,16.256 L11.552,14.464 C8.704,16.224 6.944,16.992 5.856,17.44 L4.544,14.848 C14.08,11.104 17.664,5.92 18.528,4.64 L21.376,4.64 C24.704,9.088 29.792,12.96 35.36,14.944 L33.952,17.504 C32.544,16.864 30.752,16.032 28.48,14.496 Z M12.544,13.824 L27.456,13.824 C22.944,10.624 21.088,8.32 19.968,6.912 C17.952,9.728 15.232,11.968 12.544,13.824 Z M54.3500002,20.992 L54.3500002,34.72 L51.7580002,34.72 L51.7580002,21.76 C49.7420002,23.616 48.2700002,24.576 47.3740002,25.152 L46.2860002,22.528 C51.5980002,19.328 54.5740002,15.2 55.6620002,12.608 L46.7020002,12.608 L46.7020002,10.208 L51.7580002,10.208 L51.7580002,4.992 L54.3500002,4.992 L54.3500002,10.208 L58.4780002,10.208 L58.4780002,12.64 C58.1580002,13.408 57.3260002,15.392 54.9900002,18.304 C56.6860002,20.256 57.8060002,21.216 59.5980002,22.496 L58.1580002,24.832 C56.4620002,23.456 56.1100002,23.072 54.3500002,20.992 Z M65.8380002,4.992 L68.5260002,4.992 L68.5260002,14.24 L75.5660002,14.24 L75.5660002,16.864 L68.5260002,16.864 L68.5260002,30.944 L76.3020002,30.944 L76.3020002,33.568 L57.6460002,33.568 L57.6460002,30.944 L65.8380002,30.944 L65.8380002,16.864 L59.1500002,16.864 L59.1500002,14.24 L65.8380002,14.24 L65.8380002,4.992 Z M109.212,9.056 L109.212,11.2 L116.7,11.2 L116.7,13.152 L109.212,13.152 L109.212,15.296 L117.948,15.296 L117.948,17.344 L97.8200004,17.344 L97.8200004,15.296 L106.62,15.296 L106.62,13.152 L99.3240004,13.152 L99.3240004,11.2 L106.62,11.2 L106.62,9.056 L98.5240004,9.056 L98.5240004,6.976 L106.62,6.976 L106.62,4.992 L109.212,4.992 L109.212,6.976 L117.34,6.976 L117.34,9.056 L109.212,9.056 Z M92.2200004,4.992 L94.8440004,4.992 L94.8440004,34.72 L92.2200004,34.72 L92.2200004,4.992 Z M98.5240004,14.208 L96.5080004,15.072 C96.0920004,13.408 95.3560004,11.712 95.0680004,11.104 L96.9880004,10.336 C97.2120004,10.816 98.0760004,12.608 98.5240004,14.208 Z M116.476,19.104 L116.476,31.776 C116.476,33.952 116.028,34.72 113.436,34.72 L110.044,34.72 L109.532,32.288 L113.116,32.288 C113.948,32.288 113.948,31.712 113.948,31.296 L113.948,28.992 L102.012,28.992 L102.012,34.72 L99.4520004,34.72 L99.4520004,19.104 L116.476,19.104 Z M113.948,23.104 L113.948,21.088 L102.012,21.088 L102.012,23.104 L113.948,23.104 Z M113.948,27.04 L113.948,25.024 L102.012,25.024 L102.012,27.04 L113.948,27.04 Z M88.8600004,11.456 L90.9720004,11.552 C90.9720004,12.544 90.9720004,17.184 89.8200004,20.512 L87.7080004,19.424 C88.6360004,17.088 88.9240004,13.44 88.8600004,11.456 Z M159.786001,32.32 L158.250001,34.688 C157.258001,33.92 155.978001,32.928 154.186001,30.752 C152.682001,32.8 151.530001,33.792 150.570001,34.592 L148.970001,32.448 C149.898001,31.68 151.242001,30.656 152.618001,28.64 C150.282001,25.152 149.546001,22.688 149.194001,21.504 L151.434001,20.8 C152.426001,23.392 153.130001,24.896 153.994001,26.304 C155.370001,23.488 155.850001,20.8 156.042001,19.776 L148.426001,19.776 L148.426001,34.688 L145.930001,34.688 L145.930001,6.016 L158.282001,6.016 C158.314001,9.696 157.866001,13.28 157.418001,14.272 C157.194001,14.784 156.746001,15.712 154.762001,15.712 L151.210001,15.712 L150.762001,13.248 L153.866001,13.28 C155.274001,13.28 155.658001,12.8 155.818001,8.448 L148.426001,8.448 L148.426001,17.44 L158.762001,17.44 C158.506001,19.936 157.962001,24.256 155.626001,28.512 C156.746001,29.792 157.962001,30.88 159.786001,32.32 Z M136.170001,4.992 L138.698001,4.992 L138.698001,7.744 L144.202001,7.744 L144.202001,10.112 L138.698001,10.112 L138.698001,13.504 L145.002001,13.504 L145.002001,15.84 L142.986001,15.84 C142.698001,17.312 142.154001,19.392 141.866001,20.32 L144.714001,20.32 L144.714001,22.688 L138.698001,22.688 L138.698001,26.432 L144.202001,26.432 L144.202001,28.8 L138.698001,28.8 L138.698001,34.688 L136.170001,34.688 L136.170001,28.8 L130.666001,28.8 L130.666001,26.432 L136.170001,26.432 L136.170001,22.688 L130.154001,22.688 L130.154001,20.32 L133.162001,20.32 C132.906001,18.784 132.330001,16.832 131.978001,15.84 L129.866001,15.84 L129.866001,13.504 L136.170001,13.504 L136.170001,10.112 L130.666001,10.112 L130.666001,7.744 L136.170001,7.744 L136.170001,4.992 Z M135.530001,20.32 L139.466001,20.32 C139.850001,19.2 140.266001,17.248 140.394001,15.84 L134.442001,15.84 C134.890001,17.312 135.306001,18.944 135.530001,20.32 Z" id="path-1"></path>
        <filter x="-4.8%" y="-24.8%" width="109.7%" height="149.6%" filterUnits="objectBoundingBox" id="filter-2">
            <feOffset dx="0" dy="0" in="SourceAlpha" result="shadowOffsetOuter1"></feOffset>
            <feGaussianBlur stdDeviation="2.5" in="shadowOffsetOuter1" result="shadowBlurOuter1"></feGaussianBlur>
            <feColorMatrix values="0 0 0 0 0   0 0 0 0 0   0 0 0 0 0  0 0 0 0.75 0" type="matrix" in="shadowBlurOuter1"></feColorMatrix>
        </filter>
    </defs>
    <g id="Page-1" stroke="none" stroke-width="1" fill="none" fill-rule="evenodd">
        <g id="会社情報-copy-3">
            <use fill="black" fill-opacity="1" filter="url(#filter-2)" xlink:href="#path-1"></use>
            <use fill="#FFFFFF" fill-rule="evenodd" xlink:href="#path-1"></use>
        </g>
    </g>
</svg>