<svg xmlns="http://www.w3.org/2000/svg" xmlns:xlink="http://www.w3.org/1999/xlink" width="95" height="33" viewBox="0 0 95 33">
  <metadata><?xpacket begin="﻿" id="W5M0MpCehiHzreSzNTczkc9d"?>
<x:xmpmeta xmlns:x="adobe:ns:meta/" x:xmptk="Adobe XMP Core 5.6-c140 79.160451, 2017/05/06-01:08:21        ">
   <rdf:RDF xmlns:rdf="http://www.w3.org/1999/02/22-rdf-syntax-ns#">
      <rdf:Description rdf:about=""/>
   </rdf:RDF>
</x:xmpmeta>
                                                                                                    
                                                                                                    
                                                                                                    
                                                                                                    
                                                                                                    
                                                                                                    
                                                                                                    
                                                                                                    
                                                                                                    
                                                                                                    
                                                                                                    
                                                                                                    
                                                                                                    
                                                                                                    
                                                                                                    
                                                                                                    
                                                                                                    
                                                                                                    
                                                                                                    
                                                                                                    
                           
<?xpacket end="w"?></metadata>
<defs>
    <style>
      .cls-1 {
        fill: #fff;
        fill-rule: evenodd;
        filter: url(#filter);
      }
    </style>
    <filter id="filter" x="112" y="153" width="95" height="33" filterUnits="userSpaceOnUse">
      <feOffset result="offset" in="SourceAlpha"/>
      <feGaussianBlur result="blur" stdDeviation="2.236"/>
      <feFlood result="flood" flood-opacity="0.75"/>
      <feComposite result="composite" operator="in" in2="blur"/>
      <feBlend result="blend" in="SourceGraphic"/>
    </filter>
  </defs>
  <path id="ttl_header_sp.svg" data-name="ttl_header@sp.svg" class="cls-1" d="M133.37,163.887a15.221,15.221,0,0,1,2.76,2.136h-6.289c-0.1-1.344-.12-2.088-0.144-2.688h-1.944c0.024,0.672.048,1.464,0.144,2.688h-9.313v4.056c0,5.857-1.3,7.465-2.184,8.545l1.608,1.56c1.9-2.4,2.568-5.976,2.568-10.1v-2.256h7.513a21.752,21.752,0,0,0,1.92,6.7,21.147,21.147,0,0,1-8.472,3.408l1.128,1.848a25.8,25.8,0,0,0,8.28-3.624c1.921,2.88,4.249,3.984,5.257,3.984,1.1,0,2.112-.7,2.952-4.608l-1.8-1.128c-0.12,1.248-.624,3.48-1.392,3.48-0.528,0-2.136-1.1-3.409-2.928a20.7,20.7,0,0,0,4.417-5.041l-1.7-.984a17.467,17.467,0,0,1-3.673,4.369,18.5,18.5,0,0,1-1.536-5.473h8.809v-1.8h-2.4l1.08-1.272a12.756,12.756,0,0,0-3.024-2.16Zm-10.465-6.1v2.16h-6.169V161.8h6.169v2.088H124.9V161.8h5.952v2.088h1.945V161.8h6.072V159.95h-6.072v-2.16h-1.945v2.16H124.9v-2.16h-1.992Zm25.9,4.993v9.529a15.249,15.249,0,0,1-1.176,6.36l1.608,1.3a17.316,17.316,0,0,0,1.272-5.952h2.737v3.6a0.451,0.451,0,0,1-.528.552l-2.017-.024,0.336,1.8h2.185a1.569,1.569,0,0,0,1.752-1.8V162.783H148.8Zm5.161-4.993v1.3h-6.049v1.729h6.049v1.44h1.9v-1.44h6.288v1.344h1.921v-1.344h6.024v-1.729h-6.024v-1.3h-1.921v1.3h-6.288v-1.3h-1.9Zm7.728,15.962a14.961,14.961,0,0,0-2.16-2.257,11.951,11.951,0,0,0,1.632-1.9H165.1a11.361,11.361,0,0,0,1.608,1.968,18.033,18.033,0,0,1-1.992,2.161l1.152,1.08a17.88,17.88,0,0,0,2.088-2.112,13.107,13.107,0,0,0,1.368,1.008l1.1-1.513a10.888,10.888,0,0,1-3.336-2.592h3v-1.536h-4.1a8.334,8.334,0,0,1-.84-1.848h4.392V164.7h-2.472a13.419,13.419,0,0,0,.936-1.656l-1.728-.576a13.8,13.8,0,0,1-1.1,2.232h-1.921a15.181,15.181,0,0,0,.384-2.136l-1.9-.1a21.646,21.646,0,0,1-.36,2.232h-1.128a21.285,21.285,0,0,0-.888-2.232l-1.728.576a12.283,12.283,0,0,1,.792,1.656h-2.136v1.512h4.656a7.813,7.813,0,0,1-.888,1.848h-4.344V169.6h3.168a12.769,12.769,0,0,1-3.7,2.616l1.056,1.513a13.084,13.084,0,0,0,1.992-1.176,16.886,16.886,0,0,1,2.184,2.28Zm-8.448-6.193H150.5v-3.072h2.737v3.072Zm0,4.825H150.5v-3.193h2.737v3.193Zm10.248-6.169a11.34,11.34,0,0,0,.7,1.848h-2.137a12.3,12.3,0,0,0,.768-1.848h0.672Zm0.625,9.673a13.3,13.3,0,0,0,5.112,3.672l0.96-1.608a14.873,14.873,0,0,1-6.072-3.912v-3.529h-1.825v7.177a0.442,0.442,0,0,1-.552.528l-2.064-.048,0.288,1.776,2.328-.024c0.912,0,1.825-.072,1.825-1.584v-2.448Zm-7.9,3.216c1.752-.768,3.888-1.68,5.16-2.424l-0.48-1.56a39.645,39.645,0,0,1-5.448,2.3Zm31.776-15.289h-5.617V162.4h5.617v1.416Zm2.448,4.968c-0.456.048-3.936,0.36-4.344,0.408v-0.24a22.377,22.377,0,0,0,3.648-1.8V166h-9.769v1.272h7.033a12.023,12.023,0,0,1-1.9.84h-0.72v1.224c-1.537.144-3.169,0.216-5.137,0.264l0.12,1.536c0.168,0,4.513-.36,5.017-0.384v0.7c0,0.5-.024.648-0.48,0.648l-1.873-.024,0.456,1.585h2.089c1.512,0,1.512-.792,1.512-1.368v-1.705c0.384-.048,3.912-0.432,4.344-0.48v-1.32Zm-9.793-7.536v3.744h9.1v-3.744h-9.1Zm16.466,7.32a22.715,22.715,0,0,0-2.209-1.944,23.542,23.542,0,0,0,.7-4.368h1.944c-0.072.864-.192,2.544-0.192,4.632,0,4.2.456,6.433,2.256,6.433,1.512,0,1.9-3.073,2.112-4.537l-1.272-.768c-0.12,1.176-.312,2.832-0.72,2.832-0.576,0-.624-3.024-0.624-3.648a61.209,61.209,0,0,1,.456-6.673h-3.84c0.024-.432.072-1.056,0.072-2.76h-1.8c0,1.248,0,1.9-.048,2.76h-2.9v1.729h2.784c-0.192,1.7-.36,2.688-0.456,3.264-0.552-.36-0.96-0.624-2.04-1.224l-0.888,1.512c0.624,0.384,1.392.84,2.4,1.584A9.177,9.177,0,0,1,189.289,172l1.608,1.225h-1.536v1.152h-8.377v1.584h8.377v1.8H179.112v1.632h22.274V177.76H191.305v-1.8h8.257v-1.584h-8.257v-1.152h-0.36a11.946,11.946,0,0,0,3.336-4.753,21.7,21.7,0,0,1,1.7,1.56Zm-17.738-9.7v1.392h11.617V158.87h-4.8v-1.1h-1.872v1.1h-4.945Z" transform="translate(-112 -153)"/>
</svg>
