<svg xmlns="http://www.w3.org/2000/svg" xmlns:xlink="http://www.w3.org/1999/xlink" width="186" height="170" viewBox="0 0 186 170">
  <defs>
    <style>
      .cls-1 {
        fill: #3e3e3e;
        fill-rule: evenodd;
        filter: url(#filter);
      }
    </style>
    <filter id="filter" x="236" y="2932" width="186" height="170" filterUnits="userSpaceOnUse">
      <feFlood result="flood" flood-color="#835b84"/>
      <feComposite result="composite" operator="in" in2="SourceGraphic"/>
      <feBlend result="blend" in2="SourceGraphic"/>
    </filter>
  </defs>
  <path id="img_ec.svg" class="cls-1" d="M272.213,2932.92a1.034,1.034,0,0,0,.449-0.12v-0.09h0.321v-0.13c0.18-.05.326-0.1,0.475-0.14v-0.09h0.321v-0.13h0.357v-0.08h0.8v-0.15h142.1v0.15c0.325,0,.652,0,1,0.02v0.06h0.21v0.13H418.6v0.09h0.238v0.14h0.21v0.13h0.235v0.09a0.822,0.822,0,0,0,.474.12,3.116,3.116,0,0,0,.086.33c0.149,0.05.323,0.08,0.474,0.12,0.057,0.3,0,.27.328,0.32v0.27c0.146,0.3.38,0.04,0.474,0.68h0.2v0.31h0.214a2.967,2.967,0,0,0,.353,1.06c0.02,0.83.086,1.69,0.112,2.53h-0.112v0.81h-0.123v0.67h-0.088v0.59h-0.142v0.9h-0.1v0.24h-0.119v0.89c-0.444,1.51-.556,3.47-1.005,4.97v0.9H420.2v0.36h-0.117v0.93H419.93v0.21h-0.088v1.02h-0.086v0.25H419.6v1.01H419.52v0.49H419.4v0.67h-0.116v0.8H419.16v0.34h-0.113v1.05h-0.122v0.21h-0.088v0.93h-0.121v0.34H418.6v0.92h-0.115v0.34h-0.121c-0.03.5-.061,1-0.117,1.48h-0.118v0.61h-0.092v0.88h-0.112v0.24H417.8a8.728,8.728,0,0,1-.03.91h-0.087c-0.036.43-.061,0.87-0.122,1.27h-0.087v0.34h-0.118v0.93H417.24c-0.061.42-.061,0.85-0.12,1.27h-0.087v0.71h-0.115v0.44H416.8v1.02c-0.093.04-.149,0.06-0.241,0.1,0,0.38,0,.71-0.031,1.07h-0.12v0.23h-0.083v1.03h-0.087v0.33h-0.122v0.81H416v0.56h-0.118v0.7h-0.12v0.78h-0.086v0.35h-0.119v0.93h-0.148v0.33h-0.086v0.93h-0.15v0.35h-0.091c0,0.31,0,.61-0.026.91h-0.12v0.36h-0.088v0.89h-0.122v0.56H414.64v0.61h-0.124v0.81H414.4v0.32h-0.12v1.02H414.2v0.28h-0.121v0.9h-0.117c-0.031.44-.092,0.84-0.122,1.26h-0.114v0.47H413.6v0.67h-0.117v0.83h-0.117v0.42h-0.122v0.92h-0.087v0.34h-0.093v0.94h-0.144v0.22h-0.085v1.04h-0.149v0.22h-0.121v0.93h-0.112v0.58h-0.1v0.68h-0.118v0.92H412.12v0.24h-0.087v1.01c-0.09.05-.174,0.09-0.239,0.12v1.02h-0.117v0.35h-0.088v0.91h-0.122c-0.026.44-.081,0.84-0.143,1.28h-0.09v0.7h-0.149v0.47H411v0.91h-0.095v0.33h-0.123v0.81h-0.142v0.35h-0.119v0.9h-0.09v0.36H410.32v0.9H410.2v0.6h-0.123v0.65h-0.117v0.82h-0.086v0.32h-0.117v1.06c-0.058.02-.148,0.08-0.236,0.12v1.03h-0.112v0.31h-0.1v0.84h-0.12c-0.027.4-.084,0.81-0.084,1.26h-0.148a7.1,7.1,0,0,1-.029.79h-0.086V3013h-0.119v0.94h-0.1v0.2h-0.112a9.322,9.322,0,0,1-.031.94H408.4a0.573,0.573,0,0,1-.035.23h-0.086v0.88h-0.092c-0.113.95-.23,1.88-0.352,2.8a3.842,3.842,0,0,1,1.126.22h1v0.12h0.24v0.12h1.27v0.12h0.21v0.1h0.775a0.453,0.453,0,0,1,.112.22h0.355a1.272,1.272,0,0,1,.144.24h0.419a0.739,0.739,0,0,1,.117.24,4.017,4.017,0,0,1,.475.1v0.24h0.2v0.21h0.237v0.23h0.206a2.071,2.071,0,0,1,.356.83h0.241a1.987,1.987,0,0,0,.086.46h0.148v0.44a0.6,0.6,0,0,0,.2.1v0.8h0.12v13.41h-0.12v0.72h-0.086v0.36h-0.119v0.34h-0.148a1.46,1.46,0,0,0-.086.48h-0.241c-0.051.36-.261,0.38-0.356,0.77h-0.206v0.23h-0.237v0.26a3.579,3.579,0,0,0-.444.08c-0.027.16-.088,0.23-0.114,0.35-0.239.07-.478,0.17-0.658,0.22v0.13h-0.5a0.285,0.285,0,0,1-.112.19h-0.985v0.17h-6.716c-0.445-.06-0.888-0.11-1.358-0.17-1.628.4-4.35,0.17-6.239,0.17h-94.8a15.022,15.022,0,0,0-2.249,0h-6.685a11.926,11.926,0,0,0-3.073.07c0.057,0.36.179,0.72,0.2,1.06h0.153v0.58h0.113v0.22h0.091v0.66a0.73,0.73,0,0,0,.239.15v0.67h0.112v0.24h0.118v0.55h0.093v0.25h0.117c0.061,0.35.091,0.7,0.117,1.05h0.118v0.32h0.121v0.6h0.117v0.2h0.118v0.82a0.315,0.315,0,0,0,.2.08v0.71a0.891,0.891,0,0,0,.239.11v0.69h0.127v0.24h0.083c0.118,0.65.234,1.28,0.356,1.94h0.114v0.22h0.118v0.6c0.059,0.02.147,0.08,0.244,0.12v0.66h0.107v0.24h0.1v0.72h0.119v0.32H294.1v0.33h0.115v0.69a1.134,1.134,0,0,0,.213.15v0.66h0.122v0.26h0.116v0.66a0.906,0.906,0,0,0,.2.12,5.141,5.141,0,0,0,.031.7h0.087v0.2h0.149v0.6s0.061,0.01.086,0.22H368.6v0.11h0.914v-0.11h3.933v0.11c0.391-.03.775-0.07,1.157-0.11h5.09v0.11h1.392c3.28-.03,6.569-0.07,9.849-0.11v0.11h1.572a2.079,2.079,0,0,1,1.034-.11v0.11c0.65,0.05,1.267.07,1.92,0.15v0.22a6.327,6.327,0,0,1,1.691.56v0.23h0.379v0.25h0.209v0.21a1.181,1.181,0,0,1,.8.8h0.208c0.053,0.3.148,0.24,0.234,0.58h0.236v0.44h0.239a2.324,2.324,0,0,0,.327.84,2.279,2.279,0,0,0,.026.42h0.122v0.26h0.087v0.78h0.087v1.95h-0.087v0.78h-0.087v0.24h-0.148v0.47h-0.122a1.357,1.357,0,0,1-.149.47H399.46v0.32h-0.147c-0.027.12-.061,0.24-0.092,0.35h-0.236a4.045,4.045,0,0,1-.234.71,1.342,1.342,0,0,1-.351.12v0.43h0.255v0.24a3.214,3.214,0,0,0,.566.25v0.21a6.886,6.886,0,0,1,.8.37v0.21h0.208v0.22h0.231v0.24h0.209v0.22c0.325,0.08.3,0.06,0.361,0.33h0.261v0.27h0.21v0.2h0.207a7.078,7.078,0,0,1,.558,1.06h0.243c0.082,0.3.144,0.24,0.231,0.55h0.24c0.146,0.73.708,1.02,0.766,1.72h0.206a0.916,0.916,0,0,0,.123.56h0.118v0.27h0.112c0.039,0.15.066,0.35,0.126,0.55h0.115v0.5a0.369,0.369,0,0,1,.2.09v0.57h0.239a1.374,1.374,0,0,0,.148.81h0.092v0.78h0.116v0.34h0.114v1.18a9.431,9.431,0,0,1,.213,2.96h-0.122v1.27H405.46v0.78h-0.114v0.5H405.23v0.54h-0.092v0.24H404.99v0.69a1.27,1.27,0,0,1-.239.13v0.44h-0.084v0.23h-0.12v0.34h-0.115c-0.182.42-.3,0.86-0.479,1.26h-0.206a1.168,1.168,0,0,1-.354.83v0.21H403.3v0.28h-0.113a0.5,0.5,0,0,0-.207.54h-0.24v0.32a4.423,4.423,0,0,0-.474.36v0.24h-0.088c-0.086.11-.169,0.24-0.265,0.34a1.551,1.551,0,0,0-.2.11v0.2a3.194,3.194,0,0,0-.417.37c-0.326.35-.653,0.65-0.945,1.01h-0.238c-0.148.22-.3,0.38-0.444,0.62H399.46a2.211,2.211,0,0,0-.356.44h-0.353v0.22a10.086,10.086,0,0,1-1.218.58v0.24c-0.526.06-.323,0.18-0.792,0.24v0.22a1.407,1.407,0,0,0-.6.1v0.1H395.91v0.13h-0.447c-0.027.09-.088,0.15-0.118,0.25h-0.469c0,0.04-.066.14-0.087,0.22h-0.683a1.578,1.578,0,0,0-.118.24h-0.566v0.07h-0.23v0.14h-0.775v0.1h-0.71v0.13H390.7a7.988,7.988,0,0,1-2.479.12v-0.12h-1.011v-0.13h-0.8v-0.1h-0.678v-0.14h-0.244v-0.07h-0.644v-0.14h-0.269v-0.1a2.887,2.887,0,0,1-.476-0.03v-0.1H383.9v-0.09h-0.359c-0.024-.1-0.055-0.16-0.082-0.25H383.13v-0.13c-0.149-.02-0.327-0.06-0.507-0.1v-0.1H382.3v-0.12h-0.21v-0.1h-0.35a0.444,0.444,0,0,0-.119-0.24h-0.234a0.632,0.632,0,0,0-.092-0.24h-0.2l-0.239-.24h-0.235a0.615,0.615,0,0,1-.091-0.24,1.746,1.746,0,0,1-.357-0.1v-0.1a2.438,2.438,0,0,0-.352-0.12v-0.24c-0.53-.12-0.53-0.45-1.006-0.56v-0.26a6.039,6.039,0,0,1-2.518-2.75h-0.236v-0.32h-0.2c-0.06-.22-0.147-0.42-0.239-0.7H375.5v-0.21a1.033,1.033,0,0,0-.209-0.13v-0.34c-0.091-.04-0.151-0.08-0.235-0.12v-0.24a0.85,0.85,0,0,1-.239-0.1v-0.47a0.551,0.551,0,0,0-.209-0.09v-0.33h-0.114v-0.27H374.37a6.774,6.774,0,0,0-.12-0.7,0.641,0.641,0,0,1-.231-0.12v-0.54a0.888,0.888,0,0,0-.209-0.11v-0.73a2.06,2.06,0,0,1-.239-0.07v-0.7h-0.122a1.651,1.651,0,0,0-.025-0.36h-0.089v-1.61a7.635,7.635,0,0,1-.091-2.48h0.091V3083h0.114v-0.47h0.122v-0.78h0.117v-0.23h0.122v-0.55a0.768,0.768,0,0,1,.209-0.14v-0.58h0.144v-0.22h0.087a4.392,4.392,0,0,0,.12-0.7h0.122a2.421,2.421,0,0,1,.114-0.55h0.117a1.144,1.144,0,0,0,.092-0.59h0.239c0.114-.76.649-1,0.8-1.71h0.2v-0.37h0.236a2.088,2.088,0,0,1,.444-0.8h0.151c0.027-.11.057-0.23,0.088-0.33a1.825,1.825,0,0,0,.356-0.24v-0.24c0.2-.18.445-0.36,0.68-0.56v-0.22H305.2v0.32c0.328,0.11.271,0.02,0.358,0.38h0.238v0.2H306c0.091,0.34.174,0.3,0.236,0.58h0.242a0.92,0.92,0,0,0,.206.48h0.086v0.24a1.454,1.454,0,0,1,.266.08v0.23h0.117a1.426,1.426,0,0,1,.09.46h0.236a1.725,1.725,0,0,0,.118.36h0.118v0.36a1.8,1.8,0,0,1,.2.09v0.23l0.24,0.22v0.24h0.091v0.24a0.812,0.812,0,0,1,.209.08v0.48a0.667,0.667,0,0,1,.262.12v0.33h0.121v0.27h0.122v0.32h0.117a1.589,1.589,0,0,0,.026.34H309.2v0.36h0.086v0.57H309.4v0.22h0.121v0.82a1.1,1.1,0,0,1,.231.08v1.26h0.092v0.48h0.123v2.73h-0.123v0.46h-0.092v1.16h-0.118v0.36h-0.113v0.65a0.431,0.431,0,0,1-.238.13c-0.03.36-.086,0.71-0.086,1.06h-0.119v0.19h-0.117v0.48H308.84a4.236,4.236,0,0,1-.121.61H308.6a1.36,1.36,0,0,0-.144.53h-0.209v0.46h-0.212a7.41,7.41,0,0,1-.322,1.04h-0.236c-0.088.86-.826,1.08-1,1.85h-0.242v0.23H306a4.3,4.3,0,0,0-.327.68h-0.239v0.23H305.2v0.25H304.99c-0.112.3-.025,0.24-0.383,0.34v0.19a5.272,5.272,0,0,1-.653.37v0.25c-0.291.08-.236,0.12-0.555,0.2v0.24h-0.361v0.22h-0.319v0.22a3.057,3.057,0,0,1-.484.12,0.722,0.722,0,0,1-.112.24H301.8a1.185,1.185,0,0,1-.112.24h-0.213a0.517,0.517,0,0,0-.118.24h-0.361a1.751,1.751,0,0,0-.083.22h-0.236v0.1H300.44v0.1a6.427,6.427,0,0,1-.683.13c-0.031.09-.092,0.15-0.123,0.25h-0.44a1.821,1.821,0,0,0-.121.22h-0.532a2.527,2.527,0,0,0-.146.24h-0.649v0.07h-0.238v0.14c-0.532.03-1.067,0.08-1.6,0.1a9.229,9.229,0,0,1-4.432,0h-0.653a6.582,6.582,0,0,0-1.715-.31v-0.24h-0.679a1.314,1.314,0,0,0-.122-0.22c-0.261-.05-0.439-0.1-0.648-0.14v-0.11h-0.235v-0.13h-0.361v-0.1h-0.234v-0.1h-0.352v-0.12a0.75,0.75,0,0,0-.535-0.1v-0.24h-0.353v-0.24a1.719,1.719,0,0,1-.77-0.36,0.516,0.516,0,0,1-.114-0.22H284.46c-0.027-.08-0.086-0.14-0.122-0.22H284.1a1.306,1.306,0,0,0-.112-0.24h-0.214v-0.11a0.808,0.808,0,0,0-.44-0.23v-0.22c-0.352-.08-0.24-0.16-0.595-0.26v-0.19h-0.2v-0.25H282.3v-0.22h-0.238v-0.35h-0.2v-0.24h-0.24v-0.21H281.38c-0.087-.42-0.236-0.31-0.322-0.69h-0.236v-0.37H280.61a1.962,1.962,0,0,1-.114-0.35H280.38c-0.036-.08-0.061-0.2-0.119-0.32a1.348,1.348,0,0,0-.238-0.1v-0.2a0.287,0.287,0,0,0-.205-0.16v-0.33c-0.091-.05-0.148-0.09-0.239-0.13v-0.26l-0.239-.2c-0.087-.34-0.2-0.7-0.322-1.06-0.089-.02-0.119-0.05-0.235-0.08v-0.36a0.793,0.793,0,0,0-.21-0.1v-0.47a0.3,0.3,0,0,1-.2-0.13v-0.55h-0.148v-0.22h-0.1v-0.6h-0.145v-0.44H277.9v-0.46h-0.121v-0.92h-0.148v-0.57h-0.113v-3.42h0.113v-0.6h0.148v-0.9H277.9c0.03-.36.056-0.72,0.086-1.04a5.206,5.206,0,0,0,.389-1.27h0.2v-0.59h0.21c0.116-.33.146-0.66,0.235-1.01a0.6,0.6,0,0,1,.235-0.1v-0.38h0.087v-0.22h0.121a0.756,0.756,0,0,0,.118-0.48h0.239v-0.32h0.205c0.143-.66.653-0.87,0.8-1.49h0.236c0.117-.52.679-0.7,0.8-1.29a3.279,3.279,0,0,0,1.126-.91,1.371,1.371,0,0,0,.112-0.24h0.24c0.092-.12.2-0.25,0.323-0.44h0.208c0.123-.15.235-0.29,0.353-0.46h0.36v-0.24c0.261-.05.261-0.13,0.532-0.2a4.336,4.336,0,0,1-.3-0.81h-0.236a1.714,1.714,0,0,1-.121-0.36h-0.122v-0.24c-0.056,0-.144-0.06-0.235-0.08v-0.37h-0.112v-0.23h-0.123v-0.34h-0.091v-0.48H283.66v-0.2h-0.122v-0.46a1.1,1.1,0,0,0-.2-0.12v-0.68a0.83,0.83,0,0,1-.24-0.12v-0.7h-0.112v-0.22h-0.121a9.346,9.346,0,0,0-.122-1.27h-0.119v-0.34h-0.082v-0.56h-0.117a0.661,0.661,0,0,0-.03-0.24H282.3v-0.66a0.384,0.384,0,0,0-.238-0.14v-0.82a0.372,0.372,0,0,1-.2-0.1v-0.68h-0.122v-0.23h-0.118c-0.057-.37-0.057-0.69-0.113-1.04H281.38a1.9,1.9,0,0,0-.025-0.36h-0.062v-1h-0.118c-0.031-.18-0.086-0.3-0.117-0.48h-0.236v-0.66a0.56,0.56,0,0,0-.212-0.14v-0.7H280.5v-0.43H280.38v-0.34h-0.119v-0.72h-0.122v-0.21h-0.116v-0.59h-0.117v-0.24h-0.088v-0.66a1.336,1.336,0,0,0-.239-0.12v-0.7h-0.118v-0.24H279.34v-0.55h-0.087v-0.46h-0.118v-0.37h-0.117v-0.55h-0.089a0.746,0.746,0,0,0-.03-0.24h-0.116v-0.69a0.439,0.439,0,0,1-.21-0.09v-0.7a0.382,0.382,0,0,1-.2-0.12v-0.7h-0.148v-0.2h-0.1c-0.053-.36-0.119-0.72-0.145-1.03H277.9c-0.031-.35-0.09-0.65-0.121-0.94h-0.148v-0.25h-0.113v-0.79h-0.184v-0.82h-0.238a5.479,5.479,0,0,0-.323-1.46c-0.055-.32-0.086-0.62-0.116-0.9h-0.123v-0.59h-0.147v-0.25H276.3v-0.53a0.831,0.831,0,0,0-.235-0.12v-0.7h-0.119v-0.24H275.82v-0.68h-0.091v-0.34h-0.083v-0.46h-0.122v-0.62h-0.118V3037h-0.148v-0.59a0.991,0.991,0,0,0-.235-0.11v-0.8a0.5,0.5,0,0,0-.207-0.1,5.519,5.519,0,0,0-.031-0.72H274.7v-0.2H274.58v-0.6h-0.087v-0.46H274.37v-0.36h-0.12v-0.56h-0.114v-0.22h-0.122v-0.68c-0.056-.04-0.142-0.06-0.235-0.12v-0.69a1.258,1.258,0,0,1-.2-0.12v-0.56h-0.117v-0.46h-0.122v-0.35h-0.117v-0.69H273.1v-0.24h-0.119v-0.56h-0.092v-0.23h-0.117v-0.69a1.953,1.953,0,0,0-.234-0.1v-0.68h-0.117v-0.24H272.33v-0.59h-0.117v-0.42h-0.092v-0.38H272v-0.7c-0.113-.02-0.175-0.06-0.234-0.07v-0.73a0.881,0.881,0,0,1-.23-0.1v-0.69a0.542,0.542,0,0,0-.245-0.11v-0.82h-0.118v-0.22h-0.121c-0.025-.33-0.056-0.67-0.086-1.03h-0.114v-0.24h-0.1v-0.68c-0.082-.04-0.174-0.06-0.264-0.1v-0.82c-0.058-.02-0.149-0.08-0.2-0.1v-0.72h-0.121v-0.21h-0.123v-0.57h-0.118v-0.38H269.82v-0.31h-0.094v-0.57h-0.144v-0.35h-0.091v-0.58h-0.114v-0.24h-0.092v-0.56h-0.148v-0.22h-0.121v-0.58h-0.083c-0.09-.45-0.157-0.92-0.243-1.38h-0.114a1.125,1.125,0,0,0-.03-0.33h-0.092v-0.58a0.659,0.659,0,0,0-.238-0.1v-0.82a0.22,0.22,0,0,0-.2-0.1v-0.7a2.14,2.14,0,0,0-.24-0.12v-0.68h-0.092v-0.34h-0.118v-0.36H267.45v-0.58h-0.117v-0.31h-0.119v-0.59H267.1v-0.24H266.98v-0.7a0.413,0.413,0,0,1-.21-0.11v-0.68h-0.117v-0.22h-0.12v-0.6h-0.094v-0.32h-0.111v-0.48H266.21v-0.58h-0.124v-0.19h-0.115v-0.71a0.44,0.44,0,0,0-.241-0.1v-0.68a2.2,2.2,0,0,0-.2-0.13v-0.7h-0.117v-0.34h-0.121v-0.44h-0.117v-0.6h-0.118v-0.24h-0.092v-0.66c-0.087-.04-0.148-0.08-0.235-0.13v-0.71c-0.057,0-.144-0.06-0.235-0.08v-0.7h-0.117v-0.23h-0.1v-0.57h-0.113v-0.33h-0.118v-0.48h-0.12v-0.56h-0.115v-0.22h-0.12v-0.7a1.389,1.389,0,0,0-.206-0.12v-0.82a0.789,0.789,0,0,1-.239-0.09v-0.58h-0.088v-0.34h-0.117v-0.44h-0.116v-0.58H262.8v-0.24h-0.122v-0.7H262.6v-0.24h-0.119v-0.56a0.63,0.63,0,0,1-.238-0.12v-0.66H262.12a0.641,0.641,0,0,0-.026-0.24h-0.087a5.465,5.465,0,0,0-.03-0.7h-0.091v-0.32h-0.118v-0.48H261.68v-0.57h-0.12v-0.24h-0.113v-0.58c-0.093-.02-0.159-0.08-0.24-0.1v-0.8a0.535,0.535,0,0,0-.21-0.1v-0.71h-0.146v-0.24h-0.087v-0.56a5.518,5.518,0,0,1-.441-1.64,1.421,1.421,0,0,1-.331-0.08v0.19c-0.769.13-.974,0.76-1.743,0.82v0.24h-0.326v0.21c-0.793.23-1.389,0.99-2.159,1.06v0.23a2.939,2.939,0,0,0-1,.58h-0.24a1.409,1.409,0,0,0-.118.22h-0.2v0.12a2.1,2.1,0,0,1-.479.1v0.26c-0.709.06-.709,0.48-1.327,0.56v0.22c-0.77.11-.948,0.7-1.718,0.81v0.24c-0.147.03-.269,0.07-0.351,0.08v0.16h-0.358a0.579,0.579,0,0,1-.088.19,2.195,2.195,0,0,1-.478.13,2.025,2.025,0,0,1-.082.23h-0.241v0.11a0.738,0.738,0,0,1-.473.13v0.23h-0.412v0.24a13.177,13.177,0,0,1-1.275.56v0.22h-0.327v0.24h-0.471v0.24a7.262,7.262,0,0,0-1.333.54h-0.441v0.14h-0.231v0.11h-2.962a1.711,1.711,0,0,0-.148-0.25h-0.54a2.124,2.124,0,0,1-.113-0.22H239.9a1.318,1.318,0,0,0-.795-0.32v-0.24H238.9v-0.24c-0.674-.08-0.5-0.42-1.035-0.58v-0.2h-0.235a0.684,0.684,0,0,0-.238-0.47H237.3v-0.24c-0.085-.05-0.179-0.09-0.236-0.12v-0.24a2.335,2.335,0,0,1-.24-0.1v-0.33a0.74,0.74,0,0,0-.207-0.11v-0.36a1.279,1.279,0,0,0-.236-0.13v-0.45H236.24v-0.33h-0.123v-0.45H236v-2.57a9.02,9.02,0,0,0,.619-1.83h0.207c0.092-.69.653-0.88,0.8-1.49h0.235v-0.18h0.209v-0.28H238.3v-0.21c0.39-.09.417-0.26,0.8-0.35v-0.22h0.326v-0.23H239.9v-0.24c0.213-.07.448-0.14,0.689-0.24v-0.11a0.875,0.875,0,0,1,.56-0.22v-0.22h0.471v-0.25h0.295v-0.21c0.708-.18,1.066-0.73,1.719-0.8v-0.24c0.708-.16,1.031-0.74,1.714-0.82v-0.22h0.321v-0.22c0.775-.12.953-0.69,1.72-0.81v-0.21a0.778,0.778,0,0,0,.442-0.13v-0.1h0.358v-0.12a0.661,0.661,0,0,1,.529-0.23v-0.28h0.356v-0.2H249.4v-0.23a1.348,1.348,0,0,0,.714-0.2v-0.13h0.292a0.584,0.584,0,0,0,.122-0.21h0.239a1.3,1.3,0,0,1,.138-0.25h0.209a0.66,0.66,0,0,0,.123-0.23c0.239-.08.442-0.16,0.678-0.22,0.092-.12.121-0.26,0.209-0.36h0.388v-0.11a0.534,0.534,0,0,1,.412-0.09v-0.26h0.384v-0.22c0.708-.1.948-0.72,1.661-0.78v-0.24c0.765-.16.969-0.76,1.688-0.83v-0.22h0.353v-0.24c0.643-.07.734-0.48,1.387-0.55v-0.25c0.479-.06.3-0.17,0.77-0.22v-0.24c0.535-.12.715-0.46,1.24-0.56v-0.24a2.044,2.044,0,0,0,.591-0.12v-0.1h0.45a2.484,2.484,0,0,0,.113-0.24h0.447v-0.12h0.474v-0.12h0.678v-0.12a9.733,9.733,0,0,1,3.611.36v0.1c0.327,0.14.68,0.24,1.006,0.36v0.24h0.353a0.292,0.292,0,0,1,.087.2h0.238a4.994,4.994,0,0,0,.358.48h0.2c0.03,0.08.091,0.15,0.121,0.24a2.7,2.7,0,0,1,.445.35v0.18a0.434,0.434,0,0,0,.238.13c0.027,0.21.083,0.39,0.113,0.6h0.118c0.031,0.15.091,0.3,0.123,0.46H270.3v0.23c0.052,0.02.143,0.06,0.2,0.08v0.4h0.146v0.24h0.118a1.251,1.251,0,0,0,.026.3h0.07v0.46h0.114v0.26h0.086v0.44h0.121v0.24H271.3a4.4,4.4,0,0,1,.117.69h0.128v0.43h0.108v0.23h0.122v0.71h0.088v0.35H272a2.01,2.01,0,0,0,.031.44h0.086a3.765,3.765,0,0,0,.031.58h0.061v0.32h0.117v0.6h0.093v0.22h0.117v0.56h0.122v0.24h0.112v0.57h0.117v0.33h0.092v0.47H273.1c0.086,0.52.174,1.02,0.234,1.49a0.493,0.493,0,0,0,.239.12v0.7h0.118v0.32h0.086v0.58c0.093,0.06.179,0.08,0.235,0.12v0.67h0.122c0.087,0.45.153,0.88,0.234,1.27h0.123v0.39h0.087v0.54H274.7v0.24h0.115v0.7a0.4,0.4,0,0,1,.207.1v0.7h0.149v0.24h0.086c0.148,0.62.266,1.28,0.388,1.92h0.083v0.24h0.091v0.59h0.121v0.24h0.119v0.66h0.112v0.24H276.3v0.56h0.087v0.34h0.147v0.48h0.123v0.56h0.116v0.26h0.092a3.639,3.639,0,0,0,.031.58h0.055v0.2h0.145v0.67a0.462,0.462,0,0,0,.238.14v0.68h0.087v0.24h0.1v0.58h0.113v0.44h0.148v0.34H277.9v0.6h0.086v0.21h0.145v0.68a0.783,0.783,0,0,0,.244.12v0.78a0.227,0.227,0,0,0,.2.13v0.71h0.117v0.22h0.093c0.057,0.3.116,0.52,0.146,0.78h0.089c0.352,0.5.678,0.06,1.243,0.26v0.13H280.5v0.11h1.01v0.1h0.353v0.12h1a5.725,5.725,0,0,0-.323-1.72v-0.6h-0.117a1.056,1.056,0,0,0-.03-0.32H282.3v-0.82h-0.117v-0.24h-0.121v-0.77h-0.087v-0.24h-0.117v-0.8h-0.122v-0.34h-0.118c-0.057-.37-0.057-0.78-0.113-1.14H281.38a2.839,2.839,0,0,0-.025-0.47h-0.062v-0.71h-0.118a1.5,1.5,0,0,0-.031-0.34h-0.086v-0.67H280.94v-0.34h-0.118v-0.82a0.663,0.663,0,0,1-.212-0.12v-0.8H280.5v-0.36H280.38v-0.54h-0.119v-0.7h-0.122v-0.32h-0.116v-0.84h-0.117v-0.34h-0.088v-0.69H279.7a0.436,0.436,0,0,0-.026-0.2h-0.091v-0.8h-0.118v-0.28H279.34v-0.67h-0.087v-0.56h-0.118v-0.47h-0.117v-0.69h-0.089a0.423,0.423,0,0,0-.03-0.2h-0.116v-0.84H278.69v-0.22h-0.117v-0.8h-0.12v-0.24H278.37v-0.79h-0.148v-0.35h-0.1v-0.69h-0.145v-0.57H277.9v-0.33h-0.121v-0.81h-0.148v-0.24h-0.113v-0.8h-0.1v-0.24h-0.087v-0.8c-0.087-.04-0.177-0.08-0.238-0.1v-0.68h-0.145v-0.46H276.86v-0.6h-0.092c-0.086-.66-0.169-1.35-0.239-2.03a0.882,0.882,0,0,0-.234-0.12v-0.7a0.432,0.432,0,0,0-.235-0.12v-1.03h-0.119v-0.36H275.82v-0.59h-0.091v-0.32h-0.083v-0.57h-0.122v-0.7h-0.118v-0.22h-0.148v-0.94a0.7,0.7,0,0,1-.235-0.11v-0.77h-0.089v-0.26h-0.118a7.077,7.077,0,0,0-.031-0.8H274.7c-0.039-.31-0.064-0.7-0.121-1.02h-0.087v-0.59H274.37v-0.35h-0.12v-0.77h-0.114v-0.23h-0.122v-0.81H273.9a0.694,0.694,0,0,0-.025-0.24h-0.093v-0.81h-0.086v-0.21h-0.118v-0.67h-0.117v-0.5h-0.122v-0.55h-0.117v-0.69H273.1v-0.35h-0.119v-0.8h-0.092v-0.22h-0.117v-0.68h-0.112a0.793,0.793,0,0,0-.034-0.27H272.54v-0.78h-0.117v-0.33H272.33v-0.6h-0.117v-0.69h-0.092v-0.36H272v-0.77h-0.146v-0.22H271.77v-0.8h-0.122v-0.25H271.54v-0.8a1.363,1.363,0,0,0-.245-0.12v-0.81h-0.118v-0.45h-0.121v-0.6H270.97v-0.69h-0.114v-0.2h-0.1v-0.82h-0.118v-0.23H270.5v-0.78h-0.088v-0.24H270.3v-0.81h-0.121v-0.34h-0.123c-0.03-.83-0.057-1.69-0.118-2.51h0.118v-0.7h0.123v-0.24H270.3v-0.46a1.447,1.447,0,0,1,.2-0.1v-0.35a0.921,0.921,0,0,0,.264-0.12v-0.2a0.511,0.511,0,0,1,.21-0.16v-0.19h0.086a1.145,1.145,0,0,0,.239-0.5h0.245v-0.22c0.133-.05.289-0.05,0.464-0.1v-0.22h0.209v-0.23h0Zm137.541,10.2h-7.013v0.21a2.12,2.12,0,0,1-.231.12v1.05a0.652,0.652,0,0,0-.243.16v0.98h-0.088v0.47h-0.112v0.7h-0.153v0.8h-0.088v0.34h-0.117v1.03h-0.12v0.22H401.5c-0.093.74-.179,1.47-0.21,2.2H401.14v0.32h-0.109v0.82H400.88v0.47h-0.087c-0.032.54-.062,1.04-0.123,1.58h-0.087v0.24h-0.122v0.92h-0.114v0.22H400.23v0.93h-0.121v0.46h-0.087v0.8h-0.087v0.44h-0.148v0.72h-0.122a8.443,8.443,0,0,1-.149,1.15H399.46v1h-0.147c-0.027.18-.061,0.32-0.092,0.48h4.973a6.267,6.267,0,0,0,2.515-.22,7.963,7.963,0,0,1,.321-2.08v-1.05h0.122v-0.22h0.118v-0.92h0.087v-0.34H407.5v-0.92h0.1v-0.35h0.113v-0.88h0.118v-0.38h0.122c0.026-.54.056-1.04,0.117-1.58h0.113v-0.47h0.092v-0.82H408.4v-0.32h0.118v-1.06a0.923,0.923,0,0,1,.209-0.09v-1.05h0.119v-0.33h0.115v-0.92h0.148v-0.46h0.084v-0.83h0.12v-0.75h0.1v-0.27h0.112v-0.98h0.119v-0.28h0.117v-1.26h0Zm-19.5,18.83c0.2-1.03.353-2.09,0.561-3.11,0.029-.46.061-0.9,0.117-1.38a1.544,1.544,0,0,0,.245-0.1v-0.92c0.052-.06.139-0.07,0.2-0.13v-1.12H391.5v-0.22h0.117v-0.94h0.091v-0.46h0.119v-0.69h0.117v-0.8h0.121v-0.36h0.115v-0.9h0.09v-0.24h0.148v-1.05h0.092v-0.33h0.113v-0.77h0.117c0.062-.6.152-1.17,0.212-1.77H393.1v-0.55h0.092v-0.92h0.113v-0.24h0.117c0.209-.54-0.2-0.85.239-1.26a1,1,0,0,0-.239-0.57h-11.8c-1.391,0-3.989-.25-4.968.21-0.091,1.23-.149,2.4-0.239,3.57H376.29v1.61h-0.113v0.47h-0.123v1.84h-0.117v0.46H375.85v1.84h-0.116v0.67h-0.123v1.62H375.5v0.9h-0.122v1.63h-0.087v1.24a11.278,11.278,0,0,0-.235,2.77h15.205ZM367.8,2943.24c-0.208-.08-0.087.03-0.208-0.12H355.555c-1.417,0-4.14-.25-5.12.21v0.93h0.148c-0.056.12-.087,0.24-0.148,0.4h0.148c0.2,0.77-.118,1.97.091,2.72v5.16c0.088,3.13.144,6.28,0.232,9.41h15.208c0.536-6.25,1.093-12.47,1.687-18.71h0Zm-25.858,18.71a27.172,27.172,0,0,0,0-3.11c-0.03-2.47-.056-4.97-0.114-7.44v-2.77a1.88,1.88,0,0,0-.09-1.02c0-1.32.2-3.6-.241-4.49H324.579v1.54H324.7v0.41h0.148v1.29h0.121v0.45h0.087v1.14h0.118v0.56h0.117v1.02h0.082v0.96h0.123v0.79h0.117v1.15H325.7v0.45h0.147v1.37h0.117v0.34h0.119v1.26H326.2v0.35h0.056v1.16h0.157v0.68h0.114v1.02h0.116c0.066,0.91.153,1.86,0.21,2.75h0.122v0.14h14.965Zm-26.412-18.83H300.552a6.241,6.241,0,0,0-1.8.12c0.03,0.3.061,0.61,0.117,0.91h0.118v0.8h0.086v0.24h0.121v0.72h0.118v0.2h0.118v0.79h0.122v0.26h0.082v0.99h0.123v0.28h0.118c0.055,0.38.055,0.81,0.12,1.22h0.113v0.24h0.123v0.81a1.4,1.4,0,0,1,.209.12v0.9a1.909,1.909,0,0,1,.233.14c0.059,0.37.087,0.75,0.117,1.15h0.119v0.56h0.083v0.57h0.126v0.33h0.119v0.82h0.116v0.24h0.118v0.78h0.122v0.23h0.091v0.82a0.7,0.7,0,0,0,.235.1v0.82h0.118v0.32h0.086v0.58h0.112v0.68h0.122a6.062,6.062,0,0,1,.123,1.06H302.6v0.19h0.121v0.84h15.3c-0.036-.4-0.067-0.78-0.092-1.15H317.8c0-.38,0-0.76-0.026-1.15h-0.1c0-.27,0-0.53-0.026-0.81h-0.084v-0.9H317.45v-1.04h-0.091v-0.7h-0.118v-1.15h-0.123v-0.46h-0.112v-1.26h-0.122v-0.21H316.8v-1.49h-0.122v-0.35h-0.144v-1.15h-0.117v-0.72h-0.088v-0.9H316.2v-1.13h-0.12v-0.57H316v-1.17h-0.114v-0.45h-0.122v-1.26h-0.117a6.094,6.094,0,0,1-.114-0.81h0Zm-21.864,18.83v-0.84h-0.124v-0.19h-0.12v-0.82h-0.118v-0.24h-0.114v-0.68h-0.122v-0.58h-0.116v-0.32h-0.118a5.141,5.141,0,0,0-.031-0.7h-0.052v-0.34h-0.127v-0.8c-0.09-.06-0.146-0.07-0.239-0.13v-0.78h-0.112v-0.24h-0.092a0.465,0.465,0,0,1,.092-0.46h-0.092v-0.24h-0.118v-0.56h-0.117c-0.064-.35-0.09-0.7-0.121-1.02h-0.118v-0.47h-0.117v-0.82a0.8,0.8,0,0,0-.21-0.09v-0.81h-0.118v-0.24h-0.112v-0.78h-0.093v-0.27h-0.146v-0.66h-0.091v-0.44h-0.113v-0.48h-0.153v-0.79h-0.118v-0.26H290.35v-0.79c-0.091-.05-0.147-0.08-0.213-0.11v-0.93a0.494,0.494,0,0,1-.231-0.12v-0.8h-0.122c-0.059-.25-0.059-0.52-0.116-0.82a0.933,0.933,0,0,1-.235-0.21h-6.892a2.076,2.076,0,0,0,0,1.14h0.082v0.69h0.119v0.24h0.122V2946h0.121v0.21H283.1v0.95a0.82,0.82,0,0,1,.24.1v0.89h0.092v0.36h0.109a7.013,7.013,0,0,1,.122,1.14h0.117v0.36h0.091v0.69h0.123v0.33H284.1v0.69h0.118v0.24h0.117v0.82h0.122v0.23h0.121v0.78H284.7v0.68h0.114a1.745,1.745,0,0,0,.025.36H284.9v0.7h0.124v0.32h0.086v0.69h0.143v0.24h0.091v0.8h0.117v0.22h0.123v0.8a4.66,4.66,0,0,1,.353,1.96h0.208c0.03,0.66.2,0.85,0.236,1.39h7.283Zm102.013,18.81v1.14h-0.131v0.36h-0.086v0.92h-0.118v0.36h-0.087v0.78h-0.117v0.45h-0.122v0.84h-0.143v0.79h-0.087v0.23H394.7v0.9h-0.154a1.34,1.34,0,0,0,.154.49h4.819a9.032,9.032,0,0,0,2.4-.13c0.179-.84.353-1.9,0.6-2.63v-0.94h0.082v-0.22h0.149v-1.16a0.525,0.525,0,0,1,.24-0.1v-0.94H403.1a8.246,8.246,0,0,1,.089-1.23H403.3v-0.49h0.092v-0.79h0.087v-0.7h0.153v-0.44h0.114a9.237,9.237,0,0,1,.033-0.94h0.083a1.09,1.09,0,0,1,.031-0.33h0.059v-0.93h0.123v-0.35h0.118v-0.91h0.112v-0.35h0.126v-0.91h0.115a3.694,3.694,0,0,1,.03-0.58h0.09v-0.56h0.084v-0.91c0.034-.09.269-0.07,0.208-0.24h-0.087c-0.03-.1-0.087-0.22-0.121-0.33h-4.816a5.1,5.1,0,0,0-2.4.23,6.1,6.1,0,0,1-.379,1.93v0.82h-0.121v0.2h-0.086v1.06h-0.123v0.22h-0.083v0.92h-0.148v0.34h-0.122v0.92H396.35c-0.026.41-.056,0.78-0.087,1.14a6.025,6.025,0,0,0-.353,2.07h-0.23Zm-7.258-9.85h-6.447a20.871,20.871,0,0,1-2.4,0h-3.642a5.657,5.657,0,0,0-1.918.11,10.238,10.238,0,0,1-.209,2.41v1.36h-0.122v0.91h-0.117v1.85h-0.122a4.35,4.35,0,0,1-.025.58h-0.089v1.74h-0.091v0.8h-0.117v1.47h-0.118v1.4h-0.121c-0.026.48-.087,0.96-0.112,1.44a3.992,3.992,0,0,1-.211,1.89,3.59,3.59,0,0,0,.114,1.15h9.532c0.622,0,2.989.13,3.28-.13a3.292,3.292,0,0,0,.244-1.02h0.113c0-.54.035-0.99,0.06-1.5h0.118v-0.6h0.149v-0.89h0.12v-0.24h0.118v-0.9h0.113v-0.28h0.1v-1.02h0.117v-0.21h0.117v-0.92h0.117v-0.32h0.117v-0.85h0.118v-0.69h0.118v-0.44h0.092v-0.94h0.118v-0.22h0.12v-1.02h0.087v-0.24h0.144v-1.05h0.118v-0.21h0.09v-0.8a5.647,5.647,0,0,0,.326-2.62h0Zm-23.339,0H351.149l-0.122.11c0.06,4.09.178,8.19,0.239,12.26a15.554,15.554,0,0,0,.087,3.12c0.177,0.61-.2,1.17.2,1.62v0.11a4.647,4.647,0,0,1,1.626-.11h4.534a8.217,8.217,0,0,0,1.8,0,18.065,18.065,0,0,0,4.2-.13,10.264,10.264,0,0,1,.2-2.28v-2.55h0.15v-0.8h0.085v-0.47h0.09v-1.61h0.15a2.745,2.745,0,0,1,.03-0.48h0.091v-1.45a3.75,3.75,0,0,1,.234-1.06c0-.5,0-1.04.028-1.6h0.09v-0.8h0.117v-1.6h0.092c0.031-.72.088-1.44,0.118-2.17l-0.118-.11h0Zm-22.932,0H333.1a31.231,31.231,0,0,0-4.969.11c0.091,0.81.2,1.65,0.327,2.51h0.118v1.16h0.087v0.68h0.115v1.04H328.9v1.06h0.123v0.54h0.143v1.26h0.087a0.818,0.818,0,0,0,.038.32h0.085v1.08a3.026,3.026,0,0,1,.1.56h0.112v1.39h0.114v0.44h0.122v1.14h0.117v0.7h0.123c0,0.32,0,.62.024,0.9h0.092v1.15a6.018,6.018,0,0,1,.2.94h0.117v0.13h7.581a25.332,25.332,0,0,1,4.314.11,30.3,30.3,0,0,0,0-4.95v-6.2c-0.2-.76.062-1.94-0.082-2.89a17.656,17.656,0,0,1-.153-3.18h0Zm-37.4.11a1.1,1.1,0,0,0,.123.46h0.112v0.79h0.095v0.22H305.2v0.82h0.118v0.22h0.117a4.562,4.562,0,0,0,.036.7h0.087v0.46h0.116v0.46h0.122v0.79h0.056v0.24H306v0.8h0.117v0.21h0.119v0.82c0.061,0.02.147,0.08,0.242,0.12v0.78h0.084v0.36h0.122v0.72h0.086v0.44h0.148v0.46h0.118v0.67h0.117v0.34h0.09v0.72h0.148v0.22h0.088v0.8a0.966,0.966,0,0,0,.236.1v0.82H307.8v0.42h0.114v0.63h0.119v0.66h0.121v0.24h0.091v0.78H308.4a4.542,4.542,0,0,1,.055.6c0.178,0.09.057,0,.144,0.13h9.323c0.618,0,2.958-.19,3.284.11h0.086a4.793,4.793,0,0,0,0-1.73h-0.086v-0.7h-0.151v-0.93h-0.088v-1.03h-0.122v-0.56h-0.119v-1.39h-0.112v-0.35H320.5v-1.26h-0.117v-0.31h-0.094v-1.42h-0.117v-0.32h-0.117v-1.28h-0.119v-0.56h-0.117v-1.06h-0.086v-1.14h-0.121v-0.56H319.5c-0.184-.62.113-1.22-0.245-1.6a1.231,1.231,0,0,0-.208-0.91c-2.924-.08-6.3-0.11-9.407-0.11a30.023,30.023,0,0,0-4.88.11h0Zm-9.085-.11h-7.243c0.057,0.38.084,0.84,0.145,1.24h0.086v0.68a1.417,1.417,0,0,0,.212.12v0.94h0.119v0.2h0.117v0.81h0.087v0.33h0.148v0.71h0.092v0.47h0.113v0.44h0.122v0.8h0.116v0.24h0.122v0.8h0.083v0.34h0.148v0.67h0.092v0.29h0.121v0.77h0.087v0.47h0.118v0.45h0.153v0.68h0.113v0.26h0.091v0.92a0.692,0.692,0,0,1,.239.1v0.79h0.112v0.25h0.118v0.69h0.093v0.43h0.117v0.6h0.117v0.67h0.118a5.952,5.952,0,0,0,.121.82,0.38,0.38,0,0,1,.117.13h4.97a9.03,9.03,0,0,0,2.4-.13c-0.057-.22-0.057-0.41-0.118-0.6h-0.118v-0.66h-0.121v-0.47h-0.086v-0.55h-0.118v-0.71h-0.117v-0.34h-0.124a6,6,0,0,0-.025-0.68h-0.062v-0.24H298.4v-0.8h-0.118v-0.22h-0.091v-0.83h-0.148v-0.23h-0.087c-0.031-.36-0.087-0.78-0.087-1.13h-0.118a1.792,1.792,0,0,0-.031-0.44h-0.09v-0.72h-0.117v-0.36h-0.124v-0.78h-0.111v-0.24h-0.088v-0.7h-0.151v-0.21h-0.118v-0.8h-0.084v-0.35h-0.121v-0.68h-0.086v-0.46H296.47v-0.46h-0.112v-0.7h-0.091v-0.22h-0.118a7.492,7.492,0,0,0-.03-0.82h-0.091v-0.22h-0.122v-0.79h-0.117a0.915,0.915,0,0,1-.119-0.57h0Zm104.56,26.03h-4.972a7.621,7.621,0,0,0-2.4.13c-0.147.72-.264,1.54-0.443,2.14v0.97h-0.148v0.18h-0.09c0,0.32,0,.65-0.031.95h-0.084v0.36h-0.121v0.91h-0.117a1.457,1.457,0,0,1-.026.34h-0.093v0.8h-0.091v0.58H391.5v0.7h-0.118v0.79h-0.117v0.2h-0.082v1.06h-0.121v0.22h-0.124v0.92H390.82v0.34H390.7v0.81h-0.118v0.45h-0.117v0.82h-0.087v0.67h-0.118v0.47h-0.122v0.91h-0.113v0.22h-0.118v1.06h-0.091v0.2H389.7v0.82a1.491,1.491,0,0,0-.124,1.15h1v0.08h0.356v0.14h1.127v0.08h0.353v0.16h0.888v0.08h0.918v0.17H394.7v0.07c0.561,0.18.852-.24,1.213,0.25h0.831v-0.13c0.318-.36.052-0.72,0.206-1.26h0.086v-0.35h0.121v-0.91H397.3v-0.35h0.117v-0.9h0.113v-0.46h0.092c0.056-.5.056-1,0.117-1.5h0.121v-0.31h0.084v-1.06a0.459,0.459,0,0,0,.207-0.12v-1.14a0.588,0.588,0,0,0,.246-0.12v-0.9h0.143v-0.58h0.112a6.456,6.456,0,0,1,.034-0.82h0.062v-0.59H398.9a13.961,13.961,0,0,1,.086-1.58H399.1v-0.22h0.117v-0.8h0.092v-0.35h0.147v-0.91h0.056v-0.36h0.149c0-.3,0-0.62.024-0.89h0.1a9.039,9.039,0,0,1,.148-1.32,8.387,8.387,0,0,0,.3-2.27h0ZM370.286,3013a9.1,9.1,0,0,1,2.279.36h1.006v0.1h0.356v0.12h1.127v0.12h0.235v0.1h1v0.14h0.361v0.12h1c0.828,0.24,2.071.4,2.959,0.56a0.29,0.29,0,0,1,.235-0.24v-1.02h0.091v-0.24h0.148c0.026-.46.061-0.92,0.112-1.37h0.093v-0.78h0.092v-0.71H381.5v-0.47h0.119v-0.9a1.216,1.216,0,0,1,.239-0.12v-1.03h0.117v-0.23h0.113a9.129,9.129,0,0,1,.037-1.03h0.086a1.588,1.588,0,0,1,.026-0.35H382.3v-0.79h0.118v-0.6h0.116c0.091-.62.152-1.22,0.214-1.82h0.118v-0.93a0.786,0.786,0,0,0,.266-0.13v-0.9h0.116v-0.36h0.086v-0.89h0.122v-0.36h0.082v-0.78h0.123v-0.84h0.148a5.2,5.2,0,0,1,.088-0.66,0.317,0.317,0,0,1-.088-0.13h-8.874c-0.592,0-2.841-.14-3.168.13a4.126,4.126,0,0,0-.236,1.84,3.893,3.893,0,0,1-.2,1.27v1.81H371.2v0.45h-0.148v1.86h-0.087v0.55h-0.091v1.75h-0.114v1.03h-0.12v1.38h-0.122c0,0.5,0,1.06-.027,1.6h-0.083v0.46h-0.126V3013h0Zm-7.57-16.06H355a11.643,11.643,0,0,0-3.524.13v1h0.087v3.24h0.151v8.48h0.241v0.24h0.883v0.12h0.351v0.11h1.128v0.13h0.326v0.1c0.357,0,.682,0,1.035.03v0.09H356v0.12h1.035v0.11h0.684v0.13h0.709v0.1H359.4v0.09h0.237v0.12c0.56,0.2.973-.15,1.361,0.25h0.331v-0.13c0.412-.4.052-1.09,0.234-1.75h0.119c0.059-.48.059-0.98,0.116-1.46v-1.26h0.083v-0.45H362v-1.98h0.117v-0.44h0.15v-1.83h0.094v-0.56h0.087v-1.74a10.378,10.378,0,0,0,.266-2.99h0Zm-19.852,11.49v-0.24h0.11a0.172,0.172,0,0,0-.11-0.22v-5.53a5.2,5.2,0,0,0-.121-2.08c0-1.08.148-2.65-.265-3.42H331.624c0.052,0.55.082,1.13,0.117,1.73h0.148v1.26h0.086v0.33h0.093v1.24h0.117v0.61H332.3c0.061,0.71.09,1.37,0.152,2.07h0.087v0.56h0.122v1.25h0.113a8.052,8.052,0,0,0,.122.94c1.122,0.14,2.25.32,3.37,0.46v0.12h0.919a2.115,2.115,0,0,0,.236.34,3,3,0,0,1,1.326-.11c0.03,0.05.1,0.15,0.153,0.23h1.091v0.13h0.388v0.09h1.009a4.22,4.22,0,0,0,1.478.24h0Zm-20.323-11.49H310.646a0.766,0.766,0,0,1-.153.35h-0.082c0.025,0.12.082,0.2,0.117,0.32h0.118v0.24h0.148v0.82a1.464,1.464,0,0,0,.208.12v0.77h0.084v0.27H311.2v0.77h0.123v0.49h0.117a1.756,1.756,0,0,0,.03.41h0.088v0.73h0.087c0.1,0.41.178,0.85,0.268,1.25a5.593,5.593,0,0,0,.889.12v0.12c0.234,0,.442,0,0.677.02v0.1h0.683v0.1h0.914v0.12h0.453v0.12h1v0.12H316.8v0.12h1.126v0.08h0.322v0.16h1v0.08h0.565v0.11h0.8V3005h0.678v0.1c0.236,0,.472,0,0.684.02v0.07h1.031v0.15a6.593,6.593,0,0,1,.684.12,14.029,14.029,0,0,0-.475-3.47v-1.03H323.1v-0.7h-0.092v-1.13h-0.117v-0.46h-0.118v-1.18h-0.121c-0.031-.18-0.061-0.36-0.112-0.55h0Zm-20.061,4.92a9.483,9.483,0,0,0-.245-1.26h-0.112v-0.77h-0.086v-0.27h-0.118v-0.77a1.748,1.748,0,0,0-.235-0.12v-0.94a0.561,0.561,0,0,1-.213-0.12v-0.54a1.528,1.528,0,0,1-.118-0.13h-5a7.548,7.548,0,0,0-2.369.13,8.444,8.444,0,0,0,.443,1.94v0.82a0.639,0.639,0,0,1,.238.1v0.67h0.115a0.9,0.9,0,0,1,.089.26,8.963,8.963,0,0,1,.915.03v0.07a0.908,0.908,0,0,1,.36.05v0.08h1.036v0.09c0.44,0.06.944,0.09,1.443,0.13v0.11h0.684v0.08h0.563v0.17h1.034v0.11h0.328v0.08h1.243Zm89.136,80.48c-0.352-.12-0.679-0.26-1.035-0.36v-0.11h-0.557v-0.12a2.147,2.147,0,0,0-1.162.12h-0.53v0.11H388.1v0.1h-0.352a2.618,2.618,0,0,0-.087.26h-0.238a0.454,0.454,0,0,0-.092.19h-0.236v0.15a4.562,4.562,0,0,0-.468.32v0.24h-0.21a1.19,1.19,0,0,0-.118.36h-0.12v0.34c-0.087.02-.149,0.06-0.267,0.1v0.46h-0.06v0.36h-0.113a6.887,6.887,0,0,0,.173,2.15,0.675,0.675,0,0,0,.267.12v0.34h0.12a1.4,1.4,0,0,0,.118.36h0.21a1.548,1.548,0,0,0,.351.56h0.235v0.22c0.509,0.14.77,0.46,1.213,0.6a8.03,8.03,0,0,0,2.515-.1,8.736,8.736,0,0,1,.77-0.5v-0.22h0.236v-0.2h0.236v-0.28h0.238c0.03-.08.055-0.2,0.092-0.32h0.113v-0.24a2.309,2.309,0,0,0,.238-0.09v-0.37h0.091c0.057-.2.083-0.44,0.149-0.67h0.092a5.3,5.3,0,0,0-.332-2.38h-0.121a0.908,0.908,0,0,1-.117-0.5h-0.205v-0.22h-0.238c-0.085-.31-0.031-0.26-0.353-0.33v-0.26h-0.21v-0.19h0Zm-95.467.19a1.205,1.205,0,0,1-.36-0.11v-0.08h-0.322c-0.03-.12-0.092-0.17-0.117-0.26-0.148-.03-0.333-0.06-0.476-0.1v-0.11h-0.561v-0.12a5.757,5.757,0,0,0-2.249.33v0.14a1.144,1.144,0,0,1-.473.12v0.19a3.313,3.313,0,0,0-1.241,1.31v0.32a0.4,0.4,0,0,0-.213.14v0.66h-0.148v0.56h-0.083v0.11h0.083v0.49h0.148v0.66a0.353,0.353,0,0,0,.213.11v0.37c0.057,0.03.179,0.07,0.2,0.09v0.24h0.153v0.24h0.113c0.03,0.08.061,0.24,0.091,0.36h0.239v0.2a3.255,3.255,0,0,0,.323.12v0.1h0.234a1.492,1.492,0,0,1,.118.26h0.356c0.031,0.08.062,0.16,0.092,0.24h0.351v0.1h0.68v0.12c0.8,0.24,1.744-.38,2.365-0.46v-0.26a2.262,2.262,0,0,0,.955-0.54v-0.24a1.479,1.479,0,0,0,.291-0.24,2.1,2.1,0,0,0,.118-0.46h0.151v-0.35a0.462,0.462,0,0,1,.2-0.09v-0.94h0.124v-0.55h-0.124v-0.82a0.434,0.434,0,0,0-.2-0.08v-0.46a0.982,0.982,0,0,0-.269-0.16,3.137,3.137,0,0,0-.084-0.34h-0.121a1.037,1.037,0,0,1-.086-0.34h-0.267v-0.21h-0.209v-0.26h0Z" transform="translate(-236 -2932)"/>
</svg>
