<?xml version="1.0" encoding="utf-8"?>
<!-- Generator: Adobe Illustrator 16.0.0, SVG Export Plug-In . SVG Version: 6.00 Build 0)  -->
<!DOCTYPE svg PUBLIC "-//W3C//DTD SVG 1.1//EN" "http://www.w3.org/Graphics/SVG/1.1/DTD/svg11.dtd">
<svg version="1.1" id="レイヤー_1" xmlns="http://www.w3.org/2000/svg" xmlns:xlink="http://www.w3.org/1999/xlink" x="0px"
	 y="0px" width="95.139px" height="168.735px" viewBox="0 0 95.139 168.735" enable-background="new 0 0 95.139 168.735"
	 xml:space="preserve">
<g>
	<g>
		<path fill-rule="evenodd" clip-rule="evenodd" fill="#00AFEC" d="M15.333,36.46c7.145,0,14.294,0,21.472,0
			c0,7.184,0,14.313,0,21.504c-0.267,0-0.498,0-0.732,0c-6.713,0-13.422,0-20.128,0c-0.204,0-0.415,0.016-0.612,0.023
			C15.333,50.813,15.333,43.638,15.333,36.46z M18.393,47.172c0,2.38,0.009,4.766-0.006,7.153c-0.005,0.457,0.12,0.586,0.575,0.578
			c4.734-0.013,9.471-0.013,14.207,0c0.464,0.008,0.613-0.109,0.613-0.588c-0.024-4.728-0.022-9.44,0-14.159
			c0-0.491-0.125-0.636-0.63-0.636c-4.718,0.016-9.435,0.012-14.16,0c-0.457,0-0.617,0.111-0.605,0.602
			C18.41,42.472,18.393,44.821,18.393,47.172z"/>
		<path fill-rule="evenodd" clip-rule="evenodd" fill="#00AFEC" d="M79.805,57.987c-0.77-0.008-1.546-0.012-2.314-0.012
			c-6.174-0.004-12.352,0-18.523,0c-0.19,0-0.376,0-0.619,0c0-7.178,0-14.319,0-21.516c7.166,0,14.312,0,21.457,0
			C79.805,43.638,79.805,50.813,79.805,57.987z M69.094,39.529c-2.383,0-4.77,0.007-7.152-0.009
			c-0.451-0.01-0.586,0.119-0.586,0.576c0.021,4.75,0.021,9.504,0.01,14.254c-0.01,0.432,0.112,0.553,0.545,0.553
			c4.75-0.013,9.508-0.013,14.258,0c0.441,0.008,0.584-0.109,0.584-0.568c-0.012-4.738-0.012-9.476,0-14.21
			c0-0.471-0.131-0.614-0.602-0.604C73.797,39.536,71.445,39.529,69.094,39.529z"/>
		<path fill-rule="evenodd" clip-rule="evenodd" fill="#00AFEC" d="M15.333,79.414c0.221,0.005,0.444,0.016,0.666,0.016
			c6.74,0,13.483,0.01,20.225-0.011c0.492,0,0.63,0.125,0.63,0.623c-0.022,6.776-0.013,13.559-0.013,20.332
			c0,0.192,0.013,0.375,0.017,0.563c-7.178,0-14.356,0-21.525,0C15.333,93.76,15.333,86.585,15.333,79.414z M26.042,97.874
			c2.389,0,4.774-0.004,7.151,0.012c0.451,0,0.588-0.124,0.588-0.586c-0.022-4.745-0.022-9.5-0.003-14.248
			c0.003-0.429-0.11-0.56-0.546-0.56c-4.75,0.019-9.507,0.019-14.257,0c-0.448,0-0.588,0.112-0.588,0.567
			c0.015,4.74,0.015,9.475,0.003,14.213c-0.003,0.464,0.117,0.623,0.597,0.613C21.34,97.861,23.691,97.874,26.042,97.874z"/>
		<path fill-rule="evenodd" clip-rule="evenodd" fill="#00AFEC" d="M52.191,88.688c0-1.004,0-2.012,0-3.076c3.053,0,6.072,0,9.217,0
			c0-2.11,0-4.18,0-6.234l-0.022,0.013c1.007,0,2.008,0,3.063,0c0,1.079,0,2.061,0,3.12c1.073,0,2.09,0,3.109,0l-0.016-0.019
			c-0.006,1.913-0.006,3.842-0.021,5.757c0,0.306,0.105,0.424,0.412,0.414c0.52-0.012,1.031-0.003,1.545-0.003
			c2.42,0.013,4.834,0.021,7.241,0.028l-0.011-0.013c0.006,0.808-0.014,1.618,0.031,2.416c0.022,0.495-0.131,0.638-0.621,0.638
			c-3.658-0.023-7.303-0.018-10.955-0.01c-0.219,0-0.441,0.018-0.699,0.024c0,2.065,0,4.091,0,6.114
			c-0.854,0-1.717-0.019-2.576,0.016c-0.431,0.012-0.512-0.16-0.508-0.549c0.027-0.695,0.027-1.399,0-2.107
			c-0.004-0.143-0.141-0.404-0.226-0.404c-0.935-0.028-1.875-0.023-2.847-0.023c0,0.302,0.004,0.525,0,0.741
			c-0.013,1.804-0.02,3.604-0.023,5.406c-1.001,0-1.997,0-2.994,0c0-2.035,0-4.072,0-6.159c1.021,0,1.988,0,2.969,0
			c0-2.062,0-4.073,0-6.09C56.208,88.688,54.203,88.688,52.191,88.688z"/>
		<path fill-rule="evenodd" clip-rule="evenodd" fill="#00AFEC" d="M15.333,61.084c0.987,0,1.981,0,3.016,0
			c0,5.073,0,10.128,0,15.237c-1.013,0-2.015,0-3.016,0C15.333,71.237,15.333,66.157,15.333,61.084z"/>
		<path fill-rule="evenodd" clip-rule="evenodd" fill="#00AFEC" d="M46.03,97.84c0,1.034,0,2.066-0.006,3.098
			c-2.026,0-4.049,0-6.078,0c0-0.991,0-1.976,0-3.098C41.982,97.84,44.011,97.84,46.03,97.84z"/>
		<path fill-rule="evenodd" clip-rule="evenodd" fill="#00AFEC" d="M79.805,64.063c-1.933,0.012-3.862,0.033-5.808,0.021
			c-0.112,0-0.325-0.162-0.329-0.256c-0.025-0.897-0.017-1.808-0.017-2.744c2.091,0,4.12,0,6.153,0
			C79.805,62.077,79.805,63.071,79.805,64.063z"/>
		<path fill-rule="evenodd" clip-rule="evenodd" fill="#00AFEC" d="M79.805,88.681c-1.034-0.005-2.064-0.005-3.096-0.005
			l0.011,0.013c0-1.031,0-2.072,0-3.107L76.709,85.6c1.031,0,2.062-0.009,3.096-0.009C79.805,86.622,79.805,87.657,79.805,88.681z"
			/>
		<path fill-rule="evenodd" clip-rule="evenodd" fill="#00AFEC" d="M64.461,100.938c-0.003-1.031-0.008-2.063-0.008-3.098
			c0.871,0.009,1.734,0.043,2.604,0.03c0.348,0,0.479,0.101,0.472,0.465c-0.02,0.869,0.008,1.733,0.021,2.603
			C66.522,100.938,65.489,100.938,64.461,100.938z"/>
		<path fill-rule="evenodd" clip-rule="evenodd" fill="#00AFEC" d="M79.805,70.246c-0.994,0-1.988,0-3.016,0
			c0-1.033,0-2.017,0-3.089c1.014,0,2.016,0,3.016,0C79.805,68.186,79.805,69.218,79.805,70.246z"/>
		<path fill-rule="evenodd" clip-rule="evenodd" fill="#00AFEC" d="M79.805,97.849c-0.994,0-1.988,0-3.053,0
			c0-0.966-0.009-1.901,0.021-2.838c0.004-0.079,0.271-0.213,0.417-0.213c0.872-0.031,1.742-0.031,2.614-0.038
			C79.805,95.788,79.805,96.821,79.805,97.849z"/>
		<path fill-rule="evenodd" clip-rule="evenodd" fill="#00AFEC" d="M42.933,73.341c-0.968,0-1.948,0-2.962,0
			c0-3.104,0-6.137,0-9.241c0.812,0,1.633-0.024,2.447,0.009c0.423,0.016,0.571-0.113,0.552-0.542
			c-0.037-0.729,0.009-1.442-0.02-2.163c-0.004-0.125-0.17-0.367-0.276-0.367c-0.851-0.025-1.708-0.013-2.567-0.008
			c-0.036,0-0.073,0.066-0.113,0.092l0.008,0.004c-0.025-0.149-0.072-0.299-0.072-0.451c-0.004-1.816-0.004-3.636,0-5.451
			c0-0.09,0.01-0.169,0.027-0.318c0.923,0,1.844-0.013,2.763,0.011c0.083,0,0.226,0.27,0.233,0.411
			c0.025,0.701,0.033,1.404,0.003,2.11c-0.023,0.442,0.143,0.544,0.558,0.54c0.838-0.021,1.677,0.012,2.515,0.024l-0.011-0.021
			c0,2.024,0,4.036,0,6.073c1.072,0,2.064,0,3.1,0c0-2.06,0-4.065,0-6.073L49.104,58c0.873-0.013,1.75-0.013,2.619-0.045
			c0.146-0.008,0.417-0.142,0.417-0.214c0.036-0.938,0.02-1.873,0.02-2.851c-1.069,0-2.063,0-3.056,0l0.02,0.013
			c-0.004-2.891-0.02-5.786,0-8.682c0-0.452-0.113-0.602-0.573-0.58c-0.684,0.041-1.37,0.021-2.056,0.003
			c-0.182,0-0.36-0.06-0.544-0.089h0.007c0.024-0.281,0.062-0.572,0.066-0.858c0.006-1.564-0.004-3.13,0.006-4.687
			c0.005-0.391-0.121-0.506-0.5-0.49c-0.69,0.023-1.375,0.031-2.064,0c-0.423-0.031-0.519,0.145-0.509,0.535
			c0.022,0.715,0,1.44,0,2.157c0.013,0.27-0.063,0.415-0.365,0.407c-0.859-0.012-1.716,0-2.621,0c0-2.047,0-4.057,0-6.117
			c2.999,0,6.023,0,9.117,0c0,2.001,0,4.021,0,6.078c1.039,0,2.022,0,3.071,0c0-2.032,0-4.044,0-6.094c1.034,0,2.008,0,3.016,0
			c0,3.033,0,6.063,0,9.157c-0.818,0-1.637,0.025-2.454-0.003c-0.416-0.013-0.566,0.097-0.562,0.539
			c0.024,1.715,0.009,3.432,0.009,5.146c0.008,0.134,0.02,0.266,0.035,0.458c0.982,0,1.96,0,3.009,0c0,0.259,0,0.455,0,0.654
			c0,3.685,0.008,7.374-0.013,11.067c0,0.488,0.148,0.614,0.613,0.59c0.807-0.033,1.609-0.008,2.473-0.008c0-1.029,0-2.012,0-3.041
			c1.039,0,2.023,0,3.047,0c0,2.012,0,4.009,0,6.084c-3.02,0-6.043,0-9.129,0c0,2.113,0,4.158,0,6.209l0.009-0.011
			c-1.007,0-2.012,0-3.073,0c0,0.983,0,1.95,0,3.013c-0.746,0-1.442,0-2.136,0c-0.979,0-0.979,0-0.979,0.966c0,0.68,0,1.364,0,2.121
			c-0.876,0-1.707,0.025-2.538-0.011c-0.408-0.013-0.54,0.117-0.529,0.523c0.03,0.701,0.022,1.409,0,2.108
			c-0.003,0.348,0.11,0.48,0.472,0.47c0.835-0.025,1.675,0,2.606,0c0,1.047,0,2.055,0,3.056l0.012-0.021c-2.013,0-4.032,0-6.089,0
			c0-3.027,0-6.053,0-9.126c0.972,0,1.936,0,2.968,0c0-1.067,0-2.085,0-3.1c1.02,0,2.04,0,3.098,0c0-2.027,0.006-3.952-0.015-5.867
			c0-0.106-0.153-0.293-0.236-0.293c-0.915-0.022-1.834-0.013-2.816-0.013c0,0.293,0,0.514,0,0.732
			C42.954,69.704,42.946,71.527,42.933,73.341z"/>
		<path fill-rule="evenodd" clip-rule="evenodd" fill="#00AFEC" d="M70.596,61.095c0,1.569-0.007,3.099,0.004,4.623
			c0,0.457-0.129,1.084,0.107,1.33c0.238,0.234,0.865,0.1,1.324,0.112c0.51,0.01,1.021,0,1.58,0c0,3.07,0,6.097,0,9.148
			c-0.977,0-1.945,0-2.976,0c0-0.97,0-1.935,0-2.955c-2.079,0-4.081,0-6.149,0c0,0.973,0,1.948,0,2.952c-1.045,0-2.032,0-3.094,0
			c0-0.802-0.023-1.603,0.01-2.4c0.019-0.455-0.106-0.636-0.602-0.607c-0.661,0.043-1.336-0.004-2.003,0.02
			c-0.397,0.018-0.509-0.129-0.494-0.5c0.025-0.842,0.009-1.677,0.009-2.571c3.096,0,6.121,0,9.205,0c0-3.073,0-6.086,0-9.151
			C68.551,61.095,69.539,61.095,70.596,61.095z"/>
		<path fill-rule="evenodd" clip-rule="evenodd" fill="#00AFEC" d="M33.749,70.233c0.004,0.77,0.004,1.545,0.004,2.313
			c0.004,0.836-0.085,0.76,0.786,0.764c0.632,0,1.274,0.008,1.902-0.004c0.275,0,0.413,0.072,0.405,0.38
			c-0.014,0.85-0.005,1.713-0.005,2.607c-5.112,0-10.198,0-15.314,0c0-0.954,0-1.919,0-2.983c0.705,0,1.415,0,2.125-0.004
			c1.011-0.008,0.902,0.16,0.91-0.896c0-1.543,0-3.082,0-4.629c0-0.188,0-0.367,0-0.582c2.044,0,4.048,0,6.093,0
			c0,1,0,1.982,0,3.048c1.074,0,2.089,0,3.113,0L33.749,70.233z"/>
		<path fill-rule="evenodd" clip-rule="evenodd" fill="#00AFEC" d="M52.212,91.768c-1.013,0-2.012,0-3.073,0
			c-0.016,0.188-0.031,0.358-0.031,0.543c-0.004,1.68-0.01,3.362,0.012,5.046c0.004,0.416-0.138,0.526-0.529,0.518
			c-0.857-0.028-1.712-0.013-2.571-0.016c0-0.881-0.014-1.749,0.016-2.621c0.012-0.381-0.141-0.465-0.48-0.452
			c-1.663,0.005-3.326,0-4.988,0c-0.186,0-0.371,0-0.609,0c0-2.032,0-4.028,0-6.097c0.194-0.008,0.392-0.028,0.59-0.028
			c1.667,0,3.326-0.009,4.992,0.013c0.375,0,0.508-0.105,0.496-0.496c-0.016-0.871,0.006-1.742,0.012-2.621l-0.012,0.021
			c0.995,0,1.987,0,3.046,0c0,1.021,0,2.009,0,3.097c1.083,0,2.106,0,3.131,0c0,1.039-0.009,2.079-0.021,3.11L52.212,91.768z"/>
		<path fill-rule="evenodd" clip-rule="evenodd" fill="#00AFEC" d="M52.203,76.309c0,1.016,0,2.021,0,3.105c0.981,0,1.964,0,2.978,0
			c0,1.056,0,2.04,0,3.054c-2.021,0-4.009,0-6.037,0c0-2.021,0-4.017,0-6.146c1.036,0,2.056,0,3.071,0L52.203,76.309z"/>
		<path fill-rule="evenodd" clip-rule="evenodd" fill="#00AFEC" d="M39.994,61.12c-0.037,0.174-0.106,0.343-0.106,0.514
			c-0.01,0.802-0.004,1.603-0.004,2.43c-3.088,0-6.116,0-9.177,0c0-0.992,0-1.965,0-2.969c0.159-0.011,0.307-0.035,0.453-0.035
			c2.761-0.008,5.524-0.008,8.289,0c0.178,0,0.368,0.035,0.554,0.064L39.994,61.12z"/>
		<path fill-rule="evenodd" clip-rule="evenodd" fill="#00AFEC" d="M24.527,67.136c-1.046,0-2,0-3,0c0-2.011,0-4.009,0-6.041
			c1.999,0,3.996,0,6.076,0c0,0.921,0.015,1.839-0.017,2.756c-0.001,0.081-0.26,0.233-0.402,0.233
			c-0.666,0.028-1.338,0.047-2.008,0.005c-0.496-0.025-0.697,0.095-0.665,0.644C24.563,65.515,24.527,66.304,24.527,67.136z"/>
		<path fill-rule="evenodd" clip-rule="evenodd" fill="#00AFEC" d="M67.559,82.511c-0.008-1.92-0.016-3.838-0.029-5.762
			c0-0.257,0.086-0.372,0.355-0.366c0.866,0.007,1.738,0,2.678,0c0.012,0.229,0.033,0.427,0.033,0.624c0,1.627,0,3.254,0,4.887
			c0,0.198,0.023,0.404,0.04,0.609l0.015-0.011c-1.039,0-2.066,0-3.107,0L67.559,82.511z"/>
		<path fill-rule="evenodd" clip-rule="evenodd" fill="#00AFEC" d="M70.636,82.503c1.847,0.008,3.686,0.025,5.532,0
			c0.459-0.008,0.588,0.145,0.567,0.589c-0.036,0.831-0.021,1.669-0.026,2.508l0.011-0.019c-2.021,0-4.05,0-6.069,0
			c0-1.078,0-2.079,0-3.089L70.636,82.503z"/>
		<path fill-rule="evenodd" clip-rule="evenodd" fill="#00AFEC" d="M45.95,45.556c0,1.033,0,2.073,0,3.15
			c-0.088,0.008-0.203,0.035-0.318,0.035c-1.755,0-3.5,0-5.252,0c-0.22,0-0.454,0.049-0.454-0.311
			c0.004-0.891,0.004-1.782,0.004-2.717c0.24-0.013,0.438-0.031,0.636-0.031c1.632,0,3.268,0.006,4.89-0.007
			c0.17,0,0.337-0.079,0.506-0.12C45.958,45.556,45.95,45.556,45.95,45.556z"/>
		<path fill-rule="evenodd" clip-rule="evenodd" fill="#00AFEC" d="M46.03,58c0-0.892,0.009-1.775-0.006-2.665
			c-0.004-0.33,0.086-0.455,0.431-0.444c0.891,0.021,1.782,0.013,2.668,0.013l-0.02-0.013c0,1.035,0,2.068,0,3.109l0.016-0.021
			c-1.036,0-2.069,0-3.1,0L46.03,58z"/>
		<path fill-rule="evenodd" clip-rule="evenodd" fill="#00AFEC" d="M33.768,70.246c0-0.892,0.013-1.78-0.009-2.67
			c-0.006-0.314,0.094-0.429,0.408-0.419c0.756,0.013,1.514,0.013,2.266,0c0.316-0.01,0.421,0.104,0.413,0.419
			c-0.021,0.75-0.021,1.507,0,2.265c0.008,0.327-0.119,0.411-0.422,0.405c-0.89-0.013-1.789-0.01-2.676-0.013L33.768,70.246z"/>
		<path fill-rule="evenodd" clip-rule="evenodd" fill="#00AFEC" d="M61.408,79.378c-1.007,0-2.012,0-3.061,0
			c0-0.956,0-1.939,0-2.961c0.988,0,1.973,0,3.038,0c0,1.001,0,1.986,0,2.974L61.408,79.378z"/>
		<path fill-rule="evenodd" clip-rule="evenodd" fill="#00AFEC" d="M52.203,73.341c0.973,0,1.944,0,2.964,0c0,0.973,0,1.955,0,2.968
			c-0.993,0-1.981,0-2.964,0l0.012,0.013c0-0.992-0.003-1.995-0.003-2.991L52.203,73.341z"/>
		<path fill-rule="evenodd" clip-rule="evenodd" fill="#00AFEC" d="M70.646,97.821c0-1.029,0-1.997,0-3.008c0.996,0,1.965,0,2.965,0
			c0,1.011,0,1.994,0,3.008C72.623,97.821,71.652,97.821,70.646,97.821z"/>
		<path fill-rule="evenodd" clip-rule="evenodd" fill="#00AFEC" d="M52.191,91.783c0.993,0,1.976,0,2.989,0c0,0.982,0,1.945,0,2.961
			c-0.981,0-1.96,0-2.969,0c0-1.007,0-1.991,0-2.977L52.191,91.783z"/>
		<path fill-rule="evenodd" clip-rule="evenodd" fill="#00AFEC" d="M21.527,42.645c3.043,0,6.058,0,9.109,0c0,3.031,0,6.062,0,9.122
			c-3.013,0-6.036,0-9.109,0C21.527,48.755,21.527,45.729,21.527,42.645z"/>
		<path fill-rule="evenodd" clip-rule="evenodd" fill="#00AFEC" d="M73.627,42.665c0,3.039,0,6.049,0,9.102
			c-3.031,0-6.063,0-9.131,0c0-3.012,0-6.038,0-9.102C67.518,42.665,70.537,42.665,73.627,42.665z"/>
		<path fill-rule="evenodd" clip-rule="evenodd" fill="#00AFEC" d="M30.648,85.637c0,3.062,0,6.069,0,9.11c-3.053,0-6.078,0-9.13,0
			c0-3.051,0-6.074,0-9.11C24.584,85.637,27.618,85.637,30.648,85.637z"/>
	</g>
	<path fill="#00AFEC" d="M95.123,22.608c0-4.826,0.004-9.646,0-14.482C95.119,3.3,91.827,0,87.029,0C60.88,0,34.728,0,8.576,0
		C4.012,0,1.258,2.197,0.2,6.688C0.176,6.803,0.072,6.911,0,7.021c0,51.565,0,103.124,0,154.684c0.434,1.109,0.782,2.26,1.329,3.313
		c1.021,1.974,2.945,2.857,4.858,3.719c27.658,0,55.31,0,82.964,0c0.7-0.346,1.431-0.641,2.089-1.047
		c2.635-1.646,3.898-4.006,3.898-7.15C95.119,114.563,95.123,68.583,95.123,22.608z M87.3,163.667
		c-0.592,0.392-1.261,0.664-1.899,0.994c-25.16,0-50.322,0-75.482,0c-1.742-0.816-3.489-1.654-4.424-3.529
		c-0.494-1.008-0.807-2.105-1.205-3.159c0-49.074,0-98.146,0-147.21c0.064-0.111,0.162-0.214,0.186-0.33
		c0.96-4.27,3.459-6.363,7.617-6.363c3.43,0,6.334,0,9.761,0l0.526,4.363c0,1.253,1.229,2.263,2.749,2.263h44.876
		c1.518,0,2.752-1.01,2.752-2.263l0.357-4.363c3.57,0,6.784,0,10.359,0c4.363,0.008,7.355,3.145,7.365,7.738
		c0,4.592,0,9.189,0,13.785c0,43.757-0.01,87.515,0.007,131.268C90.852,159.853,89.7,162.103,87.3,163.667z"/>
	<g>
		<path fill="#00AFEC" d="M23.975,113.29c4.541,0,6.232,0.697,7.555,1.789c1.924,1.59,2.888,4.005,2.888,6.492
			s-1.033,5.108-2.585,6.43c-1.69,1.428-3.351,2.126-7.166,2.126h-2.45v7.689h-6.262V113.29H23.975z M22.217,124.619h2.285
			c0.598,0,1.594,0,2.424-0.358c0.827-0.367,1.487-1.125,1.487-2.593c0-1.456-0.697-2.151-1.552-2.513
			c-0.863-0.367-1.89-0.367-2.588-0.367h-2.056V124.619z"/>
		<path fill="#00AFEC" d="M41.91,137.816h-6.791l9.71-24.526h5.402l9.416,24.526h-6.863l-1.157-3.547h-8.588L41.91,137.816z
			 M47.248,120.748l-2.648,8.556h5.403L47.248,120.748z"/>
		<path fill="#00AFEC" d="M67.573,128.893l-7.321-15.603h6.795l3.644,9.846l3.683-9.846H81.1l-7.259,15.603v8.924h-6.268V128.893z"
			/>
	</g>
</g>
</svg>
