<svg xmlns="http://www.w3.org/2000/svg" xmlns:xlink="http://www.w3.org/1999/xlink" width="244" height="171" viewBox="0 0 244 171">
  <defs>
    <style>
      .cls-1 {
        fill-rule: evenodd;
        filter: url(#filter);
      }
    </style>
    <filter id="filter" x="849" y="2166" width="244" height="171" filterUnits="userSpaceOnUse">
      <feFlood result="flood" flood-color="#805d27"/>
      <feComposite result="composite" operator="in" in2="SourceGraphic"/>
      <feBlend result="blend" in2="SourceGraphic"/>
    </filter>
  </defs>
  <path id="img_products.svg" class="cls-1" d="M1009.54,2329.95a5.939,5.939,0,0,1-5.9,5.97H937.95a5.932,5.932,0,0,1-5.9-5.97V2255a5.932,5.932,0,0,1,5.9-5.97h65.69a5.939,5.939,0,0,1,5.9,5.97v74.95ZM986.209,2208c4.165,0,10.043.27,15.531,4.62l3.65-6.14s-9.367-7.38-24.875-7.38c-18.866,0-24.478,6.1-24.478,8.04,0,1.22,1.859,1.95,4.416,2.35v8.17h-7.019v22.88h33.079v-22.88h-6.784v-8.9A38.484,38.484,0,0,1,986.209,2208Zm16.221,29.3c3.87,0,7.03-2.85,7.03-6.37s-5.95-10.43-7.03-13.96c-1.1,3.53-7.043,10.43-7.043,13.96S998.531,2237.3,1002.43,2237.3Zm53.2,97.08a46.551,46.551,0,0,0,25.57-8.22v-28a86.707,86.707,0,0,1-25.57,3.85,74.861,74.861,0,0,1-24.43-3.85v28.27S1039.13,2334.38,1055.63,2334.38Zm-37.35-135.28s12.94,85.71,13.72,89.16c0.43,1.88,3.34,4.05,8.37,5.65l-9.13-82.12h3.11l14.92,83.97a72.893,72.893,0,0,0,8.63.5c12.65,0,21.36-4.54,22.69-7.73,1.31-3.21,12.42-89.43,12.42-89.43h-74.73Zm-126.4-33.11c-22.986-.7-42.162,18.41-42.868,42.68a44.7,44.7,0,0,0,15.62,35.59c0.847,11.77,5.924,77.64,14.987,88.32,3.632,4.26,5.938,4.32,9.257,4.41a12.576,12.576,0,0,0,9.254-3.86c10.9-10.82,17.085-80.65,17.748-88.42a44.754,44.754,0,0,0,16.295-33.57C932.867,2186.89,914.834,2166.67,891.875,2165.99Zm-6.552,7.92c0.037-1.57,4.211-2.16,5.933-2.09,2,0.05,5.639.02,6.024,1.86,0.41,1.83-2.279,9.75-5.648,9.62C888.277,2183.21,885.281,2175.74,885.323,2173.91Zm24.246,34.98a18.957,18.957,0,0,1-37.883-1.14c0.295-10.15,9.021-18.15,19.472-17.84C901.638,2190.22,909.875,2198.72,909.569,2208.89Zm-49.411-16.22a36.451,36.451,0,0,1,7.421-9.42c4.472-3.81,10.8-8.23,12.943-6.55a11.009,11.009,0,0,1,2.167,2.55,3.073,3.073,0,0,1,.261,2.89c-0.663,1.7-4.8,3.05-8.831,6.73-3.987,3.68-5.639,7.42-7.535,9.28s-3.579,1.36-4.707.48c-0.428-.31-1.65-1.44-1.65-1.44S858.454,2195.8,860.158,2192.67Zm-5.451,15.35c0.052-2.02.033-5.69,1.86-6.08,1.825-.41,9.624,2.3,9.527,5.69-0.106,3.41-7.5,6.44-9.308,6.4C855.239,2213.98,854.645,2209.77,854.707,2208.02Zm44.582,73.48-0.568,19.51a5.887,5.887,0,0,1-6.034,5.73l-6.192-.18a5.921,5.921,0,0,1-5.711-6.1l0.6-19.5a5.866,5.866,0,0,1,6.024-5.74l6.2,0.19A5.891,5.891,0,0,1,899.289,2281.5Zm-23.623-42.71a36.148,36.148,0,0,1-9.344-7.49c-3.754-4.51-8.14-10.9-6.478-13.06a11.5,11.5,0,0,1,2.532-2.2,2.947,2.947,0,0,1,2.862-.26c1.676,0.67,2.988,4.85,6.656,8.89,3.649,4.06,7.37,5.71,9.2,7.63s1.345,3.62.48,4.78c-0.313.41-1.433,1.66-1.433,1.66S878.749,2240.53,875.666,2238.79Zm21.134,3.42c-0.036,1.56-4.19,2.16-5.939,2.09-2.008-.06-5.624-0.03-6.025-1.88s2.287-9.71,5.642-9.61C893.847,2232.89,896.852,2240.37,896.8,2242.21Zm25.16-18.78a36.019,36.019,0,0,1-7.431,9.42c-4.472,3.82-10.776,8.22-12.927,6.55a11.091,11.091,0,0,1-2.164-2.54,3.065,3.065,0,0,1-.271-2.89c0.655-1.68,4.812-3.05,8.794-6.73,4.034-3.68,5.695-7.44,7.58-9.27,1.877-1.86,3.57-1.37,4.7-.48,0.429,0.3,1.676,1.43,1.676,1.43S923.663,2220.31,921.96,2223.43Zm5.467-15.34c-0.071,2.03-.044,5.68-1.861,6.09-1.833.39-9.623-2.31-9.545-5.72,0.114-3.38,7.5-6.44,9.312-6.37C926.876,2202.13,927.453,2206.33,927.427,2208.09Zm-5.143-10.22a11.138,11.138,0,0,1-2.526,2.18,2.967,2.967,0,0,1-2.873.27c-1.675-.65-3-4.83-6.653-8.89s-7.378-5.72-9.2-7.62-1.345-3.61-.463-4.76c0.3-.43,1.443-1.68,1.443-1.68s1.342-1.78,4.443-.07a36.378,36.378,0,0,1,9.337,7.5C919.54,2189.33,923.943,2195.71,922.284,2197.87Z" transform="translate(-849 -2166)"/>
</svg>
