<?xml version="1.0" encoding="UTF-8"?>
<svg width="199px" height="170px" viewBox="0 0 199 170" version="1.1" xmlns="http://www.w3.org/2000/svg" xmlns:xlink="http://www.w3.org/1999/xlink">
    <!-- Generator: Sketch 48.2 (47327) - http://www.bohemiancoding.com/sketch -->
    <title>img_esthetique.svg</title>
    <desc>Created with Sketch.</desc>
    <defs></defs>
    <g id="Page-1" stroke="none" stroke-width="1" fill="none" fill-rule="evenodd">
        <g id="img_esthetique" fill="#35318F">
            <path d="M115.903,61.62 C123.262,49.71 156.103,49.85 163.462,69.73 C167.57,80.83 167.838,99.6 175.945,108.83 L175.944,108.83 C188.775,123.43 198.436,137.57 198.437,169.3 L174.885,169.3 L141.52,135.6 C141.52,135.6 141.586252,132.927533 141.515185,129.37241 C139.422989,131.588716 137.214022,133.76374 134.855,135.85 C124.868611,144.928505 112.494608,150.962319 99.192,153.24 C86.477,155.48 82.716,144.55 94.692,140.48 C110.673,135.03 118.641,125.28 126.73,116.66 C129.521683,113.685674 132.663093,110.028725 135.765829,106.269257 C131.168423,98.6079449 124.682629,89.6172585 124.598821,89.5011367 C118.425897,95.4709 111.627339,100.757737 104.321,105.27 C97.2718451,100.830968 88.5646627,99.9056517 80.7400077,102.764036 C72.9153527,105.62242 66.8549185,111.942418 64.327,119.88 C56.956,118.61 56.91,110.05 65.962,105.64 C103.402,87.41 103.502,81.69 115.902,61.62 Z M128.333362,7.18976071 C129.891079,2.98337854 133.9463,-0.00730608847 138.692,0.01 C143.165512,0.00974344317 147.196982,2.70913843 148.900672,6.84553209 C150.604362,10.9819257 149.64346,15.7375692 146.467432,18.8879911 C145.75975,19.589967 144.973265,20.1813234 144.132623,20.6572875 C144.171211,20.7477625 144.209269,20.8385708 144.246791,20.9297096 C147.840493,29.6586307 145.812349,39.6933505 139.110754,46.3414617 C132.409159,52.9895729 122.35851,54.9372473 113.658664,51.2737191 C104.958818,47.6101908 99.3290753,39.0594619 99.402,29.62 L99.4,29.62 C99.4584197,16.8019882 109.889935,6.45461208 122.708,6.5 C124.633234,6.50055322 126.519602,6.73800818 128.333362,7.18976071 Z M67.618,148.79 C66.449,155.18 61.552,156.92 56.318,157.23 L56.309,157.07 C54.726,143.1 46.775,123.51 29.3,109.8 C46.837,104.96 69.481,138.63 67.618,148.79 Z M131.219,147.77 L131.218,147.77 C130.402652,146.979807 129.912209,145.913317 129.843,144.78 C131.889,143.35 133.897,141.82 135.868,140.16 C136.526509,140.367446 137.128629,140.723244 137.628,141.2 L158.692,161.45 C160.04009,162.739899 160.461749,164.723243 159.755,166.45 C159.041383,168.177614 157.355195,169.30332 155.486,169.3 L66.943,169.3 C64.4190587,169.3 62.373,167.253941 62.373,164.73 C62.373,162.206059 64.4190587,160.16 66.943,160.16 L144.11,160.16 L131.219,147.77 Z M93.408,136.77 L93.407,136.77 C86.576,139.1 82.725,143.94 83.596,149.12 C83.626,149.31 83.672,149.49 83.718,149.68 C72.616324,146.525575 65.5927678,135.607444 67.3250026,124.197055 C69.0572374,112.786666 79.004673,104.444937 90.5423418,104.727437 C102.080011,105.009938 111.607275,113.828508 112.779,125.31 C107.189705,130.436198 100.592037,134.339418 93.408,136.77 Z M52.372,157.4 L52.372,169.3 L0.995,169.3 L0.995,105.58 C11.335,104.95 16.054,104.67 25.941,112.14 C43.072,125.09 50.822,143.99 52.372,157.4 Z" id="img_esthetique.svg"></path>
        </g>
    </g>
</svg>