<svg xmlns="http://www.w3.org/2000/svg" xmlns:xlink="http://www.w3.org/1999/xlink" width="228.031" height="170" viewBox="0 0 228.031 170">
  <defs>
    <style>
      .cls-1 {
        fill: #3e3e3e;
        fill-rule: evenodd;
        filter: url(#filter);
      }
    </style>
    <filter id="filter" x="215" y="3619" width="228.031" height="170" filterUnits="userSpaceOnUse">
      <feFlood result="flood" flood-color="#df6a70"/>
      <feComposite result="composite" operator="in" in2="SourceGraphic"/>
      <feBlend result="blend" in2="SourceGraphic"/>
    </filter>
  </defs>
  <path id="img_overseas.svg" class="cls-1" d="M315.683,3774.26c-5.822-7.47-10.73-13.69-15.523-19.99a35.817,35.817,0,0,1-2.592-4.86c6.088-2.5,10.8-4.56,15.02,2.99,3.02,5.41,8.362,9.58,11.3,12.78,4.622-5.77,8.772-10.98,12.918-16.18,0.626,0.2,1.245.41,1.847,0.62v15.91c0.77,0.37,1.557.72,2.346,1.09,6.113-7.87,12.206-15.74,19.424-25.03-5.986-.51-9.919-0.86-14.561-1.25,3.368-5.88,5.947-11.12,13.84-10.91,2.077,0.06,5.26-2.85,6.14-5.08,1.69-4.24,2.086-8.98,3.315-15.07-9.749,0-18.794.07-27.844-.03-4.3-.05-8.6-0.45-12.914-0.62-10.252-.38-20.506-0.72-31.788-1.11,0.623,6.35,1,10.26,1.388,14.03-10.474,5.32-11.166,4.73-13.426-11.79H258.24c0.7,5.26,1.412,10.39,2.091,15.52-10.22,2.56-10.993,1.81-12.6-7.72-7.2-42.67,18.195-82.56,60.836-95.06,49.833-14.58,101.6,17.87,109.373,69.62,6.948,46.27-26.583,86.25-66.008,94.85-33.449,7.3-68.84-5.4-89.237-33.83,7.7-2.37,13.936-2.06,20.318,4.68C291.349,3766.6,302.415,3771.83,315.683,3774.26Zm-0.972-140.34c-19.652,5.05-34.767,15.31-46.346,33.38,8.03,0,14.476.28,20.85-.17,1.851-.14,4.027-2.03,5.21-3.7C301.166,3653.92,307.656,3644.23,314.711,3633.92Zm36.932,139.31c15.222-.79,38.456-17.3,43.9-32.33-6.351,0-12.531-.25-18.644.14a8.431,8.431,0,0,0-5.577,3.11C364.468,3753.89,357.944,3763.86,351.643,3773.23Zm45.492-105.98c-11.781-17.83-26.682-28.45-46.379-33.18,7.1,10.37,13.629,20.06,20.4,29.59,1.137,1.58,3.357,3.3,5.182,3.42C382.758,3667.49,389.223,3667.25,397.135,3667.25Zm-58.164,30.87h30.222c-1.562-7.11-2.9-13.22-4.186-19.08H338.971v19.08Zm-12.8-18.9H300.056c-1.256,6.64-2.421,12.77-3.749,19.77,8.844,0,16.525.02,24.2-.04,1.736-.01,3.472-0.3,5.664-0.5v-19.23Zm54.623,30.57c-1.133,7.11-2.124,13.24-3.111,19.41,26.583,2.12,31.844-1.61,27.938-19.94-6.061,0-12.24-.04-18.429.02C385.144,3709.31,383.121,3709.59,380.79,3709.79Zm-92.973-30.69c-26.433-2.27-31.523,1.27-28.259,19.21h25.027C285.715,3691.62,286.718,3685.63,287.817,3679.1ZM407.5,3698.57c-1-5.56-1.3-10.55-3.019-15.05-0.821-2.17-4.191-4.53-6.628-4.76-6.645-.65-13.371-0.24-20.343-0.24,1.231,7.19,2.287,13.43,3.425,20.05H407.5Zm-81.142-55.79c-0.706-.4-1.427-0.8-2.136-1.18-6.07,8.03-12.163,16.08-19.015,25.17h21.151v-23.99Zm14.726-1.28q-0.868.525-1.736,1.08v24.2h21.1C353.278,3657.44,347.192,3649.47,341.084,3641.5Zm-24.077,84.13c-2.477-1.01-4.7-1.23-5.363-2.34-1.348-2.25-2.828-5.21-2.33-7.48,0.308-1.42,4.352-3.28,6.306-2.91,8.683,1.66,17.274,3.95,25.836,6.23,6.974,1.85,7.354,5.99,3.152,10.98-4.947,5.86-9.8,11.89-15.419,17.1-2.244,2.07-6.375,2.15-9.661,3.13,0.427-3.54.781-7.06,1.336-10.57,0.126-.78.9-1.46,1.894-3-11.6,2.16-22.411,4.46-33.333,6.15-18.267,2.82-36.587,4.49-54.759-.79-20.4-5.91-25.516-20.84-12.612-37.51a91.764,91.764,0,0,1,16.875-16.9c1.509,8.04,1.065,14.37-4.582,20.31-12.722,13.36-10.53,20.42,7.764,23.92,20.438,3.91,40.837,1,61.053-2.85C307.476,3728.27,311.715,3726.97,317.007,3725.63Zm108.586-35.85c-2.779-7.76-5.174-12.63.3-18.55,9.455-10.27,6.732-17.96-7.385-20.59-9.3-1.75-16.525-5.08-21.915-15.31,11.391,2.25,21.745,3.19,31.309,6.43,14.989,5.1,19.262,18.49,10.9,31.69C435.385,3678.81,430.785,3683.43,425.593,3689.78Z" transform="translate(-215 -3619)"/>
</svg>
