<?xml version="1.0" encoding="UTF-8"?>
<svg width="202px" height="170px" viewBox="0 0 202 170" version="1.1" xmlns="http://www.w3.org/2000/svg" xmlns:xlink="http://www.w3.org/1999/xlink">
    <!-- Generator: Sketch 48.2 (47327) - http://www.bohemiancoding.com/sketch -->
    <title>img_franchise.svg</title>
    <desc>Created with Sketch.</desc>
    <defs></defs>
    <g id="Page-1" stroke="none" stroke-width="1" fill="none" fill-rule="evenodd">
        <g id="img_franchise" transform="translate(-1.000000, 0.000000)" fill="#0E6FA8">
            <path d="M65.039,87.5730729 L65.039,49.16 L52.839,49.16 L101.93,0.01 L151.038,49.16 L151.043,49.16 L138.983,49.16 L138.983,87.5742554 L153.938,72.59 L203.008,121.76 L203.009,121.76 L190.899,121.76 L190.899,169.99 L181.519,169.99 L181.519,121.76 L126.369,121.76 L126.369,169.99 L116.969,169.99 L116.969,121.76 L104.864,121.76 L129.583,96.992644 L129.583,49.16 L74.439,49.16 L74.439,96.9881999 L99.171,121.76 L87.049,121.76 L87.049,169.99 L77.659,169.99 L77.659,121.76 L22.505,121.76 L22.505,169.99 L13.114,169.99 L13.114,121.76 L0.994,121.76 L50.08,72.59 L65.039,87.5730729 Z M43.485,141.64 L29.855,141.64 L29.855,128 L43.485,128 L43.485,141.64 Z M70.308,141.64 L56.689,141.64 L56.689,128 L70.308,128 L70.308,141.64 Z M43.485,162.16 L29.855,162.16 L29.855,148.52 L43.485,148.52 L43.485,162.16 Z M70.308,162.16 L56.689,162.16 L56.689,148.52 L70.308,148.52 L70.308,162.16 Z M147.338,141.64 L133.718,141.64 L133.718,128 L147.338,128 L147.338,141.64 Z M174.148,141.64 L160.548,141.64 L160.548,128 L174.148,128 L174.148,141.64 Z M147.338,162.16 L133.718,162.16 L133.718,148.52 L147.338,148.52 L147.338,162.16 Z M174.148,162.16 L160.548,162.16 L160.548,148.52 L174.148,148.52 L174.148,162.16 Z M95.407,69.05 L81.768,69.05 L81.768,55.41 L95.409,55.41 L95.409,69.05 L95.407,69.05 Z M122.236,69.05 L108.6,69.05 L108.6,55.41 L122.24,55.41 L122.24,69.05 L122.236,69.05 Z M95.407,89.57 L81.768,89.57 L81.768,75.92 L95.409,75.92 L95.409,89.57 L95.407,89.57 Z M122.236,89.57 L108.6,89.57 L108.6,75.92 L122.24,75.92 L122.24,89.57 L122.236,89.57 Z" id="img_franchise.svg"></path>
        </g>
    </g>
</svg>