<svg xmlns="http://www.w3.org/2000/svg" xmlns:xlink="http://www.w3.org/1999/xlink" width="222" height="171" viewBox="0 0 222 171">
  <defs>
    <style>
      .cls-1 {
        fill: #3e3e3e;
        fill-rule: evenodd;
        filter: url(#filter);
      }
    </style>
    <filter id="filter" x="218" y="2166" width="222" height="171" filterUnits="userSpaceOnUse">
      <feFlood result="flood" flood-color="#456436"/>
      <feComposite result="composite" operator="in" in2="SourceGraphic"/>
      <feBlend result="blend" in2="SourceGraphic"/>
    </filter>
  </defs>
  <path id="img_consulting.svg" class="cls-1" d="M435.15,2165.99h-186.8a4.791,4.791,0,0,0-4.822,4.74v102.91a2.659,2.659,0,0,1,.282-0.12c0.546-.15,1.224-0.25,1.991-0.4,2.491-.4,4.49-0.73,5.839-3.98,0.65-1.46,1.187-6.39,1.687-10.78,2-17.71,5.033-44.43,24.814-44.43a19.289,19.289,0,0,1,2.993.21c0.537-.04,1.273-0.11,2.2-0.11,0.679,0,1.312.13,1.973,0.18l14.695-9.92a7.179,7.179,0,1,1,13.864-3.23l35.693,5.1a7.2,7.2,0,0,1,6.712-4.49,7.276,7.276,0,0,1,5.379,2.41l37.713-19.87a6.785,6.785,0,0,1-.389-1.84,7.267,7.267,0,1,1,7.272,7.09,7.343,7.343,0,0,1-5.386-2.4l-37.711,19.88a5.883,5.883,0,0,1,.368,1.79,7.214,7.214,0,0,1-14.39.61l-35.671-5.1a7.249,7.249,0,0,1-11.541,2.64l-11.989,8.11c9.469,2.49,17.828,10.71,17.828,28.24,0,1.72,0,3.33-.022,4.89h13.38c2.682,0,4.841,2.92,4.841,6.53v29.88c0.621,1.56,1.234,3.18,1.809,4.78,1.039,2.79,2.6,6.97,3.423,8.09,0.88,0.71,3.306,2.82,5.881,5.4v-69.42a4.753,4.753,0,0,1,4.813-4.71h28.78a4.778,4.778,0,0,1,4.842,4.71V2278c0.058,0,.112-0.02.166-0.02,0.464,0,.955.02,1.56,0.05l0.82,0.1c1.614,0.14,5.14.51,8.537,0.69v-73.13a4.82,4.82,0,0,1,4.872-4.72h28.723a4.8,4.8,0,0,1,4.87,4.72v112.87a4.78,4.78,0,0,1-4.87,4.71H391.462a4.8,4.8,0,0,1-4.872-4.71v-23.79c-1.643.33-3.261,0.64-4.544,0.86l-0.928,2.55a4.427,4.427,0,0,1-.467.94c-0.173.3-2.545,3.99-5.144,7.99v11.45a4.791,4.791,0,0,1-4.842,4.71H364.1c-0.136.23-.3,0.47-0.405,0.7a50,50,0,0,1-7.064,10.54H435.15a4.785,4.785,0,0,0,4.844-4.73V2170.73A4.8,4.8,0,0,0,435.15,2165.99ZM325.417,2332.06l-0.512,2.45h3.877C327.626,2333.7,326.49,2332.97,325.417,2332.06Zm79.56-51.85c-1.237-1.39-6.845,2.85-11.19,3.41-4.382.53-15.66-.68-16.975-0.77-2.559-.23-3.262.32-3.262,0.32s-9.038,7.72-13.409,14.94c-4.356,7.18-12.84,14.91-14.507,16.22s-5.394.93-5.394,0.93-0.074.24-.215-0.5c-0.652-3.28-9.381-11.76-12.067-13.72-2.678-1.99-5.685-14.38-9.382-20.93-3.69-6.52-15.758-5.22-15.758-5.22l-2.024-2.3s2.024-1.62,2.024-29.36c0-27.78-21.8-24.24-21.8-24.24-23.8-4.24-21.242,43.56-24.8,51.98-2.917,6.89-8.719,6.55-11.069,7.2-2.326.65-11.676,20.12-15.019,25.01-3.352,4.91-12.125,33.82-12.125,33.82H319.36l2.664-13.09,2.681,0.45c6.267,7.84,16.442,11.87,20.466,11.87,5.8,0,12.8-11.34,13.928-14.06,1.135-2.7,3.282-4.34,5.963-8.16s11.407-17.43,11.407-17.43l1.886-5.22a122.924,122.924,0,0,0,13.511-2.85C396.8,2286.99,406.366,2281.84,404.977,2280.21Zm-120.488,37.72c-3.255,2.73-.823,8.58-32.857,11.23l0.22-.45-18.084-27.67,37.425-19.18,21.23,32.81A17.083,17.083,0,0,0,284.489,2317.93Zm11-5.7-2.412-7.35-20.655-29.34-1.009-4.25,12.856,9.04-1.89,3.7,11.94,17.88h3.34l-9.151-17.97,1.779-11.35,4.032,14.83,5.929,14.49,1.366,8.92Z" transform="translate(-218 -2166)"/>
</svg>
