<svg xmlns="http://www.w3.org/2000/svg" xmlns:xlink="http://www.w3.org/1999/xlink" width="124" height="33" viewBox="0 0 124 33">
  <defs>
    <style>
      .cls-1 {
        fill: #fff;
        fill-rule: evenodd;
        filter: url(#filter);
      }
    </style>
    <filter id="filter" x="104" y="151" width="124" height="33" filterUnits="userSpaceOnUse">
      <feOffset result="offset" in="SourceAlpha"/>
      <feGaussianBlur result="blur" stdDeviation="2.236"/>
      <feFlood result="flood" flood-opacity="0.75"/>
      <feComposite result="composite" operator="in" in2="blur"/>
      <feBlend result="blend" in="SourceGraphic"/>
    </filter>
  </defs>
  <path id="ttl_header_sp.svg" data-name="ttl_header@sp.svg" class="cls-1" d="M130.194,157.446H120.161V155.79h-1.92v1.656h-9.913v1.633h9.913V160.5h-7.873v4.584h7.873v1.248H109.6v1.464h8.641v1.56H108.064v1.561h10.177V172.5h-8.713v1.512h8.713v1.32c0,0.576-.192.744-0.792,0.744l-3.5-.024,0.264,1.944h3.864a1.844,1.844,0,0,0,2.088-2.088v-1.9h6.529v1.152h1.944v-4.224h1.7V169.3h-1.7v-2.976h-8.473v-1.248h7.945V160.5h-7.945v-1.416h10.033v-1.633Zm-11.953,6.217h-5.952v-1.8h5.952v1.8Zm7.873,0h-5.953v-1.8h5.953v1.8Zm0.576,5.688h-6.529v-1.56h6.529v1.56Zm0,3.145h-6.529v-1.584h6.529V172.5Zm34.824,3.336a19.176,19.176,0,0,1-8.641-4.272h8.641v-1.609H151.409V168.2h8.617v-1.536h-8.617v-1.68H160.6V163.4h-5.784c0.264-.768.432-1.272,0.744-2.3h5.952v-1.632H157.29c0.6-.961,1.344-2.329,1.68-3.049l-1.944-.648a27.752,27.752,0,0,1-1.752,3.7h-1.7v-3.721H151.7v3.721h-2.472v-3.721h-1.872v3.721h-1.776a19.344,19.344,0,0,0-1.7-3.7l-1.944.648a30.614,30.614,0,0,1,1.608,3.049h-4.153V161.1h5.857a18.617,18.617,0,0,1,.792,2.3h-5.641v1.584h9.121v1.68h-8.545V168.2h8.545v1.752H139.384v1.609h8.689a22.357,22.357,0,0,1-8.617,4.3l1.056,1.728a22.236,22.236,0,0,0,9-5.136v5.592h1.9v-5.568c2.881,2.64,4.9,3.672,8.977,5.16ZM148.049,163.4c-0.144-.36-0.672-1.968-0.792-2.3h6.265a13.877,13.877,0,0,1-.673,2.3h-4.8Zm32.64-2.592a18.582,18.582,0,0,0,1.128-1.7h8.449v3.144h1.968v-4.825h-9.625v-1.68h-2.016v1.68h-9.577v4.825h1.968V159.1h6.6a12.545,12.545,0,0,1-1.2,1.7h-4.608v1.512h3.384a21.73,21.73,0,0,1-2.328,2.5c1.008,0.168,2.568.432,5.208,1.032a32.591,32.591,0,0,1-8.089,1.032l0.528,1.8a29.792,29.792,0,0,0,10.393-2.112,53.267,53.267,0,0,1,7.105,2.4l1.248-1.7c-1.68-.552-4.248-1.416-6.36-1.92a10.383,10.383,0,0,0,2.64-3.024h2.04v-1.512h-8.857Zm4.657,1.512a9.522,9.522,0,0,1-2.689,2.5c-1.8-.408-3.264-0.624-4.632-0.84,0.456-.48.792-0.84,1.488-1.656h5.833Zm7.512,13.321a19.528,19.528,0,0,1-8.905-4.32h8.761v-1.657H182.585v-1.728h-1.992v1.728H170.512v1.657h8.761a22.683,22.683,0,0,1-8.809,4.44l0.864,1.9a22.458,22.458,0,0,0,9.265-5.4v5.76h1.992v-5.832a19.874,19.874,0,0,0,9.217,5.376Zm18.983-16.393h-9.073v18.745h2.017V161.119h6.888a12.243,12.243,0,0,1-6.648,9.265l1.224,1.728A15.8,15.8,0,0,0,212.873,164c0.528,1.464,1.68,4.584,6.433,8.209l1.32-1.68c-5.473-3.6-6.385-7.417-6.649-9.409h6.865v14.257a0.547,0.547,0,0,1-.672.624l-3.72-.024,0.312,2.016h4.08a1.773,1.773,0,0,0,1.992-2.04v-16.7h-8.977v-3.505h-2.016v3.505Z" transform="translate(-104 -151)"/>
</svg>
