<?xml version="1.0" encoding="UTF-8"?>
<svg width="162px" height="40px" viewBox="0 0 162 40" version="1.1" xmlns="http://www.w3.org/2000/svg" xmlns:xlink="http://www.w3.org/1999/xlink">
    <!-- Generator: Sketch 48.2 (47327) - http://www.bohemiancoding.com/sketch -->
    <title>事業案内</title>
    <desc>Created with Sketch.</desc>
    <defs>
        <path d="M33.656,7.264 L33.656,9.44 L20.28,9.44 L20.28,11.328 L30.872,11.328 L30.872,17.44 L20.28,17.44 L20.28,19.104 L31.576,19.104 L31.576,23.072 L33.848,23.072 L33.848,25.248 L31.576,25.248 L31.576,30.88 L28.984,30.88 L28.984,29.344 L20.28,29.344 L20.28,31.872 C20.28,33.568 19.512,34.656 17.496,34.656 L12.344,34.656 L11.992,32.064 L16.664,32.096 C17.464,32.096 17.72,31.872 17.72,31.104 L17.72,29.344 L6.104,29.344 L6.104,27.328 L17.72,27.328 L17.72,25.216 L4.152,25.216 L4.152,23.136 L17.72,23.136 L17.72,21.056 L6.2,21.056 L6.2,19.104 L17.72,19.104 L17.72,17.44 L7.224,17.44 L7.224,11.328 L17.72,11.328 L17.72,9.44 L4.504,9.44 L4.504,7.264 L17.72,7.264 L17.72,5.056 L20.28,5.056 L20.28,7.264 L33.656,7.264 Z M17.72,15.552 L17.72,13.152 L9.784,13.152 L9.784,15.552 L17.72,15.552 Z M28.216,15.552 L28.216,13.152 L20.28,13.152 L20.28,15.552 L28.216,15.552 Z M28.984,23.136 L28.984,21.056 L20.28,21.056 L20.28,23.136 L28.984,23.136 Z M28.984,27.328 L28.984,25.216 L20.28,25.216 L20.28,27.328 L28.984,27.328 Z M75.3660002,31.776 L73.8620002,34.176 C68.4220002,32.192 65.7340002,30.816 61.8940002,27.296 L61.8940002,34.72 L59.3660002,34.72 L59.3660002,27.264 C55.6220002,30.88 51.9100002,32.544 47.3660002,34.112 L45.9580002,31.808 C48.9020002,30.976 53.3500002,29.536 57.4460002,26.08 L45.8620002,26.08 L45.8620002,23.936 L59.3660002,23.936 L59.3660002,21.6 L47.9740002,21.6 L47.9740002,19.552 L59.3660002,19.552 L59.3660002,17.312 L47.2060002,17.312 L47.2060002,15.2 L54.7260002,15.2 C54.5340002,14.432 53.9900002,12.832 53.6700002,12.128 L45.8620002,12.128 L45.8620002,9.952 L51.3980002,9.952 C50.7580002,8.544 50.4060002,7.904 49.2540002,5.888 L51.8460002,5.024 C52.2300002,5.664 52.9980002,6.912 54.1180002,9.952 L56.4860002,9.952 L56.4860002,4.992 L58.9820002,4.992 L58.9820002,9.952 L62.2780002,9.952 L62.2780002,4.992 L64.7740002,4.992 L64.7740002,9.952 L67.0460002,9.952 C68.0380002,8.288 68.8380002,6.368 69.3820002,5.024 L71.9740002,5.888 C71.5260002,6.848 70.5340002,8.672 69.7340002,9.952 L75.3660002,9.952 L75.3660002,12.128 L67.4300002,12.128 C67.0140002,13.504 66.7900002,14.176 66.4380002,15.2 L74.1500002,15.2 L74.1500002,17.312 L61.8940002,17.312 L61.8940002,19.552 L73.3820002,19.552 L73.3820002,21.6 L61.8940002,21.6 L61.8940002,23.936 L75.3660002,23.936 L75.3660002,26.08 L63.8460002,26.08 C67.4620002,29.152 70.3100002,30.432 75.3660002,31.776 Z M57.4140002,15.2 L63.8140002,15.2 C63.9420002,14.88 64.4860002,13.408 64.7100002,12.128 L56.3580002,12.128 C56.5180002,12.576 57.2220002,14.72 57.4140002,15.2 Z M100.884,11.744 L112.692,11.744 L112.692,13.76 L109.972,13.76 C109.46,14.592 108.564,16.128 106.452,17.792 C109.268,18.464 112.692,19.616 114.932,20.352 L113.268,22.624 C111.412,21.856 108.564,20.704 103.796,19.424 C101.972,20.288 97.2360004,21.856 89.9400004,22.24 L89.2360004,19.84 C95.4120004,19.648 98.3560004,18.912 100.02,18.464 C96.5000004,17.664 94.4200004,17.312 93.0760004,17.088 C93.9720004,16.256 94.6120004,15.648 96.1800004,13.76 L91.6680004,13.76 L91.6680004,11.744 L97.8120004,11.744 C98.8040004,10.496 99.2200004,9.824 99.4120004,9.472 L90.6120004,9.472 L90.6120004,13.664 L87.9880004,13.664 L87.9880004,7.232 L100.756,7.232 L100.756,4.992 L103.444,4.992 L103.444,7.232 L116.276,7.232 L116.276,13.664 L113.652,13.664 L113.652,9.472 L102.388,9.472 C102.132,9.92 101.78,10.496 100.884,11.744 Z M107.092,13.76 L99.3160004,13.76 C98.3880004,14.848 97.9400004,15.328 97.3320004,15.968 C99.1560004,16.256 101.108,16.544 103.508,17.088 C105.396,15.936 106.356,14.688 107.092,13.76 Z M117.108,31.52 L115.7,34.08 C112.852,33.216 107.604,31.488 103.412,26.912 L103.412,34.688 L100.756,34.688 L100.756,27.008 C98.8680004,28.96 94.5480004,32.352 88.4040004,34.208 L87.2520004,31.68 C93.7480004,29.824 97.3320004,27.2 98.9960004,25.76 L87.3160004,25.76 L87.3160004,23.552 L100.756,23.552 L100.756,21.248 L103.412,21.248 L103.412,23.552 L116.916,23.552 L116.916,25.76 L105.236,25.76 C109.62,29.696 114.548,30.912 117.108,31.52 Z M142.370001,9.664 L142.370001,4.992 L145.058001,4.992 L145.058001,9.664 L157.026001,9.664 L157.026001,31.936 C157.026001,32.672 157.026001,34.656 154.370001,34.656 L148.930001,34.656 L148.514001,31.968 L153.474001,32 C153.890001,32 154.370001,31.968 154.370001,31.168 L154.370001,12.16 L145.218001,12.16 C145.570001,14.816 146.786001,19.904 154.082001,24.704 L152.322001,26.944 C145.986001,22.112 144.450001,17.952 143.746001,16 C142.242001,19.648 140.034001,23.712 134.914001,26.816 L133.282001,24.512 C137.698001,22.144 141.122001,18.368 142.146001,12.16 L132.962001,12.16 L132.962001,34.656 L130.274001,34.656 L130.274001,9.664 L142.370001,9.664 Z" id="path-1"></path>
        <filter x="-4.9%" y="-25.2%" width="109.8%" height="150.5%" filterUnits="objectBoundingBox" id="filter-2">
            <feOffset dx="0" dy="0" in="SourceAlpha" result="shadowOffsetOuter1"></feOffset>
            <feGaussianBlur stdDeviation="2.5" in="shadowOffsetOuter1" result="shadowBlurOuter1"></feGaussianBlur>
            <feColorMatrix values="0 0 0 0 0   0 0 0 0 0   0 0 0 0 0  0 0 0 0.75 0" type="matrix" in="shadowBlurOuter1"></feColorMatrix>
        </filter>
    </defs>
    <g id="Page-1" stroke="none" stroke-width="1" fill="none" fill-rule="evenodd">
        <g id="事業案内">
            <use fill="black" fill-opacity="1" filter="url(#filter-2)" xlink:href="#path-1"></use>
            <use fill="#FFFFFF" fill-rule="evenodd" xlink:href="#path-1"></use>
        </g>
    </g>
</svg>