<?xml version="1.0" encoding="UTF-8"?>
<svg width="105px" height="29px" viewBox="0 0 105 29" version="1.1" xmlns="http://www.w3.org/2000/svg" xmlns:xlink="http://www.w3.org/1999/xlink">
    <!-- Generator: Sketch 48.2 (47327) - http://www.bohemiancoding.com/sketch -->
    <title>事業案内</title>
    <desc>Created with Sketch.</desc>
    <defs>
        <path d="M23.16,6.54 L23.16,7.9 L14.8,7.9 L14.8,9.08 L21.42,9.08 L21.42,12.9 L14.8,12.9 L14.8,13.94 L21.86,13.94 L21.86,16.42 L23.28,16.42 L23.28,17.78 L21.86,17.78 L21.86,21.3 L20.24,21.3 L20.24,20.34 L14.8,20.34 L14.8,21.92 C14.8,22.98 14.32,23.66 13.06,23.66 L9.84,23.66 L9.62,22.04 L12.54,22.06 C13.04,22.06 13.2,21.92 13.2,21.44 L13.2,20.34 L5.94,20.34 L5.94,19.08 L13.2,19.08 L13.2,17.76 L4.72,17.76 L4.72,16.46 L13.2,16.46 L13.2,15.16 L6,15.16 L6,13.94 L13.2,13.94 L13.2,12.9 L6.64,12.9 L6.64,9.08 L13.2,9.08 L13.2,7.9 L4.94,7.9 L4.94,6.54 L13.2,6.54 L13.2,5.16 L14.8,5.16 L14.8,6.54 L23.16,6.54 Z M13.2,11.72 L13.2,10.22 L8.24,10.22 L8.24,11.72 L13.2,11.72 Z M19.76,11.72 L19.76,10.22 L14.8,10.22 L14.8,11.72 L19.76,11.72 Z M20.24,16.46 L20.24,15.16 L14.8,15.16 L14.8,16.46 L20.24,16.46 Z M20.24,19.08 L20.24,17.76 L14.8,17.76 L14.8,19.08 L20.24,19.08 Z M49.2287505,21.86 L48.2887505,23.36 C44.8887505,22.12 43.2087505,21.26 40.8087505,19.06 L40.8087505,23.7 L39.2287505,23.7 L39.2287505,19.04 C36.8887505,21.3 34.5687505,22.34 31.7287505,23.32 L30.8487505,21.88 C32.6887505,21.36 35.4687505,20.46 38.0287505,18.3 L30.7887505,18.3 L30.7887505,16.96 L39.2287505,16.96 L39.2287505,15.5 L32.1087505,15.5 L32.1087505,14.22 L39.2287505,14.22 L39.2287505,12.82 L31.6287505,12.82 L31.6287505,11.5 L36.3287505,11.5 C36.2087505,11.02 35.8687505,10.02 35.6687505,9.58 L30.7887505,9.58 L30.7887505,8.22 L34.2487505,8.22 C33.8487505,7.34 33.6287505,6.94 32.9087505,5.68 L34.5287505,5.14 C34.7687505,5.54 35.2487505,6.32 35.9487505,8.22 L37.4287505,8.22 L37.4287505,5.12 L38.9887505,5.12 L38.9887505,8.22 L41.0487505,8.22 L41.0487505,5.12 L42.6087505,5.12 L42.6087505,8.22 L44.0287505,8.22 C44.6487505,7.18 45.1487505,5.98 45.4887505,5.14 L47.1087505,5.68 C46.8287505,6.28 46.2087505,7.42 45.7087505,8.22 L49.2287505,8.22 L49.2287505,9.58 L44.2687505,9.58 C44.0087505,10.44 43.8687505,10.86 43.6487505,11.5 L48.4687505,11.5 L48.4687505,12.82 L40.8087505,12.82 L40.8087505,14.22 L47.9887505,14.22 L47.9887505,15.5 L40.8087505,15.5 L40.8087505,16.96 L49.2287505,16.96 L49.2287505,18.3 L42.0287505,18.3 C44.2887505,20.22 46.0687505,21.02 49.2287505,21.86 Z M38.0087505,11.5 L42.0087505,11.5 C42.0887505,11.3 42.4287505,10.38 42.5687505,9.58 L37.3487505,9.58 C37.4487505,9.86 37.8887505,11.2 38.0087505,11.5 Z M65.177501,9.34 L72.557501,9.34 L72.557501,10.6 L70.857501,10.6 C70.537501,11.12 69.977501,12.08 68.657501,13.12 C70.417501,13.54 72.557501,14.26 73.957501,14.72 L72.917501,16.14 C71.757501,15.66 69.977501,14.94 66.997501,14.14 C65.857501,14.68 62.897501,15.66 58.337501,15.9 L57.897501,14.4 C61.757501,14.28 63.597501,13.82 64.637501,13.54 C62.437501,13.04 61.137501,12.82 60.297501,12.68 C60.857501,12.16 61.257501,11.78 62.237501,10.6 L59.417501,10.6 L59.417501,9.34 L63.257501,9.34 C63.877501,8.56 64.137501,8.14 64.257501,7.92 L58.757501,7.92 L58.757501,10.54 L57.117501,10.54 L57.117501,6.52 L65.097501,6.52 L65.097501,5.12 L66.777501,5.12 L66.777501,6.52 L74.797501,6.52 L74.797501,10.54 L73.157501,10.54 L73.157501,7.92 L66.117501,7.92 C65.957501,8.2 65.737501,8.56 65.177501,9.34 Z M69.057501,10.6 L64.197501,10.6 C63.617501,11.28 63.337501,11.58 62.957501,11.98 C64.097501,12.16 65.317501,12.34 66.817501,12.68 C67.997501,11.96 68.597501,11.18 69.057501,10.6 Z M75.317501,21.7 L74.437501,23.3 C72.657501,22.76 69.377501,21.68 66.757501,18.82 L66.757501,23.68 L65.097501,23.68 L65.097501,18.88 C63.917501,20.1 61.217501,22.22 57.377501,23.38 L56.657501,21.8 C60.717501,20.64 62.957501,19 63.997501,18.1 L56.697501,18.1 L56.697501,16.72 L65.097501,16.72 L65.097501,15.28 L66.757501,15.28 L66.757501,16.72 L75.197501,16.72 L75.197501,18.1 L67.897501,18.1 C70.637501,20.56 73.717501,21.32 75.317501,21.7 Z M91.1062514,8.04 L91.1062514,5.12 L92.7862514,5.12 L92.7862514,8.04 L100.266251,8.04 L100.266251,21.96 C100.266251,22.42 100.266251,23.66 98.6062514,23.66 L95.2062514,23.66 L94.9462514,21.98 L98.0462514,22 C98.3062514,22 98.6062514,21.98 98.6062514,21.48 L98.6062514,9.6 L92.8862514,9.6 C93.1062514,11.26 93.8662514,14.44 98.4262514,17.44 L97.3262514,18.84 C93.3662514,15.82 92.4062514,13.22 91.9662514,12 C91.0262514,14.28 89.6462514,16.82 86.4462514,18.76 L85.4262514,17.32 C88.1862514,15.84 90.3262514,13.48 90.9662514,9.6 L85.2262514,9.6 L85.2262514,23.66 L83.5462514,23.66 L83.5462514,8.04 L91.1062514,8.04 Z" id="path-1"></path>
        <filter x="-7.8%" y="-40.4%" width="115.7%" height="180.7%" filterUnits="objectBoundingBox" id="filter-2">
            <feOffset dx="0" dy="0" in="SourceAlpha" result="shadowOffsetOuter1"></feOffset>
            <feGaussianBlur stdDeviation="2.5" in="shadowOffsetOuter1" result="shadowBlurOuter1"></feGaussianBlur>
            <feColorMatrix values="0 0 0 0 0   0 0 0 0 0   0 0 0 0 0  0 0 0 0.75 0" type="matrix" in="shadowBlurOuter1"></feColorMatrix>
        </filter>
    </defs>
    <g id="Page-1" stroke="none" stroke-width="1" fill="none" fill-rule="evenodd">
        <g id="事業案内">
            <use fill="black" fill-opacity="1" filter="url(#filter-2)" xlink:href="#path-1"></use>
            <use fill="#FFFFFF" fill-rule="evenodd" xlink:href="#path-1"></use>
        </g>
    </g>
</svg>