<svg xmlns="http://www.w3.org/2000/svg" xmlns:xlink="http://www.w3.org/1999/xlink" width="163" height="39" viewBox="0 0 163 39">
  <defs>
    <style>
      .cls-1 {
        fill: #fff;
        fill-rule: evenodd;
        filter: url(#filter);
      }
    </style>
    <filter id="filter" x="567" y="238" width="163" height="39" filterUnits="userSpaceOnUse">
      <feOffset result="offset" in="SourceAlpha"/>
      <feGaussianBlur result="blur" stdDeviation="2.236"/>
      <feFlood result="flood" flood-opacity="0.75"/>
      <feComposite result="composite" operator="in" in2="blur"/>
      <feBlend result="blend" in="SourceGraphic"/>
    </filter>
  </defs>
  <path id="ttl_header_pc.svg" data-name="ttl_header@pc.svg" class="cls-1" d="M601.254,244.266H587.879v-2.208h-2.56v2.208H572.1v2.176h13.215v1.887h-10.5v6.112h10.5v1.664H573.8v1.952h11.519v2.08H571.752v2.079h13.567v2.112H573.7v2.016h11.615v1.76c0,0.768-.256.992-1.056,0.992l-4.672-.032,0.352,2.592H585.1a2.459,2.459,0,0,0,2.784-2.784v-2.528h8.7v1.536h2.592v-5.632h2.272v-2.175h-2.272v-3.968H587.879v-1.664H598.47v-6.112H587.879v-1.887h13.375v-2.176Zm-15.935,8.287h-7.935v-2.4h7.935v2.4Zm10.5,0h-7.935v-2.4h7.935v2.4Zm0.768,7.584h-8.7v-2.08h8.7v2.08Zm0,4.191h-8.7v-2.112h8.7v2.112Zm46.432,4.448c-5.056-1.344-7.9-2.624-11.519-5.7h11.519v-2.143H629.543V258.6H641.03v-2.048H629.543v-2.24H641.8V252.2h-7.711c0.351-1.024.575-1.7,0.991-3.072h7.936v-2.175h-5.632c0.8-1.28,1.792-3.1,2.24-4.064l-2.592-.864a36.915,36.915,0,0,1-2.336,4.928h-2.271v-4.96h-2.5v4.96h-3.3v-4.96h-2.5v4.96h-2.368a25.832,25.832,0,0,0-2.271-4.928l-2.592.864a40.97,40.97,0,0,1,2.144,4.064h-5.536v2.175h7.807a24.823,24.823,0,0,1,1.056,3.072h-7.519v2.112h12.159v2.24H615.624V258.6h11.391v2.336h-13.5v2.143H625.1a29.8,29.8,0,0,1-11.487,5.728l1.408,2.3c4.544-1.568,8.255-3.232,12-6.848v7.456h2.528V264.3c3.84,3.52,6.527,4.9,11.967,6.88ZM625.063,252.2c-0.192-.48-0.9-2.624-1.056-3.072h8.352a18.405,18.405,0,0,1-.9,3.072h-6.4Zm43.52-3.456a24.671,24.671,0,0,0,1.5-2.271H681.35v4.191h2.624v-6.431H671.143v-2.24h-2.688v2.24H655.688v6.431h2.624v-4.191h8.8a16.679,16.679,0,0,1-1.6,2.271h-6.143v2.016h4.511a28.989,28.989,0,0,1-3.1,3.328c1.343,0.224,3.423.576,6.943,1.376a43.448,43.448,0,0,1-10.783,1.376l0.7,2.4c7.295-.384,12.031-1.952,13.855-2.816a71.079,71.079,0,0,1,9.471,3.2l1.664-2.272c-2.24-.736-5.664-1.888-8.479-2.56a13.852,13.852,0,0,0,3.519-4.032h2.72v-2.016H668.583Zm6.208,2.016a12.687,12.687,0,0,1-3.584,3.328c-2.4-.544-4.352-0.832-6.176-1.12,0.608-.64,1.056-1.12,1.984-2.208h7.776Zm10.015,17.759a26.021,26.021,0,0,1-11.871-5.76h11.679v-2.207h-13.5v-2.3h-2.656v2.3H655.016v2.207H666.7a30.239,30.239,0,0,1-11.743,5.92l1.152,2.528a29.948,29.948,0,0,0,12.351-7.2v7.68h2.656v-7.776c4.192,4.576,9.439,6.3,12.287,7.168Zm25.313-21.854h-12.1v24.99h2.688v-22.5H709.9a16.32,16.32,0,0,1-8.863,12.352l1.632,2.3A21.058,21.058,0,0,0,711.5,253c0.7,1.952,2.24,6.112,8.575,10.943l1.76-2.239c-7.3-4.8-8.511-9.888-8.863-12.544h9.151v19.007a0.729,0.729,0,0,1-.9.832l-4.959-.032,0.416,2.688h5.439a2.364,2.364,0,0,0,2.656-2.72v-22.27H712.807v-4.672h-2.688v4.672Z" transform="translate(-567 -238)"/>
</svg>
