<?xml version="1.0" encoding="UTF-8"?>
<svg width="51px" height="44px" viewBox="0 0 51 44" version="1.1" xmlns="http://www.w3.org/2000/svg" xmlns:xlink="http://www.w3.org/1999/xlink">
    <!-- Generator: Sketch 48.2 (47327) - http://www.bohemiancoding.com/sketch -->
    <title>icon_esthetique</title>
    <desc>Created with Sketch.</desc>
    <defs></defs>
    <g id="Page-1" stroke="none" stroke-width="1" fill="none" fill-rule="evenodd">
        <g id="icon_esthetique" fill="#35318F">
            <path d="M29.6849694,16.0131293 L29.684,16.01 C31.584,12.92 40.067,12.95 41.967,18.12 C43.028,21 43.097,25.88 45.191,28.28 L45.188,28.28 C48.5,32.08 51,35.75 51,44 L44.918,44 L36.3,35.24 C36.3186186,34.6801108 36.3193039,34.120089 36.3021158,33.560791 C35.7398291,34.1556289 35.165006,34.7388329 34.578,35.31 C32.0035319,37.6671592 28.8066458,39.2359275 25.367,39.83 C22.083,40.41 21.112,37.57 24.205,36.51 C28.333,35.09 30.391,32.56 32.48,30.32 C33.2014274,29.5473296 34.0131879,28.5968719 34.8148836,27.6196393 C33.6198799,25.6138468 31.93,23.26 31.93,23.26 L31.9282799,23.2544477 L31.926,23.26 C30.3318538,24.8098741 28.5761568,26.1843933 26.689,27.36 C24.8683534,26.2034927 22.61293,25.9609298 20.5880056,26.7038595 C18.5630811,27.4467891 16.999697,29.090444 16.359,31.15 C14.455,30.83 14.443,28.6 16.781,27.45 C26.452,22.72 26.481,21.23 29.681,16.01 L29.6849694,16.0131293 Z M32.8886244,1.8671273 C33.0304233,1.48002264 33.2559878,1.12458874 33.5538753,0.828266342 C34.0893788,0.295576343 34.8146743,-0.00239027405 35.57,-3.41106587e-13 C36.724121,8.59040983e-06 37.7643882,0.695828655 38.2050166,1.76252543 C38.6456449,2.8292222 38.3997025,4.05634638 37.5820398,4.87085426 C37.3966102,5.05556847 37.1900738,5.21079773 36.9691194,5.33522837 C36.9797769,5.36006762 36.9902794,5.38500459 37.0006255,5.41003836 C37.9311281,7.66151801 37.412676,10.2518812 35.6873123,11.9717985 C33.9619485,13.6917159 31.3699591,14.2019755 29.1214327,13.2643592 C26.8729062,12.3267429 25.4113098,10.1261725 25.419,7.69 C25.4305665,4.3736778 28.1216578,1.69108142 31.438,1.69 C31.9344076,1.69000247 32.4208402,1.75097837 32.8886244,1.8671273 Z M17.21,38.67 C16.908,40.33 15.643,40.78 14.286,40.86 L14.286,40.82 C13.6309672,35.9803251 11.1316777,31.5807731 7.31,28.54 C11.843,27.28 17.691,36.03 17.21,38.67 Z M33.64,38.4 L33.636,38.4 C33.4236759,38.1976725 33.295477,37.9227055 33.277,37.63 C33.8159615,37.2534651 34.3353069,36.849604 34.833,36.42 C35.0029511,36.4797085 35.1581106,36.5751913 35.288,36.7 L40.728,41.96 C41.0758929,42.2966526 41.1844814,42.8108441 41.0024143,43.2594152 C40.8203472,43.7079863 40.3841109,44.0010431 39.9,44 L17.035,44 C16.3777811,44 15.845,43.4672189 15.845,42.81 C15.845,42.1527811 16.3777811,41.62 17.035,41.62 L36.969,41.62 L33.64,38.4 Z M23.874,35.54 L23.871,35.54 C22.106,36.15 21.112,37.41 21.337,38.75 C21.344,38.8 21.356,38.85 21.368,38.9 C18.504946,38.0852917 16.692097,35.2713446 17.1338068,32.3275851 C17.5755165,29.3838256 20.1343994,27.2258548 23.1104793,27.2873057 C26.0865591,27.3487567 28.5541822,29.6105162 28.874,32.57 C27.432228,33.8972326 25.7292251,34.9088164 23.874,35.54 Z M13.275,40.91 L13.272,40.91 L13.272,44 L0.006,44 L0.006,27.44 C2.677,27.27 3.895,27.2 6.449,29.14 C10.1840364,32.0126495 12.636548,36.2414895 13.275,40.91 Z" id="シェイプ_1"></path>
        </g>
    </g>
</svg>