<svg xmlns="http://www.w3.org/2000/svg" xmlns:xlink="http://www.w3.org/1999/xlink" width="120" height="50" viewBox="0 0 120 50">
  <defs>
    <style>
      .cls-1 {
        fill-rule: evenodd;
        filter: url(#filter);
      }
    </style>
    <filter id="filter" x="894" y="2722" width="120" height="50" filterUnits="userSpaceOnUse">
      <feFlood result="flood" flood-color="#7c7c7c"/>
      <feComposite result="composite" operator="in" in2="SourceGraphic"/>
      <feBlend result="blend" in2="SourceGraphic"/>
    </filter>
  </defs>
  <path id="icon_dhs.svg" class="cls-1" d="M1008.27,2772a5.816,5.816,0,1,1,5.73-5.81A5.773,5.773,0,0,1,1008.27,2772Zm0-11.18a5.38,5.38,0,1,0,5.31,5.37A5.344,5.344,0,0,0,1008.27,2760.82Zm1.83,9.21a3.332,3.332,0,0,1-.23-1.63c-0.03-1.2-.3-1.56-1.18-1.56h-2v3.19h-1.15v-7.68h3.3a2.048,2.048,0,0,1,2.32,2.12,1.716,1.716,0,0,1-1.17,1.77c0.69,0.22,1,.47,1.03,2.02,0.02,1.34.21,1.5,0.53,1.77h-1.45Zm-1.23-6.62h-2.18v2.38h2.17a1.167,1.167,0,0,0,1.15-1.24A1.054,1.054,0,0,0,1008.87,2763.41ZM894,2722.56h15.035a17.7,17.7,0,0,1,7.182,1.23,11.6,11.6,0,0,1,4.525,3.51,14.689,14.689,0,0,1,2.591,5.32,25.2,25.2,0,0,1,.8,6.44,22.611,22.611,0,0,1-1.195,8.26,13.633,13.633,0,0,1-3.318,4.92,10.813,10.813,0,0,1-4.558,2.64,22.943,22.943,0,0,1-6.031.91H894v-33.23Zm10.12,7.53v18.15h2.48a10.392,10.392,0,0,0,4.512-.71,4.85,4.85,0,0,0,2.1-2.49,15.87,15.87,0,0,0,.76-5.77q0-5.28-1.7-7.23t-5.63-1.95h-2.524Zm27.826-7.53H942.07v11.63h11.058v-11.63h10.166v33.23H953.128v-13.44H942.07v13.44H931.949v-33.23ZM970.7,2744.8l9.629-.61a7.524,7.524,0,0,0,1.274,3.62,5.308,5.308,0,0,0,4.468,2.02,4.887,4.887,0,0,0,3.34-1.03,3.117,3.117,0,0,0,1.173-2.39,3.072,3.072,0,0,0-1.117-2.32q-1.119-1.02-5.183-1.92-6.657-1.515-9.5-4.04a8.142,8.142,0,0,1-2.86-6.41,8.8,8.8,0,0,1,1.463-4.84,9.739,9.739,0,0,1,4.4-3.58,20.268,20.268,0,0,1,8.054-1.3c4.184,0,7.375.78,9.573,2.36s3.5,4.09,3.921,7.54l-9.54.57a5.238,5.238,0,0,0-1.6-3.27,5.082,5.082,0,0,0-3.363-1.02,4.047,4.047,0,0,0-2.658.76,2.343,2.343,0,0,0-.894,1.85,1.87,1.87,0,0,0,.737,1.43,8.246,8.246,0,0,0,3.4,1.22,42.137,42.137,0,0,1,9.507,2.94,10.02,10.02,0,0,1,4.177,3.68,9.406,9.406,0,0,1,1.3,4.92,10.634,10.634,0,0,1-1.738,5.89,10.94,10.94,0,0,1-4.87,4.09,19.415,19.415,0,0,1-7.887,1.4q-8.355,0-11.572-3.27A12.94,12.94,0,0,1,970.7,2744.8Zm-76.691,13.99h2.233a14.031,14.031,0,0,1,2.924.2,2.183,2.183,0,0,1,1.157.66,2.118,2.118,0,0,1,.5,1.03,15.721,15.721,0,0,1,.1,2.21v4.08a9.818,9.818,0,0,1-.144,2.1,1.575,1.575,0,0,1-.508.82,2.1,2.1,0,0,1-.893.42,7.876,7.876,0,0,1-1.6.12H894.01v-11.64Zm2.984,1.99v7.66a0.86,0.86,0,0,0,.794-0.27,3.864,3.864,0,0,0,.148-1.42v-4.52a6.4,6.4,0,0,0-.049-1.02,0.485,0.485,0,0,0-.227-0.33A1.459,1.459,0,0,0,896.994,2760.78Zm11.438,5.05h-3.706v2.06a2.27,2.27,0,0,0,.092.83,0.352,0.352,0,0,0,.354.19,0.423,0.423,0,0,0,.436-0.25,2.691,2.691,0,0,0,.11-0.96v-1.25h2.714v0.7a6.379,6.379,0,0,1-.11,1.36,2.731,2.731,0,0,1-.514,1.01,2.492,2.492,0,0,1-1.023.81,3.912,3.912,0,0,1-1.556.27,4.621,4.621,0,0,1-1.6-.26,2.583,2.583,0,0,1-1.081-.73,2.651,2.651,0,0,1-.536-1.03,6.679,6.679,0,0,1-.148-1.62v-2.78a4.789,4.789,0,0,1,.333-1.97,2.327,2.327,0,0,1,1.092-1.11,3.755,3.755,0,0,1,1.743-.38,3.849,3.849,0,0,1,1.988.46,2.543,2.543,0,0,1,1.1,1.23,5.843,5.843,0,0,1,.315,2.15v1.27Zm-2.869-1.55v-0.7a3.488,3.488,0,0,0-.079-0.96,0.307,0.307,0,0,0-.319-0.21,0.348,0.348,0,0,0-.368.18,3.866,3.866,0,0,0-.071.99v0.7h0.837Zm10.289,1.55h-3.706v2.06a2.27,2.27,0,0,0,.092.83,0.351,0.351,0,0,0,.354.19,0.423,0.423,0,0,0,.436-0.25,2.691,2.691,0,0,0,.11-0.96v-1.25h2.714v0.7a6.379,6.379,0,0,1-.11,1.36,2.731,2.731,0,0,1-.514,1.01,2.505,2.505,0,0,1-1.023.81,3.915,3.915,0,0,1-1.556.27,4.625,4.625,0,0,1-1.6-.26,2.583,2.583,0,0,1-1.081-.73,2.651,2.651,0,0,1-.536-1.03,6.679,6.679,0,0,1-.148-1.62v-2.78a4.789,4.789,0,0,1,.333-1.97,2.329,2.329,0,0,1,1.091-1.11,3.759,3.759,0,0,1,1.744-.38,3.843,3.843,0,0,1,1.987.46,2.545,2.545,0,0,1,1.1,1.23,5.843,5.843,0,0,1,.315,2.15v1.27Zm-2.869-1.55v-0.7a3.488,3.488,0,0,0-.079-0.96,0.306,0.306,0,0,0-.318-0.21,0.349,0.349,0,0,0-.369.18,3.817,3.817,0,0,0-.071.99v0.7h0.837Zm6.717-3.39-0.049.84a2.682,2.682,0,0,1,.844-0.76,2.035,2.035,0,0,1,1.006-.25,1.879,1.879,0,0,1,1.151.36,1.513,1.513,0,0,1,.606.84,7.291,7.291,0,0,1,.121,1.61v4.02a7.88,7.88,0,0,1-.152,1.85,1.517,1.517,0,0,1-.625.87,1.929,1.929,0,0,1-1.137.33,1.963,1.963,0,0,1-.984-0.25,2.728,2.728,0,0,1-.83-0.75v2.19h-2.863v-10.9H919.7Zm0.816,2.77a4.9,4.9,0,0,0-.064-1.07,0.328,0.328,0,0,0-.355-0.18,0.345,0.345,0,0,0-.364.21,3.834,3.834,0,0,0-.082,1.04v3.96a4.019,4.019,0,0,0,.085,1.08,0.354,0.354,0,0,0,.369.21,0.308,0.308,0,0,0,.343-0.2,3.951,3.951,0,0,0,.068-0.96v-4.09Zm13.308-4.87v11.64H930.84v-4.89h-0.892v4.89h-2.985v-11.64h2.985v4.16h0.892v-4.16h2.984Zm7.6,7.04h-3.707v2.06a2.263,2.263,0,0,0,.093.83,0.351,0.351,0,0,0,.354.19,0.423,0.423,0,0,0,.436-0.25,2.715,2.715,0,0,0,.11-0.96v-1.25h2.714v0.7a6.379,6.379,0,0,1-.11,1.36,2.746,2.746,0,0,1-.514,1.01,2.505,2.505,0,0,1-1.023.81,3.915,3.915,0,0,1-1.556.27,4.631,4.631,0,0,1-1.6-.26,2.58,2.58,0,0,1-1.08-.73,2.638,2.638,0,0,1-.536-1.03,6.679,6.679,0,0,1-.148-1.62v-2.78a4.789,4.789,0,0,1,.333-1.97,2.329,2.329,0,0,1,1.091-1.11,3.759,3.759,0,0,1,1.744-.38,3.845,3.845,0,0,1,1.987.46,2.545,2.545,0,0,1,1.1,1.23,5.843,5.843,0,0,1,.315,2.15v1.27Zm-2.87-1.55v-0.7a3.545,3.545,0,0,0-.078-0.96,0.307,0.307,0,0,0-.319-0.21,0.346,0.346,0,0,0-.368.18,3.8,3.8,0,0,0-.072.99v0.7h0.837Zm6.364,0.3h-2.686v-0.64a4.55,4.55,0,0,1,.252-1.7,2.314,2.314,0,0,1,1.009-1.06,3.73,3.73,0,0,1,1.971-.46,3.77,3.77,0,0,1,2.189.52,2,2,0,0,1,.886,1.28,20.217,20.217,0,0,1,.149,3.12v4.79H945.9v-0.85a1.88,1.88,0,0,1-.677.77,1.847,1.847,0,0,1-.988.25,2.363,2.363,0,0,1-1.379-.43,2.16,2.16,0,0,1-.627-1.87v-0.78a2.309,2.309,0,0,1,.334-1.46,4.72,4.72,0,0,1,1.651-.91,4.643,4.643,0,0,0,1.509-.75,2.067,2.067,0,0,0,.1-0.79,2.719,2.719,0,0,0-.109-0.98,0.372,0.372,0,0,0-.365-0.22,0.333,0.333,0,0,0-.361.19,3.772,3.772,0,0,0-.071.98v1Zm0.906,1.31a2.14,2.14,0,0,0-.8.86,3.406,3.406,0,0,0-.11.99,3.031,3.031,0,0,0,.1.96,0.377,0.377,0,0,0,.379.21,0.341,0.341,0,0,0,.352-0.17,2.8,2.8,0,0,0,.08-0.89v-1.96Zm6.868-6.28v1.51h0.772v1.51h-0.772v5.1a2.785,2.785,0,0,0,.1,1.05,1.533,1.533,0,0,0,.8.11v1.54h-1.155a8.8,8.8,0,0,1-1.4-.08,1.6,1.6,0,0,1-.738-0.38,1.282,1.282,0,0,1-.4-0.69,12.236,12.236,0,0,1-.078-1.81v-4.84H949.2v-1.51h0.617v-1.51h2.87Zm10.368,2.7h-2.771v-0.86a1.725,1.725,0,0,0-.106-0.77,0.393,0.393,0,0,0-.354-0.17,0.453,0.453,0,0,0-.408.23,1.294,1.294,0,0,0-.138.67,1.951,1.951,0,0,0,.156.88,2.249,2.249,0,0,0,.842.71,8.574,8.574,0,0,1,2.51,1.97,4.558,4.558,0,0,1,.518,2.48,4.449,4.449,0,0,1-.288,1.84,2.237,2.237,0,0,1-1.109.98,4.28,4.28,0,0,1-1.914.4,4.185,4.185,0,0,1-2.043-.46,2.2,2.2,0,0,1-1.11-1.17,6.1,6.1,0,0,1-.262-2.02v-0.76h2.77v1.42a1.912,1.912,0,0,0,.118.84,0.455,0.455,0,0,0,.414.18,0.5,0.5,0,0,0,.443-0.23,1.4,1.4,0,0,0,.146-0.71,2.2,2.2,0,0,0-.277-1.34,8.614,8.614,0,0,0-1.4-1.06,15.2,15.2,0,0,1-1.473-1.08,2.612,2.612,0,0,1-.6-0.94,4.188,4.188,0,0,1-.237-1.52,4.28,4.28,0,0,1,.336-1.96,2.334,2.334,0,0,1,1.088-.97,4.323,4.323,0,0,1,1.815-.35,4.731,4.731,0,0,1,1.98.38,2.139,2.139,0,0,1,1.085.96,5.21,5.21,0,0,1,.265,1.97v0.46Zm7.092-1.42-0.817,6.9c-0.13,1.09-.239,1.84-0.325,2.24a2.452,2.452,0,0,1-.436.98,1.741,1.741,0,0,1-.847.57,5.6,5.6,0,0,1-1.734.19h-1.735v-1.53a3.064,3.064,0,0,0,.86-0.07,0.277,0.277,0,0,0,.191-0.3c0-.08-0.059-0.41-0.177-1l-1.568-7.98h2.6l0.941,6.44,0.458-6.44h2.59Zm6.359,3.05h-2.536v-0.52a2.81,2.81,0,0,0-.075-0.84,0.351,0.351,0,0,0-.372-0.17,0.414,0.414,0,0,0-.361.16,0.8,0.8,0,0,0-.12.48,2.585,2.585,0,0,0,.06.65,1.078,1.078,0,0,0,.36.45,8.014,8.014,0,0,0,1.238.71,4.556,4.556,0,0,1,1.637,1.16,2.754,2.754,0,0,1,.389,1.59,4.074,4.074,0,0,1-.3,1.76,1.992,1.992,0,0,1-1,.91,4.063,4.063,0,0,1-1.682.32,4.584,4.584,0,0,1-1.868-.34,2.071,2.071,0,0,1-1.066-.94,4.189,4.189,0,0,1-.291-1.78v-0.46h2.538v0.6a3.138,3.138,0,0,0,.1,1,0.36,0.36,0,0,0,.378.23,0.517,0.517,0,0,0,.425-0.15,1.177,1.177,0,0,0,.121-0.65,1.485,1.485,0,0,0-.155-0.86,14.631,14.631,0,0,0-1.667-1.02,3.646,3.646,0,0,1-1.537-1.31,3.221,3.221,0,0,1-.277-1.39,3.64,3.64,0,0,1,.3-1.68,1.972,1.972,0,0,1,1.011-.84,4.24,4.24,0,0,1,1.655-.29,4.64,4.64,0,0,1,1.59.24,2.478,2.478,0,0,1,1.008.63,1.755,1.755,0,0,1,.425.74,5.348,5.348,0,0,1,.073,1.05v0.56Zm4-4.33v1.51h0.772v1.51h-0.772v5.1a2.8,2.8,0,0,0,.1,1.05,1.54,1.54,0,0,0,.8.11v1.54H980.25a8.825,8.825,0,0,1-1.4-.08,1.609,1.609,0,0,1-.737-0.38,1.276,1.276,0,0,1-.4-0.69,12.035,12.035,0,0,1-.079-1.81v-4.84h-0.616v-1.51h0.616v-1.51h2.871Zm7.888,6.22h-3.706v2.06a2.27,2.27,0,0,0,.092.83,0.351,0.351,0,0,0,.354.19,0.424,0.424,0,0,0,.436-0.25,2.715,2.715,0,0,0,.11-0.96v-1.25H988.4v0.7a6.379,6.379,0,0,1-.11,1.36,2.731,2.731,0,0,1-.514,1.01,2.5,2.5,0,0,1-1.024.81,3.906,3.906,0,0,1-1.555.27,4.631,4.631,0,0,1-1.6-.26,2.59,2.59,0,0,1-1.081-.73,2.649,2.649,0,0,1-.535-1.03,6.679,6.679,0,0,1-.148-1.62v-2.78a4.789,4.789,0,0,1,.333-1.97,2.329,2.329,0,0,1,1.091-1.11,3.759,3.759,0,0,1,1.744-.38,3.845,3.845,0,0,1,1.987.46,2.545,2.545,0,0,1,1.1,1.23,5.843,5.843,0,0,1,.315,2.15v1.27Zm-2.87-1.55v-0.7a3.545,3.545,0,0,0-.078-0.96,0.308,0.308,0,0,0-.319-0.21,0.347,0.347,0,0,0-.368.18,3.817,3.817,0,0,0-.071.99v0.7h0.836Zm6.634-3.39-0.051.91a2.345,2.345,0,0,1,.794-0.81,2.089,2.089,0,0,1,2.857.81,2.6,2.6,0,0,1,.814-0.81,2.113,2.113,0,0,1,2.214.09,1.539,1.539,0,0,1,.614.88,7.44,7.44,0,0,1,.134,1.69v6.78h-2.777v-6.22a7.914,7.914,0,0,0-.082-1.51,0.354,0.354,0,0,0-.378-0.29,0.37,0.37,0,0,0-.394.28,7.253,7.253,0,0,0-.089,1.52v6.22h-2.777v-6.06a11.192,11.192,0,0,0-.068-1.68,0.339,0.339,0,0,0-.372-0.28,0.411,0.411,0,0,0-.326.14,0.585,0.585,0,0,0-.15.36q-0.013.21-.014,0.9v6.62h-2.777v-9.54h2.828Z" transform="translate(-894 -2722)"/>
</svg>
