<svg xmlns="http://www.w3.org/2000/svg" width="140" height="50" viewBox="0 0 140 50">
  <defs>
    <style>
      .cls-1 {
        fill-rule: evenodd;
      }
    </style>
  </defs>
  <path id="icon_pico_connna.svg" class="cls-1" d="M963.6,2664.17l-0.13.05-0.159.06-4.746,2.27-0.223.18-0.055.19,0.062,0.27,0.182,0.1c0.258,0.08.529,0.14,0.818,0.2s0.548,0.14.794,0.21a1.486,1.486,0,0,1,.614.4,0.925,0.925,0,0,1,.245.7v10.79a2.156,2.156,0,0,1-.333,1.29,1.79,1.79,0,0,1-.785.63,2.817,2.817,0,0,1-.89.27,2.637,2.637,0,0,0-.687.18l-0.187.26a0.268,0.268,0,0,0,.187.31h8.3a0.27,0.27,0,0,0,.187-0.31l-0.187-.26a2.626,2.626,0,0,0-.687-0.18,2.8,2.8,0,0,1-.9-0.27,1.814,1.814,0,0,1-.781-0.63,2.12,2.12,0,0,1-.336-1.29v-10.11l0.181-.31,0.306-.23c0.795-.37,1.456-0.68,1.967-0.91,0.528-.23.956-0.4,1.281-0.51a3.837,3.837,0,0,1,.77-0.22,3.246,3.246,0,0,1,.467-0.05,2.765,2.765,0,0,1,1.749.51,3.185,3.185,0,0,1,.961,1.27,5.956,5.956,0,0,1,.408,1.73,18.6,18.6,0,0,1,.082,1.88c0,0.79.007,1.5,0.016,2.15s0.024,1.25.024,1.81c0,0.58-.009,1.09-0.026,1.55a11.49,11.49,0,0,1-.128,1.29,2.454,2.454,0,0,1-.32,1.38,1.986,1.986,0,0,1-.769.68,2.627,2.627,0,0,1-.894.28,2.607,2.607,0,0,0-.691.18l-0.183.26a0.263,0.263,0,0,0,.183.31h8.972a0.27,0.27,0,0,0,.188-0.31l-0.188-.26a1.814,1.814,0,0,0-.477-0.12c-0.2-.03-0.433-0.07-0.675-0.13a7.633,7.633,0,0,1-.768-0.2,2.123,2.123,0,0,1-.711-0.36,1.838,1.838,0,0,1-.535-0.62,1.953,1.953,0,0,1-.2-0.94v-1.08c0-1.06.024-2.01,0.087-2.9,0.05-.86.077-1.74,0.077-2.6,0-.46-0.017-0.98-0.054-1.55s-0.106-1.15-.2-1.74a11.77,11.77,0,0,0-.434-1.7,5.9,5.9,0,0,0-.749-1.48,3.661,3.661,0,0,0-1.127-1.05,2.976,2.976,0,0,0-1.577-.39,4.8,4.8,0,0,0-.546.02,3.8,3.8,0,0,0-.6.09c-0.216.07-.482,0.14-0.774,0.25s-0.648.26-1.068,0.45-0.924.42-1.506,0.71-1.27.63-2.069,1.05l-0.163.06-0.134.02-0.152-.2v-2.92c0-.31-0.1-0.46-0.3-0.46m-22.592,0-0.111.05-0.162.06-4.748,2.27-0.228.18-0.051.19,0.063,0.27,0.175,0.1c0.265,0.08.533,0.14,0.821,0.2s0.552,0.14.8,0.21a1.6,1.6,0,0,1,.612.4,0.945,0.945,0,0,1,.246.7v10.79a2.093,2.093,0,0,1-.339,1.29,1.848,1.848,0,0,1-.776.63,2.838,2.838,0,0,1-.9.27,2.55,2.55,0,0,0-.687.18l-0.186.26a0.264,0.264,0,0,0,.186.31h8.3a0.268,0.268,0,0,0,.188-0.31l-0.188-.26a2.608,2.608,0,0,0-.685-0.18,2.735,2.735,0,0,1-.9-0.27,1.915,1.915,0,0,1-.788-0.63,2.163,2.163,0,0,1-.334-1.29v-10.11l0.185-.31,0.3-.23c0.8-.37,1.447-0.68,1.971-0.91s0.948-.4,1.279-0.51a3.783,3.783,0,0,1,.77-0.22,3.158,3.158,0,0,1,.463-0.05,2.773,2.773,0,0,1,1.753.51,3.158,3.158,0,0,1,.961,1.27,6.056,6.056,0,0,1,.413,1.73c0.052,0.63.079,1.26,0.079,1.88,0,0.79.01,1.5,0.023,2.15s0.017,1.25.017,1.81c0,0.58-.01,1.09-0.025,1.55a11.26,11.26,0,0,1-.128,1.29,2.477,2.477,0,0,1-.324,1.38,1.969,1.969,0,0,1-.768.68,2.671,2.671,0,0,1-.9.28,2.642,2.642,0,0,0-.69.18l-0.19.26a0.27,0.27,0,0,0,.19.31h8.975a0.268,0.268,0,0,0,.182-0.31l-0.182-.26a2.018,2.018,0,0,0-.472-0.12c-0.211-.03-0.439-0.07-0.687-0.13s-0.5-.12-0.762-0.2a2.132,2.132,0,0,1-.715-0.36,1.878,1.878,0,0,1-.533-0.62,1.988,1.988,0,0,1-.2-0.94v-1.08c0-1.06.029-2.01,0.082-2.9,0.056-.86.09-1.74,0.09-2.6,0-.46-0.02-0.98-0.059-1.55a16.716,16.716,0,0,0-.2-1.74,10.633,10.633,0,0,0-.445-1.7,5.72,5.72,0,0,0-.737-1.48,3.6,3.6,0,0,0-1.125-1.05,3.01,3.01,0,0,0-1.585-.39,4.776,4.776,0,0,0-.54.02,3.87,3.87,0,0,0-.6.09c-0.226.07-.479,0.14-0.771,0.25s-0.651.26-1.074,0.45-0.925.42-1.506,0.71-1.269.63-2.063,1.05l-0.16.06-0.14.02-0.152-.2v-2.92c0-.31-0.1-0.46-0.315-0.46m-15.133,17.84a4.9,4.9,0,0,1-2.941-.87,7.047,7.047,0,0,1-2.022-2.23,10.855,10.855,0,0,1-1.164-3.01,14.141,14.141,0,0,1-.384-3.21,8.824,8.824,0,0,1,.3-2.26,6.837,6.837,0,0,1,.911-2.08,5.162,5.162,0,0,1,1.542-1.51,4.013,4.013,0,0,1,2.178-.58,4.6,4.6,0,0,1,1.965.43,5.912,5.912,0,0,1,1.644,1.13,8.306,8.306,0,0,1,1.29,1.65,12.008,12.008,0,0,1,.944,1.95,13.354,13.354,0,0,1,.569,2.07,10.122,10.122,0,0,1,.2,1.97,9.893,9.893,0,0,1-.288,2.33,6.85,6.85,0,0,1-.9,2.1,5,5,0,0,1-1.564,1.53,4.163,4.163,0,0,1-2.276.59m-0.9-16.96a7.811,7.811,0,0,0-3.332.73,9.122,9.122,0,0,0-2.778,1.95,9.24,9.24,0,0,0-1.892,2.81,8.135,8.135,0,0,0-.7,3.33,9.753,9.753,0,0,0,.654,3.6,9.116,9.116,0,0,0,1.845,2.9,8.641,8.641,0,0,0,6.369,2.66,9.162,9.162,0,0,0,3.594-.69,8.746,8.746,0,0,0,2.834-1.92,8.649,8.649,0,0,0,1.86-2.87,9.49,9.49,0,0,0,.672-3.6,8.5,8.5,0,0,0-.729-3.51,9.421,9.421,0,0,0-1.994-2.83,9.322,9.322,0,0,0-6.407-2.56m60.642,14.61a3.486,3.486,0,0,1-2.926-1.61,8.82,8.82,0,0,1-1.217-5.03,6.145,6.145,0,0,1,1.666-4.61,5.479,5.479,0,0,1,3.839-1.75h0.076a3.432,3.432,0,0,1,2.3.78,3.01,3.01,0,0,1,.969,2.35l0.1,6.86-0.026.04a7.147,7.147,0,0,1-2.166,2.12,4.937,4.937,0,0,1-2.565.85h-0.053m10.131-14.29a3.986,3.986,0,0,0-1.856.67,8.434,8.434,0,0,0-1.8,1.35l-0.1.11-0.11-.11a7.629,7.629,0,0,0-5.015-1.65H986.7a9.125,9.125,0,0,0-4.186,1.07,8.211,8.211,0,0,0-3.2,3.1,9.332,9.332,0,0,0-1.186,5.02c0.339,4.68,2.079,6.97,5.311,6.97h0.125a7.976,7.976,0,0,0,3.954-1.14,7.078,7.078,0,0,0,2.652-2.37l0.144-.25,0.122,0.27c0.991,2.19,2.329,3.3,4,3.3h0.055a7.745,7.745,0,0,0,4.661-2.18,33.268,33.268,0,0,0,7.459-9.42,2.409,2.409,0,0,0,.21-0.88l-0.13-.34c-0.11.01-.43,0.13-1.03,1.35a23.331,23.331,0,0,1-2.49,3.91,29.239,29.239,0,0,1-3.735,4.21c-1.318,1.21-2.378,1.79-3.261,1.81-0.972,0-1.994-.95-2.414-3.23a12.93,12.93,0,0,1,.98-8.8,5.584,5.584,0,0,1,1.076-1.43,1.609,1.609,0,0,0,.59-0.81,0.7,0.7,0,0,0-.266-0.43,0.606,0.606,0,0,0-.39-0.1M885.6,2683.71a8.768,8.768,0,0,1-2.86-.42c-0.84-.3-1.166-0.66-1.166-1.08v-0.02a0.756,0.756,0,0,1,.447-0.72,3.573,3.573,0,0,1,1.576-.31h0.1a13.3,13.3,0,0,1,2.259.26,14.022,14.022,0,0,1,2.477.74,6.3,6.3,0,0,1,1.269.69,8,8,0,0,1-3.91.86H885.6m10.229-31.61a17.894,17.894,0,0,0-7.364,1.61,15.924,15.924,0,0,0-6.111,4.97,10.4,10.4,0,0,0-2.357,6.44v0.13a9.308,9.308,0,0,0,.549,3.01,5.157,5.157,0,0,0,2.363,2.74,7.156,7.156,0,0,0,3.544.9h0.109a7.314,7.314,0,0,0,3.2-.78,5.552,5.552,0,0,0,2.311-2.19l-0.317-.29a6.924,6.924,0,0,1-3.781,1.47h-0.056a3.362,3.362,0,0,1-3.033-1.76,8.474,8.474,0,0,1-1.173-4.43l0-.15a11.271,11.271,0,0,1,.459-3.18,7.745,7.745,0,0,1,1.368-2.77,11.721,11.721,0,0,1,3.87-3.06,11.112,11.112,0,0,1,4.835-1.18h0.13a17.527,17.527,0,0,1,6.973,1.75c2.9,1.43,6.191,4.1,7.481,6.83h0.007a17.838,17.838,0,0,1,1.8,7.8v0.31a19.382,19.382,0,0,1-1.113,6.61,10.155,10.155,0,0,1-3.824,4.03,15.193,15.193,0,0,1-7.994,2.54h-0.132a8.431,8.431,0,0,1-3.884-1.05,11.521,11.521,0,0,0,3.948-4.31,12.046,12.046,0,0,0,1.148-5.29l-0.006-.23a44.437,44.437,0,0,0-.5-4.98,43.644,43.644,0,0,1-.5-4.6v-0.2a9.144,9.144,0,0,1,1.655-5.59l0.125-.15-0.547-.53-0.143-.14-0.15.13a13.107,13.107,0,0,0-3.793,5.21,16.244,16.244,0,0,0-.983,5.77v0.3c0.006,0.58.088,1.74,0.233,3.49s0.236,3,.249,3.74v0.24a11.73,11.73,0,0,1-.519,3.63,6.873,6.873,0,0,1-1.869,2.9,17.132,17.132,0,0,0-3.762-1.39,14.987,14.987,0,0,0-3.578-.46l-0.191.01a7.792,7.792,0,0,0-2.81.47,1.945,1.945,0,0,0-1.337,1.35h-0.006v0.01a2.007,2.007,0,0,0-.048.51v0.06a2.211,2.211,0,0,0,1.52,2.05,8.318,8.318,0,0,0,3.413.6h0.219a16.57,16.57,0,0,0,5.86-1.09,19.128,19.128,0,0,0,5.392.88h0.435c7.44,0,11.568-2.84,13.777-6.33a19.283,19.283,0,0,0,2.548-10.2c0-6.78-4.017-11.22-9.089-13.99a18.258,18.258,0,0,0-8.541-2.17M928.9,2635h-0.169a12.841,12.841,0,0,0-5.348,1.34,12.529,12.529,0,0,0-4.4,3.47,7.079,7.079,0,0,0-1.687,4.49v0.09a6.441,6.441,0,0,0,.759,2.92,2.828,2.828,0,0,0,1.275,1.09,4.437,4.437,0,0,0,2.06.49h0.089a6.009,6.009,0,0,0,3.564-1.38l0.046-.03,0-.33,0-.15-0.144.04a7.052,7.052,0,0,1-2.227.46h-0.076a2.913,2.913,0,0,1-2.349-.94,3.9,3.9,0,0,1-.869-2.53v-0.09a7.683,7.683,0,0,1,.658-2.96,9.05,9.05,0,0,1,1.991-2.91,7.668,7.668,0,0,1,3.054-1.86,7.15,7.15,0,0,1,2.068-.33H927.3a7.641,7.641,0,0,1,2.917.58,5.452,5.452,0,0,1,2.383,1.83,4.936,4.936,0,0,1,.921,2.93,6.679,6.679,0,0,1-.559,2.53,4.2,4.2,0,0,1-1.155,1.54,5.933,5.933,0,0,1-1.506.91c-0.494.2-.865,0.34-1.15,0.46-0.054-.28-0.155-0.73-0.32-1.39-0.181-.76-0.323-1.4-0.422-1.9a10.545,10.545,0,0,1-.169-1.72v-0.12a8.351,8.351,0,0,1,1.058-4.05l0.04-.07-0.336-.33-0.075-.08-0.08.08a9.624,9.624,0,0,0-2.05,3.52,12.142,12.142,0,0,0-.554,3.62v0.21a26.8,26.8,0,0,0,.554,4.37v0.01a12.469,12.469,0,0,1,.33,2.62v0.16a6.264,6.264,0,0,1-.634,3.01,4.238,4.238,0,0,1-1.726,1.75,5.131,5.131,0,0,1-2.227.57h-0.1a4.964,4.964,0,0,1-2.293-.53,1.553,1.553,0,0,1-1-1.27v-0.01a1.536,1.536,0,0,1,.791-1.17,1.353,1.353,0,0,0,.715-0.85v-0.01a0.394,0.394,0,0,0-.291-0.35,2.517,2.517,0,0,0-.7-0.09h-0.081a2.36,2.36,0,0,0-1.587.51,1.522,1.522,0,0,0-.539,1.2v0.04a2.843,2.843,0,0,0,.582,1.59,4.394,4.394,0,0,0,1.623,1.33,4.926,4.926,0,0,0,2.277.51h0.1l0.168-.03H922.4a7.381,7.381,0,0,0,4.046-1.37,7.1,7.1,0,0,0,2.387-3.2,11.123,11.123,0,0,0,.735-4.11v-0.21c-0.009-.43-0.044-0.92-0.106-1.46a10.461,10.461,0,0,0,3.256-1.43,8.145,8.145,0,0,0,2.366-2.38,5.219,5.219,0,0,0,.855-2.82l0-.06a5.264,5.264,0,0,0-1.454-3.48A7.086,7.086,0,0,0,928.9,2635m11.176,8.78-0.088.03-0.113.05-3.437,1.63-0.158.14-0.039.14,0.042,0.19,0.13,0.08a5.46,5.46,0,0,0,.593.14,4.8,4.8,0,0,1,.579.15,1.115,1.115,0,0,1,.442.29,0.671,0.671,0,0,1,.174.5v7.2a1.423,1.423,0,0,1-.236.9,1.529,1.529,0,0,1-.568.45,2.236,2.236,0,0,1-.649.18,2.474,2.474,0,0,0-.5.13l-0.135.18,0.135,0.22h6l0.135-.22-0.135-.18a2.533,2.533,0,0,0-.491-0.13,2.271,2.271,0,0,1-.656-0.18,1.484,1.484,0,0,1-.558-0.45,1.409,1.409,0,0,1-.245-0.9V2644.1c0-.21-0.073-0.32-0.227-0.32m10.967-.02a9.447,9.447,0,0,0-2.687.36,5.31,5.31,0,0,0-2.141,1.21,5.642,5.642,0,0,0-1.422,2.23,10.3,10.3,0,0,0-.523,3.45,6.456,6.456,0,0,0,.366,2.16,5.516,5.516,0,0,0,1.041,1.83,5.214,5.214,0,0,0,1.627,1.27,4.638,4.638,0,0,0,2.122.48,5.639,5.639,0,0,0,2.919-.77,7.559,7.559,0,0,0,2.258-2.13l0.074-.14,0.007-.15-0.1-.19-0.213-.08-0.155.13-0.284.32-0.379.39-0.418.37a4.6,4.6,0,0,1-1.024.53,3.241,3.241,0,0,1-1.158.21,4.167,4.167,0,0,1-2.013-.44,3.755,3.755,0,0,1-1.363-1.19,4.824,4.824,0,0,1-.76-1.71,8.482,8.482,0,0,1-.232-2.03,6.186,6.186,0,0,1,.1-1.12,6.549,6.549,0,0,1,.313-1.18,7.6,7.6,0,0,1,.527-1.12,4,4,0,0,1,.742-0.93,3.492,3.492,0,0,1,.96-0.65,2.821,2.821,0,0,1,1.177-.23,1.5,1.5,0,0,1,.607.12,2.693,2.693,0,0,1,.494.33c0.155,0.13.3,0.26,0.438,0.4a3.3,3.3,0,0,0,.442.42,1.811,1.811,0,0,0,.483.32,1.324,1.324,0,0,0,.607.14,1.388,1.388,0,0,0,.77-0.22,0.837,0.837,0,0,0,.318-0.73l-0.063-.26-0.128-.25a1.825,1.825,0,0,0-.622-0.66,2.541,2.541,0,0,0-.846-0.34,4.917,4.917,0,0,0-.947-0.12c-0.329-.02-0.637-0.03-0.917-0.03m-11.96-6.5a1.542,1.542,0,0,0-1.029.36,1.291,1.291,0,0,0-.4.99,1.222,1.222,0,0,0,.428,1,1.569,1.569,0,0,0,1.028.35,1.114,1.114,0,0,0,.472-0.11,1.14,1.14,0,0,0,.394-0.3,1.612,1.612,0,0,0,.268-0.43,1.274,1.274,0,0,0,0-.99,1.793,1.793,0,0,0-.275-0.43,1.263,1.263,0,0,0-.4-0.31,0.94,0.94,0,0,0-.48-0.13m24.491,18.75a3.581,3.581,0,0,1-2.124-.63,5.123,5.123,0,0,1-1.46-1.62,7.942,7.942,0,0,1-.847-2.17,10.027,10.027,0,0,1-.275-2.32,6.642,6.642,0,0,1,.216-1.63,4.865,4.865,0,0,1,.66-1.5,3.65,3.65,0,0,1,1.117-1.09,2.827,2.827,0,0,1,1.567-.43,3.236,3.236,0,0,1,1.424.31,4.3,4.3,0,0,1,1.186.82,6.236,6.236,0,0,1,.938,1.19,9.793,9.793,0,0,1,.675,1.41,9.226,9.226,0,0,1,.416,1.5,7.344,7.344,0,0,1,.142,1.42,7.085,7.085,0,0,1-.2,1.68,4.982,4.982,0,0,1-.657,1.53,3.74,3.74,0,0,1-1.127,1.11,3.083,3.083,0,0,1-1.647.42m-0.644-12.26a5.711,5.711,0,0,0-2.416.53,6.362,6.362,0,0,0-2,1.4,6.944,6.944,0,0,0-1.374,2.03,5.944,5.944,0,0,0-.5,2.42,7.044,7.044,0,0,0,.479,2.6,6.355,6.355,0,0,0,1.329,2.09,6.264,6.264,0,0,0,4.6,1.93,6.512,6.512,0,0,0,2.6-.51,6.209,6.209,0,0,0,2.044-1.38,6.385,6.385,0,0,0,1.353-2.08,6.893,6.893,0,0,0,.487-2.6,6.043,6.043,0,0,0-.538-2.53,6.614,6.614,0,0,0-6.06-3.9M1020,2676.81a5.725,5.725,0,1,1-5.73-5.78A5.766,5.766,0,0,1,1020,2676.81Zm-10.92,0a5.2,5.2,0,1,0,5.19-5.26A5.218,5.218,0,0,0,1009.08,2676.81Zm3.52,0.32v3.56h-0.83v-7.77h2.81a2.134,2.134,0,0,1,2.26,2.04,2.34,2.34,0,0,1-.41,1.27,2.127,2.127,0,0,1-1.45.68c1.8,0.29,1.8,1.05,1.87,3l0.03,0.78h-0.92v-0.81c0-1.82-.18-2.75-1.35-2.75h-2.01Zm0-.43h1.98c1.3,0,1.36-1.31,1.36-1.77a1.366,1.366,0,0,0-1.4-1.58h-1.94v3.35Z" transform="translate(-880 -2635)"/>
</svg>
