<svg xmlns="http://www.w3.org/2000/svg" width="140.03" height="58" viewBox="0 0 140.03 58">
  <defs>
    <style>
      .cls-1 {
        fill-rule: evenodd;
      }
    </style>
  </defs>
  <path id="icon_the_zeur.svg" class="cls-1" d="M1210.98,2551.88a0.648,0.648,0,0,0-.12-0.25l-0.04-.02a0.474,0.474,0,0,0-.59.14c-0.42.36-.92,0.78-1.49,1.25s-1.17.96-1.82,1.44-1.33.96-2.04,1.41a14.2,14.2,0,0,1-2.11,1.15,10.47,10.47,0,0,1-2.05.68,4.38,4.38,0,0,1-1.23.1,4.853,4.853,0,0,0,.86-0.54,9.649,9.649,0,0,0,1.42-1.38,17.067,17.067,0,0,0,1.29-1.74,15.455,15.455,0,0,0,1.04-1.9c0.25-.56.46-1.02,0.62-1.39a6.133,6.133,0,0,0,.34-0.93,1.327,1.327,0,0,0,.04-0.64,0.837,0.837,0,0,0-.26-0.43,1.264,1.264,0,0,0-1.34.04,12.963,12.963,0,0,0-2.03,1.29c-0.56.41-1.2,0.9-1.9,1.45a0.847,0.847,0,0,0-.19.14c-0.17.14-.49,0.39-0.98,0.75-0.43.33-.96,0.72-1.68,1.24-0.65.46-1.32,0.93-2.02,1.41s-1.35.93-1.95,1.33-1.09.72-1.49,0.97a1.48,1.48,0,0,0-.13.08c0.05-.07.12-0.15,0.19-0.24,0.38-.44.85-0.98,1.41-1.63s1.15-1.34,1.77-2.08,1.16-1.46,1.59-2.09a6.1,6.1,0,0,0,.85-1.63,0.688,0.688,0,0,0-.06-0.61,0.645,0.645,0,0,0-.55-0.22,2.883,2.883,0,0,0-1.49.64c-0.58.4-1.24,0.9-2.02,1.52s-1.56,1.26-2.35,1.91c-0.82.68-1.62,1.29-2.38,1.82a23.881,23.881,0,0,1-2.88,1.92,14.586,14.586,0,0,1-2.2,1.03,4.006,4.006,0,0,1-1.41.27,0.478,0.478,0,0,1-.48-0.23,1.422,1.422,0,0,1,.46-0.88c0.37-.49.83-1.06,1.37-1.69s1.1-1.31,1.69-2.01a19.353,19.353,0,0,0,1.46-1.97,3.922,3.922,0,0,0,.66-1.59,0.8,0.8,0,0,0-.87-0.89,3.382,3.382,0,0,0-1.65.2,6.67,6.67,0,0,0-1.5.85,19.449,19.449,0,0,0-1.5,1.25c-0.53.49-1.07,0.96-1.6,1.42a0.4,0.4,0,0,0-.11.12,49.01,49.01,0,0,1-4.71,3.44,22.45,22.45,0,0,1-2.2,1.24,7.873,7.873,0,0,1-1.94.69,3.089,3.089,0,0,1-.58.06,1.859,1.859,0,0,1-.81-0.17,1.378,1.378,0,0,1-.64-1.16,1.66,1.66,0,0,1,.02-0.66,13.735,13.735,0,0,0,2.74-.67,13.256,13.256,0,0,0,2.33-1.11,11.242,11.242,0,0,0,1.77-1.35,7.63,7.63,0,0,0,1.17-1.42,3.68,3.68,0,0,0,.54-1.3,1.43,1.43,0,0,0-.18-1.08,1.6,1.6,0,0,0-1.15-.68,4.264,4.264,0,0,0-1.63.12,9.521,9.521,0,0,0-1.89.72,13.649,13.649,0,0,0-1.92,1.21,12.935,12.935,0,0,0-1.76,1.55,9.344,9.344,0,0,0-1.34,1.8,6.272,6.272,0,0,0-.71,1.96,3.766,3.766,0,0,0,.2,1.97,2.486,2.486,0,0,0,1.73,1.67,27.667,27.667,0,0,1-3.08.65c-1.29.2-2.56,0.35-3.77,0.44s-2.35.14-3.37,0.16l-2.63.06c-0.91.02-1.89,0.03-2.9,0.01s-2.05-.05-3.08-0.09-2.05-.07-3.05-0.11-1.96-.07-2.83-0.09-1.69-.02-2.42,0c-0.42.01-.81,0.03-1.15,0.06,1.89-1.28,4.08-2.73,6.65-4.42,2.73-1.79,5.88-3.89,9.37-6.23s7.34-4.95,11.46-7.78c4.1-2.82,8.64-6.01,13.5-9.47a0.3,0.3,0,0,0,.11-0.35,0.564,0.564,0,0,0-.19-0.28,0.546,0.546,0,0,0-.77.1,9.213,9.213,0,0,1-2.79,2,14.617,14.617,0,0,1-3.41,1.09,21.107,21.107,0,0,1-3.8.37,37.941,37.941,0,0,1-3.98-.16c-0.7-.07-1.39-0.16-2.03-0.25-0.66-.1-1.32-0.19-1.99-0.28-0.41-.06-0.84-0.11-1.27-0.16a22.283,22.283,0,0,0-3.43-.27c-0.2,0-.36,0-0.49.01a49.084,49.084,0,0,0-5.02.36,38.417,38.417,0,0,0-5.82,1.12,24.637,24.637,0,0,0-5.04,2,13.765,13.765,0,0,0-3.91,3.07l-0.12.14,0.38,0.25,0.1-.08a13.306,13.306,0,0,1,3.18-2.24,21.1,21.1,0,0,1,3.69-1.49,29.352,29.352,0,0,1,3.88-.88c1.3-.2,2.57-0.34,3.77-0.43s2.33-.15,3.37-0.17l1.38-.03v0.06a21.192,21.192,0,0,1,2.25.15c0.91,0.1,1.9.2,2.97,0.31s2.23,0.21,3.41.3,2.4,0.13,3.59.11a27.7,27.7,0,0,0,3.54-.29,15.3,15.3,0,0,0,2.1-.44c-1.24.82-2.59,1.7-4.02,2.62-1.84,1.19-3.74,2.39-5.63,3.59-1.94,1.22-3.92,2.46-5.92,3.71s-3.98,2.49-5.93,3.7-3.82,2.39-5.61,3.52c-1.71,1.08-3.39,2.16-5,3.2-1.57,1.01-2.91,1.9-4.09,2.7s-2.15,1.49-2.87,2.05a1.337,1.337,0,0,0-.41.59,1.15,1.15,0,0,0-.03.73,0.845,0.845,0,0,0,.53.53,1.082,1.082,0,0,0,.38.06,2.742,2.742,0,0,0,.77-0.13,19.28,19.28,0,0,1,2.46-.58,18.47,18.47,0,0,1,2.37-.22c0.8-.03,1.65-0.03,2.53,0s1.88,0.06,2.96.1,2.29,0.07,3.63.08,2.88,0,4.56-.06c2.09-.07,4.18-0.23,6.22-0.47a37.838,37.838,0,0,0,5.81-1.13,24.242,24.242,0,0,0,5.06-1.99,14.174,14.174,0,0,0,3.36-2.51c1.55-1.11,3.27-2.48,5.11-4.07,0.42-.32.84-0.63,1.23-0.9a11.865,11.865,0,0,1,1.7-1.01,1.48,1.48,0,0,1,.58-0.18h0.05a1.751,1.751,0,0,1-.48.77c-0.51.64-1.1,1.3-1.75,1.97a25.562,25.562,0,0,0-1.76,2.06,7.045,7.045,0,0,0-1.09,1.95,1.571,1.571,0,0,0,.31,1.69,2.659,2.659,0,0,0,1.66.79,4.68,4.68,0,0,0,.76.06,7.385,7.385,0,0,0,1.62-.2,11.041,11.041,0,0,0,2.75-1.07,12.932,12.932,0,0,0,2.75-2.05c0.8-.77,1.48-1.45,2.07-2.06l0.03-.03c-0.12.15-.23,0.29-0.35,0.43-0.46.59-.9,1.17-1.31,1.73a12.617,12.617,0,0,0-.96,1.52,2.457,2.457,0,0,0-.36,1.14,0.592,0.592,0,0,0,.72.56,3.766,3.766,0,0,0,1.62-.49,19.977,19.977,0,0,0,2.04-1.21c0.64-.43,1.31-0.92,1.99-1.44a0.871,0.871,0,0,0-.2.32,0.528,0.528,0,0,0,.1.47,4.571,4.571,0,0,0,2.41,2.04,7.072,7.072,0,0,0,2.13.3,9.363,9.363,0,0,0,1.16-.07,7.74,7.74,0,0,0,2.93-1,17.644,17.644,0,0,0,2.7-1.91c0.85-.72,1.67-1.48,2.44-2.25a29.316,29.316,0,0,1,2.16-2.02A0.389,0.389,0,0,0,1210.98,2551.88Zm-41.97,3.29a7.053,7.053,0,0,1,.85-1.33,16.061,16.061,0,0,1,1.45-1.54,15.5,15.5,0,0,1,1.65-1.33,12.17,12.17,0,0,1,1.56-.94,4.032,4.032,0,0,1,1.16-.42,0.887,0.887,0,0,1,.15-0.02c0.21,0,.23.09,0.24,0.12a1.794,1.794,0,0,1-.37,1.19,7.22,7.22,0,0,1-1.43,1.69,11.885,11.885,0,0,1-2.38,1.61A10.4,10.4,0,0,1,1169.01,2555.17Zm26.19,1.1c0.18-.14.35-0.27,0.52-0.41,0.47-.33.92-0.66,1.36-1.01,0.77-.6,1.52-1.19,2.26-1.76q1.14-.87,2.25-1.62a14.133,14.133,0,0,1,2.09-1.16,12.738,12.738,0,0,1-1.24,3.2,9.466,9.466,0,0,1-2.05,2.59,4.564,4.564,0,0,1-2.35,1.12,2.652,2.652,0,0,1-2.22-.82,0.639,0.639,0,0,0-.39-0.15h-0.05a0.672,0.672,0,0,0-.28.1C1195.13,2556.32,1195.17,2556.3,1195.2,2556.27Zm-58.12-4.39a0.492,0.492,0,0,0-.13-0.25l-0.03-.02a0.474,0.474,0,0,0-.59.14,52.1,52.1,0,0,1-5.88,4.41,22.45,22.45,0,0,1-2.2,1.24,7.734,7.734,0,0,1-1.94.69,3.089,3.089,0,0,1-.58.06,1.859,1.859,0,0,1-.81-0.17,1.378,1.378,0,0,1-.64-1.16,1.512,1.512,0,0,1,.03-0.66,13.8,13.8,0,0,0,2.73-.67,13.635,13.635,0,0,0,2.33-1.11,11.242,11.242,0,0,0,1.77-1.35,8.3,8.3,0,0,0,1.17-1.41,3.8,3.8,0,0,0,.54-1.31,1.387,1.387,0,0,0-.18-1.08,1.6,1.6,0,0,0-1.15-.68,4.213,4.213,0,0,0-1.62.12,9.294,9.294,0,0,0-1.89.72,13.187,13.187,0,0,0-1.93,1.21,10.792,10.792,0,0,0-1.21,1.03,0.61,0.61,0,0,0-.16.12c-0.5.41-1.05,0.87-1.66,1.38-0.58.49-1.21,1-1.88,1.53-0.64.51-1.27,1-1.87,1.47s-1.16.86-1.64,1.19a7.026,7.026,0,0,1-1.16.69,1.126,1.126,0,0,1-.26.09,1.893,1.893,0,0,1,.49-0.88c0.37-.46.81-1.01,1.37-1.68,0.54-.64,1.09-1.32,1.66-2.03a14.941,14.941,0,0,0,1.4-2.09,2.514,2.514,0,0,0,.31-0.95,1.3,1.3,0,0,0-.16-0.8,0.923,0.923,0,0,0-.7-0.41,2.389,2.389,0,0,0-1.11.22,14.1,14.1,0,0,0-2.03,1.16c-0.79.53-1.64,1.13-2.54,1.8-0.88.65-1.79,1.36-2.72,2.08-0.96.76-1.82,1.41-2.61,2-0.86.63-1.57,1.15-2.2,1.57-0.3.2-.56,0.36-0.79,0.49q0.825-.915,1.86-2.01c0.94-.99,1.91-1.99,2.87-2.97q1.53-1.56,3.14-3.18c1.06-1.06,2.1-2.12,3.11-3.16,0.98-1.01,1.91-1.99,2.77-2.91s1.58-1.74,2.17-2.45a12.5,12.5,0,0,0,1.26-1.76,1.1,1.1,0,0,0,.2-0.81,0.379,0.379,0,0,0-.21-0.22,1.484,1.484,0,0,0-1.21.32,16.169,16.169,0,0,0-1.84,1.26c-0.7.54-1.48,1.19-2.32,1.92-0.82.72-1.69,1.5-2.57,2.32-0.22.19-.43,0.39-0.64,0.59a1.124,1.124,0,0,0-.93-0.26c-0.53-.04-1.23-0.08-2.08-0.11s-1.79-.06-2.91-0.08c-1.09-.01-2.18-0.03-3.29-0.04s-2.15-.02-3.16-0.03c-0.8-.02-1.51-0.03-2.13-0.05,1.26-1.39,2.63-2.87,4.13-4.47l1.17-1.23c0.92-.9,1.68-1.66,2.23-2.25s1.01-1.06,1.33-1.42,0.59-.7.81-1l0.08-.11-0.15-.15h-0.07a0.843,0.843,0,0,0-.42.24c-0.22.15-.5,0.36-0.85,0.61s-0.73.55-1.17,0.89-0.87.67-1.31,1.02-0.86.7-1.26,1.04-0.73.63-1.01,0.9l-1.29,1.23c-0.01.01-.02,0.03-0.03,0.04l-0.17.16h0c-1.17,1.13-2.35,2.33-3.71,3.76-0.23.24-.44,0.49-0.67,0.73-2.04-.03-3.99-0.05-5.8-0.05-3.66,0-6.91.07-9.64,0.19a40.6,40.6,0,0,0-9.33,1.25,5.992,5.992,0,0,0-1.97.9,1.373,1.373,0,0,0-.6.92,0.938,0.938,0,0,0,.31.77,3.124,3.124,0,0,0,.61.47,0.393,0.393,0,0,0,.14.03,0.291,0.291,0,0,0,.23-0.11,0.216,0.216,0,0,0,.06-0.21,0.271,0.271,0,0,0-.17-0.2,0.916,0.916,0,0,1-.6-0.61,0.783,0.783,0,0,1,.37-0.53,3.943,3.943,0,0,1,.92-0.45,5.4,5.4,0,0,1,.9-0.23c0.65-.09,1.25-0.17,1.82-0.24s1.22-.14,1.94-0.18c0.74-.04,1.62-0.08,2.63-0.12s2.26-.06,3.83-0.07c1.53-.02,3.39-0.03,5.58-0.04,2.06-.01,4.54-0.02,7.41-0.02-0.66.74-1.3,1.47-1.93,2.2-1.25,1.47-2.43,2.94-3.51,4.37a35.039,35.039,0,0,0-2.63,3.96,11.35,11.35,0,0,0-1.3,3.17,1.964,1.964,0,0,0,.51,2.09,2.305,2.305,0,0,0,1.49.4c0.16,0,.34-0.01.52-0.02a13.658,13.658,0,0,0,3.5-.94c0.8-.31,2.01-0.77,3.23-1.31,0.01,0,.01.01,0.02,0.01a0.037,0.037,0,0,0,.03-0.01c0.02,0,.29-0.13.76-0.36,0.65-.3,1.29-0.62,1.85-0.94a54.375,54.375,0,0,0,6.08-3.84c0.39-.28.79-0.57,1.2-0.88a0.1,0.1,0,0,0,.04-0.03c0.07-.04.13-0.09,0.21-0.13,0.04-.03.22-0.17,0.4-0.33a52.771,52.771,0,0,0,5.69-5.03l2.8-2.54c0.96-.88,1.89-1.7,2.75-2.44-0.2.19-.4,0.38-0.6,0.58-1.23,1.19-2.46,2.43-3.65,3.67-1.2,1.26-2.37,2.52-3.46,3.75s-2.08,2.37-2.9,3.37c-0.83,1.02-1.5,1.88-1.99,2.55-0.68.95-.75,1.23-0.71,1.39a1,1,0,0,0,.2.4,0.514,0.514,0,0,0,.39.14,1.408,1.408,0,0,0,.2-0.01,4.5,4.5,0,0,0,1.23-.56c0.57-.32,1.25-0.73,2.02-1.22s1.62-1.02,2.53-1.62,1.83-1.19,2.75-1.77,1.79-1.15,2.64-1.68c0.46-.28.89-0.54,1.29-0.77-0.34.35-.73,0.77-1.15,1.25-0.49.55-1.01,1.17-1.54,1.83a12.253,12.253,0,0,0-1.29,1.89,3.8,3.8,0,0,0-.53,1.59,0.894,0.894,0,0,0,.84.95,2.5,2.5,0,0,0,1.45-.26,11.473,11.473,0,0,0,1.77-1.01c0.63-.42,1.29-0.92,1.98-1.48,0.67-.55,1.33-1.11,1.97-1.68,0.18-.16.35-0.3,0.52-0.46a6.007,6.007,0,0,0-.37,1.26,3.582,3.582,0,0,0,.2,1.97,2.414,2.414,0,0,0,1.86,1.7,3.481,3.481,0,0,0,.58.05,6.614,6.614,0,0,0,2.54-.63,24.314,24.314,0,0,0,4.22-2.52c1.57-1.14,3.34-2.54,5.24-4.17A0.389,0.389,0,0,0,1137.08,2551.88Zm-12.43,3.29a6.684,6.684,0,0,1,.84-1.33,16.136,16.136,0,0,1,1.45-1.54,15.747,15.747,0,0,1,1.65-1.33,12.17,12.17,0,0,1,1.56-.94,4.032,4.032,0,0,1,1.16-.42,0.887,0.887,0,0,1,.15-0.02c0.21,0,.23.09,0.24,0.12a1.867,1.867,0,0,1-.36,1.19,7.517,7.517,0,0,1-1.43,1.69,11.975,11.975,0,0,1-2.39,1.61A10.327,10.327,0,0,1,1124.65,2555.17Zm-11.41-7.82c-0.85.81-1.65,1.57-2.39,2.28q-0.375.36-.72,0.72a62.1,62.1,0,0,1-11.85,8.21,37.779,37.779,0,0,1-4.57,1.85,14.359,14.359,0,0,1-3.15.72c-0.22.02-.41,0.03-0.58,0.03a1.248,1.248,0,0,1-.76-0.13,0.617,0.617,0,0,1-.17-0.43,2.833,2.833,0,0,1,.33-1.17,17.8,17.8,0,0,1,1.31-2.3c0.62-.96,1.55-2.21,2.74-3.72s2.75-3.34,4.61-5.47c0.44-.5.89-1.01,1.36-1.54,0.1,0,.23.01,0.37,0.01s0.31,0,.49-0.01c0.55-.01,1.22-0.02,1.99-0.04s1.62-.03,2.55-0.06,1.88-.05,2.83-0.09,1.87-.07,2.76-0.11,1.68-.09,2.36-0.12,1.25-.07,1.68-0.12c0.2-.02.35-0.03,0.46-0.05C1114.34,2546.32,1113.79,2546.84,1113.24,2547.35Zm-22.77,41.67v-3.74h0.74l0.88,2.65c0.08,0.24.14,0.43,0.18,0.55,0.04-.13.11-0.33,0.2-0.6l0.89-2.6h0.66v3.74h-0.47v-3.13l-1.09,3.13h-0.44l-1.08-3.18v3.18h-0.47Zm4.58,0v-3.74h2.51v0.44h-2.02v1.16h1.74v0.44h-1.74v1.7h-0.49Zm3.44-3.74h0.49v3.74h-0.49v-3.74Zm1.57,3.74v-3.74h1.4a3.6,3.6,0,0,1,.56.04,1.134,1.134,0,0,1,.46.17,0.882,0.882,0,0,1,.3.36,1.116,1.116,0,0,1,.11.51,1.16,1.16,0,0,1-.3.81,1.434,1.434,0,0,1-1.09.33h-0.95v1.52h-0.49Zm0.49-1.96h0.96a1.026,1.026,0,0,0,.68-0.18,0.64,0.64,0,0,0,.2-0.5,0.655,0.655,0,0,0-.12-0.4,0.529,0.529,0,0,0-.31-0.22,2.113,2.113,0,0,0-.46-0.04h-0.95v1.34Zm7.39,0.65,0.49,0.12a1.61,1.61,0,0,1-.55.93,1.51,1.51,0,0,1-.99.32,1.765,1.765,0,0,1-.97-0.24,1.515,1.515,0,0,1-.58-0.71,2.63,2.63,0,0,1-.19-1.01,2.177,2.177,0,0,1,.22-1.01,1.439,1.439,0,0,1,.63-0.66,1.825,1.825,0,0,1,.9-0.23,1.52,1.52,0,0,1,.94.28,1.541,1.541,0,0,1,.53.81l-0.49.11a1.115,1.115,0,0,0-.37-0.59,1.017,1.017,0,0,0-.62-0.19,1.2,1.2,0,0,0-.72.21,1.113,1.113,0,0,0-.4.55,2.22,2.22,0,0,0-.12.72,2.287,2.287,0,0,0,.14.83,1,1,0,0,0,.43.53,1.206,1.206,0,0,0,.63.18,1.044,1.044,0,0,0,.7-0.24,1.261,1.261,0,0,0,.39-0.71m3.01,0.98a1.751,1.751,0,0,1-.49.3,1.386,1.386,0,0,1-.5.09,0.97,0.97,0,0,1-.69-0.22,0.7,0.7,0,0,1-.23-0.55,0.874,0.874,0,0,1,.08-0.37,0.858,0.858,0,0,1,.24-0.26,0.988,0.988,0,0,1,.33-0.15,3.713,3.713,0,0,1,.41-0.07,3.927,3.927,0,0,0,.81-0.16v-0.12a0.483,0.483,0,0,0-.13-0.39,0.721,0.721,0,0,0-.52-0.16,0.756,0.756,0,0,0-.47.12,0.647,0.647,0,0,0-.23.4l-0.45-.06a1.132,1.132,0,0,1,.2-0.47,0.869,0.869,0,0,1,.41-0.27,1.626,1.626,0,0,1,.61-0.1,1.706,1.706,0,0,1,.56.08,0.889,0.889,0,0,1,.32.21,0.684,0.684,0,0,1,.14.31,3.588,3.588,0,0,1,.02.42v0.62a6.2,6.2,0,0,0,.03.8,0.933,0.933,0,0,0,.12.33h-0.48a0.846,0.846,0,0,1-.09-0.33m-0.04-1.03a2.791,2.791,0,0,1-.75.17,1.413,1.413,0,0,0-.39.1,0.335,0.335,0,0,0-.18.15,0.314,0.314,0,0,0-.07.21,0.4,0.4,0,0,0,.14.31,0.608,0.608,0,0,0,.41.12,1.049,1.049,0,0,0,.47-0.11,0.837,0.837,0,0,0,.3-0.32,1.138,1.138,0,0,0,.07-0.46v-0.17Zm2.13,1.36-1.03-2.71h0.48l0.58,1.62a5.011,5.011,0,0,1,.17.55c0.05-.14.1-0.31,0.18-0.52l0.59-1.65h0.47l-1.02,2.71h-0.42Zm2.06-3.74h0.45v0.53h-0.45v-0.53Zm0,1.03h0.45v2.71h-0.45v-2.71Zm2.35,2.3,0.07,0.4a1.552,1.552,0,0,1-.35.05,0.8,0.8,0,0,1-.38-0.08,0.425,0.425,0,0,1-.19-0.21,1.567,1.567,0,0,1-.06-0.54v-1.56h-0.33v-0.36h0.33v-0.67l0.45-.27v0.94h0.46v0.36h-0.46v1.58a0.716,0.716,0,0,0,.03.26,0.2,0.2,0,0,0,.08.08,0.208,0.208,0,0,0,.15.04,1.909,1.909,0,0,0,.2-0.02m2.42,0.08a1.9,1.9,0,0,1-.49.3,1.426,1.426,0,0,1-.5.09,0.97,0.97,0,0,1-.69-0.22,0.705,0.705,0,0,1-.24-0.55,0.733,0.733,0,0,1,.33-0.63,0.988,0.988,0,0,1,.33-0.15,3.451,3.451,0,0,1,.4-0.07,4.053,4.053,0,0,0,.82-0.16v-0.12a0.483,0.483,0,0,0-.13-0.39,0.721,0.721,0,0,0-.52-0.16,0.756,0.756,0,0,0-.47.12,0.647,0.647,0,0,0-.23.4l-0.45-.06a1.132,1.132,0,0,1,.2-0.47,0.869,0.869,0,0,1,.41-0.27,1.626,1.626,0,0,1,.61-0.1,1.75,1.75,0,0,1,.56.08,0.889,0.889,0,0,1,.32.21,0.81,0.81,0,0,1,.14.31,3.588,3.588,0,0,1,.02.42v0.62a6.2,6.2,0,0,0,.03.8,1.166,1.166,0,0,0,.11.33h-0.47a0.846,0.846,0,0,1-.09-0.33m-0.04-1.03a2.892,2.892,0,0,1-.75.17,1.626,1.626,0,0,0-.4.1,0.428,0.428,0,0,0-.18.15,0.37,0.37,0,0,0-.06.21,0.4,0.4,0,0,0,.14.31,0.6,0.6,0,0,0,.4.12,0.989,0.989,0,0,0,.47-0.11,0.793,0.793,0,0,0,.31-0.32,1.345,1.345,0,0,0,.07-0.46v-0.17Zm2.37,0.95,0.07,0.4a1.552,1.552,0,0,1-.35.05,0.8,0.8,0,0,1-.38-0.08,0.425,0.425,0,0,1-.19-0.21,1.567,1.567,0,0,1-.06-0.54v-1.56h-0.33v-0.36h0.33v-0.67l0.45-.27v0.94h0.46v0.36h-0.46v1.58a0.716,0.716,0,0,0,.03.26,0.155,0.155,0,0,0,.08.08,0.208,0.208,0,0,0,.15.04,1.909,1.909,0,0,0,.2-0.02m0.66-3.33h0.46v0.53h-0.46v-0.53Zm0,1.03h0.46v2.71h-0.46v-2.71Zm1.19,1.36a1.405,1.405,0,0,1,.42-1.12,1.236,1.236,0,0,1,.84-0.3,1.169,1.169,0,0,1,.91.37,1.366,1.366,0,0,1,.35,1.01,1.847,1.847,0,0,1-.15.82,1.221,1.221,0,0,1-.46.47,1.279,1.279,0,0,1-.65.16,1.213,1.213,0,0,1-.91-0.36,1.5,1.5,0,0,1-.35-1.05m0.47,0a1.136,1.136,0,0,0,.23.78,0.717,0.717,0,0,0,.56.25,0.7,0.7,0,0,0,.57-0.26,1.165,1.165,0,0,0,.22-0.79,1.13,1.13,0,0,0-.22-0.76,0.744,0.744,0,0,0-1.13,0,1.1,1.1,0,0,0-.23.78m2.8,1.35v-2.71h0.41v0.39a0.964,0.964,0,0,1,.86-0.45,1.049,1.049,0,0,1,.44.09,0.763,0.763,0,0,1,.31.23,0.744,0.744,0,0,1,.14.34,2.268,2.268,0,0,1,.03.45v1.66h-0.46v-1.65a1.372,1.372,0,0,0-.05-0.41,0.475,0.475,0,0,0-.19-0.23,0.66,0.66,0,0,0-.32-0.08,0.711,0.711,0,0,0-.5.19,0.9,0.9,0,0,0-.21.7v1.48h-0.46Zm4.16-.06v-3.74h1.28a3.731,3.731,0,0,1,.67.05,1.253,1.253,0,0,1,.54.27,1.532,1.532,0,0,1,.44.64,2.441,2.441,0,0,1,.15.89,2.837,2.837,0,0,1-.1.75,1.873,1.873,0,0,1-.26.55,1.529,1.529,0,0,1-.33.34,1.413,1.413,0,0,1-.45.18,2.6,2.6,0,0,1-.6.07h-1.34Zm0.49-.44h0.8a2.178,2.178,0,0,0,.58-0.07,0.77,0.77,0,0,0,.33-0.2,1.025,1.025,0,0,0,.27-0.47,2.2,2.2,0,0,0,.1-0.72,1.722,1.722,0,0,0-.19-0.9,0.941,0.941,0,0,0-.47-0.42,1.879,1.879,0,0,0-.63-0.08h-0.79v2.86Zm3.49,0.44v-3.74h0.49v1.53h1.93v-1.53h0.5v3.74h-0.5v-1.77h-1.93v1.77h-0.49Zm3.78-1.2,0.46-.04a1.042,1.042,0,0,0,.15.46,0.893,0.893,0,0,0,.38.29,1.485,1.485,0,0,0,.57.11,1.311,1.311,0,0,0,.5-0.09,0.649,0.649,0,0,0,.32-0.23,0.509,0.509,0,0,0,.1-0.32,0.453,0.453,0,0,0-.1-0.3,0.752,0.752,0,0,0-.34-0.23c-0.09-.03-0.31-0.1-0.66-0.18a3.235,3.235,0,0,1-.71-0.23,0.988,0.988,0,0,1-.4-0.35,0.821,0.821,0,0,1-.13-0.46,0.918,0.918,0,0,1,.16-0.53,0.969,0.969,0,0,1,.46-0.38,1.923,1.923,0,0,1,.69-0.12,1.864,1.864,0,0,1,.73.13,1.041,1.041,0,0,1,.48.39,1.117,1.117,0,0,1,.19.59l-0.48.04a0.767,0.767,0,0,0-.25-0.54,1.027,1.027,0,0,0-.65-0.18,1.013,1.013,0,0,0-.65.17,0.485,0.485,0,0,0-.21.39,0.4,0.4,0,0,0,.15.33,1.82,1.82,0,0,0,.74.27,4.3,4.3,0,0,1,.82.24,1.114,1.114,0,0,1,.48.38,0.875,0.875,0,0,1,.16.53,1.023,1.023,0,0,1-.17.56,1.186,1.186,0,0,1-.49.42,1.812,1.812,0,0,1-.72.14,2.07,2.07,0,0,1-.84-0.15,1.176,1.176,0,0,1-.54-0.44,1.2,1.2,0,0,1-.2-0.67m5.47,1.2v-3.74h0.49v3.3h1.83v0.44h-2.32Zm3.13,0v-3.74h2.69v0.44h-2.2v1.15h2.06v0.43h-2.06v1.28h2.28v0.44h-2.77Zm3.66,0v-3.74h1.28a3.731,3.731,0,0,1,.67.05,1.253,1.253,0,0,1,.54.27,1.532,1.532,0,0,1,.44.64,2.441,2.441,0,0,1,.15.89,2.837,2.837,0,0,1-.1.75,1.873,1.873,0,0,1-.26.55,1.529,1.529,0,0,1-.33.34,1.413,1.413,0,0,1-.45.18,2.6,2.6,0,0,1-.6.07h-1.34Zm0.49-.44h0.8a2.178,2.178,0,0,0,.58-0.07,0.835,0.835,0,0,0,.33-0.2,1.025,1.025,0,0,0,.27-0.47,2.2,2.2,0,0,0,.1-0.72,1.722,1.722,0,0,0-.19-0.9,0.941,0.941,0,0,0-.47-0.42,1.879,1.879,0,0,0-.63-0.08h-0.79v2.86Zm5.13,0.44v-3.74h2.7v0.44h-2.2v1.15h2.05v0.43h-2.05v1.28h2.28v0.44h-2.78Zm3.65,0v-3.74h0.74l0.89,2.65c0.07,0.24.13,0.43,0.17,0.55,0.04-.14.11-0.34,0.2-0.6l0.89-2.6h0.66v3.74h-0.47v-3.13l-1.08,3.13h-0.45l-1.07-3.18v3.18h-0.48Zm4.39-1.2,0.46-.04a1.046,1.046,0,0,0,.16.46,0.8,0.8,0,0,0,.37.29,1.485,1.485,0,0,0,.57.11,1.311,1.311,0,0,0,.5-0.09,0.649,0.649,0,0,0,.32-0.23,0.509,0.509,0,0,0,.1-0.32,0.453,0.453,0,0,0-.1-0.3,0.716,0.716,0,0,0-.33-0.23c-0.1-.03-0.32-0.1-0.66-0.18a3.181,3.181,0,0,1-.72-0.23,0.988,0.988,0,0,1-.4-0.35,0.821,0.821,0,0,1-.13-0.46,0.918,0.918,0,0,1,.16-0.53,1,1,0,0,1,.47-0.38,1.831,1.831,0,0,1,.68-0.12,1.864,1.864,0,0,1,.73.13,1.041,1.041,0,0,1,.48.39,1.117,1.117,0,0,1,.19.59l-0.47.04a0.816,0.816,0,0,0-.26-0.54,1.295,1.295,0,0,0-1.3-.01,0.485,0.485,0,0,0-.21.39,0.4,0.4,0,0,0,.15.33,1.82,1.82,0,0,0,.74.27,4.739,4.739,0,0,1,.83.24,1.142,1.142,0,0,1,.47.38,0.875,0.875,0,0,1,.16.53,1.023,1.023,0,0,1-.17.56,1.126,1.126,0,0,1-.49.42,1.812,1.812,0,0,1-.72.14,2.1,2.1,0,0,1-.84-0.15,1.176,1.176,0,0,1-.54-0.44,1.2,1.2,0,0,1-.2-0.67m5.55,1.14v-2.35h-0.4v-0.36h0.4v-0.29a1.3,1.3,0,0,1,.05-0.4,0.6,0.6,0,0,1,.23-0.29,0.8,0.8,0,0,1,.47-0.11,2.292,2.292,0,0,1,.43.04l-0.07.4c-0.1-.01-0.19-0.02-0.27-0.02a0.414,0.414,0,0,0-.3.09,0.528,0.528,0,0,0-.08.33v0.25h0.52v0.36h-0.52v2.35h-0.46Zm1.38-1.35a1.421,1.421,0,0,1,.41-1.12,1.262,1.262,0,0,1,.85-0.3,1.2,1.2,0,0,1,.91.37,1.408,1.408,0,0,1,.35,1.01,1.707,1.707,0,0,1-.16.82,1.052,1.052,0,0,1-.45.46,1.341,1.341,0,0,1-.65.17,1.206,1.206,0,0,1-.92-0.37,1.449,1.449,0,0,1-.34-1.04m0.47,0a1.142,1.142,0,0,0,.22.77,0.7,0.7,0,0,0,.57.26,0.712,0.712,0,0,0,.56-0.26,1.131,1.131,0,0,0,.23-0.79,1.065,1.065,0,0,0-.23-0.76,0.744,0.744,0,0,0-1.13,0,1.153,1.153,0,0,0-.22.78m2.79,1.35v-2.71h0.41v0.41a1.182,1.182,0,0,1,.29-0.38,0.521,0.521,0,0,1,.29-0.09,0.868,0.868,0,0,1,.47.15l-0.15.42a0.773,0.773,0,0,0-.34-0.1,0.449,0.449,0,0,0-.27.1,0.508,0.508,0,0,0-.17.25,1.789,1.789,0,0,0-.07.53v1.42h-0.46Zm3.63,0v-3.74h1.4a1.625,1.625,0,0,1,.68.12,0.836,0.836,0,0,1,.4.34,0.939,0.939,0,0,1,.15.5,0.812,0.812,0,0,1-.13.45,0.937,0.937,0,0,1-.39.34,0.972,0.972,0,0,1,.52.34,0.923,0.923,0,0,1,.18.57,1,1,0,0,1-.11.48,0.887,0.887,0,0,1-.27.35,1.416,1.416,0,0,1-.41.19,2.524,2.524,0,0,1-.6.06h-1.42Zm0.49-2.17h0.81a1.8,1.8,0,0,0,.47-0.04,0.521,0.521,0,0,0,.28-0.19,0.53,0.53,0,0,0,.1-0.32,0.582,0.582,0,0,0-.09-0.33,0.474,0.474,0,0,0-.26-0.2,2.293,2.293,0,0,0-.56-0.05h-0.75v1.13Zm0,1.73h0.93a2.438,2.438,0,0,0,.34-0.02,0.774,0.774,0,0,0,.28-0.1,0.554,0.554,0,0,0,.19-0.21,0.643,0.643,0,0,0,.07-0.31,0.58,0.58,0,0,0-.11-0.37,0.643,0.643,0,0,0-.29-0.22,1.914,1.914,0,0,0-.54-0.06h-0.87v1.29Zm2.98-.91a1.421,1.421,0,0,1,.41-1.12,1.28,1.28,0,0,1,.85-0.3,1.184,1.184,0,0,1,.91.37,1.408,1.408,0,0,1,.35,1.01,1.847,1.847,0,0,1-.15.82,1.132,1.132,0,0,1-.46.46,1.285,1.285,0,0,1-.65.17,1.184,1.184,0,0,1-.91-0.37,1.41,1.41,0,0,1-.35-1.04m0.47,0a1.142,1.142,0,0,0,.22.77,0.7,0.7,0,0,0,.57.26,0.732,0.732,0,0,0,.57-0.26,1.183,1.183,0,0,0,.22-0.79,1.113,1.113,0,0,0-.22-0.76,0.747,0.747,0,0,0-.57-0.26,0.732,0.732,0,0,0-.57.26,1.153,1.153,0,0,0-.22.78m4.54,1.35v-0.34a0.827,0.827,0,0,1-.75.4,1.05,1.05,0,0,1-.59-0.18,1.154,1.154,0,0,1-.42-0.5,1.7,1.7,0,0,1-.15-0.73,1.951,1.951,0,0,1,.14-0.74,1.008,1.008,0,0,1,.4-0.5,1.058,1.058,0,0,1,.6-0.18,0.854,0.854,0,0,1,.43.1,0.822,0.822,0,0,1,.31.27v-1.34h0.46v3.74h-0.43Zm-1.44-1.35a1.142,1.142,0,0,0,.22.77,0.643,0.643,0,0,0,.51.26,0.654,0.654,0,0,0,.51-0.24,1.156,1.156,0,0,0,.21-0.75,1.3,1.3,0,0,0-.21-0.82,0.663,0.663,0,0,0-.52-0.26,0.608,0.608,0,0,0-.51.25,1.223,1.223,0,0,0-.21.79m2.77,2.39-0.05-.43a0.929,0.929,0,0,0,.27.04,0.536,0.536,0,0,0,.24-0.05,0.4,0.4,0,0,0,.15-0.14,3.33,3.33,0,0,0,.14-0.34c0.01-.03.02-0.07,0.04-0.12l-1.02-2.71h0.49l0.56,1.57a5.8,5.8,0,0,1,.19.63c0.06-.22.12-0.42,0.19-0.62l0.58-1.58h0.46l-1.03,2.75a5.251,5.251,0,0,1-.26.62,0.846,0.846,0,0,1-.28.33,0.647,0.647,0,0,1-.37.11,0.887,0.887,0,0,1-.3-0.06m-5.59-12.26a2.605,2.605,0,1,0,2.6-2.62,2.61,2.61,0,0,0-2.6,2.62m0.24,0a2.365,2.365,0,1,1,2.36,2.38,2.375,2.375,0,0,1-2.36-2.38m1.86-1.13c0-.14.04-0.17,0.28-0.17a0.657,0.657,0,0,1,.77.61c0,0.65-.68.65-1.05,0.66v-1.1Zm2.03,2.55a0.482,0.482,0,0,1-.39-0.21l-0.92-1.13a0.822,0.822,0,0,0,.81-0.76,0.939,0.939,0,0,0-1.13-.78h-1.24v0.08c0.32,0.03.38,0.08,0.38,0.41v1.94c0,0.34-.01.43-0.38,0.45v0.09h1.24v-0.09c-0.35-.01-0.4-0.1-0.4-0.4v-0.89h0.25l1.07,1.38h0.71v-0.09Zm-86.72-5.78c0-2.24,0-2.64-.03-3.1a0.7,0.7,0,0,0-.61-0.82,2.629,2.629,0,0,0-.49-0.04,0.1,0.1,0,0,1-.11-0.09c0-.08.07-0.11,0.23-0.11,0.64,0,1.54.04,1.61,0.04,0.17,0,1.07-.04,1.93-0.04,1.41,0,4.02-.13,5.72,1.63a5.165,5.165,0,0,1,1.38,3.64,5.891,5.891,0,0,1-1.54,4.05,5.671,5.671,0,0,1-4.32,1.64c-0.62,0-1.37-.04-1.99-0.08s-1.11-.09-1.18-0.09c-0.03,0-.27,0-0.57.02-0.29,0-.61.02-0.83,0.02-0.15,0-.23-0.02-0.23-0.11a0.1,0.1,0,0,1,.12-0.09,2.1,2.1,0,0,0,.43-0.05,0.788,0.788,0,0,0,.41-0.79c0.07-.6.07-1.74,0.07-3.11v-2.52Zm1.2,1.54c0,1.52.01,2.84,0.03,3.11a2.916,2.916,0,0,0,.16,1.09c0.18,0.28.74,0.58,2.42,0.58a4.783,4.783,0,0,0,3.4-1.34,5.021,5.021,0,0,0,1.14-3.42,5.144,5.144,0,0,0-1.37-3.61,5.852,5.852,0,0,0-4.67-1.62,3.611,3.611,0,0,0-.92.1,0.256,0.256,0,0,0-.18.28c-0.01.49-.01,1.95-0.01,3.06v1.77Zm12.25-.56c0-1.89,0-2.23-.03-2.62-0.02-.41-0.09-0.62-0.51-0.67a2.864,2.864,0,0,0-.42-0.03,0.128,0.128,0,0,1-.11-0.1c0-.07.06-0.1,0.2-0.1,0.57,0,1.42.03,1.49,0.03,0.13,0,1.18-.03,1.57-0.03a4.091,4.091,0,0,1,2.34.53,2.156,2.156,0,0,1,.87,1.66,3.562,3.562,0,0,1-1.54,2.78c1.02,1.29,1.89,2.4,2.62,3.15a2.3,2.3,0,0,0,1.4.85,2.438,2.438,0,0,0,.44.04,0.12,0.12,0,0,1,.12.1c0,0.08-.07.1-0.3,0.1h-0.79a2.541,2.541,0,0,1-1.34-.24,6.407,6.407,0,0,1-1.71-1.79c-0.53-.66-1.08-1.45-1.36-1.78a0.172,0.172,0,0,0-.17-0.07l-1.6-.03a0.081,0.081,0,0,0-.08.1v0.29c0,1.17,0,2.12.06,2.62a0.573,0.573,0,0,0,.5.65,4.134,4.134,0,0,0,.55.05,0.088,0.088,0,0,1,.1.1c0,0.06-.06.1-0.2,0.1-0.68,0-1.48-.04-1.54-0.04-0.01,0-.86.04-1.24,0.04-0.13,0-.2-0.02-0.2-0.1a0.1,0.1,0,0,1,.1-0.1,1.813,1.813,0,0,0,.39-0.05,0.617,0.617,0,0,0,.32-0.65,25.457,25.457,0,0,0,.07-2.64v-2.15Zm1.09,1.04a0.176,0.176,0,0,0,.08.15,4.271,4.271,0,0,0,1.39.19,1.556,1.556,0,0,0,.94-0.22,2.161,2.161,0,0,0,.76-1.86,2.1,2.1,0,0,0-2.17-2.39,5.391,5.391,0,0,0-.9.07,0.15,0.15,0,0,0-.1.14v3.92Zm15.28,3.31a5.5,5.5,0,0,1-1.73-4.25,5.393,5.393,0,0,1,5.95-5.44,12.083,12.083,0,0,1,2.07.17,12.667,12.667,0,0,0,1.46.22c0.15,0.01.18,0.07,0.18,0.15,0,0.12-.04.29-0.07,0.81-0.03.47-.03,1.26-0.04,1.47s-0.04.3-.13,0.3-0.11-.1-0.11-0.3a1.978,1.978,0,0,0-.6-1.46,4.747,4.747,0,0,0-2.86-.82,4.321,4.321,0,0,0-3.28,1.05,4.809,4.809,0,0,0-1.28,3.74,5.168,5.168,0,0,0,5.15,5.25,3.257,3.257,0,0,0,2.48-.72,2.752,2.752,0,0,0,.53-1.2c0.03-.16.06-0.22,0.14-0.22s0.1,0.1.1,0.22a15.34,15.34,0,0,1-.31,1.83,0.517,0.517,0,0,1-.37.42,8.258,8.258,0,0,1-2.57.32A6.563,6.563,0,0,1,1130.43,2578.65Zm13.82-7.63c0.16-.4.22-0.47,0.3-0.47a0.6,0.6,0,0,1,.3.44c0.23,0.52,2.24,5.55,3.01,7.4,0.46,1.09.8,1.25,1.07,1.33a1.656,1.656,0,0,0,.5.07,0.14,0.14,0,0,1,.16.1c0,0.08-.14.1-0.29,0.1-0.18,0-1.11,0-1.98-.02a0.619,0.619,0,0,1-.44-0.09c0-.06.03-0.06,0.08-0.09a0.223,0.223,0,0,0,.12-0.33l-1.13-2.79a0.092,0.092,0,0,0-.11-0.07h-2.9a0.135,0.135,0,0,0-.13.1l-0.71,1.95a2.389,2.389,0,0,0-.19.81,0.361,0.361,0,0,0,.43.33h0.12a0.1,0.1,0,0,1,.12.1c0,0.08-.07.1-0.18,0.1-0.3,0-.99-0.04-1.13-0.04s-0.75.04-1.27,0.04c-0.16,0-.24-0.02-0.24-0.1a0.118,0.118,0,0,1,.11-0.1c0.09,0,.27-0.01.37-0.02a1.406,1.406,0,0,0,1.06-1.12Zm1.4,5.08c0.06,0,.06-0.03.05-0.09l-1.25-3.34q-0.1-.285-0.21,0l-1.17,3.34c-0.01.06,0,.09,0.04,0.09h2.54Zm8.16,2.3c0.73-1.63,2.37-5.79,2.64-6.66a2.083,2.083,0,0,0,.12-0.46,0.266,0.266,0,0,0-.17-0.26,1.6,1.6,0,0,0-.43-0.04,0.138,0.138,0,0,1-.15-0.1c0-.07.09-0.1,0.29-0.1,0.5,0,1.07.03,1.23,0.03,0.07,0,.61-0.03.98-0.03,0.13,0,.2.03,0.2,0.08a0.122,0.122,0,0,1-.14.12,1.181,1.181,0,0,0-.6.14,2.11,2.11,0,0,0-.7,1.12c-0.14.34-.76,1.81-1.4,3.3-0.77,1.77-1.32,3.09-1.61,3.69-0.34.74-.41,0.92-0.54,0.92-0.15,0-.23-0.16-0.47-0.74l-3.09-7.47a1.115,1.115,0,0,0-.87-0.92,2.553,2.553,0,0,0-.48-0.04,0.111,0.111,0,0,1-.1-0.12c0-.07.13-0.08,0.33-0.08,0.6,0,1.31.03,1.47,0.03,0.13,0,.68-0.03,1.17-0.03,0.23,0,.34.03,0.34,0.08a0.118,0.118,0,0,1-.13.12,1.384,1.384,0,0,0-.46.06,0.2,0.2,0,0,0-.14.21,5.43,5.43,0,0,0,.34,1.02Zm8.56-1.95c0,1.18,0,2.14.06,2.64a0.56,0.56,0,0,0,.46.65,4.4,4.4,0,0,0,.57.05,0.1,0.1,0,0,1,.1.1c0,0.06-.06.1-0.2,0.1-0.7,0-1.52-.04-1.57-0.04-0.07,0-.86.04-1.24,0.04-0.13,0-.2-0.02-0.2-0.1a0.1,0.1,0,0,1,.1-0.1,1.652,1.652,0,0,0,.38-0.05,0.608,0.608,0,0,0,.33-0.65c0.06-.5.07-1.46,0.07-2.64v-2.15c0-1.89,0-2.23-.03-2.62a0.575,0.575,0,0,0-.4-0.66,2.039,2.039,0,0,0-.38-0.04,0.107,0.107,0,0,1-.1-0.1c0-.07.06-0.1,0.2-0.1,0.41,0,1.2.03,1.27,0.03,0.05,0,.87-0.03,1.25-0.03,0.15,0,.2.03,0.2,0.1a0.117,0.117,0,0,1-.1.1,1.317,1.317,0,0,0-.31.03c-0.34.07-.41,0.24-0.44,0.67-0.02.39-.02,0.73-0.02,2.62v2.15Zm4.98-2.15c0-1.89,0-2.23-.03-2.62-0.03-.41-0.1-0.62-0.51-0.67a2.9,2.9,0,0,0-.43-0.03,0.128,0.128,0,0,1-.1-0.1c0-.07.06-0.1,0.2-0.1,0.57,0,1.39.03,1.46,0.03s2.71,0.01,2.99,0c0.25-.02.47-0.06,0.57-0.07a0.636,0.636,0,0,1,.18-0.06c0.04,0,.05.06,0.05,0.11,0,0.09-.07.23-0.1,0.58-0.01.11-.04,0.66-0.07,0.8a0.152,0.152,0,0,1-.11.13c-0.07,0-.1-0.06-0.1-0.16a1.524,1.524,0,0,0-.07-0.43c-0.09-.2-0.22-0.29-0.9-0.37-0.22-.03-1.67-0.05-1.81-0.05-0.06,0-.08.05-0.08,0.13v3.31c0,0.09,0,.13.08,0.13,0.15,0,1.81,0,2.09-.03a0.919,0.919,0,0,0,.62-0.17,0.483,0.483,0,0,1,.18-0.15c0.04,0,.07.02,0.07,0.09s-0.07.28-.1,0.68c-0.03.24-.05,0.7-0.05,0.79s-0.03.23-.12,0.23c-0.06,0-.08-0.05-0.08-0.12a1.048,1.048,0,0,0-.06-0.4c-0.04-.17-0.16-0.32-0.64-0.37-0.35-.05-1.69-0.06-1.9-0.06a0.079,0.079,0,0,0-.09.09v1.01c0,0.42-.01,1.84,0,2.08,0.03,0.82.26,0.98,1.5,0.98a4.16,4.16,0,0,0,1.26-.13,0.93,0.93,0,0,0,.57-0.85c0.03-.14.06-0.18,0.13-0.18s0.08,0.1.08,0.18a10.394,10.394,0,0,1-.17,1.18c-0.09.31-.21,0.31-0.7,0.31-0.94,0-1.67-.03-2.18-0.04-0.53-.03-0.86-0.03-1.04-0.03-0.03,0-.27,0-0.55.02-0.24.01-.52,0.02-0.72,0.02-0.13,0-.2-0.02-0.2-0.1a0.1,0.1,0,0,1,.1-0.1c0.11,0,.27-0.04.38-0.05,0.24-.05.27-0.29,0.33-0.65a25.457,25.457,0,0,0,.07-2.64v-2.15Zm11.46,2.15c0,1.18,0,2.14.06,2.64a0.566,0.566,0,0,0,.48.65,4.4,4.4,0,0,0,.57.05,0.088,0.088,0,0,1,.1.1c0,0.06-.06.1-0.2,0.1-0.68,0-1.48-.04-1.55-0.04s-0.93.04-1.3,0.04c-0.14,0-.2-0.02-0.2-0.1a0.086,0.086,0,0,1,.1-0.08,1.587,1.587,0,0,0,.37-0.06,0.617,0.617,0,0,0,.37-0.66c0.06-.5.06-1.46,0.06-2.64v-5.11l-1.81.03a1.335,1.335,0,0,0-1.27.38,1.535,1.535,0,0,0-.2.39,0.121,0.121,0,0,1-.13.11,0.091,0.091,0,0,1-.09-0.1c0-.12.26-1.21,0.27-1.31a0.477,0.477,0,0,1,.13-0.23,4.547,4.547,0,0,0,.56.14c0.35,0.04.84,0.06,0.98,0.06h4.74a6,6,0,0,0,.9-0.06c0.18-.03.3-0.06,0.35-0.06s0.06,0.07.06,0.15c0,0.37-.04,1.24-0.04,1.39a0.131,0.131,0,0,1-.11.15c-0.06,0-.09-0.04-0.1-0.21l-0.02-.13c-0.04-.37-0.31-0.65-1.51-0.67l-1.57-.03v5.11Z" transform="translate(-1071 -2532)"/>
</svg>
