<svg xmlns="http://www.w3.org/2000/svg" width="142" height="72.03" viewBox="0 0 142 72.03">
  <defs>
    <style>
      .cls-1 {
        fill-rule: evenodd;
      }
    </style>
  </defs>
  <path id="icon_dr_caviet.svg" class="cls-1" d="M956.788,2595.2a0.489,0.489,0,0,0-.1-0.47s0.1-.37-0.162-0.42c0,0,.162-0.34.265-0.56s0.273-.53,0-0.48c-1.028.05-1.451-.15-1.774-0.1a5.134,5.134,0,0,0-1.046.91,3.071,3.071,0,0,1-1.574.8,60.269,60.269,0,0,0-6.1-.69c0.034-.61.066-1.46,0.084-2.36,1.1,0.49,1.818.68,2.023,0.06a18.232,18.232,0,0,0,.261-5.39c-0.049-1.24.185-1.63,0.8-1.94,0.542-.27,1.418-0.58,1.628-0.7,0.222-.1-0.2-0.68.122-1.56,0.22-.33-0.094-0.29-0.291.06a4.6,4.6,0,0,0-.234,1.21s-0.081-.87-0.123-1.15c-0.025-.24-0.28-0.16-0.5-0.22a0.223,0.223,0,0,1-.151-0.09,3.771,3.771,0,0,0,.22-0.99,4.168,4.168,0,0,1-.212-0.93,0.772,0.772,0,0,0,.863-0.21,0.843,0.843,0,0,1-.822-0.15,2.448,2.448,0,0,1,.2-0.6c0.459-.97,0-2.2-1.5-3.22a5.391,5.391,0,0,0-3.468-.79,3.175,3.175,0,0,0-3.668-.66,2.463,2.463,0,0,0-1.047,1.58c-0.075.32-.235,2.7-1.545,3.17-1.68.64-.96,2.75,1.14,2.59a3.482,3.482,0,0,1-.91-0.4c-0.382-.26-0.594-0.64.026-0.73a5.516,5.516,0,0,0,2.624-.94,6.867,6.867,0,0,0,.977,1.99c0.383,0.59,1.02,1.13-1.189,2.68-2.834-.86-3.491.33-4.619,2.04-1.989,2.35-3.477,3.62-4.955,3.99a3.045,3.045,0,0,1-.855-0.48c-1.937-1.72-3.858-2.27-5.447-1.93-1.6-.41-3.209-0.11-4.994,1.98-0.323.38-.547,0.54-1.99,0.86a10.347,10.347,0,0,0-2.122.89c1.374-1.94,3.5-5.74,4.275-6.75,0.959-1.3,1.348-1.18,2.326-.91a1.186,1.186,0,0,0,1.6-.93,1.728,1.728,0,0,1,.97-1.54,2.992,2.992,0,0,0,1.3-2.06,1.346,1.346,0,0,0,.692-1.17c-0.056-.39-0.322-0.5-0.543-0.06a10.143,10.143,0,0,1-2.584,1.82,18.966,18.966,0,0,0-3.921,2.7c-1.184,1.18-8.664,8.28-10.662,10.91v0.07a7.021,7.021,0,0,1-1.58-.4c-1.518-.48-3.448-1.29-8.937-0.05s-7.212,1.19-7.916.55-0.8-1.41-1.826-1.31c-1.02.13-1.342,1.58-2.033,1.68a11.122,11.122,0,0,0-2.236.56c-0.575.27-.735,0.46-1.109,0.62-0.536-.27-1.614.11-1.514,0.82,0.036,0.19,1.021-.07,2.424.04a51.944,51.944,0,0,0,6.294-.44,30.548,30.548,0,0,1,4.524.28c1.4,0.16,9.847.52,11.521,0.43,0.967-.06,2.26.48,3.7,0.22,1.464-.28,3.8-0.1,5.735-0.39,1.936-.26,6.091-0.85,7.2-0.8a42.282,42.282,0,0,0,8.786-.21,36.637,36.637,0,0,0,7.37-2.75,2.651,2.651,0,0,0,2.627.44,0.927,0.927,0,0,0,.478-0.6,19.475,19.475,0,0,0,.508,3.07c0.211,0.31,1.052.68,3.05,0.68a47.119,47.119,0,0,0,4.748-.26,5.4,5.4,0,0,1,1.785.26,1.354,1.354,0,0,0,1.459-.47,1.437,1.437,0,0,1,.581-0.37l0.651,0.21-0.109.32a0.809,0.809,0,0,0-.841.19s0.655,0.15.916,0.2c0.281,0.06.315-.28,0.569-0.65C957.186,2595.42,956.95,2595.42,956.788,2595.2Zm-11.509-9.78c0.355-.4.807-0.95,1.068-1.18a1.12,1.12,0,0,1,.909-0.33,0.357,0.357,0,0,0-.11.48,1.267,1.267,0,0,1,.322,1.28,19.515,19.515,0,0,0-.731,3.57l-0.349-.27c0-.9-0.006-1.71-0.041-2.25A1.568,1.568,0,0,0,945.279,2585.42Zm11.1,8.31-0.144.33-0.492-.39Zm-6.192-10.56-0.349-.59a0.426,0.426,0,0,0,.375.08Zm18.536-21.33,4.267,0.32-4.267.32,2.846,4.23-3.184-3.8-0.23,5.69-0.239-5.69-3.177,3.8,2.855-4.23-4.264-.32,4.264-.32-2.855-4.24,3.177,3.78,0.239-5.67,0.23,5.67,3.184-3.78Zm-7.755,6.22,2.719,0.19-2.719.21,1.808,2.69-2.012-2.4-0.142,3.61-0.154-3.61-2.039,2.4,1.817-2.69-2.71-.21,2.71-.19-1.817-2.7,2.039,2.41,0.154-3.61,0.142,3.61,2.012-2.41Zm4.587,4.22,1.42,0.09-1.42.11,0.958,1.41-1.06-1.26-0.084,1.89-0.075-1.89-1.062,1.26,0.94-1.41-1.418-.11,1.418-.09-0.94-1.43,1.062,1.27,0.075-1.89,0.084,1.89,1.06-1.27Zm-0.221,4.99,0.89,0.06-0.89.07,0.6,0.91-0.687-.81-0.045,1.2-0.058-1.2-0.669.81,0.609-.91-0.917-.07,0.917-.06-0.609-.9,0.669,0.81,0.058-1.22,0.045,1.22,0.687-.81Zm-6.014-17.42,1.74,0.14-1.74.12,1.165,1.74-1.309-1.56-0.095,2.34-0.109-2.34-1.293,1.56,1.157-1.74-1.739-.12,1.739-.14-1.157-1.75,1.293,1.58,0.109-2.34,0.095,2.34,1.309-1.58Zm2.38,15.77,1.179,0.09-1.179.08,0.8,1.17-0.882-1.04-0.056,1.58-0.068-1.58-0.877,1.04,0.782-1.17-1.172-.08,1.172-.09-0.782-1.17,0.877,1.05,0.068-1.56,0.056,1.56,0.882-1.05Zm-3.085,3.52,1.088,0.09-1.088.07,0.731,1.09-0.806-.96-0.062,1.43-0.068-1.43-0.806.96,0.732-1.09-1.1-.07,1.1-.09-0.732-1.08,0.806,0.97,0.068-1.44,0.062,1.44,0.806-.97Zm12.256-7.38,2.051,0.14-2.051.15,1.36,2.04-1.518-1.81-0.109,2.71-0.123-2.71-1.519,1.81,1.359-2.04-2.039-.15,2.039-.14-1.359-2.04,1.519,1.83,0.123-2.74,0.109,2.74,1.518-1.83ZM885.4,2527.91h2.709c8.027,0,12.241,3.74,12.241,10.43,0,6.82-4.051,10.91-10.872,10.91-2.929,0-4.078-.61-4.078-2.79v-18.55Zm-6.4,22.08h9.888c4.221,0,7.45-.51,10.475-2.82a11.072,11.072,0,0,0,4.563-9.1,10.449,10.449,0,0,0-4.426-8.77c-2.725-1.9-6.16-2.34-10.745-2.34-1.42,0-4.693.14-9.755,0.38v0.77h0.377c2.011,0,2.844.78,2.844,2.66v15.82c0,1.89-.833,2.62-2.844,2.62H879v0.78Zm27.472-13.08v-0.63l4.556-1.45h0.228v3.58l1.435-1.77c0.615-.74.918-1.35,1.668-1.35,0.974,0,2,.78,3.431.81l-0.918,2.21H916.8c-1.123,0-2.108-.92-3.127-0.92a2.155,2.155,0,0,0-1.569,1.09l-0.852,1.01v7.65c0,1.57.415,2.11,2.14,2.14v0.71H906.47v-0.71c1.724-.03,2.142-0.57,2.142-2.14v-8.33C908.612,2537.67,908.171,2537.36,906.47,2536.91ZM921,2548.6a1.865,1.865,0,1,1-1.85-1.72A1.784,1.784,0,0,1,921,2548.6Zm16.8-20.9a9.967,9.967,0,0,0-6.8,2.7,10.267,10.267,0,0,0-2.825,7.27c0,7.09,4.324,11.86,10.161,11.86,3.653,0,6.644-1.78,8.785-5.26l0.815,0.09-2.273,5.23H945.21c-2.3,0-4.6.95-7.205,0.95a13.887,13.887,0,0,1-9.174-2.92,10.814,10.814,0,0,1-4.009-8.53,12.059,12.059,0,0,1,2.481-7.24,12.609,12.609,0,0,1,10.157-5,29.828,29.828,0,0,1,7.079,1.2,7.637,7.637,0,0,0,1.417.24,3.037,3.037,0,0,0,.758-0.11l0.338,5.33-0.959.04C944.327,2529.72,941.47,2527.7,937.8,2527.7Zm19.794,15.71v4.14a5.253,5.253,0,0,1-3.1,1.5,1.9,1.9,0,0,1-1.9-1.97,2.014,2.014,0,0,1,1.013-1.85A39.486,39.486,0,0,0,957.594,2543.41Zm0,4.89c0.138,1.39.842,2.14,1.9,2.14,0.917,0,2-.73,3.44-2.07l-0.169-.52a3.244,3.244,0,0,1-1.7.64c-0.89,0-.917-0.67-0.917-1.9v-6.44c0-1.74-.042-2.86-1.356-3.94a4.375,4.375,0,0,0-2.832-.96c-2.752,0-5.435,2.24-5.435,4.45v0.14l2.512-1.03a2.575,2.575,0,0,1-.032-0.5,1.8,1.8,0,0,1,2.046-1.9c2.03,0,2.549,1.22,2.549,3.63v2.58c-2.549,1.15-4.487,1.66-5.546,2.1a2.89,2.89,0,0,0-1.836,2.72c0,1.84,1.19,2.95,3.229,2.95A5.59,5.59,0,0,0,957.594,2548.3Zm7.206-8.67c-0.849-2-1.395-3.06-3.4-3.22v-0.72h7.35v0.72c-1.494.1-2.116,0.26-2.116,0.95a3.006,3.006,0,0,0,.316,1.14l3.6,8.67,3.328-7.47a4.944,4.944,0,0,0,.51-1.9c0-.89-0.815-1.29-2.444-1.39v-0.72h6.227v0.72c-1.813.34-2.457,1.74-3.435,3.97l-4.3,9.86-1.034.09Zm15.144-2.72v-0.63l4.536-1.45h0.273v12.31c0,1.57.368,2.11,2.115,2.14l0.027,0.71h-6.951v-0.71c1.75-.03,2.159-0.57,2.159-2.14v-8.33C982.1,2537.67,981.652,2537.36,979.944,2536.91Zm10.474,2.93c0.444-2.42,1.766-3.74,3.571-3.74s3.2,1.39,3.506,3.74h-7.077Zm9.832,6.92-0.343-.4a6.34,6.34,0,0,1-4.459,2.24c-3.059,0-5.311-2.55-5.311-6.59a10.494,10.494,0,0,1,.112-1.45h10.331v-0.66c-1.656-2.99-2.582-4.68-5.911-4.68-3.944,0-6.9,3.15-6.9,7.78,0,4.43,2.75,7.47,6.322,7.47C996.375,2550.47,998.311,2549.25,1000.25,2546.76Zm8.16,1.61a3.972,3.972,0,0,0,2.54-1.57l0.53,0.64c-1.13,1.94-2.46,2.95-3.78,2.95-2.65,0-3.64-2.07-3.64-6.12v-6.91h-2v-0.85c1.98-.48,3.4-2.01,4.04-4.46h0.69v3.64h4.31v1.67h-4.31v7.02C1006.79,2547.04,1006.88,2548.37,1008.41,2548.37Zm-20.749-18.09c-3.484.02-4.419,1.16-4.408,5.34-0.011-4.18-.952-5.29-4.436-5.22,3.484-.07,4.417-1.22,4.4-5.4C983.234,2529.18,984.177,2530.3,987.661,2530.28Zm25.039,5.79a4.15,4.15,0,1,0,4.14-4.15A4.138,4.138,0,0,0,1012.7,2536.07Zm0.37,0a3.775,3.775,0,1,1,3.77,3.78A3.779,3.779,0,0,1,1013.07,2536.07Zm2.96-1.78c0-.21.07-0.26,0.44-0.26a1.027,1.027,0,0,1,1.24.96c0,1.03-1.07,1.04-1.68,1.04v-1.74Zm3.25,4.05a0.835,0.835,0,0,1-.62-0.33l-1.46-1.8a1.32,1.32,0,0,0,1.29-1.21c0-1.09-1.18-1.23-1.82-1.23h-1.95v0.12c0.49,0.05.59,0.13,0.59,0.66v3.07c0,0.54-.03.69-0.59,0.72v0.14h1.96v-0.14c-0.56-.02-0.65-0.17-0.65-0.64v-1.41h0.42l1.69,2.19h1.14v-0.14Zm-131.224,25.15h-0.511l-0.179-2.94c-0.05-.94-0.117-2.07-0.109-2.78h-0.036c-0.212.71-.473,1.45-0.814,2.37l-1.258,3.35h-0.365l-1.174-3.27c-0.336-.97-0.6-1.74-0.773-2.45h-0.014c-0.034.75-.077,1.82-0.146,2.86l-0.186,2.86h-0.5l0.444-6.29h0.622l1.266,3.49c0.288,0.81.491,1.44,0.67,2.07h0.024a19.357,19.357,0,0,1,.7-2.06l1.3-3.5h0.638Zm1.624,0v-6.29h3.106v0.43H890.2v2.43h2.383v0.43H890.2v3H889.68Zm4.6-6.29h0.509v6.29h-0.509v-6.29Zm2.334,0.06a8.984,8.984,0,0,1,1.341-.12c1.937,0,2.149,1.21,2.149,1.77a1.993,1.993,0,0,1-2.265,1.98,2.8,2.8,0,0,1-.73-0.06v2.66h-0.5v-6.23Zm0.5,3.12a2.112,2.112,0,0,0,.756.1,1.5,1.5,0,0,0,1.74-1.5,1.412,1.412,0,0,0-1.655-1.41,4.807,4.807,0,0,0-.841.07v2.74Zm11,2.91a4.115,4.115,0,0,1-1.642.3,2.879,2.879,0,0,1-2.929-3.21,3.017,3.017,0,0,1,3.141-3.28,3.25,3.25,0,0,1,1.414.26l-0.162.45a2.722,2.722,0,0,0-1.252-.28,2.528,2.528,0,0,0-2.606,2.85,2.462,2.462,0,0,0,2.542,2.78,3.171,3.171,0,0,0,1.377-.3Zm4.18-.87a6.892,6.892,0,0,0,.061,1.07h-0.478l-0.06-.63h-0.034a1.576,1.576,0,0,1-1.384.74,1.224,1.224,0,0,1-1.308-1.25c0-1.06.925-1.66,2.683-1.64a1.132,1.132,0,0,0-1.1-1.4,1.964,1.964,0,0,0-1.105.33l-0.144-.36a2.49,2.49,0,0,1,1.307-.39,1.521,1.521,0,0,1,1.565,1.79v1.74Zm-0.511-1.32c-0.941,0-2.151.13-2.151,1.17a0.821,0.821,0,0,0,.85.91,1.248,1.248,0,0,0,1.3-1.14v-0.94Zm5.607-2.12-1.776,4.51h-0.459l-1.717-4.51h0.538l1,2.76c0.178,0.43.307,0.81,0.424,1.17h0.011c0.118-.34.269-0.75,0.425-1.17l1.007-2.76h0.546Zm1.419-.84a0.391,0.391,0,0,1-.383-0.41,0.4,0.4,0,0,1,.383-0.42,0.386,0.386,0,0,1,.382.42A0.378,0.378,0,0,1,918.807,2558.14Zm0.247,5.35h-0.52V2559h0.52v4.49Zm1.969-5.3,0.512-.19v1h1.23v0.42h-1.23v2.82c0,0.58.166,0.92,0.644,0.92a1.752,1.752,0,0,0,.478-0.06l0.057,0.39a1.867,1.867,0,0,1-.618.1c-0.937,0-1.073-.74-1.073-1.42v-2.75H920.3V2559h0.719v-0.81Zm5.844,4.23a8.746,8.746,0,0,0,.069,1.07h-0.474l-0.053-.63h-0.034a1.574,1.574,0,0,1-1.383.74,1.238,1.238,0,0,1-1.319-1.25c0-1.06.935-1.66,2.694-1.64a1.132,1.132,0,0,0-1.1-1.4,2.023,2.023,0,0,0-1.122.33l-0.143-.36a2.571,2.571,0,0,1,1.314-.39,1.515,1.515,0,0,1,1.554,1.79v1.74Zm-0.5-1.32c-0.936,0-2.143.13-2.143,1.17a0.819,0.819,0,0,0,.842.91,1.248,1.248,0,0,0,1.3-1.14v-0.94Zm2.415-2.91,0.514-.19v1h1.226v0.42H929.3v2.82c0,0.58.171,0.92,0.638,0.92a1.833,1.833,0,0,0,.491-0.06l0.046,0.39a1.836,1.836,0,0,1-.629.1c-0.916,0-1.06-.74-1.06-1.42v-2.75h-0.733V2559h0.733v-0.81Zm3.277-.05a0.394,0.394,0,0,1-.374-0.41,0.41,0.41,0,0,1,.39-0.42,0.388,0.388,0,0,1,.383.42A0.38,0.38,0,0,1,932.059,2558.14Zm0.262,5.35h-0.507V2559h0.507v4.49Zm5.6-2.28a2.164,2.164,0,0,1-2.119,2.39,2.1,2.1,0,0,1-2.046-2.32,2.162,2.162,0,0,1,2.113-2.39A2.085,2.085,0,0,1,937.922,2561.21Zm-2.074-1.9a1.983,1.983,0,0,0-.026,3.87,1.763,1.763,0,0,0,1.574-1.95A1.738,1.738,0,0,0,935.848,2559.31Zm7.036,4.18h-0.513v-2.66a1.256,1.256,0,0,0-1.182-1.51,1.377,1.377,0,0,0-1.331,1.4v2.77h-0.51v-3.39c0-.42-0.016-0.75-0.027-1.1h0.458l0.047,0.78h0.013a1.649,1.649,0,0,1,1.5-.89,1.6,1.6,0,0,1,1.548,1.89v2.71Zm-60.7,4.58a2.293,2.293,0,0,1,.49-1.61,1.4,1.4,0,0,1,1.013-.38,1.442,1.442,0,0,1,.651.15l-0.124.39a1.342,1.342,0,0,0-.554-0.12c-0.791,0-.959.74-0.959,1.56v0.26h1.164v0.39H882.7v4.1h-0.517v-4.1h-0.638v-0.39h0.638v-0.25Zm6.556,2.44a2.154,2.154,0,0,1-2.1,2.39,2.074,2.074,0,0,1-2.058-2.3,2.157,2.157,0,0,1,2.1-2.39A2.079,2.079,0,0,1,888.743,2570.51Zm-2.074-1.89a1.981,1.981,0,1,0,1.547,1.93A1.736,1.736,0,0,0,886.669,2568.62Zm5.419,0.09a1.412,1.412,0,0,0-.22-0.01,1.446,1.446,0,0,0-1.189,1.63v2.48H890.17v-3.16c0-.45-0.007-0.89-0.026-1.34H890.6l0.018,0.9h0.043a1.343,1.343,0,0,1,1.232-1c0.068,0,.136.02,0.193,0.02v0.48Zm6.246-1.58a2.134,2.134,0,0,0-1.095-.29,1.143,1.143,0,0,0-1.308,1.08c0,0.7.4,1.04,1.274,1.39,1.011,0.44,1.553.94,1.553,1.86a1.765,1.765,0,0,1-2,1.73,2.805,2.805,0,0,1-1.485-.41l0.177-.43a2.506,2.506,0,0,0,1.348.4,1.253,1.253,0,0,0,1.438-1.24,1.507,1.507,0,0,0-1.213-1.46,1.934,1.934,0,0,1-1.607-1.74,1.676,1.676,0,0,1,1.859-1.61,2.52,2.52,0,0,1,1.234.28Zm2.421,5.68h-0.519v-6.64h0.519v6.64Zm2.047-5.35a0.416,0.416,0,0,1,.007-0.83A0.416,0.416,0,0,1,902.8,2567.46Zm0.265,5.35H902.54v-4.49h0.527v4.49Zm7.906,0h-0.5v-2.62c0-.96-0.375-1.55-1.123-1.55a1.27,1.27,0,0,0-1.179,1.31v2.86H907.66v-2.8a1.152,1.152,0,0,0-1.054-1.37,1.365,1.365,0,0,0-1.246,1.41v2.76h-0.511v-3.41c0-.43-0.015-0.74-0.035-1.08h0.47l0.042,0.77h0.008a1.544,1.544,0,0,1,1.427-.88,1.312,1.312,0,0,1,1.255.95h0.019a1.569,1.569,0,0,1,1.486-.95c0.484,0,1.452.28,1.452,1.93v2.67Zm7.868,0h-0.508v-2.62c0-.96-0.368-1.55-1.108-1.55a1.28,1.28,0,0,0-1.2,1.31v2.86h-0.5v-2.8a1.153,1.153,0,0,0-1.06-1.37,1.374,1.374,0,0,0-1.244,1.41v2.76h-0.5v-3.41c0-.43-0.027-0.74-0.035-1.08h0.46l0.033,0.77h0.008a1.577,1.577,0,0,1,1.435-.88,1.317,1.317,0,0,1,1.259.95h0.02a1.569,1.569,0,0,1,1.484-.95c0.487,0,1.453.28,1.453,1.93v2.67Zm2-5.35a0.416,0.416,0,0,1,.008-0.83A0.416,0.416,0,0,1,920.837,2567.46Zm0.254,5.35h-0.507v-4.49h0.507v4.49Zm5.326,0H925.9v-2.66a1.252,1.252,0,0,0-1.181-1.51,1.373,1.373,0,0,0-1.327,1.38v2.79h-0.507v-3.41c0-.43-0.026-0.74-0.043-1.08h0.466l0.042,0.78h0.018a1.664,1.664,0,0,1,1.5-.89,1.6,1.6,0,0,1,1.544,1.88v2.72Zm5.342-4.49a11.416,11.416,0,0,0-.048,1.18v2.66a2.622,2.622,0,0,1-.6,2.06,2.2,2.2,0,0,1-1.519.55,2.476,2.476,0,0,1-1.409-.39l0.169-.4a2.41,2.41,0,0,0,1.3.35,1.464,1.464,0,0,0,1.546-1.74v-0.61h-0.015a1.6,1.6,0,0,1-1.485.83,2.015,2.015,0,0,1-1.889-2.21,2.129,2.129,0,0,1,1.979-2.39,1.518,1.518,0,0,1,1.443.83h0.021l0.024-.72h0.482Zm-0.56,1.72a1.376,1.376,0,0,0-1.357-1.42c-0.9,0-1.513.77-1.513,1.94a1.594,1.594,0,0,0,1.506,1.83,1.4,1.4,0,0,0,1.364-1.43v-0.92Z" transform="translate(-879 -2525)"/>
</svg>
