<svg xmlns="http://www.w3.org/2000/svg" xmlns:xlink="http://www.w3.org/1999/xlink" width="48" height="44.03" viewBox="0 0 48 44.03">
  <defs>
    <style>
      .cls-1 {
        fill: #3e3e3e;
        fill-rule: evenodd;
        filter: url(#filter);
      }
    </style>
    <filter id="filter" x="668" y="2335" width="48" height="44.03" filterUnits="userSpaceOnUse">
      <feFlood result="flood" flood-color="#835b84"/>
      <feComposite result="composite" operator="in" in2="SourceGraphic"/>
      <feBlend result="blend" in2="SourceGraphic"/>
    </filter>
  </defs>
  <path id="icon_ec.svg" class="cls-1" d="M677.345,2335.24a0.314,0.314,0,0,0,.116-0.03v-0.03h0.083v-0.03c0.046-.01.084-0.03,0.123-0.04v-0.02h0.082v-0.03h0.093v-0.03h0.205V2335h36.671v0.03a2.3,2.3,0,0,1,.259.01v0.02h0.054v0.03h0.091v0.02h0.062v0.04h0.054v0.03H715.3v0.03a0.264,0.264,0,0,0,.122.03,0.5,0.5,0,0,0,.022.08,0.539,0.539,0,0,0,.123.03c0.014,0.08,0,.07.084,0.09v0.07c0.038,0.08.1,0.01,0.122,0.17h0.053v0.08h0.055a0.8,0.8,0,0,0,.091.28c0,0.21.022,0.44,0.029,0.65h-0.029v0.21h-0.032v0.18h-0.022v0.15H715.88v0.23h-0.024v0.06h-0.031v0.23c-0.115.39-.144,0.9-0.259,1.29v0.23h-0.031v0.1h-0.03v0.24h-0.039v0.05h-0.023v0.27h-0.022v0.06h-0.04v0.26H715.36v0.13h-0.032v0.17H715.3v0.21h-0.032v0.09h-0.029v0.27h-0.032v0.05h-0.022v0.24h-0.031v0.09h-0.031v0.24h-0.029v0.09h-0.031c-0.008.13-.016,0.26-0.031,0.38H715v0.16h-0.024v0.23h-0.029v0.06h-0.031a2.116,2.116,0,0,1-.008.23h-0.023c-0.009.12-.015,0.23-0.031,0.33h-0.022v0.09H714.8v0.24h-0.03c-0.016.11-.016,0.22-0.031,0.33h-0.023v0.18h-0.029v0.12h-0.031v0.26c-0.024.01-.039,0.02-0.063,0.03,0,0.1,0,.18-0.008.28h-0.031v0.05h-0.021v0.27h-0.022v0.09h-0.032v0.21h-0.03v0.14H714.42v0.18h-0.031v0.2h-0.022v0.1h-0.031v0.23H714.3v0.09h-0.022v0.24h-0.039v0.09h-0.023c0,0.08,0,.16-0.007.24h-0.031v0.09h-0.023v0.23h-0.031v0.15H714.1v0.15h-0.032v0.21h-0.03v0.09h-0.032v0.26h-0.021v0.07h-0.031v0.24h-0.031c-0.008.11-.023,0.21-0.031,0.32h-0.029v0.12h-0.032v0.18H713.8v0.21h-0.03v0.11H713.74v0.24h-0.022v0.09h-0.024v0.24h-0.038v0.06h-0.021v0.26H713.6v0.06h-0.031v0.24h-0.029v0.15h-0.025v0.18h-0.03v0.24H713.45v0.06h-0.022v0.26a0.6,0.6,0,0,0-.062.03v0.27h-0.03v0.09h-0.023v0.23h-0.031c-0.007.12-.021,0.22-0.037,0.33h-0.023v0.18h-0.039v0.13h-0.021v0.23h-0.025v0.09h-0.032v0.21h-0.036v0.09h-0.031v0.23h-0.023v0.09h-0.029v0.24h-0.032v0.15h-0.032v0.17h-0.03v0.21H712.87v0.09h-0.03v0.27a0.434,0.434,0,0,1-.061.03v0.27H712.75v0.08h-0.025v0.21h-0.031c-0.007.11-.022,0.22-0.022,0.33h-0.038c0,0.07,0,.14-0.007.21H712.6v0.11h-0.03v0.25h-0.025v0.05H712.52a2.307,2.307,0,0,1-.008.24h-0.023a0.139,0.139,0,0,1-.009.06h-0.022v0.23h-0.024c-0.029.25-.059,0.49-0.091,0.73a1.233,1.233,0,0,1,.291.05h0.258v0.03h0.062v0.03h0.328v0.04h0.054v0.02h0.2a0.128,0.128,0,0,1,.029.06h0.091a0.193,0.193,0,0,1,.038.06H713.8a0.187,0.187,0,0,1,.03.06l0.123,0.03v0.06h0.052v0.06h0.062v0.05h0.053a0.552,0.552,0,0,1,.092.22h0.062a0.644,0.644,0,0,0,.022.12h0.038v0.11a0.108,0.108,0,0,0,.053.03v0.21h0.031v3.47h-0.031v0.18h-0.022v0.1h-0.031v0.08H714.3a0.441,0.441,0,0,0-.022.13h-0.062c-0.013.09-.068,0.1-0.092,0.2h-0.053v0.06h-0.062v0.06a0.447,0.447,0,0,1-.114.02c-0.007.04-.023,0.06-0.029,0.1-0.062.01-.124,0.04-0.17,0.05v0.04h-0.129a0.173,0.173,0,0,1-.029.05h-0.254v0.04h-1.733c-0.115-.02-0.229-0.03-0.351-0.04a8.516,8.516,0,0,1-1.61.04H685.124a3.665,3.665,0,0,0-.58,0h-1.725a2.948,2.948,0,0,0-.793.02c0.014,0.09.046,0.18,0.053,0.27h0.039v0.15h0.029v0.06h0.024v0.17a0.358,0.358,0,0,0,.061.04v0.17h0.03v0.06h0.03v0.15h0.024v0.06h0.03a2.477,2.477,0,0,1,.03.27h0.031v0.09h0.031V2365h0.03v0.05H682.5v0.21a0.061,0.061,0,0,0,.052.02v0.19c0.024,0.01.039,0.02,0.062,0.03v0.18h0.033v0.06h0.021c0.03,0.17.061,0.33,0.092,0.5h0.03v0.06h0.03v0.15a0.375,0.375,0,0,0,.063.03v0.17h0.027v0.07h0.025v0.18h0.031v0.09H683v0.08h0.029v0.18a0.243,0.243,0,0,0,.055.04v0.17h0.032v0.07h0.03v0.17a0.342,0.342,0,0,1,.052.03,1.355,1.355,0,0,0,.008.18h0.023v0.05h0.038v0.16s0.016,0,.022.05H702.22v0.03h0.236v-0.03h1.015v0.03l0.3-.03h1.314v0.03h0.359l2.542-.03v0.03h0.4a0.709,0.709,0,0,1,.267-0.03v0.03c0.168,0.01.327,0.02,0.5,0.04v0.06a1.585,1.585,0,0,1,.436.14v0.06h0.1v0.07h0.054v0.05a0.315,0.315,0,0,1,.207.21H710c0.014,0.08.038,0.06,0.061,0.15h0.061v0.11h0.061a0.613,0.613,0,0,0,.085.22,0.676,0.676,0,0,0,.006.11h0.032v0.07h0.022v0.2h0.023v0.5h-0.023v0.2h-0.022v0.07h-0.038v0.12h-0.032a0.372,0.372,0,0,1-.038.12h-0.015v0.08h-0.038c-0.007.03-.016,0.06-0.023,0.09h-0.061a1.12,1.12,0,0,1-.061.19,0.785,0.785,0,0,1-.09.03v0.11h0.065v0.06a1.464,1.464,0,0,0,.147.07v0.05a1.507,1.507,0,0,1,.206.1v0.05h0.054v0.06h0.06v0.06H710.5v0.06c0.084,0.02.077,0.01,0.094,0.08h0.067v0.07h0.054v0.05h0.054a2.15,2.15,0,0,1,.144.28h0.062c0.022,0.08.038,0.06,0.06,0.14h0.062c0.038,0.19.183,0.27,0.2,0.44h0.054a0.246,0.246,0,0,0,.032.15h0.03v0.07h0.029c0.01,0.04.017,0.09,0.032,0.14h0.03v0.13a0.088,0.088,0,0,1,.053.03v0.14h0.061a0.353,0.353,0,0,0,.039.21h0.023v0.2h0.03v0.09h0.03v0.31a2.454,2.454,0,0,1,.055.76h-0.032v0.33h-0.023v0.2H711.7v0.13h-0.03v0.14h-0.023v0.07H711.61v0.18c-0.022.01-.038,0.02-0.061,0.03v0.11h-0.022v0.06H711.5v0.09h-0.03c-0.047.11-.077,0.22-0.123,0.33h-0.054a0.276,0.276,0,0,1-.091.21v0.06h-0.023v0.07h-0.03a0.125,0.125,0,0,0-.053.14H711.03v0.08c-0.046.03-.084,0.06-0.122,0.09v0.07h-0.023c-0.022.02-.044,0.06-0.069,0.08s-0.038.02-.052,0.03v0.05c-0.046.04-.078,0.07-0.108,0.1-0.084.09-.168,0.17-0.244,0.26h-0.061c-0.039.06-.077,0.1-0.115,0.16h-0.053a0.432,0.432,0,0,0-.092.12H710v0.05a2.608,2.608,0,0,1-.314.15v0.06c-0.136.02-.083,0.05-0.2,0.07v0.05a0.453,0.453,0,0,0-.154.03v0.02h-0.061v0.04h-0.115c-0.007.02-.023,0.04-0.031,0.06H709c0,0.01-.017.04-0.022,0.06H708.8c-0.008.02-.025,0.04-0.031,0.06h-0.146v0.02h-0.059v0.04h-0.2v0.02h-0.183v0.04h-0.261a2.212,2.212,0,0,1-.64.03v-0.03h-0.26v-0.04h-0.206v-0.02h-0.175v-0.04h-0.063v-0.02h-0.166v-0.03h-0.069v-0.03a0.576,0.576,0,0,1-.123-0.01v-0.02h-0.053v-0.03h-0.093c-0.006-.02-0.014-0.04-0.021-0.06h-0.084v-0.04a0.686,0.686,0,0,1-.131-0.02v-0.03h-0.084v-0.03H705.7v-0.02h-0.09a0.173,0.173,0,0,0-.031-0.07h-0.06a0.189,0.189,0,0,0-.024-0.06h-0.053l-0.062-.06h-0.06a0.189,0.189,0,0,1-.024-0.06c-0.03-.01-0.068-0.02-0.092-0.03v-0.02a0.324,0.324,0,0,0-.091-0.03v-0.07c-0.137-.03-0.137-0.11-0.259-0.14v-0.07a1.521,1.521,0,0,1-.65-0.71h-0.061v-0.08H704.09c-0.015-.06-0.038-0.11-0.061-0.18H704v-0.06a0.5,0.5,0,0,0-.053-0.03v-0.09c-0.024-.01-0.04-0.02-0.061-0.03v-0.06a0.263,0.263,0,0,1-.062-0.03v-0.12a0.077,0.077,0,0,0-.054-0.02v-0.09H703.74v-0.07h-0.032a1.255,1.255,0,0,0-.031-0.18c-0.022-.01-0.037-0.02-0.059-0.03v-0.14a0.111,0.111,0,0,0-.054-0.03v-0.19a0.2,0.2,0,0,1-.062-0.02v-0.18h-0.031a0.35,0.35,0,0,0-.007-0.09h-0.023v-0.42a1.979,1.979,0,0,1-.023-0.64h0.023v-0.34h0.03v-0.12H703.5v-0.2h0.03v-0.06h0.032v-0.14a0.119,0.119,0,0,1,.054-0.04v-0.15h0.037v-0.06h0.022a1.053,1.053,0,0,0,.031-0.18h0.032a0.691,0.691,0,0,1,.029-0.14h0.03a0.29,0.29,0,0,0,.024-0.15h0.062c0.029-.2.167-0.26,0.205-0.45h0.053v-0.09H704.2a0.572,0.572,0,0,1,.115-0.21h0.039a0.5,0.5,0,0,1,.022-0.08,0.489,0.489,0,0,0,.092-0.07v-0.06c0.053-.04.115-0.09,0.175-0.14v-0.06H685.858v0.08c0.084,0.03.069,0.01,0.092,0.1h0.061v0.05h0.053c0.024,0.09.045,0.08,0.061,0.15h0.063a0.237,0.237,0,0,0,.053.13h0.022v0.06c0.022,0,.045.02,0.069,0.02v0.06h0.03a0.392,0.392,0,0,1,.023.12h0.061a0.528,0.528,0,0,0,.03.09h0.031v0.1a0.112,0.112,0,0,1,.052.02v0.06l0.062,0.05v0.07h0.024v0.06a0.079,0.079,0,0,1,.054.02v0.12a0.28,0.28,0,0,1,.067.04v0.08H686.8v0.07h0.032v0.08h0.03a0.391,0.391,0,0,0,.007.09h0.024v0.09h0.022v0.15h0.03v0.06h0.031v0.21c0.014,0,.045.02,0.06,0.02v0.33h0.024v0.12h0.031v0.71h-0.031v0.12h-0.024v0.3H687v0.09h-0.03v0.17a0.09,0.09,0,0,1-.061.03c-0.008.1-.022,0.19-0.022,0.28h-0.031v0.05h-0.03v0.12H686.8a0.9,0.9,0,0,1-.031.16h-0.03a0.343,0.343,0,0,0-.037.14h-0.054v0.12H686.59a2.514,2.514,0,0,1-.083.27h-0.061a3.32,3.32,0,0,1-.258.47h-0.063v0.06h-0.061a1.362,1.362,0,0,0-.084.18h-0.062v0.06h-0.06v0.06H685.8c-0.029.08-.007,0.06-0.1,0.09v0.05c-0.091.03-.068,0.07-0.169,0.1v0.06c-0.075.02-.06,0.03-0.143,0.05v0.07H685.3v0.05h-0.082v0.06a0.477,0.477,0,0,1-.125.03,0.121,0.121,0,0,1-.029.06H684.98a0.236,0.236,0,0,1-.029.06H684.9a0.206,0.206,0,0,0-.031.07h-0.093a0.327,0.327,0,0,0-.021.05H684.69v0.03h-0.06v0.02a0.962,0.962,0,0,1-.176.04c-0.009.02-.024,0.04-0.032,0.06h-0.114c-0.014.01-.014,0.04-0.031,0.06H684.14c-0.016.02-.023,0.04-0.038,0.06h-0.168v0.02h-0.061v0.04c-0.137,0-.275.02-0.413,0.02a2.219,2.219,0,0,1-1.144,0h-0.169a1.855,1.855,0,0,0-.442-0.08v-0.06H681.53a0.4,0.4,0,0,0-.032-0.06c-0.067-.01-0.113-0.02-0.167-0.03v-0.03H681.27v-0.04h-0.093v-0.02h-0.06v-0.03h-0.091v-0.03a0.24,0.24,0,0,0-.138-0.02v-0.07H680.8v-0.06a0.4,0.4,0,0,1-.2-0.09,0.184,0.184,0,0,1-.029-0.06h-0.063a0.465,0.465,0,0,0-.032-0.05h-0.06a0.3,0.3,0,0,0-.029-0.07H680.33v-0.02a0.157,0.157,0,0,0-.114-0.06v-0.06a1.039,1.039,0,0,1-.153-0.07v-0.05h-0.052v-0.06h-0.062v-0.06h-0.062v-0.09h-0.052v-0.06h-0.062v-0.06h-0.062c-0.022-.11-0.061-0.08-0.083-0.18h-0.061v-0.09h-0.055a0.627,0.627,0,0,1-.029-0.09h-0.03c-0.009-.02-0.016-0.05-0.031-0.09-0.024-.01-0.038-0.01-0.061-0.02v-0.05a0.064,0.064,0,0,0-.053-0.04v-0.09c-0.024-.01-0.038-0.02-0.062-0.03v-0.07l-0.062-.05c-0.022-.09-0.052-0.18-0.083-0.28a0.19,0.19,0,0,1-.06-0.02v-0.09a0.285,0.285,0,0,0-.054-0.03v-0.12a0.077,0.077,0,0,1-.053-0.03v-0.14H678.9v-0.06h-0.025v-0.16h-0.037v-0.11h-0.022v-0.12H678.78v-0.24h-0.038v-0.15h-0.029v-0.88h0.029v-0.16h0.038v-0.23h0.032c0.007-.09.014-0.18,0.022-0.27a1.275,1.275,0,0,0,.1-0.33h0.053v-0.15h0.054a2.364,2.364,0,0,0,.06-0.26,0.182,0.182,0,0,1,.061-0.03v-0.1h0.022v-0.05h0.032a0.2,0.2,0,0,0,.03-0.12h0.062v-0.09h0.053c0.037-.17.168-0.22,0.206-0.38h0.061c0.03-.14.175-0.19,0.207-0.34a0.883,0.883,0,0,0,.29-0.23,0.4,0.4,0,0,0,.029-0.07h0.062a0.969,0.969,0,0,0,.083-0.11h0.054c0.032-.04.061-0.08,0.091-0.12h0.093v-0.06a0.848,0.848,0,0,0,.137-0.05,1.107,1.107,0,0,1-.076-0.21h-0.061a0.426,0.426,0,0,1-.031-0.1h-0.032v-0.06a0.2,0.2,0,0,1-.06-0.02v-0.09h-0.029v-0.06h-0.032v-0.09H680.33v-0.13H680.3v-0.05h-0.031v-0.12c-0.013-.01-0.039-0.02-0.052-0.03v-0.17a0.246,0.246,0,0,0-.062-0.03v-0.18h-0.029v-0.06h-0.031a2.6,2.6,0,0,0-.031-0.33h-0.031v-0.09h-0.021v-0.14h-0.03a0.21,0.21,0,0,0-.008-0.07h-0.024v-0.17a0.078,0.078,0,0,0-.062-0.03v-0.21a0.1,0.1,0,0,1-.052-0.03v-0.18H679.8v-0.06h-0.03c-0.015-.09-0.015-0.18-0.03-0.27h-0.032a0.567,0.567,0,0,0-.006-0.09h-0.016v-0.26h-0.031c-0.008-.05-0.022-0.08-0.03-0.12h-0.061v-0.17a0.158,0.158,0,0,0-.055-0.04v-0.18h-0.029v-0.11h-0.03v-0.09h-0.031v-0.19h-0.031v-0.05h-0.03v-0.15h-0.03v-0.07h-0.023v-0.17c-0.024-.01-0.038-0.02-0.062-0.03v-0.18h-0.03v-0.06h-0.032v-0.14h-0.022v-0.12h-0.03v-0.1H679.1v-0.14h-0.022a0.155,0.155,0,0,0-.008-0.06h-0.03v-0.18a0.09,0.09,0,0,1-.054-0.02v-0.19a0.077,0.077,0,0,1-.053-0.03v-0.18H678.9V2365h-0.025c-0.013-.09-0.031-0.19-0.037-0.27h-0.022c-0.008-.09-0.024-0.16-0.032-0.24h-0.038v-0.06h-0.029v-0.21h-0.047v-0.21H678.6a1.434,1.434,0,0,0-.083-0.38c-0.015-.08-0.022-0.16-0.03-0.23h-0.032v-0.15h-0.038v-0.07H678.4v-0.14c-0.023-.01-0.037-0.02-0.061-0.03v-0.18h-0.03v-0.06h-0.032v-0.18h-0.023v-0.08h-0.022v-0.12H678.2v-0.16h-0.031v-0.05h-0.038v-0.16a0.417,0.417,0,0,0-.06-0.03v-0.2a0.172,0.172,0,0,0-.054-0.03,1.355,1.355,0,0,0-.008-0.18h-0.022v-0.06h-0.031v-0.15h-0.022v-0.12H677.9v-0.09h-0.031v-0.15h-0.029v-0.05H677.81v-0.18a0.346,0.346,0,0,0-.061-0.03v-0.18a0.4,0.4,0,0,0-.052-0.03v-0.15h-0.03v-0.11h-0.032v-0.1h-0.03v-0.17h-0.03v-0.07h-0.031v-0.14H677.52v-0.06h-0.03v-0.18a0.255,0.255,0,0,1-.06-0.03v-0.17H677.4v-0.06h-0.025v-0.16h-0.03v-0.1h-0.023v-0.1h-0.031v-0.18a0.255,0.255,0,0,0-.06-0.02v-0.19a0.138,0.138,0,0,1-.059-0.03v-0.18a0.138,0.138,0,0,0-.064-0.02v-0.22h-0.03v-0.05h-0.031c-0.007-.09-0.015-0.18-0.023-0.27H677v-0.06H676.97v-0.18c-0.021-.01-0.045-0.01-0.068-0.02v-0.22c-0.015,0-.038-0.02-0.052-0.02v-0.19h-0.031v-0.05h-0.032v-0.15h-0.03v-0.1h-0.029v-0.08H676.7v-0.15h-0.037v-0.09h-0.023v-0.15h-0.03v-0.06H676.59v-0.14h-0.038v-0.06H676.52v-0.15H676.5c-0.023-.12-0.041-0.24-0.063-0.36h-0.029a0.241,0.241,0,0,0-.008-0.08h-0.024v-0.16a0.268,0.268,0,0,0-.061-0.02v-0.21a0.052,0.052,0,0,0-.052-0.03v-0.18a0.133,0.133,0,0,0-.062-0.03v-0.18h-0.023v-0.08h-0.031v-0.1h-0.03v-0.15h-0.03v-0.08h-0.031v-0.15h-0.03v-0.06H676v-0.18c-0.016-.01-0.04-0.02-0.054-0.03v-0.18H675.91v-0.06h-0.031v-0.15h-0.024v-0.08h-0.029v-0.13H675.8v-0.15h-0.032v-0.05h-0.029v-0.18a0.1,0.1,0,0,0-.063-0.03v-0.17a0.294,0.294,0,0,0-.052-0.04v-0.18h-0.031v-0.09h-0.031v-0.11h-0.03v-0.16H675.5v-0.06h-0.024v-0.17c-0.023-.01-0.038-0.02-0.061-0.03v-0.19a0.19,0.19,0,0,1-.06-0.02v-0.18h-0.031v-0.06H675.3v-0.14h-0.029v-0.09h-0.03v-0.12h-0.031v-0.15h-0.03v-0.05h-0.031v-0.19a0.312,0.312,0,0,0-.053-0.03v-0.21a0.186,0.186,0,0,1-.062-0.03v-0.15h-0.022v-0.08h-0.03V2350h-0.03v-0.15h-0.032v-0.06h-0.032v-0.18h-0.021v-0.06h-0.03v-0.15a0.169,0.169,0,0,1-.062-0.03v-0.17h-0.031a0.15,0.15,0,0,0-.007-0.06h-0.022a1.355,1.355,0,0,0-.008-0.18H674.68v-0.08h-0.03v-0.13h-0.023v-0.15H674.6v-0.06h-0.029v-0.15c-0.024,0-.041-0.02-0.062-0.02v-0.21a0.155,0.155,0,0,0-.054-0.03v-0.18h-0.038v-0.06h-0.022v-0.15a1.4,1.4,0,0,1-.114-0.42c-0.032,0-.063-0.02-0.085-0.02v0.05c-0.2.03-.252,0.19-0.45,0.21v0.06h-0.084v0.05a3.1,3.1,0,0,1-.558.28v0.06a0.783,0.783,0,0,0-.259.15h-0.062c-0.016.02-.016,0.03-0.03,0.05H672.7v0.04c-0.047.01-.053,0.01-0.123,0.02v0.07c-0.183.02-.183,0.12-0.343,0.14v0.06c-0.2.03-.244,0.18-0.443,0.21v0.06a0.567,0.567,0,0,0-.091.03v0.04H671.6a0.118,0.118,0,0,1-.023.04c-0.038.02-.077,0.02-0.123,0.04,0,0.01-.016.04-0.021,0.06h-0.062v0.03a0.2,0.2,0,0,1-.123.03v0.06h-0.106v0.06a3.512,3.512,0,0,1-.329.15v0.05h-0.084v0.07h-0.122v0.06a1.936,1.936,0,0,0-.344.14h-0.114v0.03h-0.059v0.03h-0.765a0.285,0.285,0,0,0-.038-0.06h-0.139a0.275,0.275,0,0,1-.029-0.06h-0.116a0.345,0.345,0,0,0-.2-0.08v-0.06h-0.054v-0.07a0.734,0.734,0,0,1-.268-0.15v-0.05h-0.06a0.183,0.183,0,0,0-.062-0.12h-0.022v-0.06a0.5,0.5,0,0,1-.061-0.03v-0.07c-0.023-.01-0.045-0.01-0.062-0.02v-0.09a0.417,0.417,0,0,1-.053-0.03v-0.09l-0.061-.03v-0.12h-0.037v-0.08H668.03v-0.12H668v-0.67a2.309,2.309,0,0,0,.16-0.47h0.053a2.992,2.992,0,0,1,.207-0.39h0.06v-0.04h0.054v-0.07h0.06v-0.06c0.1-.02.108-0.07,0.208-0.09v-0.05h0.084v-0.07h0.121v-0.06a0.7,0.7,0,0,0,.178-0.06v-0.03a0.242,0.242,0,0,1,.144-0.06v-0.05h0.122v-0.07h0.076v-0.05a3.871,3.871,0,0,1,.443-0.21v-0.06c0.183-.04.267-0.19,0.443-0.21v-0.06H670.5v-0.06c0.2-.03.246-0.18,0.444-0.21v-0.05a0.3,0.3,0,0,0,.114-0.03v-0.03h0.092v-0.03a0.193,0.193,0,0,1,.137-0.06v-0.07h0.092v-0.05h0.083v-0.06a0.374,0.374,0,0,0,.184-0.06v-0.03h0.075a0.14,0.14,0,0,0,.032-0.05h0.062a0.247,0.247,0,0,1,.035-0.07H671.9a0.2,0.2,0,0,0,.032-0.06,1.15,1.15,0,0,1,.175-0.05,1.109,1.109,0,0,1,.054-0.1h0.1v-0.03a0.154,0.154,0,0,1,.106-0.02v-0.07h0.1v-0.05c0.183-.03.245-0.19,0.429-0.21V2344c0.2-.04.25-0.19,0.436-0.21v-0.06h0.091v-0.06c0.166-.02.189-0.13,0.358-0.14v-0.07c0.123-.02.076-0.04,0.2-0.06v-0.06c0.139-.03.185-0.12,0.32-0.14v-0.07a0.543,0.543,0,0,0,.153-0.03v-0.02h0.116a0.4,0.4,0,0,0,.029-0.07h0.116v-0.02h0.122v-0.04h0.175v-0.03a2.769,2.769,0,0,1,.932.09v0.03a2.655,2.655,0,0,0,.259.09v0.07h0.091a0.057,0.057,0,0,1,.023.05h0.061a1.253,1.253,0,0,0,.093.12h0.052c0.008,0.02.024,0.04,0.032,0.06a0.634,0.634,0,0,1,.114.1v0.04a0.179,0.179,0,0,0,.062.04c0.007,0.05.021,0.1,0.029,0.15h0.03c0.008,0.04.024,0.08,0.032,0.12h0.031v0.06c0.014,0,.037.02,0.052,0.02v0.1h0.038v0.07h0.03a0.238,0.238,0,0,0,.007.07H677v0.12h0.029v0.07h0.023v0.11h0.031v0.07h0.03a0.9,0.9,0,0,1,.031.18h0.033v0.11H677.2v0.06h0.031v0.18h0.023v0.09h0.037a0.51,0.51,0,0,0,.008.11h0.023a1.007,1.007,0,0,0,.007.15h0.016v0.09h0.03v0.15H677.4v0.06h0.03v0.14h0.031v0.07h0.029v0.14h0.03v0.09h0.024v0.12h0.031c0.022,0.13.045,0.26,0.06,0.39a0.452,0.452,0,0,0,.062.03v0.18h0.03v0.08h0.022v0.15a0.331,0.331,0,0,0,.061.03v0.18h0.032c0.022,0.11.039,0.22,0.06,0.32h0.032v0.11h0.022v0.14h0.031v0.06h0.03v0.18a0.206,0.206,0,0,1,.054.02v0.19h0.038v0.06h0.022c0.038,0.16.069,0.33,0.1,0.49h0.022v0.07h0.023v0.15h0.032v0.06h0.03v0.17h0.029v0.07H678.4v0.14h0.022v0.09h0.038v0.12h0.032v0.15h0.03V2350h0.024a1.007,1.007,0,0,0,.007.15h0.015v0.05H678.6v0.18a0.151,0.151,0,0,0,.062.04v0.17h0.022v0.06h0.025v0.16h0.029v0.11h0.038v0.09h0.032v0.15h0.022v0.06h0.037v0.17a0.537,0.537,0,0,0,.063.03v0.2a0.062,0.062,0,0,0,.053.04v0.18h0.03v0.06h0.024c0.014,0.08.03,0.13,0.038,0.2H679.1c0.091,0.13.175,0.02,0.321,0.07v0.03h0.061v0.03h0.26v0.02h0.092v0.04h0.259a1.537,1.537,0,0,0-.083-0.45v-0.15h-0.03a0.307,0.307,0,0,0-.008-0.09h-0.024v-0.21h-0.03v-0.06h-0.032v-0.2h-0.022v-0.06h-0.03v-0.21H679.8v-0.09h-0.03c-0.015-.09-0.015-0.2-0.03-0.29h-0.032a0.943,0.943,0,0,0-.006-0.13h-0.016v-0.18h-0.031a0.427,0.427,0,0,0-.008-0.09h-0.022v-0.17H679.6v-0.09h-0.03v-0.21a0.083,0.083,0,0,1-.055-0.03v-0.21h-0.029v-0.09h-0.03v-0.14h-0.031v-0.18h-0.031v-0.08h-0.03v-0.22h-0.03v-0.09h-0.023v-0.18h-0.032a0.117,0.117,0,0,0-.006-0.05h-0.024v-0.21h-0.03v-0.07h-0.032v-0.17h-0.022v-0.15h-0.03v-0.12H679.1v-0.18h-0.022a0.091,0.091,0,0,0-.008-0.05h-0.03v-0.22h-0.024v-0.05h-0.03v-0.21h-0.031v-0.06h-0.022v-0.21H678.9v-0.09h-0.025v-0.18h-0.037v-0.15h-0.022v-0.08H678.78v-0.21h-0.038v-0.06h-0.029v-0.21h-0.025v-0.06h-0.022v-0.21a0.191,0.191,0,0,0-.062-0.02v-0.18h-0.037v-0.12h-0.022v-0.15h-0.024c-0.022-.17-0.044-0.35-0.062-0.53a0.178,0.178,0,0,0-.06-0.03v-0.18a0.087,0.087,0,0,0-.061-0.03v-0.27h-0.03v-0.09h-0.032v-0.16h-0.023v-0.08h-0.022v-0.15H678.2v-0.18h-0.031v-0.05h-0.038v-0.25a0.1,0.1,0,0,1-.06-0.03v-0.19h-0.024v-0.07h-0.03a1.843,1.843,0,0,0-.008-0.21h-0.022c-0.01-.08-0.016-0.18-0.031-0.26h-0.022V2342H677.9v-0.09h-0.031v-0.2h-0.029v-0.06H677.81v-0.2h-0.03a0.207,0.207,0,0,0-.007-0.07h-0.024v-0.21h-0.022v-0.05H677.7v-0.18h-0.03v-0.12h-0.032v-0.15h-0.03v-0.17h-0.03v-0.1h-0.031v-0.2H677.52v-0.06h-0.03v-0.18h-0.029a0.139,0.139,0,0,0-.009-0.06H677.43v-0.21H677.4v-0.08h-0.025v-0.16h-0.03v-0.18h-0.023v-0.09h-0.031v-0.2h-0.037v-0.06h-0.023v-0.2H677.2v-0.07h-0.028v-0.21a0.239,0.239,0,0,1-.064-0.03v-0.21h-0.03v-0.11h-0.031v-0.16h-0.023v-0.18H677v-0.05H676.97v-0.21h-0.03v-0.06H676.9v-0.2H676.88v-0.06h-0.03v-0.21h-0.031v-0.09h-0.032c-0.007-.22-0.014-0.44-0.03-0.65h0.03v-0.18h0.032v-0.06h0.031v-0.12c0.014-.01.037-0.02,0.052-0.03v-0.09l0.068-.03v-0.05a0.092,0.092,0,0,1,.054-0.04v-0.05h0.023a0.3,0.3,0,0,0,.061-0.13h0.064v-0.06a0.713,0.713,0,0,0,.119-0.03v-0.05h0.054v-0.06h0Zm35.5,2.64h-1.81v0.05a0.1,0.1,0,0,1-.06.03v0.28a0.088,0.088,0,0,0-.062.04v0.25h-0.023v0.12h-0.029v0.18h-0.04v0.21h-0.022v0.09h-0.03v0.27h-0.031v0.05H710.71c-0.024.19-.046,0.38-0.054,0.57h-0.039v0.08h-0.028v0.22H710.55v0.12h-0.023c-0.008.14-.016,0.27-0.032,0.41h-0.022v0.06h-0.031v0.24h-0.03v0.05h-0.03v0.25h-0.031v0.11h-0.023v0.21h-0.022v0.11h-0.038v0.19h-0.032a2.238,2.238,0,0,1-.038.3h-0.015v0.26h-0.038c-0.007.04-.016,0.08-0.023,0.12h1.283a1.836,1.836,0,0,0,.649-0.05,2.058,2.058,0,0,1,.083-0.54v-0.28h0.031v-0.05H712.2v-0.24h0.022v-0.09h0.037v-0.24h0.026v-0.09h0.029v-0.23h0.03v-0.09h0.032c0.007-.14.015-0.27,0.03-0.41h0.029v-0.12h0.024v-0.22h0.031v-0.08h0.031v-0.27c0.015-.01.038-0.02,0.054-0.03v-0.27h0.03v-0.08h0.03v-0.24h0.038v-0.12h0.022v-0.22h0.031v-0.19h0.025v-0.07h0.029v-0.25h0.031v-0.08h0.03v-0.32h0Zm-5.031,4.87c0.053-.27.091-0.54,0.144-0.8,0.008-.12.016-0.24,0.031-0.36a0.31,0.31,0,0,0,.063-0.03v-0.23c0.014-.02.036-0.02,0.051-0.04V2341h0.031v-0.06h0.03v-0.24h0.024v-0.12h0.03v-0.18h0.03v-0.2h0.032v-0.1H708.3v-0.23h0.023v-0.06h0.039v-0.27h0.023v-0.09h0.03v-0.2h0.03c0.016-.15.039-0.3,0.054-0.46h0.039v-0.14h0.024v-0.24H708.6v-0.06h0.03a0.535,0.535,0,0,1,.062-0.32,0.249,0.249,0,0,0-.062-0.15h-3.046a4.431,4.431,0,0,0-1.282.05c-0.024.32-.038,0.62-0.062,0.93H704.2v0.41h-0.029v0.13h-0.032v0.47h-0.03v0.12H704.09v0.48h-0.03v0.17h-0.031v0.42H704v0.23h-0.031v0.42h-0.022v0.32a2.958,2.958,0,0,0-.061.72h3.924Zm-5.8-4.84c-0.053-.02-0.022.01-0.053-0.03h-3.107a4.7,4.7,0,0,0-1.321.05v0.24h0.038c-0.015.03-.023,0.07-0.038,0.11h0.038c0.053,0.2-.031.51,0.023,0.7v1.34c0.023,0.81.038,1.62,0.06,2.43h3.925c0.138-1.62.282-3.23,0.435-4.84h0Zm-6.673,4.84a6.849,6.849,0,0,0,0-.8c-0.008-.64-0.014-1.29-0.029-1.93v-0.72a0.473,0.473,0,0,0-.024-0.26,3.733,3.733,0,0,0-.062-1.16h-4.366v0.4h0.031v0.1h0.038v0.34h0.031v0.11h0.023v0.3h0.03v0.14h0.03v0.27h0.021v0.25H691.1v0.2h0.03v0.3h0.024v0.11h0.038v0.36h0.03v0.09h0.031v0.32h0.03v0.09h0.015v0.3h0.04v0.18h0.03V2342h0.029c0.017,0.24.04,0.48,0.055,0.72h0.031v0.03h3.862Zm-6.816-4.87h-3.865a1.665,1.665,0,0,0-.465.03c0.008,0.08.016,0.16,0.03,0.23h0.031v0.21h0.022v0.06h0.031v0.19h0.031v0.05h0.03v0.21H684.4v0.06h0.021v0.26h0.032v0.07h0.03c0.014,0.1.014,0.21,0.031,0.32h0.029v0.06h0.032v0.21a0.164,0.164,0,0,1,.054.03v0.23a0.344,0.344,0,0,0,.06.04c0.015,0.09.022,0.19,0.03,0.3h0.031v0.14h0.021v0.15h0.033v0.09h0.03v0.21h0.03v0.06H684.9v0.2h0.031v0.06h0.024v0.21a0.148,0.148,0,0,0,.06.03v0.21h0.031v0.08h0.022v0.15h0.029v0.18h0.031a1.554,1.554,0,0,1,.032.27h0.03v0.05h0.032v0.22h3.947c-0.009-.1-0.017-0.2-0.023-0.3H689.11c0-.09,0-0.19-0.007-0.29h-0.024c0-.07,0-0.14-0.007-0.21h-0.021v-0.24h-0.032v-0.26H689v-0.19h-0.031v-0.29h-0.031v-0.12h-0.029v-0.33h-0.032v-0.05h-0.022v-0.39H688.82v-0.09h-0.038v-0.3h-0.03v-0.18H688.73v-0.24H688.7v-0.29h-0.031v-0.15h-0.022v-0.3h-0.03v-0.12h-0.031v-0.32h-0.031a1.892,1.892,0,0,1-.029-0.21h0Zm-5.642,4.87v-0.22H682.85v-0.05h-0.031v-0.21h-0.03v-0.06h-0.03v-0.18h-0.031v-0.15H682.7v-0.08h-0.03a1.355,1.355,0,0,0-.008-0.18h-0.013v-0.09h-0.033v-0.2c-0.023-.02-0.038-0.02-0.062-0.04v-0.2h-0.029v-0.06H682.5a0.116,0.116,0,0,1,.023-0.12H682.5v-0.06h-0.031v-0.15h-0.03c-0.017-.09-0.023-0.18-0.031-0.26h-0.031v-0.12h-0.03v-0.22a0.4,0.4,0,0,0-.054-0.02v-0.21h-0.03v-0.06h-0.03v-0.2h-0.023v-0.07h-0.038v-0.17h-0.024v-0.12h-0.029v-0.12h-0.039v-0.21h-0.031v-0.06h-0.022v-0.21a0.389,0.389,0,0,1-.055-0.03v-0.24a0.131,0.131,0,0,1-.06-0.03v-0.21H681.88c-0.015-.06-0.015-0.13-0.03-0.21a0.213,0.213,0,0,1-.061-0.05h-1.778a0.519,0.519,0,0,0,0,.29h0.021v0.18h0.031v0.06h0.031v0.21h0.031v0.06h0.029v0.24a0.246,0.246,0,0,1,.062.03v0.23h0.024v0.09h0.028a2.038,2.038,0,0,1,.031.3h0.031v0.09h0.023v0.18h0.032v0.09h0.029v0.17h0.03v0.07h0.03v0.21h0.032v0.06h0.031v0.2h0.032v0.18H680.6a0.454,0.454,0,0,0,.006.09h0.016v0.18h0.032v0.08h0.022v0.18h0.037v0.06h0.024v0.21h0.03v0.06H680.8v0.2a1.242,1.242,0,0,1,.091.51h0.053c0.008,0.17.053,0.22,0.061,0.36h1.88Zm26.326,4.87v0.3h-0.034v0.09h-0.022v0.24h-0.031v0.09H709.1v0.2h-0.03v0.12h-0.032v0.22H709v0.2h-0.022v0.06h-0.024v0.23h-0.04a0.36,0.36,0,0,0,.04.13H710.2a2.408,2.408,0,0,0,.618-0.03c0.047-.22.092-0.5,0.154-0.69v-0.24h0.022v-0.06h0.038v-0.3a0.28,0.28,0,0,1,.062-0.02v-0.24h0.03a2.19,2.19,0,0,1,.023-0.32h0.03v-0.13H711.2v-0.21h0.023v-0.18h0.039v-0.11h0.029a2.14,2.14,0,0,1,.009-0.24h0.022a0.391,0.391,0,0,1,.007-0.09h0.016v-0.24h0.032v-0.09h0.03v-0.24h0.029v-0.08h0.032v-0.24h0.03a0.943,0.943,0,0,1,.008-0.15h0.023v-0.15h0.022v-0.23c0.008-.02.069-0.02,0.053-0.06H711.58c-0.008-.03-0.023-0.06-0.031-0.09h-1.243a1.321,1.321,0,0,0-.62.06,1.585,1.585,0,0,1-.1.5v0.21h-0.031v0.05h-0.022v0.28H709.5v0.05h-0.021v0.24h-0.039v0.09h-0.031v0.24h-0.031c-0.007.1-.015,0.2-0.023,0.29a1.63,1.63,0,0,0-.091.54h-0.059Zm-1.873-2.55h-1.664c-0.152,0-.58.02-0.618,0h-0.94a1.572,1.572,0,0,0-.5.03,2.578,2.578,0,0,1-.054.62v0.35h-0.032v0.24H703.5v0.48h-0.031a1.076,1.076,0,0,1-.007.15h-0.023v0.45h-0.023v0.21h-0.03v0.38h-0.031v0.36h-0.031c-0.007.12-.022,0.25-0.029,0.37a1.05,1.05,0,0,1-.054.49,0.955,0.955,0,0,0,.029.3h2.46a3.782,3.782,0,0,0,.846-0.03,0.922,0.922,0,0,0,.063-0.27h0.029c0-.14.01-0.26,0.016-0.39h0.031v-0.15h0.038v-0.23h0.031v-0.06h0.03v-0.24h0.029v-0.07h0.025v-0.26H706.9v-0.06h0.03v-0.24h0.03v-0.08h0.03v-0.22h0.031v-0.18h0.03v-0.11h0.024v-0.24h0.03v-0.06h0.031v-0.26h0.023v-0.07H707.2v-0.27h0.03v-0.05h0.024v-0.21a1.482,1.482,0,0,0,.084-0.68h0Zm-6.023,0h-3.6l-0.032.03c0.016,1.06.046,2.12,0.062,3.17a4.026,4.026,0,0,0,.023.81,0.935,0.935,0,0,0,.052.42v0.03a1.119,1.119,0,0,1,.42-0.03h1.17a2.372,2.372,0,0,0,.465,0,4.822,4.822,0,0,0,1.085-.03,2.647,2.647,0,0,1,.052-0.59v-0.67h0.039v-0.2h0.022v-0.12H701.1v-0.42h0.039a0.691,0.691,0,0,1,.007-0.12h0.024v-0.38a0.955,0.955,0,0,1,.06-0.27c0-.13,0-0.27.008-0.42h0.023v-0.21h0.03v-0.41h0.024c0.008-.19.022-0.37,0.03-0.56l-0.03-.03h0Zm-5.918,0h-2.336a7.734,7.734,0,0,0-1.283.03c0.024,0.21.053,0.43,0.085,0.65h0.03v0.3h0.023v0.17h0.03v0.28h0.03v0.27h0.032v0.14h0.037v0.32h0.022a0.248,0.248,0,0,0,.01.09H692.1v0.28a0.7,0.7,0,0,1,.024.14h0.029v0.36h0.03v0.11h0.031v0.3h0.03v0.18h0.032c0,0.08,0,.16.006,0.23H692.3v0.3a1.679,1.679,0,0,1,.053.25h0.03v0.03h1.956a6.73,6.73,0,0,1,1.113.03,7.815,7.815,0,0,0,0-1.28v-1.61c-0.052-.2.016-0.5-0.021-0.75a4.508,4.508,0,0,1-.039-0.82h0Zm-9.651.03a0.251,0.251,0,0,0,.032.12H685.8v0.2h0.024v0.06h0.03v0.21h0.03v0.06h0.03a1.206,1.206,0,0,0,.009.18h0.023v0.12h0.03v0.12h0.031v0.2h0.015v0.06h0.038v0.21h0.03v0.06h0.031v0.21a0.31,0.31,0,0,1,.063.03v0.2h0.021v0.09h0.032v0.19h0.022v0.11H686.3v0.12h0.031v0.18h0.03v0.09h0.023v0.18h0.038v0.06h0.023v0.21a0.287,0.287,0,0,0,.061.02v0.21h0.023v0.11h0.029v0.17h0.031v0.17h0.031v0.06h0.024v0.2h0.039a1.089,1.089,0,0,1,.015.16c0.045,0.02.014,0,.037,0.03h2.406a2.9,2.9,0,0,1,.847.03h0.022a1.232,1.232,0,0,0,0-.45h-0.022v-0.18H689.95v-0.24h-0.022v-0.27H689.9v-0.14h-0.031v-0.36h-0.029v-0.09h-0.031v-0.33h-0.03v-0.08h-0.024v-0.37h-0.03v-0.08h-0.03v-0.33H689.66v-0.15h-0.03v-0.27h-0.023v-0.3h-0.031v-0.14h-0.029a1.038,1.038,0,0,0-.063-0.41,0.331,0.331,0,0,0-.054-0.24c-0.754-.02-1.625-0.03-2.427-0.03a7.433,7.433,0,0,0-1.26.03h0Zm-2.344-.03H681.53c0.014,0.1.021,0.22,0.037,0.32h0.022v0.18c0.017,0.01.04,0.02,0.055,0.03v0.24h0.031v0.05h0.03v0.21h0.022v0.09h0.038v0.18h0.024v0.13h0.029v0.11h0.032v0.2h0.03v0.07h0.031v0.2h0.022v0.09h0.038v0.18H682v0.07h0.031v0.2h0.022v0.12h0.031v0.12h0.039v0.17h0.029v0.07h0.024v0.24a0.109,0.109,0,0,1,.061.03v0.2h0.03v0.06h0.03v0.18h0.024v0.11h0.03v0.16h0.03v0.17h0.031a1.6,1.6,0,0,0,.031.22,0.085,0.085,0,0,1,.03.03h1.283a2.413,2.413,0,0,0,.618-0.03c-0.015-.06-0.015-0.11-0.03-0.16h-0.031v-0.17h-0.031v-0.12h-0.022v-0.14h-0.031v-0.19h-0.03v-0.09h-0.032a1.518,1.518,0,0,0-.006-0.17H684.14v-0.06H684.1v-0.21h-0.03v-0.06h-0.024v-0.21H684.01v-0.06h-0.023c-0.008-.09-0.022-0.2-0.022-0.3h-0.031a0.531,0.531,0,0,0-.007-0.11H683.9v-0.19h-0.03v-0.09h-0.032v-0.2h-0.029v-0.06H683.79v-0.18h-0.039v-0.06H683.72v-0.21H683.7v-0.08h-0.032v-0.18h-0.022v-0.12h-0.04v-0.12h-0.029v-0.18h-0.023v-0.06h-0.031c0-.07,0-0.14-0.007-0.21h-0.024v-0.06H683.46v-0.2h-0.031a0.239,0.239,0,0,1-.03-0.15h0Zm26.983,6.74H709.1a2.036,2.036,0,0,0-.619.03c-0.038.19-.068,0.4-0.114,0.56v0.25h-0.039v0.04H708.3c0,0.09,0,.17-0.008.25h-0.021v0.09h-0.032v0.24h-0.03a0.391,0.391,0,0,1-.007.09h-0.023v0.2h-0.024v0.15h-0.03v0.18H708.1v0.21h-0.03v0.05h-0.021v0.28h-0.031v0.05h-0.032v0.24h-0.031v0.09h-0.031v0.21h-0.03v0.11h-0.03v0.22h-0.023v0.17h-0.03v0.12h-0.032v0.24h-0.029v0.05h-0.03v0.28h-0.024v0.05h-0.03v0.21a0.4,0.4,0,0,0-.031.3h0.259v0.02h0.092v0.04h0.291v0.02h0.091v0.04H708.6v0.02h0.237v0.04h0.122v0.02c0.145,0.05.22-.06,0.313,0.07h0.215V2357a0.71,0.71,0,0,0,.053-0.32h0.022v-0.09h0.031v-0.24h0.039v-0.09h0.03v-0.23h0.029v-0.12h0.024c0.014-.13.014-0.26,0.03-0.39h0.031v-0.08h0.022v-0.28a0.075,0.075,0,0,0,.053-0.03v-0.29a0.257,0.257,0,0,0,.064-0.03v-0.23h0.037v-0.15h0.028a1.719,1.719,0,0,1,.009-0.22H710v-0.15h0.038a3.522,3.522,0,0,1,.023-0.41h0.03v-0.06h0.031v-0.2h0.023v-0.09h0.038v-0.24H710.2v-0.09h0.038c0-.08,0-0.16.006-0.23h0.026a2.07,2.07,0,0,1,.038-0.34,2.222,2.222,0,0,0,.076-0.59h0Zm-7.728,4.15a2.4,2.4,0,0,1,.589.1H703.5v0.02h0.092v0.04h0.291v0.03h0.061v0.02H704.2v0.04H704.3v0.03h0.259c0.214,0.06.535,0.1,0.764,0.14a0.072,0.072,0,0,1,.06-0.06v-0.26H705.4V2356h0.038c0.007-.12.016-0.24,0.029-0.36H705.5v-0.2h0.024v-0.18h0.03v-0.13h0.03v-0.23a0.169,0.169,0,0,1,.062-0.03v-0.27h0.03v-0.06H705.7a2.175,2.175,0,0,1,.01-0.26h0.022a0.406,0.406,0,0,1,.006-0.09h0.016v-0.21h0.031v-0.15h0.03c0.023-.16.039-0.32,0.055-0.47h0.03v-0.25a0.093,0.093,0,0,0,.069-0.03v-0.23H706v-0.09h0.022v-0.24h0.032v-0.09h0.021v-0.2h0.032v-0.22h0.038a1.415,1.415,0,0,1,.023-0.17,0.086,0.086,0,0,1-.023-0.03h-2.29a3.086,3.086,0,0,0-.818.03,1.083,1.083,0,0,0-.061.48,1.057,1.057,0,0,1-.052.33v0.46h-0.032v0.12h-0.038v0.48h-0.022v0.15h-0.024v0.45h-0.029v0.27h-0.031v0.35h-0.032c0,0.13,0,.28-0.007.42h-0.021v0.12h-0.033v0.49h0Zm-1.953-4.15h-1.993a3.018,3.018,0,0,0-.909.03v0.26h0.022v0.84h0.039v2.19h0.062v0.07h0.229v0.03h0.09v0.03h0.291v0.03h0.084v0.02a2.374,2.374,0,0,1,.267.01v0.03h0.084v0.03h0.268v0.03h0.176v0.03h0.183v0.03h0.251v0.02h0.061v0.03a0.757,0.757,0,0,1,.352.06h0.085v-0.03a1.017,1.017,0,0,0,.06-0.45h0.031c0.015-.13.015-0.26,0.03-0.38v-0.33h0.021v-0.11h0.032v-0.52h0.03v-0.11h0.038v-0.47h0.025v-0.15h0.022v-0.45a2.661,2.661,0,0,0,.069-0.77h0Zm-5.123,2.97v-0.06h0.028a0.055,0.055,0,0,0-.028-0.06v-1.43a1.38,1.38,0,0,0-.031-0.54,2.313,2.313,0,0,0-.069-0.88h-2.8c0.014,0.14.021,0.29,0.03,0.44h0.039v0.33h0.022v0.09h0.024v0.32h0.03v0.16h0.029c0.016,0.18.023,0.35,0.039,0.53h0.023v0.15h0.031v0.32h0.029a1.844,1.844,0,0,0,.032.24c0.289,0.04.581,0.09,0.87,0.12v0.03h0.237a0.347,0.347,0,0,0,.061.09,0.93,0.93,0,0,1,.342-0.03,0.34,0.34,0,0,0,.039.06h0.282v0.04h0.1v0.02h0.26a1.016,1.016,0,0,0,.382.06h0Zm-5.245-2.97h-3.069a0.21,0.21,0,0,1-.04.09H687.2c0.006,0.03.021,0.05,0.03,0.08h0.031v0.06H687.3v0.21a0.161,0.161,0,0,0,.053.04v0.2h0.022v0.06h0.03v0.21h0.032v0.12h0.03a0.466,0.466,0,0,0,.008.11H687.5v0.19h0.023c0.024,0.1.046,0.22,0.069,0.32a1.5,1.5,0,0,0,.229.03v0.03a1.022,1.022,0,0,1,.175.01v0.02h0.176v0.03h0.236v0.03h0.117v0.03h0.258v0.03h0.069v0.03h0.291v0.02h0.083v0.05h0.259v0.02h0.146v0.03h0.206v0.03h0.175v0.03h0.177v0.02h0.266v0.04l0.176,0.03a3.691,3.691,0,0,0-.122-0.9v-0.26h-0.03v-0.18h-0.024v-0.3h-0.03v-0.12h-0.031v-0.3h-0.031a1.393,1.393,0,0,0-.029-0.14h0Zm-5.177,1.27a2.412,2.412,0,0,0-.063-0.32h-0.029v-0.21h-0.022v-0.06h-0.031v-0.2c-0.025-.01-0.038-0.03-0.06-0.04v-0.24a0.075,0.075,0,0,1-.055-0.03v-0.14l-0.031-.03h-1.289a2.012,2.012,0,0,0-.611.03,2.072,2.072,0,0,0,.114.5v0.21a0.283,0.283,0,0,1,.062.03v0.18h0.029a0.165,0.165,0,0,1,.023.06,1.786,1.786,0,0,1,.236.01v0.02a0.3,0.3,0,0,1,.093.01v0.02h0.268v0.03l0.372,0.03v0.03h0.177v0.02h0.145v0.04h0.267v0.03h0.084v0.02h0.321Zm23,20.83a2.7,2.7,0,0,0-.267-0.09v-0.03h-0.144v-0.03a0.571,0.571,0,0,0-.3.03h-0.136v0.03h-0.061v0.02H707.16c-0.007.03-.016,0.04-0.023,0.07h-0.061a0.143,0.143,0,0,0-.024.05h-0.061V2374c-0.044.03-.083,0.05-0.121,0.08v0.06h-0.054a0.381,0.381,0,0,0-.03.1h-0.031v0.09a0.232,0.232,0,0,0-.069.02v0.12H706.67v0.09h-0.029a1.793,1.793,0,0,0,.045.56,0.125,0.125,0,0,0,.069.03v0.09h0.031a0.318,0.318,0,0,0,.03.09h0.054a0.365,0.365,0,0,0,.091.15h0.061v0.05c0.131,0.04.2,0.12,0.313,0.16a1.986,1.986,0,0,0,.649-0.03c0.069-.03.114-0.09,0.2-0.13v-0.05h0.06v-0.05H708.3v-0.08h0.062c0.007-.02.014-0.05,0.023-0.08h0.03v-0.06c0.023-.01.038-0.02,0.061-0.03v-0.09H708.5c0.015-.05.022-0.11,0.039-0.17h0.024a1.373,1.373,0,0,0-.086-0.62h-0.031a0.241,0.241,0,0,1-.03-0.13h-0.053v-0.06H708.3c-0.022-.08-0.008-0.06-0.091-0.08v-0.07h-0.054v-0.05h0Zm-24.637.05a0.336,0.336,0,0,1-.093-0.03v-0.02h-0.083c-0.007-.03-0.023-0.04-0.03-0.07a0.518,0.518,0,0,1-.123-0.02v-0.03h-0.145v-0.03a1.482,1.482,0,0,0-.58.08v0.04a0.216,0.216,0,0,1-.122.03v0.05a0.855,0.855,0,0,0-.32.34v0.08a0.129,0.129,0,0,0-.055.04v0.17h-0.038v0.14h-0.022v0.03h0.022v0.13h0.038v0.17a0.11,0.11,0,0,0,.055.03v0.09a0.357,0.357,0,0,1,.053.03v0.06h0.039v0.06h0.029a0.741,0.741,0,0,1,.024.1h0.061v0.05c0.03,0.01.06,0.02,0.084,0.03v0.02h0.06a0.59,0.59,0,0,1,.031.07H682.5c0.008,0.02.016,0.04,0.023,0.06h0.091v0.03h0.176v0.03a1.492,1.492,0,0,0,.61-0.12v-0.07a0.542,0.542,0,0,0,.246-0.14v-0.06a0.191,0.191,0,0,0,.075-0.06,0.458,0.458,0,0,0,.031-0.12h0.039v-0.09a0.069,0.069,0,0,1,.051-0.02v-0.24h0.032v-0.15h-0.032v-0.21a0.073,0.073,0,0,0-.051-0.02v-0.12a0.251,0.251,0,0,0-.07-0.04c0-.02-0.014-0.05-0.021-0.09h-0.032a0.37,0.37,0,0,1-.022-0.09h-0.069v-0.05h-0.054v-0.07h0Z" transform="translate(-668 -2335)"/>
</svg>
