<svg xmlns="http://www.w3.org/2000/svg" xmlns:xlink="http://www.w3.org/1999/xlink" width="140.34" height="21.24" viewBox="0 0 140.34 21.24">
  <defs>
    <style>
      .cls-1 {
        fill-rule: evenodd;
        filter: url(#filter);
      }
    </style>
    <filter id="filter" x="879.25" y="2462.88" width="140.34" height="21.24" filterUnits="userSpaceOnUse">
      <feFlood result="flood" flood-color="#c30d23"/>
      <feComposite result="composite" operator="in" in2="SourceGraphic"/>
      <feBlend result="blend" in2="SourceGraphic"/>
    </filter>
  </defs>
  <path id="icon_coeur_grandbody.svg" class="cls-1" d="M892.92,2464.47a2.408,2.408,0,0,1-.595,1.54,1.723,1.723,0,0,1-1.4.74,2.1,2.1,0,0,1-.878-0.2,0.76,0.76,0,0,1-.572-0.61l0.1-.14a1.1,1.1,0,0,0,1.021.55,0.959,0.959,0,0,0,.828-0.5,1.772,1.772,0,0,0,.262-0.95,2.235,2.235,0,0,0-.2-1.15,0.747,0.747,0,0,0-.651-0.29c-0.094,0-.269.02-0.525,0.05a5.341,5.341,0,0,1-.637.04,9.576,9.576,0,0,1-1.172-.11,8.353,8.353,0,0,0-1.179-.12c-1.7,0-3.269.91-4.688,2.72a8.423,8.423,0,0,0-1.968,5.16,5.244,5.244,0,0,0,1.231,3.65,4.506,4.506,0,0,0,3.556,1.44,4.805,4.805,0,0,0,3.592-1.5,4.98,4.98,0,0,0,1.458-3.61,4.285,4.285,0,0,0-.084-0.7,4.441,4.441,0,0,1-.082-0.67l0.118-.19a1.182,1.182,0,0,1,.593.88,4.055,4.055,0,0,1,.214,1.11,4.48,4.48,0,0,1-1.966,3.71,6.7,6.7,0,0,1-4.15,1.37,6.1,6.1,0,0,1-4.173-1.46,5.045,5.045,0,0,1-1.733-3.96,8.145,8.145,0,0,1,2.441-5.66,7.463,7.463,0,0,1,5.572-2.68h4.72a0.846,0.846,0,0,1,.736.58A2.259,2.259,0,0,1,892.92,2464.47Zm5.476,8.14a3.762,3.762,0,0,1-1.28,2.93,4.47,4.47,0,0,1-3.1,1.15,2.413,2.413,0,0,1-1.737-.66,2.256,2.256,0,0,1-.687-1.68,3.776,3.776,0,0,1,1.33-2.88,4.419,4.419,0,0,1,3.06-1.2,2.4,2.4,0,0,1,1.728.66A2.23,2.23,0,0,1,898.4,2472.61Zm-0.975-.56a1.214,1.214,0,0,0-1.362-1.39,3.182,3.182,0,0,0-2.395,1.55,4.566,4.566,0,0,0-1.1,2.7,1.212,1.212,0,0,0,1.364,1.38,3.119,3.119,0,0,0,2.4-1.54A4.573,4.573,0,0,0,897.421,2472.05Zm8.515-1.13a2.779,2.779,0,0,1-1.587,2.38,5.81,5.81,0,0,1-3.085.86,4.092,4.092,0,0,1-.9-0.09,1.884,1.884,0,0,0,.639,1.37,1.945,1.945,0,0,0,1.4.62,3.406,3.406,0,0,0,1.78-.47c0.265-.16.537-0.33,0.8-0.5l0.119,0.14c-0.033.42-.52,0.78-1.472,1.09a6.714,6.714,0,0,1-1.965.37,2.972,2.972,0,0,1-2.02-.7,2.326,2.326,0,0,1-.8-1.85c0-1.17.712-2.2,2.133-3.08a7.179,7.179,0,0,1,3.8-1.16A0.966,0.966,0,0,1,905.936,2470.92Zm-1.329.26q0-.66-1.018-0.66a3.238,3.238,0,0,0-2.169,1.04,2.938,2.938,0,0,0-1.1,2.09,2.29,2.29,0,0,1,.369.06,2.111,2.111,0,0,0,.413.06,3.559,3.559,0,0,0,2.277-.75A2.618,2.618,0,0,0,904.607,2471.18Zm9.865-.7a32.694,32.694,0,0,0-2.609,5.35c0,0.37.295,0.5,0.877,0.39l0.191,0.14q-0.024.33-.664,0.33a6.446,6.446,0,0,1-.722-0.06,6.546,6.546,0,0,0-.724-0.06,1.3,1.3,0,0,0-.332.06,1.356,1.356,0,0,1-.31.06l-0.116-.12a1.222,1.222,0,0,1,.236-0.48l-0.044-.05a3.664,3.664,0,0,1-2.09.65,2.015,2.015,0,0,1-1.324-.41,1.394,1.394,0,0,1-.528-1.17,4.02,4.02,0,0,1,.665-1.95c0.362-.6.738-1.2,1.117-1.8a4.366,4.366,0,0,0-.56.17,2.039,2.039,0,0,1-.6.15c-0.076,0-.118-0.06-0.118-0.18a0.331,0.331,0,0,1,.142-0.12,22.454,22.454,0,0,1,2.7-1.01l0.165,0.16a12.489,12.489,0,0,1-1.137,2.04,6.761,6.761,0,0,0-1.138,2.47c0,0.84.308,1.25,0.925,1.25a3.342,3.342,0,0,0,2.677-1.83c0.553-1.05,1.107-2.09,1.659-3.13a4.983,4.983,0,0,1-.877.19l-0.121-.14a22.461,22.461,0,0,1,2.467-1.01Zm7.941,0.83a1.016,1.016,0,0,1-1.209,1.09c-0.281,0-.424-0.06-0.424-0.19a1.7,1.7,0,0,0,.3-0.83,0.537,0.537,0,0,0-.618-0.6c-0.788,0-1.724.65-2.81,1.94a5.633,5.633,0,0,0-1.624,3.13,0.373,0.373,0,0,0,.408.44,0.9,0.9,0,0,0,.553-0.16,0.9,0.9,0,0,1,.3-0.16l0.092,0.16a0.488,0.488,0,0,1-.367.4,1.768,1.768,0,0,1-.629.16h-2.727a0.628,0.628,0,0,1-.516-0.19,0.621,0.621,0,0,1,.458-0.21,1.2,1.2,0,0,0,.534-0.14,2.6,2.6,0,0,0,.78-0.92q0.761-1.44,2.416-4.21a6.448,6.448,0,0,1-1.04.29l-0.145-.18a2.622,2.622,0,0,1,1.211-.54,7.347,7.347,0,0,1,1.449-.32,0.432,0.432,0,0,1,.287.11c-0.145.23-.326,0.52-0.55,0.91l0.051,0.04a3.627,3.627,0,0,1,2.606-1.06A1,1,0,0,1,922.413,2471.31Zm16.565-5.16a1.556,1.556,0,0,1-1.659,1.67,2.016,2.016,0,0,1-1.115-.41,1.121,1.121,0,0,1-.6-0.89l0.076-.14a1.4,1.4,0,0,0,1.2.51c0.746,0,1.123-.47,1.123-1.43q0-1.02-2.02-1.53a12.391,12.391,0,0,0-2.895-.33,9.363,9.363,0,0,0-4.233,1.03c-1.663.83-2.5,1.89-2.5,3.16a3.135,3.135,0,0,0,1.546,2.8,6,6,0,0,0,3.268.84,8.033,8.033,0,0,0,3.319-.84,11.3,11.3,0,0,1,2.448-.97l0.067,0.21a6.008,6.008,0,0,1-1.043,2.18,9.082,9.082,0,0,1-8.059,4.68,6.994,6.994,0,0,1-2.706-.58c-1.166-.48-1.754-1.09-1.754-1.83l0.077-.14c0.661,1.44,2,2.15,4.029,2.15a7.472,7.472,0,0,0,4.4-1.58,9.179,9.179,0,0,0,3.018-3.6l-0.054-.07c-1.038.3-1.729,0.5-2.057,0.57a10.278,10.278,0,0,1-2.16.21,6.869,6.869,0,0,1-3.7-1.09,3.6,3.6,0,0,1-1.965-3.05c0-1.55.961-2.73,2.894-3.55a12.576,12.576,0,0,1,4.949-.92,12.309,12.309,0,0,1,3.722.51C938.188,2464.22,938.978,2465.04,938.978,2466.15Zm5.261,5.16a1.016,1.016,0,0,1-1.208,1.09c-0.285,0-.427-0.06-0.427-0.19a1.667,1.667,0,0,0,.307-0.83,0.536,0.536,0,0,0-.615-0.6c-0.789,0-1.728.65-2.809,1.94a5.61,5.61,0,0,0-1.623,3.13,0.368,0.368,0,0,0,.4.44,0.907,0.907,0,0,0,.559-0.16,0.946,0.946,0,0,1,.295-0.16l0.1,0.16a0.494,0.494,0,0,1-.368.4,1.754,1.754,0,0,1-.627.16h-2.727a0.63,0.63,0,0,1-.52-0.19,0.62,0.62,0,0,1,.456-0.21,1.208,1.208,0,0,0,.536-0.14,2.526,2.526,0,0,0,.783-0.92c0.5-.96,1.315-2.36,2.418-4.21a6.541,6.541,0,0,1-1.045.29l-0.137-.18a2.52,2.52,0,0,1,1.207-.54,7.265,7.265,0,0,1,1.447-.32,0.411,0.411,0,0,1,.281.11c-0.144.23-.322,0.52-0.548,0.91l0.05,0.04a3.639,3.639,0,0,1,2.609-1.06A1,1,0,0,1,944.239,2471.31Zm8.444-.65c-0.887,1.35-1.409,2.16-1.565,2.44a5.935,5.935,0,0,0-.949,2.55c0,0.41.154,0.62,0.472,0.62a0.811,0.811,0,0,0,.752-0.5,2.431,2.431,0,0,1,.27-0.49l0.19,0.14c0.014,0.84-.579,1.27-1.781,1.27H948.3l-0.171-.1,0.075-.32a3.714,3.714,0,0,1-1.78.42c-1.516,0-2.278-.66-2.278-2q0-1.71,2.278-3.12a7.49,7.49,0,0,1,3.956-1.3A4.476,4.476,0,0,1,952.683,2470.66Zm-1.52.1a1.16,1.16,0,0,0-.473-0.1,5.744,5.744,0,0,0-3.227,1.22,3.543,3.543,0,0,0-1.849,2.71,1.269,1.269,0,0,0,1.4,1.47c1,0,1.771-.65,2.326-1.96A29.067,29.067,0,0,1,951.163,2470.76Zm9.081,0.93a3.419,3.419,0,0,1-.664,1.84,12.436,12.436,0,0,1-1.211,1.49,4.769,4.769,0,0,0-.659.76c0,0.19.223,0.28,0.686,0.28a1.667,1.667,0,0,0,.71-0.18l0.185,0.09a0.6,0.6,0,0,1-.4.51,1.6,1.6,0,0,1-.732.21h-1.541a0.3,0.3,0,0,1-.259-0.14c0.426-.56.848-1.13,1.279-1.7a5.58,5.58,0,0,0,1.28-3.02,0.894,0.894,0,0,0-.949-1.07c-0.762,0-1.678.68-2.766,2.06a6.058,6.058,0,0,0-1.622,3.2,0.224,0.224,0,0,0,.261.25,0.541,0.541,0,0,0,.357-0.2,0.531,0.531,0,0,1,.283-0.19l0.17,0.18a0.638,0.638,0,0,1-.429.41,1.571,1.571,0,0,1-.662.22h-2.3l-0.33-.1a1.064,1.064,0,0,1,.628-0.35,1.214,1.214,0,0,0,.793-0.69q0.732-1.44,2.228-4.26a9.589,9.589,0,0,1-1.253.28l-0.121-.12a4.311,4.311,0,0,1,1.329-.62c0.692-.27,1.214-0.45,1.561-0.56l0.145,0.16q-0.115.285-.283,0.84a6.481,6.481,0,0,1,1.234-.75,3.375,3.375,0,0,1,1.351-.39A1.447,1.447,0,0,1,960.244,2471.69Zm13.535-8.09-0.117.14a1.411,1.411,0,0,0-1.091-.46c-0.792,0-1.6,1.16-2.447,3.48q-2.052,5.775-2.39,6.45-1.733,3.48-4.1,3.48a3.306,3.306,0,0,1-2.036-.58,2.149,2.149,0,0,1-.884-1.83,4.017,4.017,0,0,1,1.475-3.02,4.6,4.6,0,0,1,3.2-1.36,2.1,2.1,0,0,1,1.9.88q1.753-4.08,2.038-4.63,1.732-3.27,3.223-3.27a1.912,1.912,0,0,1,.783.2A0.638,0.638,0,0,1,973.779,2463.6Zm-6.921,7.72a0.921,0.921,0,0,0-1.136-.91,3.229,3.229,0,0,0-2.551,1.45,4.709,4.709,0,0,0-1.127,2.88,1.358,1.358,0,0,0,1.519,1.55c0.645,0,1.376-.67,2.178-2.02A6.494,6.494,0,0,0,966.858,2471.32Zm19.477-6.15a11.128,11.128,0,0,0-2.99,4.18,38.471,38.471,0,0,1-2.7,4.95,5.436,5.436,0,0,1-4.438,2.39,4.815,4.815,0,0,1-2.249-.56,1.935,1.935,0,0,1-1.306-1.71l0.1-.14a1.246,1.246,0,0,1,.24.46,2.776,2.776,0,0,0,2.865,1.55c1.311,0,2.626-.95,3.938-2.88q1.586-2.655,3.175-5.36c1.19-1.93,2.265-2.91,3.252-2.95Zm4.762-.5a2.806,2.806,0,0,1-1.016,2.33,5.48,5.48,0,0,1-2,.86,3.015,3.015,0,0,0-1.3.49,2.959,2.959,0,0,0,.685.67,7.017,7.017,0,0,1,1.208,1.25,3,3,0,0,1,.663,1.83,4.469,4.469,0,0,1-4.6,4.59,4.877,4.877,0,0,1-2.06-.52,1.853,1.853,0,0,1-1.352-1.45l0.165-.23a3.208,3.208,0,0,0,1.151,1.3,3,3,0,0,0,1.646.5,3.472,3.472,0,0,0,2.709-1.46,4.566,4.566,0,0,0,1.106-2.91,3.966,3.966,0,0,0-.449-1.86,5.577,5.577,0,0,0-.852-1.11,1.893,1.893,0,0,1-.453-0.61,3.131,3.131,0,0,1,1.024-.69,7.856,7.856,0,0,0,1.85-1.4,3.363,3.363,0,0,0,1.016-2.37c0-.37-0.14-0.56-0.429-0.56a6.633,6.633,0,0,0-1.843.55,6.7,6.7,0,0,1-2.371.54,17.316,17.316,0,0,1-2.446-.26,14.848,14.848,0,0,0-2.418-.27,5.2,5.2,0,0,0-3.33.96,3.351,3.351,0,0,0-1.2,2.77,6.279,6.279,0,0,0,.147,1.29l-0.147.1a0.814,0.814,0,0,1-.3-0.65,3.714,3.714,0,0,1-.117-0.81,4.063,4.063,0,0,1,1.776-3.36,5.991,5.991,0,0,1,3.769-1.25,16.734,16.734,0,0,1,2.81.34,17.621,17.621,0,0,0,2.809.33,4.91,4.91,0,0,0,1.494-.33,4.584,4.584,0,0,1,1.424-.34,1.057,1.057,0,0,1,.972.58A2.477,2.477,0,0,1,991.1,2464.67Zm5.835,7.94a3.755,3.755,0,0,1-1.283,2.93,4.469,4.469,0,0,1-3.1,1.15,2.386,2.386,0,0,1-1.73-.66,2.226,2.226,0,0,1-.691-1.68,3.784,3.784,0,0,1,1.328-2.88,4.424,4.424,0,0,1,3.057-1.2,2.4,2.4,0,0,1,1.731.66A2.229,2.229,0,0,1,996.932,2472.61Zm-0.974-.56a1.216,1.216,0,0,0-1.365-1.39,3.2,3.2,0,0,0-2.4,1.55,4.6,4.6,0,0,0-1.1,2.7,1.214,1.214,0,0,0,1.368,1.38,3.123,3.123,0,0,0,2.393-1.54A4.541,4.541,0,0,0,995.958,2472.05Zm14.912-8.45-0.12.14a1.406,1.406,0,0,0-1.09-.46c-0.79,0-1.6,1.16-2.44,3.48q-2.055,5.775-2.39,6.45c-1.16,2.32-2.52,3.48-4.11,3.48a3.319,3.319,0,0,1-2.037-.58,2.165,2.165,0,0,1-.879-1.83,4.022,4.022,0,0,1,1.476-3.02,4.62,4.62,0,0,1,3.2-1.36,2.084,2.084,0,0,1,1.89.88q1.755-4.08,2.05-4.63,1.725-3.27,3.22-3.27a1.954,1.954,0,0,1,.78.2A0.626,0.626,0,0,1,1010.87,2463.6Zm-6.92,7.72a0.923,0.923,0,0,0-1.14-.91,3.246,3.246,0,0,0-2.55,1.45,4.729,4.729,0,0,0-1.121,2.88,1.355,1.355,0,0,0,1.511,1.55c0.65,0,1.38-.67,2.18-2.02A6.555,6.555,0,0,0,1003.95,2471.32Zm10.19-1.07a2.468,2.468,0,0,1-.44.69,19.4,19.4,0,0,0-2.19,3.62q-4.14,8.82-8.53,8.82a2.085,2.085,0,0,1-1.19-.39,1.19,1.19,0,0,1-.66-1l0.12-.14a1.287,1.287,0,0,0,.66.84,2.177,2.177,0,0,0,1.11.3,4.154,4.154,0,0,0,2.73-1.65,24.752,24.752,0,0,0,2.51-3.44c0.62-1.01,1.23-2.02,1.83-3.02l-0.02-.02c-1,.8-1.51,1.22-1.55,1.25a3.229,3.229,0,0,1-1.84.58,1.049,1.049,0,0,1-1.26-1.11,4.259,4.259,0,0,1,.73-2.14c0.44-.63.88-1.27,1.31-1.92l-1.07.35-0.14-.12a5.993,5.993,0,0,1,1.42-.78,7.294,7.294,0,0,1,1.62-.65l0.16,0.11a18.934,18.934,0,0,1-1.45,2.38,7.2,7.2,0,0,0-1.35,2.81,0.551,0.551,0,0,0,.57.67c0.53,0,1.35-.53,2.44-1.58,0.64-.6,1.54-1.58,2.73-2.93a11.107,11.107,0,0,1,1.58-1.65Zm0.41,3.34a2.354,2.354,0,0,1,.69-1.71,2.354,2.354,0,0,1,3.37,0,2.439,2.439,0,0,1,0,3.42,2.354,2.354,0,0,1-3.37,0A2.371,2.371,0,0,1,1014.55,2473.59Zm0.87,1.55h1.56v-0.17a1,1,0,0,1-.37-0.04,0.221,0.221,0,0,1-.16-0.23v-1.08a1.155,1.155,0,0,1,.73.13,0.751,0.751,0,0,1,.22.6,1.359,1.359,0,0,0,.11.6,0.474,0.474,0,0,0,.48.25,0.572,0.572,0,0,0,.55-0.3,1.209,1.209,0,0,0,.11-0.51h-0.19a1.628,1.628,0,0,1-.07.41,0.209,0.209,0,0,1-.2.15,0.951,0.951,0,0,1-.28-0.6,1.038,1.038,0,0,0-.73-0.77v-0.04a1.633,1.633,0,0,0,.78-0.25,0.641,0.641,0,0,0,.29-0.52,0.671,0.671,0,0,0-.36-0.6,1.893,1.893,0,0,0-.94-0.22h-1.53v0.18a1.28,1.28,0,0,1,.41.05,0.215,0.215,0,0,1,.11.21v2.31a0.214,0.214,0,0,1-.1.22,1.264,1.264,0,0,1-.42.05v0.17Zm-1.16-1.55a2.65,2.65,0,0,0,.77,1.91,2.656,2.656,0,0,0,3.78,0,2.729,2.729,0,0,0,0-3.82,2.545,2.545,0,0,0-1.89-.79,2.508,2.508,0,0,0-1.88.79A2.635,2.635,0,0,0,1014.26,2473.59Zm2.19-.15v-1.05a0.2,0.2,0,0,1,.13-0.2,0.656,0.656,0,0,1,.31-0.06,0.787,0.787,0,0,1,.55.17,0.624,0.624,0,0,1,.18.46,0.569,0.569,0,0,1-.34.6A2.809,2.809,0,0,1,1016.45,2473.44Zm-60.679,7.31a1.037,1.037,0,0,0-.479.44,8.267,8.267,0,0,1-2.908,2.35,5.588,5.588,0,0,1-1.33.48l-0.008-.04a11.374,11.374,0,0,0,4.032-3.43c-0.151.02-.77,0.1-0.8,0.11s-0.214.05-.246,0.05a0.471,0.471,0,0,1-.238-0.11,6.827,6.827,0,0,1-2.082,1.38l-0.025-.04a9.307,9.307,0,0,0,2.16-2.19,0.505,0.505,0,0,0-.285-0.34,1.193,1.193,0,0,1,.371-0.07,0.747,0.747,0,0,1,.7.52,0.4,0.4,0,0,1-.235.21c-0.076.06-.131,0.11-0.293,0.25a4.249,4.249,0,0,0,1.059-.11,4.006,4.006,0,0,1,.389-0.19,0.605,0.605,0,0,1,.262.22c0.219,0.24.24,0.27,0.224,0.33C956.022,2480.66,955.994,2480.67,955.771,2480.75Zm4.775,1.12c-0.1,0-.253-0.01-0.277-0.01-0.346-.02-1.156-0.02-1.593-0.02a12.249,12.249,0,0,0-1.742.13,1.55,1.55,0,0,1-.231.05,0.675,0.675,0,0,1-.37-0.76,1.3,1.3,0,0,1,.236-0.39c0.072,0.46.177,0.48,0.858,0.48,0.377,0,2.512-.02,2.672-0.07a1.318,1.318,0,0,1,.259-0.06c0.244,0,.728.1,0.643,0.41A0.433,0.433,0,0,1,960.546,2481.87Zm2.771-1.12c-0.054.11-.358,0.84-0.433,1a4.044,4.044,0,0,1-2.164,2.06l-0.026-.04a5.55,5.55,0,0,0,2-3c0.1-.37.007-0.4-0.357-0.52a1.374,1.374,0,0,1,.527-0.17c0.194,0,.666.19,0.609,0.4C963.463,2480.53,963.335,2480.71,963.317,2480.75Zm1.146,2.21c-0.14.09-.742,0.47-0.864,0.56a0.35,0.35,0,0,1-.19.09,0.784,0.784,0,0,1-.28-0.66,3.922,3.922,0,0,1,.193-0.35c0.076-.17.324-0.96,0.443-1.4a6.385,6.385,0,0,0,.259-1.23,0.571,0.571,0,0,0-.394-0.23,1.018,1.018,0,0,1,.467-0.17c0.213,0,.751.21,0.691,0.43-0.017.06-.18,0.31-0.207,0.36-0.126.26-.632,1.84-0.733,2.21-0.013.04-.012,0.09,0.03,0.09a9.642,9.642,0,0,0,2.7-1.79l0.034,0.04A6.906,6.906,0,0,1,964.463,2482.96Zm6.415-2.15a0.54,0.54,0,0,0-.27.23,9.055,9.055,0,0,1-2.487,2.23,6.6,6.6,0,0,1-1.9.78l0-.03a11.3,11.3,0,0,0,2.927-2.14c0.3-.3,1.077-1.24,1.082-1.26s-0.025-.03-0.043-0.03c-0.147,0-.925.15-0.955,0.15a0.509,0.509,0,0,1-.244-0.14,6.324,6.324,0,0,1-2.127,1.42l-0.016-.04a9.932,9.932,0,0,0,2.169-2.2c0.037-.13-0.066-0.2-0.278-0.34a1.386,1.386,0,0,1,.383-0.07,0.81,0.81,0,0,1,.688.51,0.417,0.417,0,0,1-.228.21c-0.039.03-.169,0.13-0.307,0.25a3.806,3.806,0,0,0,1.122-.12,2.281,2.281,0,0,1,.349-0.18,2.923,2.923,0,0,1,.4.37,0.178,0.178,0,0,1,.08.18A0.435,0.435,0,0,1,970.878,2480.81Zm0.584-.56a0.214,0.214,0,0,1-.182-0.15,1.425,1.425,0,0,0-.537-0.66c0.462-.02,1.083.2,0.976,0.59A0.3,0.3,0,0,1,971.462,2480.25Zm0.668-.28c-0.089,0-.1-0.03-0.241-0.27a1.027,1.027,0,0,0-.517-0.49c0.6-.03,1.124.16,1.022,0.53A0.277,0.277,0,0,1,972.13,2479.97Zm4.682,1.28a1.061,1.061,0,0,0-.4.41,6.449,6.449,0,0,1-1.8,1.74,4.467,4.467,0,0,1-1.856.71l0-.04a7.548,7.548,0,0,0,3.279-2.95,13.26,13.26,0,0,0-2.232.35c-0.039.01-.265,0.1-0.295,0.1a0.64,0.64,0,0,1-.393-0.76,0.749,0.749,0,0,1,.146-0.27,0.5,0.5,0,0,0,.573.4c0.4,0,2.212-.17,2.346-0.22,0.051-.03.264-0.16,0.307-0.18a0.144,0.144,0,0,1,.092-0.02,0.866,0.866,0,0,1,.456.55A0.34,0.34,0,0,1,976.812,2481.25Zm-0.588-1.16a13.385,13.385,0,0,0-1.552.13,2.552,2.552,0,0,1-.392.06,0.5,0.5,0,0,1-.35-0.66,1.089,1.089,0,0,1,.049-0.11,0.788,0.788,0,0,0,.7.26,5.574,5.574,0,0,0,1.373-.17,1.435,1.435,0,0,1,.334-0.08c0.156,0,.588.12,0.518,0.36C976.846,2480.08,976.626,2480.09,976.224,2480.09Zm4.21,2.45c-0.215.14-1.326,0.84-1.373,0.88a0.516,0.516,0,0,1-.326.19,0.854,0.854,0,0,1-.5-0.95,0.936,0.936,0,0,1,.138-0.28,0.478,0.478,0,0,0,.376.42,10.428,10.428,0,0,0,1.779-.92,15.714,15.714,0,0,0,2.416-1.8l0.032,0.02A8.485,8.485,0,0,1,980.434,2482.54Zm-0.421-1.86c-0.122,0-.166-0.06-0.346-0.34a1.663,1.663,0,0,0-.785-0.7,2.033,2.033,0,0,1,.469-0.05c0.341,0,1.255.11,1.082,0.73A0.477,0.477,0,0,1,980.013,2480.68Zm3.562,2.52a0.242,0.242,0,0,1-.278-0.31,0.843,0.843,0,0,1,.464-0.46,3.348,3.348,0,0,0,1.116-.92C984.7,2482.3,984.086,2483.2,983.575,2483.2Zm4.665-2.14s-0.456-.05-0.484-0.06c-0.2-.02-0.531-0.03-0.744-0.03s-0.4,0-.6.01c-0.118.39-.411,1.55-0.442,1.68-0.013.07-.115,0.52-0.122,0.56a1.138,1.138,0,0,1-.619.81c-0.158,0-.172-0.08-0.222-0.35a0.873,0.873,0,0,0-.446-0.65l0.012-.04a2.587,2.587,0,0,0,.561.06,0.2,0.2,0,0,0,.218-0.09,9.856,9.856,0,0,0,.373-1.18c0.065-.24.088-0.32,0.2-0.75a6.425,6.425,0,0,0-1.321.26,0.5,0.5,0,0,1-.2.05,0.594,0.594,0,0,1-.422-0.7,1.17,1.17,0,0,1,.158-0.29,0.528,0.528,0,0,0,.573.4c0.085,0,1.141-.08,1.3-0.09a2.973,2.973,0,0,0,.188-0.98,0.475,0.475,0,0,0-.4-0.32,0.951,0.951,0,0,1,.5-0.18,0.674,0.674,0,0,1,.683.46,0.858,0.858,0,0,1-.172.27,4.565,4.565,0,0,0-.28.71c0.222-.01,1.006-0.08,1.177-0.12a0.993,0.993,0,0,1,.274-0.07c0.121,0,.6.14,0.522,0.43A0.238,0.238,0,0,1,988.24,2481.06Zm-0.659,2.05c-0.219,0-.267-0.19-0.345-0.57a1.972,1.972,0,0,0-.52-1.03c0.61,0.1,1.429.63,1.266,1.22A0.513,0.513,0,0,1,987.581,2483.11Zm0.832-2.89c-0.109,0-.125-0.03-0.27-0.28a1.652,1.652,0,0,0-.437-0.51c0.354-.03,1.1.13,0.978,0.59A0.289,0.289,0,0,1,988.413,2480.22Zm0.73-.41a0.341,0.341,0,0,1-.278-0.26,1.429,1.429,0,0,0-.525-0.47c0.4-.02,1.178.04,1.056,0.49A0.312,0.312,0,0,1,989.143,2479.81Zm5.272,1.49a2.13,2.13,0,0,1-.39-0.04,4.886,4.886,0,0,0-.727-0.06c-0.1,0-.384.01-0.795,0.05,0.28,0.22.31,0.24,0.3,0.29a0.264,0.264,0,0,1-.141.13,1.148,1.148,0,0,0-.177.23,4.656,4.656,0,0,1-2.634,2.22l-0.006-.05a6.387,6.387,0,0,0,2.127-2.47,0.332,0.332,0,0,0-.018-0.3,5.712,5.712,0,0,0-1.1.23,1.206,1.206,0,0,1-.388.13,0.609,0.609,0,0,1-.379-0.75,0.809,0.809,0,0,1,.121-0.26,0.469,0.469,0,0,0,.535.39c0.183,0,1.309-.13,1.559-0.16,0.249-.01,1.257-0.1,1.435-0.15a2.229,2.229,0,0,1,.4-0.1c0.109,0,.627.18,0.547,0.47A0.28,0.28,0,0,1,994.415,2481.3Zm-1.015-1.22c-0.384.01-.812,0.06-1.428,0.13-0.107.01-.208,0.03-0.312,0.03a0.462,0.462,0,0,1-.35-0.61,0.332,0.332,0,0,1,.063-0.12,0.567,0.567,0,0,0,.543.26,6.048,6.048,0,0,0,1.255-.14,2.727,2.727,0,0,1,.4-0.1c0.157,0,.5.09,0.445,0.31S993.787,2480.07,993.4,2480.08Zm1.432,0.52c-0.078,0-.091-0.01-0.209-0.21a1.631,1.631,0,0,0-.466-0.54c0.426,0,1.044.1,0.922,0.54A0.257,0.257,0,0,1,994.832,2480.6Zm0.579-.39c-0.079,0-.1-0.05-0.185-0.19a1.421,1.421,0,0,0-.526-0.58c0.465,0.02,1.071.09,0.951,0.53A0.293,0.293,0,0,1,995.411,2480.21Zm3.015,0.48a1,1,0,0,0-.232.13c-0.618.5-.689,0.56-0.88,0.7,0.156,0.1.224,0.14,0.2,0.21-0.007.03-.087,0.16-0.1,0.19a4.684,4.684,0,0,0-.168.5c-0.057.2-.278,1.14-0.33,1.33a0.411,0.411,0,0,1-.349.37c-0.194,0-.205-0.37-0.187-0.43s0.107-.26.123-0.3c0.127-.33.337-1.04,0.395-1.25a0.771,0.771,0,0,0,.047-0.35,7.023,7.023,0,0,1-1.965,1l0-.06a10.992,10.992,0,0,0,2.984-2.41c0.03-.11-0.029-0.16-0.171-0.29a1.219,1.219,0,0,1,.171-0.02,0.745,0.745,0,0,1,.662.53A0.29,0.29,0,0,1,998.426,2480.69Z" transform="translate(-879.25 -2462.88)"/>
</svg>
