<svg xmlns="http://www.w3.org/2000/svg" width="88" height="64" viewBox="0 0 88 64">
  <defs>
    <style>
      .cls-1 {
        fill-rule: evenodd;
      }
    </style>
  </defs>
  <path id="icon_beaute_de_coeur.svg" class="cls-1" d="M786.484,2678.16a3.222,3.222,0,0,1,.991-2.39,3.312,3.312,0,0,1,2.392-.96,3.26,3.26,0,0,1,2.408.98,3.219,3.219,0,0,1,.992,2.37,3.156,3.156,0,0,1-1,2.38,3.262,3.262,0,0,1-2.4.97,3.416,3.416,0,0,1-1.678-.44,3.279,3.279,0,0,1-1.249-1.21A3.33,3.33,0,0,1,786.484,2678.16Zm6.15,0a2.627,2.627,0,0,0-.809-1.95,2.768,2.768,0,0,0-4.721,1.95,2.58,2.58,0,0,0,.815,1.94,2.729,2.729,0,0,0,1.948.8,2.66,2.66,0,0,0,1.958-.79A2.611,2.611,0,0,0,792.634,2678.16Zm-4.06-1.52a1.806,1.806,0,0,1,.009-0.24,0.209,0.209,0,0,1,.07-0.12,0.347,0.347,0,0,1,.146-0.06,1.68,1.68,0,0,1,.245-0.01h1.075a1.424,1.424,0,0,1,.961.27,1.089,1.089,0,0,1,.324.88,1.193,1.193,0,0,1-.248.8,1.1,1.1,0,0,1-.727.36l0.823,0.8c0.045,0.05.084,0.11,0.134,0.16a0.579,0.579,0,0,1,.092.16,0.424,0.424,0,0,1,.014.18,0.4,0.4,0,0,1-.106.18,0.441,0.441,0,0,1-.293.11,0.3,0.3,0,0,1-.265-0.12V2680l-1.408-1.45h-0.146v1.18a0.472,0.472,0,0,1-.076.28,0.313,0.313,0,0,1-.273.12,0.306,0.306,0,0,1-.288-0.12,0.506,0.506,0,0,1-.063-0.28v-3.09Zm0.7,1.17h0.845a0.429,0.429,0,0,0,.519-0.44,0.362,0.362,0,0,0-.138-0.33,0.522,0.522,0,0,0-.381-0.11h-0.845v0.88Zm-8.173.04a1.814,1.814,0,0,0-.653-0.43,2.659,2.659,0,0,0-.945-0.16,2.9,2.9,0,0,0-1.317.3,4.506,4.506,0,0,0-1.075.75,6.443,6.443,0,0,0-.851.99c-0.248.35-.468,0.69-0.656,1.01-0.046.08-.113,0.2-0.207,0.37s-0.185.35-.278,0.54-0.186.36-.272,0.53-0.144.28-.177,0.35a6.278,6.278,0,0,1,.077-0.73c0.05-.27.1-0.55,0.163-0.83s0.129-.55.205-0.81,0.137-.5.195-0.7,0.094-.33.126-0.43a0.829,0.829,0,0,0,.047-0.23,1.052,1.052,0,0,0-.095-0.47,0.821,0.821,0,0,0-.254-0.3,0.861,0.861,0,0,0-.339-0.17,1.715,1.715,0,0,0-.384-0.05,1.008,1.008,0,0,0-.423.11,1.828,1.828,0,0,0-.422.29,2.214,2.214,0,0,0-.37.42,2.164,2.164,0,0,0-.263.5,3.991,3.991,0,0,1-.565,1.01c-0.2.26-.587,0.73-1.3,1.52-0.263.28-.522,0.56-0.786,0.83a8.36,8.36,0,0,1-.79.69,4.42,4.42,0,0,1-.763.48,1.586,1.586,0,0,1-.7.18,0.743,0.743,0,0,1-.682-0.49,3.108,3.108,0,0,1-.24-1.35,9.552,9.552,0,0,1,.068-1.09c0.046-.4.1-0.78,0.167-1.16s0.129-.71.194-1.01,0.105-.52.13-0.64a0.891,0.891,0,0,0-.255-0.61,0.965,0.965,0,0,0-.985-0.19,1.225,1.225,0,0,0-.306.16,1.4,1.4,0,0,0-.251.2,0.673,0.673,0,0,0-.148.21c-0.038.1-.071,0.18-0.1,0.26s-0.045.16-.063,0.23-0.034.14-.052,0.21-0.03.14-.053,0.23a4.355,4.355,0,0,1-.125.42q-0.091.255-.2,0.54c-0.071.19-.143,0.37-0.223,0.54a4,4,0,0,1-.208.41,7.554,7.554,0,0,1-.45.71c-0.189.27-.4,0.55-0.618,0.83s-0.451.55-.685,0.81a7.8,7.8,0,0,1-.642.62c-0.162.13-.335,0.27-0.516,0.4a4.455,4.455,0,0,1-.555.36,4.17,4.17,0,0,1-.584.25,1.817,1.817,0,0,1-.611.1,0.408,0.408,0,0,1-.364-0.24,1.286,1.286,0,0,1-.139-0.65,8.263,8.263,0,0,1,.133-1.51c0.089-.46.185-0.88,0.291-1.24s0.2-.67.289-0.92a1.73,1.73,0,0,0,.132-0.51,1.662,1.662,0,0,0-.048-0.38,0.909,0.909,0,0,0-.171-0.35,0.956,0.956,0,0,0-.323-0.26,1.114,1.114,0,0,0-.509-0.1,0.91,0.91,0,0,0-.392.09,0.821,0.821,0,0,0-.265.19,1.428,1.428,0,0,0-.191.3l-0.006.01a14.835,14.835,0,0,1-1.344,1.74c-0.258.28-1.344,1.29-1.643,1.56s-1.1.94-1.294,1.08c-0.306.24-.614,0.46-0.911,0.68a7.139,7.139,0,0,1-.914.54,9.423,9.423,0,0,1-1.059.4,3.565,3.565,0,0,1-.985.15,2.116,2.116,0,0,1-.593-0.07,1.157,1.157,0,0,1-.426-0.22,1.3,1.3,0,0,1-.3-0.36,2.455,2.455,0,0,1-.2-0.52c0.367-.29.711-0.54,1.029-0.78a7.855,7.855,0,0,0,.806-0.66c0.354-.33.686-0.64,0.993-0.95a6.238,6.238,0,0,0,.8-0.95,4.638,4.638,0,0,0,.534-1.05,3.945,3.945,0,0,0,.2-1.27,1.889,1.889,0,0,0-.158-0.8,3.731,3.731,0,0,0-.468-0.76,1.251,1.251,0,0,0-.259-0.23,2.283,2.283,0,0,0-.322-0.18,1.6,1.6,0,0,0-.334-0.13,1.083,1.083,0,0,0-.276-0.04,3.1,3.1,0,0,0-1.238.29,4.063,4.063,0,0,0-1.206.86,8.08,8.08,0,0,0-1.2,1.51,8.671,8.671,0,0,0-.739,1.56,7.511,7.511,0,0,0-.379,1.52c-0.022.17-.037,0.33-0.051,0.5a0.268,0.268,0,0,0-.089.01c-0.225.02-.472,0.04-0.748,0.04a3.635,3.635,0,0,1-1.116-.15,2.485,2.485,0,0,1-.745-0.38,1.561,1.561,0,0,1-.433-0.46,1.347,1.347,0,0,1-.169-0.45c-0.036-.21-0.079-0.44-0.134-0.69a3.7,3.7,0,0,0-.236-0.72,2.216,2.216,0,0,0-.4-0.61,1.284,1.284,0,0,0-.631-0.35,0.206,0.206,0,0,1-.1-0.08c-0.051-.05-0.108-0.11-0.166-0.17s-0.123-.14-0.193-0.21a1.659,1.659,0,0,0-.229-0.17,1.8,1.8,0,0,0-.295-0.13,1.341,1.341,0,0,0-.3-0.04h-0.1a1.946,1.946,0,0,0-.337.02l-0.167.03a0.338,0.338,0,0,0-.095.03,3.96,3.96,0,0,0-1.072.41,5.824,5.824,0,0,0-.612.37,6.461,6.461,0,0,0-1.045.83c-1.158.97-3.1,2.39-4.146,3.14-0.788.56-1.322,0.93-1.809,1.25-0.488.3-1,.6-1.523,0.89a16.594,16.594,0,0,1-1.574.74,9.916,9.916,0,0,1-1.554.52,5.918,5.918,0,0,1-1.464.19,2.615,2.615,0,0,1-.99-0.17,1.779,1.779,0,0,1-.653-0.49,1.937,1.937,0,0,1-.36-0.73,3.735,3.735,0,0,1-.106-0.91,6.129,6.129,0,0,1,.08-0.96,8.934,8.934,0,0,1,.212-1,10.322,10.322,0,0,1,.326-0.98c0.125-.33.255-0.64,0.392-0.92a8.951,8.951,0,0,1,1.336-1.99,14.181,14.181,0,0,1,1.709-1.65,7.868,7.868,0,0,1,.8-0.54c0.313-.19.636-0.36,0.967-0.52a9.233,9.233,0,0,1,.95-0.37,2.562,2.562,0,0,1,.763-0.15,1.434,1.434,0,0,1,.5.09,3.18,3.18,0,0,1-.216.31,4.605,4.605,0,0,1-.324.37,2.861,2.861,0,0,0-.549.69,1.205,1.205,0,0,0-.167.46,1.064,1.064,0,0,0,.311.78,1.151,1.151,0,0,0,.866.31,1.405,1.405,0,0,0,1.11-.51c0.047-.06.112-0.15,0.2-0.27s0.174-.24.268-0.39,0.194-.31.291-0.48,0.186-.32.266-0.48a3.629,3.629,0,0,0,.19-0.43,0.99,0.99,0,0,0,.076-0.32,1.046,1.046,0,0,0-.123-0.43,3.681,3.681,0,0,0-.281-0.52,5.1,5.1,0,0,0-.353-0.49,1.718,1.718,0,0,0-1.031-.64,4.969,4.969,0,0,0-1.062-.09,3.57,3.57,0,0,0-.883.14,8.934,8.934,0,0,0-1.036.34c-0.351.13-.684,0.27-1,0.42s-0.588.29-.8,0.42a10.3,10.3,0,0,0-.934.62,11.629,11.629,0,0,0-.973.76c-0.321.27-.623,0.55-0.912,0.83a8.79,8.79,0,0,0-.747.81,13.164,13.164,0,0,0-1.014,1.47,12.513,12.513,0,0,0-.815,1.65,10.656,10.656,0,0,0-.547,1.74,7.749,7.749,0,0,0-.2,1.71,5.934,5.934,0,0,0,.262,1.82,3.707,3.707,0,0,0,.8,1.41,3.542,3.542,0,0,0,1.367.9,5.46,5.46,0,0,0,1.952.32,7.547,7.547,0,0,0,1.985-.29,13.86,13.86,0,0,0,2.091-.77,20.235,20.235,0,0,0,2.065-1.1c0.679-.42,1.318-0.85,1.922-1.31,0.444-.33.865-0.67,1.266-1.01,0.24-.2.456-0.4,0.66-0.6-0.009.06-.025,0.1-0.039,0.16-0.045.23-.088,0.45-0.119,0.67s-0.058.41-.072,0.58-0.017.29-.017,0.34a3.452,3.452,0,0,0,.126.88,2.861,2.861,0,0,0,.4.88,2.368,2.368,0,0,0,.7.68,1.876,1.876,0,0,0,1.025.27,1.6,1.6,0,0,0,.269-0.02c0.13-.01.269-0.03,0.418-0.05s0.295-.04.438-0.07a2.7,2.7,0,0,0,.318-0.06,4.4,4.4,0,0,0,1.1-.46,7.6,7.6,0,0,0,1.114-.75,8.582,8.582,0,0,0,1-.93,6.041,6.041,0,0,0,.757-1.02c0.1-.19.2-0.34,0.277-0.46a0.354,0.354,0,0,1,.171-0.18,0.82,0.82,0,0,1,.244.09c0.127,0.05.293,0.11,0.5,0.18a6.828,6.828,0,0,0,.726.19,4.356,4.356,0,0,0,.918.09,4.248,4.248,0,0,0,1.287-.18,0.013,0.013,0,0,1,.014-0.01,4.6,4.6,0,0,0,.193.96,2.968,2.968,0,0,0,.68,1.18,2.782,2.782,0,0,0,1.136.73,4.608,4.608,0,0,0,1.609.26,4.178,4.178,0,0,0,1.532-.31,9.513,9.513,0,0,0,1.618-.81,15.12,15.12,0,0,0,1.6-1.17,19.587,19.587,0,0,0,2.726-2.75c-0.035.24-.065,0.46-0.085,0.66-0.022.22-.04,0.41-0.048,0.55s-0.017.24-.017,0.27a8.21,8.21,0,0,0,.065,1.03,2.683,2.683,0,0,0,.3.96,1.888,1.888,0,0,0,.7.71,2.555,2.555,0,0,0,1.272.27,3.7,3.7,0,0,0,1.161-.23,5.593,5.593,0,0,0,.986-0.46,6.879,6.879,0,0,0,.793-0.56c0.234-.19.428-0.35,0.584-0.49a5.394,5.394,0,0,0,.537-0.52c0.18-.2.352-0.41,0.519-0.62s0.327-.43.47-0.64,0.274-.4.381-0.57a4.724,4.724,0,0,0,.192,1.44,2.562,2.562,0,0,0,.536.97,1.971,1.971,0,0,0,.808.55,3.049,3.049,0,0,0,1.026.17,2.731,2.731,0,0,0,1.161-.28,6.758,6.758,0,0,0,1.23-.76,11.56,11.56,0,0,0,1.243-1.13c0.4-.42.782-0.85,1.15-1.32-0.013.26-.021,0.5-0.021,0.73q0,0.375.008,0.69c0.009,0.21.014,0.41,0.024,0.6s0.024,0.36.034,0.53,0.03,0.33.052,0.5c0.026,0.26.044,0.53,0.058,0.81a3.008,3.008,0,0,0,.133.77,1.227,1.227,0,0,0,.376.57,1.208,1.208,0,0,0,.8.23,0.779,0.779,0,0,0,.463-0.13,0.869,0.869,0,0,0,.279-0.36,2.4,2.4,0,0,0,.161-0.55c0.039-.21.079-0.44,0.118-0.7a3.058,3.058,0,0,1,.125-0.5c0.069-.2.142-0.41,0.225-0.63s0.168-.44.263-0.65,0.182-.41.259-0.57c0.093-.18.2-0.38,0.327-0.59s0.251-.43.392-0.64,0.272-.4.411-0.59,0.263-.36.373-0.49c0.158-.2.317-0.38,0.478-0.56a5.121,5.121,0,0,1,.465-0.46,2.976,2.976,0,0,1,.434-0.32,0.739,0.739,0,0,1,.381-0.11,0.6,0.6,0,0,1,.309.09c0.1,0.07.211,0.14,0.329,0.22a3.981,3.981,0,0,0,.387.22,1.069,1.069,0,0,0,.478.1,0.876,0.876,0,0,0,.639-0.26,0.9,0.9,0,0,0,.254-0.66,1.9,1.9,0,0,0-.123-0.68A1.679,1.679,0,0,0,781.1,2677.85Zm-40.134,4.96a6.5,6.5,0,0,1-.544.83c-0.139.18-.325,0.39-0.559,0.64a9.042,9.042,0,0,1-.766.7,4.826,4.826,0,0,1-.845.57,1.662,1.662,0,0,1-.8.24,0.5,0.5,0,0,1-.245-0.08,1.029,1.029,0,0,1-.237-0.2,1.072,1.072,0,0,1-.181-0.28,0.822,0.822,0,0,1-.074-0.33,4.578,4.578,0,0,1,.177-1.22,8.361,8.361,0,0,1,.469-1.26,8.664,8.664,0,0,1,1.427-2.17,4.416,4.416,0,0,1,.781-0.68,1.306,1.306,0,0,1,.71-0.25,0.18,0.18,0,0,1,.169.09,0.873,0.873,0,0,1,.078.24c0.019,0.11.037,0.23,0.054,0.37a3.83,3.83,0,0,0,.09.47c0.05,0.16.1,0.31,0.16,0.45l0.166,0.39c0.051,0.12.1,0.23,0.134,0.32a0.833,0.833,0,0,1,.054.27A1.776,1.776,0,0,1,740.967,2682.81Zm7.974-1.7a7.566,7.566,0,0,1,.3-0.9,8.6,8.6,0,0,1,.394-0.83,6.962,6.962,0,0,1,.42-0.69,3.07,3.07,0,0,1,.407-0.47,0.557,0.557,0,0,1,.346-0.18,0.37,0.37,0,0,1,.3.18,1.03,1.03,0,0,1,.134.6,1.374,1.374,0,0,1-.162.6,5.591,5.591,0,0,1-.4.64c-0.157.21-.323,0.42-0.5,0.62s-0.33.36-.467,0.5-0.284.27-.438,0.4-0.325.27-.514,0.42A6.04,6.04,0,0,1,748.941,2681.11Zm36.454,3.83a3.531,3.531,0,0,1-.1.67,0.865,0.865,0,0,1-.207.34,3.716,3.716,0,0,1-.517.48,3.53,3.53,0,0,1-.576.38,1.167,1.167,0,0,1-.439.13,1.684,1.684,0,0,1-.6-0.09,0.714,0.714,0,0,1-.347-0.25,1.013,1.013,0,0,1-.164-0.44,5.256,5.256,0,0,1-.035-0.65c0-.19,0-0.34,0-0.46a2.29,2.29,0,0,1,.033-0.32c0.058-.45.635-0.67,1.719-0.67a1.762,1.762,0,0,1,.626.09,1.088,1.088,0,0,1,.415.32A0.6,0.6,0,0,1,785.4,2684.94Zm-63.663-46.86a4.391,4.391,0,0,1-.355,1.74,6.043,6.043,0,0,1-.446.83c-0.173.28-.383,0.57-0.619,0.88-0.138.17-.28,0.33-0.424,0.49s-0.285.31-.424,0.45-0.269.26-.4,0.37a4.1,4.1,0,0,1-.354.27,4.659,4.659,0,0,1-.819.45c-0.335.14-.713,0.28-1.134,0.41a9.327,9.327,0,0,1-1.192.3,6.092,6.092,0,0,1-1.083.1,4.272,4.272,0,0,1-.921-0.09,1.966,1.966,0,0,1-.7-0.29,1.34,1.34,0,0,1-.436-0.49,1.542,1.542,0,0,1-.156-0.71,0.96,0.96,0,0,1,.119-0.48,1.33,1.33,0,0,1,.32-0.37,1.447,1.447,0,0,1,.473-0.23,2.137,2.137,0,0,1,.576-0.08,3.014,3.014,0,0,1,.32.01c0.09,0.01.176,0.03,0.252,0.04,0.08,0.03.157,0.05,0.231,0.08s0.164,0.07.263,0.12a1.335,1.335,0,0,0,1.081.16,4.7,4.7,0,0,0,.456-0.12,3.349,3.349,0,0,0,.455-0.16,1.6,1.6,0,0,0,.333-0.16,5.6,5.6,0,0,0,.781-0.65,6.558,6.558,0,0,0,.713-0.83,5.009,5.009,0,0,0,.523-0.91,2.18,2.18,0,0,0,.2-0.88,1.245,1.245,0,0,0-.154-0.61,2.043,2.043,0,0,0-.388-0.49,3.009,3.009,0,0,0-.534-0.37,4.533,4.533,0,0,0-1.083-.4,2.241,2.241,0,0,0-.366-0.05,5.141,5.141,0,0,0-.6.03c-0.163.01-.31,0.04-0.44,0.06a2.195,2.195,0,0,0-.362.12c-0.115.04-.241,0.1-0.369,0.15a2.055,2.055,0,0,1-.407.16,1.292,1.292,0,0,1-.343.05,1.127,1.127,0,0,1-.453-0.09,0.994,0.994,0,0,1-.35-0.21,1.054,1.054,0,0,1-.222-0.32,0.871,0.871,0,0,1-.079-0.35,1.627,1.627,0,0,1,.106-0.59,1.444,1.444,0,0,1,.279-0.45,1.468,1.468,0,0,1,.4-0.31,1.669,1.669,0,0,1,.475-0.17,2.485,2.485,0,0,1,.309-0.04c0.114-.01.226-0.01,0.333-0.02h0.289a0.5,0.5,0,0,0,.152-0.01c0.147-.09.317-0.19,0.516-0.32s0.412-.28.627-0.44,0.435-.33.652-0.5,0.412-.35.586-0.52a3.534,3.534,0,0,0,.419-0.5,0.756,0.756,0,0,0,.159-0.41,0.584,0.584,0,0,0-.332-0.54,2.386,2.386,0,0,0-1.079-.18,8.705,8.705,0,0,0-1.347.12,10.473,10.473,0,0,0-1.474.34,5.1,5.1,0,0,0-.609.23c-0.2.1-.4,0.19-0.576,0.3a3.016,3.016,0,0,0-.488.33,1.844,1.844,0,0,0-.355.35,0.493,0.493,0,0,0-.049.2c-0.013.1-.024,0.25-0.031,0.44s-0.014.45-.024,0.75-0.024.66-.044,1.08c-0.014.27-.025,0.5-0.036,0.68s-0.02.34-.035,0.49-0.027.32-.048,0.49-0.047.39-.078,0.65c-0.054.38-.1,0.73-0.143,1.07a7.1,7.1,0,0,0-.066.89v1.79a2.253,2.253,0,0,1-.362,1.41,1.325,1.325,0,0,1-1.075.44,1.294,1.294,0,0,1-.624-0.13,1.039,1.039,0,0,1-.386-0.41,2.109,2.109,0,0,1-.2-0.69,7.716,7.716,0,0,1-.053-0.95s0.009-.08.029-0.22,0.044-.31.075-0.52,0.062-.45.1-0.7,0.074-.5.106-0.72,0.058-.43.083-0.61,0.037-.3.044-0.36c0.006-.02.018-0.13,0.035-0.3s0.039-.38.064-0.62,0.052-.51.079-0.79,0.052-.54.079-0.79,0.05-.46.07-0.64,0.029-.28.029-0.31c0.06-.5.089-0.8,0.089-0.9a1.692,1.692,0,0,0-.019-0.24c-0.014-.09-0.031-0.18-0.045-0.28s-0.032-.18-0.044-0.25a1.4,1.4,0,0,1-.02-0.15,3.756,3.756,0,0,1,.065-0.72,2.3,2.3,0,0,1,.23-0.61,1.351,1.351,0,0,1,.847-0.82,3.747,3.747,0,0,0,.57-0.11c0.185-.04.36-0.1,0.525-0.15q1.233-.39,1.945-0.63c0.479-.17.791-0.27,0.944-0.31,0.2-.06.4-0.11,0.6-0.16a6,6,0,0,1,.65-0.09c0.23-.03.481-0.04,0.753-0.05s0.58-.02.921-0.02a2.649,2.649,0,0,1,.7.11,4.049,4.049,0,0,1,.733.29,3.865,3.865,0,0,1,.655.44,1.806,1.806,0,0,1,.459.53,1.88,1.88,0,0,1,.134.3c0.041,0.12.083,0.24,0.119,0.37s0.064,0.26.084,0.39a2.651,2.651,0,0,1,.027.34,2.562,2.562,0,0,1-.585,1.52,11.551,11.551,0,0,1-1.711,1.71,6.391,6.391,0,0,1,1.272.55,4.748,4.748,0,0,1,1.055.78,3.788,3.788,0,0,1,.721.93A2.175,2.175,0,0,1,721.732,2638.08Zm12.892-7.1c-0.46.01-.972,0.02-1.535,0.05s-1.145.06-1.737,0.11-1.176.11-1.756,0.19-1.114.17-1.614,0.28a0.208,0.208,0,0,0-.154.12,0.8,0.8,0,0,0-.076.26,2.315,2.315,0,0,0-.039.3c-0.013.11-.023,0.21-0.036,0.29-0.042.23-.093,0.48-0.155,0.74s-0.124.54-.186,0.82-0.124.56-.183,0.84a7.9,7.9,0,0,0-.128.82c0.242,0,.531-0.02.861-0.04l1-.09c0.337-.04.65-0.08,0.942-0.12s0.523-.09.688-0.13c0.459-.11.877-0.19,1.256-0.25a6.182,6.182,0,0,1,.941-0.09,3.939,3.939,0,0,1,.619.05,1.426,1.426,0,0,1,.494.15,0.81,0.81,0,0,1,.325.28,0.774,0.774,0,0,1,.118.44,1.071,1.071,0,0,1-.218.74,1.236,1.236,0,0,1-.614.37,5.386,5.386,0,0,1-.967.18c-0.377.04-.8,0.1-1.276,0.17-0.251.04-.564,0.09-0.936,0.13s-0.764.09-1.162,0.14-0.786.1-1.154,0.15a7.627,7.627,0,0,0-.908.19h-0.01a0.391,0.391,0,0,0-.211.15,1.329,1.329,0,0,0-.134.4c-0.046.21-.093,0.45-0.137,0.71s-0.088.52-.125,0.76-0.063.48-.087,0.69a4.936,4.936,0,0,0-.035.5,0.375,0.375,0,0,0,.182.3,0.655,0.655,0,0,0,.272.06c0.112,0,.318-0.02.616-0.05s0.645-.07,1.039-0.11,0.811-.11,1.251-0.16,0.861-.12,1.258-0.18,0.751-.11,1.059-0.16,0.528-.08.651-0.1c0.435-.1.814-0.17,1.138-0.22s0.533-.07.626-0.07a1.65,1.65,0,0,1,.923.38,1,1,0,0,1,.329.77,1.131,1.131,0,0,1-.063.38,0.772,0.772,0,0,1-.232.31,5.412,5.412,0,0,1-1.367.39,11.09,11.09,0,0,1-1.362.15c-0.3.03-.63,0.05-1,0.09s-0.748.08-1.128,0.13-0.748.09-1.1,0.14-0.661.08-.93,0.12c-0.22.05-.459,0.09-0.725,0.13s-0.543.09-.829,0.12-0.571.07-.859,0.09-0.558.02-.824,0.02a2.683,2.683,0,0,1-.575-0.05,1.136,1.136,0,0,1-.48-0.2,1.2,1.2,0,0,1-.348-0.43,2.07,2.07,0,0,1-.172-0.7l-0.029-.32a0.767,0.767,0,0,1,.044-0.24c0.031-.09.071-0.21,0.119-0.36s0.1-.34.162-0.56,0.121-.49.189-0.8c0.063-.33.126-0.68,0.186-1.04s0.115-.72.167-1.09,0.1-.72.154-1.07,0.093-.67.131-0.98c0.1-.71.184-1.31,0.251-1.79s0.13-.88.174-1.2,0.079-.59.1-0.81,0.031-.42.031-0.61a0.4,0.4,0,0,0-.065-0.08,1.221,1.221,0,0,1-.189-0.31,1.65,1.65,0,0,1-.17-0.43,1.362,1.362,0,0,1-.031-0.29,1.284,1.284,0,0,1,0-.13,0.721,0.721,0,0,1,.036-0.15,0.364,0.364,0,0,1,.139-0.21,1.131,1.131,0,0,1,.279-0.2,1.931,1.931,0,0,1,.353-0.15,1.268,1.268,0,0,1,.37-0.06c0.141,0.01.248,0.02,0.326,0.02s0.146,0.01.2,0.01,0.11,0.01.169,0.01,0.134,0.01.242,0.02c0.182,0,.48-0.02.89-0.06s0.868-.08,1.375-0.14,1.029-.12,1.567-0.19,1.033-.13,1.485-0.19,0.821-.11,1.115-0.14,0.444-.06.457-0.06c0.032,0,.08-0.01.137-0.01h0.167a3.409,3.409,0,0,1,.888.1,1.127,1.127,0,0,1,.482.27,0.788,0.788,0,0,1,.2.37,2.351,2.351,0,0,1,.036.4,0.582,0.582,0,0,1-.1.29,1.7,1.7,0,0,1-.243.31,2.135,2.135,0,0,1-.3.26,1.041,1.041,0,0,1-.292.14Zm6.874,9.27c-0.145,0-.315,0-0.5.01s-0.333.01-.424,0.01a0.676,0.676,0,0,0-.184.26c-0.095.17-.248,0.44-0.456,0.81-0.167.3-.332,0.58-0.5,0.87a6.575,6.575,0,0,1-.518.76,3.247,3.247,0,0,1-.54.55,0.939,0.939,0,0,1-.573.21,1.031,1.031,0,0,1-.389-0.1,1.486,1.486,0,0,1-.395-0.28,1.4,1.4,0,0,1-.307-0.37,0.85,0.85,0,0,1-.122-0.43,1.374,1.374,0,0,1,.168-0.55,7.352,7.352,0,0,1,.463-0.8q0.3-.465.693-1.02t0.853-1.2c0.286-.39.578-0.8,0.885-1.23s0.615-.87.93-1.34c0.24-.37.514-0.81,0.815-1.3s0.609-1.02.936-1.55,0.655-1.06.988-1.58,0.66-.98.965-1.39a7.412,7.412,0,0,1,.854-0.99,1.125,1.125,0,0,1,.685-0.38,2.189,2.189,0,0,1,.607.08,1.267,1.267,0,0,1,.526.29,0.331,0.331,0,0,1,.115.22,3.2,3.2,0,0,1,.013.36,1.419,1.419,0,0,1-.032.31,2.626,2.626,0,0,1-.084.3c0.053,0.14.116,0.3,0.2,0.49s0.162,0.38.247,0.58,0.169,0.4.256,0.6,0.16,0.38.227,0.54l2.119,5.11c0.1,0.25.215,0.52,0.357,0.82s0.279,0.59.426,0.88,0.293,0.54.438,0.78a6.355,6.355,0,0,0,.373.54c0.18,0.2.353,0.38,0.52,0.55s0.317,0.32.447,0.47a2.2,2.2,0,0,1,.317.44,0.938,0.938,0,0,1,.118.46,1.174,1.174,0,0,1-.1.51,0.958,0.958,0,0,1-.289.35,1.379,1.379,0,0,1-.416.21,2.056,2.056,0,0,1-.5.07,1.559,1.559,0,0,1-.912-0.3,4.273,4.273,0,0,1-.8-0.74,7.761,7.761,0,0,1-.668-0.97c-0.2-.34-0.387-0.66-0.552-0.94-0.081-.15-0.164-0.3-0.252-0.48s-0.17-.34-0.246-0.51-0.144-.33-0.2-0.47a2.459,2.459,0,0,1-.119-0.33,0.112,0.112,0,0,0-.083-0.08,0.292,0.292,0,0,0-.115-0.03,2.475,2.475,0,0,0-.4.04c-0.179.02-.378,0.06-0.6,0.1s-0.452.1-.7,0.15-0.487.11-.726,0.16-0.459.1-.669,0.15-0.387.08-.533,0.11c-0.071.01-.176,0.02-0.314,0.04s-0.293.03-.462,0.04-0.353.03-.539,0.05-0.366.03-.537,0.04-0.323.02-.463,0.03S741.569,2640.25,741.5,2640.25Zm3.507-2.51c0.132-.03.282-0.06,0.455-0.09s0.346-.06.531-0.1l0.551-.09c0.185-.04.349-0.07,0.5-0.09-0.126-.3-0.253-0.63-0.38-0.98s-0.253-.71-0.37-1.07-0.232-.71-0.337-1.04-0.2-.63-0.279-0.89l-0.2-.63a1.2,1.2,0,0,0-.093-0.26c-0.106.2-.226,0.42-0.365,0.67s-0.277.5-.419,0.76-0.283.51-.426,0.75-0.267.47-.377,0.66-0.243.4-.4,0.63-0.314.48-.477,0.72-0.327.5-.488,0.74-0.3.47-.421,0.68c0.377,0,.692-0.01.955-0.02a7.012,7.012,0,0,0,.713-0.08c0.216-.03.426-0.07,0.631-0.11S744.742,2637.8,745.005,2637.74Zm20.554,0.96a5.146,5.146,0,0,1-.808,1.95,5.9,5.9,0,0,1-1.509,1.54,7.221,7.221,0,0,1-2.065,1.01,8.257,8.257,0,0,1-2.466.36,4.184,4.184,0,0,1-.949-0.12,8.442,8.442,0,0,1-1-.31,7.021,7.021,0,0,1-.905-0.43,3.877,3.877,0,0,1-.67-0.47,5.22,5.22,0,0,1-.866-1.05,6.031,6.031,0,0,1-.59-1.24,7.515,7.515,0,0,1-.336-1.32,8.472,8.472,0,0,1-.109-1.32c0-.22.015-0.47,0.041-0.74s0.059-.55.1-0.84,0.083-.58.138-0.87,0.1-.56.149-0.82c0.064-.35.121-0.67,0.164-0.98s0.1-.61.151-0.91c0.078-.45.151-0.89,0.219-1.33a6.59,6.59,0,0,1,.293-1.2,2.271,2.271,0,0,1,.511-0.85,1.166,1.166,0,0,1,.869-0.33,0.621,0.621,0,0,1,.394.17,2.314,2.314,0,0,1,.35.4,3.159,3.159,0,0,1,.251.47,0.98,0.98,0,0,1,.1.36,1.4,1.4,0,0,1-.047.26c-0.028.14-.067,0.3-0.114,0.48s-0.1.38-.16,0.59-0.108.4-.157,0.58-0.094.34-.132,0.48-0.056.22-.061,0.27c-0.026.13-.061,0.32-0.1,0.56s-0.084.51-.134,0.8-0.1.61-.147,0.93-0.093.64-.126,0.94-0.069.59-.1,0.84-0.038.47-.038,0.63a6.566,6.566,0,0,0,.493,2.61,1.663,1.663,0,0,0,.418.58,4.063,4.063,0,0,0,.665.52,3.534,3.534,0,0,0,.74.38,1.965,1.965,0,0,0,.641.14,6.577,6.577,0,0,0,2.474-.41,2.965,2.965,0,0,0,1.5-1.35,4.6,4.6,0,0,0,.37-0.92,9.438,9.438,0,0,0,.213-0.93c0.048-.31.092-0.61,0.125-0.9s0.072-.58.12-0.84c0.065-.66.118-1.3,0.162-1.91s0.091-1.17.143-1.69,0.117-1.01.2-1.44a4.7,4.7,0,0,1,.324-1.09,1.7,1.7,0,0,1,.517-0.71,1.2,1.2,0,0,1,.788-0.25,0.929,0.929,0,0,1,.492.11,0.806,0.806,0,0,1,.312.28,1.221,1.221,0,0,1,.172.42,2.676,2.676,0,0,1,.048.51,6.493,6.493,0,0,1-.066.86c-0.04.34-.092,0.68-0.145,1.03s-0.114.69-.172,1.02-0.109.61-.149,0.83-0.064.46-.088,0.76-0.05.6-.073,0.92c-0.024.43-.064,0.89-0.121,1.39S765.664,2638.14,765.559,2638.7Zm17.391-8.1a1.023,1.023,0,0,1-.1.48,0.826,0.826,0,0,1-.241.29,0.768,0.768,0,0,1-.321.13,1.286,1.286,0,0,1-.329.04c-0.237,0-.448-0.01-0.637-0.01s-0.369-.01-0.545-0.01-0.362-.01-0.559-0.02h-0.674c-0.165,0-.356.01-0.567,0.03s-0.437.04-.667,0.08-0.459.07-.689,0.11-0.443.1-.64,0.14-0.371.09-.518,0.14a1.744,1.744,0,0,0-.321.13,0.406,0.406,0,0,0-.125.22,1.129,1.129,0,0,0-.05.32l-0.259,2.34c-0.1.92-.191,1.81-0.282,2.69s-0.134,1.76-.134,2.62a5,5,0,0,0,.033.5c0.02,0.22.04,0.44,0.068,0.65s0.052,0.4.068,0.56,0.031,0.26.031,0.27a1.666,1.666,0,0,1-.074.48,1.63,1.63,0,0,1-.212.44,1.217,1.217,0,0,1-.342.32,0.876,0.876,0,0,1-.457.12,0.958,0.958,0,0,1-.354-0.08,2.259,2.259,0,0,1-.365-0.23,1.768,1.768,0,0,1-.316-0.33,1.638,1.638,0,0,1-.215-0.41,2.761,2.761,0,0,1-.139-0.56c-0.034-.22-0.059-0.44-0.078-0.66s-0.035-.45-0.04-0.67-0.01-.41-0.01-0.59c0-.29.015-0.66,0.05-1.11s0.074-.92.122-1.43,0.1-1.03.162-1.56,0.117-1.03.173-1.5,0.105-.87.147-1.21,0.072-.6.085-0.74a6.62,6.62,0,0,0-.8.06c-0.326.03-.674,0.07-1.048,0.12-0.475.06-.958,0.11-1.459,0.17a14.151,14.151,0,0,1-1.418.07c-0.1,0-.221-0.01-0.389-0.02a2.686,2.686,0,0,1-.479-0.1,1.569,1.569,0,0,1-.415-0.2,0.433,0.433,0,0,1-.177-0.35,0.86,0.86,0,0,1-.023-0.1,0.75,0.75,0,0,1,0-.13,1.73,1.73,0,0,1,.028-0.32,1.047,1.047,0,0,1,.108-0.29,0.756,0.756,0,0,1,.232-0.22,1.215,1.215,0,0,1,.389-0.16,9.682,9.682,0,0,1,1.232-.21,12.425,12.425,0,0,1,1.362-.07c0.086,0,.245-0.02.479-0.05s0.5-.05.818-0.09,0.646-.09,1-0.13,0.7-.1,1.026-0.15,0.614-.08.867-0.12,0.447-.07.565-0.09c0.428-.08.853-0.16,1.283-0.26s0.852-.17,1.281-0.26,0.85-.15,1.276-0.21a8.937,8.937,0,0,1,1.257-.08h0.255c0.117,0.01.253,0.01,0.4,0.03a4.275,4.275,0,0,1,.478.06,3.164,3.164,0,0,1,.472.1,0.849,0.849,0,0,1,.294.18,1.874,1.874,0,0,1,.221.28,1.686,1.686,0,0,1,.143.31A0.966,0.966,0,0,1,782.95,2630.6Zm14.044-.84a0.828,0.828,0,0,1-.054.26,1.768,1.768,0,0,1-.147.33,1.676,1.676,0,0,1-.214.3,0.554,0.554,0,0,1-.243.2,2.178,2.178,0,0,1-.5.19c-0.161.04-.354,0.08-0.587,0.13-0.6.11-1.2,0.21-1.775,0.29s-1.124.14-1.64,0.19-0.987.08-1.414,0.1-0.787.03-1.086,0.03H787.3a4.315,4.315,0,0,1-.514-0.02c-0.019.22-.034,0.48-0.05,0.78s-0.037.62-.056,0.94-0.042.63-.058,0.93-0.047.54-.081,0.74a5.461,5.461,0,0,0,.626.04c0.243,0.01.469,0.01,0.7,0.01,0.316,0,.64-0.01.961-0.03s0.583-.05.793-0.07c0.1-.01.269-0.02,0.49-0.04s0.464-.03.713-0.05,0.5-.04.743-0.06,0.43-.06.564-0.09c0.134-.06.258-0.11,0.373-0.16s0.224-.08.333-0.11,0.218-.05.336-0.07,0.237-.01.369-0.01a0.862,0.862,0,0,1,.443.1,0.753,0.753,0,0,1,.276.27,1.171,1.171,0,0,1,.138.39,2.658,2.658,0,0,1,.043.46,0.739,0.739,0,0,1-.165.48,1.337,1.337,0,0,1-.4.3,2.24,2.24,0,0,1-.5.19c-0.174.04-.323,0.08-0.444,0.1a3.519,3.519,0,0,1-.6.08c-0.284.03-.612,0.05-0.99,0.08s-0.768.06-1.186,0.09-0.815.04-1.187,0.06-0.709.03-1,.04-0.5.02-.625,0.02a3.259,3.259,0,0,0-.564.05c-0.169.04-.349,0.08-0.539,0.13a8.442,8.442,0,0,0-.191,1.01,10.37,10.37,0,0,1-.207,1.15c-0.03.15-.065,0.31-0.1,0.48s-0.073.31-.1,0.46-0.057.28-.072,0.41a2.982,2.982,0,0,0-.043.3c0.136,0,.3-0.01.479-0.01l0.569-.03c0.195-.01.391-0.03,0.6-0.05s0.389-.03.569-0.05c0.465-.04.863-0.07,1.194-0.1s0.63-.06.9-0.08,0.511-.05.737-0.07,0.472-.06.735-0.1c0.137-.02.3-0.04,0.5-0.06l0.6-.06c0.208-.02.413-0.05,0.619-0.08s0.4-.07.57-0.11a2.035,2.035,0,0,0,.318-0.11l0.331-.12a2.024,2.024,0,0,1,.344-0.09,1.345,1.345,0,0,1,.349-0.04,0.889,0.889,0,0,1,.394.08,1.024,1.024,0,0,1,.343.25,1.167,1.167,0,0,1,.234.37,1.262,1.262,0,0,1,.091.48,0.565,0.565,0,0,1-.092.25,2,2,0,0,1-.257.32,1.96,1.96,0,0,1-.391.3,1.406,1.406,0,0,1-.492.18c-0.579.11-1.161,0.2-1.744,0.26s-1.231.14-1.932,0.23l-1.518.18c-0.506.05-.975,0.11-1.413,0.17s-0.81.1-1.14,0.14-0.574.08-.73,0.12a3.212,3.212,0,0,0-.483.11c-0.171.05-.344,0.09-0.518,0.14s-0.342.09-.5,0.12a2.41,2.41,0,0,1-.426.05h-0.02a1.943,1.943,0,0,1-.62-0.09,0.877,0.877,0,0,1-.442-0.29,1.468,1.468,0,0,1-.276-0.56,3.833,3.833,0,0,1-.091-0.9,4.239,4.239,0,0,1,.115-0.93c0.076-.35.159-0.75,0.252-1.23,0.091-.45.178-0.87,0.265-1.25s0.166-.74.24-1.1,0.145-.72.208-1.07,0.111-.74.142-1.15c0.008-.04.019-0.16,0.029-0.33s0.031-.38.045-0.63,0.035-.49.056-0.77,0.037-.53.057-0.77,0.036-.45.048-0.62,0.012-.29.012-0.35a1.357,1.357,0,0,0-.02-0.19,1.631,1.631,0,0,1-.02-0.21,1.71,1.71,0,0,1,.083-0.49,2.324,2.324,0,0,1,.263-0.55,1.038,1.038,0,0,1,.3-0.3c0.148-.1.308-0.19,0.475-0.28a3.489,3.489,0,0,1,.521-0.2,1.347,1.347,0,0,1,.447-0.08,1.817,1.817,0,0,1,.337.04,4.691,4.691,0,0,1,.485.09c0.167,0.03.326,0.06,0.48,0.08a1.735,1.735,0,0,0,.325.04c0.147,0,.354.01,0.615,0.01s0.54,0.01.851,0.01c0.581,0,1.161-.02,1.75-0.06s1.185-.11,1.788-0.21a5.394,5.394,0,0,0,.76-0.18c0.239-.07.469-0.14,0.695-0.21s0.458-.12.686-0.17a3.43,3.43,0,0,1,.727-0.07,0.84,0.84,0,0,1,.375.08,1.1,1.1,0,0,1,.339.22,1.184,1.184,0,0,1,.256.32A0.72,0.72,0,0,1,796.994,2629.76Zm-2.636-5.33a0.706,0.706,0,0,1,.038.6,1.092,1.092,0,0,1-.585.47,1.373,1.373,0,0,1-.22.06c-0.094.02-.191,0.04-0.3,0.06s-0.2.04-.288,0.05a0.832,0.832,0,0,0-.191.05,0.737,0.737,0,0,0-.125.06c-0.05.03-.106,0.06-0.167,0.1a1.941,1.941,0,0,0-.19.1c-0.062.03-.121,0.06-0.169,0.08-0.066.03-.168,0.07-0.308,0.12s-0.287.11-.437,0.16-0.289.11-.425,0.16a1.458,1.458,0,0,0-.285.11,4.151,4.151,0,0,0-.4.19c-0.179.09-.366,0.19-0.567,0.29s-0.385.19-.563,0.29-0.318.15-.411,0.2a3.571,3.571,0,0,1-.444.16,1.32,1.32,0,0,1-.374.06,0.527,0.527,0,0,1-.3-0.09,0.771,0.771,0,0,1-.218-0.29,0.517,0.517,0,0,1-.03-0.37,0.957,0.957,0,0,1,.192-0.35,1.846,1.846,0,0,1,.328-0.32,4.2,4.2,0,0,1,.385-0.26c0.127-.08.246-0.14,0.355-0.2s0.188-.09.238-0.11a1.285,1.285,0,0,1,.262-0.09,2.394,2.394,0,0,1,.313-0.07c0.339-.15.637-0.29,0.888-0.41s0.475-.22.663-0.31,0.352-.18.49-0.26a3.945,3.945,0,0,0,.365-0.21,6.684,6.684,0,0,1,.64-0.34,1.283,1.283,0,0,1,.285-0.07c0.122-.02.25-0.03,0.383-0.04s0.262-.02.386-0.02a1.938,1.938,0,0,1,.289.02,0.287,0.287,0,0,1,.142.05,0.5,0.5,0,0,1,.146.1,0.99,0.99,0,0,1,.125.14A0.519,0.519,0,0,1,794.358,2624.43Zm-37.765,38.47c-0.3.27-.645,0.56-1.03,0.86a11.452,11.452,0,0,1-1.241.83,7.679,7.679,0,0,1-1.408.61,5.018,5.018,0,0,1-1.544.24,2.74,2.74,0,0,1-1.234-.28,2.525,2.525,0,0,1-.911-0.82,4.006,4.006,0,0,1-.561-1.32,7.412,7.412,0,0,1-.195-1.77,5.113,5.113,0,0,1-.348.55c-0.134.19-.271,0.38-0.413,0.56s-0.278.34-.409,0.49-0.242.26-.325,0.34a13.788,13.788,0,0,1-2.588,2.07,4.629,4.629,0,0,1-2.341.73,1.934,1.934,0,0,1-.741-0.14,1.827,1.827,0,0,1-.548-0.35,1.727,1.727,0,0,1-.339-0.48,1.316,1.316,0,0,1-.117-0.54,5.551,5.551,0,0,1,.24-1.57,11.007,11.007,0,0,1,.622-1.6,13.79,13.79,0,0,1,.85-1.5c0.312-.48.624-0.91,0.931-1.3a13.431,13.431,0,0,1,.934-1.06,9.822,9.822,0,0,1,.952-0.84,4.622,4.622,0,0,1,.9-0.56,1.964,1.964,0,0,1,.789-0.2,1.465,1.465,0,0,1,.469.09,4.655,4.655,0,0,1,.5.22,4.852,4.852,0,0,1,.433.26,1.924,1.924,0,0,1,.262.21c0.06,0.07.125,0.14,0.2,0.22a0.919,0.919,0,0,1,.158.3c0.058-.39.123-0.82,0.191-1.27s0.137-.9.2-1.35,0.118-.87.171-1.29,0.082-.78.1-1.1a1.81,1.81,0,0,1,.376-1.1,1.322,1.322,0,0,1,1.032-.36,0.739,0.739,0,0,1,.647.35,1.767,1.767,0,0,1,.232.99,4.008,4.008,0,0,1-.05.46c-0.032.24-.077,0.54-0.133,0.89s-0.118.75-.188,1.19-0.135.89-.2,1.36-0.137.92-.208,1.37-0.132.87-.186,1.25-0.1.72-.134,1.01a5.96,5.96,0,0,0-.047.62c0,0.16,0,.36,0,0.59s0.028,0.47.055,0.72a6.368,6.368,0,0,0,.139.75,3.02,3.02,0,0,0,.251.66,1.507,1.507,0,0,0,.394.48,0.926,0.926,0,0,0,.575.19,4.257,4.257,0,0,0,1-.12,5.35,5.35,0,0,0,1.018-.33,9.164,9.164,0,0,0,1.083-.54c0.379-.22.774-0.46,1.2-0.74a0.616,0.616,0,0,1,.084-0.08c0.043-.03.093-0.07,0.155-0.12s0.12-.07.188-0.11a0.511,0.511,0,0,1,.193-0.05,0.322,0.322,0,0,1,.185.15,0.6,0.6,0,0,1,.11.39,1.663,1.663,0,0,1-.058.44A0.937,0.937,0,0,1,756.593,2662.9Zm-8.32-4.33c0.022-.08.048-0.17,0.084-0.29a1.818,1.818,0,0,0,.075-0.34,1.1,1.1,0,0,1-.44.35,1.494,1.494,0,0,1-.615.11,1.129,1.129,0,0,1-.34-0.05,0.706,0.706,0,0,1-.249-0.14,1.015,1.015,0,0,1-.2-0.22c-0.06-.09-0.12-0.19-0.188-0.3a1.983,1.983,0,0,0-.882.55,7.855,7.855,0,0,0-.907,1.06c-0.3.43-.583,0.87-0.853,1.35s-0.506.92-.709,1.35-0.366.8-.488,1.12a2.5,2.5,0,0,0-.183.64,0.364,0.364,0,0,0,.073.23,0.234,0.234,0,0,0,.205.1,1.4,1.4,0,0,0,.52-0.12,3.265,3.265,0,0,0,.592-0.31,6.533,6.533,0,0,0,.571-0.39c0.186-.13.339-0.26,0.465-0.36,0.3-.26.63-0.56,0.98-0.89s0.69-.7,1.017-1.08a10.566,10.566,0,0,0,.88-1.18A5.307,5.307,0,0,0,748.273,2658.57Zm17.427,3.16a1.61,1.61,0,0,1-.283.82,6.358,6.358,0,0,1-.772.96,10.515,10.515,0,0,1-1.163,1,8.724,8.724,0,0,1-1.323.8,7.468,7.468,0,0,1-1.4.52,5.213,5.213,0,0,1-1.379.2,4,4,0,0,1-1.475-.26,2.783,2.783,0,0,1-1.091-.77,3.394,3.394,0,0,1-.69-1.25,5.9,5.9,0,0,1-.233-1.73,6.386,6.386,0,0,1,.114-1.19,7.739,7.739,0,0,1,.329-1.21,7.179,7.179,0,0,1,.539-1.16,8.041,8.041,0,0,1,.744-1.06,7.311,7.311,0,0,1,.6-0.63,5.012,5.012,0,0,1,.755-0.57,3.826,3.826,0,0,1,.913-0.41,3.393,3.393,0,0,1,1.078-.17,2.094,2.094,0,0,1,1.47.61,1.841,1.841,0,0,1,.395.6,1.725,1.725,0,0,1,.137.65,3.1,3.1,0,0,1-.331,1.42,4.974,4.974,0,0,1-.921,1.26,10.334,10.334,0,0,1-1.425,1.18c-0.555.38-1.168,0.78-1.838,1.18a0.68,0.68,0,0,0-.154.09,0.276,0.276,0,0,0-.1.08,1.436,1.436,0,0,0,.1.43,1.387,1.387,0,0,0,.278.42,1.369,1.369,0,0,0,.477.32,1.638,1.638,0,0,0,.694.13,4.556,4.556,0,0,0,1.254-.17,5.605,5.605,0,0,0,1.242-.49,7.694,7.694,0,0,0,1.19-.78,9.64,9.64,0,0,0,1.107-1.03,1.349,1.349,0,0,1,.387-0.33,0.754,0.754,0,0,1,.36-0.1,0.39,0.39,0,0,1,.292.14A0.77,0.77,0,0,1,765.7,2661.73Zm-4.777-3.74a0.53,0.53,0,0,0-.2-0.42,0.55,0.55,0,0,0-.147-0.09,0.834,0.834,0,0,0-.106-0.02,1.179,1.179,0,0,0-.816.34,3.356,3.356,0,0,0-.67.86,7.16,7.16,0,0,0-.516,1.17,12.608,12.608,0,0,0-.37,1.22c0.4-.29.762-0.57,1.1-0.83a7.922,7.922,0,0,0,.9-0.74,3.72,3.72,0,0,0,.6-0.72A1.477,1.477,0,0,0,760.923,2657.99Z" transform="translate(-709 -2624)"/>
</svg>
