<svg xmlns="http://www.w3.org/2000/svg" xmlns:xlink="http://www.w3.org/1999/xlink" width="51" height="44" viewBox="0 0 51 44">
  <defs>
    <style>
      .cls-1 {
        fill-rule: evenodd;
        filter: url(#filter);
      }
    </style>
    <filter id="filter" x="50" y="2080" width="51" height="44" filterUnits="userSpaceOnUse">
      <feFlood result="flood" flood-color="#35318f"/>
      <feComposite result="composite" operator="in" in2="SourceGraphic"/>
      <feBlend result="blend" in2="SourceGraphic"/>
    </filter>
  </defs>
  <path id="icon_esthetique.svg" class="cls-1" d="M67.21,2118.67c0.481-2.64-5.367-11.39-9.9-10.13a18.939,18.939,0,0,1,6.976,12.28l0,0.04C65.643,2120.78,66.908,2120.33,67.21,2118.67Zm12.471-22.66c-3.2,5.22-3.229,6.71-12.9,11.44-2.338,1.15-2.326,3.38-.422,3.7a6.928,6.928,0,0,1,10.33-3.79,31.111,31.111,0,0,0,5.237-4.1l1.7-4.14Zm-4.262-8.32a6.019,6.019,0,1,0,6.019-6A6.021,6.021,0,0,0,75.419,2087.69Zm7.3-4.85a2.851,2.851,0,1,0,2.851-2.84A2.846,2.846,0,0,0,82.715,2082.84Zm6.394,19.25s-3.944,5.35-6.633,8.23c-2.089,2.24-4.147,4.77-8.275,6.19-3.093,1.06-2.122,3.9,1.162,3.32a18.236,18.236,0,0,0,9.211-4.52,58.764,58.764,0,0,0,6.092-6.94Zm-5.473,16.31,3.329,3.22H67.035a1.19,1.19,0,1,0,0,2.38H89.9a1.187,1.187,0,0,0,.828-2.04l-5.44-5.26a1.259,1.259,0,0,0-.455-0.28,19.277,19.277,0,0,1-1.556,1.21A1.165,1.165,0,0,0,83.636,2118.4Zm-9.766-2.86a14.077,14.077,0,0,0,5-2.97,5.92,5.92,0,1,0-7.506,6.33c-0.012-.05-0.024-0.1-0.031-0.15C71.112,2117.41,72.106,2116.15,73.871,2115.54Zm21.317-7.26c-2.094-2.4-2.163-7.28-3.224-10.16-1.9-5.17-10.383-5.2-12.283-2.11l2.246,7.25s3.525,4.91,3.993,6.59a26.257,26.257,0,0,1,.377,5.39l8.618,8.76H101C101,2115.75,98.5,2112.08,95.188,2108.28Zm-31.916,12.63a17.91,17.91,0,0,0-6.826-11.77c-2.554-1.94-3.772-1.87-6.443-1.7V2124H63.272v-3.09Z" transform="translate(-50 -2080)"/>
</svg>
