<svg xmlns="http://www.w3.org/2000/svg" xmlns:xlink="http://www.w3.org/1999/xlink" width="63" height="44" viewBox="0 0 63 44">
  <defs>
    <style>
      .cls-1 {
        fill-rule: evenodd;
        filter: url(#filter);
      }
    </style>
    <filter id="filter" x="667" y="1796" width="63" height="44" filterUnits="userSpaceOnUse">
      <feFlood result="flood" flood-color="#805d27"/>
      <feComposite result="composite" operator="in" in2="SourceGraphic"/>
      <feBlend result="blend" in2="SourceGraphic"/>
    </filter>
  </defs>
  <path id="icon_beauty.svg" class="cls-1" d="M708.452,1838.19a1.53,1.53,0,0,1-1.525,1.53h-16.96a1.527,1.527,0,0,1-1.524-1.53V1818.9a1.521,1.521,0,0,1,1.524-1.53h16.96a1.524,1.524,0,0,1,1.525,1.53v19.29Zm-6.025-31.38a6.117,6.117,0,0,1,4.009,1.18l0.943-1.57a11.036,11.036,0,0,0-6.422-1.9c-4.871,0-6.32,1.57-6.32,2.06,0,0.32.48,0.51,1.14,0.61v2.1h-1.812v5.89h8.54v-5.89h-1.751V1807A10.238,10.238,0,0,1,702.427,1806.81Zm4.189,7.54a1.738,1.738,0,0,0,1.813-1.64c0-.91-1.536-2.69-1.813-3.6-0.284.91-1.819,2.69-1.819,3.6A1.738,1.738,0,0,0,706.616,1814.35Zm13.736,24.98a12.034,12.034,0,0,0,6.6-2.12v-7.2a22.483,22.483,0,0,1-6.6.99,19.4,19.4,0,0,1-6.308-.99v7.27S716.091,1839.33,720.352,1839.33Zm-9.643-34.81s3.339,22.05,3.542,22.94c0.11,0.48.861,1.04,2.16,1.45l-2.358-21.13h0.8l3.851,21.61a18.876,18.876,0,0,0,2.23.13c3.266,0,5.515-1.17,5.859-1.99S730,1804.52,730,1804.52H710.709ZM678.07,1796c-5.935-.18-10.886,4.74-11.068,10.98a11.491,11.491,0,0,0,4.033,9.16c0.219,3.02,1.529,19.98,3.869,22.72A2.637,2.637,0,0,0,677.3,1840a3.27,3.27,0,0,0,2.389-1c2.814-2.78,4.411-20.75,4.582-22.75a11.5,11.5,0,0,0,4.208-8.63C688.654,1801.38,684,1796.17,678.07,1796Zm-1.691,2.03c0.009-.4,1.087-0.55,1.531-0.53,0.517,0.01,1.456,0,1.556.48s-0.589,2.5-1.459,2.47S676.368,1798.5,676.379,1798.03Zm6.26,9a4.9,4.9,0,1,1-4.754-4.88A4.811,4.811,0,0,1,682.639,1807.03Zm-12.758-4.17a9.378,9.378,0,0,1,1.916-2.42c1.155-.98,2.787-2.12,3.342-1.69a2.824,2.824,0,0,1,.559.66,0.787,0.787,0,0,1,.068.74c-0.171.44-1.24,0.79-2.28,1.73a25.215,25.215,0,0,0-1.946,2.39,0.85,0.85,0,0,1-1.215.13c-0.111-.08-0.426-0.37-0.426-0.37A0.88,0.88,0,0,1,669.881,1802.86Zm-1.408,3.95c0.014-.52.009-1.46,0.481-1.56s2.485,0.59,2.46,1.46-1.937,1.66-2.4,1.65C668.611,1808.34,668.458,1807.26,668.473,1806.81Zm11.512,18.91-0.147,5.02a1.509,1.509,0,0,1-1.558,1.47l-1.6-.04a1.529,1.529,0,0,1-1.474-1.57l0.153-5.02a1.522,1.522,0,0,1,1.556-1.48l1.6,0.05A1.524,1.524,0,0,1,679.985,1825.72Zm-6.1-10.99a9.324,9.324,0,0,1-2.413-1.93c-0.969-1.16-2.1-2.8-1.672-3.36a3.036,3.036,0,0,1,.654-0.56,0.744,0.744,0,0,1,.739-0.07c0.432,0.17.771,1.25,1.718,2.29a24.541,24.541,0,0,0,2.375,1.96,0.871,0.871,0,0,1,.124,1.23c-0.081.1-.371,0.43-0.371,0.43A0.853,0.853,0,0,1,673.885,1814.73Zm5.457,0.88c-0.009.4-1.082,0.55-1.534,0.54-0.518-.02-1.452-0.01-1.555-0.49s0.59-2.5,1.457-2.47S679.355,1815.14,679.342,1815.61Zm6.5-4.83a9.309,9.309,0,0,1-1.919,2.42c-1.154.98-2.782,2.12-3.337,1.69a2.824,2.824,0,0,1-.559-0.66,0.781,0.781,0,0,1-.07-0.74c0.169-.43,1.242-0.78,2.27-1.73a24.671,24.671,0,0,0,1.958-2.39,0.836,0.836,0,0,1,1.213-.12c0.111,0.08.433,0.37,0.433,0.37A0.868,0.868,0,0,1,685.838,1810.78Zm1.412-3.95c-0.019.52-.012,1.46-0.481,1.57s-2.484-.6-2.464-1.48,1.937-1.65,2.4-1.63C687.107,1805.3,687.256,1806.38,687.25,1806.83Zm-1.328-2.63a2.836,2.836,0,0,1-.652.56,0.753,0.753,0,0,1-.742.07c-0.433-.17-0.776-1.24-1.718-2.29a24.387,24.387,0,0,0-2.377-1.96,0.855,0.855,0,0,1-.119-1.22c0.078-.11.372-0.43,0.372-0.43a0.846,0.846,0,0,1,1.147-.02,9.2,9.2,0,0,1,2.411,1.93C685.213,1802,686.35,1803.65,685.922,1804.2Z" transform="translate(-667 -1796)"/>
</svg>
