<svg xmlns="http://www.w3.org/2000/svg" width="140" height="17" viewBox="0 0 140 17">
  <defs>
    <style>
      .cls-1 {
        fill-rule: evenodd;
      }
    </style>
  </defs>
  <path id="icon_coeur_project.svg" class="cls-1" d="M1013.01,2841.45a3.5,3.5,0,1,0,3.48-3.46A3.463,3.463,0,0,0,1013.01,2841.45Zm0.3,0a3.185,3.185,0,1,1,3.18,3.14A3.167,3.167,0,0,1,1013.31,2841.45Zm2.5-1.49c0-.17.06-0.22,0.37-0.22a0.875,0.875,0,0,1,1.05.8c0,0.87-.9.87-1.42,0.87v-1.45Zm2.74,3.38a0.728,0.728,0,0,1-.52-0.28l-1.24-1.5a1.1,1.1,0,0,0,1.09-1c0-.91-0.99-1.03-1.53-1.03h-1.65v0.1c0.42,0.04.5,0.11,0.5,0.55v2.55c0,0.45-.02.58-0.5,0.61v0.12h1.66v-0.12c-0.47-.03-0.55-0.15-0.55-0.53v-1.18l0.35-.01,1.43,1.84h0.96v-0.12Zm-128.645-.43c-0.037.13-.076,0.29-0.112,0.47a9.183,9.183,0,0,1-1.412.52,7.931,7.931,0,0,1-2.3.28,8.679,8.679,0,0,1-2.289-.3,5.1,5.1,0,0,1-1.94-.97,4.914,4.914,0,0,1-1.346-1.74,5.872,5.872,0,0,1-.509-2.55,7.8,7.8,0,0,1,.555-2.94,7.034,7.034,0,0,1,1.6-2.4,7.5,7.5,0,0,1,2.562-1.63,9.217,9.217,0,0,1,3.418-.6,11.223,11.223,0,0,1,1.856.15,5.941,5.941,0,0,1,1.741.58,7.73,7.73,0,0,0-.367.75c-0.082.21-.141,0.37-0.179,0.5-0.088-.09-0.219-0.21-0.395-0.36a3.991,3.991,0,0,0-.679-0.45,4.943,4.943,0,0,0-.988-0.37,4.838,4.838,0,0,0-1.328-.16,5.611,5.611,0,0,0-2.637.59,5.82,5.82,0,0,0-1.921,1.59,7.342,7.342,0,0,0-1.177,2.28,8.651,8.651,0,0,0-.405,2.63,5.5,5.5,0,0,0,.329,2.1,4.33,4.33,0,0,0,.763,1.24,4.214,4.214,0,0,0,1.582,1.06,5.4,5.4,0,0,0,1.865.33,6.4,6.4,0,0,0,1.987-.32,7.984,7.984,0,0,0,1.836-.89l0.076,0.1A5.087,5.087,0,0,0,889.905,2842.91Zm2.081-7.25a7.513,7.513,0,0,1,4.361-4.1,8.76,8.76,0,0,1,3.164-.56,7.643,7.643,0,0,1,2.476.38,5.335,5.335,0,0,1,1.885,1.08,4.7,4.7,0,0,1,1.205,1.69,5.662,5.662,0,0,1,.424,2.24,7.678,7.678,0,0,1-.547,2.8,8.048,8.048,0,0,1-1.581,2.53,7.835,7.835,0,0,1-2.552,1.81,8.264,8.264,0,0,1-3.457.69c-0.263,0-.575-0.01-0.933-0.04a8.3,8.3,0,0,1-1.139-.16,6.305,6.305,0,0,1-1.205-.4,4.594,4.594,0,0,1-1.13-.7,3.787,3.787,0,0,1-.848-0.95,4.623,4.623,0,0,1-.489-1.07,5.849,5.849,0,0,1-.227-1.06,8.447,8.447,0,0,1-.056-0.9A7.952,7.952,0,0,1,891.986,2835.66Zm1.328,5.57a3.925,3.925,0,0,0,.961,1.4,3.816,3.816,0,0,0,1.4.8,5.518,5.518,0,0,0,1.686.25,5.622,5.622,0,0,0,2.9-.72,6.726,6.726,0,0,0,2.024-1.84,7.941,7.941,0,0,0,1.2-2.4,8.315,8.315,0,0,0,.395-2.42,5.41,5.41,0,0,0-.377-2.12,3.941,3.941,0,0,0-2.449-2.31,5.556,5.556,0,0,0-1.732-.28,5.419,5.419,0,0,0-2.646.65,6.26,6.26,0,0,0-2.007,1.7,7.718,7.718,0,0,0-1.271,2.42,9.055,9.055,0,0,0-.442,2.8A5.349,5.349,0,0,0,893.314,2841.23Zm14.776-.82q-0.272,1.4-.536,2.79c0.866,0,1.716-.01,2.552-0.04s1.666-.08,2.5-0.17a2.97,2.97,0,0,0-.113.5,2.59,2.59,0,0,0,0,.45c-0.314-.01-0.643-0.02-0.989-0.02h-4.68c-0.453,0-.81.01-1.074,0.02,0.239-.86.491-1.85,0.753-2.98s0.522-2.29.773-3.45,0.484-2.3.7-3.39,0.389-2.04.528-2.86c0.6,0.02,1.2.04,1.789,0.05s1.1,0.02,1.525.02h0.678c0.251,0,.493,0,0.725-0.01s0.452-.01.659-0.02,0.388-.03.537-0.04a3.373,3.373,0,0,0-.149.51,2.092,2.092,0,0,0-.02.51,9.142,9.142,0,0,0-.961-0.12c-0.377-.03-0.766-0.05-1.167-0.07s-0.794-.02-1.177-0.02-0.714-.01-0.989-0.01q-0.376,1.5-.641,2.67t-0.489,2.16h2.241c0.163,0,.349,0,0.555-0.01s0.415-.01.622-0.02,0.4-.03.574-0.04,0.321-.03.434-0.04a4.989,4.989,0,0,0-.141.48,1.517,1.517,0,0,0-.029.47q-0.658-.075-1.328-0.09c-0.445-.02-0.888-0.02-1.328-0.02h-1.752Q908.364,2839,908.09,2840.41Zm6.933-.53c0.07-.41.152-0.83,0.248-1.27s0.193-.85.3-1.24,0.178-.69.23-0.9q0.132-.66.276-1.35c0.1-.47.188-0.93,0.276-1.38s0.171-.89.246-1.32,0.138-.81.189-1.16a4.121,4.121,0,0,0,.885.07,3.423,3.423,0,0,0,.791-0.07q-0.244.84-.414,1.44t-0.34,1.29q-0.168.69-.367,1.62c-0.132.62-.3,1.43-0.517,2.42-0.089.38-.162,0.71-0.218,0.98s-0.1.51-.122,0.71-0.044.37-.056,0.53-0.019.31-.019,0.45a2.333,2.333,0,0,0,.32,1.25,2.766,2.766,0,0,0,.829.86,3.881,3.881,0,0,0,1.131.5,4.749,4.749,0,0,0,1.223.17,5.41,5.41,0,0,0,1.318-.17,4.51,4.51,0,0,0,1.235-.51,4.76,4.76,0,0,0,1.044-.86,3.957,3.957,0,0,0,.754-1.2,12.626,12.626,0,0,0,.462-1.42c0.156-.58.307-1.19,0.451-1.85s0.286-1.32.425-2,0.26-1.3.366-1.88,0.195-1.07.264-1.5,0.117-.69.142-0.83a2.234,2.234,0,0,0,.659.07,2.42,2.42,0,0,0,.621-0.07q-0.527,1.8-.932,3.6t-0.838,3.63a17.371,17.371,0,0,1-.707,2.29,5.2,5.2,0,0,1-1.214,1.78,5.281,5.281,0,0,1-2.072,1.29,7.625,7.625,0,0,1-2.43.39,7.245,7.245,0,0,1-1.592-.18,4.468,4.468,0,0,1-1.454-.59,3.578,3.578,0,0,1-1.073-1.07,2.854,2.854,0,0,1-.42-1.57A5.877,5.877,0,0,1,915.023,2839.88Zm20.915,4.04h-0.961c-0.138,0-.29.01-0.452,0.02-0.326-.48-0.688-1.03-1.082-1.64s-0.793-1.2-1.187-1.78-0.773-1.12-1.131-1.62-0.662-.88-0.913-1.17a1.286,1.286,0,0,0-.207-0.02h-0.226a1.732,1.732,0,0,1-.227-0.01,0.67,0.67,0,0,1-.206-0.03c-0.226,1.06-.443,2.11-0.65,3.16s-0.4,2.08-.575,3.11a3.345,3.345,0,0,0-.338-0.02H926.9c-0.126,0-.245.01-0.357,0.02,0.237-.86.489-1.85,0.752-2.98s0.518-2.29.763-3.45,0.474-2.3.687-3.39,0.39-2.04.529-2.86c0.2,0.02.4,0.04,0.592,0.05a5.835,5.835,0,0,0,.594.02c0.1,0,.269,0,0.508-0.01s0.491-.01.753-0.02,0.515-.03.754-0.03,0.4-.01.49-0.01a11.105,11.105,0,0,1,1.131.06,3.248,3.248,0,0,1,1.035.29,2.447,2.447,0,0,1,1.045.91,2.256,2.256,0,0,1,.33,1.16,3.422,3.422,0,0,1-.481,1.7,3.92,3.92,0,0,1-1.441,1.42,3.8,3.8,0,0,1-.724.37,6.333,6.333,0,0,1-.745.24c-0.238.07-.458,0.11-0.658,0.15s-0.359.06-.472,0.08c0.163,0.26.371,0.57,0.622,0.95s0.518,0.76.8,1.18,0.578,0.85.886,1.28,0.6,0.83.876,1.21,0.527,0.71.753,1,0.4,0.51.527,0.64v0.04C936.271,2843.93,936.1,2843.92,935.938,2843.92Zm-5.924-6.73c0.182,0.01.373,0.02,0.574,0.02,0.063,0,.205,0,0.425-0.01a5.77,5.77,0,0,0,.753-0.08,6.7,6.7,0,0,0,.895-0.2,2.721,2.721,0,0,0,.847-0.4,3.061,3.061,0,0,0,1.12-1.27,3.391,3.391,0,0,0,.331-1.39,1.623,1.623,0,0,0-1.027-1.66,2.717,2.717,0,0,0-.895-0.21c-0.314-.02-0.59-0.02-0.829-0.02-0.288,0-.546,0-0.772.02s-0.484.04-.772,0.07q-0.169.645-.292,1.14t-0.245,1.02c-0.082.36-.172,0.76-0.274,1.21s-0.225,1.02-.376,1.69A4.747,4.747,0,0,0,930.014,2837.19Zm20.483-2.41a4.242,4.242,0,0,1-.4,1,4.561,4.561,0,0,1-.7.92,4.125,4.125,0,0,1-1.007.75,4.9,4.9,0,0,1-1.676.52,14.631,14.631,0,0,1-2.033.13c-0.227,0-.415,0-0.566-0.01a3.014,3.014,0,0,1-.433-0.03q-0.264,1.23-.565,2.73t-0.584,3.15c-0.113-.01-0.237-0.02-0.368-0.02h-0.894c-0.151,0-.283.01-0.4,0.02q0.246-.855.5-1.92,0.254-1.05.517-2.19t0.509-2.31c0.163-.79.32-1.56,0.47-2.3s0.289-1.45.416-2.13,0.231-1.29.32-1.83c0.176,0.02.357,0.04,0.546,0.05a5.083,5.083,0,0,0,.545.02c0.088,0,.252,0,0.49-0.01s0.49-.01.753-0.02,0.512-.03.745-0.03,0.393-.01.48-0.01a9.83,9.83,0,0,1,1.168.08,3.237,3.237,0,0,1,1.168.4,2.132,2.132,0,0,1,.858.89,2.58,2.58,0,0,1,.272,1.18A3.9,3.9,0,0,1,950.5,2834.78Zm-1.676-2.02a1.748,1.748,0,0,0-.7-0.6,2.434,2.434,0,0,0-.886-0.23c-0.314-.03-0.6-0.04-0.847-0.04-0.215,0-.431.01-0.65,0.03l-0.65.06c-0.112.42-.207,0.79-0.282,1.09s-0.154.64-.235,1.01-0.179.8-.292,1.31-0.264,1.18-.453,2.02a5.1,5.1,0,0,0,1.055.08c0.1,0,.255,0,0.461-0.01s0.444-.04.707-0.08a7.129,7.129,0,0,0,.82-0.22,2.437,2.437,0,0,0,.781-0.42,2.869,2.869,0,0,0,.668-0.64,3.819,3.819,0,0,0,.444-0.74,4.125,4.125,0,0,0,.253-0.77,3.472,3.472,0,0,0,.085-0.73A1.9,1.9,0,0,0,948.821,2832.76Zm10.943,11.16H958.8c-0.138,0-.291.01-0.453,0.02-0.326-.48-0.687-1.03-1.083-1.64s-0.791-1.2-1.186-1.78-0.773-1.12-1.131-1.62-0.661-.88-0.912-1.17a1.311,1.311,0,0,0-.208-0.02h-0.226a1.7,1.7,0,0,1-.226-0.01,0.677,0.677,0,0,1-.207-0.03c-0.226,1.06-.442,2.11-0.65,3.16s-0.4,2.08-.575,3.11a3.33,3.33,0,0,0-.339-0.02h-0.885c-0.126,0-.245.01-0.357,0.02,0.237-.86.489-1.85,0.752-2.98s0.518-2.29.763-3.45,0.474-2.3.687-3.39,0.39-2.04.527-2.86c0.2,0.02.4,0.04,0.6,0.05a5.8,5.8,0,0,0,.594.02c0.1,0,.269,0,0.507-0.01s0.49-.01.753-0.02,0.516-.03.755-0.03,0.4-.01.49-0.01a11.086,11.086,0,0,1,1.13.06,3.24,3.24,0,0,1,1.035.29,2.441,2.441,0,0,1,1.045.91,2.245,2.245,0,0,1,.329,1.16,3.429,3.429,0,0,1-.479,1.7,3.931,3.931,0,0,1-1.442,1.42,3.74,3.74,0,0,1-.724.37,6.333,6.333,0,0,1-.745.24c-0.238.07-.458,0.11-0.659,0.15s-0.358.06-.471,0.08c0.163,0.26.371,0.57,0.622,0.95s0.518,0.76.8,1.18,0.577,0.85.885,1.28,0.6,0.83.876,1.21,0.527,0.71.753,1,0.4,0.51.527,0.64v0.04C960.1,2843.93,959.927,2843.92,959.764,2843.92Zm-5.924-6.73c0.182,0.01.373,0.02,0.575,0.02,0.062,0,.2,0,0.425-0.01a5.791,5.791,0,0,0,.752-0.08,6.623,6.623,0,0,0,.894-0.2,2.7,2.7,0,0,0,.847-0.4,3.067,3.067,0,0,0,1.122-1.27,3.387,3.387,0,0,0,.329-1.39,1.621,1.621,0,0,0-1.026-1.66,2.711,2.711,0,0,0-.895-0.21c-0.313-.02-0.59-0.02-0.829-0.02-0.289,0-.546,0-0.772.02s-0.483.04-.772,0.07q-0.17.645-.292,1.14t-0.244,1.02c-0.082.36-.173,0.76-0.274,1.21s-0.226,1.02-.376,1.69A4.7,4.7,0,0,0,953.84,2837.19Zm7.59-1.53a7.511,7.511,0,0,1,4.362-4.1,8.755,8.755,0,0,1,3.163-.56,7.662,7.662,0,0,1,2.477.38,5.335,5.335,0,0,1,1.883,1.08,4.68,4.68,0,0,1,1.2,1.69,5.645,5.645,0,0,1,.424,2.24,7.716,7.716,0,0,1-.545,2.8,8.036,8.036,0,0,1-1.583,2.53,7.813,7.813,0,0,1-2.552,1.81,8.261,8.261,0,0,1-3.457.69c-0.263,0-.574-0.01-0.932-0.04a8.3,8.3,0,0,1-1.139-.16,6.282,6.282,0,0,1-1.205-.4,4.594,4.594,0,0,1-1.13-.7,3.806,3.806,0,0,1-.848-0.95,4.582,4.582,0,0,1-.489-1.07,5.849,5.849,0,0,1-.227-1.06,8.719,8.719,0,0,1-.056-0.9A7.952,7.952,0,0,1,961.43,2835.66Zm1.328,5.57a3.925,3.925,0,0,0,.961,1.4,3.816,3.816,0,0,0,1.4.8,5.516,5.516,0,0,0,1.685.25,5.623,5.623,0,0,0,2.9-.72,6.73,6.73,0,0,0,2.025-1.84,7.959,7.959,0,0,0,1.195-2.4,8.284,8.284,0,0,0,.4-2.42,5.392,5.392,0,0,0-.377-2.12,3.943,3.943,0,0,0-2.448-2.31,5.573,5.573,0,0,0-1.734-.28,5.419,5.419,0,0,0-2.646.65,6.288,6.288,0,0,0-2.006,1.7,7.7,7.7,0,0,0-1.27,2.42,9.027,9.027,0,0,0-.443,2.8A5.368,5.368,0,0,0,962.758,2841.23Zm10.887,6.17a1.333,1.333,0,0,0,.452-0.34,4.587,4.587,0,0,0,.518-0.72,7.874,7.874,0,0,0,.566-1.26c0.124-.37.69-2.36,0.846-2.97s0.324-1.29.5-2.03,0.351-1.51.527-2.33,0.345-1.63.508-2.42,0.311-1.54.443-2.25,0.241-1.31.33-1.82a3.624,3.624,0,0,0,.386.05,3.053,3.053,0,0,0,.424.02,3.419,3.419,0,0,0,.452-0.02c0.15-.01.289-0.03,0.414-0.05q-0.264.99-.462,1.8-0.2.825-.4,1.74c-0.139.61-.293,1.31-0.461,2.07s-0.375,1.7-.613,2.79c-0.139.65-.261,1.21-0.368,1.7s-0.209.9-.309,1.26-0.623,2.16-.717,2.41a3.4,3.4,0,0,1-.31.65,3.913,3.913,0,0,1-.547.79,4.634,4.634,0,0,1-.762.68,5.407,5.407,0,0,1-.857.53,3.386,3.386,0,0,1-.867.32l-0.094-.48A4.142,4.142,0,0,0,973.645,2847.4Zm8.749-6.99q-0.274,1.4-.537,2.79c0.866,0,1.717-.01,2.553-0.04s1.667-.08,2.5-0.17a2.783,2.783,0,0,0-.113.5,2.59,2.59,0,0,0,0,.45c-0.314-.01-0.644-0.02-0.989-0.02h-4.68c-0.452,0-.811.01-1.074,0.02,0.239-.86.49-1.85,0.753-2.98s0.521-2.29.772-3.45,0.484-2.3.7-3.39,0.389-2.04.528-2.86c0.6,0.02,1.2.04,1.789,0.05s1.1,0.02,1.526.02h0.678c0.25,0,.492,0,0.725-0.01s0.452-.01.658-0.02,0.387-.03.538-0.04a3.681,3.681,0,0,0-.151.51,2.057,2.057,0,0,0-.018.51,9.142,9.142,0,0,0-.961-0.12c-0.377-.03-0.766-0.05-1.168-0.07s-0.794-.02-1.178-0.02-0.712-.01-0.988-0.01q-0.376,1.5-.64,2.67t-0.491,2.16h2.242c0.163,0,.348,0,0.556-0.01s0.415-.01.621-0.02,0.4-.03.575-0.04,0.32-.03.433-0.04a4.989,4.989,0,0,0-.141.48,1.552,1.552,0,0,0-.028.47q-0.66-.075-1.328-0.09c-0.446-.02-0.889-0.02-1.328-0.02h-1.752Q982.667,2839,982.394,2840.41Zm16.471,2.5c-0.038.13-.075,0.29-0.113,0.47a9.223,9.223,0,0,1-1.412.52,7.926,7.926,0,0,1-2.3.28,8.679,8.679,0,0,1-2.289-.3,5.091,5.091,0,0,1-1.939-.97,4.9,4.9,0,0,1-1.346-1.74,5.858,5.858,0,0,1-.51-2.55,7.787,7.787,0,0,1,.557-2.94,7,7,0,0,1,1.6-2.4,7.506,7.506,0,0,1,2.561-1.63,9.224,9.224,0,0,1,3.418-.6,11.193,11.193,0,0,1,1.855.15,5.883,5.883,0,0,1,1.741.58,7.9,7.9,0,0,0-.36.75,3.154,3.154,0,0,0-.18.5c-0.09-.09-0.224-0.21-0.4-0.36a4.073,4.073,0,0,0-.679-0.45,4.991,4.991,0,0,0-.988-0.37,4.85,4.85,0,0,0-1.329-.16,5.611,5.611,0,0,0-2.637.59,5.82,5.82,0,0,0-1.921,1.59,7.385,7.385,0,0,0-1.177,2.28,8.651,8.651,0,0,0-.4,2.63,5.5,5.5,0,0,0,.33,2.1,4.308,4.308,0,0,0,.763,1.24,4.182,4.182,0,0,0,1.582,1.06,5.393,5.393,0,0,0,1.865.33,6.406,6.406,0,0,0,1.987-.32,8,8,0,0,0,1.836-.89l0.075,0.1A5.038,5.038,0,0,0,998.865,2842.91Zm8.4-8.27c-0.23.98-.46,2.02-0.68,3.09s-0.45,2.15-.66,3.23-0.4,2.07-.55,2.98c-0.11-.01-0.23-0.02-0.36-0.02h-0.9c-0.15,0-.29.01-0.41,0.02,0.25-.93.5-1.95,0.77-3.06s0.51-2.21.74-3.3,0.44-2.11.63-3.08,0.34-1.78.45-2.44c-0.49,0-1.08.01-1.78,0.04s-1.51.08-2.42,0.14a4.375,4.375,0,0,0,.14-0.48c0.02-.12.05-0.29,0.07-0.5,0.68,0.04,1.41.06,2.18,0.06s1.63,0.01,2.57.01,1.8,0,2.55-.02,1.43-.03,2.04-0.05a3.348,3.348,0,0,0-.13.43c-0.02.12-.05,0.31-0.07,0.55-0.23-.01-0.49-0.03-0.79-0.05l-0.94-.06c-0.32-.02-0.64-0.04-0.96-0.05s-0.6-.02-0.85-0.02C1007.72,2832.79,1007.51,2833.65,1007.27,2834.64Z" transform="translate(-880 -2831)"/>
</svg>
