<svg xmlns="http://www.w3.org/2000/svg" xmlns:xlink="http://www.w3.org/1999/xlink" width="140.34" height="21.24" viewBox="0 0 140.34 21.24">
  <defs>
    <style>
      .cls-1 {
        fill-rule: evenodd;
        filter: url(#filter);
      }
    </style>
    <filter id="filter" x="1071.66" y="2462.88" width="140.34" height="21.24" filterUnits="userSpaceOnUse">
      <feFlood result="flood" flood-color="#3fbdd7"/>
      <feComposite result="composite" operator="in" in2="SourceGraphic"/>
      <feBlend result="blend" in2="SourceGraphic"/>
    </filter>
  </defs>
  <path id="icon_coeur_granbody02.svg" class="cls-1" d="M1085.33,2464.47a2.4,2.4,0,0,1-.6,1.54,1.721,1.721,0,0,1-1.39.74,2.094,2.094,0,0,1-.88-0.2,0.738,0.738,0,0,1-.57-0.61l0.09-.14a1.111,1.111,0,0,0,1.02.55,0.95,0.95,0,0,0,.83-0.5,1.719,1.719,0,0,0,.26-0.95,2.245,2.245,0,0,0-.2-1.15,0.749,0.749,0,0,0-.65-0.29c-0.09,0-.27.02-0.53,0.05a5.3,5.3,0,0,1-.63.04,9.517,9.517,0,0,1-1.17-.11,8.42,8.42,0,0,0-1.18-.12c-1.7,0-3.27.91-4.69,2.72a8.4,8.4,0,0,0-1.97,5.16,5.253,5.253,0,0,0,1.23,3.65,4.511,4.511,0,0,0,3.56,1.44,4.793,4.793,0,0,0,3.59-1.5,4.981,4.981,0,0,0,1.46-3.61,4.121,4.121,0,0,0-.09-0.7,4.958,4.958,0,0,1-.08-0.67l0.12-.19a1.182,1.182,0,0,1,.59.88,3.816,3.816,0,0,1,.22,1.11,4.484,4.484,0,0,1-1.97,3.71,6.7,6.7,0,0,1-4.15,1.37,6.076,6.076,0,0,1-4.17-1.46,5.028,5.028,0,0,1-1.74-3.96,8.139,8.139,0,0,1,2.45-5.66,7.448,7.448,0,0,1,5.57-2.68h4.72a0.835,0.835,0,0,1,.73.58A2.251,2.251,0,0,1,1085.33,2464.47Zm5.47,8.14a3.743,3.743,0,0,1-1.28,2.93,4.46,4.46,0,0,1-3.1,1.15,2.416,2.416,0,0,1-1.74-.66,2.269,2.269,0,0,1-.68-1.68,3.766,3.766,0,0,1,1.33-2.88,4.41,4.41,0,0,1,3.06-1.2,2.385,2.385,0,0,1,1.72.66A2.224,2.224,0,0,1,1090.8,2472.61Zm-0.97-.56a1.22,1.22,0,0,0-1.37-1.39,3.182,3.182,0,0,0-2.39,1.55,4.592,4.592,0,0,0-1.1,2.7,1.21,1.21,0,0,0,1.36,1.38,3.12,3.12,0,0,0,2.4-1.54A4.592,4.592,0,0,0,1089.83,2472.05Zm8.51-1.13a2.772,2.772,0,0,1-1.58,2.38,5.827,5.827,0,0,1-3.09.86,4.157,4.157,0,0,1-.9-0.09,1.874,1.874,0,0,0,.64,1.37,1.951,1.951,0,0,0,1.4.62,3.411,3.411,0,0,0,1.78-.47c0.26-.16.54-0.33,0.8-0.5l0.12,0.14c-0.03.42-.52,0.78-1.47,1.09a6.772,6.772,0,0,1-1.96.37,2.957,2.957,0,0,1-2.02-.7,2.311,2.311,0,0,1-.81-1.85c0-1.17.72-2.2,2.14-3.08a7.159,7.159,0,0,1,3.79-1.16A0.966,0.966,0,0,1,1098.34,2470.92Zm-1.33.26q0-.66-1.02-0.66a3.211,3.211,0,0,0-2.16,1.04,2.93,2.93,0,0,0-1.11,2.09,2.17,2.17,0,0,1,.37.06,2.1,2.1,0,0,0,.41.06,3.554,3.554,0,0,0,2.28-.75A2.627,2.627,0,0,0,1097.01,2471.18Zm9.87-.7a32.755,32.755,0,0,0-2.61,5.35c0,0.37.29,0.5,0.88,0.39l0.19,0.14c-0.02.22-.24,0.33-0.67,0.33a6.547,6.547,0,0,1-.72-0.06,6.366,6.366,0,0,0-.72-0.06,1.219,1.219,0,0,0-.33.06,1.426,1.426,0,0,1-.31.06l-0.12-.12a1.152,1.152,0,0,1,.24-0.48l-0.05-.05a3.662,3.662,0,0,1-2.09.65,2,2,0,0,1-1.32-.41,1.392,1.392,0,0,1-.53-1.17,4.016,4.016,0,0,1,.66-1.95c0.37-.6.74-1.2,1.12-1.8a4.415,4.415,0,0,0-.56.17,2.026,2.026,0,0,1-.6.15q-0.12,0-.12-0.18a0.35,0.35,0,0,1,.14-0.12,22.631,22.631,0,0,1,2.71-1.01l0.16,0.16a12.669,12.669,0,0,1-1.14,2.04,6.817,6.817,0,0,0-1.13,2.47c0,0.84.3,1.25,0.92,1.25a3.344,3.344,0,0,0,2.68-1.83c0.55-1.05,1.11-2.09,1.66-3.13a5.072,5.072,0,0,1-.88.19l-0.12-.14a21.97,21.97,0,0,1,2.47-1.01Zm7.94,0.83a1.017,1.017,0,0,1-1.21,1.09c-0.28,0-.42-0.06-0.42-0.19a1.716,1.716,0,0,0,.3-0.83,0.537,0.537,0,0,0-.62-0.6c-0.79,0-1.72.65-2.81,1.94a5.627,5.627,0,0,0-1.62,3.13,0.375,0.375,0,0,0,.41.44,0.9,0.9,0,0,0,.55-0.16,0.862,0.862,0,0,1,.3-0.16l0.09,0.16a0.484,0.484,0,0,1-.36.4,1.813,1.813,0,0,1-.63.16h-2.73a0.288,0.288,0,1,1-.06-0.4,1.226,1.226,0,0,0,.54-0.14,2.7,2.7,0,0,0,.78-0.92c0.5-.96,1.31-2.36,2.41-4.21a6.574,6.574,0,0,1-1.04.29l-0.14-.18a2.615,2.615,0,0,1,1.21-.54,7.163,7.163,0,0,1,1.45-.32,0.411,0.411,0,0,1,.28.11c-0.14.23-.32,0.52-0.55,0.91l0.05,0.04a3.65,3.65,0,0,1,2.61-1.06A1,1,0,0,1,1114.82,2471.31Zm16.56-5.16a1.551,1.551,0,0,1-1.65,1.67,2.01,2.01,0,0,1-1.12-.41,1.12,1.12,0,0,1-.6-0.89l0.08-.14a1.39,1.39,0,0,0,1.2.51c0.74,0,1.12-.47,1.12-1.43,0-.68-0.67-1.19-2.02-1.53a12.429,12.429,0,0,0-2.89-.33,9.394,9.394,0,0,0-4.24,1.03c-1.66.83-2.49,1.89-2.49,3.16a3.143,3.143,0,0,0,1.54,2.8,6.022,6.022,0,0,0,3.27.84,8.041,8.041,0,0,0,3.32-.84,11.26,11.26,0,0,1,2.45-.97l0.06,0.21a5.925,5.925,0,0,1-1.04,2.18,9.078,9.078,0,0,1-8.06,4.68,6.954,6.954,0,0,1-2.7-.58c-1.17-.48-1.76-1.09-1.76-1.83l0.08-.14c0.66,1.44,2,2.15,4.03,2.15a7.466,7.466,0,0,0,4.4-1.58,9.134,9.134,0,0,0,3.02-3.6l-0.05-.07c-1.04.3-1.73,0.5-2.06,0.57a10.278,10.278,0,0,1-2.16.21,6.866,6.866,0,0,1-3.7-1.09,3.589,3.589,0,0,1-1.96-3.05q0-2.325,2.89-3.55a12.553,12.553,0,0,1,4.95-.92,12.3,12.3,0,0,1,3.72.51C1130.59,2464.22,1131.38,2465.04,1131.38,2466.15Zm5.27,5.16a1.017,1.017,0,0,1-1.21,1.09c-0.29,0-.43-0.06-0.43-0.19a1.648,1.648,0,0,0,.31-0.83,0.541,0.541,0,0,0-.62-0.6c-0.79,0-1.73.65-2.81,1.94a5.627,5.627,0,0,0-1.62,3.13,0.368,0.368,0,0,0,.4.44,0.926,0.926,0,0,0,.56-0.16,0.956,0.956,0,0,1,.29-0.16l0.1,0.16a0.483,0.483,0,0,1-.37.4,1.718,1.718,0,0,1-.62.16h-2.73a0.629,0.629,0,0,1-.52-0.19,0.608,0.608,0,0,1,.46-0.21,1.182,1.182,0,0,0,.53-0.14,2.5,2.5,0,0,0,.79-0.92c0.5-.96,1.31-2.36,2.41-4.21a6.574,6.574,0,0,1-1.04.29l-0.14-.18a2.548,2.548,0,0,1,1.21-.54,7.265,7.265,0,0,1,1.44-.32,0.417,0.417,0,0,1,.29.11c-0.15.23-.33,0.52-0.55,0.91l0.05,0.04a3.633,3.633,0,0,1,2.61-1.06A1,1,0,0,1,1136.65,2471.31Zm8.44-.65c-0.89,1.35-1.41,2.16-1.57,2.44a5.971,5.971,0,0,0-.94,2.55c0,0.41.15,0.62,0.47,0.62a0.812,0.812,0,0,0,.75-0.5,2.208,2.208,0,0,1,.27-0.49l0.19,0.14c0.01,0.84-.58,1.27-1.78,1.27h-1.78l-0.17-.1,0.08-.32a3.714,3.714,0,0,1-1.78.42c-1.52,0-2.28-.66-2.28-2q0-1.71,2.28-3.12a7.5,7.5,0,0,1,3.95-1.3A4.485,4.485,0,0,1,1145.09,2470.66Zm-1.52.1a1.17,1.17,0,0,0-.47-0.1,5.725,5.725,0,0,0-3.23,1.22,3.55,3.55,0,0,0-1.85,2.71,1.271,1.271,0,0,0,1.4,1.47c0.99,0,1.77-.65,2.32-1.96A30.108,30.108,0,0,1,1143.57,2470.76Zm9.08,0.93a3.419,3.419,0,0,1-.66,1.84,12.615,12.615,0,0,1-1.21,1.49,4.749,4.749,0,0,0-.66.76c0,0.19.22,0.28,0.68,0.28a1.656,1.656,0,0,0,.71-0.18l0.19,0.09a0.6,0.6,0,0,1-.4.51,1.641,1.641,0,0,1-.74.21h-1.54a0.3,0.3,0,0,1-.26-0.14c0.43-.56.85-1.13,1.28-1.7a5.534,5.534,0,0,0,1.28-3.02,0.891,0.891,0,0,0-.95-1.07c-0.76,0-1.67.68-2.76,2.06a6.05,6.05,0,0,0-1.62,3.2,0.222,0.222,0,0,0,.26.25,0.514,0.514,0,0,0,.35-0.2,0.54,0.54,0,0,1,.29-0.19l0.17,0.18a0.648,0.648,0,0,1-.43.41,1.6,1.6,0,0,1-.66.22h-2.31l-0.33-.1a1.087,1.087,0,0,1,.63-0.35,1.2,1.2,0,0,0,.79-0.69c0.49-.96,1.24-2.38,2.23-4.26a9.518,9.518,0,0,1-1.25.28l-0.12-.12a4.294,4.294,0,0,1,1.33-.62c0.69-.27,1.21-0.45,1.56-0.56l0.14,0.16c-0.07.19-.17,0.47-0.28,0.84a6.347,6.347,0,0,1,1.23-.75,3.4,3.4,0,0,1,1.35-.39A1.449,1.449,0,0,1,1152.65,2471.69Zm13.54-8.09-0.12.14a1.421,1.421,0,0,0-1.09-.46c-0.79,0-1.61,1.16-2.45,3.48q-2.055,5.775-2.39,6.45-1.725,3.48-4.1,3.48a3.312,3.312,0,0,1-2.04-.58,2.163,2.163,0,0,1-.88-1.83,4.021,4.021,0,0,1,1.47-3.02,4.6,4.6,0,0,1,3.2-1.36,2.1,2.1,0,0,1,1.9.88q1.755-4.08,2.04-4.63c1.15-2.18,2.23-3.27,3.22-3.27a1.877,1.877,0,0,1,.78.2A0.655,0.655,0,0,1,1166.19,2463.6Zm-6.93,7.72a0.919,0.919,0,0,0-1.13-.91,3.232,3.232,0,0,0-2.55,1.45,4.666,4.666,0,0,0-1.13,2.88,1.36,1.36,0,0,0,1.52,1.55c0.64,0,1.37-.67,2.18-2.02A6.512,6.512,0,0,0,1159.26,2471.32Zm19.48-6.15a11.139,11.139,0,0,0-2.99,4.18,37.121,37.121,0,0,1-2.7,4.95,5.447,5.447,0,0,1-4.44,2.39,4.807,4.807,0,0,1-2.25-.56,1.929,1.929,0,0,1-1.3-1.71l0.1-.14a1.208,1.208,0,0,1,.23.46,2.784,2.784,0,0,0,2.87,1.55c1.31,0,2.63-.95,3.94-2.88q1.575-2.655,3.17-5.36,1.785-2.9,3.25-2.95Zm4.76-.5a2.813,2.813,0,0,1-1.01,2.33,5.533,5.533,0,0,1-2,.86,3.043,3.043,0,0,0-1.3.49,3,3,0,0,0,.69.67,6.9,6.9,0,0,1,1.21,1.25,3,3,0,0,1,.66,1.83,4.462,4.462,0,0,1-4.6,4.59,4.888,4.888,0,0,1-2.06-.52,1.842,1.842,0,0,1-1.35-1.45l0.16-.23a3.265,3.265,0,0,0,1.15,1.3,3.035,3.035,0,0,0,1.65.5,3.478,3.478,0,0,0,2.71-1.46,4.564,4.564,0,0,0,1.1-2.91,3.982,3.982,0,0,0-.44-1.86,5.771,5.771,0,0,0-.86-1.11,1.968,1.968,0,0,1-.45-0.61,3.1,3.1,0,0,1,1.02-.69,7.592,7.592,0,0,0,1.85-1.4,3.351,3.351,0,0,0,1.02-2.37c0-.37-0.14-0.56-0.43-0.56a6.642,6.642,0,0,0-1.84.55,6.7,6.7,0,0,1-2.37.54,17.417,17.417,0,0,1-2.45-.26,14.789,14.789,0,0,0-2.42-.27,5.2,5.2,0,0,0-3.33.96,3.348,3.348,0,0,0-1.2,2.77,6.091,6.091,0,0,0,.15,1.29l-0.15.1a0.837,0.837,0,0,1-.3-0.65,3.752,3.752,0,0,1-.12-0.81,4.064,4.064,0,0,1,1.78-3.36,5.984,5.984,0,0,1,3.77-1.25,16.769,16.769,0,0,1,2.81.34,17.508,17.508,0,0,0,2.81.33,4.878,4.878,0,0,0,1.49-.33,4.565,4.565,0,0,1,1.42-.34,1.07,1.07,0,0,1,.98.58A2.58,2.58,0,0,1,1183.5,2464.67Zm5.84,7.94a3.775,3.775,0,0,1-1.28,2.93,4.484,4.484,0,0,1-3.11,1.15,2.393,2.393,0,0,1-1.73-.66,2.239,2.239,0,0,1-.69-1.68,3.8,3.8,0,0,1,1.33-2.88,4.41,4.41,0,0,1,3.06-1.2,2.409,2.409,0,0,1,1.73.66A2.224,2.224,0,0,1,1189.34,2472.61Zm-0.98-.56a1.213,1.213,0,0,0-1.36-1.39,3.213,3.213,0,0,0-2.4,1.55,4.592,4.592,0,0,0-1.1,2.7,1.217,1.217,0,0,0,1.37,1.38,3.1,3.1,0,0,0,2.39-1.54A4.528,4.528,0,0,0,1188.36,2472.05Zm14.92-8.45-0.12.14a1.406,1.406,0,0,0-1.09-.46c-0.8,0-1.6,1.16-2.45,3.48-1.37,3.85-2.16,6-2.39,6.45q-1.725,3.48-4.1,3.48a3.312,3.312,0,0,1-2.04-.58,2.163,2.163,0,0,1-.88-1.83,4,4,0,0,1,1.48-3.02,4.579,4.579,0,0,1,3.19-1.36,2.1,2.1,0,0,1,1.9.88q1.755-4.08,2.04-4.63,1.725-3.27,3.23-3.27a1.954,1.954,0,0,1,.78.2A0.658,0.658,0,0,1,1203.28,2463.6Zm-6.92,7.72a0.923,0.923,0,0,0-1.14-.91,3.232,3.232,0,0,0-2.55,1.45,4.709,4.709,0,0,0-1.12,2.88,1.353,1.353,0,0,0,1.51,1.55c0.65,0,1.37-.67,2.18-2.02A6.555,6.555,0,0,0,1196.36,2471.32Zm10.19-1.07a2.648,2.648,0,0,1-.45.69,20.534,20.534,0,0,0-2.19,3.62q-4.14,8.82-8.53,8.82a2.055,2.055,0,0,1-1.18-.39,1.182,1.182,0,0,1-.67-1l0.12-.14a1.333,1.333,0,0,0,.67.84,2.177,2.177,0,0,0,1.11.3,4.176,4.176,0,0,0,2.73-1.65,24.752,24.752,0,0,0,2.51-3.44c0.62-1.01,1.23-2.02,1.83-3.02l-0.03-.02c-0.99.8-1.51,1.22-1.54,1.25a3.284,3.284,0,0,1-1.85.58,1.053,1.053,0,0,1-1.26-1.11,4.285,4.285,0,0,1,.74-2.14c0.44-.63.88-1.27,1.3-1.92l-1.06.35-0.15-.12a6.2,6.2,0,0,1,1.43-.78,7.306,7.306,0,0,1,1.61-.65l0.17,0.11a20.542,20.542,0,0,1-1.45,2.38,7.2,7.2,0,0,0-1.35,2.81,0.545,0.545,0,0,0,.56.67c0.54,0,1.36-.53,2.45-1.58,0.63-.6,1.54-1.58,2.72-2.93a10.831,10.831,0,0,1,1.59-1.65Zm0.4,3.34a2.354,2.354,0,0,1,.69-1.71,2.366,2.366,0,0,1,3.38,0,2.439,2.439,0,0,1,0,3.42,2.366,2.366,0,0,1-3.38,0A2.371,2.371,0,0,1,1206.95,2473.59Zm0.88,1.55h1.55v-0.17a1.03,1.03,0,0,1-.37-0.04,0.224,0.224,0,0,1-.15-0.23v-1.08a1.173,1.173,0,0,1,.73.13,0.786,0.786,0,0,1,.22.6,1.581,1.581,0,0,0,.1.6,0.48,0.48,0,0,0,.49.25,0.582,0.582,0,0,0,.55-0.3,1.629,1.629,0,0,0,.11-0.51h-0.19a1.5,1.5,0,0,1-.08.41,0.207,0.207,0,0,1-.19.15,0.9,0.9,0,0,1-.28-0.6,1.072,1.072,0,0,0-.73-0.77v-0.04a1.591,1.591,0,0,0,.77-0.25,0.616,0.616,0,0,0,.29-0.52,0.661,0.661,0,0,0-.35-0.6,1.907,1.907,0,0,0-.95-0.22h-1.52v0.18a1.28,1.28,0,0,1,.41.05,0.215,0.215,0,0,1,.11.21v2.31a0.214,0.214,0,0,1-.1.22,1.308,1.308,0,0,1-.42.05v0.17Zm-1.17-1.55a2.659,2.659,0,0,0,.78,1.91,2.656,2.656,0,0,0,3.78,0,2.729,2.729,0,0,0,0-3.82,2.561,2.561,0,0,0-1.89-.79,2.508,2.508,0,0,0-1.88.79A2.645,2.645,0,0,0,1206.66,2473.59Zm2.2-.15v-1.05a0.192,0.192,0,0,1,.12-0.2,0.656,0.656,0,0,1,.31-0.06,0.77,0.77,0,0,1,.55.17,0.588,0.588,0,0,1,.18.46,0.575,0.575,0,0,1-.33.6A2.857,2.857,0,0,1,1208.86,2473.44Zm-60.68,7.31a1.037,1.037,0,0,0-.48.44,8.336,8.336,0,0,1-2.91,2.35,5.49,5.49,0,0,1-1.33.48l-0.01-.04a11.265,11.265,0,0,0,4.03-3.43c-0.15.02-.77,0.1-0.79,0.11s-0.22.05-.25,0.05a0.487,0.487,0,0,1-.24-0.11,6.753,6.753,0,0,1-2.08,1.38l-0.02-.04a9.5,9.5,0,0,0,2.16-2.19,0.52,0.52,0,0,0-.29-0.34,1.2,1.2,0,0,1,.37-0.07,0.755,0.755,0,0,1,.71.52,0.4,0.4,0,0,1-.24.21c-0.08.06-.13,0.11-0.29,0.25a4.238,4.238,0,0,0,1.06-.11,3.438,3.438,0,0,1,.39-0.19,0.637,0.637,0,0,1,.26.22c0.22,0.24.24,0.27,0.22,0.33C1148.43,2480.66,1148.4,2480.67,1148.18,2480.75Zm4.77,1.12c-0.1,0-.25-0.01-0.27-0.01-0.35-.02-1.16-0.02-1.6-0.02a12.234,12.234,0,0,0-1.74.13,1.935,1.935,0,0,1-.23.05,0.673,0.673,0,0,1-.37-0.76,1.542,1.542,0,0,1,.23-0.39c0.08,0.46.18,0.48,0.86,0.48,0.38,0,2.52-.02,2.67-0.07a1.378,1.378,0,0,1,.26-0.06c0.25,0,.73.1,0.65,0.41A0.441,0.441,0,0,1,1152.95,2481.87Zm2.77-1.12c-0.05.11-.35,0.84-0.43,1a4.037,4.037,0,0,1-2.16,2.06l-0.03-.04a5.5,5.5,0,0,0,2-3c0.11-.37.01-0.4-0.35-0.52a1.33,1.33,0,0,1,.52-0.17c0.2,0,.67.19,0.61,0.4A2.4,2.4,0,0,1,1155.72,2480.75Zm1.15,2.21c-0.14.09-.74,0.47-0.86,0.56a0.366,0.366,0,0,1-.19.09,0.76,0.76,0,0,1-.28-0.66,2.37,2.37,0,0,1,.19-0.35c0.07-.17.32-0.96,0.44-1.4a6.318,6.318,0,0,0,.26-1.23,0.569,0.569,0,0,0-.39-0.23,1.006,1.006,0,0,1,.46-0.17c0.22,0,.75.21,0.69,0.43-0.01.06-.18,0.31-0.2,0.36-0.13.26-.64,1.84-0.74,2.21-0.01.04-.01,0.09,0.03,0.09a9.5,9.5,0,0,0,2.71-1.79l0.03,0.04A6.97,6.97,0,0,1,1156.87,2482.96Zm6.41-2.15a0.589,0.589,0,0,0-.27.23,8.977,8.977,0,0,1-2.48,2.23,6.623,6.623,0,0,1-1.91.78v-0.03a11.4,11.4,0,0,0,2.93-2.14c0.3-.3,1.07-1.24,1.08-1.26s-0.03-.03-0.04-0.03c-0.15,0-.93.15-0.96,0.15a0.493,0.493,0,0,1-.24-0.14,6.416,6.416,0,0,1-2.13,1.42l-0.02-.04a9.824,9.824,0,0,0,2.17-2.2c0.04-.13-0.06-0.2-0.27-0.34a1.332,1.332,0,0,1,.38-0.07,0.812,0.812,0,0,1,.69.51,0.431,0.431,0,0,1-.23.21c-0.04.03-.17,0.13-0.31,0.25a3.762,3.762,0,0,0,1.12-.12,2.336,2.336,0,0,1,.35-0.18,3.338,3.338,0,0,1,.41.37,0.171,0.171,0,0,1,.07.18A0.423,0.423,0,0,1,1163.28,2480.81Zm0.59-.56a0.2,0.2,0,0,1-.18-0.15,1.444,1.444,0,0,0-.54-0.66c0.46-.02,1.08.2,0.98,0.59A0.307,0.307,0,0,1,1163.87,2480.25Zm0.67-.28c-0.09,0-.11-0.03-0.25-0.27a1,1,0,0,0-.51-0.49c0.6-.03,1.12.16,1.02,0.53A0.27,0.27,0,0,1,1164.54,2479.97Zm4.68,1.28a1.068,1.068,0,0,0-.41.41,6.384,6.384,0,0,1-1.8,1.74,4.469,4.469,0,0,1-1.86.71l0.01-.04a7.581,7.581,0,0,0,3.28-2.95,13.038,13.038,0,0,0-2.23.35c-0.04.01-.27,0.1-0.3,0.1a0.643,0.643,0,0,1-.39-0.76,0.873,0.873,0,0,1,.14-0.27,0.5,0.5,0,0,0,.58.4c0.4,0,2.21-.17,2.34-0.22,0.05-.03.27-0.16,0.31-0.18a0.149,0.149,0,0,1,.09-0.02,0.883,0.883,0,0,1,.46.55A0.349,0.349,0,0,1,1169.22,2481.25Zm-0.59-1.16a13.314,13.314,0,0,0-1.55.13,2.66,2.66,0,0,1-.39.06,0.5,0.5,0,0,1-.35-0.66c0.01-.03.02-0.05,0.04-0.11a0.8,0.8,0,0,0,.7.26,5.427,5.427,0,0,0,1.37-.17,1.5,1.5,0,0,1,.34-0.08c0.15,0,.59.12,0.52,0.36C1169.25,2480.08,1169.03,2480.09,1168.63,2480.09Zm4.21,2.45c-0.21.14-1.33,0.84-1.37,0.88a0.518,0.518,0,0,1-.33.19,0.86,0.86,0,0,1-.5-0.95,1.04,1.04,0,0,1,.14-0.28,0.472,0.472,0,0,0,.38.42,10.5,10.5,0,0,0,1.78-.92,15.746,15.746,0,0,0,2.41-1.8l0.03,0.02A8.414,8.414,0,0,1,1172.84,2482.54Zm-0.42-1.86c-0.12,0-.17-0.06-0.35-0.34a1.652,1.652,0,0,0-.78-0.7,1.985,1.985,0,0,1,.47-0.05c0.34,0,1.25.11,1.08,0.73A0.473,0.473,0,0,1,1172.42,2480.68Zm3.56,2.52a0.245,0.245,0,0,1-.28-0.31,0.833,0.833,0,0,1,.47-0.46,3.3,3.3,0,0,0,1.11-.92C1177.11,2482.3,1176.49,2483.2,1175.98,2483.2Zm4.67-2.14c-0.01,0-.46-0.05-0.49-0.06-0.2-.02-0.53-0.03-0.74-0.03s-0.4,0-.6.01c-0.12.39-.42,1.55-0.45,1.68-0.01.07-.11,0.52-0.12,0.56a1.124,1.124,0,0,1-.62.81c-0.16,0-.17-0.08-0.22-0.35a0.877,0.877,0,0,0-.44-0.65l0.01-.04a2.5,2.5,0,0,0,.56.06,0.21,0.21,0,0,0,.22-0.09,9.692,9.692,0,0,0,.37-1.18c0.06-.24.09-0.32,0.19-0.75a6.563,6.563,0,0,0-1.32.26,0.489,0.489,0,0,1-.19.05,0.587,0.587,0,0,1-.42-0.7,0.959,0.959,0,0,1,.15-0.29,0.53,0.53,0,0,0,.58.4c0.08,0,1.14-.08,1.3-0.09a3.084,3.084,0,0,0,.19-0.98,0.478,0.478,0,0,0-.41-0.32,0.983,0.983,0,0,1,.5-0.18,0.676,0.676,0,0,1,.68.46,0.9,0.9,0,0,1-.17.27,4.565,4.565,0,0,0-.28.71c0.22-.01,1-0.08,1.18-0.12a0.879,0.879,0,0,1,.27-0.07c0.12,0,.6.14,0.52,0.43A0.234,0.234,0,0,1,1180.65,2481.06Zm-0.66,2.05c-0.22,0-.27-0.19-0.35-0.57a1.915,1.915,0,0,0-.52-1.03c0.61,0.1,1.43.63,1.27,1.22A0.527,0.527,0,0,1,1179.99,2483.11Zm0.83-2.89c-0.11,0-.13-0.03-0.27-0.28a1.728,1.728,0,0,0-.44-0.51c0.36-.03,1.1.13,0.98,0.59A0.289,0.289,0,0,1,1180.82,2480.22Zm0.73-.41a0.338,0.338,0,0,1-.28-0.26,1.479,1.479,0,0,0-.52-0.47c0.39-.02,1.17.04,1.05,0.49A0.309,0.309,0,0,1,1181.55,2479.81Zm5.27,1.49a2.1,2.1,0,0,1-.39-0.04,4.882,4.882,0,0,0-.73-0.06c-0.09,0-.38.01-0.79,0.05,0.28,0.22.31,0.24,0.3,0.29a0.264,0.264,0,0,1-.15.13,1.115,1.115,0,0,0-.17.23,4.651,4.651,0,0,1-2.64,2.22v-0.05a6.339,6.339,0,0,0,2.12-2.47,0.331,0.331,0,0,0-.01-0.3,5.811,5.811,0,0,0-1.1.23,1.151,1.151,0,0,1-.39.13,0.617,0.617,0,0,1-.38-0.75,0.9,0.9,0,0,1,.13-0.26,0.464,0.464,0,0,0,.53.39c0.18,0,1.31-.13,1.56-0.16,0.25-.01,1.26-0.1,1.44-0.15a2.1,2.1,0,0,1,.4-0.1c0.11,0,.63.18,0.55,0.47A0.286,0.286,0,0,1,1186.82,2481.3Zm-1.01-1.22c-0.39.01-.82,0.06-1.43,0.13-0.11.01-.21,0.03-0.31,0.03a0.455,0.455,0,0,1-.35-0.61,0.268,0.268,0,0,1,.06-0.12,0.566,0.566,0,0,0,.54.26,6.08,6.08,0,0,0,1.26-.14,2.585,2.585,0,0,1,.4-0.1c0.15,0,.5.09,0.44,0.31S1186.19,2480.07,1185.81,2480.08Zm1.43,0.52c-0.08,0-.09-0.01-0.21-0.21a1.567,1.567,0,0,0-.47-0.54c0.43,0,1.05.1,0.92,0.54A0.248,0.248,0,0,1,1187.24,2480.6Zm0.58-.39c-0.08,0-.1-0.05-0.19-0.19a1.4,1.4,0,0,0-.52-0.58c0.46,0.02,1.07.09,0.95,0.53A0.3,0.3,0,0,1,1187.82,2480.21Zm3.01,0.48a1.092,1.092,0,0,0-.23.13c-0.62.5-.69,0.56-0.88,0.7,0.16,0.1.22,0.14,0.2,0.21a0.871,0.871,0,0,1-.1.19,5.107,5.107,0,0,0-.16.5c-0.06.2-.28,1.14-0.33,1.33a0.417,0.417,0,0,1-.35.37c-0.2,0-.21-0.37-0.19-0.43s0.11-.26.12-0.3c0.13-.33.34-1.04,0.4-1.25a0.976,0.976,0,0,0,.05-0.35,7.029,7.029,0,0,1-1.97,1v-0.06a10.855,10.855,0,0,0,2.98-2.41c0.03-.11-0.03-0.16-0.17-0.29a1.277,1.277,0,0,1,.17-0.02,0.762,0.762,0,0,1,.67.53A0.31,0.31,0,0,1,1190.83,2480.69Z" transform="translate(-1071.66 -2462.88)"/>
</svg>
