<svg xmlns="http://www.w3.org/2000/svg" xmlns:xlink="http://www.w3.org/1999/xlink" width="58.969" height="44" viewBox="0 0 58.969 44">
  <defs>
    <style>
      .cls-1 {
        fill: #3e3e3e;
        fill-rule: evenodd;
        filter: url(#filter);
      }
    </style>
    <filter id="filter" x="50" y="2525" width="58.969" height="44" filterUnits="userSpaceOnUse">
      <feFlood result="flood" flood-color="#df6a70"/>
      <feComposite result="composite" operator="in" in2="SourceGraphic"/>
      <feBlend result="blend" in2="SourceGraphic"/>
    </filter>
  </defs>
  <path id="icon_overseas.svg" class="cls-1" d="M76.052,2565.19c-1.507-1.94-2.777-3.55-4.017-5.18a9.168,9.168,0,0,1-.671-1.26c1.575-.64,2.794-1.18,3.886.78a17.916,17.916,0,0,0,2.925,3.31c1.2-1.5,2.27-2.85,3.343-4.19,0.162,0.05.322,0.1,0.478,0.16v4.11c0.2,0.1.4,0.19,0.607,0.29,1.582-2.04,3.159-4.08,5.026-6.48-1.549-.13-2.567-0.22-3.768-0.32,0.871-1.53,1.539-2.88,3.581-2.83a2.26,2.26,0,0,0,1.589-1.31,24.32,24.32,0,0,0,.858-3.9c-2.523,0-4.863.02-7.2-.01-1.112-.01-2.226-0.12-3.342-0.16-2.653-.1-5.306-0.19-8.225-0.29,0.161,1.65.259,2.66,0.359,3.63-2.71,1.38-2.889,1.23-3.474-3.05H61.189c0.182,1.36.365,2.69,0.541,4.02-2.645.66-2.844,0.47-3.261-2-1.864-11.04,4.708-21.37,15.742-24.6a22.263,22.263,0,0,1,28.3,18.01c1.8,11.98-6.878,22.33-17.08,24.55a22.487,22.487,0,0,1-23.091-8.75c1.994-.62,3.606-0.54,5.258,1.21A15.021,15.021,0,0,0,76.052,2565.19ZM75.8,2528.86a19.187,19.187,0,0,0-11.992,8.64c2.078,0,3.746.07,5.4-.04a2.26,2.26,0,0,0,1.348-.96C72.3,2534.04,73.975,2531.53,75.8,2528.86Zm9.557,36.06c3.939-.21,9.95-4.48,11.359-8.37-1.643,0-3.242-.07-4.824.04a2.167,2.167,0,0,0-1.443.8C88.676,2559.91,86.988,2562.49,85.357,2564.92Zm11.771-27.43a19.086,19.086,0,0,0-12-8.59c1.838,2.68,3.526,5.19,5.279,7.66a2.141,2.141,0,0,0,1.341.88C93.408,2537.55,95.081,2537.49,97.128,2537.49Zm-15.05,7.99H89.9c-0.4-1.84-.751-3.42-1.083-4.94H82.078v4.94Zm-3.313-4.89H72.009c-0.325,1.72-.626,3.3-0.97,5.11,2.288,0,4.276.01,6.261-.01a14.572,14.572,0,0,0,1.465-.13v-4.97ZM92.9,2548.5c-0.293,1.84-.55,3.42-0.805,5.02,6.878,0.55,8.24-.42,7.229-5.16-1.568,0-3.167-.01-4.768.01C94.026,2548.37,93.5,2548.45,92.9,2548.5Zm-24.057-7.94c-6.84-.59-8.157.32-7.312,4.97h6.476C68.3,2543.79,68.558,2542.24,68.842,2540.56Zm30.968,5.03a21.934,21.934,0,0,0-.781-3.89,2.406,2.406,0,0,0-1.715-1.23c-1.719-.17-3.46-0.06-5.264-0.06,0.319,1.86.592,3.47,0.886,5.18H99.81Zm-21-14.44-0.553-.3c-1.571,2.08-3.147,4.16-4.92,6.51h5.473v-6.21Zm3.81-.33c-0.15.09-.3,0.19-0.449,0.28v6.27h5.46C85.78,2534.95,84.205,2532.89,82.625,2530.82Zm-6.23,21.78a3.429,3.429,0,0,1-1.388-.61,3.068,3.068,0,0,1-.6-1.93,1.912,1.912,0,0,1,1.632-.76c2.247,0.43,4.47,1.02,6.685,1.62,1.8,0.47,1.9,1.55.816,2.84a48.7,48.7,0,0,1-3.99,4.42c-0.581.54-1.649,0.56-2.5,0.81,0.11-.91.2-1.82,0.346-2.73a3.2,3.2,0,0,1,.49-0.78c-3,.56-5.8,1.16-8.625,1.59-4.727.73-9.467,1.16-14.169-.2-5.278-1.53-6.6-5.39-3.264-9.71a23.833,23.833,0,0,1,4.366-4.37c0.391,2.08.276,3.72-1.185,5.25-3.292,3.46-2.725,5.29,2.009,6.19,5.288,1.02,10.567.26,15.8-.73C73.929,2553.28,75.026,2552.95,76.395,2552.6Zm28.1-9.28c-0.719-2.01-1.339-3.27.076-4.8,2.447-2.66,1.742-4.65-1.91-5.33a7.149,7.149,0,0,1-5.671-3.96,65.191,65.191,0,0,1,8.1,1.66c3.878,1.32,4.983,4.79,2.82,8.2A48.731,48.731,0,0,1,104.492,2543.32Z" transform="translate(-50 -2525)"/>
</svg>
