<svg xmlns="http://www.w3.org/2000/svg" xmlns:xlink="http://www.w3.org/1999/xlink" width="57" height="44" viewBox="0 0 57 44">
  <defs>
    <style>
      .cls-1 {
        fill: #3e3e3e;
        fill-rule: evenodd;
        filter: url(#filter);
      }
    </style>
    <filter id="filter" x="50" y="2382" width="57" height="44" filterUnits="userSpaceOnUse">
      <feFlood result="flood" flood-color="#456436"/>
      <feComposite result="composite" operator="in" in2="SourceGraphic"/>
      <feBlend result="blend" in2="SourceGraphic"/>
    </filter>
  </defs>
  <path id="icon_consulting.svg" class="cls-1" d="M105.755,2382H57.793a1.233,1.233,0,0,0-1.238,1.22v26.48a0.268,0.268,0,0,1,.072-0.03c0.14-.04.314-0.07,0.511-0.11a1.551,1.551,0,0,0,1.5-1.02,16.393,16.393,0,0,0,.433-2.77c0.512-4.56,1.292-11.44,6.371-11.44a4.071,4.071,0,0,1,.769.06c0.138-.01.327-0.03,0.566-0.03,0.174,0,.337.03,0.507,0.04l3.773-2.55a1.843,1.843,0,1,1,3.56-.83l9.164,1.31a1.851,1.851,0,0,1,1.723-1.15,1.878,1.878,0,0,1,1.381.62l9.683-5.11a1.8,1.8,0,0,1-.1-0.48,1.865,1.865,0,1,1,1.867,1.83,1.887,1.887,0,0,1-1.383-.62l-9.683,5.11a1.548,1.548,0,0,1,.094.46,1.852,1.852,0,0,1-3.695.16l-9.159-1.31a1.868,1.868,0,0,1-2.963.68l-3.078,2.08c2.431,0.65,4.578,2.76,4.578,7.27,0,0.44,0,.86-0.006,1.26h3.435a1.509,1.509,0,0,1,1.243,1.68v7.69c0.159,0.4.317,0.82,0.465,1.23a14.319,14.319,0,0,0,.879,2.08c0.226,0.18.849,0.73,1.51,1.39v-17.86a1.225,1.225,0,0,1,1.236-1.22H89.2a1.231,1.231,0,0,1,1.243,1.22v11.48c0.015,0,.029-0.01.043-0.01,0.119,0,.245.01,0.4,0.02l0.211,0.02c0.414,0.04,1.319.13,2.192,0.18v-18.82a1.238,1.238,0,0,1,1.251-1.21h7.375a1.233,1.233,0,0,1,1.251,1.21v29.05a1.233,1.233,0,0,1-1.251,1.21H94.538a1.238,1.238,0,0,1-1.251-1.21v-6.13c-0.422.09-.837,0.17-1.167,0.23l-0.238.65a1.02,1.02,0,0,1-.12.24c-0.044.08-.653,1.03-1.321,2.06v2.95a1.236,1.236,0,0,1-1.243,1.21H87.512c-0.035.06-.076,0.12-0.1,0.18a12.908,12.908,0,0,1-1.814,2.71h20.161a1.229,1.229,0,0,0,1.244-1.22v-40.92A1.235,1.235,0,0,0,105.755,2382ZM77.58,2424.73l-0.131.63h1C78.147,2425.15,77.856,2424.96,77.58,2424.73Zm20.428-13.34c-0.318-.36-1.758.73-2.873,0.87a32.129,32.129,0,0,1-4.359-.19,1.331,1.331,0,0,0-.837.08,20.166,20.166,0,0,0-3.443,3.84,20.506,20.506,0,0,1-3.725,4.18,2.5,2.5,0,0,1-1.385.24s-0.019.06-.055-0.13c-0.167-.85-2.409-3.03-3.1-3.53s-1.46-3.7-2.409-5.39-4.046-1.34-4.046-1.34l-0.52-.59s0.52-.42.52-7.56-5.6-6.24-5.6-6.24c-6.11-1.09-5.454,11.21-6.369,13.38-0.749,1.77-2.239,1.68-2.842,1.85s-3,5.18-3.856,6.44S50,2426,50,2426H76.025l0.684-3.37,0.688,0.12a8.487,8.487,0,0,0,5.255,3.05c1.488,0,3.287-2.92,3.576-3.62a15.336,15.336,0,0,1,1.531-2.1c0.687-.98,2.929-4.48,2.929-4.48l0.484-1.34a32.45,32.45,0,0,0,3.469-.74C95.907,2413.13,98.364,2411.81,98.008,2411.39Zm-30.936,9.7c-0.836.71-.211,2.21-8.436,2.89l0.056-.11-4.643-7.12,9.609-4.94,5.451,8.44A4.388,4.388,0,0,0,67.072,2421.09Zm2.825-1.46-0.62-1.89-5.3-7.55-0.259-1.1,3.3,2.33-0.485.95,3.066,4.6h0.857l-2.35-4.62,0.457-2.92,1.035,3.81,1.522,3.73,0.351,2.3Z" transform="translate(-50 -2382)"/>
</svg>
