<svg xmlns="http://www.w3.org/2000/svg" xmlns:xlink="http://www.w3.org/1999/xlink" width="140" height="41" viewBox="0 0 140 41">
  <defs>
    <style>
      .cls-1 {
        fill-rule: evenodd;
        filter: url(#filter);
      }
    </style>
    <filter id="filter" x="681" y="2724" width="140" height="41" filterUnits="userSpaceOnUse">
      <feFlood result="flood" flood-color="#00a0e9"/>
      <feComposite result="composite" operator="in" in2="SourceGraphic"/>
      <feBlend result="blend" in2="SourceGraphic"/>
    </filter>
  </defs>
  <path id="icon_air_resh.svg" class="cls-1" d="M708.773,2733.56c-0.34.33-1.67,3.6-4.014,9.82q-3.505,9.285-3.507,9.83a0.751,0.751,0,0,0,.83.87,2.141,2.141,0,0,0,1.225-.61l0.176,0.22a2.3,2.3,0,0,1-1.981,1,7.067,7.067,0,0,1-1.186-.15,7.94,7.94,0,0,0-1.182-.14,1.791,1.791,0,0,0-1.01.29l-0.291-.18,0.116-.26c1.194-1.88,1.964-3.14,2.292-3.73a20.532,20.532,0,0,0,1.734-4.08c-0.63-.47-2.011-0.7-4.173-0.7a9.42,9.42,0,0,0-2.09,2.31,27.381,27.381,0,0,1-3.921,4.34,8.639,8.639,0,0,1-5.471,2.3,6.488,6.488,0,0,1-3.6-.97,3.713,3.713,0,0,1-1.721-3.18l0.221-.36c0.163,0.52.381,1.1,0.644,1.75a4.011,4.011,0,0,0,2.444,1.89,5.194,5.194,0,0,0,1.659.26q3.092,0,6.867-5.02c2.282-3.23,4.554-6.45,6.836-9.69q4.38-5.4,8.884-6.1Zm-4-.15c-0.452.63-1.544,1.17-3.273,1.63a16.161,16.161,0,0,1-3.775.54,18.378,18.378,0,0,1-3.675-.58,16.751,16.751,0,0,0-3.632-.58,6.6,6.6,0,0,0-4.49,1.62,5.3,5.3,0,0,0-1.979,4.26,5.1,5.1,0,0,0,.572,2.42l-0.144.07c-0.291,0-.548-0.4-0.786-1.19a5.7,5.7,0,0,1-.289-1.55,6.163,6.163,0,0,1,2.87-5.12,9.449,9.449,0,0,1,5.754-1.95,22.072,22.072,0,0,1,4.073.55,21.607,21.607,0,0,0,4.064.57,13.8,13.8,0,0,0,4.559-.83Zm2.949,0.51q-2.109.1-5.712,4.54-3.348,4.08-4,6.49c2.225,0.31,3.414.48,3.562,0.48a0.8,0.8,0,0,0,.717-0.33,2.91,2.91,0,0,0,.32-0.76c1.182-3.31,1.841-5.15,1.988-5.48A18.144,18.144,0,0,1,707.724,2733.92Zm5.689,11.1q0,0.18-2.14,3.94a21.777,21.777,0,0,0-2.141,4.21,0.742,0.742,0,0,0,.758.91,0.644,0.644,0,0,0,.284-0.11,0.582,0.582,0,0,1,.325-0.1l0.247,0.13c0,0.46-.516.69-1.579,0.69a8.128,8.128,0,0,1-.936-0.07,8.754,8.754,0,0,0-.9-0.08,7.461,7.461,0,0,0-.869.08,6.916,6.916,0,0,1-.829.07c-0.553,0-.822-0.09-0.822-0.24,0-.27.339-0.41,1-0.41,0.379,0,1.158-1.09,2.343-3.28,0.724-1.32,1.457-2.66,2.2-4a13.954,13.954,0,0,1-1.9.43l-0.182-.18a6.684,6.684,0,0,1,2.211-1.27,11.355,11.355,0,0,1,2.636-1.04A0.271,0.271,0,0,1,713.413,2745.02Zm2.66-5.15a1.126,1.126,0,0,1-.359.83,1.144,1.144,0,0,1-.83.36,1.093,1.093,0,0,1-.839-0.36,1.187,1.187,0,0,1-.349-0.83,1.17,1.17,0,0,1,.349-0.83,1.093,1.093,0,0,1,.839-0.36,1.144,1.144,0,0,1,.83.36A1.11,1.11,0,0,1,716.073,2739.87Zm9.424,6.45a1.56,1.56,0,0,1-1.836,1.7c-0.428,0-.64-0.09-0.64-0.3a2.69,2.69,0,0,0,.457-1.28,0.817,0.817,0,0,0-.928-0.94c-1.208,0-2.62,1.01-4.266,3.02s-2.463,3.63-2.463,4.87a0.574,0.574,0,0,0,.608.69,1.362,1.362,0,0,0,.844-0.26,1.114,1.114,0,0,1,.457-0.25l0.139,0.25a0.75,0.75,0,0,1-.559.63,2.667,2.667,0,0,1-.948.24h-4.139a0.438,0.438,0,1,1-.083-0.61,2.194,2.194,0,0,0,.8-0.21,4.043,4.043,0,0,0,1.184-1.45q1.155-2.235,3.674-6.57a9.93,9.93,0,0,1-1.577.47l-0.219-.29a4.136,4.136,0,0,1,1.832-.83,10.809,10.809,0,0,1,2.195-.5,0.613,0.613,0,0,1,.426.18c-0.213.34-.482,0.8-0.817,1.41l0.063,0.07a5.387,5.387,0,0,1,3.958-1.66C724.893,2744.7,725.5,2745.24,725.5,2746.32Zm15.974-10.24q-2.072,1.8-4.208,7a48.591,48.591,0,0,1-3.736,7.87,8.136,8.136,0,0,1-6.913,3.74,6.2,6.2,0,0,1-3.28-.9,3.541,3.541,0,0,1-1.91-2.71l0.191-.22a4.128,4.128,0,0,0,1.8,2.46,5.363,5.363,0,0,0,2.878.76c1.959,0,3.787-1.34,5.466-4.01q2.088-4.02,4.138-8.03c1.722-3.21,3.512-5.22,5.36-6.07Zm7.843,0.54a6.387,6.387,0,0,1-2.7,5.19,8.762,8.762,0,0,1-5.641,2.02h-0.755c0.239,1.88.492,3.73,0.755,5.58,0.5,2.99,1.144,4.48,1.9,4.48,0.671,0,1.263-.6,1.766-1.79l0.289,0.14a2.379,2.379,0,0,1-.917,1.65,2.594,2.594,0,0,1-1.746.8c-0.981,0-1.779-.76-2.377-2.25a22.329,22.329,0,0,1-1.079-4.7c-0.14-1.36-.3-2.73-0.471-4.09l0.225-.43h1.547c1.77,0.07,3.562-.85,5.35-2.76,1.8-1.93,2.71-3.8,2.71-5.64a0.871,0.871,0,0,0-1.011-.94,9.824,9.824,0,0,0-3.023.76,10.213,10.213,0,0,1-3.243.76,35.846,35.846,0,0,1-4-.33,34.9,34.9,0,0,0-3.984-.32,8.127,8.127,0,0,0-4.857,1.49,5.147,5.147,0,0,0-2.347,4.36,3.641,3.641,0,0,0,1.407,3.05l-0.108.18a1.97,1.97,0,0,1-1.438-1.41,5.281,5.281,0,0,1-.509-2.07c0-2.11,1.1-3.9,3.278-5.38a10.753,10.753,0,0,1,6.188-1.99,25.094,25.094,0,0,1,4.115.5,24.357,24.357,0,0,0,4.129.51,10.08,10.08,0,0,0,2.206-.36,10.044,10.044,0,0,1,2.216-.36,1.8,1.8,0,0,1,1.684,1.19A4.854,4.854,0,0,1,749.314,2736.62Zm7.662,9.09a4.381,4.381,0,0,1-2.413,3.71,8.608,8.608,0,0,1-4.672,1.34,6.24,6.24,0,0,1-1.364-.14,3.358,3.358,0,0,0,3.09,3.1,5.157,5.157,0,0,0,2.7-.74c0.415-.24.815-0.5,1.224-0.77l0.183,0.21c-0.051.65-.8,1.21-2.237,1.7a9.687,9.687,0,0,1-2.985.57,4.411,4.411,0,0,1-3.058-1.09,3.663,3.663,0,0,1-1.219-2.88q0-2.745,3.235-4.8a10.662,10.662,0,0,1,5.752-1.8A1.489,1.489,0,0,1,756.976,2745.71Zm-2.016.42c0-.69-0.515-1.03-1.546-1.03a4.8,4.8,0,0,0-3.285,1.61,4.59,4.59,0,0,0-1.678,3.25,3.87,3.87,0,0,1,.559.1,3,3,0,0,0,.628.08,5.257,5.257,0,0,0,3.443-1.16C754.339,2747.94,754.96,2747,754.96,2746.13Zm10.685,0.38a0.65,0.65,0,0,1-.76.71,1.149,1.149,0,0,1-1.074-1.06,1.2,1.2,0,0,0-1.186-1.06,1.084,1.084,0,0,0-1.294,1.15,7.542,7.542,0,0,0,1.332,2.38,6.12,6.12,0,0,1,1.332,3.1,2.477,2.477,0,0,1-1.176,2.16,4.4,4.4,0,0,1-2.569.8,5.639,5.639,0,0,1-2.49-.51,2.084,2.084,0,0,1-1.393-1.94c0-.65.239-0.98,0.715-0.98,0.623,0,.945.45,0.945,1.31a1.839,1.839,0,0,1-.1.46,1.292,1.292,0,0,0-.083.43c0,0.41.621,0.62,1.88,0.62,1.645,0,2.475-.72,2.475-2.14a5.219,5.219,0,0,0-1.118-2.5,5.157,5.157,0,0,1-1.125-2.57c0-1.58.881-2.39,2.627-2.39a3.955,3.955,0,0,1,1.948.54A1.75,1.75,0,0,1,765.645,2746.51Zm20.041-10.72-0.327.22-0.319-.23a2.185,2.185,0,0,0-.566-1.56,1.872,1.872,0,0,0-1.489-.63c-1.846,0-3.946,1.95-6.295,5.82-1.538,2.78-3.051,5.55-4.565,8.31l0.067,0.08c1.891-1.36,2.9-2.09,3.021-2.16a6.7,6.7,0,0,1,3.456-1.16,2.172,2.172,0,0,1,1.654.7,2.467,2.467,0,0,1,.647,1.71,7.786,7.786,0,0,1-1.547,3.63,10.2,10.2,0,0,0-1.545,2.84l0.534,0.64a1.5,1.5,0,0,0,1.162-.64l0.283,0.17a1.117,1.117,0,0,1-.859.87,3.225,3.225,0,0,1-1.3.29c-2.8,0-4.316-.15-4.529-0.44l0.365-.21c0.834,0.02,1.978-1.04,3.446-3.19q2.124-3.12,2.125-4.52a1.013,1.013,0,0,0-1.049-1.23q-2.229,0-5.352,3.08-3.143,3.09-3.136,5.29a0.526,0.526,0,0,0,.646.53,2.7,2.7,0,0,0,1.684-.96l0.151,0.2a1.316,1.316,0,0,1-.829,1.03,3.1,3.1,0,0,1-1.44.42c-3.114,0-4.8-.23-5.07-0.7l0.245-.27a1,1,0,0,0,.8.28c0.614,0,1.928-1.8,3.92-5.43a109.572,109.572,0,0,1,6.051-10.15c2.652-3.63,5.095-5.44,7.3-5.44a2.448,2.448,0,0,1,1.888.85A2.812,2.812,0,0,1,785.686,2735.79Zm26.111,3.86a16.706,16.706,0,0,1-3.381,9.88q-3.666,5.16-8.63,5.16a6.233,6.233,0,0,1-5.248-2.48,8.955,8.955,0,0,1-1.772-5.7,16.473,16.473,0,0,1,3.82-10.25,16.981,16.981,0,0,1,1.614-1.77,5.139,5.139,0,0,1,1.8-1.37l0.176,0.22a35.512,35.512,0,0,0-4.309,6.94,20.123,20.123,0,0,0-1.626,8.05,5.993,5.993,0,0,0,1.336,4.05,4.733,4.733,0,0,0,3.827,1.7q2.433,0,5.134-2.9a22.866,22.866,0,0,0,4.082-6.18,15.141,15.141,0,0,0,1.708-6.01,9.231,9.231,0,0,0-.728-4.23,3.766,3.766,0,0,0-3.645-1.89,6.577,6.577,0,0,0-4.326,1.49,9.858,9.858,0,0,0-2.167,2.83,9.781,9.781,0,0,1-.936,1.63l-0.151-.39c0-1.38.886-2.77,2.671-4.19a7.857,7.857,0,0,1,4.666-1.97,5.373,5.373,0,0,1,4.616,2.26A8.5,8.5,0,0,1,811.8,2739.65Zm9.2,5.14c0,0.91-.617,1.89-1.842,2.96-0.329.3-1.553,1.22-3.657,2.77a9.6,9.6,0,0,0-2.84,2.66l0.064,0.06a5.313,5.313,0,0,1,2.091-.48,6.614,6.614,0,0,1,1.276.18,6.46,6.46,0,0,0,1.269.18,4.523,4.523,0,0,0,2.368-.66l0.082,0.18a1.459,1.459,0,0,1-.9,1.01,3.127,3.127,0,0,1-1.393.53,16.77,16.77,0,0,1-1.9-.14,15.845,15.845,0,0,0-1.885-.16,4.281,4.281,0,0,0-1,.16,4.7,4.7,0,0,1-.975.14l-0.207-.14c0.014-.48.7-1.3,2.069-2.47q2.974-2.595,3.717-3.39a5.99,5.99,0,0,0,2.006-3.86,1.7,1.7,0,0,0-2.006-1.84,2.082,2.082,0,0,0-1.715.66,3.207,3.207,0,0,0-.452,1.44,4.146,4.146,0,0,1-.283,1.22c-0.295-.03-0.441-0.39-0.441-1.07a2.478,2.478,0,0,1,.976-2.1,3.729,3.729,0,0,1,2.3-.65,3.6,3.6,0,0,1,2.251.74A2.526,2.526,0,0,1,821,2744.79Zm-27.1,16.7a1.005,1.005,0,1,0,0,2.01A1.005,1.005,0,0,0,793.9,2761.49Zm-4.544-.21a1.205,1.205,0,1,0,1.205,1.21A1.2,1.2,0,0,0,789.356,2761.28Zm-13.582-.5a1.675,1.675,0,1,0,1.665,1.68A1.68,1.68,0,0,0,775.774,2760.78Zm9.059,0.34a1.34,1.34,0,1,0,1.339,1.34A1.337,1.337,0,0,0,784.833,2761.12Zm-4.536-.13a1.47,1.47,0,1,0,1.474,1.47A1.466,1.466,0,0,0,780.3,2760.99Zm18.081,0.63a0.834,0.834,0,0,0-.843.84,0.843,0.843,0,0,0,.843.85,0.852,0.852,0,0,0,.849-0.85A0.843,0.843,0,0,0,798.378,2761.62Zm-36.211-1.37a2.221,2.221,0,0,0-2.2,2.19,2.33,2.33,0,0,0-4.478-.84,7.175,7.175,0,0,1-6.954-1.68,2.521,2.521,0,0,0-2.377,1.68,2.334,2.334,0,0,0-4.485.84,2.19,2.19,0,1,0,0,.08,2.329,2.329,0,0,0,4.5.85,6.967,6.967,0,0,1,6.935,1.63,2.533,2.533,0,0,0,2.371-1.63,2.311,2.311,0,0,0,2.167,1.48,2.343,2.343,0,0,0,2.337-2.33A2.2,2.2,0,1,0,762.167,2760.25Zm9.064,0.35a1.875,1.875,0,1,0,1.872,1.88A1.869,1.869,0,0,0,771.231,2760.6Zm-4.524-.19a2.075,2.075,0,1,0,2.075,2.07A2.067,2.067,0,0,0,766.707,2760.41Zm-40.827.37a1.675,1.675,0,1,0,0,3.35A1.675,1.675,0,0,0,725.88,2760.78Zm-13.6.5a1.205,1.205,0,1,0,1.2,1.21A1.2,1.2,0,0,0,712.279,2761.28Zm18.135-.68a1.875,1.875,0,1,0,1.862,1.88A1.873,1.873,0,0,0,730.414,2760.6Zm-27.153,1.02a0.835,0.835,0,0,0-.839.84,0.843,0.843,0,0,0,.839.85A0.845,0.845,0,1,0,703.261,2761.62Zm13.547-.5a1.34,1.34,0,1,0,1.337,1.34A1.331,1.331,0,0,0,716.808,2761.12Zm4.534-.13a1.47,1.47,0,1,0,1.472,1.47A1.467,1.467,0,0,0,721.342,2760.99Zm-13.593.5a1.005,1.005,0,1,0,1,1A1.016,1.016,0,0,0,707.749,2761.49Zm27.195-1.08a2.075,2.075,0,1,0,2.069,2.07A2.069,2.069,0,0,0,734.944,2760.41ZM699.7,2761.7a0.85,0.85,0,1,0,.841.84A0.851,0.851,0,0,0,699.7,2761.7Zm-3.569,0a0.85,0.85,0,1,0,.847.84A0.848,0.848,0,0,0,696.126,2761.7Zm-3.561,0a0.85,0.85,0,1,0,.841.84A0.847,0.847,0,0,0,692.565,2761.7Zm-3.569,0a0.85,0.85,0,1,0,.841.84A0.844,0.844,0,0,0,689,2761.7Zm-3.561,0a0.85,0.85,0,1,0,.84.84A0.846,0.846,0,0,0,685.435,2761.7Zm130.9,0a0.85,0.85,0,1,0,.843.84A0.844,0.844,0,0,0,816.339,2761.7Zm-3.57,0a0.85,0.85,0,0,0,0,1.7A0.85,0.85,0,0,0,812.769,2761.7Zm-3.566,0a0.85,0.85,0,1,0,.848.84A0.851,0.851,0,0,0,809.2,2761.7Zm-3.569,0a0.85,0.85,0,1,0,.854.84A0.853,0.853,0,0,0,805.634,2761.7Zm-3.562,0a0.85,0.85,0,1,0,.84.84A0.846,0.846,0,0,0,802.072,2761.7Zm-7.373-33.77a3.916,3.916,0,1,1-3.92-3.93A3.924,3.924,0,0,1,794.7,2727.93Zm-7.474,0a3.559,3.559,0,1,0,3.554-3.58A3.563,3.563,0,0,0,787.225,2727.93Zm2.414,0.21v2.42H789.07v-5.28h1.921a1.453,1.453,0,0,1,1.545,1.39,1.623,1.623,0,0,1-.279.86,1.457,1.457,0,0,1-1,.46c1.236,0.2,1.236.71,1.284,2.04l0.02,0.53h-0.629v-0.55c0-1.24-.125-1.87-0.926-1.87h-1.372Zm0-.29h1.352a1.013,1.013,0,0,0,.927-1.2,0.928,0.928,0,0,0-.956-1.08h-1.323v2.28Z" transform="translate(-681 -2724)"/>
</svg>
