<svg xmlns="http://www.w3.org/2000/svg" xmlns:xlink="http://www.w3.org/1999/xlink" width="139.594" height="25" viewBox="0 0 139.594 25">
  <defs>
    <style>
      .cls-1 {
        fill-rule: evenodd;
        filter: url(#filter);
      }
    </style>
    <filter id="filter" x="684" y="2461" width="139.594" height="25" filterUnits="userSpaceOnUse">
      <feFlood result="flood" flood-color="#192b5f"/>
      <feComposite result="composite" operator="in" in2="SourceGraphic"/>
      <feBlend result="blend" in2="SourceGraphic"/>
    </filter>
  </defs>
  <path id="icon_coeur_esthetique.svg" class="cls-1" d="M686.165,2466.08a9.7,9.7,0,0,1,7.623-4.22c0.493,0,1.709.23,2.9,0.23,1.36,0,2.406-.23,2.869-0.23,0.809,0,1.159,1.19,1.159,1.87a2.8,2.8,0,0,1-2.432,2.77,1.686,1.686,0,0,1-1.776-.98c0-.12.034-0.18,0.121-0.18a2.084,2.084,0,0,0,1.25.66,1.615,1.615,0,0,0,1.331-1.76c0-1.22-.294-1.76-1.078-1.76-0.347,0-.929.12-1.393,0.12-0.546,0-2-.23-2.867-0.23-4.375,0-8.143,5.58-8.143,9.49,0,3.51,1.969,6.14,5.853,6.14a6.118,6.118,0,0,0,6.182-6.17c0-.45-0.209-1.19-0.209-1.64,0-.14.029-0.23,0.147-0.23,0.346,0,.984,1.39.984,2.41,0,3.74-3.794,6.14-7.479,6.14-4.03,0-7.215-2.52-7.215-6.57A9.713,9.713,0,0,1,686.165,2466.08Zm14.7,9.58c0-1.84,2.121-5.1,4.241-5.1a1.43,1.43,0,0,1,1.65,1.64c0,1.85-2.113,5.1-4.23,5.1A1.442,1.442,0,0,1,700.866,2475.66Zm-1.212-.69a2.782,2.782,0,0,0,2.957,2.84c2.2,0,5.363-1.42,5.363-4.93a2.775,2.775,0,0,0-2.953-2.83C702.815,2470.05,699.654,2471.74,699.654,2474.97Zm15.777-3.81a3.356,3.356,0,0,1-1.516,2.2,4.316,4.316,0,0,1-2.78.88,9.011,9.011,0,0,1-.955-0.14c0-1.73,2.343-3.71,4-3.71C714.753,2470.39,715.431,2470.47,715.431,2471.16Zm-7.048,3.56a3.156,3.156,0,0,0,3.447,3.09,5.044,5.044,0,0,0,2.521-.48c0.234-.12,1.686-0.88,1.686-1.28a0.146,0.146,0,0,0-.149-0.17,1.334,1.334,0,0,0-.609.37,4.476,4.476,0,0,1-2.545.77,2.623,2.623,0,0,1-2.5-2.39,5.139,5.139,0,0,0,1.186.12,6.473,6.473,0,0,0,3.712-1.05,4.618,4.618,0,0,0,1.912-2.89,1.25,1.25,0,0,0-1.414-1.21C712.874,2469.6,708.383,2471.66,708.383,2474.72Zm11.18,2.58c2,0,2.753-1.36,3.653-2.97,0.526-.94,1.073-2.01,1.654-3-0.2.02-.866,0.22-1.075,0.22a0.145,0.145,0,0,1-.142-0.17,13.047,13.047,0,0,1,3.023-1.22,0.181,0.181,0,0,1,.223.14,2.3,2.3,0,0,1-.2.43c-0.459,1.13-2.983,5.27-2.983,6.03a0.5,0.5,0,0,0,.636.54c0.145,0,.289-0.06.434-0.06a0.2,0.2,0,0,1,.232.18,0.807,0.807,0,0,1-.812.39c-0.9,0-1.219-.17-1.769-0.17-0.345,0-.527.17-0.784,0.17a0.126,0.126,0,0,1-.143-0.15,1.7,1.7,0,0,1,.286-0.59l-0.055-.05a4.036,4.036,0,0,1-2.549.79c-1.217,0-2.262-.6-2.262-1.9,0-1.64,1.45-3.14,2.171-4.56a13.133,13.133,0,0,1-1.425.39c-0.112,0-.137-0.02-0.137-0.22a22.272,22.272,0,0,1,3.484-1.36,0.231,0.231,0,0,1,.205.2c0,0.51-2.8,4.19-2.8,5.44A1.24,1.24,0,0,0,719.563,2477.3Zm10.009,0a2.671,2.671,0,0,0,1.047-.37c0.113,0,.113.06,0.113,0.2a1.236,1.236,0,0,1-1.222.68c-0.926,0-1.325-.11-1.761-0.11-0.468,0-.933.11-1.566,0.11-0.464,0-.645-0.06-0.645-0.23s0.21-.28.7-0.28a1.891,1.891,0,0,0,1.48-1.25c0.435-.77,1.507-2.92,2.96-5.12a11.288,11.288,0,0,1-1.281.36,0.216,0.216,0,0,1-.172-0.22c0-.26,2.634-1.02,3.25-1.02,0.2,0,.35.02,0.35,0.14a10.637,10.637,0,0,1-.665,1.08l0.058,0.06a5.172,5.172,0,0,1,3.184-1.28,1.241,1.241,0,0,1,1.479,1.24,1.3,1.3,0,0,1-1.479,1.34c-0.321,0-.531-0.04-0.531-0.23a3.737,3.737,0,0,0,.388-1.02,0.685,0.685,0,0,0-.753-0.71c-2.321,0-5.425,4.67-5.425,6.09C729.08,2477.1,729.138,2477.3,729.572,2477.3Zm19.669-13.36c0-.12.035-0.14,0.119-0.14a2.13,2.13,0,0,0,1.668.91,1.368,1.368,0,0,0,1.29-1.54c0-1.14-1.729-1.66-2.695-1.66-1.749,0-4.384.72-4.384,2.83,0,1.37,1.724,1.63,1.724,2.46,0,0.57-.962.54-1.957,0.91a5.442,5.442,0,0,0-3.919,4.85c0,3.29,2.222,4.72,5.44,4.72,3.508,0,7.274-2.52,7.274-6.14a4.388,4.388,0,0,0-.256-1.17,0.331,0.331,0,0,1,.29-0.29,2.562,2.562,0,0,1,.5,1.54c0,3.85-3.8,6.57-8.181,6.57-3.219,0-6.694-1.88-6.694-5.14,0-3.48,3.507-5.31,5.784-5.57,1.052-.11,1.2-0.17,1.2-0.43,0-.43-2.721-0.63-2.721-2.48,0-2.48,2.952-3.17,5.025-3.17,1.554,0,4.62.57,4.62,2.54a1.975,1.975,0,0,1-2.137,2.03A2.113,2.113,0,0,1,749.241,2463.94Zm11.124,8.14c-0.97,0-.97-1.42-1.17-1.48a2.113,2.113,0,0,0-.627-0.1,0.866,0.866,0,0,0-1.021.86,5.007,5.007,0,0,0,1.05,1.81,4.4,4.4,0,0,1,1.056,2.37c0,1.47-1.624,2.25-2.966,2.25a3.109,3.109,0,0,1-2.133-.47,2.1,2.1,0,0,1-.942-1.4,0.666,0.666,0,0,1,.568-0.75,0.929,0.929,0,0,1,.745,1.01c0,0.22-.116.43-0.116,0.63,0,0.42,1.107.48,1.479,0.48a1.673,1.673,0,0,0,1.938-1.62,3.821,3.821,0,0,0-.912-1.95,3.609,3.609,0,0,1-.851-1.92,1.816,1.816,0,0,1,2.076-1.81c0.8,0,2.425.56,2.425,1.53A0.507,0.507,0,0,1,760.365,2472.08Zm5.014-1.36a14.59,14.59,0,0,1-3.679,5.87c0.482,0.02.945,0.2,1.426,0.2,0.23,0,.535-0.09.65-0.09a0.144,0.144,0,0,1,.121.17,1.392,1.392,0,0,1-1.514.92c-0.514,0-.826-0.2-1.426-0.2a1.605,1.605,0,0,0-.658.2,0.112,0.112,0,0,1-.106-0.14,0.678,0.678,0,0,1,.2-0.33,43.293,43.293,0,0,0,3.424-6.55c0-.17-1-0.13-1-0.27a0.318,0.318,0,0,1,.286-0.28c1.481-.62,2.706-2.81,3.335-3.93,0.247-.44,1.533-2.09,1.882-2.09a0.13,0.13,0,0,1,.141.12,1.545,1.545,0,0,1-.347.41,32.833,32.833,0,0,0-2.533,5.49,2.684,2.684,0,0,1,1.338.17C766.913,2470.64,766.488,2470.69,765.379,2470.72Zm12.061,1.11c0,1.67-2.455,4.2-2.455,4.96a0.418,0.418,0,0,0,.431.5,1.512,1.512,0,0,0,.91-0.53c0.087,0,.23,0,0.23.14a1.7,1.7,0,0,1-1.709.89c-0.542,0-1.081-.11-1.622-0.11-0.461,0-.889.08-1.314,0.08-0.4,0-.652-0.05-0.652-0.31,0-.16.139-0.16,0.285-0.16a1.351,1.351,0,0,0,1.251-.53c1.426-1.59,3.158-4.59,3.158-5.35a0.758,0.758,0,0,0-.821-0.91c-2.879,0-6.726,4.67-6.726,6.37a0.41,0.41,0,0,0,.514.42c0.544,0,1.051-.78,1.34-0.78a0.145,0.145,0,0,1,.114.17,1.833,1.833,0,0,1-1.8,1.14c-0.626,0-1.027-.09-1.455-0.09-0.483,0-.938.06-1.563,0.06a0.9,0.9,0,0,1-1-.53,0.182,0.182,0,0,1,.2-0.22,1.192,1.192,0,0,0,.628.25c0.77,0,1.424-1.31,1.938-2.17,2.14-3.57,7.091-13.92,11.741-13.92a2.126,2.126,0,0,1,2.1,2.14,0.276,0.276,0,0,1-.509,0,1.559,1.559,0,0,0-1.627-1.64c-3.5,0-7.1,8.43-8.606,10.77l0.053,0.06c1.43-1.01,3.25-2.54,5.135-2.54A1.779,1.779,0,0,1,777.44,2471.83Zm7.258-.58a3.278,3.278,0,0,1-1.479,2.16,4.251,4.251,0,0,1-2.736.87,9.253,9.253,0,0,1-.943-0.14c0-1.7,2.306-3.64,3.936-3.64C784.045,2470.5,784.7,2470.58,784.7,2471.25Zm-6.923,3.51a3.1,3.1,0,0,0,3.389,3.03,4.99,4.99,0,0,0,2.482-.47c0.228-.12,1.654-0.87,1.654-1.26a0.136,0.136,0,0,0-.142-0.16,1.255,1.255,0,0,0-.6.36,4.455,4.455,0,0,1-2.507.75,2.574,2.574,0,0,1-2.453-2.34,5.03,5.03,0,0,0,1.172.11,6.34,6.34,0,0,0,3.648-1.03,4.506,4.506,0,0,0,1.878-2.84,1.228,1.228,0,0,0-1.393-1.19C782.191,2469.72,777.775,2471.75,777.775,2474.76Zm12.737-4.04a14.526,14.526,0,0,1-3.679,5.87c0.492,0.02.943,0.2,1.427,0.2,0.23,0,.543-0.09.654-0.09a0.142,0.142,0,0,1,.118.17,1.391,1.391,0,0,1-1.513.92c-0.509,0-.826-0.2-1.425-0.2a1.5,1.5,0,0,0-.651.2,0.115,0.115,0,0,1-.117-0.14,0.7,0.7,0,0,1,.2-0.33,43.712,43.712,0,0,0,3.422-6.55c0-.17-1-0.13-1-0.27a0.322,0.322,0,0,1,.282-0.28c1.479-.62,2.71-2.81,3.335-3.93,0.258-.44,1.54-2.09,1.878-2.09a0.133,0.133,0,0,1,.147.12,1.73,1.73,0,0,1-.343.41,32.05,32.05,0,0,0-2.538,5.49,2.687,2.687,0,0,1,1.339.17C792.05,2470.64,791.626,2470.69,790.512,2470.72Zm5.984-.31a0.661,0.661,0,0,1-.172.36c-1.969,3.45-3.222,5.41-3.222,5.82a0.661,0.661,0,0,0,.594.7c0.173,0,.318-0.14.486-0.14a0.181,0.181,0,0,1,.206.11c0,0.5-.86.53-1.257,0.53-0.488,0-.967-0.11-1.459-0.11-0.421,0-.877.11-1.332,0.11-0.512,0-.629.03-0.629-0.2a0.715,0.715,0,0,1,.767-0.3c0.8,0,2.2-3.46,3.593-5.57-0.483.05-1.167,0.33-1.511,0.33a0.127,0.127,0,0,1-.143-0.14,0.359,0.359,0,0,1,.257-0.3c0.629-.25,3.364-1.45,3.6-1.45A0.213,0.213,0,0,1,796.5,2470.41Zm2.111-3.95a0.944,0.944,0,1,1-.944-0.92A0.957,0.957,0,0,1,798.607,2466.46Zm-1.355,9.18c0-2.03,2.4-4.03,4.132-4.76a6.6,6.6,0,0,1,2.451-.38,5.251,5.251,0,0,1,.653.05,45.358,45.358,0,0,0-3.617,4.68,3.162,3.162,0,0,1-2.42,1.78A1.1,1.1,0,0,1,797.252,2475.64Zm9.464-5.59c-0.489,0-1.8-.06-2.938-0.06-3.874,0-8.126,2.4-8.126,5.96a1.875,1.875,0,0,0,1.824,1.78,4.228,4.228,0,0,0,2.057-.5h0.059a14.4,14.4,0,0,0-2.312,7.4c0,0.51.028,1.37,0.343,1.37,0.43,0,.43-0.64.513-1.2,0.684-4.53,5.073-10.8,8.661-14.64Zm1.71,7.24c1.965,0,2.713-1.34,3.587-2.93,0.515-.91,1.058-1.97,1.629-2.95-0.2.03-.853,0.23-1.055,0.23a0.143,0.143,0,0,1-.143-0.17,12.717,12.717,0,0,1,2.962-1.2c0.114,0,.229.03,0.229,0.14a2.619,2.619,0,0,1-.195.42c-0.457,1.11-2.939,5.18-2.939,5.93a0.5,0.5,0,0,0,.632.53c0.135,0,.282-0.06.427-0.06a0.2,0.2,0,0,1,.227.17,0.786,0.786,0,0,1-.794.39c-0.891,0-1.205-.17-1.745-0.17-0.344,0-.509.17-0.769,0.17a0.123,0.123,0,0,1-.145-0.14,1.59,1.59,0,0,1,.29-0.59l-0.056-.05a3.949,3.949,0,0,1-2.509.78c-1.2,0-2.223-.59-2.223-1.87,0-1.61,1.427-3.09,2.138-4.48a13.934,13.934,0,0,1-1.4.39c-0.114,0-.149-0.03-0.149-0.22a20.752,20.752,0,0,1,3.424-1.34,0.218,0.218,0,0,1,.2.2c0,0.5-2.734,4.12-2.734,5.35C807.319,2476.7,807.686,2477.29,808.426,2477.29Zm13.585-6.04a3.267,3.267,0,0,1-1.479,2.16,4.258,4.258,0,0,1-2.735.87,8.8,8.8,0,0,1-.94-0.14c0-1.7,2.307-3.64,3.929-3.64C821.354,2470.5,822.011,2470.58,822.011,2471.25Zm-6.924,3.51a3.1,3.1,0,0,0,3.386,3.03,4.98,4.98,0,0,0,2.483-.47c0.228-.12,1.656-0.87,1.656-1.26a0.139,0.139,0,0,0-.142-0.16,1.227,1.227,0,0,0-.6.36,4.446,4.446,0,0,1-2.507.75,2.574,2.574,0,0,1-2.451-2.34,4.962,4.962,0,0,0,1.167.11,6.313,6.313,0,0,0,3.644-1.03,4.5,4.5,0,0,0,1.884-2.84,1.235,1.235,0,0,0-1.4-1.19C819.505,2469.72,815.087,2471.75,815.087,2474.76Zm-12.769,6.96a2.632,2.632,0,1,0,2.638-2.57A2.606,2.606,0,0,0,802.318,2481.72Zm0.246,0a2.389,2.389,0,1,1,2.392,2.33A2.369,2.369,0,0,1,802.564,2481.72Zm1.876-1.12c0-.12.046-0.16,0.281-0.16a0.665,0.665,0,0,1,.78.61c0,0.63-.679.63-1.061,0.64v-1.09Zm2.054,2.52a0.5,0.5,0,0,1-.39-0.21l-0.93-1.12a0.811,0.811,0,0,0,.812-0.73,0.947,0.947,0,0,0-1.139-.78H803.6v0.08c0.315,0.03.384,0.08,0.384,0.4v1.91c0,0.33-.016.42-0.384,0.45v0.08h1.251v-0.08c-0.361-.02-0.409-0.11-0.409-0.4v-0.87l0.258-.01,1.075,1.36h0.721v-0.08Zm-61.785-.88a1.045,1.045,0,0,0-.5.46,8.712,8.712,0,0,1-3.046,2.46,5.866,5.866,0,0,1-1.394.51l-0.007-.05a11.806,11.806,0,0,0,4.224-3.59c-0.159.02-.807,0.11-0.835,0.11a1.9,1.9,0,0,1-.257.06,0.5,0.5,0,0,1-.25-0.11,7.381,7.381,0,0,1-2.182,1.44l-0.025-.04a9.453,9.453,0,0,0,2.262-2.3,0.544,0.544,0,0,0-.3-0.36,1.5,1.5,0,0,1,.389-0.06,0.778,0.778,0,0,1,.736.54,0.426,0.426,0,0,1-.246.22c-0.079.06-.137,0.11-0.307,0.26a4.661,4.661,0,0,0,1.109-.11,3.13,3.13,0,0,1,.407-0.21,0.727,0.727,0,0,1,.275.23c0.23,0.26.254,0.29,0.236,0.35C744.97,2482.14,744.943,2482.16,744.709,2482.24Zm5.64,1.17c-0.107,0-.264-0.01-0.289-0.01-0.364-.02-1.213-0.02-1.671-0.02a12.3,12.3,0,0,0-1.825.14,1.643,1.643,0,0,1-.242.05,0.709,0.709,0,0,1-.388-0.8,1.649,1.649,0,0,1,.248-0.41c0.076,0.49.185,0.51,0.9,0.51,0.4,0,2.634-.02,2.8-0.07a1.494,1.494,0,0,1,.272-0.07c0.256,0,.762.11,0.672,0.43A0.448,0.448,0,0,1,750.349,2483.41Zm3.669-1.17c-0.057.12-.375,0.88-0.452,1.05a4.19,4.19,0,0,1-2.268,2.15l-0.029-.03a5.858,5.858,0,0,0,2.1-3.15c0.107-.39.008-0.42-0.373-0.55a1.48,1.48,0,0,1,.551-0.17c0.2,0,.7.2,0.638,0.42C754.173,2482.01,754.036,2482.2,754.018,2482.24Zm1.2,2.32c-0.147.09-.78,0.49-0.906,0.58a0.477,0.477,0,0,1-.2.1,0.838,0.838,0,0,1-.294-0.7c0.018-.06.176-0.31,0.2-0.37,0.08-.17.34-1,0.464-1.45a7.026,7.026,0,0,0,.271-1.29,0.6,0.6,0,0,0-.412-0.25,1.1,1.1,0,0,1,.49-0.18c0.223,0,.786.23,0.721,0.46a3.764,3.764,0,0,1-.216.37c-0.131.27-.661,1.93-0.767,2.31-0.014.05-.014,0.1,0.031,0.1a9.911,9.911,0,0,0,2.833-1.87l0.035,0.04A7.261,7.261,0,0,1,755.219,2484.56Zm7.653,0.11c-0.078,0-.4-0.09-0.464-0.1a8.464,8.464,0,0,0-1.332-.09,11.443,11.443,0,0,0-2.359.24c-0.05.01-.466,0.15-0.5,0.15a0.687,0.687,0,0,1-.391-0.83,1.132,1.132,0,0,1,.147-0.3,0.566,0.566,0,0,0,.667.47c0.313,0,1.07-.06,1.532-0.1a13.5,13.5,0,0,0,.438-1.71,0.184,0.184,0,0,0-.12-0.24,4.958,4.958,0,0,0-.65.11,0.523,0.523,0,0,1-.144.02,0.6,0.6,0,0,1-.351-0.74,0.921,0.921,0,0,0,.679.21,11.6,11.6,0,0,0,2.058-.2,0.839,0.839,0,0,1,.3-0.08c0.149,0,.51.14,0.447,0.37a0.353,0.353,0,0,1-.359.22h-0.925a3.372,3.372,0,0,0-.348.01c0.194,0.16.214,0.18,0.192,0.25s-0.17.3-.192,0.36c-0.054.12-.1,0.26-0.187,0.51-0.1.29-.191,0.58-0.289,0.87,0.207-.01,1.122-0.05,1.305-0.06,0.085-.01.444-0.1,0.513-0.1a0.588,0.588,0,0,1,.582.57A0.26,0.26,0,0,1,762.872,2484.67Zm5.276,0.66a0.279,0.279,0,0,1-.259-0.24,3.675,3.675,0,0,0-.853-1.65,7.532,7.532,0,0,1-3.5,1.95l0-.05a11.757,11.757,0,0,0,4.367-3.74,10.156,10.156,0,0,0-1.648.41,1.478,1.478,0,0,1-.391.15,0.626,0.626,0,0,1-.324-0.76,0.935,0.935,0,0,1,.151-0.33,0.479,0.479,0,0,0,.482.42,10.132,10.132,0,0,0,1.893-.27c0.037-.03.2-0.15,0.236-0.17a0.147,0.147,0,0,1,.089-0.03,1.239,1.239,0,0,1,.5.58,0.254,0.254,0,0,1-.194.15,0.522,0.522,0,0,0-.275.19,13.528,13.528,0,0,1-1.281,1.39,3.107,3.107,0,0,1,1.288.92,0.72,0.72,0,0,1,.178.66A0.534,0.534,0,0,1,768.148,2485.33Zm6.729-2.55c-0.043,0-.63-0.06-0.7-0.07a3.2,3.2,0,0,0-.433-0.02c-0.121,0-.308,0-0.86.04,0.048,0.04.244,0.18,0.284,0.22a0.118,0.118,0,0,1,.03.1,0.356,0.356,0,0,1-.164.15,0.874,0.874,0,0,0-.172.24,5.081,5.081,0,0,1-2.758,2.29l-0.024-.03a6.7,6.7,0,0,0,2.259-2.65,0.234,0.234,0,0,0-.04-0.26,5.241,5.241,0,0,0-1.317.31,0.6,0.6,0,0,1-.244.06,0.657,0.657,0,0,1-.4-0.75,0.98,0.98,0,0,1,.141-0.29,0.505,0.505,0,0,0,.528.4h0.059c0.025,0,1.514-.16,1.574-0.16,0.506-.06,1.482-0.15,1.528-0.17a3.7,3.7,0,0,1,.411-0.1c0.2,0,.7.15,0.612,0.47A0.28,0.28,0,0,1,774.877,2482.78Zm-1.077-1.27c-0.451.02-.47,0.02-1.656,0.15a0.494,0.494,0,0,1-.135.02,0.453,0.453,0,0,1-.387-0.61,0.483,0.483,0,0,1,.063-0.15,0.757,0.757,0,0,0,.667.26,6.091,6.091,0,0,0,1.217-.15c0.028-.01.4-0.1,0.416-0.1,0.191,0,.536.1,0.472,0.32C774.392,2481.49,774.173,2481.5,773.8,2481.51Zm7,1.27c-0.045,0-.629-0.06-0.7-0.07a3.2,3.2,0,0,0-.432-0.02c-0.122,0-.307,0-0.861.04,0.047,0.04.245,0.18,0.285,0.22a0.115,0.115,0,0,1,.029.1,0.358,0.358,0,0,1-.162.15,0.863,0.863,0,0,0-.174.24,5.078,5.078,0,0,1-2.758,2.29l-0.024-.03a6.686,6.686,0,0,0,2.258-2.65,0.231,0.231,0,0,0-.038-0.26,5.184,5.184,0,0,0-1.316.31,0.608,0.608,0,0,1-.245.06,0.654,0.654,0,0,1-.405-0.75,0.957,0.957,0,0,1,.143-0.29,0.5,0.5,0,0,0,.527.4h0.057c0.026,0,1.516-.16,1.576-0.16,0.506-.06,1.48-0.15,1.529-0.17a3.515,3.515,0,0,1,.409-0.1c0.2,0,.7.15,0.611,0.47A0.278,0.278,0,0,1,780.8,2482.78Zm-1.079-1.27c-0.449.02-.47,0.02-1.653,0.15a0.518,0.518,0,0,1-.138.02,0.455,0.455,0,0,1-.387-0.61,0.525,0.525,0,0,1,.066-0.15,0.754,0.754,0,0,0,.666.26,6.1,6.1,0,0,0,1.218-.15c0.026-.01.4-0.1,0.413-0.1,0.191,0,.536.1,0.475,0.32C780.309,2481.49,780.091,2481.5,779.716,2481.51Zm5.247,0.66a1.49,1.49,0,0,0-.245.15c-0.646.52-.721,0.58-0.921,0.73,0.163,0.1.236,0.14,0.214,0.22a1.555,1.555,0,0,1-.1.19c-0.013.03-.119,0.32-0.175,0.53s-0.291,1.2-.346,1.4a0.428,0.428,0,0,1-.367.38c-0.2,0-.214-0.38-0.2-0.45,0.014-.05.112-0.27,0.129-0.31,0.133-.35.353-1.1,0.412-1.32a0.768,0.768,0,0,0,.051-0.36,7.215,7.215,0,0,1-2.059,1.04l0-.06a11.508,11.508,0,0,0,3.126-2.52c0.03-.11-0.03-0.17-0.178-0.3a0.653,0.653,0,0,1,.178-0.03,0.776,0.776,0,0,1,.694.56A0.294,0.294,0,0,1,784.963,2482.17Zm4.513,0.7c-0.058.07-.291,0.39-0.34,0.45a5.89,5.89,0,0,1-3.4,2.3l0.006-.05a6.9,6.9,0,0,0,2.319-1.7,8.1,8.1,0,0,0,1.019-1.35,0.373,0.373,0,0,0-.258-0.33,1.424,1.424,0,0,1,.324-0.05,0.671,0.671,0,0,1,.6.47A2.088,2.088,0,0,1,789.476,2482.87Zm-2.812.61c-0.185,0-.213-0.18-0.233-0.34a1.54,1.54,0,0,0-.266-0.7c0.769,0.1.914,0.45,0.84,0.72A0.4,0.4,0,0,1,786.664,2483.48Zm1.182-.32c-0.19,0-.2-0.11-0.22-0.35a1.547,1.547,0,0,0-.208-0.69c0.3,0.07.874,0.33,0.761,0.74A0.379,0.379,0,0,1,787.846,2483.16Zm6.859-.92a1.054,1.054,0,0,0-.5.46,8.706,8.706,0,0,1-3.047,2.46,5.839,5.839,0,0,1-1.393.51l-0.008-.05a11.78,11.78,0,0,0,4.224-3.59c-0.158.02-.806,0.11-0.834,0.11a1.913,1.913,0,0,1-.258.06,0.512,0.512,0,0,1-.25-0.11,7.368,7.368,0,0,1-2.18,1.44l-0.026-.04a9.522,9.522,0,0,0,2.263-2.3,0.55,0.55,0,0,0-.3-0.36,1.49,1.49,0,0,1,.388-0.06,0.78,0.78,0,0,1,.737.54,0.435,0.435,0,0,1-.247.22c-0.08.06-.137,0.11-0.307,0.26a4.661,4.661,0,0,0,1.109-.11,3.068,3.068,0,0,1,.407-0.21,0.727,0.727,0,0,1,.275.23c0.23,0.26.253,0.29,0.235,0.35C794.968,2482.14,794.939,2482.16,794.705,2482.24Z" transform="translate(-684 -2461)"/>
</svg>
