<svg xmlns="http://www.w3.org/2000/svg" xmlns:xlink="http://www.w3.org/1999/xlink" width="48" height="44" viewBox="0 0 48 44">
  <defs>
    <style>
      .cls-1 {
        fill: #fff;
        fill-rule: evenodd;
        filter: url(#filter);
      }
    </style>
    <filter id="filter" x="50" y="1796" width="48" height="44" filterUnits="userSpaceOnUse">
      <feFlood result="flood" flood-color="#898989"/>
      <feComposite result="composite" operator="in" in2="SourceGraphic"/>
      <feBlend result="blend" in2="SourceGraphic"/>
    </filter>
  </defs>
  <path id="icon_project.svg" class="cls-1" d="M62.271,1806.58c0-.8,0-1.49,0-2.19a1.976,1.976,0,0,1,.938-1.77,0.821,0.821,0,0,0,.434-0.82c-0.017-1.69-.007-3.39-0.007-5.08v-0.73h29.2v0.67c0,1.74-.015,3.48.016,5.21a1,1,0,0,0,.375.69,2.274,2.274,0,0,1,.988,1.89c0.006,0.68,0,1.36,0,2.1,0.284,0.01.527,0.03,0.771,0.03a2.864,2.864,0,0,1,3,3c0.02,1.19,0,2.37,0,3.56q0,11.7,0,23.39a8.246,8.246,0,0,1-.038.95,2.8,2.8,0,0,1-2.689,2.5c-0.466.02-.933,0.01-1.4,0.01H53.215a2.875,2.875,0,0,1-3.209-3.17q-0.006-13.5,0-27.01a2.9,2.9,0,0,1,3.22-3.23h9.046Zm29.415-9.55H64.811v15.23H91.686v-15.23Zm-38.817,26.26q0,5.28,0,10.55a2.106,2.106,0,0,0,2.329,2.38c0.741,0.01,1.483,0,2.224,0,1.788,0,2.556-.76,2.556-2.54,0-5.75,0-11.48,0-17.22,0-1.3.014-2.59,0-3.88a2.112,2.112,0,0,0-2.241-2.23H55.318a2.156,2.156,0,0,0-2.449,2.46C52.867,1816.3,52.868,1819.8,52.869,1823.29Zm29.982,5.46a5.818,5.818,0,1,0,5.846-5.79A5.827,5.827,0,0,0,82.851,1828.75Zm5.775-8.23c1.46,0,2.921.01,4.381,0a0.915,0.915,0,0,0,1.09-.65c0.245-1.19-.119-1.62-1.335-1.63H85.714a12.81,12.81,0,0,0-1.642.04,1.135,1.135,0,1,0,.363,2.24C85.832,1820.53,87.229,1820.52,88.626,1820.52Zm-16.548,1.02h0.572a1.663,1.663,0,0,0,1.738-1.71,1.771,1.771,0,0,0-1.782-1.62c-0.423,0-.847.01-1.269,0.04a1.6,1.6,0,0,0-1.52,1.7,1.575,1.575,0,0,0,1.625,1.59h0.636Zm-6.172,0h0.572a1.573,1.573,0,0,0,1.673-1.66,1.626,1.626,0,0,0-1.677-1.67c-0.424-.01-0.847-0.02-1.27,0a1.725,1.725,0,0,0-1.622,1.64,1.668,1.668,0,0,0,1.626,1.69C65.44,1821.55,65.673,1821.54,65.907,1821.54Zm6.126,9.26h0.7a1.6,1.6,0,0,0,1.614-1.67,1.577,1.577,0,0,0-1.648-1.62q-0.633-.015-1.267,0a1.6,1.6,0,0,0-1.544,2.09C70.134,1830.51,70.646,1830.8,72.033,1830.8Zm-6.177,0h0.7a1.581,1.581,0,0,0,1.6-1.68,1.558,1.558,0,0,0-1.6-1.61q-0.666-.015-1.334,0a1.506,1.506,0,0,0-1.583,1.66,1.573,1.573,0,0,0,1.582,1.63h0.635Zm12.379-9.26c0.254,0,.507.01,0.761,0a1.65,1.65,0,0,0,.114-3.28,12.84,12.84,0,0,0-1.519-.05,1.628,1.628,0,0,0-1.576,1.72,1.551,1.551,0,0,0,1.586,1.61C77.812,1821.55,78.023,1821.54,78.235,1821.54Zm-6.2,13.87h0.7a1.569,1.569,0,0,0,1.607-1.59,1.587,1.587,0,0,0-1.53-1.69c-0.463-.02-0.93-0.02-1.393,0a1.6,1.6,0,0,0-1.608,1.67,1.579,1.579,0,0,0,1.656,1.61h0.57Zm6.226-7.9c-0.232,0-.465-0.01-0.7,0a1.643,1.643,0,0,0-.006,3.28c0.443,0.02.887,0.01,1.33,0.01a1.569,1.569,0,0,0,1.621-1.65,1.552,1.552,0,0,0-1.615-1.64C78.688,1827.5,78.476,1827.5,78.266,1827.51Zm-12.356,7.9h0.636a1.553,1.553,0,0,0,1.606-1.6,1.572,1.572,0,0,0-1.539-1.68q-0.7-.03-1.4,0a1.571,1.571,0,0,0-1.571,1.71,1.542,1.542,0,0,0,1.63,1.57H65.91Zm12.324,0h0.7a1.533,1.533,0,0,0,1.579-1.56,1.549,1.549,0,0,0-1.49-1.71,11.088,11.088,0,0,0-1.525,0,1.548,1.548,0,0,0-1.483,1.72,1.527,1.527,0,0,0,1.582,1.55h0.636Zm-12.309-12.52c-0.253,0-.508-0.01-0.76,0a1.639,1.639,0,0,0,.011,3.27c0.463,0.02.928,0.02,1.39,0.01a1.571,1.571,0,0,0,1.586-1.68,1.549,1.549,0,0,0-1.594-1.6C66.347,1822.88,66.135,1822.89,65.924,1822.89Zm12.341,3.28H78.9a1.646,1.646,0,0,0,.061-3.29,12.854,12.854,0,0,0-1.388.01,1.533,1.533,0,0,0-1.558,1.63,1.561,1.561,0,0,0,1.555,1.65h0.7Zm-6.219,0v-0.01c0.274,0,.55.02,0.823,0a1.583,1.583,0,0,0,1.475-1.67,1.564,1.564,0,0,0-1.474-1.6c-0.505-.02-1.013-0.02-1.519,0a1.638,1.638,0,0,0,0,3.27C71.582,1826.18,71.814,1826.17,72.047,1826.17Zm21.2,2.59a4.592,4.592,0,1,1-4.648-4.57A4.576,4.576,0,0,1,93.251,1828.76Z" transform="translate(-50 -1796)"/>
</svg>
