<svg xmlns="http://www.w3.org/2000/svg" width="120" height="124" viewBox="0 0 120 124">
  <metadata><?xpacket begin="﻿" id="W5M0MpCehiHzreSzNTczkc9d"?>
<x:xmpmeta xmlns:x="adobe:ns:meta/" x:xmptk="Adobe XMP Core 5.6-c140 79.160451, 2017/05/06-01:08:21        ">
   <rdf:RDF xmlns:rdf="http://www.w3.org/1999/02/22-rdf-syntax-ns#">
      <rdf:Description rdf:about=""/>
   </rdf:RDF>
</x:xmpmeta>
                                                                                                    
                                                                                                    
                                                                                                    
                                                                                                    
                                                                                                    
                                                                                                    
                                                                                                    
                                                                                                    
                                                                                                    
                                                                                                    
                                                                                                    
                                                                                                    
                                                                                                    
                                                                                                    
                                                                                                    
                                                                                                    
                                                                                                    
                                                                                                    
                                                                                                    
                                                                                                    
                           
<?xpacket end="w"?></metadata>
<defs>
    <style>
      .cls-1 {
        fill: #b5b5b6;
        fill-rule: evenodd;
      }
    </style>
  </defs>
  <path id="img_qr003.svg" class="cls-1" d="M650,1653l-2.184,1.22L590,1686.49V1777H710v-90.51Zm51.044,115.06H665.226v0.03H634.777v-0.03H598.956v-76.33L650,1663.24l51.044,28.49v76.33ZM642.824,1674v10.89H631.9V1697h10.92v10.89h12.125V1697H665.87v-12.11H654.949V1674H642.824Zm33.6,70.14H691.64v18.11H676.421v-18.11Zm-67.466,0h15.22v18.11h-15.22v-18.11Zm33.732,0h15.218v18.11H642.687v-18.11Zm-18.249-9.81a12.581,12.581,0,0,1-5.625,1.26c-6.323,0-9.375-4.38-9.375-9.08,0-5.57,4.142-9.11,9.355-9.11a10.367,10.367,0,0,1,5.645,1.67l-1.2,3.35a6.363,6.363,0,0,0-4.426-1.65,5.4,5.4,0,0,0-5.691,5.72c0,3.05,1.875,5.72,5.931,5.72a9.364,9.364,0,0,0,5.385-1.78v3.9Zm7.026-16.59v14.13h5.995v3.37h-9.681v-17.5h3.686Zm13.084,0v17.5h-3.706v-17.5h3.706Zm8.135,0,7.675,11.91v-11.91h3.684v17.5h-4.077l-7.674-11.9v11.9h-3.686v-17.5h4.078Zm19.126,0v17.5H668.1v-17.5h3.707Zm18.556,16.59a12.584,12.584,0,0,1-5.625,1.26c-6.322,0-9.376-4.38-9.376-9.08,0-5.57,4.143-9.11,9.354-9.11a10.366,10.366,0,0,1,5.647,1.67l-1.2,3.35a6.366,6.366,0,0,0-4.426-1.65,5.4,5.4,0,0,0-5.691,5.72c0,3.05,1.875,5.72,5.93,5.72a9.371,9.371,0,0,0,5.386-1.78v3.9Z" transform="translate(-590 -1653)"/>
</svg>
