<svg xmlns="http://www.w3.org/2000/svg" xmlns:xlink="http://www.w3.org/1999/xlink" viewBox="0 0 292.76 121.16"><defs><style>.cls-1{isolation:isolate;}.cls-2{fill:url(#radial-gradient);}.cls-3{fill:#fff;}.cls-4{fill:#1f2a66;}.cls-5{fill:#1b2b60;}.cls-6{mix-blend-mode:multiply;}.cls-7{fill:#231815;}.cls-8{fill:url(#linear-gradient);}</style><radialGradient id="radial-gradient" cx="-324.51" cy="5181.35" r="87.61" gradientTransform="translate(119.56 -1440.65) scale(0.28)" gradientUnits="userSpaceOnUse"><stop offset="0.09" stop-color="#0062b1"/><stop offset="1" stop-color="#1f2a66"/></radialGradient><linearGradient id="linear-gradient" x1="102.69" y1="164.84" x2="163.32" y2="34.81" gradientUnits="userSpaceOnUse"><stop offset="0.11" stop-color="#b79a4b"/><stop offset="0.14" stop-color="#c0a553"/><stop offset="0.25" stop-color="#d9c66c"/><stop offset="0.36" stop-color="#ebdd7d"/><stop offset="0.46" stop-color="#f6eb87"/><stop offset="0.55" stop-color="#faf08b"/><stop offset="0.62" stop-color="#f7ec88"/><stop offset="0.7" stop-color="#ecde7d"/><stop offset="0.79" stop-color="#dbc86d"/><stop offset="0.88" stop-color="#c4aa55"/><stop offset="0.94" stop-color="#af8f41"/></linearGradient></defs><title>img_fc002.svg</title><g class="cls-1"><g id="レイヤー_2" data-name="レイヤー 2"><g id="レイヤー_2-2" data-name="レイヤー 2"><rect class="cls-2" x="2.24" y="3.36" width="50.1" height="49.24"/><path class="cls-3" d="M50.1,4.46c0,.23-.22,0-.3.13-.43.52-.59,1.16-1.17,1.58-.64.18-1.48.11-1.66.94-.08.16.05.31.08.46.24-.22.12-.69.52-.82s.39.73.68.15a.4.4,0,0,1,.36.24.43.43,0,0,1-.24.54c-.27.19-.76-.09-1,.23a1.06,1.06,0,0,0,1.06,0c.86-.52.19-1.81,1.27-2.16.33,0,.71,0,.86-.33,0-.1.06-.2.15-.13a2.23,2.23,0,0,1,0,2,2.79,2.79,0,0,1-1.07,1.14,3.71,3.71,0,0,1-2,.1c.82,1,2.49-.36,3.24.86.31.54-.09,1.54.64,1.73v.06a4.06,4.06,0,0,1-3.88-1.55c-.35-.33-.38-.77-.71-1.1a5.75,5.75,0,0,1-1.58.29,5.84,5.84,0,0,1,2.31,5.12c.18.19.39,0,.57,0,.63-.55,1.21-1.54,2.13-1,.31.19.6.62,1,.42.11.22-.17.42-.26.59-.63.83-1.8.78-2.67.75a2.28,2.28,0,0,1,.39,2.2,2.11,2.11,0,0,0,.31,1.61c.56.54,1.62,0,2,.78.39.42.16,1,.11,1.5,0,.19.29.22.28.39-.62.14-1.21.79-1.95.54a1.51,1.51,0,0,1-1-1.06,2.34,2.34,0,0,1,.16-1.06,2.16,2.16,0,0,0,.67.6c.07,0,.18.09.23.05a3.57,3.57,0,0,1-1.19-2.64,24.54,24.54,0,0,1-.62,3.79,2.82,2.82,0,0,0,1,2.43,3.37,3.37,0,0,0,2,.8c-.23.15-.61.12-.88.24A2.62,2.62,0,0,1,51,27.49s-.09,0-.14,0c0-2.55-3.57-3-3.55-5.57,0-1.47.73-2.72.83-4.09-.44.21-.86.5-1.29.75.35-.59-.26-1.37.13-2.05.4-.52,1.35-1,.93-1.74-.05-.06-.13-.2-.24-.18,0,.26.33.55.06.81s-.48-.32-.68.1a.3.3,0,0,1-.36-.21c-.19-.48.65-.49.33-.93-.34-.1-.57.23-.75.47-.49.77.73,1.29.16,2-.36.28-.88.46-1,.94-.11.19.13.54-.1.57a7.92,7.92,0,0,0-.49-1.12,2.22,2.22,0,0,1-2.1.68c-1-.13-1.21-1.34-2-1.76-.07,0-.17,0-.21-.06a2.4,2.4,0,0,1,2.07-.57A2.28,2.28,0,0,1,44,17c-.13.09-.28-.06-.42-.09-.38,0-.68-.2-1.08-.13a1.63,1.63,0,0,0,1.57.42.94.94,0,0,0,.55-.42A2.08,2.08,0,0,1,44.84,15a2.49,2.49,0,0,1,2-1c.06-.12-.12-.16-.22-.13-1,.17-2,.7-3,.27-.64-.53-1.28-1.41-2.23-1.14-.06,0,0-.08,0-.13A4.4,4.4,0,0,1,46,12.65a7.59,7.59,0,0,1,1.11.85,4.85,4.85,0,0,0-2.59-4.65,5,5,0,0,0-2.92-.55c.1.35.53.64.6,1-.69.07-1.48.59-2.13,0a1.71,1.71,0,0,0-1.82-.48c0,.09-.62.42-.15.26a.52.52,0,0,1,.52-.1c.34.1,0,.45.21.59.13,0,.36-.06.4.14a.33.33,0,0,1-.17.44c-.49.2-.7-.44-1.17-.39a.49.49,0,0,0,.13.49,1,1,0,0,0,.72.19c.68-.13,1.14-.93,1.92-.62a1.54,1.54,0,0,0,.94.33c.2,0,.35-.19.54-.15a2.3,2.3,0,0,1-1.24,1.55,2.33,2.33,0,0,1-2.2-.16,2.71,2.71,0,0,1-1-1.17c-.11,0-.15.08-.16.13.21,1,1.64,1.17,1.65,2.29,0,.65-.34,1.44.19,2,.12.2.52.24.39.47A3.54,3.54,0,0,1,37.39,13a5.41,5.41,0,0,1,0-3.21A7.26,7.26,0,0,1,35.6,7.66c0-.08-.1,0-.13-.09a4.25,4.25,0,0,1-3.82,0c-.89-.68-1.17-1.73-2.14-2.29a4,4,0,0,0-1.9-.7V4.49a2.76,2.76,0,0,1,2.75.73c.16-.21.11-.6.23-.89,0,0,0,0,.05-.07h.08A3,3,0,0,0,32.1,6.92,3.45,3.45,0,0,0,35.36,7c0-.92.2-2-.57-2.71,0,0,0-.06,0-.07A9.05,9.05,0,0,1,36.9,5.91a3.67,3.67,0,0,1,3.57-1.5A3.56,3.56,0,0,1,43.1,6.62a2.05,2.05,0,0,1,.16.91s-.06,0-.1,0A4.06,4.06,0,0,0,41,5.29a3.58,3.58,0,0,0-3.84.91A5.42,5.42,0,0,1,37.62,9c.17-.12.21-.4.36-.57a2.34,2.34,0,0,1,2.3-.89,2.23,2.23,0,0,1,.73.29,9.81,9.81,0,0,1,4.22.49c.49,0,1.13,0,1.43-.41-.45-.36-1.12-.26-1.63-.5-1.29-.34-1.32-1.86-2.3-2.59-.29-.12-.53-.32-.81-.44,0-.11.13-.14.23-.12A3.43,3.43,0,0,1,45.7,5.84a11.94,11.94,0,0,0,.7,1.32l.06,0A2.63,2.63,0,0,1,47,4.8a2.48,2.48,0,0,1,2.29-.73A3.06,3.06,0,0,1,50.1,4.46Z"/><path class="cls-3" d="M8,5.5a3.91,3.91,0,0,1,.18,1.77A10.09,10.09,0,0,1,9.72,5a3.89,3.89,0,0,1,3-.57c-.27.27-.73.34-1,.68-.72,1-1.19,2.42-2.6,2.56A2.6,2.6,0,0,0,8,8c.23.41.77.43,1.24.44,1.18-.05,2.16-.69,3.37-.6.55-.09,1.15.33,1.61-.16a2.49,2.49,0,0,1,2.08.45,3,3,0,0,1,.72,1c.07,0,0-.07.07-.09a4.65,4.65,0,0,1,.45-2.7A3.2,3.2,0,0,0,15,5.17a3.66,3.66,0,0,0-3.29,2,.85.85,0,0,1-.26.45c-.15-.54.21-1,.38-1.52a3.57,3.57,0,0,1,3.25-1.68A4,4,0,0,1,17.76,6a9,9,0,0,1,2.1-1.66l0,0c-.72.67-.65,1.77-.61,2.72,1.14.48,2.78.59,3.69-.42a3.12,3.12,0,0,0,1-2.36c.18,0,.14.24.23.37a2.17,2.17,0,0,0,.1.62A2.84,2.84,0,0,1,27,4.59v.09a4.91,4.91,0,0,0-3.58,2.56c-1.11,1.35-3,.82-4.35.46a7.48,7.48,0,0,1-1.9,2.19c.39,1.31.48,3-.46,4.13a4.14,4.14,0,0,1-1.89,1.23c-.2-.12,0-.19.1-.26.74-.48.57-1.44.45-2.18,0-1.14,1.44-1.24,1.66-2.28-.05,0,0-.11-.09-.12h-.07a2.49,2.49,0,0,1-1.69,1.46A2.28,2.28,0,0,1,13,11.16a2.53,2.53,0,0,1-.49-1,1.26,1.26,0,0,0,1,.09A1.31,1.31,0,0,1,14.76,10c.54.27,1.18.89,1.83.43.09-.14.23-.27.22-.46-.32-.14-.58.14-.84.3-.14,0-.3.12-.43,0a.36.36,0,0,1-.16-.39c.09-.32.42,0,.52-.26s-.09-.33,0-.43a.49.49,0,0,1,.52,0,.36.36,0,0,0,.23.13,1,1,0,0,0-.88-.44c-1-.09-1.39,1.25-2.47.8a1.73,1.73,0,0,0-.9-.23c.12-.37.48-.69.61-1a4.9,4.9,0,0,0-4.76,2.2,5.1,5.1,0,0,0-.77,3,4.52,4.52,0,0,1,3.58-1.46l.55.08a3.64,3.64,0,0,1,1.65.83v0c-1.17-.38-1.69,1.08-2.67,1.31S8.89,14,7.86,14c0,0-.08.08,0,.13A2.2,2.2,0,0,1,10,15.43a1.79,1.79,0,0,1,.09,1.4,1.31,1.31,0,0,0,1.47.43,2.81,2.81,0,0,0,.64-.39s0,0,0,0c-.53,0-1,.18-1.48.23a2.19,2.19,0,0,1,1.78-1.43,2.92,2.92,0,0,1,1.74.55c0,.21-.33.12-.41.23-.68.53-1,1.67-2,1.69a2.17,2.17,0,0,1-1.88-.71,4.81,4.81,0,0,0-.49,1.09c-.28,0,0-.35-.13-.54-.19-.74-1.48-.71-1.14-1.63a1.28,1.28,0,0,0,.23-1.4c-.19-.23-.4-.48-.73-.41-.32.43.6.47.32,1-.06.08-.09.15-.19.15-.26.08-.35-.28-.59-.05-.18,0-.26-.06-.32-.2s.17-.44.13-.66c-.17,0-.19.21-.27.32-.35.94,1,1.1,1.08,1.83s-.38,1.26.08,1.8a13,13,0,0,1-1.28-.73c-.2,0,0,.27,0,.42.36,1.76,1.61,4.1-.09,5.64-1.17.95-2.55,2.06-2.69,3.62H3.72a2.63,2.63,0,0,1,.9-2.81,2.86,2.86,0,0,1-.9-.2,3.39,3.39,0,0,0,2.72-1.78c.79-1.71-.39-3.41-.29-5.2,0,0,0,0-.06-.05a3.41,3.41,0,0,1-1.18,2.65c.51.24.93-1.38,1-.25a1.43,1.43,0,0,1-.16,1.1,1.55,1.55,0,0,1-1.65.59A8.52,8.52,0,0,0,3,21.14c0-.11.25-.24.29-.38a1.93,1.93,0,0,1,.13-1.55c.49-.83,1.79,0,2.16-1a1.83,1.83,0,0,0,0-1.73,2.34,2.34,0,0,1,.49-1.79s0,0,0,0a2.66,2.66,0,0,1-2.85-1c-.09-.07-.06-.17-.09-.26.16,0,.43.1.6-.08a2.06,2.06,0,0,1,1-.53c1,0,1.26,1.34,2.17,1.3.1-.37,0-.82.07-1.21a6.17,6.17,0,0,1,2.27-4,5.6,5.6,0,0,1-1.55-.28c-.32.24-.36.68-.62,1a4.31,4.31,0,0,1-4,1.65c0-.19.2,0,.26-.16.37-.45.11-1.17.42-1.66.72-1.16,2.37.15,3.21-.82l-.06-.06a2.8,2.8,0,0,1-2.18-.2,2.57,2.57,0,0,1-1-2.62c.12-.1,0-.43.28-.34.12.85,1.22.14,1.42.93.41.63.16,1.93,1.3,1.87.17-.05.38,0,.5-.15C6.9,7.73,6.22,8,6,7.5A.49.49,0,0,1,6.34,7c.1.06.21.08.27.2.17-.07.16-.33.37-.33.47,0,.42.55.6.83a.83.83,0,0,0-.08-.89c-.36-.5-1.06-.33-1.48-.51-.66-.4-.63-1.23-1.27-1.63-.07,0-.24,0-.21-.08A2.33,2.33,0,0,1,7,4.41,2.43,2.43,0,0,1,8,5.5Z"/><path class="cls-3" d="M3.74,28.39c.12,1.85,2,2.8,3.13,4.15,1.12,1.8-.29,3.7-.4,5.52.44-.22.88-.51,1.31-.75-.42.72.43,1.77-.41,2.37-.43.31-.87.7-.73,1.27.1.12.1.32.29.32,0-.29-.32-.73.1-.85.21,0,.37.21.52-.06.16,0,.33,0,.36.18.24.51-.65.51-.33,1,.36.08.59-.25.77-.49.48-.75-.66-1.23-.23-2,.36-.31,1-.52,1.11-1.06.07-.18-.16-.54.1-.5a5.39,5.39,0,0,0,.48,1.1c.21-.1.44-.38.69-.47A2,2,0,0,1,12.24,38c.89.33,1,1.57,1.92,1.71a2.45,2.45,0,0,1-2.34.49c-.62-.15-.92-.82-1.21-1.3.16-.13.29.13.49.08s.62.21,1,.13a1.6,1.6,0,0,0-1.68-.36.92.92,0,0,0-.45.42A1.9,1.9,0,0,1,9.68,41a2.25,2.25,0,0,1-1.9.91c-.1,0,0,.14.06.16,1.12-.06,2-.75,3.11-.31.64.54,1.28,1.46,2.26,1.17,0,0,0,.09,0,.13a4.23,4.23,0,0,1-3.89.56,5.13,5.13,0,0,1-1.87-1.19,4.91,4.91,0,0,0,2.4,4.56,4.75,4.75,0,0,0,3.14.62v-.07a2.49,2.49,0,0,1-.62-.94c.71-.07,1.54-.62,2.2,0a1.6,1.6,0,0,0,1.76.42c0-.12.6-.42.13-.26a.48.48,0,0,1-.49.1c-.34-.11.09-.89-.52-.59a.33.33,0,0,1-.1-.45.48.48,0,0,1,.58-.1c.23.19.49.45.79.31a.7.7,0,0,0-.33-.54c-1-.46-1.5.91-2.49.54a1.51,1.51,0,0,0-1-.31,2.61,2.61,0,0,1-.43.13,2.36,2.36,0,0,1,1.08-1.48,2.34,2.34,0,0,1,2.43.13c.51.23.6.75.91,1.12.29-.08,0-.34,0-.52-.59-.76-1.84-1.24-1.5-2.41a1.78,1.78,0,0,0-.13-1.35c-.12-.27-.46-.25-.52-.52l0,0A3.73,3.73,0,0,1,17.24,43a5.39,5.39,0,0,1-.1,3.08A7.71,7.71,0,0,1,19,48.24c0,.07.09,0,.13.08,1.21-.43,3-.81,4.06.24,1,1.29,2.1,2.66,3.79,2.76v.09a2.75,2.75,0,0,1-2.75-.74c-.12.27-.08.65-.23.91a.12.12,0,0,1-.13.05A3.06,3.06,0,0,0,22.51,49a3.3,3.3,0,0,0-3.33-.06,3.5,3.5,0,0,0,.62,2.66,3.38,3.38,0,0,1-1.42-.92c-.26-.22-.45-.44-.69-.68a3.78,3.78,0,0,1-3.06,1.56,3.52,3.52,0,0,1-3-2c-.12-.35-.39-.71-.25-1.16a4.17,4.17,0,0,1,.54.86A3.61,3.61,0,0,0,15,50.83a3.53,3.53,0,0,0,2.47-1.08c0-.36-.28-.66-.36-1A17.6,17.6,0,0,1,17,46.84a2.54,2.54,0,0,1-1.83,1.5A2.3,2.3,0,0,1,13.6,48c-1.78.54-3.3-.7-5.09-.45-.22.09-.49.13-.6.36.46.36,1.13.26,1.67.51,1.29.38,1.26,1.87,2.27,2.59.28.11.52.31.81.43,0,.12-.13.14-.23.13A3.42,3.42,0,0,1,8.87,50a9.57,9.57,0,0,0-.7-1.29l-.05,0a2.58,2.58,0,0,1-1,2.7,2.4,2.4,0,0,1-2.54.09c0-.06-.2-.06-.16-.19.87-.1.7-1.25,1.49-1.63.69-.2,1.63-.11,1.68-1.09-.07-.07,0-.51-.21-.2a.81.81,0,0,1-.42.72c-.37.15-.41-.74-.66-.17-.15,0-.28-.08-.38-.23a.42.42,0,0,1,.26-.54c.28-.19.75.08.94-.23a1.12,1.12,0,0,0-1.08,0c-.72.59-.23,1.8-1.23,2.16-.34,0-.71,0-.87.36,0,.07-.08.19-.16.1a2.6,2.6,0,0,1,0-1.94,2.31,2.31,0,0,1,2.26-1.33c.32-.09.58.18.81.09-.05-.21-.31-.22-.45-.32-1-.33-2.48.55-2.85-.75-.2-.55,0-1.35-.59-1.55a0,0,0,0,1,0-.06,4.23,4.23,0,0,1,3.89,1.58c.26.35.42.75.71,1.1a5,5,0,0,1,1.55-.29A6.05,6.05,0,0,1,6.83,42C6,41.76,5.7,43.06,4.91,43.18c-.77.34-1.12-.82-1.8-.49-.1-.16.09-.33.13-.49A3,3,0,0,1,6,41.32a2.19,2.19,0,0,1-.29-2.41,1.89,1.89,0,0,0-.67-1.58c-.62-.12-1.44,0-1.79-.63-.3-.45-.09-1-.07-1.49,0-.16-.25-.21-.29-.33.65-.12,1.14-.86,1.94-.58a1.64,1.64,0,0,1,1,.85,2.41,2.41,0,0,1,0,1.25c-.22.1-.11-.19-.29-.23a1.65,1.65,0,0,0-.65-.42A3.68,3.68,0,0,1,6,38.42c.13-1.37.45-2.74.62-4.12a3,3,0,0,0-1.79-2.59,3.8,3.8,0,0,0-1.19-.32,3.28,3.28,0,0,1,.86-.2,2.74,2.74,0,0,1-.89-2.8Z"/><path class="cls-3" d="M50.82,28.39c-.11,1.85-2,2.8-3.12,4.15-1.13,1.8.29,3.7.4,5.52-.45-.22-.88-.51-1.31-.75.42.72-.43,1.77.4,2.37.43.31.88.7.74,1.27-.1.12-.1.32-.29.32,0-.29.32-.73-.1-.85-.22,0-.37.21-.52-.06-.16,0-.33,0-.36.18-.24.51.65.51.33,1-.36.08-.59-.25-.78-.49-.47-.75.66-1.23.23-2-.36-.31-1-.52-1.1-1.06-.08-.18.15-.54-.11-.5a4.86,4.86,0,0,1-.47,1.1c-.22-.1-.45-.38-.69-.47A2,2,0,0,0,42.33,38c-.9.33-1,1.57-1.92,1.71a2.43,2.43,0,0,0,2.33.49c.62-.15.93-.82,1.21-1.3-.16-.13-.28.13-.49.08s-.62.21-1,.13a1.59,1.59,0,0,1,1.68-.36c.19,0,.34.26.45.42a1.9,1.9,0,0,0,.3,1.75,2.24,2.24,0,0,0,1.9.91c.1,0,0,.14-.06.16-1.12-.06-2-.75-3.11-.31-.65.54-1.28,1.46-2.26,1.17,0,0,0,.09,0,.13a4.23,4.23,0,0,0,3.89.56,5.13,5.13,0,0,0,1.87-1.19,4.91,4.91,0,0,1-2.4,4.56,4.75,4.75,0,0,1-3.14.62v-.07a2.75,2.75,0,0,0,.62-.94c-.71-.07-1.55-.62-2.21,0a1.58,1.58,0,0,1-1.75.42c-.05-.12-.61-.42-.13-.26a.46.46,0,0,0,.48.1c.35-.11-.08-.89.52-.59a.32.32,0,0,0,.1-.45.47.47,0,0,0-.57-.1c-.23.19-.49.45-.79.31a.67.67,0,0,1,.33-.54c1-.46,1.49.91,2.49.54a1.51,1.51,0,0,1,1-.31,2.61,2.61,0,0,0,.43.13,2.4,2.4,0,0,0-1.08-1.48,2.34,2.34,0,0,0-2.43.13c-.51.23-.6.75-.91,1.12-.29-.08,0-.34,0-.52.6-.76,1.85-1.24,1.5-2.41a1.78,1.78,0,0,1,.14-1.35c.11-.27.46-.25.51-.52a.1.1,0,0,0,0,0A3.73,3.73,0,0,0,37.33,43a5.3,5.3,0,0,0,.1,3.08,7.39,7.39,0,0,0-1.84,2.15c0,.07-.09,0-.13.08-1.21-.43-3-.81-4.07.24-1,1.29-2.1,2.66-3.78,2.76v.09a2.76,2.76,0,0,0,2.75-.74c.11.27.07.65.23.91a.11.11,0,0,0,.13.05A3.06,3.06,0,0,1,32.06,49a3.29,3.29,0,0,1,3.32-.06,3.5,3.5,0,0,1-.61,2.66,3.38,3.38,0,0,0,1.42-.92c.26-.22.44-.44.69-.68a3.77,3.77,0,0,0,3.06,1.56,3.51,3.51,0,0,0,3-2,1.76,1.76,0,0,0,.26-1.16,4.68,4.68,0,0,0-.55.86,3.59,3.59,0,0,1-3.08,1.63,3.51,3.51,0,0,1-2.46-1.08c0-.36.28-.66.36-1a17.6,17.6,0,0,0,.12-1.89,2.54,2.54,0,0,0,1.83,1.5A2.3,2.3,0,0,0,41,48c1.77.54,3.3-.7,5.09-.45.21.09.48.13.6.36-.46.36-1.14.26-1.67.51-1.3.38-1.27,1.87-2.28,2.59-.27.11-.51.31-.8.43,0,.12.13.14.23.13A3.42,3.42,0,0,0,45.7,50a8.57,8.57,0,0,1,.7-1.29.05.05,0,0,1,0,0,2.59,2.59,0,0,0,1,2.7,2.38,2.38,0,0,0,2.53.09c.06-.06.2-.06.16-.19-.86-.1-.69-1.25-1.48-1.63-.69-.2-1.63-.11-1.69-1.09.07-.07,0-.51.22-.2a.79.79,0,0,0,.42.72c.37.15.4-.74.66-.17.14,0,.27-.08.38-.23a.42.42,0,0,0-.27-.54c-.27-.19-.74.08-.93-.23a1.12,1.12,0,0,1,1.08,0c.72.59.23,1.8,1.22,2.16.35,0,.72,0,.88.36,0,.07.07.19.16.1a2.6,2.6,0,0,0,0-1.94,2.31,2.31,0,0,0-2.26-1.33c-.32-.09-.58.18-.81.09,0-.21.3-.22.45-.32,1-.33,2.47.55,2.85-.75.2-.55,0-1.35.59-1.55a.06.06,0,0,0,0-.06,4.23,4.23,0,0,0-3.89,1.58c-.26.35-.42.75-.71,1.1a5,5,0,0,0-1.55-.29A6.08,6.08,0,0,0,47.74,42c.88-.21,1.12,1.09,1.91,1.21.78.34,1.13-.82,1.81-.49.1-.16-.09-.33-.14-.49a3,3,0,0,0-2.77-.88,2.21,2.21,0,0,0,.28-2.41,1.93,1.93,0,0,1,.68-1.58c.62-.12,1.44,0,1.79-.63.3-.45.08-1,.07-1.49,0-.16.24-.21.29-.33-.65-.12-1.14-.86-1.95-.58a1.6,1.6,0,0,0-1,.85,2.41,2.41,0,0,0,0,1.25c.21.1.11-.19.28-.23a1.65,1.65,0,0,1,.65-.42,3.71,3.71,0,0,0-1.16,2.67c-.13-1.37-.45-2.74-.62-4.12a3,3,0,0,1,1.78-2.59,3.94,3.94,0,0,1,1.2-.32,3.26,3.26,0,0,0-.87-.2,2.73,2.73,0,0,0,.9-2.8Z"/><path class="cls-3" d="M40.31,33.68a1.38,1.38,0,1,0,1.38-1.38A1.38,1.38,0,0,0,40.31,33.68Zm.13,0a1.25,1.25,0,1,1,1.25,1.25A1.25,1.25,0,0,1,40.44,33.68Z"/><path class="cls-3" d="M41.42,33.09c0-.07,0-.09.15-.09s.4,0,.4.32-.35.34-.55.34Zm1.08,1.35a.33.33,0,0,1-.21-.11l-.48-.61c.12,0,.42-.07.42-.39s-.39-.42-.6-.42H41V33c.17,0,.2,0,.2.21v1c0,.18,0,.23-.2.25v0h.66v0c-.2,0-.22-.06-.22-.22v-.47h.14l.56.73h.38Z"/><path class="cls-3" d="M18.19,19.23a4.61,4.61,0,0,1,3.66-2.08c.24,0,.82.11,1.39.11s1.16-.11,1.38-.11c.38,0,.55.58.55.92A1.36,1.36,0,0,1,24,19.43c-.52,0-.85-.3-.85-.48s0-.09.05-.09.21.32.6.32.64-.5.64-.86c0-.6-.14-.86-.51-.86-.17,0-.45.05-.67.05s-1-.11-1.38-.11c-2.1,0-3.9,2.75-3.9,4.66a2.71,2.71,0,0,0,2.8,3,3,3,0,0,0,3-3c0-.22-.1-.58-.1-.8,0-.07,0-.11.07-.11s.47.68.47,1.18c0,1.83-1.82,3-3.59,3a3.21,3.21,0,0,1-3.46-3.23A4.84,4.84,0,0,1,18.19,19.23Z"/><path class="cls-3" d="M24.71,24.48c0-.73.81-2,1.63-2,.5,0,.63.28.63.65,0,.72-.81,2-1.62,2A.56.56,0,0,1,24.71,24.48Zm-.46-.27a1.08,1.08,0,0,0,1.13,1.11,2,2,0,0,0,2.06-1.94,1.08,1.08,0,0,0-1.13-1.11A2,2,0,0,0,24.25,24.21Z"/><path class="cls-3" d="M30.3,22.71a1.32,1.32,0,0,1-.58.86,1.6,1.6,0,0,1-1.07.35c-.13,0-.24-.05-.37-.06a1.77,1.77,0,0,1,1.54-1.45C30,22.41,30.3,22.44,30.3,22.71Zm-2.71,1.4a1.23,1.23,0,0,0,1.33,1.21,1.89,1.89,0,0,0,1-.19c.08-.05.64-.34.64-.5s0-.07-.06-.07-.13.07-.23.15a1.71,1.71,0,0,1-1,.3,1,1,0,0,1-1-.94,1.8,1.8,0,0,0,.46.05,2.46,2.46,0,0,0,1.43-.41,1.86,1.86,0,0,0,.73-1.14.49.49,0,0,0-.54-.48C29.32,22.09,27.59,22.91,27.59,24.11Z"/><path class="cls-3" d="M31.88,25.12c.77,0,1.06-.54,1.41-1.17.2-.36.41-.79.63-1.18-.08,0-.33.09-.41.09a.06.06,0,0,1-.06-.06,4.82,4.82,0,0,1,1.16-.49s.09,0,.09.06-.06.1-.08.17a22.65,22.65,0,0,0-1.14,2.37c0,.19.11.21.24.21l.17,0s.09,0,.09.07-.16.15-.31.15c-.35,0-.47-.07-.68-.07s-.2.07-.31.07,0,0,0-.06.07-.15.11-.23l0,0a1.53,1.53,0,0,1-1,.31c-.47,0-.87-.24-.87-.74s.56-1.24.83-1.8a3.46,3.46,0,0,1-.54.16s-.05,0-.05-.09a8.06,8.06,0,0,1,1.33-.54s.08.06.08.08c0,.2-1.07,1.65-1.07,2.14S31.6,25.12,31.88,25.12Z"/><path class="cls-3" d="M35.72,25.12c.3,0,.27-.15.4-.15s.05,0,.05.08-.21.27-.47.27-.51,0-.68,0-.35,0-.6,0-.24,0-.24-.09.08-.11.27-.11.41-.22.56-.49.58-1.15,1.14-2a4.83,4.83,0,0,1-.49.14.08.08,0,0,1-.07-.08,3.21,3.21,0,0,1,1.25-.41c.07,0,.13,0,.13.06s-.17.21-.25.42l0,0a2,2,0,0,1,1.22-.5c.33,0,.57.14.57.49a.5.5,0,0,1-.57.52c-.12,0-.2,0-.2-.08s.14-.25.14-.4a.27.27,0,0,0-.28-.29c-.89,0-2.09,1.84-2.09,2.4C35.53,25,35.56,25.12,35.72,25.12Z"/><path class="cls-3" d="M15.29,24.58c0-.06,0-.08.05-.08a1.06,1.06,0,0,0,.8.45c.44,0,.62-.39.62-.75,0-.57-.83-.82-1.29-.82-.84,0-2.1.35-2.1,1.39,0,.67.83.8.83,1.21s-.47.26-.94.44a2.67,2.67,0,0,0-1.88,2.38c0,1.62,1.06,2.32,2.61,2.32s3.49-1.24,3.49-3a2.16,2.16,0,0,0-.13-.58.16.16,0,0,1,.14-.14c.11,0,.24.56.24.76,0,1.89-1.82,3.22-3.93,3.22-1.54,0-3.2-.92-3.2-2.52a3,3,0,0,1,2.77-2.74c.5-.05.57-.08.57-.21s-1.3-.3-1.3-1.22c0-1.21,1.42-1.55,2.41-1.55.74,0,2.22.28,2.22,1.25a1,1,0,0,1-1,1A1,1,0,0,1,15.29,24.58Z"/><path class="cls-3" d="M19.73,29c-.37,0-.37-.56-.44-.58a.87.87,0,0,0-.25,0c-.22,0-.39.11-.39.34s.21.42.41.71a1.78,1.78,0,0,1,.4.93c0,.58-.62.88-1.14.88A1.2,1.2,0,0,1,17.5,31a.83.83,0,0,1-.36-.55c0-.13.07-.29.22-.29s.28.24.28.39,0,.17,0,.25.43.19.57.19c.42,0,.74-.21.74-.64a1.44,1.44,0,0,0-.35-.76,1.45,1.45,0,0,1-.32-.76.7.7,0,0,1,.79-.71c.31,0,.93.22.93.6C20,28.89,19.89,29,19.73,29Z"/><path class="cls-3" d="M21.65,28.42a5.59,5.59,0,0,1-1.4,2.3c.18,0,.36.08.54.08s.21,0,.25,0,.05,0,.05.06c0,.2-.29.36-.58.36s-.32-.07-.55-.07a.62.62,0,0,0-.25.07s0,0,0-.05a.28.28,0,0,1,.07-.13,16.68,16.68,0,0,0,1.31-2.57c0-.07-.38-.05-.38-.11s.06-.09.11-.11c.57-.24,1-1.1,1.28-1.54.1-.18.59-.82.72-.82s.06,0,.06,0-.07.07-.13.17a12.34,12.34,0,0,0-1,2.15c.25,0,.51,0,.51.07S22.08,28.41,21.65,28.42Z"/><path class="cls-3" d="M26.28,28.85c0,.66-.94,1.65-.94,1.95,0,.12.05.2.17.2s.33-.21.35-.21.08,0,.08.05-.29.35-.65.35-.42,0-.63,0-.33,0-.5,0-.25,0-.25-.12S24,31,24,31a.52.52,0,0,0,.48-.21,6.22,6.22,0,0,0,1.22-2.1c0-.22-.08-.36-.32-.36-1.11,0-2.58,1.84-2.58,2.5,0,.13.08.17.2.17s.4-.31.51-.31,0,0,0,.07-.33.44-.69.44-.39,0-.55,0l-.6,0c-.27,0-.39-.14-.39-.21s0-.08.08-.08.09.1.24.1.55-.52.74-.85c.82-1.41,2.72-5.47,4.51-5.47a.82.82,0,0,1,.8.84s-.05.07-.09.07-.1,0-.1-.07a.6.6,0,0,0-.63-.64c-1.34,0-2.72,3.31-3.3,4.23h0a3.82,3.82,0,0,1,2-1A.69.69,0,0,1,26.28,28.85Z"/><path class="cls-3" d="M29.07,28.62a1.28,1.28,0,0,1-.57.86,1.59,1.59,0,0,1-1.05.34c-.13,0-.24-.05-.36-.06a1.75,1.75,0,0,1,1.51-1.43C28.82,28.33,29.07,28.36,29.07,28.62ZM26.41,30a1.2,1.2,0,0,0,1.3,1.19,1.9,1.9,0,0,0,.95-.18c.09-.05.64-.34.64-.49s0-.07-.06-.07-.13.07-.23.14a1.64,1.64,0,0,1-1,.3,1,1,0,0,1-.94-.92,2.22,2.22,0,0,0,.45,0,2.44,2.44,0,0,0,1.4-.4,1.81,1.81,0,0,0,.72-1.12.47.47,0,0,0-.53-.47C28.11,28,26.41,28.82,26.41,30Z"/><path class="cls-3" d="M31.3,28.42a5.72,5.72,0,0,1-1.41,2.3c.18,0,.36.08.54.08s.21,0,.26,0,0,0,0,.06c0,.2-.29.36-.58.36s-.32-.07-.55-.07a.69.69,0,0,0-.25.07s0,0,0-.05a.24.24,0,0,1,.08-.13,17.68,17.68,0,0,0,1.31-2.57c0-.07-.38-.05-.38-.11s.05-.09.1-.11c.57-.24,1-1.1,1.28-1.54.1-.18.59-.82.72-.82s.06,0,.06,0-.07.07-.13.17a12.34,12.34,0,0,0-1,2.15c.25,0,.51,0,.51.07S31.72,28.41,31.3,28.42Z"/><path class="cls-3" d="M33.59,28.3a.28.28,0,0,1-.06.14,18.93,18.93,0,0,0-1.24,2.28.26.26,0,0,0,.23.28c.07,0,.12-.06.18-.06s.09,0,.09,0c0,.2-.34.21-.49.21s-.37,0-.56,0-.33,0-.51,0-.24,0-.24-.07.12-.12.3-.12.84-1.36,1.38-2.19c-.19,0-.45.13-.59.13a0,0,0,0,1,0-.05.13.13,0,0,1,.1-.12c.24-.1,1.29-.57,1.38-.57S33.59,28.24,33.59,28.3Zm.81-1.56a.36.36,0,0,1-.72,0,.36.36,0,0,1,.72,0Z"/><path class="cls-3" d="M33.88,30.35c0-.8.92-1.58,1.59-1.87a2.49,2.49,0,0,1,.94-.15l.25,0a17.71,17.71,0,0,0-1.39,1.84,1.21,1.21,0,0,1-.93.7C34,30.89,33.88,30.69,33.88,30.35Zm3.63-2.2-1.13,0c-1.48,0-3.11.94-3.11,2.34a.73.73,0,0,0,.7.7,1.55,1.55,0,0,0,.79-.2h0a5.81,5.81,0,0,0-.89,2.91c0,.2,0,.54.14.54s.16-.25.19-.47c.26-1.78,2-4.24,3.33-5.75Z"/><path class="cls-3" d="M38.17,31c.76,0,1-.53,1.38-1.15.19-.36.4-.78.62-1.16-.08,0-.33.09-.4.09s-.06,0-.06-.07a5,5,0,0,1,1.13-.47s.1,0,.1.06-.06.09-.08.16a23.17,23.17,0,0,0-1.13,2.33c0,.18.11.21.24.21s.11,0,.17,0,.09,0,.09.07-.16.15-.31.15c-.34,0-.46-.06-.67-.06s-.19.06-.29.06-.06,0-.06-.05a.61.61,0,0,1,.11-.23l0,0a1.49,1.49,0,0,1-1,.3c-.46,0-.85-.23-.85-.73s.54-1.21.82-1.76c-.08,0-.43.15-.54.15s-.06,0-.06-.08a7.81,7.81,0,0,1,1.31-.53.09.09,0,0,1,.08.08c0,.19-1,1.61-1,2.1S37.89,31,38.17,31Z"/><path class="cls-3" d="M43.38,28.62a1.28,1.28,0,0,1-.57.86,1.59,1.59,0,0,1-1.05.34c-.13,0-.24-.05-.36-.06a1.75,1.75,0,0,1,1.51-1.43C43.13,28.33,43.38,28.36,43.38,28.62ZM40.72,30A1.21,1.21,0,0,0,42,31.19,1.9,1.9,0,0,0,43,31c.08-.05.63-.34.63-.49s0-.07,0-.07-.14.07-.23.14a1.69,1.69,0,0,1-1,.3,1,1,0,0,1-.95-.92,2.28,2.28,0,0,0,.45,0,2.41,2.41,0,0,0,1.4-.4A1.76,1.76,0,0,0,44,28.49a.47.47,0,0,0-.53-.47C42.42,28,40.72,28.82,40.72,30Z"/><path class="cls-3" d="M15.82,35.5a0,0,0,0,1,0,0,2.08,2.08,0,0,0-.24-.06.54.54,0,0,0-.54.6c0,.47.46.7,1.11.7a.91.91,0,0,0,.95-.82c0-.78-1-1.1-1-1.67,0-.39.34-.53.68-.53s.69.19.69.41-.09.22-.18.22-.19-.07-.19-.11a0,0,0,0,1,0,0,.16.16,0,0,0,.15-.15c0-.18-.34-.26-.5-.26s-.46.11-.46.38c0,.47,1,.82,1,1.59a1.12,1.12,0,0,1-1.18,1.06c-.71,0-1.3-.29-1.3-.93a.6.6,0,0,1,.59-.6A.64.64,0,0,1,15.82,35.5Z"/><path class="cls-3" d="M17.65,36.42c0-.43.72-.85,1.1-.85l.11,0a4.12,4.12,0,0,0-.4.72.54.54,0,0,1-.5.42A.28.28,0,0,1,17.65,36.42Zm1,.46c.18,0,.23,0,.3-.09A.25.25,0,0,0,19,36.6s0,0,0,0,0,.22-.22.22-.1-.08-.1-.14a3,3,0,0,1,.54-1.09.91.91,0,0,0-.49-.09c-.56,0-1.35.49-1.35,1s.19.44.49.44a.71.71,0,0,0,.38-.09s0,0,0,.07,0,0,0,0Z"/><path class="cls-3" d="M21.26,34.09a0,0,0,0,1,0,0S21.15,34,21,34s-.45.53-.5.69c-.25.74-.74,1.87-.74,2s0,.12.12.12l.07,0,0,0c0,.08-.12.09-.19.09l-.25,0-.26,0c-.05,0-.21,0-.21-.07s0,0,.05,0a.42.42,0,0,0,.11,0c.05,0,.08,0,.13-.07s.61-1.49.87-2c.18-.32.4-.83.76-.83C21.08,33.87,21.26,34,21.26,34.09Z"/><path class="cls-3" d="M20.42,36.49c0-.33.37-.92.74-.92s.29.13.29.3c0,.33-.37.92-.74.92S20.42,36.66,20.42,36.49Zm-.22-.12a.5.5,0,0,0,.52.51.91.91,0,0,0,1-.89.5.5,0,0,0-.52-.52A1,1,0,0,0,20.2,36.37Z"/><path class="cls-3" d="M23,35.59c-.36,0-.63.48-.78.75a1,1,0,0,0-.17.39.06.06,0,0,0,.06.06c.06,0,.1-.09.14-.09s0,0,0,0-.19.14-.23.14a2.4,2.4,0,0,1-.25,0l-.25,0s-.08,0-.08,0,.05-.07.11-.07.16-.08.21-.16c.16-.31.31-.62.48-.93-.09,0-.2.06-.28.06s0,0,0,0a2.27,2.27,0,0,1,.52-.22l.1,0s0,0,0,0a.94.94,0,0,1-.06.18,1.35,1.35,0,0,1,.56-.25.33.33,0,0,1,.37.34c0,.42-.55.84-.55.89s.07.06.16.06a1.3,1.3,0,0,0,.15,0l0,0c0,.06-.11.16-.25.16l-.23,0-.1,0s-.06,0-.06,0,.06-.1.12-.16a1.72,1.72,0,0,0,.44-.87C23.17,35.67,23.11,35.59,23,35.59Z"/><path class="cls-3" d="M24.66,36.45c0-.4.37-1,.79-1,.13,0,.25,0,.25.2s-.34,1.09-.71,1.09S24.66,36.68,24.66,36.45Zm-.28-.1c0,.37.27.53.62.53a.84.84,0,0,0,.29-.05c.43-.2.62-.75.92-1.53S26.6,34,26.94,34a.42.42,0,0,1,.23.09,0,0,0,0,0,0,0c0-.1-.19-.16-.27-.16a.54.54,0,0,0-.38.22,6.75,6.75,0,0,0-.76,1.52.5.5,0,0,0-.41-.2A1.05,1.05,0,0,0,24.38,36.35Z"/><path class="cls-3" d="M27.37,35.68a.59.59,0,0,1-.27.4.76.76,0,0,1-.49.16,1,1,0,0,1-.17,0,.83.83,0,0,1,.71-.67C27.25,35.54,27.37,35.55,27.37,35.68Zm-1.25.65a.56.56,0,0,0,.61.55.79.79,0,0,0,.45-.09s.3-.15.3-.23a0,0,0,0,0,0,0s-.06,0-.11.07a.72.72,0,0,1-.45.14.47.47,0,0,1-.44-.43.75.75,0,0,0,.21,0,1.17,1.17,0,0,0,.66-.19.82.82,0,0,0,.33-.52c0-.16-.12-.22-.25-.22C26.92,35.4,26.12,35.77,26.12,36.33Z"/><path class="cls-3" d="M30.57,34a3.93,3.93,0,0,0,.6.07.94.94,0,0,0,.36-.07.79.79,0,0,1,.26-.08c.2,0,.26.2.26.38,0,.49-.4.67-.83.73,0,0-.09,0-.09.06s.55.34.55.81a1,1,0,0,1-1,1,.7.7,0,0,1-.73-.42s0-.05,0-.05a.78.78,0,0,0,.6.38,1,1,0,0,0,.82-.94c0-.51-.38-.67-.38-.77s.25-.15.37-.22a1.06,1.06,0,0,0,.46-.74c0-.08,0-.12-.09-.12a.93.93,0,0,0-.32.1,1.21,1.21,0,0,1-.58.13,3.27,3.27,0,0,1-.53,0,3.27,3.27,0,0,0-.51-.07c-.48,0-1,.22-1,.78a2,2,0,0,0,0,.31l0,0c-.06,0-.09-.26-.09-.31a1.11,1.11,0,0,1,1.18-1A4.11,4.11,0,0,1,30.57,34Zm-1.69,2.89c-.56,0-.76-.33-.76-.49s0,0,0,0,0,0,.05.1a.64.64,0,0,0,.62.33c.56,0,1-.78,1.24-1.33a2,2,0,0,1,1-1.08h0a2,2,0,0,0-.32.35,7.71,7.71,0,0,0-.56,1.09A1.6,1.6,0,0,1,28.88,36.88Z"/><path class="cls-3" d="M33.08,35.7a.59.59,0,0,1-.26.39.77.77,0,0,1-.49.15l-.16,0a.8.8,0,0,1,.69-.66C33,35.56,33.08,35.58,33.08,35.7Zm-1.23.63a.56.56,0,0,0,.6.55.76.76,0,0,0,.44-.09s.3-.15.3-.22a0,0,0,0,0,0,0s-.06,0-.11.07a.79.79,0,0,1-.44.13.46.46,0,0,1-.44-.42h.21a1.11,1.11,0,0,0,.65-.18.78.78,0,0,0,.33-.51.21.21,0,0,0-.24-.22C32.64,35.42,31.85,35.79,31.85,36.33Z"/><path class="cls-3" d="M33.66,36.43c0-.43.7-.84,1.08-.84l.1,0a4.09,4.09,0,0,0-.39.72.54.54,0,0,1-.49.41A.27.27,0,0,1,33.66,36.43Zm1,.45c.18,0,.23,0,.3-.09a.28.28,0,0,0,.08-.18s0,0,0,0,0,.21-.22.21-.1-.07-.1-.13a3.06,3.06,0,0,1,.53-1.07.82.82,0,0,0-.49-.09c-.54,0-1.33.47-1.33,1,0,.31.19.42.49.42a.73.73,0,0,0,.38-.09s0,0,0,.07,0,0,0,0Z"/><path class="cls-3" d="M35.64,36.79c.36,0,.48-.24.64-.53l.29-.53-.19,0s0,0,0,0a2,2,0,0,1,.53-.22s0,0,0,0a.41.41,0,0,1,0,.08,11.37,11.37,0,0,0-.52,1.07c0,.09.05.1.11.1h.07s.05,0,.05,0-.07.07-.15.07-.21,0-.3,0-.1,0-.14,0,0,0,0,0a.24.24,0,0,1,.06-.11h0a.66.66,0,0,1-.44.14c-.21,0-.39-.11-.39-.33s.25-.57.37-.82a1.37,1.37,0,0,1-.24.07s0,0,0,0a4.07,4.07,0,0,1,.61-.24,0,0,0,0,1,0,0c0,.09-.48.75-.48,1S35.51,36.79,35.64,36.79Z"/><path class="cls-3" d="M37.72,35.6a2.64,2.64,0,0,1-.65,1.07c.08,0,.16,0,.25,0l.12,0s0,0,0,0-.14.16-.27.16-.15,0-.26,0-.09,0-.11,0,0,0,0,0,0,0,0-.07a7.62,7.62,0,0,0,.6-1.18s-.18,0-.18,0,0,0,.06-.05c.26-.11.47-.51.59-.72s.27-.37.33-.37,0,0,0,0,0,0-.06.08a5.73,5.73,0,0,0-.46,1c.12,0,.24,0,.24,0S37.92,35.6,37.72,35.6Z"/><path class="cls-3" d="M39.1,35.7a.63.63,0,0,1-.26.39.77.77,0,0,1-.49.15l-.17,0a.81.81,0,0,1,.7-.66C39,35.56,39.1,35.58,39.1,35.7Zm.29-1a.11.11,0,0,0-.09-.11c-.17,0-.16.24-.22.35s-.31.3-.31.34,0,0,0,0S39.39,35,39.39,34.66Zm-1.52,1.67a.56.56,0,0,0,.6.55.79.79,0,0,0,.44-.09s.29-.15.29-.22,0,0,0,0-.06,0-.11.07a.82.82,0,0,1-.44.13.45.45,0,0,1-.44-.42h.21a1.15,1.15,0,0,0,.65-.18.82.82,0,0,0,.33-.51c0-.16-.12-.22-.25-.22C38.65,35.42,37.87,35.79,37.87,36.33Z"/><path class="cls-4" d="M133.28,5.13c-.1,0-.19,0-.31-.24-.78-1.25-.86-1.36-1.34-1.6-.08.24-.36,1.32-.61,2.34-.06.23-.27,1.25-.33,1.45s-.24.65-.61.65-.41-.66-.35-.89.06-.16.23-.6c.26-.64.65-2.11.83-2.81.1-.38.58-2.16.58-2.43s-.22-.32-.64-.42a1.54,1.54,0,0,1,.79-.28c.45,0,1.12.24,1,.53a4.94,4.94,0,0,1-.3.49,8.82,8.82,0,0,0-.58,1.78c1,.08,2.47.53,2.21,1.47A.67.67,0,0,1,133.28,5.13Z"/><path class="cls-4" d="M142.23,4.38h-.4c-.51,0-1.7,0-2.35,0a17.41,17.41,0,0,0-2.56.21,1.61,1.61,0,0,1-.34.07c-.3,0-.66-.69-.54-1.14a1.74,1.74,0,0,1,.35-.59c.1.69.25.73,1.26.73.55,0,3.69,0,3.92-.11a1.83,1.83,0,0,1,.39-.09c.35,0,1.06.15.94.62C142.84,4.25,142.57,4.38,142.23,4.38Z"/><path class="cls-4" d="M150.8,2.51c-.22.08-.22.08-.77.77a11,11,0,0,1-6.09,4.27V7.48A14.42,14.42,0,0,0,147.7,4.8c-.13,0-.19-.09-.29-.32a2.32,2.32,0,0,0-.7-1,7.9,7.9,0,0,1-1.9,1.15l0,0a15.55,15.55,0,0,0,3.15-3.44c.07-.27-.23-.38-.44-.45a1.06,1.06,0,0,1,.6-.18c.44,0,1,.4.93.71,0,.12-.08.15-.28.32a2.57,2.57,0,0,0-.33.33A7.4,7.4,0,0,0,150,1.7a4.16,4.16,0,0,1,.57-.27,1.69,1.69,0,0,1,.57.87C151.06,2.41,151,2.43,150.8,2.51Zm-2.34-.11c-.11,0-.18,0-.37-.19a15.91,15.91,0,0,1-1.2,1.13c.43,0,1.44.14,1.4.84a11.36,11.36,0,0,0,1.52-2C149.67,2.21,148.54,2.4,148.46,2.4Z"/><path class="cls-4" d="M155.24,2.71c-.08.16-.53,1.26-.64,1.5a6,6,0,0,1-3.18,3.09l0-.06a8.36,8.36,0,0,0,3-4.51c.15-.56,0-.61-.52-.78a2,2,0,0,1,.77-.25c.29,0,1,.28.89.59C155.45,2.37,155.26,2.64,155.24,2.71ZM156.92,6c-.2.13-1.09.7-1.26.83s-.25.14-.29.14c-.22,0-.46-.78-.41-1s.25-.45.29-.53c.11-.25.47-1.43.65-2.09a10.41,10.41,0,0,0,.38-1.84c-.07-.23-.42-.31-.58-.35a1.49,1.49,0,0,1,.69-.26c.31,0,1.1.32,1,.65,0,.09-.27.46-.3.54-.19.38-.93,2.76-1.08,3.31,0,.07,0,.13,0,.13a13.86,13.86,0,0,0,4-2.68l.05.06A10.33,10.33,0,0,1,156.92,6Z"/><path class="cls-4" d="M166,6.85a10.6,10.6,0,0,1-2.53.22c-2.45,0-2.3-.75-1.81-2.55.08-.32.65-2.43.67-2.58.06-.39-.06-.56-.54-.74a1.31,1.31,0,0,1,.74-.34c.36,0,1.15.41,1.06.76,0,.09-.3.42-.34.49a5,5,0,0,0-.2.5c-.08.23-.39,1.25-.47,1.45a8.89,8.89,0,0,0,3.12-1.85c.05-.17-.18-.33-.28-.41a1.84,1.84,0,0,1,.37-.05,1.13,1.13,0,0,1,1.07,1c0,.19-.14.22-.6.35a3.17,3.17,0,0,0-.4.14,14.82,14.82,0,0,1-3.35,1.08c-.52,1.8-.56,2,.78,2A5.08,5.08,0,0,0,164.93,6a1.43,1.43,0,0,1,.43-.11c.06,0,1.09.08,1,.58A.58.58,0,0,1,166,6.85Zm1.36-5.18c-.16,0-.2-.06-.39-.34a2.15,2.15,0,0,0-.77-.81,2.92,2.92,0,0,1,1.09.16c.48.21.46.55.43.65S167.52,1.67,167.32,1.67Zm1-.56c-.15,0-.24-.07-.44-.38a1.71,1.71,0,0,0-.8-.69,1.22,1.22,0,0,1,.34,0c.13,0,1.44.06,1.25.78A.41.41,0,0,1,168.36,1.11Z"/><path class="cls-4" d="M174.42,6.61a1.8,1.8,0,0,1-.49-.13,5.17,5.17,0,0,0-1.56-.14,9.39,9.39,0,0,0-2.74.41A5.55,5.55,0,0,1,169,7a.94.94,0,0,1-.55-1,3.23,3.23,0,0,1,.15-.34.73.73,0,0,0,.71.48c.16,0,1.18-.13,1.4-.15l1.19-.11c.39-.83.77-1.84.94-2.32a9.87,9.87,0,0,0-1.45.33c-.08,0-.41.16-.47.16s-.5-.46-.4-.83a1.34,1.34,0,0,1,.13-.32.54.54,0,0,0,.56.39A7.62,7.62,0,0,0,173,3a2.33,2.33,0,0,1,.45-.22c.17,0,.62.6.58.76s0,.07-.31.24c-.1.06-.12.1-.31.47s-.68,1.32-.8,1.54c.17,0,.91,0,1.06-.06s.41-.09.47-.09.71.45.63.74A.34.34,0,0,1,174.42,6.61Z"/><path class="cls-4" d="M183.56,4.38h-.4c-.51,0-1.7,0-2.34,0a17.41,17.41,0,0,0-2.56.21,1.91,1.91,0,0,1-.34.07c-.31,0-.67-.69-.55-1.14a2.14,2.14,0,0,1,.35-.59c.11.69.26.73,1.26.73.55,0,3.69,0,3.93-.11a1.89,1.89,0,0,1,.38-.09c.36,0,1.07.15.94.62C184.17,4.25,183.9,4.38,183.56,4.38Z"/><path class="cls-4" d="M192.9,3.48c-.07,0-.89-.1-1-.1a4.35,4.35,0,0,0-.61,0c-.17,0-.43,0-1.21.06.07.06.34.26.4.32a.15.15,0,0,1,0,.14c0,.06-.05.1-.23.22a1.93,1.93,0,0,0-.24.34,7.21,7.21,0,0,1-3.87,3.29l0,0a9.54,9.54,0,0,0,3.17-3.8c0-.22,0-.26-.06-.37a6.37,6.37,0,0,0-1.84.45,1,1,0,0,1-.35.08c-.3,0-.69-.63-.57-1.08a1.57,1.57,0,0,1,.2-.41c.12.28.24.57.74.57h.09l2.2-.23c.71-.08,2.08-.22,2.15-.24s.49-.14.57-.14c.29,0,1,.21.86.67A.39.39,0,0,1,192.9,3.48Zm-1.52-1.82a22.33,22.33,0,0,0-2.32.22h-.19c-.55,0-.62-.6-.54-.87a.6.6,0,0,1,.09-.21c.2.36.7.38.93.38A7.55,7.55,0,0,0,191.06,1l.58-.13c.27,0,.75.13.66.46S191.9,1.64,191.38,1.66Z"/><path class="cls-4" d="M199.09,2.61a1.78,1.78,0,0,0-.34.2c-.91.75-1,.84-1.29,1.06.23.14.33.2.3.31s-.13.24-.15.28a7.66,7.66,0,0,0-.24.75c-.09.31-.41,1.72-.49,2s-.14.54-.51.54-.3-.54-.27-.64a3.52,3.52,0,0,1,.18-.45c.18-.49.49-1.57.57-1.88a1.06,1.06,0,0,0,.07-.53A9.87,9.87,0,0,1,194,5.76V5.67a16.17,16.17,0,0,0,4.39-3.62c0-.16,0-.24-.25-.43l.25,0a1.1,1.1,0,0,1,1,.8C199.37,2.46,199.3,2.52,199.09,2.61Z"/><path class="cls-4" d="M208.51,3.38c-.07,0-.82-.15-.93-.16a5.8,5.8,0,0,0-.94-.11,8.2,8.2,0,0,1-1,2.55,6.19,6.19,0,0,1-2.58,2.2L203,7.81a7.48,7.48,0,0,0,2.29-3.13c.09-.25.4-1.35.47-1.58a12.53,12.53,0,0,0-1.69.18L203.67,5c-.12.43-.17.64-.47.64s-.38-.55-.33-.73.2-.51.22-.6.21-.74.25-.86a10.15,10.15,0,0,0-1.16.32c-.23.11-.26.13-.34.13-.3,0-.59-.54-.46-1a1.61,1.61,0,0,1,.25-.54c.13.38.19.61.65.61.19,0,1.06-.11,1.23-.13.38-1.53.33-1.53-.37-1.72a1.41,1.41,0,0,1,.76-.28c.23,0,1,.22.89.55,0,.07-.19.34-.22.41a6.74,6.74,0,0,0-.32,1c.88-.1,1.24-.13,1.7-.15.1-.32.28-.93.28-.95.18-.64.17-.87-.53-1a1.63,1.63,0,0,1,.76-.27c.19,0,1.12.13,1,.56a5.16,5.16,0,0,1-.24.47,8,8,0,0,0-.42,1.13,5,5,0,0,0,.9-.07c.07,0,.37-.09.44-.09a1.42,1.42,0,0,1,.77.38A.24.24,0,0,1,209,3,.4.4,0,0,1,208.51,3.38Z"/><path class="cls-4" d="M217,2.51c-.28.18-.3.2-.72,1.07l-.86,1.75a.31.31,0,0,0,0,.1c0,.07,0,.08.11.19s.28.24.24.39a.41.41,0,0,1-.41.28l-.25,0c-.37,0-.82,0-1.52,0a20.18,20.18,0,0,0-2,.08c-.17.48-.31.55-.46.55-.32,0-.49-.57-.38-1,0,0,.11-.31.12-.37a18.8,18.8,0,0,0,.57-3.13c0-.38-.13-.48-.42-.62a1,1,0,0,1,.54-.16,1.43,1.43,0,0,1,.82.3.47.47,0,0,0,.26.08l3.12-.24a1.11,1.11,0,0,0,.61-.25.42.42,0,0,1,.24-.1c.14,0,.37.27.48.4.26.31.29.38.26.5S217.25,2.35,217,2.51Zm-1.4-.25a20.76,20.76,0,0,0-2.22.18c-.19,0-.48.08-.66.08a3.6,3.6,0,0,1-.4-.14s0,0-.07.08c-.07.26-.64,3.06-.66,3.26H212l2.54-.16a29.51,29.51,0,0,0,1.18-3.09C215.79,2.29,215.7,2.26,215.6,2.26Z"/><path class="cls-4" d="M221.7,5.39c-.32.21-1.95,1.26-2,1.32-.32.26-.36.28-.48.28-.39,0-.89-.85-.74-1.43a1.64,1.64,0,0,1,.21-.42c.21.63.51.64.55.64a14.54,14.54,0,0,0,2.61-1.38,23.56,23.56,0,0,0,3.55-2.7l.05,0A12.58,12.58,0,0,1,221.7,5.39Zm-.63-2.79c-.17,0-.24-.1-.5-.51A2.48,2.48,0,0,0,219.41,1,3.34,3.34,0,0,1,220.1,1c.5,0,1.85.16,1.59,1.1A.71.71,0,0,1,221.07,2.6Z"/><path class="cls-5" d="M65.82,20.52c2.83-4.11,7.61-7.13,12.59-7.13.81,0,2.82.39,4.79.39,2.24,0,4-.39,4.73-.39,1.34,0,1.92,2,1.92,3.16,0,2.11-1.78,4.69-4,4.69-1.78,0-2.93-1-2.93-1.67,0-.2,0-.29.2-.29s.71,1.1,2.06,1.1,2.2-1.72,2.2-3c0-2.06-.48-3-1.78-3-.57,0-1.53.19-2.3.19s-3.3-.37-4.73-.37c-7.23,0-13.45,9.42-13.45,16,0,5.94,3.25,10.39,9.66,10.39A10.23,10.23,0,0,0,85,30.24c0-.77-.34-2-.34-2.78,0-.23,0-.39.24-.39.57,0,1.63,2.35,1.63,4.08,0,6.31-6.27,10.38-12.35,10.38-6.66,0-11.92-4.26-11.92-11.1C62.23,26.5,63.67,23.68,65.82,20.52Z"/><path class="cls-5" d="M90.1,36.71c0-3.12,3.5-8.61,7-8.61,2.15,0,2.72,1.18,2.72,2.77,0,3.12-3.49,8.61-7,8.61C90.68,39.48,90.1,38.29,90.1,36.71Zm-2-1.16A4.64,4.64,0,0,0,93,40.34c3.63,0,8.85-2.39,8.85-8.33A4.64,4.64,0,0,0,97,27.23C93.31,27.23,88.09,30.09,88.09,35.55Z"/><path class="cls-5" d="M114.14,29.1c0,1.23-1.16,2.68-2.5,3.73a7,7,0,0,1-4.59,1.48c-.58,0-1-.19-1.58-.23,0-2.93,3.87-6.28,6.6-6.28C113,27.8,114.14,27.94,114.14,29.1Zm-11.63,6c0,3.26,2.58,5.22,5.69,5.22a8.26,8.26,0,0,0,4.16-.8c.39-.2,2.79-1.5,2.79-2.16,0-.2-.1-.29-.25-.29s-.57.29-1,.62a7.3,7.3,0,0,1-4.2,1.29,4.37,4.37,0,0,1-4.12-4,9,9,0,0,0,2,.19,10.47,10.47,0,0,0,6.13-1.77c1.67-1.19,3.15-3.54,3.15-4.88a2.08,2.08,0,0,0-2.33-2.06C109.92,26.46,102.51,30,102.51,35.12Z"/><path class="cls-5" d="M121,39.48c3.3,0,4.54-2.3,6-5,.87-1.59,1.77-3.4,2.73-5.07-.34,0-1.43.37-1.78.37-.08,0-.23,0-.23-.29a21.61,21.61,0,0,1,5-2.06c.18,0,.37.05.37.25s-.23.44-.33.72c-.76,1.91-4.93,8.9-4.93,10.19,0,.81.48.91,1.05.91.24,0,.48-.1.72-.1s.38.1.38.3-.67.66-1.34.66c-1.49,0-2-.28-2.92-.28-.57,0-.87.28-1.3.28-.14,0-.23-.05-.23-.24a2.64,2.64,0,0,1,.47-1l-.09-.1a6.55,6.55,0,0,1-4.21,1.34c-2,0-3.73-1-3.73-3.21,0-2.77,2.39-5.31,3.58-7.7a24.26,24.26,0,0,1-2.35.66c-.19,0-.23,0-.23-.37s5.6-2.31,5.75-2.31a.39.39,0,0,1,.34.35c0,.85-4.61,7.08-4.61,9.18C119.1,38.47,119.73,39.48,121,39.48Z"/><path class="cls-5" d="M137.49,39.48c1.29,0,1.15-.62,1.73-.62.19,0,.19.1.19.33,0,.43-.91,1.15-2,1.15-1.53,0-2.19-.19-2.91-.19s-1.54.19-2.58.19c-.77,0-1.07-.09-1.07-.39s.35-.47,1.16-.47c1.15,0,1.77-1,2.44-2.1.72-1.3,2.49-4.94,4.89-8.67a15.92,15.92,0,0,1-2.12.62c-.14,0-.28-.19-.28-.38,0-.43,4.35-1.72,5.37-1.72.33,0,.57,0,.57.23,0,.44-.72.92-1.1,1.83l.1.1a8.42,8.42,0,0,1,5.26-2.16c1.42,0,2.44.61,2.44,2.1a2.17,2.17,0,0,1-2.44,2.26c-.53,0-.88-.06-.88-.38s.64-1.06.64-1.74a1.14,1.14,0,0,0-1.24-1.19c-3.83,0-9,7.9-9,10.29C136.68,39.15,136.78,39.48,137.49,39.48Z"/><path class="cls-5" d="M170,16.91c0-.2.06-.24.2-.24a3.48,3.48,0,0,0,2.75,1.54c1.5,0,2.13-1.35,2.13-2.6,0-1.94-2.85-2.81-4.45-2.81-2.89,0-7.24,1.21-7.24,4.78,0,2.32,2.85,2.75,2.85,4.15,0,1-1.59.92-3.23,1.55-4.11,1.49-6.48,4.92-6.48,8.2,0,5.54,3.67,8,9,8,5.79,0,12-4.25,12-10.37a7.65,7.65,0,0,0-.43-2,.55.55,0,0,1,.48-.48c.39,0,.82,1.93.82,2.6,0,6.51-6.27,11.1-13.5,11.1-5.32,0-11.06-3.18-11.06-8.69,0-5.88,5.79-9,9.55-9.41,1.74-.19,2-.29,2-.72,0-.72-4.49-1.06-4.49-4.2,0-4.19,4.88-5.36,8.3-5.36,2.56,0,7.63,1,7.63,4.3a3.3,3.3,0,0,1-3.53,3.43A3.51,3.51,0,0,1,170,16.91Z"/><path class="cls-5" d="M188.34,30.66c-1.61,0-1.61-2.4-1.94-2.5a3.41,3.41,0,0,0-1-.18c-1,0-1.69.48-1.69,1.46,0,.7.89,1.83,1.74,3.06a7.59,7.59,0,0,1,1.74,4c0,2.49-2.68,3.81-4.9,3.81-2,0-2.2-.05-3.52-.8a3.54,3.54,0,0,1-1.56-2.35c0-.56.28-1.27.94-1.27.85,0,1.24,1,1.24,1.69,0,.38-.2.74-.2,1.08,0,.71,1.83.81,2.44.81,1.8,0,3.2-.9,3.2-2.74a6.5,6.5,0,0,0-1.5-3.29,6.14,6.14,0,0,1-1.41-3.25c0-2.07,1.51-3.05,3.43-3.05,1.32,0,4,.94,4,2.58C189.32,30.38,189,30.66,188.34,30.66Z"/><path class="cls-5" d="M196.62,28.36c-1.38,3.57-3.11,7.29-6.08,9.93.8,0,1.56.32,2.35.32.38,0,.89-.14,1.08-.14s.2.14.2.28c0,.85-1.23,1.56-2.5,1.56-.85,0-1.37-.33-2.36-.33a2.59,2.59,0,0,0-1.08.33c-.14,0-.18-.1-.18-.23a1.24,1.24,0,0,1,.32-.57,74.13,74.13,0,0,0,5.66-11c0-.3-1.66-.24-1.66-.48s.23-.37.47-.47c2.45-1,4.47-4.75,5.51-6.63.41-.76,2.53-3.53,3.11-3.53.09,0,.23,0,.23.19s-.28.28-.57.7c-1.45,2.17-3,6.22-4.18,9.27,1.08,0,2.21.1,2.21.29C199.15,28.22,198.45,28.31,196.62,28.36Z"/><path class="cls-5" d="M216.53,30.24c0,2.82-4.05,7.1-4.05,8.37,0,.52.2.86.71.86.85,0,1.41-.9,1.5-.9s.38,0,.38.23c0,.61-1.28,1.51-2.82,1.51-.9,0-1.79-.19-2.68-.19s-1.47.14-2.17.14-1.08-.09-1.08-.52c0-.27.23-.27.47-.27a2.2,2.2,0,0,0,2.07-.9c2.35-2.68,5.22-7.76,5.22-9,0-.93-.33-1.55-1.36-1.55-4.76,0-11.11,7.91-11.11,10.77,0,.57.34.72.85.72.9,0,1.74-1.33,2.21-1.33.05,0,.19.06.19.29,0,.75-1.41,1.93-3,1.93-1,0-1.69-.15-2.4-.15s-1.55.1-2.58.1-1.64-.61-1.64-.9.08-.37.32-.37.37.43,1,.43c1.27,0,2.35-2.22,3.2-3.68,3.53-6,11.7-23.52,19.38-23.52a3.56,3.56,0,0,1,3.48,3.62c0,.19-.23.28-.42.28s-.42-.09-.42-.28a2.62,2.62,0,0,0-2.69-2.77c-5.79,0-11.71,14.25-14.21,18.21l.09.09c2.36-1.7,5.37-4.28,8.47-4.28A3,3,0,0,1,216.53,30.24Z"/><path class="cls-5" d="M228.51,29.26c0,1.21-1.12,2.62-2.44,3.65a6.87,6.87,0,0,1-4.52,1.47c-.56,0-1-.19-1.55-.23,0-2.88,3.8-6.17,6.5-6.17C227.43,28,228.51,28.12,228.51,29.26Zm-11.43,5.92c0,3.2,2.55,5.13,5.6,5.13a8,8,0,0,0,4.09-.8c.38-.19,2.74-1.46,2.74-2.11,0-.2-.1-.29-.24-.29-.29,0-.56.29-1,.61A7.22,7.22,0,0,1,224.14,39a4.29,4.29,0,0,1-4-4,8.75,8.75,0,0,0,1.94.19,10.35,10.35,0,0,0,6-1.74c1.64-1.18,3.1-3.49,3.1-4.8a2,2,0,0,0-2.3-2C224.37,26.67,217.08,30.11,217.08,35.18Z"/><path class="cls-5" d="M238.11,28.36c-1.36,3.57-3.11,7.29-6.07,9.93.81,0,1.55.32,2.35.32.38,0,.9-.14,1.08-.14s.2.14.2.28c0,.85-1.23,1.56-2.5,1.56-.84,0-1.36-.33-2.35-.33a2.53,2.53,0,0,0-1.08.33c-.15,0-.19-.1-.19-.23a1.19,1.19,0,0,1,.33-.57,74.8,74.8,0,0,0,5.65-11c0-.3-1.65-.24-1.65-.48s.24-.37.46-.47c2.45-1,4.48-4.75,5.52-6.63.42-.76,2.54-3.53,3.09-3.53.1,0,.25,0,.25.19s-.29.28-.57.7c-1.46,2.17-3,6.22-4.19,9.27,1.08,0,2.21.1,2.21.29C240.65,28.22,240,28.31,238.11,28.36Z"/><path class="cls-5" d="M248,27.84c0,.24-.14.38-.28.62-3.25,5.83-5.32,9.12-5.32,9.83a1.1,1.1,0,0,0,1,1.18c.29,0,.52-.24.8-.24s.34,0,.34.18c0,.85-1.42.9-2.07.9-.81,0-1.6-.19-2.41-.19s-1.45.19-2.2.19-1,0-1-.33.52-.51,1.27-.51c1.31,0,3.62-5.85,5.93-9.41-.8.08-1.93.56-2.5.56a.22.22,0,0,1-.23-.24.61.61,0,0,1,.42-.52c1-.42,5.56-2.45,5.94-2.45S248,27.61,248,27.84Zm3.49-6.68a1.56,1.56,0,1,1-1.56-1.55A1.59,1.59,0,0,1,251.48,21.16Z"/><path class="cls-5" d="M249.24,36.68c0-3.43,3.95-6.82,6.82-8a10.67,10.67,0,0,1,4.05-.66,6.11,6.11,0,0,1,1.08.1,75.24,75.24,0,0,0-6,7.9c-.95,1.55-2.31,3-4,3S249.24,38.14,249.24,36.68Zm15.63-9.45c-.81,0-3-.09-4.86-.09-6.39,0-13.41,4-13.41,10.06a3.14,3.14,0,0,0,3,3,6.94,6.94,0,0,0,3.4-.84h.09c-2.26,4.09-3.81,7.76-3.81,12.5,0,.86.05,2.32.57,2.32.7,0,.7-1.08.84-2,1.13-7.66,8.38-18.25,14.3-24.75Z"/><path class="cls-5" d="M267.69,39.47c3.25,0,4.48-2.27,5.92-4.95.85-1.55,1.75-3.34,2.69-5-.33,0-1.41.38-1.74.38-.1,0-.24-.05-.24-.28a20.69,20.69,0,0,1,4.89-2c.19,0,.38.05.38.23s-.23.42-.32.71c-.75,1.88-4.85,8.75-4.85,10,0,.8.47.9,1,.9.23,0,.47-.1.71-.1s.37.1.37.28-.65.66-1.31.66c-1.47,0-2-.29-2.88-.29-.57,0-.84.29-1.27.29-.14,0-.24-.05-.24-.23a2.68,2.68,0,0,1,.48-1l-.09-.09a6.42,6.42,0,0,1-4.15,1.32c-2,0-3.66-1-3.66-3.15,0-2.73,2.35-5.23,3.52-7.58a22.73,22.73,0,0,1-2.3.66c-.19,0-.24,0-.24-.38s5.51-2.25,5.65-2.25a.35.35,0,0,1,.33.33c0,.84-4.52,7-4.52,9C265.86,38.47,266.47,39.47,267.69,39.47Z"/><path class="cls-5" d="M290.12,29.26c0,1.21-1.12,2.62-2.44,3.65a6.91,6.91,0,0,1-4.52,1.47c-.56,0-1-.19-1.55-.23,0-2.88,3.81-6.17,6.49-6.17C289,28,290.12,28.12,290.12,29.26Zm-11.43,5.92c0,3.2,2.54,5.13,5.59,5.13a8,8,0,0,0,4.1-.8c.37-.19,2.73-1.46,2.73-2.11,0-.2-.1-.29-.23-.29-.29,0-.58.29-1,.61A7.22,7.22,0,0,1,285.75,39a4.29,4.29,0,0,1-4.05-4,8.72,8.72,0,0,0,1.93.19,10.33,10.33,0,0,0,6-1.74c1.65-1.18,3.11-3.49,3.11-4.8a2.05,2.05,0,0,0-2.31-2C286,26.67,278.69,30.11,278.69,35.18Z"/><path class="cls-5" d="M257.61,47A4.34,4.34,0,1,0,262,42.61,4.35,4.35,0,0,0,257.61,47Zm.4,0A3.95,3.95,0,1,1,262,50.89,4,4,0,0,1,258,47Z"/><path class="cls-5" d="M261.11,45.06c0-.21.07-.27.46-.27s1.29,0,1.29,1-1.12,1.08-1.75,1.08Zm3.39,4.26a.82.82,0,0,1-.64-.36l-1.54-1.88c.38-.08,1.34-.26,1.34-1.25,0-1.15-1.22-1.31-1.88-1.31h-2.06v.14c.52.05.63.12.63.68v3.21c0,.57,0,.73-.63.77v.14h2.06v-.14c-.59,0-.67-.18-.67-.68V47.17h.42l1.78,2.3h1.19Z"/><path class="cls-4" d="M141.66,48.38c-.22.08-.25.1-.71.67a12.52,12.52,0,0,1-4.27,3.52,8.3,8.3,0,0,1-2,.73v-.07a16.74,16.74,0,0,0,5.93-5.15l-1.17.16-.36.08a.76.76,0,0,1-.36-.16,10.16,10.16,0,0,1-3.05,2.07l0-.06a13.65,13.65,0,0,0,3.17-3.29c0-.2-.32-.45-.42-.51a1.83,1.83,0,0,1,.55-.1c.39,0,1.12.44,1,.77,0,.1-.05.12-.34.33a4.72,4.72,0,0,0-.43.37,6.09,6.09,0,0,0,1.55-.17c.1,0,.52-.29.57-.29s.3.22.39.33c.32.36.35.41.33.5S142,48.26,141.66,48.38Z"/><path class="cls-4" d="M149.92,50.06l-.41,0c-.51,0-1.69,0-2.34,0a17.09,17.09,0,0,0-2.56.2,1.45,1.45,0,0,1-.34.08c-.3,0-.66-.69-.54-1.15a2,2,0,0,1,.35-.59c.1.7.26.74,1.26.74.55,0,3.69,0,3.92-.11a1.89,1.89,0,0,1,.38-.09c.36,0,1.07.15,1,.62C150.53,49.93,150.26,50.06,149.92,50.06Z"/><path class="cls-4" d="M155.42,48.38c-.08.16-.52,1.26-.63,1.5a6.07,6.07,0,0,1-3.18,3.1l0-.06a8.4,8.4,0,0,0,2.94-4.51c.15-.56,0-.61-.52-.79a1.92,1.92,0,0,1,.77-.24c.29,0,1,.28.9.59C155.64,48,155.45,48.32,155.42,48.38Zm1.68,3.33c-.2.13-1.09.7-1.26.83s-.25.14-.28.14c-.23,0-.47-.79-.42-1s.25-.45.29-.53c.11-.25.47-1.44.65-2.09a10.33,10.33,0,0,0,.38-1.85c-.07-.22-.42-.3-.58-.34a1.49,1.49,0,0,1,.69-.26c.31,0,1.1.32,1,.65a5.54,5.54,0,0,1-.3.53c-.19.39-.93,2.76-1.08,3.32,0,.07,0,.13.05.13a14,14,0,0,0,4-2.68l.05.06A10.45,10.45,0,0,1,157.1,51.71Z"/><path class="cls-4" d="M168.19,51.87a6.19,6.19,0,0,1-.65-.15,12.23,12.23,0,0,0-1.87-.13,16.71,16.71,0,0,0-3.31.34c-.07,0-.65.22-.7.22-.28,0-.71-.6-.55-1.19a1.56,1.56,0,0,1,.21-.43c.13.43.28.68.93.68.44,0,1.5-.09,2.15-.15a18.11,18.11,0,0,0,.61-2.45c0-.23,0-.29-.17-.34a5.55,5.55,0,0,0-.91.16l-.2,0c-.32,0-.65-.68-.49-1.08a1.19,1.19,0,0,0,.95.32,15.22,15.22,0,0,0,2.89-.3,1.35,1.35,0,0,1,.42-.11c.21,0,.72.2.63.53a.49.49,0,0,1-.5.31h-1.3l-.49,0c.27.23.3.25.27.36s-.24.43-.27.51-.13.37-.26.74L165.17,51c.3,0,1.58-.07,1.84-.1s.62-.14.71-.14c.34,0,.94.39.82.82A.37.37,0,0,1,168.19,51.87Z"/><path class="cls-4" d="M176,52.81c-.24,0-.31-.18-.37-.34a5.31,5.31,0,0,0-1.2-2.37,10.61,10.61,0,0,1-4.9,2.8v-.07a16.69,16.69,0,0,0,6.12-5.37,15.6,15.6,0,0,0-2.31.58c-.43.2-.48.22-.55.22-.23,0-.6-.53-.45-1.08a1.28,1.28,0,0,1,.21-.48c.16.46.34.6.67.6a13,13,0,0,0,2.66-.39l.33-.24a.18.18,0,0,1,.13,0c.1,0,.74.66.7.83s-.09.14-.28.22a.69.69,0,0,0-.38.27,18.68,18.68,0,0,1-1.8,2,4.27,4.27,0,0,1,1.81,1.32,1,1,0,0,1,.25.94A.76.76,0,0,1,176,52.81Z"/><path class="cls-4" d="M185.74,49.16l-1-.11c-.22,0-.4,0-.61,0s-.43,0-1.21.06c.07.05.35.26.4.31a.23.23,0,0,1,0,.15c0,.06-.06.09-.23.22a1.06,1.06,0,0,0-.25.34A7.23,7.23,0,0,1,179,53.39l0,0a9.6,9.6,0,0,0,3.17-3.8c.06-.22,0-.26-.06-.37a6.46,6.46,0,0,0-1.84.45,1,1,0,0,1-.34.08c-.31,0-.69-.63-.57-1.08a1.12,1.12,0,0,1,.2-.41.71.71,0,0,0,.74.57h.08l2.21-.24c.71-.08,2.07-.21,2.14-.23s.5-.14.58-.14c.28,0,1,.21.85.67A.38.38,0,0,1,185.74,49.16Zm-1.52-1.82c-.63,0-.66,0-2.32.21l-.19,0c-.54,0-.62-.6-.54-.87a.74.74,0,0,1,.09-.21,1.05,1.05,0,0,0,.94.38,8,8,0,0,0,1.7-.23l.58-.13c.27,0,.75.13.67.45S184.75,47.32,184.22,47.34Z"/><path class="cls-4" d="M194.39,49.16l-1-.11c-.22,0-.4,0-.61,0s-.43,0-1.2.06l.4.31a.22.22,0,0,1,0,.15c0,.06-.06.09-.23.22a1,1,0,0,0-.24.34,7.25,7.25,0,0,1-3.87,3.29l0,0a9.65,9.65,0,0,0,3.16-3.8c.06-.22,0-.26,0-.37a6.55,6.55,0,0,0-1.85.45,1,1,0,0,1-.34.08c-.31,0-.69-.63-.57-1.08a1.12,1.12,0,0,1,.2-.41.71.71,0,0,0,.74.57H189l2.21-.24c.71-.08,2.08-.21,2.14-.23s.5-.14.58-.14c.29,0,1,.21.86.67A.4.4,0,0,1,194.39,49.16Zm-1.51-1.82c-.63,0-.66,0-2.32.21l-.2,0c-.54,0-.61-.6-.54-.87a.74.74,0,0,1,.09-.21,1.06,1.06,0,0,0,.94.38,8,8,0,0,0,1.7-.23l.58-.13c.27,0,.75.13.67.45S193.4,47.32,192.88,47.34Z"/><path class="cls-4" d="M200.59,48.29a1.5,1.5,0,0,0-.34.2L199,49.55c.23.14.33.2.3.31a2.29,2.29,0,0,1-.14.27s-.17.46-.25.75-.41,1.73-.48,2-.15.55-.52.55-.3-.55-.27-.64.16-.39.18-.45c.19-.49.49-1.57.58-1.89a1.15,1.15,0,0,0,.07-.52,9.9,9.9,0,0,1-2.89,1.5v-.09a16.1,16.1,0,0,0,4.38-3.62c.05-.16,0-.24-.25-.43l.25,0a1.1,1.1,0,0,1,1,.8C200.87,48.14,200.8,48.2,200.59,48.29Z"/><path class="cls-4" d="M207.27,49.29c-.08.09-.4.55-.47.64a8.31,8.31,0,0,1-4.77,3.3v-.07a9.53,9.53,0,0,0,3.25-2.45,10.94,10.94,0,0,0,1.43-1.93c0-.14-.1-.32-.36-.48a2.59,2.59,0,0,1,.45-.06c.47,0,.88.53.84.67S207.33,49.22,207.27,49.29Zm-3.94.86c-.26,0-.3-.25-.33-.48a2.23,2.23,0,0,0-.37-1c1.08.15,1.28.65,1.18,1.05A.56.56,0,0,1,203.33,50.15Zm1.66-.44c-.27,0-.28-.16-.31-.51a2.29,2.29,0,0,0-.29-1c.42.09,1.22.47,1.06,1.06C205.41,49.43,205.26,49.71,205,49.71Z"/><path class="cls-4" d="M215,48.38c-.22.08-.25.1-.7.67A12.52,12.52,0,0,1,210,52.57a8.48,8.48,0,0,1-2,.73v-.07a16.71,16.71,0,0,0,5.92-5.15l-1.17.16a3.21,3.21,0,0,1-.36.08.7.7,0,0,1-.35-.16A10.22,10.22,0,0,1,209,50.23l0-.06a13.92,13.92,0,0,0,3.17-3.29c.05-.2-.32-.45-.42-.51a1.79,1.79,0,0,1,.55-.1c.39,0,1.12.44,1,.77,0,.1-.06.12-.34.33a3.48,3.48,0,0,0-.44.37,6.16,6.16,0,0,0,1.56-.17c.09,0,.52-.29.57-.29s.3.22.39.33c.32.36.35.41.33.5S215.29,48.26,215,48.38Z"/><g class="cls-6"><path class="cls-7" d="M12.9,93l1.55-1.81a1,1,0,0,1,.72-.46,11.86,11.86,0,0,1,2.74,1.42c1.58.95,2.37,1.58,2.37,1.91s-.31.58-.92.77a2.29,2.29,0,0,0-1.35,1,13.74,13.74,0,0,0-.93,2.25,31.89,31.89,0,0,1-6,11.41,33.91,33.91,0,0,1-10.22,8l-.51-.72A41.82,41.82,0,0,0,9.19,107a42.46,42.46,0,0,0,4.54-12.46h-9a5.25,5.25,0,0,0-2.17.36l-.93-2.12A11.34,11.34,0,0,0,4.23,93Zm13.48-.15V114a16.81,16.81,0,0,1-.26,3.41,3.24,3.24,0,0,1-1,1.78,9.13,9.13,0,0,1-2.61,1.31,9.76,9.76,0,0,1-2.3.67c-.31,0-.53-.27-.67-.82a5,5,0,0,0-1.68-3,18,18,0,0,0-5-2.25l.26-1a58.31,58.31,0,0,0,6.74.88c.91,0,1.47-.1,1.67-.31a1.5,1.5,0,0,0,.31-1.08V85.39H11.77a4.82,4.82,0,0,0-1.86.36l-1.34-2c.82.07,1.68.1,2.58.1H21l1.34-2.22q.3-.57.72-.57a13.27,13.27,0,0,1,3,1.4q2.55,1.39,2.55,1.86c0,.31-.72.82-2.16,1.54v3.31a51.49,51.49,0,0,0,3.71,7.33,55.79,55.79,0,0,0,8.83-11.72q2.58,1.61,3.82,2.43a6.77,6.77,0,0,1,1.39,1.06.78.78,0,0,1,.16.46.35.35,0,0,1-.23.34,3.07,3.07,0,0,1-1,.1,2.39,2.39,0,0,0-1.21.26,8.92,8.92,0,0,0-1.37,1.13,56.7,56.7,0,0,1-9.71,7Q37,107.08,48.88,111.3l-.15.93a8.88,8.88,0,0,0-3.54.36,4.85,4.85,0,0,0-2,1.92.84.84,0,0,1-.64.46,1.35,1.35,0,0,1-.7-.23c-.24-.16-1.52-1.23-3.84-3.23A41.59,41.59,0,0,1,32.49,106a26.66,26.66,0,0,1-3.46-5.7A57.38,57.38,0,0,1,26.38,92.88ZM14.81,74.45c4.24.34,7.4.71,9.5,1.11a9.81,9.81,0,0,1,4.31,1.57,3.69,3.69,0,0,1,1.16,3c0,1.34-.57,2-1.7,2a3.81,3.81,0,0,1-2.27-1.4,15.33,15.33,0,0,0-4.65-3.12,44.58,44.58,0,0,0-6.35-2.09Z"/><path class="cls-7" d="M76.76,84a48.86,48.86,0,0,1,.93,8.2,6.13,6.13,0,0,1-1.37,4.44A3.91,3.91,0,0,1,73.61,98a2,2,0,0,1-1.34-.47,1.72,1.72,0,0,1-.57-1.42A5,5,0,0,1,73,93.52a12.19,12.19,0,0,0,2-4,17.23,17.23,0,0,0,.59-5.44Zm6.92-.37a21.5,21.5,0,0,1,4.64,2.82,3.81,3.81,0,0,1,1.6,2.84,4.8,4.8,0,0,1-.7,2.6A1.92,1.92,0,0,1,87.65,93q-.72,0-1.08-1.44-1.25-4.91-2.89-6.66V117.5a1.13,1.13,0,0,1-.47.93,9.34,9.34,0,0,1-1.86.95,7.32,7.32,0,0,1-1.68.6c-.18,0-.25-.19-.18-.57a32.91,32.91,0,0,0,.26-5v-37c0-2.58,0-4.11-.1-4.59a35.83,35.83,0,0,1,3.48,1.1l1.89.75c.31.14.46.28.46.42s-.6.67-1.8,1.18Zm28,31.6,2.59-3.56c.24-.31.44-.47.62-.47a7,7,0,0,1,1.78,1.34,33,33,0,0,1,2.5,2.43c.65.72,1,1.23,1,1.52s-.28.44-.82.44H90.18a5.28,5.28,0,0,0-2.17.36L86.72,115a11.34,11.34,0,0,0,2.58.26Zm-2.22-36.81,2.43-3.2a1.06,1.06,0,0,1,.88-.52c.34,0,1.34.72,3,2.15s2.48,2.35,2.48,2.76c0,.21-.31.31-.93.31H91.83a5.28,5.28,0,0,0-2.17.36l-1.34-2.12a10.8,10.8,0,0,0,2.58.26ZM108,107.17H96v2.12a1.16,1.16,0,0,1-.2.75,7.3,7.3,0,0,1-1.84.83,8.28,8.28,0,0,1-2.19.59c-.17,0-.23-.19-.16-.57a34.73,34.73,0,0,0,.26-5V87.76q0-2.16-.15-4.38a23.94,23.94,0,0,1,5,2.79h10.9l1.49-2.28c.18-.24.33-.36.47-.36a9.12,9.12,0,0,1,2.84,1.73c1.55,1.16,2.32,1.82,2.32,2s-.67.72-2,1.34v15c0,1.58,0,2.72,0,3.41l.1,1.6c0,.17-.18.37-.54.59a11.86,11.86,0,0,1-2,.88,7.39,7.39,0,0,1-2,.54c-.21,0-.31-.14-.31-.41ZM96,95.3h12V87.61H96ZM108,97H96v8.67h12Z"/><path class="cls-7" d="M153.93,83.63h5l1.4-2.06c.24-.38.49-.57.77-.57a10.1,10.1,0,0,1,2.63,1.4c1.48.93,2.22,1.62,2.22,2.09s-.65,1-2,1.47v22.87c0,1.51,0,2.58.05,3.2l0,1.75a.72.72,0,0,1-.13.44,3,3,0,0,1-.92.57,17,17,0,0,1-2,.77,6.75,6.75,0,0,1-1.44.39c-.19,0-.29-.19-.29-.57v-3.25h-8.41v3.05a1,1,0,0,1-.47.87,11.58,11.58,0,0,1-2,.91,8.37,8.37,0,0,1-2,.59c-.29,0-.42-.21-.38-.62a48,48,0,0,0,.25-5.11V85.49q0-2.16-.15-4.38a28.55,28.55,0,0,1,5.21,2.37A58.48,58.48,0,0,0,153,72.07a27.49,27.49,0,0,1,4.29,1.24,13.66,13.66,0,0,1,2.32,1,.74.74,0,0,1,.31.57c0,.35-.28.59-.83.72A2.83,2.83,0,0,0,157.68,77Q156.93,78.1,153.93,83.63Zm5.42,13.27V85.29h-8.41V96.9Zm0,13.58V98.61h-8.41v11.87Zm14-25.86a81.05,81.05,0,0,1-7.84,11.92l-.88-.57a111.58,111.58,0,0,0,4.77-11.84,111.25,111.25,0,0,0,3.08-12.63c1.58.55,3,1.09,4.18,1.6a15.93,15.93,0,0,1,2.19,1.06.81.81,0,0,1,.39.65c0,.24-.29.43-.85.57a1.81,1.81,0,0,0-1.14.62A21.81,21.81,0,0,0,176,78.65q-.93,2.25-1.86,4.21h7l1.39-2.12a1.27,1.27,0,0,1,1-.67,9.29,9.29,0,0,1,2.79,1.63c1.53,1.08,2.29,1.85,2.29,2.3s-.72,1-2.16,1.6q-.37,16.16-.57,21.21a61.1,61.1,0,0,1-.54,6.9A8.08,8.08,0,0,1,184,117a7.91,7.91,0,0,1-3.15,2.45,8.35,8.35,0,0,1-3,1c-.28,0-.49-.26-.63-.77a6.68,6.68,0,0,0-1-2.27,5.6,5.6,0,0,0-2.11-1.55,27.35,27.35,0,0,0-4.55-1.55l.26-1.08q6.15.87,7.74.87a5,5,0,0,0,2.2-.33,1.77,1.77,0,0,0,.8-1.11,26.24,26.24,0,0,0,.41-3.59c.14-1.88.28-4.92.41-9.14s.23-9.32.26-15.3ZM169.78,94a58.63,58.63,0,0,1,5.16,4,16.46,16.46,0,0,1,1.91,2,2.67,2.67,0,0,1,.47,1.65,5.05,5.05,0,0,1-1.19,3.3c-.79,1-1.44,1.45-1.93,1.45s-.86-.72-1.06-2.14a22,22,0,0,0-1.37-4.8,21.71,21.71,0,0,0-2.56-4.73Z"/><path class="cls-7" d="M237.05,104.75q-2.07,7.53-7.23,10.79t-16.73,4.85l-.31-1.14q8.83-2.16,13.27-5.47a16.61,16.61,0,0,0,6.09-9H217.38a7.69,7.69,0,0,0-2.17.31l-.88-2.22a11.12,11.12,0,0,0,2.53.26h15.75c.37-1.69.7-3.75,1-6.2q6.19,1.29,6.19,2.07c0,.24-.33.5-1,.77q-.68.26-1.29,3.36h13.42l1.86-2.79c.21-.34.43-.52.67-.52q.61,0,3.12,2c1.67,1.36,2.51,2.19,2.51,2.48s-.42.44-1.24.44H239.32a16.62,16.62,0,0,0,7.53,7.28q5.16,2.63,13.89,3.77l-.1,1q-5,.19-6.87,2.84a.74.74,0,0,1-.62.41,20.27,20.27,0,0,1-4.54-1.91,19.26,19.26,0,0,1-6.33-4.85,25.28,25.28,0,0,1-4.2-8.52Zm-7.54-23.08a5.16,5.16,0,0,1-.75-1.75,11.53,11.53,0,0,0-1.32-2.81,22.84,22.84,0,0,0-3-3.39l.41-.72q7.8,2,7.8,5.32a4.13,4.13,0,0,1-.47,1.86,3.82,3.82,0,0,1-1.29,1.49h8.57a40.26,40.26,0,0,0,4-9,22.07,22.07,0,0,1,4.18,1.63c1,.53,1.44.94,1.44,1.21s-.31.5-.93.67q-1.75.52-5.93,5.47h8.67l2.32-2.89c.35-.44.64-.67.88-.67a10.54,10.54,0,0,1,2.63,2.12c1.52,1.41,2.27,2.29,2.27,2.63s-.39.52-1.18.52H238.75v5h8.88l1.8-2.73c.28-.41.54-.62.78-.62s1.33.67,3,2,2.45,2.18,2.45,2.51-.33.49-1,.49h-15.9v5.11h14.14l1.71-2.27a1.1,1.1,0,0,1,.82-.57q.68,0,2.82,1.83c1.42,1.22,2.14,2,2.14,2.35s-.42.31-1.24.31H216a6.29,6.29,0,0,0-2.17.36l-.87-2.27a10.7,10.7,0,0,0,2.53.26h18.37V90h-12.9a5.59,5.59,0,0,0-2.12.36l-.93-2.27a11.23,11.23,0,0,0,2.53.25h13.42v-5H218.1a5.54,5.54,0,0,0-2.12.31l-.93-2.22a11.94,11.94,0,0,0,2.53.2Z"/></g><path class="cls-8" d="M12.6,92.72l1.54-1.8a1,1,0,0,1,.73-.47,12.41,12.41,0,0,1,2.73,1.42c1.59.95,2.38,1.59,2.38,1.91s-.31.59-.93.78a2.2,2.2,0,0,0-1.34,1,11.7,11.7,0,0,0-.93,2.24,32,32,0,0,1-6,11.41,34,34,0,0,1-10.22,8L0,116.47a41.8,41.8,0,0,0,8.88-9.78,42.25,42.25,0,0,0,4.54-12.47h-9a5.28,5.28,0,0,0-2.17.36l-.93-2.11a11.45,11.45,0,0,0,2.58.25Zm13.47-.15v21.11a16.74,16.74,0,0,1-.26,3.41,3.15,3.15,0,0,1-1,1.78,9.37,9.37,0,0,1-2.61,1.32,10.32,10.32,0,0,1-2.3.67c-.31,0-.53-.28-.67-.83a5,5,0,0,0-1.67-3,18.05,18.05,0,0,0-5-2.24l.26-1a60.05,60.05,0,0,0,6.74.87,2.75,2.75,0,0,0,1.68-.31,1.51,1.51,0,0,0,.31-1.08V85.08H11.46a4.9,4.9,0,0,0-1.86.37l-1.34-2c.83.07,1.69.11,2.58.11h9.81L22,81.32q.32-.57.72-.57a12.77,12.77,0,0,1,3,1.39c1.71.93,2.56,1.55,2.56,1.86s-.73.83-2.17,1.55v3.3a51.48,51.48,0,0,0,3.72,7.33,56.13,56.13,0,0,0,8.82-11.72c1.72,1.07,3,1.88,3.82,2.43A7.35,7.35,0,0,1,43.83,88a.84.84,0,0,1,.15.46.35.35,0,0,1-.23.34,3.07,3.07,0,0,1-1,.1,2.42,2.42,0,0,0-1.21.26,9,9,0,0,0-1.37,1.14,56.59,56.59,0,0,1-9.7,7q6.2,9.56,18.12,13.79l-.16.93a8.7,8.7,0,0,0-3.54.36,4.8,4.8,0,0,0-2,1.91c-.21.31-.42.46-.65.46a1.32,1.32,0,0,1-.69-.23q-.37-.23-3.85-3.23a42.67,42.67,0,0,1-5.52-5.54A26.57,26.57,0,0,1,28.73,100,57.31,57.31,0,0,1,26.07,92.57ZM14.51,74.14q6.34.51,9.49,1.11a9.93,9.93,0,0,1,4.31,1.57,3.71,3.71,0,0,1,1.17,3q0,2-1.71,2a3.81,3.81,0,0,1-2.27-1.39,15.32,15.32,0,0,0-4.64-3.13,47.75,47.75,0,0,0-6.35-2.09Z"/><path class="cls-8" d="M76.45,83.69a49,49,0,0,1,.93,8.21A6.16,6.16,0,0,1,76,96.34a3.87,3.87,0,0,1-2.71,1.39A2.06,2.06,0,0,1,72,97.27a1.73,1.73,0,0,1-.57-1.42,5,5,0,0,1,1.32-2.64,11.77,11.77,0,0,0,2-4,17.28,17.28,0,0,0,.6-5.45Zm6.92-.36A21.13,21.13,0,0,1,88,86.14,3.82,3.82,0,0,1,89.62,89a5,5,0,0,1-.7,2.61,1.93,1.93,0,0,1-1.58,1.13q-.72,0-1.08-1.44Q85,86.38,83.37,84.62v32.57a1.13,1.13,0,0,1-.47.93,9.61,9.61,0,0,1-1.85,1,7.59,7.59,0,0,1-1.68.59q-.28,0-.18-.57a34.3,34.3,0,0,0,.26-5v-37c0-2.58,0-4.11-.11-4.59,1.38.38,2.54.75,3.49,1.11s1.57.61,1.88.75.47.27.47.41-.61.67-1.81,1.19Zm28,31.59,2.58-3.56c.24-.31.45-.47.62-.47a6.86,6.86,0,0,1,1.78,1.35,31.28,31.28,0,0,1,2.5,2.42c.66.73,1,1.23,1,1.53s-.27.43-.82.43H89.87a5.18,5.18,0,0,0-2.16.37l-1.29-2.33a11.34,11.34,0,0,0,2.58.26Zm-2.22-36.81,2.42-3.2a1.06,1.06,0,0,1,.88-.51c.35,0,1.34.71,3,2.14s2.47,2.35,2.47,2.76c0,.21-.31.31-.93.31H91.53a5.25,5.25,0,0,0-2.17.36L88,77.86a11.54,11.54,0,0,0,2.59.25Zm-1.45,28.76h-12V109a1.08,1.08,0,0,1-.21.75,7,7,0,0,1-1.83.83,8,8,0,0,1-2.2.59q-.26,0-.15-.57a36.19,36.19,0,0,0,.26-5V87.46c0-1.45-.06-2.91-.16-4.39a24.51,24.51,0,0,1,5,2.79h10.89l1.5-2.27c.17-.24.32-.36.46-.36A8.88,8.88,0,0,1,112.07,85c1.55,1.16,2.32,1.82,2.32,2s-.67.72-2,1.34v15c0,1.59,0,2.72.05,3.41l.11,1.6c0,.17-.19.37-.55.6a13,13,0,0,1-2,.87,7.45,7.45,0,0,1-2,.55c-.2,0-.31-.14-.31-.42ZM95.66,95h12V87.3h-12Zm12,1.7h-12v8.67h12Z"/><path class="cls-8" d="M153.63,83.33h5l1.4-2.07c.24-.37.5-.56.77-.56a9.72,9.72,0,0,1,2.64,1.39c1.47.93,2.22,1.63,2.22,2.09s-.66.95-2,1.47v22.87c0,1.51,0,2.58.06,3.2l.05,1.76a.75.75,0,0,1-.13.43,3.27,3.27,0,0,1-.93.57,17.36,17.36,0,0,1-2,.78,7.32,7.32,0,0,1-1.45.38c-.19,0-.28-.19-.28-.56v-3.26h-8.42v3.05a1,1,0,0,1-.46.88,13.42,13.42,0,0,1-2,.9,7.87,7.87,0,0,1-2,.59c-.3,0-.43-.2-.39-.62a47.8,47.8,0,0,0,.26-5.11V85.19c0-1.45-.05-2.91-.16-4.39a29,29,0,0,1,5.22,2.37,59.28,59.28,0,0,0,1.6-11.4A27.67,27.67,0,0,1,156.93,73a12.91,12.91,0,0,1,2.32,1,.72.72,0,0,1,.31.56c0,.35-.27.59-.82.73s-.87.54-1.37,1.31S155.62,79.65,153.63,83.33Zm5.42,13.27V85h-8.42V96.6Zm0,13.57V98.3h-8.42v11.87Zm14-25.86a81.28,81.28,0,0,1-7.85,11.92l-.88-.56a110.69,110.69,0,0,0,4.78-11.85,111.27,111.27,0,0,0,3.07-12.62c1.58.55,3,1.08,4.18,1.6a14.23,14.23,0,0,1,2.19,1.06.8.8,0,0,1,.39.64c0,.24-.28.43-.85.57a1.86,1.86,0,0,0-1.14.62,23.27,23.27,0,0,0-1.21,2.66c-.62,1.49-1.24,2.9-1.86,4.2h7l1.4-2.11c.31-.45.62-.67.95-.67A9.14,9.14,0,0,1,186,81.39c1.53,1.09,2.3,1.85,2.3,2.3s-.73,1-2.17,1.6q-.36,16.15-.57,21.22a60.86,60.86,0,0,1-.54,6.89,8.18,8.18,0,0,1-1.37,3.28,8,8,0,0,1-3.15,2.45,8.48,8.48,0,0,1-3,1c-.28,0-.48-.25-.62-.77a7.19,7.19,0,0,0-1-2.27,5.76,5.76,0,0,0-2.12-1.55,28.13,28.13,0,0,0-4.54-1.55l.25-1.08c4.1.58,6.68.88,7.75.88a5,5,0,0,0,2.19-.34,1.68,1.68,0,0,0,.8-1.11,24.45,24.45,0,0,0,.41-3.59c.14-1.87.28-4.92.42-9.13s.22-9.32.26-15.31Zm-3.57,9.34a63,63,0,0,1,5.17,4,18.24,18.24,0,0,1,1.91,2,2.67,2.67,0,0,1,.46,1.65,5,5,0,0,1-1.19,3.31c-.79,1-1.43,1.44-1.93,1.44s-.85-.71-1.06-2.14a23.88,23.88,0,0,0-3.92-9.52Z"/><path class="cls-8" d="M236.74,104.44q-2.07,7.55-7.23,10.79t-16.72,4.85l-.31-1.13q8.82-2.17,13.26-5.47a16.67,16.67,0,0,0,6.09-9H217.07a7.74,7.74,0,0,0-2.17.31l-.88-2.22a11.19,11.19,0,0,0,2.53.26H232.3a60.18,60.18,0,0,0,1-6.19c4.13.86,6.19,1.54,6.19,2.06,0,.24-.32.5-1,.77-.45.18-.87,1.29-1.29,3.36h13.42l1.86-2.79c.21-.34.43-.51.67-.51.42,0,1.46.68,3.13,2s2.5,2.18,2.5,2.47-.41.44-1.24.44H239a16.59,16.59,0,0,0,7.54,7.28q5.16,2.64,13.88,3.77l-.1,1c-3.34.14-5.63,1.08-6.87,2.84a.74.74,0,0,1-.62.41,20.47,20.47,0,0,1-4.54-1.91A19,19,0,0,1,242,113a25,25,0,0,1-4.21-8.52ZM229.2,81.37a5.37,5.37,0,0,1-.75-1.76,11.5,11.5,0,0,0-1.31-2.81,22.49,22.49,0,0,0-3-3.38l.42-.73q7.78,2,7.79,5.32a4.12,4.12,0,0,1-.46,1.86,3.86,3.86,0,0,1-1.3,1.5h8.57a40,40,0,0,0,4-9A23.21,23.21,0,0,1,247.32,74c1,.53,1.45.94,1.45,1.21s-.31.5-.93.67c-1.17.35-3.15,2.17-5.94,5.48h8.67l2.33-2.89c.34-.45.63-.68.87-.68a10.68,10.68,0,0,1,2.64,2.12c1.51,1.41,2.27,2.29,2.27,2.63s-.4.52-1.19.52H238.44v5h8.88l1.81-2.74c.27-.41.53-.62.77-.62s1.33.67,3,2,2.45,2.17,2.45,2.5-.33.49-1,.49h-15.9v5.11h14.15l1.7-2.27a1.1,1.1,0,0,1,.83-.57c.44,0,1.38.61,2.81,1.83s2.14,2,2.14,2.35-.41.31-1.24.31H215.68a6.21,6.21,0,0,0-2.17.36l-.88-2.27a10.7,10.7,0,0,0,2.53.26h18.38V89.73H220.63a5.54,5.54,0,0,0-2.11.36l-.93-2.27a11.06,11.06,0,0,0,2.53.26h13.42v-5H217.79a5.49,5.49,0,0,0-2.11.31l-.93-2.22a11.11,11.11,0,0,0,2.53.21Z"/></g></g></g></svg>