<svg xmlns="http://www.w3.org/2000/svg" viewBox="0 0 208.54 34.14"><defs><style>.cls-1{fill:#ea617c;}</style></defs><title>txt_fc001.svg_1</title><g id="レイヤー_2" data-name="レイヤー 2"><g id="レイヤー_2-2" data-name="レイヤー 2"><path class="cls-1" d="M60.22,14.92a45.53,45.53,0,0,1-1.49,9.71,24.27,24.27,0,0,1-4.48,9,12.74,12.74,0,0,0-2.4-3,18.78,18.78,0,0,0,3.9-7.29,34.4,34.4,0,0,0,1.37-8.39H55.66a21.77,21.77,0,0,0-3,.17V11.67a21,21,0,0,0,3.22.18h1.32c0-.59,0-.88,0-1.52a18.39,18.39,0,0,0-.18-3.54H60.6a10,10,0,0,0-.18,1.93c0,.29,0,1.34-.08,3.13H63a31.4,31.4,0,0,0,3.28-.12,42.65,42.65,0,0,0-.15,5.5,74.46,74.46,0,0,1-.88,12.28c-.55,2.61-1.37,3.34-3.8,3.34a26.9,26.9,0,0,1-3-.21,10.12,10.12,0,0,0-.53-3.13,14.53,14.53,0,0,0,2.84.35c.88,0,1.11-.2,1.37-1.17a39.86,39.86,0,0,0,.76-6.93c.12-2.6.12-2.6.18-6.84ZM71.13,33H67.85A26.32,26.32,0,0,0,68,29.66V12.87a22.5,22.5,0,0,0-.15-3.07,17.37,17.37,0,0,0,2.64.14h5.55a16.7,16.7,0,0,0,2.64-.14,22.5,22.5,0,0,0-.15,3.07V29.63a24,24,0,0,0,.18,3.25H75.43V30.8h-4.3Zm0-5.14h4.3v-15h-4.3Z"/><path class="cls-1" d="M93,17.4c0,1.35,0,2.05,0,2.67,1.58-1.88,2.2-4.51,2.2-9.54a27.19,27.19,0,0,0-.12-2.87,17.61,17.61,0,0,0,2.54.12h6.67a19,19,0,0,0,2.81-.12c-.06.76-.09,1.55-.09,2.9v9.53c0,2.11-.84,2.81-3.42,2.81-.79,0-1.29,0-3-.11a7.86,7.86,0,0,0-.68-2.61,18.12,18.12,0,0,0,3,.27c.88,0,1.08-.12,1.08-.71v-.93H97.27a9.52,9.52,0,0,1-3.36,4.68H103a23.49,23.49,0,0,0,2.66-.12c0,.35,0,.35-.09,1,0,.32-.06.93-.06,1.63V30.1h.82a13.71,13.71,0,0,0,2.08-.12v3.16a31.91,31.91,0,0,0-3.34-.15H85.6c-1.37,0-2.6.06-3.45.15V30a13.38,13.38,0,0,0,2,.12h.76v-4c0-.5-.06-1.43-.12-2.78a25,25,0,0,0,2.72.12h5.71a10.86,10.86,0,0,0-2.31-1.64,9.62,9.62,0,0,0,1.72-1.35c-.58,0-1.25,0-2.19,0H85.87a21.63,21.63,0,0,0-2.81.11,30.29,30.29,0,0,0,.11-3.16v-6.7A22.78,22.78,0,0,0,83.06,8a22.82,22.82,0,0,0,2.66.12h4.71A20.93,20.93,0,0,0,93.09,8,20.82,20.82,0,0,0,93,10.68Zm-6.93.5h4.07V15.56H86.07Zm0-4.88h4V10.73h-4ZM87.91,30.1h2.93V26.21H87.91Zm5.68,0h3V26.21h-3Zm4.47-15.5c-.06.49-.14,1.19-.2,1.63h6.2V14.6Zm6-2.55V10.41H98.21l0,1.64ZM99.35,30.1h3.16V26.21H99.35Z"/><path class="cls-1" d="M123.8,9.54c-.3-.5-.62-1-1.32-2l3-1.32a19.1,19.1,0,0,1,2.08,3.28h6.29a26.44,26.44,0,0,0,3.68-.18v3.25c-.87-.09-2.19-.15-3.62-.15H116.63c0,12.4-.7,16.82-3.36,21.21a13.38,13.38,0,0,0-2.61-2.52,14.76,14.76,0,0,0,2.17-5.94,67.23,67.23,0,0,0,.61-11.38c0-2.39,0-3.45-.12-4.44,1.06.09,2.17.15,3.49.15Zm9.94,6.9a18.26,18.26,0,0,0,3.1-.18v3.22a21.56,21.56,0,0,0-3-.18H127.6v3.08H133a18.8,18.8,0,0,0,2.58-.12,28.19,28.19,0,0,0-.12,2.95V30a31.39,31.39,0,0,0,.17,3.8h-3.33V32.53H121.43v1.22h-3.31a26.23,26.23,0,0,0,.18-3.59V24.83a20.89,20.89,0,0,0-.12-2.57,19.9,19.9,0,0,0,2.6.12h3.75V16.09a16.18,16.18,0,0,0-.15-2.9h3.37a15.76,15.76,0,0,0-.15,2.9v.35ZM121.43,29.63h10.82V25.3H121.43Z"/><path class="cls-1" d="M145.87,27.12a28.63,28.63,0,0,1-4.09,1.9,9.62,9.62,0,0,0-1.7-2.55,21,21,0,0,0,6.55-2.89h-3.07a30.76,30.76,0,0,0-3.22.14V20.94a32.28,32.28,0,0,0,3.31.15h5.76a6.24,6.24,0,0,0,.73-.94H146.2c-1,0-1.64,0-2.32.06.06-.67.09-1.26.09-2V14c0-.76,0-1.37-.09-2a19.6,19.6,0,0,0,2.32.09h1.28V10.94h-3.8a22.12,22.12,0,0,0-3.22.2V8.31a28.7,28.7,0,0,0,3.28.17h3.74V8.34a8.94,8.94,0,0,0-.11-1.58h3.27a7.62,7.62,0,0,0-.12,1.58v.14h6V8.34a11.73,11.73,0,0,0-.09-1.58h3.25a7.81,7.81,0,0,0-.12,1.58v.14h3.95a29.26,29.26,0,0,0,3.31-.17v2.83a22.31,22.31,0,0,0-3.22-.2h-4v1.11h1.61a19.4,19.4,0,0,0,2.31-.09c-.06.65-.09,1.23-.09,2v4.18a19.57,19.57,0,0,0,.09,2c-.67,0-1.37-.06-2.34-.06h-7.78c-.38.62-.41.65-.61.94h10.94a32.35,32.35,0,0,0,3.3-.15v2.78a25.89,25.89,0,0,0-3.22-.14h-3.16a14.15,14.15,0,0,0,3.13,1.66,17.81,17.81,0,0,0,3.84,1.06,11.26,11.26,0,0,0-1.49,2.78,25.52,25.52,0,0,1-4-1.73c-.56,5.64-1.05,6.26-5.18,6.26-.64,0-1.14,0-2.25-.06a7.45,7.45,0,0,0-.94-2.84,16.9,16.9,0,0,0,2.93.27c1.93,0,2.1-.18,2.37-2.84h-5.24c-1.73,3.22-4.85,5-10,5.82a10.56,10.56,0,0,0-1.58-2.57c3.95-.38,6.55-1.41,8.16-3.25h-1.93a14.38,14.38,0,0,0-2.55.15Zm1-12.12h13.57v-.93H146.9Zm0,3h13.57V17H146.9Zm3.77,5.59A20.26,20.26,0,0,1,148,25.83h3.69a4.68,4.68,0,0,0,.26-1.67l3.27.12c0,.11-.2.64-.43,1.55h4.82a15.64,15.64,0,0,1-2.72-2.25Zm5.88-12.64h-6v1.11h6Z"/><path class="cls-1" d="M190.82,13.13A18.24,18.24,0,0,0,193.6,13v2.48a18.05,18.05,0,0,0-2.78-.11h-5.55V16.7h5.55a18.24,18.24,0,0,0,2.78-.14V19a20.19,20.19,0,0,0-2.78-.12h-5.55v1.32h6.81a17.47,17.47,0,0,0,2.84-.15v2.7a17.28,17.28,0,0,0-2.81-.15h-7.72v1.55h8.31A21.46,21.46,0,0,0,196,24v3a20.53,20.53,0,0,0-3.33-.18h-5.8a25,25,0,0,0,9.66,3.69,9.59,9.59,0,0,0-1.09,1.72c0,.06-.14.33-.32.74-.06.11-.14.32-.26.55A29.15,29.15,0,0,1,189,31.39a17.6,17.6,0,0,1-4.74-3.28c.06.88.09,1.61.09,1.93v1.7a8,8,0,0,0,.17,2.1h-3.48a8.06,8.06,0,0,0,.18-2.07V30c0-.67,0-1.23.09-1.93a16.92,16.92,0,0,1-5.3,3.57,26.75,26.75,0,0,1-5.2,1.81,13.53,13.53,0,0,0-1.64-2.92,23.08,23.08,0,0,0,6.32-1.88,12.83,12.83,0,0,0,3.15-1.87H173a20.34,20.34,0,0,0-3.31.18V24a21.07,21.07,0,0,0,3.31.15h8.22V22.64h-5.79c-1.14,0-1.79,0-2.49.09a17.44,17.44,0,0,0,.12-2.34V16.76c0-.94,0-1.73.09-2.54a15.4,15.4,0,0,1-2.7,2.54A11.1,11.1,0,0,0,169,13.89a18.62,18.62,0,0,0,5.36-5.64,9.45,9.45,0,0,0,.93-1.9l3.4.55a21.43,21.43,0,0,1-1.61,2.46H183a8.9,8.9,0,0,0-1-2.08l3.19-.73a12.12,12.12,0,0,1,1.26,2.81h5.5a18.09,18.09,0,0,0,2.83-.15v2.72a19.88,19.88,0,0,0-2.42-.11h-7v1.31Zm-8.6-1.31h-6.08v1.31h6.08Zm-6.08,3.54V16.7h6.08V15.36Zm0,3.56v1.32h6.08V18.92Z"/><path class="cls-1" d="M204.45,25.54a10,10,0,0,0,.06-1.23c0-.35,0-.35-.09-2.11L204,12.26c-.06-1.29-.15-2.75-.26-3.57h4.79c-.09.79-.2,2.31-.26,3.57l-.41,9.94c-.06,1.73-.06,1.73-.06,2.11a10,10,0,0,0,.06,1.23Zm-.41,6.4v-4h4.24v4Z"/><polygon class="cls-1" points="19.75 24.45 9.87 14.58 0 24.45 2.44 24.45 2.44 34.14 4.33 34.14 4.33 24.45 15.42 24.45 15.42 34.14 17.32 34.14 17.32 24.45 19.75 24.45"/><rect class="cls-1" x="5.8" y="25.71" width="2.75" height="2.74"/><rect class="cls-1" x="11.2" y="25.71" width="2.74" height="2.74"/><rect class="cls-1" x="5.8" y="29.83" width="2.75" height="2.74"/><rect class="cls-1" x="11.2" y="29.83" width="2.74" height="2.74"/><polygon class="cls-1" points="40.65 24.45 30.77 14.58 20.9 24.45 23.33 24.45 23.33 34.14 25.22 34.14 25.22 24.45 36.32 24.45 36.32 34.14 38.21 34.14 38.21 24.45 40.65 24.45"/><rect class="cls-1" x="26.71" y="25.71" width="2.74" height="2.74"/><rect class="cls-1" x="32.1" y="25.71" width="2.74" height="2.74"/><rect class="cls-1" x="26.71" y="29.83" width="2.74" height="2.74"/><rect class="cls-1" x="32.1" y="29.83" width="2.74" height="2.74"/><polygon class="cls-1" points="30.18 9.87 20.31 0 10.43 9.87 12.88 9.87 12.88 19.56 14.78 19.56 14.78 9.87 25.87 9.87 25.87 19.56 27.77 19.56 27.77 9.87 30.18 9.87"/><rect class="cls-1" x="16.25" y="11.13" width="2.75" height="2.75"/><rect class="cls-1" x="21.66" y="11.13" width="2.73" height="2.75"/><rect class="cls-1" x="16.25" y="15.25" width="2.75" height="2.74"/><rect class="cls-1" x="21.66" y="15.25" width="2.73" height="2.74"/></g></g></svg>