<svg id="btn_footer001.svg" xmlns="http://www.w3.org/2000/svg" width="61.15" height="18.6" viewBox="0 0 61.15 18.6">
  <defs>
    <style>
      .cls-1 {
        fill: #fff;
        fill-rule: evenodd;
      }
    </style>
  </defs>
  <path id="_" data-name="★" class="cls-1" d="M1100,4701.1l-2.4,7.12h-7.16l5.72,4.28-2.22,7.2,6.06-4.36,6.06,4.36-2.22-7.2,5.72-4.28h-7.16Z" transform="translate(-1090.44 -4701.09)"/>
  <path id="中文" class="cls-1" d="M1124.05,4707.52v6.8h5.2v3.93h1.47v-3.93h5.32v-6.8h-5.32v-2.41h-1.47v2.41h-5.2Zm5.2,5.35h-3.74v-3.9h3.74v3.9Zm5.31,0h-3.84v-3.9h3.84v3.9Zm16.98,3.89a13.7,13.7,0,0,1-5.31-2.04,13.615,13.615,0,0,0,3.39-6.22h1.99v-1.45h-5.81v-1.98h-1.53v1.98h-5.77v1.45h1.89a13.122,13.122,0,0,0,3.49,6.2,12.841,12.841,0,0,1-5.3,2.1l0.7,1.49a15.011,15.011,0,0,0,5.8-2.58,16.2,16.2,0,0,0,5.67,2.58Zm-3.5-8.26a11.334,11.334,0,0,1-3,5.28,11.748,11.748,0,0,1-3.11-5.28h6.11Z" transform="translate(-1090.44 -4701.09)"/>
</svg>
