<svg aria-hidden="true" style="position: absolute; width: 0; height: 0; overflow: hidden;" version="1.1" xmlns="http://www.w3.org/2000/svg" xmlns:xlink="http://www.w3.org/1999/xlink">
<defs>
<symbol id="icon-btn_footer002" viewBox="0 0 151 32">
<title>Weibo</title>
<path d="M29.227 0.018c-0.174-0.011-0.376-0.017-0.581-0.017-0.732 0-1.446 0.077-2.135 0.224l0.067-0.012c-0.702 0.146-1.221 0.759-1.221 1.493 0 0.841 0.682 1.524 1.524 1.524 0.107 0 0.211-0.011 0.312-0.032l-0.010 0.002c0.47-0.107 1.010-0.168 1.563-0.168 2.163 0 4.107 0.934 5.453 2.42l0.006 0.006c1.176 1.322 1.894 3.073 1.894 4.992 0 0.827-0.134 1.624-0.38 2.368l0.015-0.053c-0.050 0.143-0.078 0.307-0.078 0.478 0 0.831 0.673 1.504 1.504 1.504 0.671 0 1.24-0.44 1.433-1.047l0.003-0.011c0.322-0.967 0.508-2.080 0.508-3.236 0-2.693-1.009-5.15-2.669-7.015l0.009 0.011c-1.795-2-4.343-3.293-7.194-3.43l-0.024-0.001zM15.733 4.533c-3.978 0.923-7.376 2.997-9.922 5.848l-0.016 0.018c-3.68 3.716-5.796 7.68-5.796 11.093 0 6.542 8.284 10.489 16.391 10.489 10.631 0 17.724-6.24 17.724-11.2-0.206-2.682-2.155-4.855-4.708-5.398l-0.039-0.007c-0.551-0.16-0.942-0.231-0.658-0.978 0.325-0.584 0.517-1.282 0.517-2.024 0-0.702-0.171-1.364-0.475-1.946l0.011 0.023c-1.262-1.831-4.782-1.742-8.764-0.053 0 0-1.227 0.587-0.907-0.409 0.265-0.565 0.42-1.227 0.42-1.924 0-1.021-0.331-1.964-0.891-2.729l0.009 0.013c-0.596-0.544-1.392-0.877-2.267-0.877-0.223 0-0.441 0.022-0.652 0.063l0.021-0.003zM28.96 5.351c-0.062-0.003-0.136-0.004-0.209-0.004-0.373 0-0.737 0.040-1.087 0.117l0.033-0.006c-0.603 0.141-1.045 0.674-1.045 1.31 0 0.103 0.012 0.203 0.033 0.299l-0.002-0.009c0.124 0.579 0.632 1.007 1.239 1.007 0.096 0 0.19-0.011 0.28-0.031l-0.008 0.002c0.157-0.034 0.338-0.054 0.524-0.054 0.741 0 1.408 0.314 1.875 0.817l0.001 0.002c0.391 0.442 0.63 1.026 0.63 1.667 0 0.268-0.042 0.527-0.12 0.769l0.005-0.018c-0.040 0.12-0.063 0.259-0.063 0.403 0 0.573 0.363 1.061 0.871 1.247l0.009 0.003c0.118 0.039 0.253 0.062 0.394 0.062 0.571 0 1.055-0.373 1.222-0.888l0.003-0.009c0.152-0.464 0.24-0.998 0.24-1.553 0-2.729-2.126-4.961-4.812-5.131l-0.015-0.001zM17.262 14.044c5.404 0.196 9.76 2.933 10.133 6.684 0.409 4.284-4.48 8.302-10.951 8.942s-12.107-2.329-12.516-6.631 4.516-8.302 10.987-8.942c0.47-0.045 1.015-0.071 1.567-0.071 0.274 0 0.547 0.006 0.818 0.019l-0.038-0.001zM14.72 17.227c-2.415 0.207-4.459 1.619-5.546 3.625l-0.018 0.037c-0.336 0.646-0.534 1.41-0.534 2.221 0 2.238 1.504 4.125 3.557 4.704l0.034 0.008c0.624 0.203 1.342 0.319 2.087 0.319 2.737 0 5.107-1.576 6.25-3.87l0.018-0.040c0.277-0.592 0.439-1.286 0.439-2.018 0-2.365-1.69-4.335-3.928-4.768l-0.031-0.005c-0.535-0.149-1.148-0.235-1.782-0.235-0.192 0-0.383 0.008-0.571 0.023l0.025-0.002zM16.196 20.836c0.090 0.001 0.176 0.020 0.253 0.055l-0.004-0.002c0.264 0.096 0.448 0.345 0.448 0.636 0 0.126-0.034 0.244-0.094 0.345l0.002-0.003c-0.165 0.279-0.465 0.463-0.807 0.463-0.112 0-0.22-0.020-0.319-0.056l0.007 0.002c-0.244-0.101-0.412-0.337-0.412-0.613 0-0.136 0.041-0.262 0.111-0.368l-0.002 0.002c0.174-0.275 0.474-0.456 0.817-0.462h0.001zM13.191 21.76c0.018-0.001 0.039-0.001 0.059-0.001 0.275 0 0.535 0.059 0.77 0.166l-0.012-0.005c0.614 0.283 1.033 0.893 1.033 1.6 0 0.38-0.12 0.731-0.325 1.018l0.004-0.005c-0.431 0.717-1.205 1.189-2.089 1.189-0.31 0-0.606-0.058-0.878-0.164l0.017 0.006c-0.602-0.29-1.011-0.895-1.011-1.596 0-0.389 0.126-0.748 0.339-1.040l-0.004 0.005c0.444-0.705 1.216-1.168 2.097-1.173h0.001z"></path>
<path d="M74.844 9.973l4.498 16.693h3.84l5.867-19.751h-3.129l-4.658 16.622-4.48-16.622h-3.858l-4.48 16.622-4.658-16.622h-3.147l5.884 19.751h3.84zM105.529 20.249c0.005-0.137 0.008-0.299 0.008-0.461 0-1.536-0.27-3.010-0.765-4.375l0.028 0.089c-0.907-2.348-3.146-3.984-5.768-3.984-0.047 0-0.094 0.001-0.142 0.002l0.007-0c-3.876 0-6.791 3.147-6.791 7.876 0 3.129 1.493 7.662 7.538 7.662 0.042 0.001 0.092 0.001 0.143 0.001 1.645 0 3.21-0.347 4.624-0.972l-0.073 0.029v-2.809c-1.26 0.794-2.791 1.264-4.433 1.264-0.066 0-0.133-0.001-0.199-0.002l0.010 0c-0.167 0.023-0.361 0.036-0.557 0.036-2.373 0-4.297-1.924-4.297-4.297 0-0.021 0-0.042 0-0.063l-0 0.003h10.667zM94.898 17.973c0 0 0-0 0-0 0-2.183 1.765-3.954 3.946-3.964h0.001c0.009-0 0.019-0 0.030-0 2.135 0 3.865 1.73 3.865 3.865 0 0.035-0 0.070-0.001 0.105l0-0.005h-7.84zM113.333 6.72h-3.164v3.129h3.164v-3.129zM113.138 11.929h-2.773v14.738h2.773v-14.738zM121.422 24.871c1.030 1.336 2.632 2.188 4.432 2.188 0.042 0 0.084-0 0.126-0.001l-0.006 0c4.089 0 6.578-3.431 6.578-7.769 0-4.302-2.489-7.769-6.542-7.769-1.811 0.005-3.433 0.814-4.527 2.090l-0.007 0.008v-7.627h-2.791v20.676h2.738v-1.796zM121.369 19.289c0-4.32 2.667-5.227 4.231-5.227 2.951 0 4.196 2.56 4.196 5.227 0 2.596-1.191 5.209-4.196 5.209-1.564 0-4.231-0.889-4.231-5.209zM136.462 19.289c0.259 3.814 3.416 6.809 7.273 6.809 4.026 0 7.289-3.263 7.289-7.289s-3.263-7.289-7.289-7.289c-0.001 0-0.001 0-0.002 0h0c-0.003 0-0.007 0-0.011 0-4.019 0-7.276 3.258-7.276 7.276 0 0.173 0.006 0.345 0.018 0.515l-0.001-0.023zM139.218 19.289c0-4.053 2.684-5.227 4.516-5.227s4.498 1.227 4.498 5.227c0 4.036-2.667 5.209-4.498 5.209-1.796 0-4.516-1.138-4.516-5.209z"></path>
</symbol>
<symbol id="icon-btn_footer001" viewBox="0 0 105 32">
<title>中文</title>
<path d="M16.447 0.017l-4.129 12.249h-12.318l9.841 7.363-3.819 12.387 10.426-7.501 10.426 7.501-3.819-12.387 9.841-7.363h-12.318z"></path>
<path d="M57.824 11.062v11.699h8.946v6.761h2.529v-6.761h9.153v-11.699h-9.153v-4.146h-2.529v4.146h-8.946zM66.77 20.267h-6.434v-6.71h6.434v6.71zM75.905 20.267h-6.606v-6.71h6.606v6.71zM105.118 26.959c-3.449-0.561-6.529-1.794-9.225-3.565l0.089 0.055c2.768-2.895 4.804-6.513 5.799-10.54l0.034-0.161h3.424v-2.495h-9.996v-3.406h-2.632v3.406h-9.927v2.495h3.252c1.042 4.201 3.142 7.815 6.004 10.666l0.001 0.001c-2.584 1.793-5.664 3.066-8.992 3.596l-0.126 0.017 1.204 2.563c3.806-0.81 7.158-2.355 10.049-4.489l-0.071 0.050c2.775 2.004 6.038 3.537 9.564 4.399l0.191 0.039zM99.097 12.748c-0.915 3.578-2.718 6.652-5.16 9.083l-0.001 0.001c-2.487-2.435-4.345-5.502-5.316-8.941l-0.034-0.142h10.512z"></path>
</symbol>
</defs>
</svg>
