<svg id="btn_footer002.svg" xmlns="http://www.w3.org/2000/svg" width="84.94" height="18" viewBox="0 0 84.94 18">
  <defs>
    <style>
      .cls-1 {
        fill: #fff;
        fill-rule: evenodd;
      }
    </style>
  </defs>
  <path id="シェイプ_1" data-name="シェイプ 1" class="cls-1" d="M1237.44,4702.01a5.731,5.731,0,0,0-1.49.11,0.857,0.857,0,0,0,.34,1.68,4.137,4.137,0,0,1,3.95,1.27,4.233,4.233,0,0,1,.86,4.11,0.846,0.846,0,1,0,1.61.52,5.936,5.936,0,0,0-1.21-5.76A5.811,5.811,0,0,0,1237.44,4702.01Zm-7.59,2.54a10.631,10.631,0,0,0-5.59,3.3c-2.07,2.09-3.26,4.32-3.26,6.24,0,3.68,4.66,5.9,9.22,5.9,5.98,0,9.97-3.51,9.97-6.3a3.359,3.359,0,0,0-2.67-3.04c-0.31-.09-0.53-0.13-0.37-0.55a2.373,2.373,0,0,0,.03-2.22c-0.71-1.03-2.69-.98-4.93-0.03,0,0-.69.33-0.51-0.23a2.6,2.6,0,0,0-.26-2.61A1.894,1.894,0,0,0,1229.85,4704.55Zm7.44,0.46a2.842,2.842,0,0,0-.71.06,0.756,0.756,0,0,0-.57.9,0.712,0.712,0,0,0,.85.55,1.44,1.44,0,0,1,1.35.43,1.417,1.417,0,0,1,.29,1.36,0.747,0.747,0,0,0,.46.93,0.722,0.722,0,0,0,.91-0.47A2.892,2.892,0,0,0,1237.29,4705.01Zm-6.58,4.89c3.04,0.11,5.49,1.65,5.7,3.76,0.23,2.41-2.52,4.67-6.16,5.03s-6.81-1.31-7.04-3.73,2.54-4.67,6.18-5.03A9.771,9.771,0,0,1,1230.71,4709.9Zm-1.43,1.79a3.916,3.916,0,0,0-3.13,2.06,2.749,2.749,0,0,0,1.72,3.9,3.926,3.926,0,0,0,4.7-2.02,2.732,2.732,0,0,0-1.98-3.82A3.866,3.866,0,0,0,1229.28,4711.69Zm0.83,2.03a0.353,0.353,0,0,1,.14.03,0.38,0.38,0,0,1,.2.55,0.526,0.526,0,0,1-.63.23,0.372,0.372,0,0,1-.17-0.55A0.554,0.554,0,0,1,1230.11,4713.72Zm-1.69.52a1.05,1.05,0,0,1,.46.09,0.988,0.988,0,0,1,.4,1.47,1.367,1.367,0,0,1-1.66.58,0.993,0.993,0,0,1-.38-1.48A1.4,1.4,0,0,1,1228.42,4714.24Z" transform="translate(-1221 -4702)"/>
  <path id="Weibo" class="cls-1" d="M1263.1,4707.61l2.53,9.39h2.16l3.3-11.11h-1.76l-2.62,9.35-2.52-9.35h-2.17l-2.52,9.35-2.62-9.35h-1.77l3.31,11.11h2.16Zm17.26,5.78a7.216,7.216,0,0,0-.41-2.67,3.469,3.469,0,0,0-3.32-2.24c-2.18,0-3.82,1.77-3.82,4.43,0,1.76.84,4.31,4.24,4.31a6.441,6.441,0,0,0,2.64-.53v-1.58a4.728,4.728,0,0,1-2.6.71,2.417,2.417,0,0,1-2.73-2.43h6Zm-5.98-1.28a2.23,2.23,0,0,1,2.22-2.23,2.174,2.174,0,0,1,2.19,2.23h-4.41Zm10.37-6.33h-1.78v1.76h1.78v-1.76Zm-0.11,2.93h-1.56V4717h1.56v-8.29Zm4.66,7.28a3.14,3.14,0,0,0,2.56,1.23c2.3,0,3.7-1.93,3.7-4.37,0-2.42-1.4-4.37-3.68-4.37a3.365,3.365,0,0,0-2.55,1.18v-4.29h-1.57V4717h1.54v-1.01Zm-0.03-3.14c0-2.43,1.5-2.94,2.38-2.94,1.66,0,2.36,1.44,2.36,2.94,0,1.46-.67,2.93-2.36,2.93C1290.77,4715.78,1289.27,4715.28,1289.27,4712.85Zm8.49,0a4.1,4.1,0,1,0,4.09-4.37A4.093,4.093,0,0,0,1297.76,4712.85Zm1.55,0c0-2.28,1.51-2.94,2.54-2.94s2.53,0.69,2.53,2.94c0,2.27-1.5,2.93-2.53,2.93C1300.84,4715.78,1299.31,4715.14,1299.31,4712.85Z" transform="translate(-1221 -4702)"/>
</svg>
