<svg xmlns="http://www.w3.org/2000/svg" xmlns:xlink="http://www.w3.org/1999/xlink" width="79.38mm" height="12.88mm" viewBox="0 0 225 36.52"><defs><style>.cls-1{fill:#231815;}.cls-2{fill:url(#linear-gradient);}.cls-3{fill:url(#linear-gradient-2);}</style><linearGradient id="linear-gradient" x1="-25.74" y1="15.46" x2="-11.34" y2="-4.21" gradientTransform="matrix(1, 0, -0.27, 1, 43.4, 0)" gradientUnits="userSpaceOnUse"><stop offset="0" stop-color="#00a0e9"/><stop offset="1" stop-color="#0b318f"/></linearGradient><linearGradient id="linear-gradient-2" x1="-24.17" y1="34.33" x2="-7.85" y2="12.04" xlink:href="#linear-gradient"/></defs><title>logo.svg</title><g id="レイヤー_2" data-name="レイヤー 2"><g id="レイヤー_1-2" data-name="レイヤー 1"><path class="cls-1" d="M69.15,25.48c-.05.17-.09.37-.14.61a13.2,13.2,0,0,1-1.81.68,10.26,10.26,0,0,1-2.94.36,10.9,10.9,0,0,1-2.93-.39,6.69,6.69,0,0,1-2.48-1.26,6.46,6.46,0,0,1-1.73-2.26,7.71,7.71,0,0,1-.65-3.3,10.28,10.28,0,0,1,.71-3.81,9.25,9.25,0,0,1,2-3.12,9.55,9.55,0,0,1,3.28-2.11,11.63,11.63,0,0,1,4.38-.77,14,14,0,0,1,2.37.19,7.72,7.72,0,0,1,2.23.75A10.17,10.17,0,0,0,71,12c-.1.27-.18.48-.23.64-.11-.11-.28-.27-.5-.46a4.86,4.86,0,0,0-.87-.58,7.33,7.33,0,0,0-1.27-.49,6.2,6.2,0,0,0-1.7-.2,7.07,7.07,0,0,0-3.37.77,7.33,7.33,0,0,0-2.46,2.06,9.57,9.57,0,0,0-1.51,3,11.52,11.52,0,0,0-.52,3.42A7.16,7.16,0,0,0,59,22.84a5.46,5.46,0,0,0,1,1.61,5.15,5.15,0,0,0,2,1.37,6.69,6.69,0,0,0,2.38.44A7.93,7.93,0,0,0,67,25.84a10.24,10.24,0,0,0,2.35-1.15l.09.12C69.28,25.09,69.2,25.31,69.15,25.48Z"/><path class="cls-1" d="M71.82,16.07a9.71,9.71,0,0,1,5.58-5.31,11.15,11.15,0,0,1,4-.73,9.54,9.54,0,0,1,3.17.5A6.92,6.92,0,0,1,87,11.93a6,6,0,0,1,1.54,2.19A7.47,7.47,0,0,1,89.12,17a10.16,10.16,0,0,1-.7,3.62,10.42,10.42,0,0,1-2,3.28,9.72,9.72,0,0,1-3.27,2.35,10.36,10.36,0,0,1-4.42.9c-.34,0-.74,0-1.19-.05a10.14,10.14,0,0,1-1.46-.22,7.81,7.81,0,0,1-1.55-.51,5.81,5.81,0,0,1-1.44-.91A5,5,0,0,1,72,24.26a5.92,5.92,0,0,1-.62-1.39,7.15,7.15,0,0,1-.29-1.37A10.61,10.61,0,0,1,71,20.33,10.42,10.42,0,0,1,71.82,16.07Zm1.7,7.23a4.92,4.92,0,0,0,1.23,1.81,4.66,4.66,0,0,0,1.79,1,7,7,0,0,0,2.16.33,7.12,7.12,0,0,0,3.71-.94A8.45,8.45,0,0,0,85,23.16a10.39,10.39,0,0,0,1.54-3.11A11.14,11.14,0,0,0,87,16.9a7.1,7.1,0,0,0-.48-2.74,5.26,5.26,0,0,0-1.28-1.9,5.15,5.15,0,0,0-1.85-1.09,6.89,6.89,0,0,0-2.22-.36,6.81,6.81,0,0,0-3.39.83,8.23,8.23,0,0,0-2.57,2.2A10.46,10.46,0,0,0,73.62,17a12.07,12.07,0,0,0-.56,3.63A7,7,0,0,0,73.52,23.3Z"/><path class="cls-1" d="M92.43,22.23l-.69,3.62c1.11,0,2.2,0,3.27,0s2.13-.11,3.19-.22a3.87,3.87,0,0,0-.14.65,2.79,2.79,0,0,0,0,.58c-.4,0-.82,0-1.27,0h-6c-.58,0-1,0-1.37,0,.3-1.12.63-2.4,1-3.88s.67-3,1-4.47.62-3,.89-4.39.5-2.65.68-3.71c.77,0,1.53.06,2.29.07l2,0H99l.84,0,.69-.05a4.2,4.2,0,0,0-.19.66,2.7,2.7,0,0,0,0,.67,10.37,10.37,0,0,0-1.23-.16c-.48,0-1-.07-1.49-.08l-1.51,0H94.81c-.33,1.3-.6,2.45-.82,3.46s-.44,1.94-.63,2.81h2.87l.71,0c.26,0,.53,0,.79,0l.74-.05.55,0c-.08.24-.14.45-.18.62a1.94,1.94,0,0,0,0,.61c-.56-.06-1.13-.1-1.7-.12l-1.7,0H93.17C92.91,19.82,92.66,21,92.43,22.23Z"/><path class="cls-1" d="M101.3,21.55c.09-.53.2-1.07.32-1.64s.25-1.11.38-1.62.23-.89.29-1.17c.12-.56.24-1.14.36-1.75s.24-1.19.35-1.78.22-1.16.32-1.71l.24-1.51a4.79,4.79,0,0,0,1.13.1,3.93,3.93,0,0,0,1-.1c-.21.72-.38,1.35-.53,1.87s-.29,1.08-.43,1.68-.3,1.29-.47,2.09l-.66,3.14c-.12.5-.21.92-.28,1.27s-.13.66-.16.92,0,.49-.07.69,0,.4,0,.59a3.05,3.05,0,0,0,.4,1.61,3.44,3.44,0,0,0,1.07,1.11A4.71,4.71,0,0,0,106,26a5.77,5.77,0,0,0,1.57.22,6.59,6.59,0,0,0,1.69-.22,5.63,5.63,0,0,0,1.58-.66,5.82,5.82,0,0,0,1.33-1.11,5,5,0,0,0,1-1.55,17.17,17.17,0,0,0,.59-1.85c.2-.74.39-1.54.58-2.4s.36-1.71.54-2.59.33-1.69.47-2.43.25-1.4.34-1.94l.18-1.09a2.59,2.59,0,0,0,.84.1,2.87,2.87,0,0,0,.8-.1c-.45,1.56-.85,3.12-1.19,4.67s-.71,3.12-1.08,4.71a22.16,22.16,0,0,1-.9,3A6.84,6.84,0,0,1,112.74,25a6.68,6.68,0,0,1-2.65,1.66,9.5,9.5,0,0,1-5.15.28,5.67,5.67,0,0,1-1.86-.77,4.43,4.43,0,0,1-1.37-1.39,3.65,3.65,0,0,1-.54-2A7.54,7.54,0,0,1,101.3,21.55Z"/><path class="cls-1" d="M128.08,26.79h-1.23l-.58,0c-.42-.63-.88-1.34-1.39-2.13s-1-1.56-1.52-2.31-1-1.46-1.44-2.1-.85-1.15-1.17-1.52l-.27,0h-.58l-.26,0c-.29,1.37-.57,2.73-.83,4.09s-.51,2.7-.74,4a2.81,2.81,0,0,0-.43,0H116.5a3.19,3.19,0,0,0-.45,0c.3-1.12.62-2.4,1-3.88s.66-3,1-4.47.6-3,.88-4.39.5-2.65.67-3.71c.26,0,.51.06.76.07s.5,0,.76,0h.65l1,0,1,0h.63a12.39,12.39,0,0,1,1.45.09,3.83,3.83,0,0,1,1.32.37A3.07,3.07,0,0,1,128.38,12a2.94,2.94,0,0,1,.42,1.5,4.47,4.47,0,0,1-.61,2.2,5.2,5.2,0,0,1-1.85,1.85,5.11,5.11,0,0,1-.93.48,8.06,8.06,0,0,1-1,.31l-.84.2c-.26,0-.46.08-.61.09.21.34.48.75.8,1.23l1,1.54c.37.55.74,1.1,1.14,1.65s.77,1.08,1.12,1.57.67.93,1,1.3.52.66.68.84v.05Zm-7.59-8.73c.24,0,.48,0,.74,0l.54,0a7.6,7.6,0,0,0,1-.09,9.3,9.3,0,0,0,1.14-.27,3.66,3.66,0,0,0,1.09-.52,3.92,3.92,0,0,0,1.43-1.65,4.43,4.43,0,0,0,.42-1.79,2.1,2.1,0,0,0-1.31-2.16,3.65,3.65,0,0,0-1.15-.27l-1.06,0c-.37,0-.7,0-1,0l-1,.09c-.15.56-.27,1.05-.38,1.48s-.21.87-.31,1.33-.22,1-.35,1.56L119.81,18A5.06,5.06,0,0,0,120.49,18.06Z"/><path class="cls-1" d="M146.71,14.94a5.41,5.41,0,0,1-.51,1.29,5.57,5.57,0,0,1-.9,1.19,5.11,5.11,0,0,1-1.29,1,6,6,0,0,1-2.14.67,18,18,0,0,1-2.6.17h-.73l-.55,0c-.23,1.06-.47,2.23-.73,3.53s-.5,2.65-.74,4.09a3.59,3.59,0,0,0-.47,0H134.9a3.63,3.63,0,0,0-.5,0c.2-.75.42-1.57.63-2.49s.44-1.86.67-2.84.44-2,.65-3,.41-2,.6-3,.37-1.89.53-2.76.3-1.67.41-2.38c.23,0,.46.06.7.07l.7,0h.63l1,0,1,0h.62a11.5,11.5,0,0,1,1.49.11,4.07,4.07,0,0,1,1.5.52,2.71,2.71,0,0,1,1.09,1.14,3.37,3.37,0,0,1,.35,1.53A4.78,4.78,0,0,1,146.71,14.94Zm-2.14-2.63a2.34,2.34,0,0,0-.89-.77,3.15,3.15,0,0,0-1.14-.3c-.4,0-.76-.05-1.08-.05a7.69,7.69,0,0,0-.83,0l-.84.08-.36,1.41-.3,1.3c-.1.48-.23,1-.37,1.7s-.34,1.54-.58,2.63a6.11,6.11,0,0,0,1.35.1h.59a6.46,6.46,0,0,0,.9-.11,9.12,9.12,0,0,0,1-.28,3.24,3.24,0,0,0,1-.54,3.78,3.78,0,0,0,.86-.83,5.71,5.71,0,0,0,.57-1,5.28,5.28,0,0,0,.32-1,4.06,4.06,0,0,0,.11-.94A2.54,2.54,0,0,0,144.57,12.31Z"/><path class="cls-1" d="M158.58,26.79h-1.23l-.58,0c-.42-.63-.88-1.34-1.39-2.13s-1-1.56-1.52-2.31-1-1.46-1.44-2.1-.85-1.15-1.17-1.52l-.27,0h-.58l-.26,0c-.29,1.37-.57,2.73-.83,4.09s-.51,2.7-.74,4a2.81,2.81,0,0,0-.43,0H147a3.19,3.19,0,0,0-.45,0c.3-1.12.62-2.4,1-3.88s.66-3,1-4.47.6-3,.88-4.39.49-2.65.67-3.71c.26,0,.51.06.76.07s.5,0,.76,0h.65l1,0,1,0h.63a12.26,12.26,0,0,1,1.45.09,3.9,3.9,0,0,1,1.32.37A3.07,3.07,0,0,1,158.88,12a2.94,2.94,0,0,1,.42,1.5,4.47,4.47,0,0,1-.61,2.2,5.12,5.12,0,0,1-1.85,1.85,5.11,5.11,0,0,1-.93.48,8.06,8.06,0,0,1-.95.31l-.84.2c-.26,0-.46.08-.61.09.21.34.48.75.8,1.23l1,1.54q.54.82,1.14,1.65c.39.56.77,1.08,1.12,1.57s.67.93,1,1.3.52.66.68.84v.05ZM151,18.06c.24,0,.48,0,.74,0l.54,0a7.6,7.6,0,0,0,1-.09,9.3,9.3,0,0,0,1.14-.27,3.78,3.78,0,0,0,1.09-.52,3.92,3.92,0,0,0,1.43-1.65,4.43,4.43,0,0,0,.42-1.79A2.1,2.1,0,0,0,156,11.59a3.65,3.65,0,0,0-1.15-.27l-1.06,0q-.56,0-1,0l-1,.09c-.15.56-.27,1.05-.38,1.48s-.21.87-.31,1.33l-.35,1.56L150.31,18A5.06,5.06,0,0,0,151,18.06Z"/><path class="cls-1" d="M160.71,16.07A10.12,10.12,0,0,1,163,12.83a9.85,9.85,0,0,1,3.33-2.07,11.15,11.15,0,0,1,4.05-.73,9.54,9.54,0,0,1,3.17.5,6.83,6.83,0,0,1,2.41,1.4,6.15,6.15,0,0,1,1.55,2.19A7.47,7.47,0,0,1,178,17a9.94,9.94,0,0,1-.7,3.62,10.39,10.39,0,0,1-2,3.28A9.93,9.93,0,0,1,172,26.28a10.43,10.43,0,0,1-4.43.9c-.33,0-.73,0-1.19-.05a10.36,10.36,0,0,1-1.46-.22,7.72,7.72,0,0,1-1.54-.51,5.69,5.69,0,0,1-1.45-.91,4.78,4.78,0,0,1-1.08-1.23,5.57,5.57,0,0,1-.63-1.39A8,8,0,0,1,160,21.5a10.39,10.39,0,0,1-.07-1.17A10.58,10.58,0,0,1,160.71,16.07Zm1.7,7.23a5.18,5.18,0,0,0,1.23,1.81,4.63,4.63,0,0,0,1.8,1,7,7,0,0,0,2.15.33,7.16,7.16,0,0,0,3.72-.94,8.57,8.57,0,0,0,2.59-2.38,10.61,10.61,0,0,0,1.53-3.11,10.82,10.82,0,0,0,.51-3.15,7.1,7.1,0,0,0-.48-2.74,5.39,5.39,0,0,0-1.28-1.9,5.11,5.11,0,0,0-1.86-1.09,7.21,7.21,0,0,0-5.61.47,8.19,8.19,0,0,0-2.56,2.2A10.24,10.24,0,0,0,162.52,17a11.77,11.77,0,0,0-.57,3.63A7.18,7.18,0,0,0,162.41,23.3Z"/><path class="cls-1" d="M176.35,31.29a1.5,1.5,0,0,0,.57-.43,5.13,5.13,0,0,0,.67-.94,9.62,9.62,0,0,0,.72-1.63c.16-.48.89-3.06,1.09-3.85s.41-1.67.63-2.63.46-2,.68-3,.44-2.11.65-3.14.4-2,.57-2.92.31-1.7.42-2.36a3.2,3.2,0,0,0,.49.07l.55,0,.58,0a4,4,0,0,0,.53-.07q-.34,1.28-.6,2.34c-.16.71-.34,1.46-.51,2.25s-.38,1.7-.59,2.69-.48,2.21-.79,3.62c-.18.83-.33,1.57-.47,2.19s-.27,1.18-.39,1.64-.8,2.8-.92,3.13a4.29,4.29,0,0,1-.4.83,4.81,4.81,0,0,1-.7,1,5.55,5.55,0,0,1-1,.89,7.62,7.62,0,0,1-1.09.69,4.54,4.54,0,0,1-1.11.41l-.12-.63A2.53,2.53,0,0,0,176.35,31.29Z"/><path class="cls-1" d="M187.55,22.23c-.24,1.21-.47,2.42-.69,3.62,1.11,0,2.2,0,3.27,0s2.13-.11,3.19-.22a3.07,3.07,0,0,0-.14.65,2.79,2.79,0,0,0,0,.58c-.41,0-.83,0-1.27,0h-6q-.87,0-1.38,0c.31-1.12.63-2.4,1-3.88s.66-3,1-4.47.62-3,.89-4.39.5-2.65.67-3.71c.78,0,1.54.06,2.29.07l2,0h1.79l.85,0,.68-.05a5.68,5.68,0,0,0-.19.66,2.78,2.78,0,0,0,0,.67,10.66,10.66,0,0,0-1.23-.16c-.49,0-1-.07-1.5-.08l-1.5,0h-1.27c-.32,1.3-.6,2.45-.82,3.46s-.43,1.94-.63,2.81h2.87l.71,0c.27,0,.54,0,.8,0l.74-.05.55,0c-.08.24-.14.45-.18.62a2.25,2.25,0,0,0,0,.61c-.56-.06-1.13-.1-1.7-.12l-1.7,0h-2.24C188,19.82,187.78,21,187.55,22.23Z"/><path class="cls-1" d="M208.63,25.48a5.11,5.11,0,0,0-.14.61,13.73,13.73,0,0,1-1.81.68,10.28,10.28,0,0,1-3,.36,11,11,0,0,1-2.93-.39,6.85,6.85,0,0,1-2.48-1.26,6.44,6.44,0,0,1-1.72-2.26,7.56,7.56,0,0,1-.65-3.3,10.08,10.08,0,0,1,.71-3.81A9.1,9.1,0,0,1,198.71,13,9.46,9.46,0,0,1,202,10.88a11.62,11.62,0,0,1,4.37-.77,14.25,14.25,0,0,1,2.38.19,7.83,7.83,0,0,1,2.23.75,8.21,8.21,0,0,0-.47,1c-.1.27-.18.48-.23.64-.11-.11-.28-.27-.51-.46a4.23,4.23,0,0,0-.87-.58,6.91,6.91,0,0,0-1.26-.49,6.25,6.25,0,0,0-1.7-.2,7.11,7.11,0,0,0-3.38.77,7.33,7.33,0,0,0-2.46,2.06,9.55,9.55,0,0,0-1.5,3,11.21,11.21,0,0,0-.52,3.42,7.16,7.16,0,0,0,.42,2.71,5.46,5.46,0,0,0,1,1.61,5.19,5.19,0,0,0,2,1.37,6.75,6.75,0,0,0,2.39.44,7.82,7.82,0,0,0,2.54-.42,9.85,9.85,0,0,0,2.35-1.15l.1.12C208.76,25.09,208.68,25.31,208.63,25.48Z"/><path class="cls-1" d="M219.39,14.75c-.29,1.28-.59,2.62-.87,4s-.58,2.79-.85,4.19-.51,2.69-.7,3.87a3.29,3.29,0,0,0-.45,0h-1.16a4.22,4.22,0,0,0-.53,0c.32-1.21.65-2.54,1-4s.66-2.86,1-4.27.56-2.74.8-4,.44-2.31.58-3.16c-.62,0-1.39,0-2.29.05s-1.93.1-3.08.19c.08-.26.13-.47.17-.63s.06-.38.09-.65q1.31.08,2.79.09h3.29q1.83,0,3.27,0c1,0,1.82,0,2.61-.07a4.27,4.27,0,0,0-.17.56q0,.24-.09.72l-1-.07-1.19-.08-1.23-.06-1.1,0C220,12.36,219.69,13.47,219.39,14.75Z"/><path class="cls-2" d="M14.21,29.7c-5.44-2.12-8.27-6.45-7.42-11.45A15.28,15.28,0,0,1,12,9.61a27.69,27.69,0,0,1,16.37-6.7,21.63,21.63,0,0,1,10,1.5C35.92,1.6,31.67,0,26.55,0a28.25,28.25,0,0,0-3.27.2c-11,1.35-21.37,9-23,17.1C-1.26,24.48,4.55,29.7,14.21,29.7Z"/><path class="cls-3" d="M44.47,17.15c1.61-7.26-4.36-12.73-13.9-12.73a26.22,26.22,0,0,0-2.77.14A31.93,31.93,0,0,0,14.88,8.92a31.33,31.33,0,0,1,6.75-1.46,26.22,26.22,0,0,1,2.77-.14,20.92,20.92,0,0,1,6.23.88A39.38,39.38,0,0,1,15.09,30.51a45.88,45.88,0,0,1-11.67,6c12-1.55,20.4-5.47,25-11.65,4.22-5.7,4.23-12.11,3.65-16.14,4.52,1.94,6.9,5.69,5.89,10.2C36.39,25.87,27.59,32.33,17.62,34a27.9,27.9,0,0,0,3.63-.13C32.25,32.75,42.66,25.24,44.47,17.15Z"/></g></g></svg>