<?xml version="1.0" encoding="UTF-8"?>
<svg width="245px" height="40px" viewBox="0 0 245 40" version="1.1" xmlns="http://www.w3.org/2000/svg" xmlns:xlink="http://www.w3.org/1999/xlink">
    <!-- Generator: Sketch 48.2 (47327) - http://www.bohemiancoding.com/sketch -->
    <title>お問い合わせ</title>
    <desc>Created with Sketch.</desc>
    <defs>
        <path d="M12.72,10.048 L12.72,6.016 L15.536,6.016 L15.536,10.048 L23.472,10.048 L23.472,12.704 L15.536,12.704 L15.536,17.088 C16.592,16.896 18.256,16.544 20.784,16.544 C22.608,16.544 25.936,16.8 28.208,18.56 C30,19.968 31.28,22.464 31.28,25.184 C31.28,33.568 21.072,33.408 18.192,33.344 L17.648,30.72 C21.84,30.752 28.336,30.752 28.336,24.896 C28.336,19.296 22.704,19.008 20.56,19.008 C19.504,19.008 17.328,19.072 15.536,19.68 L15.536,29.536 C15.536,30.656 15.536,32.704 11.856,32.704 C7.952,32.704 4.592,30.368 4.592,26.688 C4.592,23.04 7.472,19.616 12.72,17.792 L12.72,12.704 L4.976,12.704 L4.976,10.048 L12.72,10.048 Z M12.72,29.12 L12.72,20.48 C8.304,22.24 7.376,25.184 7.376,26.432 C7.376,28.768 9.264,30.112 11.504,30.112 C12.208,30.112 12.72,30.016 12.72,29.12 Z M23.6,7.584 L25.712,5.888 C28.432,7.904 31.024,10.976 32.688,14.56 L30.064,16.032 C28.304,12.48 26.928,10.56 23.6,7.584 Z M73.1500002,6.24 L73.1500002,32.128 C73.1500002,33.728 72.7980002,34.688 70.9100002,34.688 L65.8540002,34.688 L65.5660002,32.128 L69.6620002,32.16 C70.5580002,32.16 70.5900002,31.744 70.5900002,31.232 L70.5900002,17.76 L61.1500002,17.76 L61.1500002,6.24 L73.1500002,6.24 Z M70.5900002,11.04 L70.5900002,8.352 L63.6780002,8.352 L63.6780002,11.04 L70.5900002,11.04 Z M70.5900002,15.68 L70.5900002,12.864 L63.6780002,12.864 L63.6780002,15.68 L70.5900002,15.68 Z M66.4940002,20.544 L66.4940002,30.944 L52.5100002,30.944 L52.5100002,20.544 L66.4940002,20.544 Z M64.0940002,28.704 L64.0940002,22.72 L54.9420002,22.72 L54.9420002,28.704 L64.0940002,28.704 Z M45.9500002,6.24 L57.8540002,6.24 L57.8540002,17.76 L48.4780002,17.76 L48.4780002,34.688 L45.9500002,34.688 L45.9500002,6.24 Z M55.3260002,11.04 L55.3260002,8.352 L48.5100002,8.352 L48.5100002,11.04 L55.3260002,11.04 Z M55.3260002,15.68 L55.3260002,12.864 L48.5100002,12.864 L48.5100002,15.68 L55.3260002,15.68 Z M88.0120004,7.584 L91.1480004,7.904 C90.9240004,9.44 90.5400004,12.096 90.5400004,16 C90.5400004,20.864 90.9240004,26.016 92.6520004,28.768 C92.9720004,29.312 93.7720004,29.888 94.7960004,29.888 C97.1960004,29.888 98.9880004,26.112 100.396,22.4 L102.764,23.936 C100.812,29.152 98.2200004,32.96 94.5080004,32.96 C88.2360004,32.96 87.5640004,21.696 87.5640004,16.384 C87.5640004,13.088 87.8200004,9.76 88.0120004,7.584 Z M115.18,29.28 L111.98,29.6 C112.012,28.864 112.044,28.128 112.044,27.104 C112.044,16.256 108.908,12.896 106.092,9.856 L108.652,8.448 C110.54,10.208 115.244,14.56 115.244,27.232 C115.244,28.096 115.212,28.672 115.18,29.28 Z M150.810001,14.08 L150.810001,16.416 L134.554001,16.416 L134.554001,14.08 C131.962001,15.744 130.106001,16.544 128.954001,17.056 L127.418001,14.4 C132.538001,12.608 137.882001,9.408 141.242001,4.64 L143.898001,4.64 C147.930001,9.568 152.378001,12.192 157.850001,14.4 L156.346001,17.056 C155.354001,16.64 153.658001,15.904 150.810001,14.08 Z M134.682001,13.984 L150.682001,13.984 C146.106001,10.944 143.642001,8.096 142.586001,6.88 C140.442001,9.728 137.690001,12.064 134.682001,13.984 Z M131.226001,20.032 L154.074001,20.032 L154.074001,34.624 L151.386001,34.624 L151.386001,33.152 L133.914001,33.152 L133.914001,34.624 L131.226001,34.624 L131.226001,20.032 Z M151.386001,30.752 L151.386001,22.496 L133.914001,22.496 L133.914001,30.752 L151.386001,30.752 Z M183.400001,32.48 L182.312001,29.856 C190.568001,29.504 194.856001,27.552 194.856001,20.704 C194.856001,15.104 191.400001,13.632 187.944001,13.632 C183.400001,13.632 179.752001,16.512 178.376001,17.792 L178.344001,33.376 L175.528001,33.376 L175.656001,22.048 C174.504001,24.256 173.832001,25.44 171.560001,27.872 L169.800001,25.152 C172.136001,22.912 174.152001,20.288 175.720001,16.864 L175.752001,13.632 L170.696001,13.696 L170.696001,11.04 L175.752001,11.04 L175.784001,6.048 L178.728001,6.048 L178.568001,11.04 L179.528001,11.008 L179.528001,12.48 C179.080001,13.152 178.408001,14.4 178.376001,14.88 C181.928001,12.032 185.576001,11.136 188.488001,11.136 C194.792001,11.136 197.864001,15.584 197.864001,20.736 C197.864001,31.392 188.680001,32.16 183.400001,32.48 Z M231.350001,5.888 L234.198001,5.824 C234.262001,6.912 234.326001,11.744 234.358001,12.704 L239.958001,12.544 L239.958001,15.2 L234.390001,15.392 C234.390001,22.272 234.166001,22.976 233.782001,23.84 C232.822001,26.048 230.262001,26.048 229.270001,26.048 C227.990001,26.048 226.710001,25.92 225.462001,25.696 L225.462001,23.072 C226.230001,23.2 227.894001,23.456 229.206001,23.456 C230.006001,23.456 231.030001,23.424 231.350001,22.208 C231.542001,21.44 231.542001,20.832 231.606001,15.488 L219.894001,15.872 L219.830001,24.416 C219.798001,30.24 221.622001,30.4 228.726001,30.4 C233.910001,30.4 236.118001,30.144 237.494001,29.984 L237.526001,32.768 C236.470001,32.832 234.486001,32.992 229.302001,32.992 C224.246001,32.992 220.758001,32.96 218.774001,30.816 C217.910001,29.856 217.110001,28.64 217.110001,24.096 L217.110001,15.968 L211.574001,16.16 L211.510001,13.472 L217.110001,13.28 L217.110001,6.496 L219.958001,6.496 L219.926001,13.184 L231.638001,12.8 C231.638001,9.184 231.446001,7.104 231.350001,5.888 Z" id="path-1"></path>
        <filter x="-3.2%" y="-25.0%" width="106.4%" height="149.9%" filterUnits="objectBoundingBox" id="filter-2">
            <feOffset dx="0" dy="0" in="SourceAlpha" result="shadowOffsetOuter1"></feOffset>
            <feGaussianBlur stdDeviation="2.5" in="shadowOffsetOuter1" result="shadowBlurOuter1"></feGaussianBlur>
            <feColorMatrix values="0 0 0 0 0   0 0 0 0 0   0 0 0 0 0  0 0 0 0.75 0" type="matrix" in="shadowBlurOuter1"></feColorMatrix>
        </filter>
    </defs>
    <g id="Page-1" stroke="none" stroke-width="1" fill="none" fill-rule="evenodd">
        <g id="お問い合わせ">
            <use fill="black" fill-opacity="1" filter="url(#filter-2)" xlink:href="#path-1"></use>
            <use fill="#FFFFFF" fill-rule="evenodd" xlink:href="#path-1"></use>
        </g>
    </g>
</svg>