<svg xmlns="http://www.w3.org/2000/svg" xmlns:xlink="http://www.w3.org/1999/xlink" width="187" height="33" viewBox="0 0 187 33">
  <metadata><?xpacket begin="﻿" id="W5M0MpCehiHzreSzNTczkc9d"?>
<x:xmpmeta xmlns:x="adobe:ns:meta/" x:xmptk="Adobe XMP Core 5.6-c140 79.160451, 2017/05/06-01:08:21        ">
   <rdf:RDF xmlns:rdf="http://www.w3.org/1999/02/22-rdf-syntax-ns#">
      <rdf:Description rdf:about=""/>
   </rdf:RDF>
</x:xmpmeta>
                                                                                                    
                                                                                                    
                                                                                                    
                                                                                                    
                                                                                                    
                                                                                                    
                                                                                                    
                                                                                                    
                                                                                                    
                                                                                                    
                                                                                                    
                                                                                                    
                                                                                                    
                                                                                                    
                                                                                                    
                                                                                                    
                                                                                                    
                                                                                                    
                                                                                                    
                                                                                                    
                           
<?xpacket end="w"?></metadata>
<defs>
    <style>
      .cls-1 {
        fill: #fff;
        fill-rule: evenodd;
        filter: url(#filter);
      }
    </style>
    <filter id="filter" x="69" y="142" width="187" height="33" filterUnits="userSpaceOnUse">
      <feOffset result="offset" in="SourceAlpha"/>
      <feGaussianBlur result="blur" stdDeviation="2.236"/>
      <feFlood result="flood" flood-opacity="0.75"/>
      <feComposite result="composite" operator="in" in2="blur"/>
      <feBlend result="blend" in="SourceGraphic"/>
    </filter>
  </defs>
  <path id="ttl_header_sp.svg" data-name="ttl_header@sp.svg" class="cls-1" d="M80.041,150.535H74.232v1.992h5.808v3.816c-3.936,1.368-6.1,3.936-6.1,6.673,0,2.76,2.52,4.512,5.448,4.512,2.76,0,2.76-1.536,2.76-2.376v-7.393a12.61,12.61,0,0,1,3.768-.5c1.608,0,5.832.216,5.832,4.417,0,4.392-4.872,4.392-8.017,4.368l0.408,1.968c2.16,0.048,9.817.168,9.817-6.12a6.416,6.416,0,0,0-2.3-4.969,9.514,9.514,0,0,0-5.568-1.512,19.5,19.5,0,0,0-3.936.408v-3.288h5.953v-1.992H82.153V147.51H80.041v3.025Zm0,14.305c0,0.672-.384.744-0.912,0.744a2.819,2.819,0,0,1-3.1-2.76c0-.936.7-3.145,4.008-4.465v6.481ZM88.2,148.686a17.947,17.947,0,0,1,4.848,6.337l1.968-1.1a17.384,17.384,0,0,0-5.233-6.505Zm37.2-1.008h-9v8.641h7.081v10.105a0.567,0.567,0,0,1-.7.7l-3.073-.024,0.216,1.92h3.793c1.416,0,1.68-.72,1.68-1.92V147.678Zm-1.92,3.6H118.3v-2.017h5.185v2.017Zm0,3.48H118.3v-2.112h5.185v2.112Zm-3.073,3.648H109.921v7.8h10.488v-7.8Zm-1.8,6.121h-6.864v-4.489h6.864v4.489ZM105,147.678v21.338h1.9v-12.7h7.033v-8.641H105Zm7.033,3.6H106.92v-2.017h5.113v2.017Zm0,3.48H106.92v-2.112h5.113v2.112Zm24.551-6.073c-0.144,1.633-.336,4.129-0.336,6.6,0,3.984.5,12.433,5.209,12.433,2.784,0,4.728-2.856,6.192-6.769l-1.776-1.152c-1.056,2.785-2.4,5.617-4.2,5.617a1.906,1.906,0,0,1-1.609-.84c-1.3-2.064-1.584-5.929-1.584-9.577a39.285,39.285,0,0,1,.456-6.073Zm20.378,16.274c0.024-.456.048-0.888,0.048-1.536,0-9.5-3.528-12.769-4.944-14.09l-1.921,1.057c2.113,2.28,4.465,4.8,4.465,12.937,0,0.768-.024,1.32-0.048,1.872Zm26.76-11.4a25.328,25.328,0,0,0,4.152,2.232L189,153.8a24.151,24.151,0,0,1-10.465-7.321h-1.992a21.253,21.253,0,0,1-10.369,7.321l1.152,1.992a28.186,28.186,0,0,0,4.2-2.232v1.752h12.193v-1.752Zm-12.1-.072a22.436,22.436,0,0,0,5.928-5.329,28.455,28.455,0,0,0,6.073,5.329h-12Zm-2.593,4.536v10.945h2.016v-1.1h13.106v1.1h2.016V158.023H169.032Zm15.122,8.041H171.048v-6.193h13.106v6.193Zm24.047,1.3c3.96-.24,10.849-0.816,10.849-8.809,0-3.864-2.3-7.2-7.033-7.2a12.079,12.079,0,0,0-7.584,2.808,6.051,6.051,0,0,1,.864-1.8v-1.1l-0.72.024,0.12-3.745h-2.209l-0.024,3.745h-3.792v1.992l3.792-.048-0.024,2.424a19.923,19.923,0,0,1-4.44,6.217l1.32,2.04a16.092,16.092,0,0,0,3.072-4.369l-0.1,8.5h2.113l0.024-11.689a11.2,11.2,0,0,1,7.176-3.12c2.593,0,5.185,1.1,5.185,5.3,0,5.137-3.217,6.6-9.409,6.865Zm36-19.946c0.072,0.912.216,2.473,0.216,5.185l-8.784.288,0.024-5.017H233.52v5.089l-4.2.144,0.048,2.016,4.152-.144v6.1c0,3.409.6,4.321,1.249,5.041,1.488,1.608,4.1,1.632,7.9,1.632,3.889,0,5.377-.12,6.169-0.168l-0.024-2.088a50.719,50.719,0,0,1-6.577.312c-5.328,0-6.7-.12-6.672-4.488l0.048-6.409,8.784-.288c-0.048,4.008-.048,4.464-0.192,5.04a1.369,1.369,0,0,1-1.608.936,19.18,19.18,0,0,1-2.808-.288v1.969a16.21,16.21,0,0,0,2.856.264c0.744,0,2.664,0,3.385-1.657,0.288-.648.456-1.176,0.456-6.336l4.176-.144v-1.992l-4.2.12c-0.024-.72-0.072-4.345-0.12-5.161Z" transform="translate(-69 -142)"/>
</svg>
