<svg xmlns="http://www.w3.org/2000/svg" xmlns:xlink="http://www.w3.org/1999/xlink" width="246" height="40" viewBox="0 0 246 40">
  <defs>
    <style>
      .cls-1 {
        fill: #fff;
        fill-rule: evenodd;
        filter: url(#filter);
      }
    </style>
    <filter id="filter" x="527" y="237" width="246" height="40" filterUnits="userSpaceOnUse">
      <feOffset result="offset" in="SourceAlpha"/>
      <feGaussianBlur result="blur" stdDeviation="2.236"/>
      <feFlood result="flood" flood-opacity="0.75"/>
      <feComposite result="composite" operator="in" in2="blur"/>
      <feBlend result="blend" in="SourceGraphic"/>
    </filter>
  </defs>
  <path id="ttl_contact.svg" class="cls-1" d="M539.719,247.05h-7.743v2.655h7.743v5.088c-5.247,1.824-8.127,5.248-8.127,8.895,0,3.68,3.36,6.016,7.264,6.016,3.679,0,3.679-2.048,3.679-3.168v-9.855a16.81,16.81,0,0,1,5.024-.672c2.144,0,7.775.288,7.775,5.888,0,5.855-6.495,5.855-10.687,5.823l0.544,2.624c2.88,0.064,13.087.224,13.087-8.16a8.554,8.554,0,0,0-3.072-6.623c-2.271-1.76-5.6-2.016-7.423-2.016a26,26,0,0,0-5.248.544v-4.384h7.936V247.05h-7.936v-4.032h-2.816v4.032Zm0,19.07c0,0.9-.511.992-1.215,0.992-2.24,0-4.128-1.344-4.128-3.68,0-1.248.928-4.191,5.343-5.951v8.639Zm10.88-21.534a23.919,23.919,0,0,1,6.463,8.447l2.624-1.472a23.186,23.186,0,0,0-6.975-8.671Zm49.6-1.344h-12v11.519h9.439v13.471a0.756,0.756,0,0,1-.928.928l-4.1-.032,0.288,2.56h5.055c1.888,0,2.24-.96,2.24-2.56V243.242Zm-2.56,4.8h-6.911v-2.688h6.911v2.688Zm0,4.639h-6.911v-2.816h6.911v2.816Zm-4.1,4.864H579.56v10.4h13.983v-10.4Zm-2.4,8.159h-9.152v-5.983h9.152V265.7ZM573,243.242v28.446h2.528V254.761H584.9V243.242H573Zm9.375,4.8H575.56v-2.688h6.815v2.688Zm0,4.639H575.56v-2.816h6.815v2.816Zm32.737-8.095c-0.192,2.176-.448,5.5-0.448,8.8,0,5.312.672,16.575,6.944,16.575,3.711,0,6.3-3.808,8.255-9.023L627.5,259.4c-1.408,3.711-3.2,7.487-5.6,7.487a2.537,2.537,0,0,1-2.144-1.12c-1.728-2.752-2.112-7.9-2.112-12.767a52.326,52.326,0,0,1,.608-8.095Zm27.166,21.694c0.032-.608.064-1.184,0.064-2.048,0-12.671-4.7-17.022-6.591-18.782l-2.56,1.408c2.816,3.039,5.951,6.4,5.951,17.246,0,1.024-.032,1.76-0.064,2.5Zm35.68-15.2a33.77,33.77,0,0,0,5.536,2.976L685,251.4c-5.472-2.208-9.919-4.831-13.951-9.759h-2.656c-3.36,4.768-8.7,7.967-13.823,9.759l1.536,2.656a37.52,37.52,0,0,0,5.6-2.976v2.336h16.254v-2.336Zm-16.126-.1a29.941,29.941,0,0,0,7.9-7.1,37.953,37.953,0,0,0,8.1,7.1h-16Zm-3.456,6.048v14.591h2.688v-1.472h17.47v1.472h2.688V257.033H658.376Zm20.158,10.719h-17.47V259.5h17.47v8.255ZM710.6,269.48c5.28-.32,14.463-1.088,14.463-11.743,0-5.152-3.072-9.6-9.375-9.6a16.1,16.1,0,0,0-10.111,3.743,8.037,8.037,0,0,1,1.151-2.4V248.01l-0.96.032,0.16-4.992h-2.943l-0.032,4.992H697.9V250.7l5.056-.064-0.032,3.232a26.526,26.526,0,0,1-5.92,8.287l1.76,2.72a21.449,21.449,0,0,0,4.1-5.823l-0.128,11.327h2.816l0.032-15.583c1.375-1.28,5.023-4.16,9.567-4.16,3.456,0,6.911,1.472,6.911,7.072,0,6.847-4.287,8.8-12.543,9.151Zm48-26.59c0.1,1.216.288,3.3,0.288,6.911l-11.712.384,0.032-6.687H744.36v6.783l-5.6.192,0.064,2.688,5.536-.192V261.1c0,4.543.8,5.759,1.664,6.719,1.983,2.144,5.471,2.176,10.527,2.176,5.183,0,7.167-.16,8.223-0.224l-0.032-2.784a67.607,67.607,0,0,1-8.767.416c-7.1,0-8.927-.16-8.895-5.983l0.064-8.544,11.711-.384c-0.064,5.344-.064,5.952-0.256,6.72-0.32,1.216-1.344,1.248-2.144,1.248a25.574,25.574,0,0,1-3.744-.384V262.7a21.613,21.613,0,0,0,3.808.352c0.992,0,3.552,0,4.511-2.207,0.384-.864.608-1.568,0.608-8.448l5.568-.192v-2.656l-5.6.16c-0.032-.96-0.1-5.791-0.16-6.879Z" transform="translate(-527 -237)"/>
</svg>
