<?xml version="1.0" encoding="UTF-8"?>
<svg width="156px" height="29px" viewBox="0 0 156 29" version="1.1" xmlns="http://www.w3.org/2000/svg" xmlns:xlink="http://www.w3.org/1999/xlink">
    <!-- Generator: Sketch 48.2 (47327) - http://www.bohemiancoding.com/sketch -->
    <title>お問い合わせ</title>
    <desc>Created with Sketch.</desc>
    <defs>
        <path d="M9.7,8.28 L9.7,5.76 L11.46,5.76 L11.46,8.28 L16.42,8.28 L16.42,9.94 L11.46,9.94 L11.46,12.68 C12.12,12.56 13.16,12.34 14.74,12.34 C15.88,12.34 17.96,12.5 19.38,13.6 C20.5,14.48 21.3,16.04 21.3,17.74 C21.3,22.98 14.92,22.88 13.12,22.84 L12.78,21.2 C15.4,21.22 19.46,21.22 19.46,17.56 C19.46,14.06 15.94,13.88 14.6,13.88 C13.94,13.88 12.58,13.92 11.46,14.3 L11.46,20.46 C11.46,21.16 11.46,22.44 9.16,22.44 C6.72,22.44 4.62,20.98 4.62,18.68 C4.62,16.4 6.42,14.26 9.7,13.12 L9.7,9.94 L4.86,9.94 L4.86,8.28 L9.7,8.28 Z M9.7,20.2 L9.7,14.8 C6.94,15.9 6.36,17.74 6.36,18.52 C6.36,19.98 7.54,20.82 8.94,20.82 C9.38,20.82 9.7,20.76 9.7,20.2 Z M16.5,6.74 L17.82,5.68 C19.52,6.94 21.14,8.86 22.18,11.1 L20.54,12.02 C19.44,9.8 18.58,8.6 16.5,6.74 Z M47.46875,5.9 L47.46875,22.08 C47.46875,23.08 47.24875,23.68 46.06875,23.68 L42.90875,23.68 L42.72875,22.08 L45.28875,22.1 C45.84875,22.1 45.86875,21.84 45.86875,21.52 L45.86875,13.1 L39.96875,13.1 L39.96875,5.9 L47.46875,5.9 Z M45.86875,8.9 L45.86875,7.22 L41.54875,7.22 L41.54875,8.9 L45.86875,8.9 Z M45.86875,11.8 L45.86875,10.04 L41.54875,10.04 L41.54875,11.8 L45.86875,11.8 Z M43.30875,14.84 L43.30875,21.34 L34.56875,21.34 L34.56875,14.84 L43.30875,14.84 Z M41.80875,19.94 L41.80875,16.2 L36.08875,16.2 L36.08875,19.94 L41.80875,19.94 Z M30.46875,5.9 L37.90875,5.9 L37.90875,13.1 L32.04875,13.1 L32.04875,23.68 L30.46875,23.68 L30.46875,5.9 Z M36.32875,8.9 L36.32875,7.22 L32.06875,7.22 L32.06875,8.9 L36.32875,8.9 Z M36.32875,11.8 L36.32875,10.04 L32.06875,10.04 L32.06875,11.8 L36.32875,11.8 Z M56.7575,6.74 L58.7175,6.94 C58.5775,7.9 58.3375,9.56 58.3375,12 C58.3375,15.04 58.5775,18.26 59.6575,19.98 C59.8575,20.32 60.3575,20.68 60.9975,20.68 C62.4975,20.68 63.6175,18.32 64.4975,16 L65.9775,16.96 C64.7575,20.22 63.1375,22.6 60.8175,22.6 C56.8975,22.6 56.4775,15.56 56.4775,12.24 C56.4775,10.18 56.6375,8.1 56.7575,6.74 Z M73.7375,20.3 L71.7375,20.5 C71.7575,20.04 71.7775,19.58 71.7775,18.94 C71.7775,12.16 69.8175,10.06 68.0575,8.16 L69.6575,7.28 C70.8375,8.38 73.7775,11.1 73.7775,19.02 C73.7775,19.56 73.7575,19.92 73.7375,20.3 Z M96.00625,10.8 L96.00625,12.26 L85.84625,12.26 L85.84625,10.8 C84.22625,11.84 83.06625,12.34 82.34625,12.66 L81.38625,11 C84.58625,9.88 87.92625,7.88 90.02625,4.9 L91.68625,4.9 C94.20625,7.98 96.98625,9.62 100.40625,11 L99.46625,12.66 C98.84625,12.4 97.78625,11.94 96.00625,10.8 Z M85.92625,10.74 L95.92625,10.74 C93.06625,8.84 91.52625,7.06 90.86625,6.3 C89.52625,8.08 87.80625,9.54 85.92625,10.74 Z M83.76625,14.52 L98.04625,14.52 L98.04625,23.64 L96.36625,23.64 L96.36625,22.72 L85.44625,22.72 L85.44625,23.64 L83.76625,23.64 L83.76625,14.52 Z M96.36625,21.22 L96.36625,16.06 L85.44625,16.06 L85.44625,21.22 L96.36625,21.22 Z M116.375,22.3 L115.695,20.66 C120.855,20.44 123.535,19.22 123.535,14.94 C123.535,11.44 121.375,10.52 119.215,10.52 C116.375,10.52 114.095,12.32 113.235,13.12 L113.215,22.86 L111.455,22.86 L111.535,15.78 C110.815,17.16 110.395,17.9 108.975,19.42 L107.875,17.72 C109.335,16.32 110.595,14.68 111.575,12.54 L111.595,10.52 L108.435,10.56 L108.435,8.9 L111.595,8.9 L111.615,5.78 L113.455,5.78 L113.355,8.9 L113.955,8.88 L113.955,9.8 C113.675,10.22 113.255,11 113.235,11.3 C115.455,9.52 117.735,8.96 119.555,8.96 C123.495,8.96 125.415,11.74 125.415,14.96 C125.415,21.62 119.675,22.1 116.375,22.3 Z M146.34375,5.68 L148.12375,5.64 C148.16375,6.32 148.20375,9.34 148.22375,9.94 L151.72375,9.84 L151.72375,11.5 L148.24375,11.62 C148.24375,15.92 148.10375,16.36 147.86375,16.9 C147.26375,18.28 145.66375,18.28 145.04375,18.28 C144.24375,18.28 143.44375,18.2 142.66375,18.06 L142.66375,16.42 C143.14375,16.5 144.18375,16.66 145.00375,16.66 C145.50375,16.66 146.14375,16.64 146.34375,15.88 C146.46375,15.4 146.46375,15.02 146.50375,11.68 L139.18375,11.92 L139.14375,17.26 C139.12375,20.9 140.26375,21 144.70375,21 C147.94375,21 149.32375,20.84 150.18375,20.74 L150.20375,22.48 C149.54375,22.52 148.30375,22.62 145.06375,22.62 C141.90375,22.62 139.72375,22.6 138.48375,21.26 C137.94375,20.66 137.44375,19.9 137.44375,17.06 L137.44375,11.98 L133.98375,12.1 L133.94375,10.42 L137.44375,10.3 L137.44375,6.06 L139.22375,6.06 L139.20375,10.24 L146.52375,10 C146.52375,7.74 146.40375,6.44 146.34375,5.68 Z" id="path-1"></path>
        <filter x="-5.1%" y="-39.9%" width="110.2%" height="179.9%" filterUnits="objectBoundingBox" id="filter-2">
            <feOffset dx="0" dy="0" in="SourceAlpha" result="shadowOffsetOuter1"></feOffset>
            <feGaussianBlur stdDeviation="2.5" in="shadowOffsetOuter1" result="shadowBlurOuter1"></feGaussianBlur>
            <feColorMatrix values="0 0 0 0 0   0 0 0 0 0   0 0 0 0 0  0 0 0 0.75 0" type="matrix" in="shadowBlurOuter1"></feColorMatrix>
        </filter>
    </defs>
    <g id="Page-1" stroke="none" stroke-width="1" fill="none" fill-rule="evenodd">
        <g id="お問い合わせ">
            <use fill="black" fill-opacity="1" filter="url(#filter-2)" xlink:href="#path-1"></use>
            <use fill="#FFFFFF" fill-rule="evenodd" xlink:href="#path-1"></use>
        </g>
    </g>
</svg>