<svg id="btn_news.svg" xmlns="http://www.w3.org/2000/svg" width="132.781" height="12" viewBox="0 0 132.781 12">
  <defs>
    <style>
      .cls-1, .cls-3 {
        fill: #666;
      }

      .cls-2 {
        fill: #fff;
      }

      .cls-2, .cls-3 {
        fill-rule: evenodd;
      }
    </style>
  </defs>
  <circle id="楕円形_1_のコピー_4" data-name="楕円形 1 のコピー 4" class="cls-1" cx="6" cy="6" r="6"/>
  <path id="_" data-name="▶︎" class="cls-2" d="M589.9,2668.72l5.121-3.79-5.121-3.77v7.56Z" transform="translate(-586 -2659)"/>
  <path id="Read_more" data-name="Read more" class="cls-3" d="M617.04,2660.97a1.136,1.136,0,0,1,.239.82v1.51a1.146,1.146,0,0,1-.235.82,1.28,1.28,0,0,1-.878.23h-5.918v-3.62h5.918A1.23,1.23,0,0,1,617.04,2660.97Zm-6.792,8.74v-4.02h3.037l4.2,4.02h2.558l-4.716-4.02h1.513a2.407,2.407,0,0,0,1.675-.48,1.96,1.96,0,0,0,.513-1.51v-2.31a2.009,2.009,0,0,0-.513-1.53,2.459,2.459,0,0,0-1.675-.47h-8.32v10.32h1.729Zm21.416,0v-1.24h-7.012v-2.54h4.18v-1.26h-4.18v-2.18h6.933v-1.26H623.05v8.48h8.614Zm3.222,0,1.084-1.98h5.86l1.1,1.98h1.738l-5.019-8.48h-1.465l-4.9,8.48h1.6Zm4-7.24,2.256,4.04h-4.5Zm16.616,0.71a2.681,2.681,0,0,1,.884,2.25,2.763,2.763,0,0,1-.874,2.3,4.754,4.754,0,0,1-2.944.7h-3.106v-5.94h3.106A4.834,4.834,0,0,1,655.506,2663.18Zm-7.641-1.95v8.48h4.883a6.137,6.137,0,0,0,3.945-1.06,3.874,3.874,0,0,0,1.3-3.2,4.437,4.437,0,0,0-.489-2.07,3.732,3.732,0,0,0-1.357-1.49,3.938,3.938,0,0,0-1.362-.49,10.566,10.566,0,0,0-2.036-.17h-4.883Zm22.968,2.27a3.473,3.473,0,0,0,.333.53l3.378,4.34h0.42l3.262-4.38a2.439,2.439,0,0,0,.273-0.47,6.752,6.752,0,0,0,.284-0.7c-0.033.18-.057,0.37-0.074,0.56s-0.024.4-.024,0.61v5.72h1.484v-8.48h-1.484l-3.877,5.5-4.219-5.5h-1.318v8.48h1.318v-5.72c0-.1-0.006-0.32-0.019-0.68-0.013-.21-0.02-0.38-0.02-0.5A4.592,4.592,0,0,0,670.833,2663.5Zm14.678-1.01h7.08v5.94h-7.08v-5.94Zm-1.6,5.22a2.229,2.229,0,0,0,.429,1.59,2.462,2.462,0,0,0,1.651.41h6.123a2.4,2.4,0,0,0,1.645-.42,2.2,2.2,0,0,0,.435-1.58v-4.46a2.192,2.192,0,0,0-.44-1.59,2.4,2.4,0,0,0-1.64-.43H685.99a2.4,2.4,0,0,0-1.641.43,2.192,2.192,0,0,0-.439,1.59v4.46Zm20.83-5.04a0.913,0.913,0,0,1,.195.66v1.02a0.918,0.918,0,0,1-.186.68,1.057,1.057,0,0,1-.722.18h-4.512v-2.74h4.512A1,1,0,0,1,704.74,2662.67Zm-5.225,7.04v-3.32h2.315l3.378,3.32h2.139l-3.74-3.32h1.123a2.008,2.008,0,0,0,1.362-.38,1.611,1.611,0,0,0,.415-1.24v-1.89a1.661,1.661,0,0,0-.415-1.26,1.955,1.955,0,0,0-1.362-.39h-6.816v8.48h1.6Zm19.268,0v-1.24h-7.012v-2.54h4.18v-1.26h-4.18v-2.18h6.934v-1.26h-8.536v8.48h8.614Z" transform="translate(-586 -2659)"/>
</svg>
