<svg id="btn_news.svg" xmlns="http://www.w3.org/2000/svg" width="134.812" height="15" viewBox="0 0 134.812 15">
  <metadata><?xpacket begin="﻿" id="W5M0MpCehiHzreSzNTczkc9d"?>
<x:xmpmeta xmlns:x="adobe:ns:meta/" x:xmptk="Adobe XMP Core 5.6-c140 79.160451, 2017/05/06-01:08:21        ">
   <rdf:RDF xmlns:rdf="http://www.w3.org/1999/02/22-rdf-syntax-ns#">
      <rdf:Description rdf:about=""/>
   </rdf:RDF>
</x:xmpmeta>
                                                                                                    
                                                                                                    
                                                                                                    
                                                                                                    
                                                                                                    
                                                                                                    
                                                                                                    
                                                                                                    
                                                                                                    
                                                                                                    
                                                                                                    
                                                                                                    
                                                                                                    
                                                                                                    
                                                                                                    
                                                                                                    
                                                                                                    
                                                                                                    
                                                                                                    
                                                                                                    
                           
<?xpacket end="w"?></metadata>
<defs>
    <style>
      .cls-1, .cls-2 {
        fill: #666;
      }

      .cls-1, .cls-3 {
        fill-rule: evenodd;
      }

      .cls-3 {
        fill: #fff;
      }
    </style>
  </defs>
  <path id="Read_more" data-name="Read more" class="cls-1" d="M608.555,2659.68h8.32a2.452,2.452,0,0,1,1.66.46,1.972,1.972,0,0,1,.52,1.54v2.3a1.972,1.972,0,0,1-.52,1.54,2.452,2.452,0,0,1-1.66.46h-1.52l4.72,4.02h-2.56l-4.2-4.02h-3.04V2670h-1.72v-10.32Zm1.72,1.34v3.62h5.92a1.463,1.463,0,0,0,.85-0.2,1.036,1.036,0,0,0,.27-0.86v-1.5a1.039,1.039,0,0,0-.27-0.85,1.385,1.385,0,0,0-.85-0.21h-5.92Zm12.8,0.5h8.54v1.26h-6.94v2.18h4.18v1.26h-4.18v2.52h7.02V2670h-8.62v-8.48Zm18.1,5.28-2.26-4.04-2.24,4.04h4.5Zm-2.96-5.28h1.46l5.02,8.48h-1.74l-1.1-1.98H636l-1.08,1.98h-1.6Zm16.54,0.15a4.012,4.012,0,0,1,1.42.51,3.745,3.745,0,0,1,1.35,1.48,4.449,4.449,0,0,1,.49,2.08,3.877,3.877,0,0,1-1.3,3.22,6.258,6.258,0,0,1-3.94,1.04H647.9v-8.48h4.88A11.408,11.408,0,0,1,654.755,2661.67Zm-5.26,1.11v5.96h3.1a8.315,8.315,0,0,0,1.68-.15,3.034,3.034,0,0,0,1.19-.49,2.127,2.127,0,0,0,.71-0.93,3.733,3.733,0,0,0,.24-1.44,2.58,2.58,0,0,0-.96-2.31,5.164,5.164,0,0,0-2.86-.64h-3.1Zm21.109,1.04c0.007,0.2.01,0.35,0.01,0.46V2670h-1.32v-8.48h1.32l4.22,5.5,3.88-5.5h1.48V2670h-1.48v-5.72c0-.17.007-0.36,0.02-0.55a6.17,6.17,0,0,1,.08-0.63,4.726,4.726,0,0,1-.56,1.18l-3.26,4.38h-0.42l-3.38-4.34a2.6,2.6,0,0,1-.35-0.55,5.847,5.847,0,0,1-.27-0.67Q670.594,2663.52,670.6,2663.82Zm13.43-1.25a1.261,1.261,0,0,1,.34-0.62,1.456,1.456,0,0,1,.64-0.33,4.042,4.042,0,0,1,1-.1h6.12a4.042,4.042,0,0,1,1,.1,1.456,1.456,0,0,1,.64.33,1.261,1.261,0,0,1,.34.62,3.943,3.943,0,0,1,.1.97V2668a3.943,3.943,0,0,1-.1.97,1.261,1.261,0,0,1-.34.62,1.349,1.349,0,0,1-.64.32,4.659,4.659,0,0,1-1,.09h-6.12a4.659,4.659,0,0,1-1-.09,1.349,1.349,0,0,1-.64-0.32,1.273,1.273,0,0,1-.34-0.61,3.92,3.92,0,0,1-.1-0.98v-4.46A3.943,3.943,0,0,1,684.034,2662.57Zm8.58,6.17v-5.96h-7.08v5.96h7.08Zm5.32-7.22h6.82a2.018,2.018,0,0,1,1.36.37,1.631,1.631,0,0,1,.42,1.27v1.9a1.6,1.6,0,0,1-.42,1.25,2.018,2.018,0,0,1-1.36.37h-1.12l3.74,3.32h-2.14l-3.38-3.32h-2.32V2670h-1.6v-8.48Zm1.6,1.26v2.72h4.52a1.115,1.115,0,0,0,.71-0.17,0.908,0.908,0,0,0,.19-0.68v-1.02a0.827,0.827,0,0,0-.22-0.68,1.135,1.135,0,0,0-.68-0.17h-4.52Zm10.66-1.26h8.54v1.26h-6.94v2.18h4.18v1.26h-4.18v2.52h7.02V2670h-8.62v-8.48Z" transform="translate(-584 -2658)"/>
  <circle id="楕円形_1_のコピー_4" data-name="楕円形 1 のコピー 4" class="cls-2" cx="7.5" cy="7.5" r="7.5"/>
  <path id="多角形_1" data-name="多角形 1" class="cls-3" d="M594.991,2665.51l-5.98,4.5v-9Z" transform="translate(-584 -2658)"/>
</svg>
