<?xml version="1.0" encoding="UTF-8"?>
<svg width="128px" height="151px" viewBox="0 0 128 151" version="1.1" xmlns="http://www.w3.org/2000/svg" xmlns:xlink="http://www.w3.org/1999/xlink">
    <!-- Generator: Sketch 48.1 (47250) - http://www.bohemiancoding.com/sketch -->
    <title>Page 1</title>
    <desc>Created with Sketch.</desc>
    <defs>
        <polygon id="path-1" points="0 151.172414 127.503448 151.172414 127.503448 0.670896552 0 0.670896552"></polygon>
    </defs>
    <g id="Page-1" stroke="none" stroke-width="1" fill="none" fill-rule="evenodd">
        <g transform="translate(0.000000, -1.000000)">
            <polygon id="Fill-1" fill="#7D8488" points="7.61798621 132.91851 7.61798621 122.76789 18.0047448 122.76789 18.0047448 124.4992 9.97826207 124.4992 9.97826207 126.761269 14.6601931 126.761269 14.6601931 128.492579 9.97826207 128.492579 9.97826207 131.010648 18.1029517 131.010648 18.1029517 132.91851"></polygon>
            <g id="Group-49" transform="translate(0.000000, 0.432552)">
                <path d="M29.4138483,125.660028 L23.6902621,125.660028 L23.6902621,127.410097 L29.0993655,127.410097 C29.9390897,127.410097 30.508469,127.544717 30.8108138,127.813959 C31.1120552,128.0832 31.2632276,128.604028 31.2632276,129.377545 L31.2632276,130.51851 C31.2632276,131.292028 31.1120552,131.813959 30.8108138,132.0832 C30.508469,132.351338 29.9390897,132.485959 29.0993655,132.485959 L23.6902621,132.485959 C22.8505379,132.485959 22.2756414,132.351338 21.9677793,132.0832 C21.6599172,131.813959 21.5054345,131.292028 21.5054345,130.51851 L21.5054345,130.282372 L23.3161931,129.948028 L23.3161931,130.932303 L29.4337103,130.932303 L29.4337103,129.023338 L24.0433655,129.023338 C23.2168828,129.023338 22.6464,128.889821 22.3319172,128.620579 C22.0174345,128.351338 21.8596414,127.83051 21.8596414,127.056993 L21.8596414,126.132303 C21.8596414,125.358786 22.0174345,124.836855 22.3319172,124.567614 C22.6464,124.299476 23.2168828,124.164855 24.0433655,124.164855 L28.9812966,124.164855 C29.7812966,124.164855 30.3451586,124.289545 30.6728828,124.538924 C31.0006069,124.7872 31.1650207,125.2672 31.1650207,125.97451 L31.1650207,126.170924 L29.4138483,126.544993 L29.4138483,125.660028 Z" id="Fill-2" fill="#7D8488"></path>
                <polygon id="Fill-4" fill="#7D8488" points="39.721931 125.660028 39.721931 132.485959 37.696 132.485959 37.696 125.660028 33.6827586 125.660028 33.6827586 124.164855 43.753931 124.164855 43.753931 125.660028"></polygon>
                <polygon id="Fill-6" fill="#7D8488" points="46.3706483 132.485959 46.3706483 124.164855 48.4164414 124.164855 48.4164414 127.331752 54.7513379 127.331752 54.7513379 124.164855 56.777269 124.164855 56.777269 132.485959 54.7513379 132.485959 54.7513379 128.984717 48.4164414 128.984717 48.4164414 132.485959"></polygon>
                <polygon id="Fill-8" fill="#7D8488" points="60.4945655 132.485959 60.4945655 124.164855 69.4258759 124.164855 69.4258759 125.640166 62.5403586 125.640166 62.5403586 127.449821 66.5536 127.449821 66.5536 128.88651 62.5403586 128.88651 62.5403586 130.951062 69.5240828 130.951062 69.5240828 132.485959"></polygon>
                <polygon id="Fill-10" fill="#7D8488" points="77.4116414 125.660028 77.4116414 132.485959 75.3857103 132.485959 75.3857103 125.660028 71.372469 125.660028 71.372469 124.164855 81.4447448 124.164855 81.4447448 125.660028"></polygon>
                <mask id="mask-2" fill="white">
                    <use xlink:href="#path-1"></use>
                </mask>
                <g id="Clip-13"></g>
                <polygon id="Fill-12" fill="#7D8488" mask="url(#mask-2)" points="84.0617931 132.485517 86.0877241 132.485517 86.0877241 124.164414 84.0617931 124.164414"></polygon>
                <path d="M91.6346483,130.932083 L94.6724414,130.932083 L93.8084414,129.102566 L95.2616828,128.551945 L96.3993379,130.932083 L98.3237517,130.932083 L98.3237517,125.699531 L91.6346483,125.699531 L91.6346483,130.932083 Z M89.5888552,126.132083 C89.5888552,125.738152 89.625269,125.413738 89.6980966,125.158841 C89.7709241,124.902841 89.8900966,124.702014 90.0545103,124.558566 C90.2200276,124.414014 90.4418207,124.312497 90.7198897,124.25291 C90.9979586,124.194428 91.3488552,124.164634 91.7714759,124.164634 L98.1858207,124.164634 C99.0178207,124.164634 99.5883034,124.295945 99.8917517,124.558566 C100.209545,124.820083 100.368441,125.345324 100.368441,126.132083 L100.368441,130.51829 C100.368441,130.912221 100.332028,131.233324 100.2592,131.482703 C100.186372,131.732083 100.0672,131.931807 99.9016828,132.082979 C99.737269,132.234152 99.5121655,132.337876 99.2274759,132.397462 C98.9416828,132.455945 98.5952,132.485738 98.1858207,132.485738 L97.2015448,132.485738 L98.3237517,134.571255 L96.3022345,134.571255 L95.3609931,132.485738 L91.7714759,132.485738 C90.9240276,132.485738 90.349131,132.355531 90.0456828,132.09291 C89.741131,131.817048 89.5888552,131.29291 89.5888552,130.51829 L89.5888552,126.132083 Z" id="Fill-14" fill="#7D8488" mask="url(#mask-2)"></path>
                <path d="M105.877186,124.164855 L105.877186,130.932303 L111.659255,130.932303 L111.659255,124.164855 L113.706152,124.164855 L113.706152,130.51851 C113.706152,131.292028 113.551669,131.813959 113.243807,132.0832 C112.934841,132.351338 112.362152,132.485959 111.522428,132.485959 L106.014014,132.485959 C105.17429,132.485959 104.60491,132.351338 104.302566,132.0832 C104.001324,131.813959 103.850152,131.292028 103.850152,130.51851 L103.850152,124.164855 L105.877186,124.164855 Z" id="Fill-15" fill="#7D8488" mask="url(#mask-2)"></path>
                <polygon id="Fill-16" fill="#7D8488" mask="url(#mask-2)" points="117.404138 132.485959 117.404138 124.164855 126.335448 124.164855 126.335448 125.640166 119.449931 125.640166 119.449931 127.449821 123.463172 127.449821 123.463172 128.88651 119.449931 128.88651 119.449931 130.951062 126.433655 130.951062 126.433655 132.485959"></polygon>
                <path d="M27.9784828,149.618538 L30.5947586,149.618538 C31.9453793,149.618538 32.9086897,149.434262 33.4857931,149.066814 C34.1291034,148.648607 34.4502069,147.920331 34.4502069,146.884193 C34.4502069,145.192607 33.4857931,144.346262 31.558069,144.346262 L27.9784828,144.346262 L27.9784828,149.618538 Z M25.9326897,151.172193 L25.9326897,142.85109 L31.5393103,142.85109 C33.1646897,142.85109 34.4038621,143.211917 35.2568276,143.933572 C36.1086897,144.654124 36.5357241,145.671503 36.5357241,146.9824 C36.5357241,149.776331 34.6995862,151.172193 31.0273103,151.172193 L25.9326897,151.172193 Z" id="Fill-17" fill="#7D8488" mask="url(#mask-2)"></path>
                <polygon id="Fill-18" fill="#7D8488" mask="url(#mask-2)" points="39.584 151.172414 41.609931 151.172414 41.609931 142.85131 39.584 142.85131"></polygon>
                <polygon id="Fill-19" fill="#7D8488" mask="url(#mask-2)" points="49.2030897 151.172414 44.1680552 142.85131 46.4687448 142.85131 49.9898483 148.890483 53.3145379 142.85131 55.4199172 142.85131 50.6000552 151.172414"></polygon>
                <polygon id="Fill-20" fill="#7D8488" mask="url(#mask-2)" points="57.7401379 151.172414 59.766069 151.172414 59.766069 142.85131 57.7401379 142.85131"></polygon>
                <path d="M71.1563034,144.346483 L65.4327172,144.346483 L65.4327172,146.096552 L70.8418207,146.096552 C71.6815448,146.096552 72.2509241,146.231172 72.553269,146.500414 C72.8545103,146.769655 73.0056828,147.290483 73.0056828,148.064 L73.0056828,149.204966 C73.0056828,149.978483 72.8545103,150.500414 72.553269,150.769655 C72.2509241,151.037793 71.6815448,151.172414 70.8418207,151.172414 L65.4327172,151.172414 C64.5929931,151.172414 64.0180966,151.037793 63.7102345,150.769655 C63.4023724,150.500414 63.2478897,149.978483 63.2478897,149.204966 L63.2478897,148.968828 L65.0586483,148.634483 L65.0586483,149.618759 L71.1761655,149.618759 L71.1761655,147.709793 L65.7858207,147.709793 C64.9593379,147.709793 64.3888552,147.576276 64.0743724,147.307034 C63.7598897,147.037793 63.6020966,146.516966 63.6020966,145.743448 L63.6020966,144.818759 C63.6020966,144.045241 63.7598897,143.52331 64.0743724,143.254069 C64.3888552,142.985931 64.9593379,142.85131 65.7858207,142.85131 L70.7237517,142.85131 C71.5237517,142.85131 72.0876138,142.976 72.4153379,143.225379 C72.7430621,143.473655 72.9074759,143.953655 72.9074759,144.660966 L72.9074759,144.857379 L71.1563034,145.231448 L71.1563034,144.346483 Z" id="Fill-21" fill="#7D8488" mask="url(#mask-2)"></path>
                <polygon id="Fill-22" fill="#7D8488" mask="url(#mask-2)" points="76.5064828 151.172414 78.5335172 151.172414 78.5335172 142.85131 76.5064828 142.85131"></polygon>
                <path d="M84.0606897,149.579034 L90.7685517,149.579034 L90.7685517,144.385103 L84.0606897,144.385103 L84.0606897,149.579034 Z M82.0347586,144.818759 C82.0347586,144.032 82.1848276,143.506759 82.4871724,143.244138 C82.7884138,142.982621 83.3588966,142.85131 84.1986207,142.85131 L90.6317241,142.85131 C91.4703448,142.85131 92.0408276,142.982621 92.3431724,143.244138 C92.6444138,143.506759 92.7955862,144.032 92.7955862,144.818759 L92.7955862,149.204966 C92.7955862,149.978483 92.64,150.500414 92.3321379,150.769655 C92.0231724,151.037793 91.4571034,151.172414 90.6317241,151.172414 L84.1986207,151.172414 C83.3588966,151.172414 82.7884138,151.037793 82.4871724,150.769655 C82.1848276,150.500414 82.0347586,149.978483 82.0347586,149.204966 L82.0347586,144.818759 Z" id="Fill-23" fill="#7D8488" mask="url(#mask-2)"></path>
                <polygon id="Fill-24" fill="#7D8488" mask="url(#mask-2)" points="96.2963862 151.172414 96.2963862 142.85131 97.6933517 142.85131 104.754317 148.378483 104.754317 142.85131 106.583834 142.85131 106.583834 151.172414 105.184662 151.172414 98.1248 145.565793 98.1248 151.172414"></polygon>
                <polygon id="Fill-25" fill="#36318F" mask="url(#mask-2)" points="7.61798621 132.485959 7.61798621 122.335338 18.0047448 122.335338 18.0047448 124.066648 9.97826207 124.066648 9.97826207 126.328717 14.6601931 126.328717 14.6601931 128.060028 9.97826207 128.060028 9.97826207 130.578097 18.1029517 130.578097 18.1029517 132.485959"></polygon>
                <path d="M29.4138483,125.660028 L23.6902621,125.660028 L23.6902621,127.410097 L29.0993655,127.410097 C29.9390897,127.410097 30.508469,127.544717 30.8108138,127.813959 C31.1120552,128.0832 31.2632276,128.604028 31.2632276,129.377545 L31.2632276,130.51851 C31.2632276,131.292028 31.1120552,131.813959 30.8108138,132.0832 C30.508469,132.351338 29.9390897,132.485959 29.0993655,132.485959 L23.6902621,132.485959 C22.8505379,132.485959 22.2756414,132.351338 21.9677793,132.0832 C21.6599172,131.813959 21.5054345,131.292028 21.5054345,130.51851 L21.5054345,130.282372 L23.3161931,129.948028 L23.3161931,130.932303 L29.4337103,130.932303 L29.4337103,129.023338 L24.0433655,129.023338 C23.2168828,129.023338 22.6464,128.889821 22.3319172,128.620579 C22.0174345,128.351338 21.8596414,127.83051 21.8596414,127.056993 L21.8596414,126.132303 C21.8596414,125.358786 22.0174345,124.836855 22.3319172,124.567614 C22.6464,124.299476 23.2168828,124.164855 24.0433655,124.164855 L28.9812966,124.164855 C29.7812966,124.164855 30.3451586,124.289545 30.6728828,124.538924 C31.0006069,124.7872 31.1650207,125.2672 31.1650207,125.97451 L31.1650207,126.170924 L29.4138483,126.544993 L29.4138483,125.660028 Z" id="Fill-26" fill="#36318F" mask="url(#mask-2)"></path>
                <polygon id="Fill-27" fill="#36318F" mask="url(#mask-2)" points="39.721931 125.660028 39.721931 132.485959 37.696 132.485959 37.696 125.660028 33.6827586 125.660028 33.6827586 124.164855 43.753931 124.164855 43.753931 125.660028"></polygon>
                <polygon id="Fill-28" fill="#36318F" mask="url(#mask-2)" points="46.3706483 132.485959 46.3706483 124.164855 48.4164414 124.164855 48.4164414 127.331752 54.7513379 127.331752 54.7513379 124.164855 56.777269 124.164855 56.777269 132.485959 54.7513379 132.485959 54.7513379 128.984717 48.4164414 128.984717 48.4164414 132.485959"></polygon>
                <polygon id="Fill-29" fill="#36318F" mask="url(#mask-2)" points="60.4945655 132.485959 60.4945655 124.164855 69.4258759 124.164855 69.4258759 125.640166 62.5403586 125.640166 62.5403586 127.449821 66.5536 127.449821 66.5536 128.88651 62.5403586 128.88651 62.5403586 130.951062 69.5240828 130.951062 69.5240828 132.485959"></polygon>
                <polygon id="Fill-30" fill="#36318F" mask="url(#mask-2)" points="77.4116414 125.660028 77.4116414 132.485959 75.3857103 132.485959 75.3857103 125.660028 71.372469 125.660028 71.372469 124.164855 81.4447448 124.164855 81.4447448 125.660028"></polygon>
                <polygon id="Fill-31" fill="#36318F" mask="url(#mask-2)" points="84.0617931 132.485517 86.0877241 132.485517 86.0877241 124.164414 84.0617931 124.164414"></polygon>
                <path d="M91.6346483,130.932083 L94.6724414,130.932083 L93.8084414,129.102566 L95.2616828,128.551945 L96.3993379,130.932083 L98.3237517,130.932083 L98.3237517,125.699531 L91.6346483,125.699531 L91.6346483,130.932083 Z M89.5888552,126.132083 C89.5888552,125.738152 89.625269,125.413738 89.6980966,125.158841 C89.7709241,124.902841 89.8900966,124.702014 90.0545103,124.558566 C90.2200276,124.414014 90.4418207,124.312497 90.7198897,124.25291 C90.9979586,124.194428 91.3488552,124.164634 91.7714759,124.164634 L98.1858207,124.164634 C99.0178207,124.164634 99.5883034,124.295945 99.8917517,124.558566 C100.209545,124.820083 100.368441,125.345324 100.368441,126.132083 L100.368441,130.51829 C100.368441,130.912221 100.332028,131.233324 100.2592,131.482703 C100.186372,131.732083 100.0672,131.931807 99.9016828,132.082979 C99.737269,132.234152 99.5121655,132.337876 99.2274759,132.397462 C98.9416828,132.455945 98.5952,132.485738 98.1858207,132.485738 L97.2015448,132.485738 L98.3237517,134.571255 L96.3022345,134.571255 L95.3609931,132.485738 L91.7714759,132.485738 C90.9240276,132.485738 90.349131,132.355531 90.0456828,132.09291 C89.741131,131.817048 89.5888552,131.29291 89.5888552,130.51829 L89.5888552,126.132083 Z" id="Fill-32" fill="#36318F" mask="url(#mask-2)"></path>
                <path d="M105.877186,124.164855 L105.877186,130.932303 L111.659255,130.932303 L111.659255,124.164855 L113.706152,124.164855 L113.706152,130.51851 C113.706152,131.292028 113.551669,131.813959 113.243807,132.0832 C112.934841,132.351338 112.362152,132.485959 111.522428,132.485959 L106.014014,132.485959 C105.17429,132.485959 104.60491,132.351338 104.302566,132.0832 C104.001324,131.813959 103.850152,131.292028 103.850152,130.51851 L103.850152,124.164855 L105.877186,124.164855 Z" id="Fill-33" fill="#36318F" mask="url(#mask-2)"></path>
                <polygon id="Fill-34" fill="#36318F" mask="url(#mask-2)" points="117.404138 132.485959 117.404138 124.164855 126.335448 124.164855 126.335448 125.640166 119.449931 125.640166 119.449931 127.449821 123.463172 127.449821 123.463172 128.88651 119.449931 128.88651 119.449931 130.951062 126.433655 130.951062 126.433655 132.485959"></polygon>
                <path d="M27.9784828,149.618538 L30.5947586,149.618538 C31.9453793,149.618538 32.9086897,149.434262 33.4857931,149.066814 C34.1291034,148.648607 34.4502069,147.920331 34.4502069,146.884193 C34.4502069,145.192607 33.4857931,144.346262 31.558069,144.346262 L27.9784828,144.346262 L27.9784828,149.618538 Z M25.9326897,151.172193 L25.9326897,142.85109 L31.5393103,142.85109 C33.1646897,142.85109 34.4038621,143.211917 35.2568276,143.933572 C36.1086897,144.654124 36.5357241,145.671503 36.5357241,146.9824 C36.5357241,149.776331 34.6995862,151.172193 31.0273103,151.172193 L25.9326897,151.172193 Z" id="Fill-35" fill="#36318F" mask="url(#mask-2)"></path>
                <polygon id="Fill-36" fill="#36318F" mask="url(#mask-2)" points="39.584 151.172414 41.609931 151.172414 41.609931 142.85131 39.584 142.85131"></polygon>
                <polygon id="Fill-37" fill="#36318F" mask="url(#mask-2)" points="49.2030897 151.172414 44.1680552 142.85131 46.4687448 142.85131 49.9898483 148.890483 53.3145379 142.85131 55.4199172 142.85131 50.6000552 151.172414"></polygon>
                <polygon id="Fill-38" fill="#36318F" mask="url(#mask-2)" points="57.7401379 151.172414 59.766069 151.172414 59.766069 142.85131 57.7401379 142.85131"></polygon>
                <path d="M71.1563034,144.346483 L65.4327172,144.346483 L65.4327172,146.096552 L70.8418207,146.096552 C71.6815448,146.096552 72.2509241,146.231172 72.553269,146.500414 C72.8545103,146.769655 73.0056828,147.290483 73.0056828,148.064 L73.0056828,149.204966 C73.0056828,149.978483 72.8545103,150.500414 72.553269,150.769655 C72.2509241,151.037793 71.6815448,151.172414 70.8418207,151.172414 L65.4327172,151.172414 C64.5929931,151.172414 64.0180966,151.037793 63.7102345,150.769655 C63.4023724,150.500414 63.2478897,149.978483 63.2478897,149.204966 L63.2478897,148.968828 L65.0586483,148.634483 L65.0586483,149.618759 L71.1761655,149.618759 L71.1761655,147.709793 L65.7858207,147.709793 C64.9593379,147.709793 64.3888552,147.576276 64.0743724,147.307034 C63.7598897,147.037793 63.6020966,146.516966 63.6020966,145.743448 L63.6020966,144.818759 C63.6020966,144.045241 63.7598897,143.52331 64.0743724,143.254069 C64.3888552,142.985931 64.9593379,142.85131 65.7858207,142.85131 L70.7237517,142.85131 C71.5237517,142.85131 72.0876138,142.976 72.4153379,143.225379 C72.7430621,143.473655 72.9074759,143.953655 72.9074759,144.660966 L72.9074759,144.857379 L71.1563034,145.231448 L71.1563034,144.346483 Z" id="Fill-39" fill="#36318F" mask="url(#mask-2)"></path>
                <polygon id="Fill-40" fill="#36318F" mask="url(#mask-2)" points="76.5064828 151.172414 78.5335172 151.172414 78.5335172 142.85131 76.5064828 142.85131"></polygon>
                <path d="M84.0606897,149.579034 L90.7685517,149.579034 L90.7685517,144.385103 L84.0606897,144.385103 L84.0606897,149.579034 Z M82.0347586,144.818759 C82.0347586,144.032 82.1848276,143.506759 82.4871724,143.244138 C82.7884138,142.982621 83.3588966,142.85131 84.1986207,142.85131 L90.6317241,142.85131 C91.4703448,142.85131 92.0408276,142.982621 92.3431724,143.244138 C92.6444138,143.506759 92.7955862,144.032 92.7955862,144.818759 L92.7955862,149.204966 C92.7955862,149.978483 92.64,150.500414 92.3321379,150.769655 C92.0231724,151.037793 91.4571034,151.172414 90.6317241,151.172414 L84.1986207,151.172414 C83.3588966,151.172414 82.7884138,151.037793 82.4871724,150.769655 C82.1848276,150.500414 82.0347586,149.978483 82.0347586,149.204966 L82.0347586,144.818759 Z" id="Fill-41" fill="#36318F" mask="url(#mask-2)"></path>
                <polygon id="Fill-42" fill="#36318F" mask="url(#mask-2)" points="96.2963862 151.172414 96.2963862 142.85131 97.6933517 142.85131 104.754317 148.378483 104.754317 142.85131 106.583834 142.85131 106.583834 151.172414 105.184662 151.172414 98.1248 145.565793 98.1248 151.172414"></polygon>
                <path d="M43.023669,97.5026759 C44.2264276,90.8852966 29.603531,68.9752276 18.2788414,72.1266759 C29.5638069,81.0480552 34.6981517,93.8006069 35.7199448,102.8864 L35.7265655,102.992331 C39.1064276,102.791503 42.2678069,101.659366 43.023669,97.5026759" id="Fill-43" fill="#2D307D" mask="url(#mask-2)"></path>
                <path d="M78.5991724,35.0010483 C86.9048276,35.0010483 93.6468966,28.2545655 93.6468966,19.9422897 C93.6468966,17.8336 93.2088276,15.8286345 92.4242759,14.0068414 C94.5881379,12.7820138 96.0513103,10.4614621 96.0513103,7.79884138 C96.0513103,3.86284138 92.857931,0.670565517 88.9208276,0.670565517 C85.8422069,0.670565517 83.2281379,2.62477241 82.2317241,5.35691034 C81.0653793,5.0678069 79.8537931,4.89677241 78.5991724,4.89677241 C70.2824828,4.89677241 63.5481379,11.635531 63.5481379,19.9422897 C63.5481379,28.2545655 70.2824828,35.0010483 78.5991724,35.0010483" id="Fill-44" fill="#2D307D" mask="url(#mask-2)"></path>
                <path d="M88.2349241,92.5608828 C87.9027862,92.2375724 87.5110621,92.0179862 87.0983724,91.8822621 C85.8249931,92.9625379 84.5284414,93.9633655 83.2065103,94.8913655 C83.2528552,95.6019862 83.5430621,96.300469 84.0947862,96.8356414 L92.4203034,104.900745 L42.5874759,104.900745 C40.9433379,104.900745 39.6103724,106.23371 39.6103724,107.875641 C39.6103724,109.517572 40.9433379,110.850538 42.5874759,110.850538 L99.7670621,110.850538 C100.979752,110.850538 102.068855,110.114538 102.523476,108.992331 C102.978097,107.867917 102.708855,106.5824 101.837131,105.737159 L88.2349241,92.5608828 Z" id="Fill-45" fill="#2D307D" mask="url(#mask-2)"></path>
                <path d="M59.6777931,89.6772414 C65.0427586,87.8344828 68.9213793,85.1685517 72.1875862,82.2223448 C71.3809655,74.8082759 65.1078621,69.033931 57.4742069,69.033931 C49.2998621,69.033931 42.6670345,75.6645517 42.6670345,83.8388966 C42.6670345,90.6107586 47.2165517,96.3111724 53.4201379,98.0777931 C53.3903448,97.9586207 53.3605517,97.8361379 53.3406897,97.7158621 C52.7790345,94.345931 55.2662069,91.1911724 59.6777931,89.6772414" id="Fill-46" fill="#2D307D" mask="url(#mask-2)"></path>
                <path d="M112.978428,71.4929655 C107.743669,65.488 107.570428,53.2695172 104.916634,46.0463448 C100.165186,33.1117241 78.9547034,33.0168276 74.2043586,40.7674483 C66.1966345,53.830069 66.1293241,57.5531034 41.9538759,69.4173793 C36.1078069,72.2852414 36.1376,77.8609655 40.8978759,78.6841379 C43.0981517,71.622069 49.6967724,66.4822069 57.4738759,66.4822069 C60.8769103,66.4822069 64.0438069,67.481931 66.7251862,69.1801379 C74.8730483,64.0303448 79.8187034,58.9114483 79.8187034,58.9114483 C79.8187034,58.9114483 84.0416,64.8071724 87.0297379,69.8278621 C85.0269793,72.2742069 82.9988414,74.6543448 81.1958069,76.5908966 C75.9720828,82.2008276 70.8278069,88.5434483 60.5061517,92.0888276 C52.7731862,94.7426207 55.2018759,101.852138 63.411531,100.39669 C73.3271172,98.6433103 80.5966345,94.288 86.4416,89.0797241 C87.9665655,87.7224828 89.3922207,86.3045517 90.7439448,84.8612414 C90.7902897,87.1729655 90.7483586,88.9131034 90.7483586,88.9131034 L112.29429,110.850759 L127.503117,110.850759 C127.503117,90.1964138 121.265324,80.998069 112.978428,71.4929655" id="Fill-47" fill="#2D307D" mask="url(#mask-2)"></path>
                <path d="M16.1093517,73.6514207 C9.7248,68.7863172 6.67707586,68.9705931 0.000110344828,69.378869 L0.000110344828,110.850869 L33.1774897,110.850869 L33.1774897,103.100248 C32.1777655,94.3741793 27.1725241,82.0795586 16.1093517,73.6514207" id="Fill-48" fill="#2D307D" mask="url(#mask-2)"></path>
            </g>
        </g>
    </g>
</svg>