<svg xmlns="http://www.w3.org/2000/svg" xmlns:xlink="http://www.w3.org/1999/xlink" viewBox="0 0 306.5 57.18"><defs><style>.cls-1{fill:none;}.cls-2{fill:#898989;}.cls-3{fill:#008086;}.cls-4{clip-path:url(#clip-path);}.cls-5{fill:url(#linear-gradient);}.cls-6{fill:#e0f1f4;}.cls-7{clip-path:url(#clip-path-2);}.cls-8{fill:url(#linear-gradient-2);}</style><clipPath id="clip-path"><path class="cls-1" d="M37.07,49.41c-.2.19-.12.53.31.65a1.67,1.67,0,0,1,.9.57c.24.25.25.33.31.3s-.1-.57-.51-1.09a1.12,1.12,0,0,0-.78-.5.32.32,0,0,0-.23.07m3.72.43c-.41.52-.6,1-.52,1.09s.08,0,.31-.3a1.69,1.69,0,0,1,.91-.57c.42-.12.51-.46.31-.65a.33.33,0,0,0-.23-.07,1.09,1.09,0,0,0-.78.5M38,49.19c0,.22.21.29.41.46s.32.51.42.51,0-.59-.26-.92a.53.53,0,0,0-.37-.22.19.19,0,0,0-.2.17m2.22.05c-.29.33-.37.87-.27.92s.08-.22.43-.51c.2-.17.45-.24.41-.46a.2.2,0,0,0-.2-.17.5.5,0,0,0-.37.22m-1.14-.76a2.6,2.6,0,0,0,.31,1.2,2.46,2.46,0,0,0,.32-1.2c0-.41-.15-.6-.32-.6s-.31.19-.31.6M27.86,46.94c-.13.26.09.58.55.52a1.85,1.85,0,0,1,1.13.22c.34.17.38.24.43.19s-.33-.54-.93-.9a1.57,1.57,0,0,0-.75-.24.45.45,0,0,0-.43.21m22,0c-.6.36-1,.82-.93.9s.09,0,.42-.19a1.85,1.85,0,0,1,1.13-.22c.47.06.69-.26.56-.52a.46.46,0,0,0-.44-.21,1.57,1.57,0,0,0-.74.24m-19.19-.53a2.6,2.6,0,0,0,.31,1.2,2.46,2.46,0,0,0,.32-1.2c0-.41-.15-.6-.32-.6s-.31.19-.31.6m17,0a2.6,2.6,0,0,0,.31,1.2,2.46,2.46,0,0,0,.32-1.2c0-.41-.15-.6-.32-.6s-.31.19-.31.6M7.32,29.29c0,.05,0,.07.28.27a1.59,1.59,0,0,1,.52.82c.09.38.41.46.57.28s.1-.54-.38-.91a2.17,2.17,0,0,0-.94-.48s0,0,0,0m63.24.46c-.48.37-.53.75-.39.91s.48.1.58-.28a1.53,1.53,0,0,1,.52-.82c.23-.2.3-.22.27-.27s0,0-.05,0a2.2,2.2,0,0,0-.93.48M8,29c0,.1.19.07.46.38s.21.41.42.37.25-.26-.05-.51A1.22,1.22,0,0,0,8.14,29C8.08,29,8,29,8,29m62,.24c-.29.25-.21.49,0,.51s.26-.19.41-.37.46-.28.46-.38,0,0-.11,0a1.27,1.27,0,0,0-.72.28M8.45,28.52a2.25,2.25,0,0,0,1.09.29c.36,0,.54-.13.54-.29s-.18-.28-.54-.28a2.4,2.4,0,0,0-1.09.28m60.34,0c0,.16.17.29.54.29a2.25,2.25,0,0,0,1.09-.29,2.4,2.4,0,0,0-1.09-.28c-.37,0-.54.13-.54.28M8.48,27.64C8.21,28,8,27.92,8,28s.54,0,.83-.24.21-.48.05-.51H8.85c-.17,0-.23.2-.37.37M70,27.27c-.17,0-.25.26,0,.51s.8.34.83.24-.19-.07-.46-.38-.2-.37-.37-.37h0M6.72,26.9a1.73,1.73,0,0,1-.5,1c-.49.56-.89.57-.89.65s.4.11.89.66a1.73,1.73,0,0,1,.5,1c.24.13.66-.51.28-1.17a1.54,1.54,0,0,0,1.21-.46A1.59,1.59,0,0,0,7,28.07c.35-.6,0-1.19-.21-1.19l-.07,0m65.15,1.17a1.59,1.59,0,0,0-1.21.45,1.54,1.54,0,0,0,1.21.46c-.38.66,0,1.3.28,1.17a1.75,1.75,0,0,1,.49-1c.5-.55.9-.57.9-.66s-.4-.09-.9-.65a1.75,1.75,0,0,1-.49-1l-.07,0c-.24,0-.56.59-.21,1.19M8.12,26.67a1.59,1.59,0,0,1-.52.82c-.23.21-.3.22-.28.28s.52-.1,1-.46.53-.76.38-.91a.25.25,0,0,0-.2-.1c-.15,0-.31.12-.37.37m62.05-.27c-.14.15-.09.53.39.91s.94.53,1,.46,0-.07-.27-.28a1.53,1.53,0,0,1-.52-.82c-.06-.25-.22-.37-.37-.37a.26.26,0,0,0-.21.1M30.64,10.61c0,.41.14.61.31.61s.32-.2.32-.61A2.49,2.49,0,0,0,31,9.41a2.64,2.64,0,0,0-.31,1.2m17,0c0,.41.14.61.31.61s.32-.2.32-.61a2.49,2.49,0,0,0-.32-1.2,2.64,2.64,0,0,0-.31,1.2M29.54,9.37a1.85,1.85,0,0,1-1.13.22c-.46-.05-.68.26-.55.53s.55.33,1.18,0,1-.82.93-.89l0,0a4.16,4.16,0,0,0-.4.2M48.9,9.19c-.07.07.33.53.93.89s1.07.26,1.18,0-.09-.58-.56-.53a1.85,1.85,0,0,1-1.13-.22c-.26-.12-.34-.2-.39-.2l0,0m-9.78-.62c0,.41.14.61.31.61s.32-.2.32-.61a2.49,2.49,0,0,0-.32-1.2,2.64,2.64,0,0,0-.31,1.2m-.67-1.16c-.2.16-.45.23-.41.46s.29.27.57-.06.37-.87.26-.91-.08.21-.42.51m1.81.4c.28.33.54.24.57.06s-.21-.3-.41-.46c-.35-.3-.32-.51-.43-.51s0,.58.27.91m-2-1.38a1.73,1.73,0,0,1-.9.57c-.43.11-.51.46-.31.64s.59.1,1-.43.59-1,.51-1.09h0s-.09.09-.29.32m2-.31c-.08,0,.11.58.52,1.09s.83.59,1,.43.11-.53-.31-.64a1.75,1.75,0,0,1-.91-.57c-.2-.23-.23-.32-.28-.32h0M24.72,47.69a1.39,1.39,0,0,1,.17-2.21c.87-.64,2.42-.44,3.78.64a8.67,8.67,0,0,1,2.27,2.66,2.35,2.35,0,0,0-2.61-.58c-.66.42-.53,1.17-.25,1.22s.46-.23.67-.33a.38.38,0,0,1,.46.12c.11.11.43.34.62.11s.38-.48.68-.39a3.51,3.51,0,0,1,.82.49,6.57,6.57,0,0,0,3.83,3.22A23.66,23.66,0,0,1,25,48.26a1.4,1.4,0,0,0,1.8-.87.9.9,0,0,0-.73-1.19.81.81,0,0,0-.92.75.09.09,0,0,0,.18,0c.05-.12.11-.56.63-.55s.71.67.43,1.1a1.14,1.14,0,0,1-.94.43,1.1,1.1,0,0,1-.76-.28m25.47-1.57C51.56,45,53.1,44.84,54,45.48a1.39,1.39,0,0,1,.16,2.21,1.2,1.2,0,0,1-1.69-.15c-.28-.43-.14-1.1.42-1.1a.64.64,0,0,1,.64.55.09.09,0,0,0,.18,0,.81.81,0,0,0-.92-.75A.91.91,0,0,0,52,47.39a1.42,1.42,0,0,0,1.81.87A23.65,23.65,0,0,1,43.7,52.64a6.56,6.56,0,0,0,3.84-3.22,3.61,3.61,0,0,1,.81-.49c.31-.09.49.15.69.39s.51,0,.62-.11a.38.38,0,0,1,.46-.12c.2.1.4.38.67.33s.41-.8-.25-1.22a2.34,2.34,0,0,0-2.61.58,8.72,8.72,0,0,1,2.26-2.66m-15-41.71a6.59,6.59,0,0,0-3.83,3.23,3.6,3.6,0,0,1-.82.48c-.3.1-.49-.15-.68-.38s-.51,0-.62.1-.26.23-.46.12-.4-.38-.67-.32-.41.79.25,1.21a2.33,2.33,0,0,0,2.61-.58,8.76,8.76,0,0,1-2.27,2.67c-1.36,1.08-2.91,1.27-3.78.64a1.4,1.4,0,0,1-.17-2.22,1.22,1.22,0,0,1,1.7.15c.28.43.14,1.1-.43,1.1a.62.62,0,0,1-.63-.55.09.09,0,0,0-.18,0,.83.83,0,0,0,.92.76.91.91,0,0,0,.73-1.2A1.4,1.4,0,0,0,25,8.79,23.78,23.78,0,0,1,35.16,4.41M48.35,8.12a3.7,3.7,0,0,1-.81-.48,6.62,6.62,0,0,0-3.83-3.23A23.78,23.78,0,0,1,53.84,8.79,1.42,1.42,0,0,0,52,9.66a.92.92,0,0,0,.74,1.2.83.83,0,0,0,.92-.76.09.09,0,0,0-.18,0,.63.63,0,0,1-.64.55c-.56,0-.7-.67-.42-1.1a1.2,1.2,0,0,1,1.69-.15A1.4,1.4,0,0,1,54,11.58c-.88.63-2.42.44-3.79-.64a8.81,8.81,0,0,1-2.26-2.67,2.33,2.33,0,0,0,2.61.58c.66-.42.53-1.16.25-1.21s-.47.22-.67.32a.36.36,0,0,1-.46-.12c-.11-.11-.43-.34-.62-.1s-.32.4-.56.4a.32.32,0,0,1-.13,0M41.24,5.45a1.92,1.92,0,0,1-1.08-.55,2.29,2.29,0,0,1-.63-.85c.52,0,1,0,1.53,0,.53.25,1.08.72,1,1s-.34.29-.31.62.25.34.47.5.11.5,0,.68-.12.54.3.53.77-.49.82-1.15c.08-1.06-1.2-1.91-2-2.17h0c2.89.55,3.62,1.57,3.81,2.26a1,1,0,0,1-.75,1.36.62.62,0,0,1-.7-.47c.39.18.93,0,.88-.55s-.74-.57-1-.34a1.05,1.05,0,0,0,0,1.56,1.33,1.33,0,0,0,2.06-.44,1.88,1.88,0,0,0-.36-2.08c1.48,1.11,2.09,2.37,1.89,3.28-.15.7-.59,1-1,1A.87.87,0,0,1,45.32,9a.73.73,0,0,1,.54-.91.4.4,0,0,1,.35.67.41.41,0,0,1-.33.1.06.06,0,0,0,0,.11.54.54,0,0,0,.63-.22.55.55,0,0,0-.2-.8.86.86,0,0,0-1.19.45A1.14,1.14,0,0,0,46,10c.85.2,1.71-.66,1.6-1.79C49.52,12,52.35,12.94,54,12.1a1.75,1.75,0,0,0,.8-2.55A25.15,25.15,0,0,1,60.7,16.4h5.36v3.24A12.61,12.61,0,0,1,70.67,22a2.71,2.71,0,0,0-1.4-.28A1.28,1.28,0,0,0,68,23.28a1,1,0,0,0,1.44.55.72.72,0,0,0,.26-1A.49.49,0,0,0,69,22.7a.45.45,0,0,0-.12.56,0,0,0,0,0,.09,0,.39.39,0,0,1,0-.29.33.33,0,0,1,.6.23.58.58,0,0,1-.71.56.77.77,0,0,1-.69-.71A1,1,0,0,1,69,22c.75-.26,1.87.1,3,1.21l0,0a1.63,1.63,0,0,0-1.81-.06A1.15,1.15,0,0,0,70,25a.91.91,0,0,0,1.34-.16c.16-.28.07-.87-.4-.85a.49.49,0,0,0-.38.81.54.54,0,0,1-.48-.55.86.86,0,0,1,1.08-.79c.62.08,1.58.6,2.39,3.06h0c-.31-.65-1.19-1.68-2.1-1.49-.56.12-.94.48-.9.84s.35.29.49.2.43-.23.59-.06.2.36.48.35.22-.24.5-.33.74.34,1,.79a9.84,9.84,0,0,1,.17,1.67,9.65,9.65,0,0,1-.17,1.68c-.27.45-.75.89-1,.8s-.21-.33-.5-.34-.32.17-.48.35-.44,0-.59-.05-.45-.17-.49.19.34.72.9.84c.9.19,1.78-.84,2.1-1.48h0c-.81,2.47-1.77,3-2.39,3.06a.86.86,0,0,1-1.08-.79.54.54,0,0,1,.48-.55A.49.49,0,0,0,71,33c.47,0,.56-.57.4-.85A.92.92,0,0,0,70,32a1.15,1.15,0,0,0,.14,1.82A1.62,1.62,0,0,0,72,33.79l0,0c-1.1,1.1-2.22,1.46-3,1.2-.58-.22-.79-.62-.75-1a.76.76,0,0,1,.69-.71.57.57,0,0,1,.71.55.33.33,0,0,1-.6.23.39.39,0,0,1,0-.29c0-.06-.06-.08-.09,0a.45.45,0,0,0,.12.56.5.5,0,0,0,.71-.1.73.73,0,0,0-.26-1,1,1,0,0,0-1.44.56,1.27,1.27,0,0,0,1.26,1.6,2.67,2.67,0,0,0,1.39-.28,12.34,12.34,0,0,1-4.6,2.31v3.25H60.7a25.32,25.32,0,0,1-5.89,6.85A1.76,1.76,0,0,0,54,45c-1.66-.84-4.49.1-6.39,3.92.11-1.13-.75-2-1.6-1.79a1.14,1.14,0,0,0-.93,1.54.86.86,0,0,0,1.19.45.56.56,0,0,0-.43-1c-.06,0,0,.13,0,.12a.41.41,0,0,1,.33.1.39.39,0,0,1-.35.66.73.73,0,0,1-.54-.91.87.87,0,0,1,.92-.68,1.1,1.1,0,0,1,1,1c.2.91-.41,2.17-1.89,3.29a1.89,1.89,0,0,0,.36-2.09,1.33,1.33,0,0,0-2.06-.44,1.05,1.05,0,0,0,0,1.56c.3.23,1,.22,1-.33a.58.58,0,0,0-.88-.56.61.61,0,0,1,.7-.46,1,1,0,0,1,.75,1.35c-.19.69-.92,1.71-3.82,2.26h0c.79-.26,2.08-1.11,2-2.17,0-.66-.41-1.14-.82-1.15s-.38.35-.3.53.19.53,0,.69-.44.17-.47.5.23.28.31.61-.49.78-1,1c-.5,0-1,0-1.52.06a2.3,2.3,0,0,1,.63-.86,2,2,0,0,1,1.08-.55c.14-.26-.57-.73-1.31-.31a1.75,1.75,0,0,0-.5-1.34,1.75,1.75,0,0,0-.5,1.34c-.73-.42-1.45.05-1.3.31a2,2,0,0,1,1.08.55,2.43,2.43,0,0,1,.63.86c-.52,0-1,0-1.52-.06-.54-.24-1.1-.71-1-1s.34-.28.31-.61-.25-.35-.47-.5-.12-.51,0-.69.12-.54-.3-.53-.78.49-.83,1.15c-.08,1.06,1.21,1.91,2,2.17h0c-2.89-.55-3.62-1.57-3.81-2.26a1,1,0,0,1,.74-1.35.63.63,0,0,1,.71.46c-.39-.18-.94,0-.88.56s.74.56,1,.33a1.06,1.06,0,0,0,0-1.56,1.33,1.33,0,0,0-2.06.44,1.89,1.89,0,0,0,.36,2.09c-1.49-1.12-2.09-2.38-1.89-3.29a1.1,1.1,0,0,1,1-1,.87.87,0,0,1,.91.68.71.71,0,0,1-.54.91.39.39,0,0,1-.34-.66.41.41,0,0,1,.33-.1c.07,0,.08-.09,0-.12a.53.53,0,0,0-.62.23.54.54,0,0,0,.19.79.86.86,0,0,0,1.2-.45,1.14,1.14,0,0,0-.93-1.54,1.49,1.49,0,0,0-1.61,1.79c-1.9-3.82-4.73-4.76-6.38-3.92a1.76,1.76,0,0,0-.8,2.56,25.32,25.32,0,0,1-5.89-6.85H12.8V37.41A12.34,12.34,0,0,1,8.21,35.1a2.65,2.65,0,0,0,1.39.28,1.26,1.26,0,0,0,1.25-1.6,1,1,0,0,0-1.44-.56.75.75,0,0,0-.26,1,.51.51,0,0,0,.72.1.46.46,0,0,0,.12-.56s-.11,0-.1,0a.34.34,0,0,1-.05.29.33.33,0,0,1-.59-.23.56.56,0,0,1,.7-.55.76.76,0,0,1,.7.71,1,1,0,0,1-.76,1c-.74.26-1.86-.1-3-1.2l0,0a1.6,1.6,0,0,0,1.8.06A1.15,1.15,0,0,0,8.84,32a.93.93,0,0,0-1.35.16c-.15.28-.07.88.41.85a.49.49,0,0,0,.38-.81.54.54,0,0,1,.48.55.86.86,0,0,1-1.08.79c-.62-.08-1.58-.59-2.39-3.06h0c.31.65,1.19,1.68,2.1,1.49.56-.12.93-.48.89-.84s-.34-.28-.49-.19-.43.22-.58.05-.2-.36-.49-.35-.22.24-.49.34-.74-.35-1-.79a9,9,0,0,1-.17-1.69,8.83,8.83,0,0,1,.17-1.67c.27-.45.75-.89,1-.79s.21.32.49.33.33-.17.49-.35.44,0,.58.06.45.16.49-.2-.33-.72-.89-.84c-.91-.19-1.79.84-2.1,1.49h0c.81-2.47,1.77-3,2.39-3.07a.86.86,0,0,1,1.08.79.54.54,0,0,1-.48.55A.49.49,0,0,0,7.9,24c-.48,0-.56.57-.41.85A.92.92,0,0,0,8.84,25a1.15,1.15,0,0,0-.15-1.82,1.62,1.62,0,0,0-1.8.06l0,0C8,22.12,9.15,21.76,9.89,22a1,1,0,0,1,.76,1,.77.77,0,0,1-.7.71.57.57,0,0,1-.7-.56.33.33,0,0,1,.59-.23.34.34,0,0,1,.05.29.05.05,0,0,0,.1,0,.46.46,0,0,0-.12-.56.5.5,0,0,0-.72.11.74.74,0,0,0,.26,1,1,1,0,0,0,1.44-.55A1.27,1.27,0,0,0,9.6,21.67,2.71,2.71,0,0,0,8.2,22a12.6,12.6,0,0,1,4.6-2.31V16.4h5.37a25.15,25.15,0,0,1,5.89-6.85,1.75,1.75,0,0,0,.8,2.55c1.65.84,4.48-.09,6.38-3.92A1.49,1.49,0,0,0,32.85,10a1.14,1.14,0,0,0,.93-1.54A.87.87,0,0,0,32.58,8a.55.55,0,0,0-.19.8A.52.52,0,0,0,33,9c.06,0,.05-.12,0-.11a.41.41,0,0,1-.33-.1A.39.39,0,0,1,33,8.12a.71.71,0,0,1,.54.91.87.87,0,0,1-.91.68c-.42,0-.86-.3-1-1-.2-.91.4-2.17,1.89-3.28a1.88,1.88,0,0,0-.36,2.08A1.33,1.33,0,0,0,35.21,8a1.06,1.06,0,0,0,0-1.56c-.3-.23-1-.21-1,.34s.49.73.88.55a.64.64,0,0,1-.71.47,1,1,0,0,1-.74-1.36c.19-.69.92-1.71,3.81-2.26h0c-.79.26-2.08,1.11-2,2.17.05.66.41,1.14.83,1.15s.38-.35.3-.53-.2-.53,0-.68.44-.18.47-.5-.24-.29-.31-.62.49-.77,1-1c.5,0,1,0,1.53,0a2.42,2.42,0,0,1-.63.85,1.94,1.94,0,0,1-1.08.55c-.15.26.57.73,1.3.31a1.75,1.75,0,0,0,.5,1.34,1.75,1.75,0,0,0,.5-1.34,1.29,1.29,0,0,0,.62.17c.46,0,.79-.29.69-.48m-23.63,10H12.8a1,1,0,0,0-1,1v2.52c-2.08.7-7.75,3.19-7.75,9.6s5.67,8.91,7.75,9.62v2.52a1,1,0,0,0,1,1h4.81C19.1,44,26,54,39.43,54S59.77,44,61.25,41.63h4.81a1,1,0,0,0,1-1V38.14c2.09-.71,7.76-3.2,7.76-9.62s-5.67-8.9-7.76-9.6V16.4a1,1,0,0,0-1-1H61.25C59.77,13,52.82,3.07,39.43,3.07S19.1,13,17.61,15.42m-7,25s-8.38-3.78-8.38-11.9,8.38-11.89,8.38-11.89V12.94h5.8A27.15,27.15,0,0,1,39.43.7a27.15,27.15,0,0,1,23,12.24h5.79v3.69s8.38,3.78,8.38,11.89-8.38,11.9-8.38,11.9v3.69H62.42a27.15,27.15,0,0,1-23,12.25,27.14,27.14,0,0,1-23-12.25h-5.8ZM14.71,12.3H9.4a1,1,0,0,0-1,1v3.41C6.44,17.74.05,21.07.05,28.52s6.39,10.8,8.38,11.85v3.42a1,1,0,0,0,1,1h5.31a31.08,31.08,0,0,0,49.45,0h5.31a1,1,0,0,0,1-1V40.37c2-1,8.38-4.39,8.38-11.85s-6.39-10.78-8.38-11.84V13.27a1,1,0,0,0-1-1H64.16a31.08,31.08,0,0,0-49.45,0"/></clipPath><linearGradient id="linear-gradient" x1="-27.1" y1="1446.72" x2="-26.1" y2="1446.72" gradientTransform="matrix(0, 56.96, 56.96, 0, -82360.5, 1543.51)" gradientUnits="userSpaceOnUse"><stop offset="0" stop-color="#45bdcf"/><stop offset="0.07" stop-color="#45bdcf"/><stop offset="0.15" stop-color="#83c8e0"/><stop offset="0.38" stop-color="#bce2e8"/><stop offset="0.63" stop-color="#83c8dd"/><stop offset="0.84" stop-color="#45bdcf"/><stop offset="1" stop-color="#45bdcf"/></linearGradient><clipPath id="clip-path-2"><path class="cls-1" d="M18.62,21.91v.88a2.38,2.38,0,0,1,1.57.34,1.63,1.63,0,0,1,.35,1.18v8.12a2.36,2.36,0,0,1-.13.89.85.85,0,0,1-.55.47,3.57,3.57,0,0,1-1.24.16v.88h6.55V34a3.58,3.58,0,0,1-1.26-.17,1,1,0,0,1-.53-.49,2.5,2.5,0,0,1-.12-.86V24.31a2.32,2.32,0,0,1,.13-.89.91.91,0,0,1,.55-.47,3.55,3.55,0,0,1,1.23-.16v-.88Zm7.61,0v.88a3.27,3.27,0,0,1,1.25.18.81.81,0,0,1,.51.48,2.49,2.49,0,0,1,.11.86v8.12a1.65,1.65,0,0,1-.34,1.18,2.37,2.37,0,0,1-1.53.34v.87h11.5l.1-4.24h-.89a4.46,4.46,0,0,1-.8,2.16A2.36,2.36,0,0,1,35,33.6a4.6,4.6,0,0,1-1.25.17h-1a4.17,4.17,0,0,1-1.07-.11.92.92,0,0,1-.54-.34,1.25,1.25,0,0,1-.21-.58c0-.24,0-.61,0-1.12v-3h1.33a3.44,3.44,0,0,1,1,.11.82.82,0,0,1,.48.45,3,3,0,0,1,.2,1.06h.87v-4.3H33.8A3.22,3.22,0,0,1,33.61,27a.73.73,0,0,1-.46.45,3.17,3.17,0,0,1-1,.12H30.83V23h2.42a7.21,7.21,0,0,1,1.44.11,1.52,1.52,0,0,1,.86.59,4.44,4.44,0,0,1,.69,1.59h.87l-.17-3.35ZM43.39,33.55a.91.91,0,0,1-.43-.61,6.12,6.12,0,0,1-.08-1.1V28.48h1.54a2.47,2.47,0,0,1,1.92.73A2.91,2.91,0,0,1,47,31.26a2.27,2.27,0,0,1-.78,1.91,2.78,2.78,0,0,1-1.76.6,2,2,0,0,1-1.09-.22m-.51-10.74h1a3.7,3.7,0,0,1,1.53.28,2.09,2.09,0,0,1,.94.78A2.14,2.14,0,0,1,46.67,25a2.22,2.22,0,0,1-.74,1.75,3.38,3.38,0,0,1-2.27.65h-.78Zm1.23-1.07-1.13,0-2.06,0-2.62.05v.9a2.31,2.31,0,0,1,1.5.33,1.61,1.61,0,0,1,.35,1.2v8.14a2.3,2.3,0,0,1-.12.87.88.88,0,0,1-.51.49A3.33,3.33,0,0,1,38.3,34v.88h6.47a10.65,10.65,0,0,0,1.56-.12A6.7,6.7,0,0,0,48,34.24a3.57,3.57,0,0,0,1.4-1.05,2.73,2.73,0,0,0,.55-1.77,3.08,3.08,0,0,0-.43-1.63,3.25,3.25,0,0,0-1.26-1.2,6.14,6.14,0,0,0-2-.67,5.55,5.55,0,0,0,2.37-1.21A2.41,2.41,0,0,0,49.39,25a2.56,2.56,0,0,0-.89-2.09,4.3,4.3,0,0,0-2-.92,10.85,10.85,0,0,0-2.07-.21Zm10.35,4,1.78,4.5H52.76Zm.45-4.12-3.73,9.76A9.93,9.93,0,0,1,50.45,33a2,2,0,0,1-.71.76,1.79,1.79,0,0,1-.9.2v.88h4.45V34a3.26,3.26,0,0,1-1-.15.69.69,0,0,1-.44-.73,3.32,3.32,0,0,1,.27-1l.31-.83h4.19l.61,1.52a1.53,1.53,0,0,1,.11.58.49.49,0,0,1-.35.52,4.23,4.23,0,0,1-1.12.11v.88h6.08V34a2,2,0,0,1-1-.21,1.47,1.47,0,0,1-.55-.58c-.13-.25-.34-.73-.62-1.44L55.81,21.66Z"/></clipPath><linearGradient id="linear-gradient-2" x1="-27.1" y1="1446.71" x2="-26.1" y2="1446.71" gradientTransform="matrix(29.99, 0, 0, -29.99, 836.6, 43415.51)" gradientUnits="userSpaceOnUse"><stop offset="0" stop-color="#83c8dd"/><stop offset="0.01" stop-color="#83c8dd"/><stop offset="0.19" stop-color="#45bdcf"/><stop offset="0.4" stop-color="#83c8dd"/><stop offset="0.5" stop-color="#bce2e8"/><stop offset="0.69" stop-color="#83c8dd"/><stop offset="0.84" stop-color="#45bdcf"/><stop offset="1" stop-color="#83c8dd"/></linearGradient></defs><title>アセット 159</title><g id="レイヤー_2" data-name="レイヤー 2"><g id="レイヤー_1-2" data-name="レイヤー 1"><path d="M91.82,12.51h11.66v1.34H91.82Zm14.85,4.38h.9V13.75l.59-.08V17.6c0,.28,0,.3-.32.3h-1.17l.25,1.27H108c.69,0,1.22-.24,1.22-1.27V13.5l.41-.09V12.35l-.41.06V8.68h-1.8c.14-.36.35-.88.42-1.07l-1.33-.13a8,8,0,0,1-.35,1.2h-1.23v4.19c-.27,0-.44,0-.78,0l.12,1.2.66-.06a9.18,9.18,0,0,1-.85,4.07l.78,1A12.18,12.18,0,0,0,106,14l.66-.08Zm1.49-4.32c-.48.07-.66.08-2.15.23v-3h2.15Zm-1.8-2.13a10.9,10.9,0,0,1,.49,2l1-.29a19.62,19.62,0,0,0-.58-1.94Zm4.21,3.94a8.23,8.23,0,0,0,1.36,2.34,8,8,0,0,1-2.42,1.36l.67,1.09a8.3,8.3,0,0,0,2.62-1.57,9.8,9.8,0,0,0,2.58,1.57L116,18a7.12,7.12,0,0,1-2.32-1.28,11.86,11.86,0,0,0,1.6-2.72V12.79h-5.35V14h1.62Zm-.14-5.79a8.61,8.61,0,0,1-.23,1.74,2.56,2.56,0,0,1-.67,1.15l.7,1c.59-.57,1.09-1.18,1.31-3.5H113v1.87c0,.94.52,1.05,1,1.05h.82c1,0,1.18-.65,1.23-2.14l-1-.29c0,.16,0,.84-.06,1a.36.36,0,0,1-.35.33h-.25c-.2,0-.3-.15-.3-.35V7.84h-3.69ZM113.86,14a8.12,8.12,0,0,1-1.07,1.85A7.23,7.23,0,0,1,111.73,14Zm6,.17a9.25,9.25,0,0,0,1.34,1.3l.6-1.18a8.6,8.6,0,0,1-1.74-1.53,10.27,10.27,0,0,0,1.26-2.11V9.39h-1.46V7.45h-1.29V9.39h-1.88v1.23H120a8.13,8.13,0,0,1-3.4,3.64l.55,1.27a7.51,7.51,0,0,0,1.51-1.16v4.82h1.29ZM124.16,11h-2.61v1.33h2.61v5.13H121v1.33h7.4V17.44h-2.95V12.31h2.67V11h-2.67V7.45h-1.31ZM140.4,7.9H129.67v11H140.4ZM131,9.11h8.15v8.53H131Zm6.38,2.94h1.23V10.92h-1.23V9.53h-1.24v1.39h-4.59v1.13h4.59v3.62c0,.21-.06.3-.35.3h-1.49l.2,1.24h1.62a1.11,1.11,0,0,0,1.26-1.08Zm-5.45,1.16a11.77,11.77,0,0,1,1.53,2.5l1.09-.68a12.78,12.78,0,0,0-1.59-2.44Zm11.84.83a14.73,14.73,0,0,1-2.28,3.8l.85,1.24a23,23,0,0,0,2.48-4.25Zm-2.22-2a10,10,0,0,1,2,1.21l.77-1.16a16.09,16.09,0,0,0-2.18-1.19ZM142,8.55a13.58,13.58,0,0,1,2,1.31l.82-1.17a13.48,13.48,0,0,0-2.12-1.21Zm11.32,5.19v-1.2h-3.6v-2.1h3.13V9.23h-3.13V7.48h-1.26V9.23h-3.12v1.21h3.12v2.1h-3.62v1.2h2.39a16.35,16.35,0,0,1-1.62,3.82l-.95,0,.18,1.23a67.61,67.61,0,0,0,6.75-.54c.16.34.27.6.44,1l1.29-.6a15.43,15.43,0,0,0-2.44-4l-1.13.63a16,16,0,0,1,1.29,1.93c-2,.2-2.58.21-4,.26a19.65,19.65,0,0,0,1.72-3.77Zm5.89-4.65a11.16,11.16,0,0,1-1.1,4.63,9,9,0,0,1-4.23,4.14l.93,1.25A10.19,10.19,0,0,0,160,12.47a10.34,10.34,0,0,0,5.15,6.64l.86-1.27A9.47,9.47,0,0,1,160.69,9V7.5h-1.45ZM106.76,24.65H92.57V39h14.19Zm-1.7,12.78H94.26V26.23h10.8Zm-1.4-3.23a8.28,8.28,0,0,0-1-2h1.18V30.86h-3.59V28.75h3.92V27.31h-9v1.44h3.46v2.11H95.48v1.37h3.16v2.62H94.86v1.48h9.6V34.85h-4.17V32.23h1.9l-1.06.41a9.8,9.8,0,0,1,1,2.15ZM114,32.3a16,16,0,0,0,2-1.68v1.13h5.56v-1a9.77,9.77,0,0,0,1.59,1.37l1.1-1.3A7.49,7.49,0,0,1,122,28.88a8.36,8.36,0,0,0,1.84-2.71V24.71h-4c-.09-.35-.09-.4-.14-.61l-1.29.17a3.5,3.5,0,0,0,.07.5h-2.12c.08-.18.13-.31.25-.62L115.17,24a8.07,8.07,0,0,1-2.44,3.58,11.72,11.72,0,0,0,.48-1.74V24.38h-4.38V39.43h1.57V25.8h1.28a20,20,0,0,1-1.12,4.06,8,8,0,0,1,1.28,3.91c0,.48-.1.84-.56.84h-.83l.55,1.61h.56c1.77,0,1.77-1.91,1.77-2.3A7.73,7.73,0,0,0,112,29.73c.17-.45.3-.76.68-1.89l.66,1.09a2.19,2.19,0,0,0,.33-.25,15,15,0,0,1,1.28,1.08A8.29,8.29,0,0,1,113,31Zm1.25,2.86a6.52,6.52,0,0,1-2.79,2.71L113.66,39a8.77,8.77,0,0,0,3.07-3.18Zm8.3-2H114v1.5h3.82v2.67c0,.36-.07.45-.42.45H116l.33,1.7H118c1.26,0,1.53-.59,1.53-1.7V34.61h4.07Zm-7.35-4.84a6.36,6.36,0,0,1-.52.68,7.81,7.81,0,0,0-1.32-1.05c.13-.15.2-.23.45-.54a10.58,10.58,0,0,1,1.39.91m1.11-2.34c-.12.32-.25.67-.55,1.3a6.37,6.37,0,0,0-1.31-.75c.1-.14.17-.27.35-.55Zm-1,4.36a10.5,10.5,0,0,0,2.49-4.17,11.25,11.25,0,0,0,2.35,4.17Zm6-4.36a5.16,5.16,0,0,1-1.19,1.82,8.54,8.54,0,0,1-.91-1.82Zm1.79,12A7.37,7.37,0,0,1,122.07,35l-1.49.75a11.28,11.28,0,0,0,2.35,3.33Zm9.57-10.27h5.08v-1.8h-12v1.8h5v8h-5.88v1.82h13.76V35.66h-5.94Zm9.33-2.27v1.76h8.53a17,17,0,0,1-9.41,9.87l1.08,1.54a20.14,20.14,0,0,0,6.59-4.94,58.64,58.64,0,0,1,5.07,4.94l1.56-1.51a62.22,62.22,0,0,0-5.5-4.82A17.64,17.64,0,0,0,154,25.42Zm17.62,13.33c4.39-.88,6.5-2.81,6.64-7.66h5.33V29.35H159.14v1.74h6.27c-.1,3.71-1.27,5.28-5.49,6Zm10.66-13.58H160.46V26.9h10.88Zm5.89,13.58c4.39-.88,6.51-2.81,6.64-7.66h5.33V29.35H175.69v1.74H182c-.1,3.71-1.28,5.28-5.5,6Zm10.66-13.58H177V26.9h10.87Zm12.69,6.63a24.48,24.48,0,0,0,3.64-3.48l-1.48-1.06a19.46,19.46,0,0,1-9.62,6.66l.78,1.54A21.73,21.73,0,0,0,198.85,33V38.8h1.73Zm12.34,1a17.53,17.53,0,0,0-1.42-4.11l-1.52.41a14.93,14.93,0,0,1,1.32,4.08Zm-.59,6c6.31-1.54,8-5.22,9-10.22l-1.81-.4c-1,5.83-3,8.07-8.38,9.21ZM216.54,32a18.59,18.59,0,0,0-1.21-4l-1.49.33a18.78,18.78,0,0,1,1.11,4ZM227,38.77c5.81-1.24,10.66-4.77,11.36-13.38h-8.91a11.54,11.54,0,0,1-4.21,4.73l1.18,1.4a13.89,13.89,0,0,0,4.25-4.41h5.53c-.94,6.3-5.16,9-10,9.92Zm14.32-5.42v1.51h5.49c-.84,1.25-2.66,2.48-5.81,2.8l.86,1.61a8.5,8.5,0,0,0,6.77-4.41h.07c1.08,2.35,3.69,3.84,6.92,4.42l.9-1.66c-3.55-.56-5-1.45-6.06-2.76H256V33.35h-6.8a5,5,0,0,0,.22-1.29h6.9V30.57H249.5V29.46h5.71V28H249.5V27h6.39V25.52h-3.41a12.52,12.52,0,0,0,.69-1.51l-1.93-.23a15.67,15.67,0,0,1-.7,1.74H247a9.88,9.88,0,0,0-.71-1.74l-1.79.35c.21.42.54,1.06.67,1.39h-3.64V27h6.33v1h-5.68v1.44h5.68v1.11h-6.76v1.49h6.71a5,5,0,0,1-.23,1.29Zm29.62.58c.43.15.64.22,1.44.45l.78-1.67a13.14,13.14,0,0,1-7.06-3.4h-1.71a12.74,12.74,0,0,1-7,3.4l.76,1.77c.76-.23,1-.31,1.41-.46v5.11h11.41Zm-6.55-10.07v1.25h-6.45V28.7h1.74v-2h11.19v2h1.71V25.11H266.1V23.86Zm-5.54,7.31a14,14,0,0,0,5-3.13l-1.26-1A10.15,10.15,0,0,1,258,29.63Zm10.4,6.42h-8V34.8h8Zm-7.95-4.3a15.61,15.61,0,0,0,4-2.65,15.72,15.72,0,0,0,4,2.65Zm5.08-5.19a14,14,0,0,0,5.37,3l.83-1.64a10.27,10.27,0,0,1-4.81-2.44ZM287,26.86a10.7,10.7,0,0,1-.1,1.28c-.1.54-.22.54-.85.54h-2.1l.38,1.68h2c2,0,2.15-1.44,2.23-2.31,0-.42.15-2.35.18-2.74h-4.39a12.51,12.51,0,0,0,.25-1.41h-1.7a12.56,12.56,0,0,1-.23,1.41h-4.09v1.55H282a6.29,6.29,0,0,1-3.47,2.47V27.86h-1.38v-4h-1.7v4H274v1.67h1.41v9.88h1.7V29.53h1.38v-.15l1,1.36a7,7,0,0,0,4.25-3.88Zm-9,5.23v1.5h1.19a7.83,7.83,0,0,1-1.85,4.75l1.22,1a10.08,10.08,0,0,0,2.11-5.79h.88a27,27,0,0,1-.34,3.87c-.13.4-.46.4-.71.4h-.74l.29,1.55h1.23a1.23,1.23,0,0,0,1.27-.77c.48-1,.57-5.3.57-6.55h-2.32c0-.56,0-.86,0-1.22H279.2c0,.47,0,.73,0,1.22Zm6,0v1.5h1.16a6.85,6.85,0,0,1-2.29,4.88l1.26,1c2-1.83,2.37-3.66,2.58-5.86h1a17.83,17.83,0,0,1-.29,3.87c-.14.37-.45.4-.83.4h-.71l.28,1.55h1.14a1.51,1.51,0,0,0,1.47-.72c.24-.45.57-1.15.57-6.6h-2.54c0-.82,0-.92,0-1.35h-1.57c0,.38,0,.61,0,1.35ZM294,30h8.79V29a29.34,29.34,0,0,0,2.67,1.47l1.06-1.66c-3.28-1.27-5.95-3.14-7.16-5h-1.9a15.4,15.4,0,0,1-7.17,5.1l1,1.59A16.55,16.55,0,0,0,294,29.07Zm11.47,8.61a25.15,25.15,0,0,0-3.84-4.77l-1.41.86a19.44,19.44,0,0,1,2,2.37c-3.31.17-3.66.18-6.76.25.57-1.06,1.21-2.47,1.77-3.81h8.63v-1.6H290.88v1.6h4.26a24.3,24.3,0,0,1-1.61,3.86h-2.37l.25,1.73c5.78-.12,9.49-.38,11.76-.61a11.36,11.36,0,0,1,.68,1.1ZM295,28.39a17.47,17.47,0,0,0,3.41-3.15,20.37,20.37,0,0,0,3.44,3.15Z"/><path class="cls-2" d="M92.78,49.6H92V43.38h.78Zm1.62-6.22V49.6h.74V44.14L98.7,49.6h1.08V43.38H99v5.46l-3.55-5.46Zm9.22.68h2.08v-.68h-4.9v.68h2.08V49.6h.74Zm3.85,2v-2h3v-.68h-3.75V49.6h3.87v-.68h-3.13v-2.2h2.75V46Zm4.39-2.66V49.6h.74V46.87h.52l2,2.73h.91l-2.12-2.74a1.74,1.74,0,0,0,1.7-1.75,1.64,1.64,0,0,0-.86-1.52,2.5,2.5,0,0,0-1.21-.21Zm1.58.68c.54,0,1.46,0,1.46,1s-1.08,1.1-1.47,1.1h-.83V44.06Zm3.56-.68V49.6h.74V44.14l3.56,5.46h1.08V43.38h-.74v5.46l-3.56-5.46Zm10.62,4.38.68,1.84h.84l-2.37-6.22h-1l-2.36,6.22h.83l.68-1.84Zm-2.5-.66,1.13-3,1.13,3Zm7.34-3h2.08v-.68h-4.91v.68h2.08V49.6h.75Zm4-.68h-.77V49.6h.77Zm4.61-.12a3.24,3.24,0,1,0,3.22,3.23,3.12,3.12,0,0,0-3.22-3.23m0,5.79a2.56,2.56,0,1,1,2.49-2.56,2.5,2.5,0,0,1-2.49,2.56m4.49-5.67V49.6h.73V44.14l3.56,5.46h1.08V43.38h-.73v5.46l-3.56-5.46Zm10.63,4.38.67,1.84h.84l-2.36-6.22h-1l-2.36,6.22h.83l.68-1.84Zm-2.5-.66,1.12-3,1.13,3Zm5-3.72V49.6h3.06v-.68h-2.32V43.38ZM166.55,46v-2h3v-.68h-3.75V49.6h3.87v-.68h-3.13v-2.2h2.75V46Zm7.52-2.41a2.73,2.73,0,0,0-1.39-.37A1.76,1.76,0,0,0,170.76,45c0,1.14.76,1.4,2,1.84a1.16,1.16,0,0,1,.91,1.07c0,.78-.74,1.12-1.46,1.12a2.51,2.51,0,0,1-1.49-.49l-.22.67a3,3,0,0,0,1.74.5,1.92,1.92,0,0,0,2.18-1.84c0-1.22-.94-1.55-1.76-1.82-.64-.22-1.16-.42-1.16-1.08a1.08,1.08,0,0,1,1.21-1.06,1.93,1.93,0,0,1,1.17.4Zm4,.43h2.08v-.68h-4.91v.68h2.09V49.6h.74Zm3.84,1.9V43.38h-.74V49.6h.74v-3H185v3h.74V43.38H185V46ZM188,46v-2h3v-.68h-3.75V49.6h3.87v-.68H188v-2.2h2.75V46Zm6.72-2h2.09v-.68h-4.91v.68H194V49.6h.74Zm4-.68h-.78V49.6h.78Zm6.6,5.07a2.92,2.92,0,0,1-1.85.6,2.56,2.56,0,1,1-.08-5.11,2.52,2.52,0,0,1,1.67.57l.26-.69a3.39,3.39,0,0,0-1.91-.56,3.15,3.15,0,0,0-3.3,3.25,3.1,3.1,0,0,0,3.31,3.22,3.79,3.79,0,0,0,1.9-.46Zm4.21-5.07V49.6h2.07c.58,0,2.16,0,2.16-1.75a1.56,1.56,0,0,0-1-1.52,1.41,1.41,0,0,0,.79-1.35,1.44,1.44,0,0,0-.84-1.42,2.83,2.83,0,0,0-1.21-.18Zm1.95.68c.52,0,1.34,0,1.34,1s-.94,1-1.15,1h-1.4v-2Zm.29,2.64A1.1,1.1,0,0,1,213,47.79c0,1.05-.74,1.13-1.48,1.13h-1.27V46.7Zm4-.66v-2h3v-.68H215V49.6h3.87v-.68h-3.13v-2.2h2.75V46Zm8.13,1.72.68,1.84h.83L223,43.38h-1l-2.37,6.22h.84l.67-1.84Zm-2.5-.66,1.13-3,1.12,3Zm9.48-3.72V47c0,.86-.09,2.06-1.87,2.06s-1.86-1.21-1.86-2.06V43.38h-.75V47a2.62,2.62,0,1,0,5.23,0V43.38Zm4.6.68h2.08v-.68h-4.91v.68h2.09V49.6h.74Zm4.72,5.54h.75V47.05l2.14-3.67h-.86l-1.66,2.91-1.65-2.91H238l2.14,3.67Zm10.56-1.84.68,1.84h.84l-2.37-6.22h-1l-2.37,6.22h.84l.68-1.84Zm-2.5-.66,1.13-3,1.13,3Zm8.13-3.47a2.73,2.73,0,0,0-1.39-.37A1.76,1.76,0,0,0,253.05,45c0,1.14.76,1.4,2,1.84a1.16,1.16,0,0,1,.91,1.07c0,.78-.74,1.12-1.46,1.12a2.49,2.49,0,0,1-1.49-.49l-.22.67a3,3,0,0,0,1.74.5,1.92,1.92,0,0,0,2.18-1.84c0-1.22-.94-1.55-1.76-1.82-.64-.22-1.16-.42-1.16-1.08A1.08,1.08,0,0,1,255,43.93a2,2,0,0,1,1.17.4Zm4.78,0a2.73,2.73,0,0,0-1.39-.37A1.77,1.77,0,0,0,257.82,45c0,1.14.77,1.4,2,1.84a1.15,1.15,0,0,1,.91,1.07c0,.78-.74,1.12-1.46,1.12a2.46,2.46,0,0,1-1.48-.49l-.22.67a3,3,0,0,0,1.74.5,1.91,1.91,0,0,0,2.17-1.84c0-1.22-.94-1.55-1.76-1.82-.64-.22-1.16-.42-1.16-1.08a1.09,1.09,0,0,1,1.21-1.06,2,2,0,0,1,1.18.4Zm4.63-.37A3.24,3.24,0,1,0,269,46.49a3.13,3.13,0,0,0-3.22-3.23m0,5.79a2.56,2.56,0,1,1,2.48-2.56,2.49,2.49,0,0,1-2.48,2.56m9.46-.6a2.88,2.88,0,0,1-1.84.6,2.56,2.56,0,1,1-.08-5.11,2.57,2.57,0,0,1,1.67.57l.25-.69a3.39,3.39,0,0,0-1.91-.56A3.14,3.14,0,0,0,270,46.51a3.09,3.09,0,0,0,3.3,3.22,3.79,3.79,0,0,0,1.9-.46Zm2.15-5.07h-.77V49.6h.77Zm5.36,4.38.68,1.84h.84l-2.37-6.22h-1l-2.37,6.22h.84l.67-1.84Zm-2.5-.66,1.13-3,1.12,3Zm7.33-3h2.08v-.68h-4.91v.68h2.09V49.6h.74Zm4-.68h-.77V49.6h.77Zm4.6-.12a3.24,3.24,0,1,0,3.23,3.23,3.13,3.13,0,0,0-3.23-3.23m0,5.79a2.56,2.56,0,1,1,2.49-2.56,2.5,2.5,0,0,1-2.49,2.56m4.5-5.67V49.6h.73V44.14L305,49.6H306V43.38h-.73v5.46l-3.56-5.46Z"/><path class="cls-3" d="M39.5,57.18c-13.72,0-22.51-8.79-24.79-12.25H9.46a1.08,1.08,0,0,1-1.08-1.08V40.5C6.29,39.4,0,36,0,28.59S6.29,17.78,8.38,16.67V13.33a1.08,1.08,0,0,1,1.08-1.08h5.25C17,8.79,25.78,0,39.5,0S62,8.79,64.28,12.25h5.25a1.08,1.08,0,0,1,1.09,1.08v3.34C72.7,17.78,79,21.14,79,28.59S72.7,39.4,70.62,40.5v3.35a1.08,1.08,0,0,1-1.09,1.08H64.28C62,48.39,53.22,57.18,39.5,57.18m-30-44.71a.86.86,0,0,0-.85.86v3.41a.13.13,0,0,1-.06.1l-.05,0C6.45,18,.23,21.27.23,28.59S6.45,39.22,8.5,40.31l.05,0a.13.13,0,0,1,.06.1v3.41a.86.86,0,0,0,.85.86h5.32a.12.12,0,0,1,.09,0C17.08,48.15,25.81,57,39.5,57s22.42-8.81,24.62-12.2a.14.14,0,0,1,.1,0h5.31a.86.86,0,0,0,.86-.86V40.44a.11.11,0,0,1,.06-.1l0,0c2-1.09,8.27-4.4,8.27-11.72S72.55,18,70.5,16.87l0,0a.11.11,0,0,1-.06-.1V13.33a.86.86,0,0,0-.86-.86H64.22a.14.14,0,0,1-.1-.05C61.92,9,53.18.23,39.5.23S17.08,9,14.87,12.42a.12.12,0,0,1-.09.05Zm30,44.06a27.48,27.48,0,0,1-23-12.25H10.72a.12.12,0,0,1-.12-.11V40.56c-.79-.39-8.37-4.27-8.37-12S9.81,17,10.6,16.62V13a.12.12,0,0,1,.12-.11h5.73a27.81,27.81,0,0,1,46.1,0h5.73a.11.11,0,0,1,.11.11v3.61c.8.39,8.38,4.27,8.38,12s-7.58,11.58-8.38,12v3.61a.11.11,0,0,1-.11.11H62.55a27.48,27.48,0,0,1-23,12.25M10.83,44.06h5.69a.12.12,0,0,1,.1.06,27.57,27.57,0,0,0,45.76,0,.11.11,0,0,1,.1-.06h5.68V40.48a.12.12,0,0,1,.07-.1c.08,0,8.31-3.85,8.31-11.79S68.31,16.84,68.23,16.8a.12.12,0,0,1-.07-.1V13.12H62.48a.12.12,0,0,1-.1,0A27.21,27.21,0,0,0,39.5.88,27.17,27.17,0,0,0,16.62,13.07a.14.14,0,0,1-.1,0H10.83V16.7a.1.1,0,0,1-.07.1c-.08,0-8.31,3.85-8.31,11.79s8.23,11.75,8.31,11.79a.1.1,0,0,1,.07.1ZM39.5,54.16C26,54.16,19,44,17.61,41.81H12.87a1.09,1.09,0,0,1-1.09-1.09V38.28a13.76,13.76,0,0,1-4.62-2.66,9.11,9.11,0,0,1-3.13-7,9.11,9.11,0,0,1,3.13-7,13.76,13.76,0,0,1,4.62-2.66V16.46a1.08,1.08,0,0,1,1.09-1.08h4.74C19,13.18,26,3,39.5,3S60,13.18,61.38,15.38h4.75a1.08,1.08,0,0,1,1.08,1.08V18.9a13.66,13.66,0,0,1,4.62,2.66,9.11,9.11,0,0,1,3.14,7,9.11,9.11,0,0,1-3.14,7,13.66,13.66,0,0,1-4.62,2.66v2.44a1.08,1.08,0,0,1-1.08,1.09H61.38C60,44,53,54.16,39.5,54.16M12.87,15.6a.87.87,0,0,0-.86.86V19a.11.11,0,0,1-.08.11C5,21.41,4.26,26.51,4.26,28.59s.75,7.18,7.67,9.5a.12.12,0,0,1,.08.11v2.52a.87.87,0,0,0,.86.86h4.81a.11.11,0,0,1,.09.05C19,43.69,26,53.93,39.5,53.93S60,43.69,61.22,41.63a.12.12,0,0,1,.1-.05h4.81a.87.87,0,0,0,.86-.86V38.2a.12.12,0,0,1,.07-.11c6.93-2.32,7.68-7.42,7.68-9.5s-.75-7.18-7.68-9.5A.11.11,0,0,1,67,19V16.46a.87.87,0,0,0-.86-.86H61.32a.12.12,0,0,1-.1,0C60,13.49,53,3.25,39.5,3.25S19,13.49,17.77,15.55a.11.11,0,0,1-.09,0ZM39.59,53.18a.1.1,0,0,1-.09,0h0a.12.12,0,0,1-.1,0h0c-.48,0-1,0-1.52,0h0l-.2-.1a.11.11,0,0,1-.12.08h0c-2.28-.44-3.6-1.22-3.91-2.34a1.32,1.32,0,0,1,.17-1.12.93.93,0,0,1,.68-.39h.06a.73.73,0,0,1,.76.57.11.11,0,0,1,0,.11.11.11,0,0,1-.12,0,.55.55,0,0,0-.61.08.43.43,0,0,0-.1.36.42.42,0,0,0,.47.37.66.66,0,0,0,.38-.11.73.73,0,0,0,.28-.53,1.17,1.17,0,0,0-.31-.87,1,1,0,0,0-.72-.29,1.28,1.28,0,0,0-1.15.71,1.76,1.76,0,0,0,.33,2,.11.11,0,0,1,0,.15s0,0,0,0a7.54,7.54,0,0,0,1.66.81.11.11,0,0,1,.07.13.11.11,0,0,1-.13.09A23.79,23.79,0,0,1,25,48.41a.12.12,0,0,1,0-.14.11.11,0,0,1,.13-.06,1.54,1.54,0,0,0,.43.06,1.22,1.22,0,0,0,1.24-.84,1,1,0,0,0-.14-.79.68.68,0,0,0-.49-.27.9.9,0,0,0-.46.09.91.91,0,0,1,.35-.07.65.65,0,0,1,.59.34,1,1,0,0,1-.06.94,1.26,1.26,0,0,1-1,.47,1.21,1.21,0,0,1-.83-.3,1.51,1.51,0,0,1,.18-2.39,2.17,2.17,0,0,1,1.3-.38,4.34,4.34,0,0,1,2.62,1,8.8,8.8,0,0,1,2.3,2.71.12.12,0,0,1,0,.14.14.14,0,0,1-.15,0,2.27,2.27,0,0,0-2.48-.58.8.8,0,0,0-.41.81c0,.12.08.19.12.2s.26-.06.39-.17a1.28,1.28,0,0,1,.21-.14A.42.42,0,0,1,29,49a.55.55,0,0,1,.38.2c.09.08.34.25.46.11l0,0a.85.85,0,0,1,.62-.42l.16,0a4.51,4.51,0,0,1,.86.51s0,0,0,0a8.25,8.25,0,0,0,.66,1,2.67,2.67,0,0,1-.58-2,1.22,1.22,0,0,1,1.12-1.1h0a1,1,0,0,1,1,.76.85.85,0,0,1-.11.7.77.77,0,0,1-.52.35h0a.72.72,0,0,0,.69-.47,1,1,0,0,0,0-.8,1.19,1.19,0,0,0-.82-.58,1.1,1.1,0,0,0-1.07.37,1.67,1.67,0,0,0-.4,1.3.1.1,0,0,1-.08.11.1.1,0,0,1-.13,0c-1-2-2.84-4.15-5-4.15a2.49,2.49,0,0,0-1.19.28,1.77,1.77,0,0,0-1,1.1,1.59,1.59,0,0,0,.2,1.29.11.11,0,0,1-.17.15,26,26,0,0,1-5.89-6.83H12.87a.11.11,0,0,1-.11-.11V37.56a12.68,12.68,0,0,1-4.56-2.3.11.11,0,0,1,0-.15.13.13,0,0,1,.15,0,2.32,2.32,0,0,0,1.33.27,1.33,1.33,0,0,0,1-.58,1,1,0,0,0,.11-.87.85.85,0,0,0-.83-.6h0a.87.87,0,0,1,.79.81A1.06,1.06,0,0,1,10,35.2a1.63,1.63,0,0,1-.55.09A3.92,3.92,0,0,1,6.91,34l0,0,0,0a.12.12,0,0,1,0-.15.11.11,0,0,1,.15,0,1.63,1.63,0,0,0,.91.28,1.39,1.39,0,0,0,.77-.23,1.11,1.11,0,0,0,.47-.92.83.83,0,0,0-.33-.71.83.83,0,0,0-1.18.12.58.58,0,0,0,0,.53.3.3,0,0,0,.27.16.38.38,0,0,0,.35-.18.48.48,0,0,0,0-.46.11.11,0,0,1,.1-.18.65.65,0,0,1,.58.66.76.76,0,0,1-.2.59,1.1,1.1,0,0,1-1,.32c-1-.14-1.85-1.2-2.49-3.14a.12.12,0,0,1,0-.13,1.3,1.3,0,0,1-.1-.15.08.08,0,0,1,0,0A9,9,0,0,1,5,28.59a8.79,8.79,0,0,1,.18-1.7,0,0,0,0,1,0,0c0-.06.07-.11.1-.16a.11.11,0,0,1,0-.11s0,0,0,0c.63-1.93,1.47-3,2.48-3.13a1.14,1.14,0,0,1,1,.32.79.79,0,0,1,.2.6.65.65,0,0,1-.58.65.11.11,0,0,1-.11-.06.11.11,0,0,1,0-.12.48.48,0,0,0,0-.46A.37.37,0,0,0,8,24.18a.31.31,0,0,0-.29.16.58.58,0,0,0,0,.53A.83.83,0,0,0,8.84,25a.83.83,0,0,0,.33-.71,1.12,1.12,0,0,0-.47-.92,1.39,1.39,0,0,0-.77-.23,1.63,1.63,0,0,0-.91.28.11.11,0,0,1-.15-.16l0,0a3.87,3.87,0,0,1,2.54-1.32A1.63,1.63,0,0,1,10,22a1.06,1.06,0,0,1,.82,1.1.88.88,0,0,1-.79.82h0a.85.85,0,0,0,.83-.6,1,1,0,0,0-.11-.86,1.31,1.31,0,0,0-1-.59,2.47,2.47,0,0,0-1.34.27.12.12,0,0,1-.14,0,.12.12,0,0,1,0-.15,12.51,12.51,0,0,1,4.57-2.31V16.46a.12.12,0,0,1,.11-.12h5.29a26.23,26.23,0,0,1,5.89-6.82.14.14,0,0,1,.15,0,.12.12,0,0,1,0,.15A1.58,1.58,0,0,0,24,11a1.76,1.76,0,0,0,1,1.11,2.5,2.5,0,0,0,1.2.28c.69,0,3.12-.3,5-4.15a.1.1,0,0,1,.13,0,.1.1,0,0,1,.08.12,1.66,1.66,0,0,0,.4,1.29,1.1,1.1,0,0,0,1.07.37,1.19,1.19,0,0,0,.82-.58,1,1,0,0,0,0-.8.72.72,0,0,0-.69-.47h0a.77.77,0,0,1,.52.35.85.85,0,0,1,.11.7,1,1,0,0,1-1,.76h0a1.22,1.22,0,0,1-1.12-1.1,2.68,2.68,0,0,1,.57-2,8.64,8.64,0,0,0-.65,1l0,0a4,4,0,0,1-.86.51l-.16,0a.85.85,0,0,1-.62-.42l0,0c-.12-.14-.37,0-.46.11a.55.55,0,0,1-.38.2.54.54,0,0,1-.21,0L28.55,8c-.13-.1-.25-.2-.39-.17s-.1.08-.12.2a.78.78,0,0,0,.41.8,2.24,2.24,0,0,0,2.48-.57.14.14,0,0,1,.15,0,.12.12,0,0,1,0,.14,8.8,8.8,0,0,1-2.3,2.71,4.35,4.35,0,0,1-2.62,1,2.25,2.25,0,0,1-1.3-.38,1.53,1.53,0,0,1-.68-1.19,1.5,1.5,0,0,1,.5-1.21A1.22,1.22,0,0,1,25.54,9a1.25,1.25,0,0,1,1,.49.94.94,0,0,1,.06.93.63.63,0,0,1-.58.34.86.86,0,0,1-.39-.09.87.87,0,0,0,.49.11.6.6,0,0,0,.48-.26,1,1,0,0,0,.15-.8,1.22,1.22,0,0,0-1.24-.84,1.54,1.54,0,0,0-.43.06A.11.11,0,0,1,25,8.91a.12.12,0,0,1,0-.14A23.74,23.74,0,0,1,35.2,4.37a.11.11,0,0,1,.13.08.1.1,0,0,1-.07.13,8.17,8.17,0,0,0-1.65.81s0,0,0,0a.13.13,0,0,1,0,.16,1.75,1.75,0,0,0-.33,2,1.29,1.29,0,0,0,1.15.7,1,1,0,0,0,.72-.29,1.16,1.16,0,0,0,.31-.87.76.76,0,0,0-.27-.53.71.71,0,0,0-.39-.11.42.42,0,0,0-.47.37.43.43,0,0,0,.1.36.54.54,0,0,0,.61.08.13.13,0,0,1,.12,0,.12.12,0,0,1,0,.11.73.73,0,0,1-.76.57h-.06a.91.91,0,0,1-.68-.39,1.32,1.32,0,0,1-.17-1.12c.31-1.11,1.62-1.9,3.9-2.34h.05a.12.12,0,0,1,.12.08l.19-.1h0c.55,0,1.05,0,1.53,0h0a.12.12,0,0,1,.1,0h0A.11.11,0,0,1,39.59,4h0c.48,0,1,0,1.52,0h0l.19.1a.13.13,0,0,1,.12-.08h0c2.29.44,3.6,1.23,3.91,2.34a1.31,1.31,0,0,1-.16,1.12.93.93,0,0,1-.68.39h-.06a.75.75,0,0,1-.77-.57.13.13,0,0,1,0-.11.11.11,0,0,1,.11,0,.55.55,0,0,0,.62-.08.43.43,0,0,0,.1-.36.42.42,0,0,0-.47-.37.69.69,0,0,0-.39.11.77.77,0,0,0-.28.53,1.17,1.17,0,0,0,.32.87,1,1,0,0,0,.72.29,1.29,1.29,0,0,0,1.15-.7,1.76,1.76,0,0,0-.33-1.95.11.11,0,0,1,0-.16l0,0a7.68,7.68,0,0,0-1.65-.81.11.11,0,0,1-.07-.13.11.11,0,0,1,.13-.08A23.68,23.68,0,0,1,54,8.77a.12.12,0,0,1,0,.14.13.13,0,0,1-.14.06,1.47,1.47,0,0,0-.42-.06,1.21,1.21,0,0,0-1.24.84,1,1,0,0,0,.14.79.62.62,0,0,0,.49.27.87.87,0,0,0,.49-.11.82.82,0,0,1-.38.09.62.62,0,0,1-.59-.34.94.94,0,0,1,0-.93,1.27,1.27,0,0,1,1-.49,1.24,1.24,0,0,1,.84.31,1.53,1.53,0,0,1,.5,1.21,1.59,1.59,0,0,1-.68,1.19,2.29,2.29,0,0,1-1.3.38,4.33,4.33,0,0,1-2.62-1,8.63,8.63,0,0,1-2.3-2.71.11.11,0,0,1,0-.14.12.12,0,0,1,.14,0,2.25,2.25,0,0,0,2.48.57A.79.79,0,0,0,51,8c0-.12-.08-.19-.12-.2s-.26.07-.39.17l-.21.15a.54.54,0,0,1-.21,0,.59.59,0,0,1-.39-.2c-.12-.12-.34-.24-.45-.11l0,0c-.16.2-.34.42-.61.42l-.16,0a3.55,3.55,0,0,1-.86-.51l0,0a6.76,6.76,0,0,0-.64-1,2.65,2.65,0,0,1,.57,2,1.22,1.22,0,0,1-1.12,1.1h0a1,1,0,0,1-1-.76.85.85,0,0,1,.1-.7.79.79,0,0,1,.53-.35h0a.72.72,0,0,0-.69.47.93.93,0,0,0,0,.8,1.19,1.19,0,0,0,.82.58,1.06,1.06,0,0,0,1.06-.37,1.67,1.67,0,0,0,.41-1.29.1.1,0,0,1,.08-.12.1.1,0,0,1,.13,0c1.91,3.85,4.33,4.15,5,4.15a2.53,2.53,0,0,0,1.2-.28A1.74,1.74,0,0,0,55,11a1.62,1.62,0,0,0-.21-1.28.11.11,0,0,1,0-.15.12.12,0,0,1,.14,0,26,26,0,0,1,5.89,6.82h5.3a.12.12,0,0,1,.11.12v3.16a12.5,12.5,0,0,1,4.56,2.31.11.11,0,0,1,0,.15.13.13,0,0,1-.15,0,2.43,2.43,0,0,0-1.34-.27,1.33,1.33,0,0,0-1,.59.94.94,0,0,0-.1.86.83.83,0,0,0,.83.6h0a.89.89,0,0,1-.8-.82A1.09,1.09,0,0,1,69,22a1.59,1.59,0,0,1,.55-.09,3.91,3.91,0,0,1,2.54,1.32l0,0a.11.11,0,0,1-.15.16,1.63,1.63,0,0,0-.91-.28,1.39,1.39,0,0,0-.77.23,1.09,1.09,0,0,0-.48.92.86.86,0,0,0,.34.71.84.84,0,0,0,1.18-.12.62.62,0,0,0,0-.53.3.3,0,0,0-.27-.16.37.37,0,0,0-.35.18.48.48,0,0,0,0,.46.13.13,0,0,1,0,.12.14.14,0,0,1-.11.06.65.65,0,0,1-.59-.65.79.79,0,0,1,.21-.6,1.15,1.15,0,0,1,1-.32c1,.15,1.84,1.2,2.48,3.14a.11.11,0,0,1,0,.13l.11.16a0,0,0,0,1,0,0,8.59,8.59,0,0,1,0,3.4,0,0,0,0,1,0,0l-.1.15a.11.11,0,0,1,.05.12s0,0,0,0h0c-.65,1.94-1.48,3-2.48,3.13a1.1,1.1,0,0,1-1-.32.78.78,0,0,1-.21-.6.65.65,0,0,1,.59-.65.15.15,0,0,1,.11.06.13.13,0,0,1,0,.12.48.48,0,0,0,0,.46A.35.35,0,0,0,71,33h0a.31.31,0,0,0,.29-.16.62.62,0,0,0,0-.53.84.84,0,0,0-1.18-.12.86.86,0,0,0-.34.71,1.09,1.09,0,0,0,.48.92,1.37,1.37,0,0,0,.77.23,1.57,1.57,0,0,0,.9-.28.1.1,0,0,1,.15,0,.11.11,0,0,1,0,.15l0,0,0,0a3.94,3.94,0,0,1-2.54,1.31A1.59,1.59,0,0,1,69,35.2a1.08,1.08,0,0,1-.83-1.1.87.87,0,0,1,.8-.81h0a.83.83,0,0,0-.83.6,1,1,0,0,0,.1.87,1.35,1.35,0,0,0,1,.58,2.36,2.36,0,0,0,1.34-.27.13.13,0,0,1,.15,0,.14.14,0,0,1,0,.15,12.76,12.76,0,0,1-4.56,2.3v3.16a.11.11,0,0,1-.11.11h-5.3a25.81,25.81,0,0,1-5.89,6.83.11.11,0,0,1-.14,0,.1.1,0,0,1,0-.14A1.64,1.64,0,0,0,55,46.22a1.77,1.77,0,0,0-1-1.1,2.53,2.53,0,0,0-1.2-.28c-2.19,0-4,2.15-5,4.15a.1.1,0,0,1-.13,0,.09.09,0,0,1-.08-.11,1.68,1.68,0,0,0-.41-1.3,1.09,1.09,0,0,0-1.06-.37,1.19,1.19,0,0,0-.82.58.93.93,0,0,0,0,.8.71.71,0,0,0,.69.47h0a.79.79,0,0,1-.53-.35.85.85,0,0,1-.1-.7,1,1,0,0,1,1-.76h0a1.22,1.22,0,0,1,1.12,1.1,2.64,2.64,0,0,1-.59,2,7.21,7.21,0,0,0,.66-1l0,0a3.92,3.92,0,0,1,.86-.51l.16,0a.82.82,0,0,1,.61.42l0,0c.11.13.33,0,.45-.11A.55.55,0,0,1,50,49a.45.45,0,0,1,.21.06,1.28,1.28,0,0,1,.21.14c.13.11.25.2.39.17s.1-.08.12-.2a.81.81,0,0,0-.42-.81,2.27,2.27,0,0,0-2.48.58.12.12,0,0,1-.14,0,.11.11,0,0,1,0-.14,8.63,8.63,0,0,1,2.3-2.71,4.31,4.31,0,0,1,2.62-1,2.22,2.22,0,0,1,1.3.38,1.57,1.57,0,0,1,.68,1.18,1.53,1.53,0,0,1-.5,1.21,1.24,1.24,0,0,1-.84.3,1.29,1.29,0,0,1-1-.47,1,1,0,0,1,0-.94.63.63,0,0,1,.58-.34.78.78,0,0,1,.43.12.78.78,0,0,0-.53-.14.68.68,0,0,0-.49.27,1,1,0,0,0-.14.79,1.21,1.21,0,0,0,1.24.84,1.52,1.52,0,0,0,.42-.06.13.13,0,0,1,.14.06.12.12,0,0,1,0,.14,23.7,23.7,0,0,1-10.18,4.41c-.07,0-.12,0-.13-.09a.1.1,0,0,1,.07-.13,7.46,7.46,0,0,0,1.65-.81.05.05,0,0,1,0,0,.1.1,0,0,1,0-.15,1.78,1.78,0,0,0,.33-2A1.28,1.28,0,0,0,44.53,49a1,1,0,0,0-.72.29,1.19,1.19,0,0,0-.32.87.77.77,0,0,0,.28.53.69.69,0,0,0,.39.11.42.42,0,0,0,.47-.37.43.43,0,0,0-.1-.36.57.57,0,0,0-.62-.08.09.09,0,0,1-.11,0,.12.12,0,0,1,0-.11.75.75,0,0,1,.77-.57h.06a.93.93,0,0,1,.68.39,1.31,1.31,0,0,1,.16,1.12c-.31,1.12-1.62,1.9-3.9,2.34h-.05a.11.11,0,0,1-.12-.08l-.19.1h0c-.54,0-1,0-1.53,0m-1.8-1.62a2.42,2.42,0,0,1,1.06.57,2.45,2.45,0,0,1,.65.88,2.41,2.41,0,0,1,.65-.88,2.35,2.35,0,0,1,1.05-.57,0,0,0,0,0,0,0,.72.72,0,0,0-.58-.24,1.06,1.06,0,0,0-.56.16.11.11,0,0,1-.11,0,.14.14,0,0,1-.06-.1,2,2,0,0,0-.38-1.21,2,2,0,0,0-.39,1.21.11.11,0,0,1,0,.1.13.13,0,0,1-.12,0,1.06,1.06,0,0,0-.56-.16.73.73,0,0,0-.58.24s0,0,0,0m2.82-.49a.94.94,0,0,1,.78.36.28.28,0,0,1,0,.29.09.09,0,0,1-.09.06,1.87,1.87,0,0,0-1,.52,2.35,2.35,0,0,0-.53.66l1.32-.06c.53-.24,1-.67.94-.88a.38.38,0,0,0-.14-.23.46.46,0,0,1-.17-.42.6.6,0,0,1,.37-.5l.15-.08c.16-.11,0-.42,0-.55a.54.54,0,0,1,0-.51.42.42,0,0,1,.39-.18.82.82,0,0,1,.64.37,1.53,1.53,0,0,1,.38-.83,1.16,1.16,0,0,1,.89-.36,1.56,1.56,0,0,1,.57.11l-.05-.11a1.2,1.2,0,0,1,0-1,1.4,1.4,0,0,1,1-.69,1.32,1.32,0,0,1,1.28.44,1.8,1.8,0,0,1,.45,1c1.94-3.58,4.33-3.86,5-3.86a2.8,2.8,0,0,1,1.3.3,2,2,0,0,1,1.08,1.25,1.76,1.76,0,0,1,0,1,25,25,0,0,0,5.48-6.49.11.11,0,0,1,.1-.06H66V37.47a.13.13,0,0,1,.09-.11,12.45,12.45,0,0,0,4-1.85,2.85,2.85,0,0,1-.77.05,1.59,1.59,0,0,1-1.22-.69A1.24,1.24,0,0,1,68,33.8a1.08,1.08,0,0,1,1-.75,1.15,1.15,0,0,1,.55.14l.07,0a1.19,1.19,0,0,1,0-.33A1.07,1.07,0,0,1,70,32a1.3,1.3,0,0,1,.71-.23h0a.71.71,0,0,1-.21-.57.35.35,0,0,1,.36-.37.76.76,0,0,1,.3.09.64.64,0,0,0,.32.12.15.15,0,0,0,.12,0,.94.94,0,0,0,.09-.12.53.53,0,0,1,.45-.27h0a.37.37,0,0,1,.35.19.37.37,0,0,0,.18.14h0c.2,0,.58-.34.82-.73a8,8,0,0,0,0-3.28c-.26-.42-.69-.77-.86-.72a.37.37,0,0,0-.18.14.41.41,0,0,1-.35.2h0a.52.52,0,0,1-.45-.27.94.94,0,0,0-.09-.12.15.15,0,0,0-.12,0,.64.64,0,0,0-.32.12.63.63,0,0,1-.3.09.35.35,0,0,1-.36-.37.71.71,0,0,1,.21-.57,1.25,1.25,0,0,1-.72-.23,1.07,1.07,0,0,1-.43-.9,1.24,1.24,0,0,1,0-.33l-.07,0a1.15,1.15,0,0,1-.55.14,1.08,1.08,0,0,1-1-.75,1.24,1.24,0,0,1,.13-1.07,1.62,1.62,0,0,1,1.22-.69,2.59,2.59,0,0,1,.78.05,12.88,12.88,0,0,0-4-1.86.11.11,0,0,1-.09-.1V16.57H60.76a.11.11,0,0,1-.1-.06A25,25,0,0,0,55.18,10a1.79,1.79,0,0,1,0,1,2.06,2.06,0,0,1-1.08,1.25,2.92,2.92,0,0,1-1.3.29c-.7,0-3.09-.28-5-3.86a1.8,1.8,0,0,1-.45,1,1.29,1.29,0,0,1-1.28.44,1.4,1.4,0,0,1-1-.69,1.2,1.2,0,0,1,0-1s0-.07.05-.1a1.56,1.56,0,0,1-.57.11,1.16,1.16,0,0,1-.89-.37,1.5,1.5,0,0,1-.38-.83.8.8,0,0,1-.63.37.45.45,0,0,1-.4-.17.56.56,0,0,1,0-.52c.06-.13.17-.44,0-.55l-.15-.08a.57.57,0,0,1-.37-.5.46.46,0,0,1,.17-.42A.38.38,0,0,0,42,5.16c0-.21-.41-.64-.94-.88-.47,0-.89,0-1.31,0a2.09,2.09,0,0,0,.52.65,1.87,1.87,0,0,0,1,.52.09.09,0,0,1,.09.06.29.29,0,0,1,0,.3,1,1,0,0,1-.93.34.57.57,0,0,1,.1.11l.17.2a1.58,1.58,0,0,0,.85.54.64.64,0,0,1,.49.43.43.43,0,0,1-.13.41.44.44,0,0,1-.3.1,1.24,1.24,0,0,1-.88-.54,2.29,2.29,0,0,1-.55-1.17.17.17,0,0,1,.08-.1h0A.94.94,0,0,1,40.1,6c-.07.74-.42,1.28-.6,1.28S39,6.74,38.9,6a.88.88,0,0,1-.23.07h0a.14.14,0,0,1,.07.1,2.13,2.13,0,0,1-.55,1.17,1.23,1.23,0,0,1-.87.54h0a.42.42,0,0,1-.3-.1.41.41,0,0,1-.13-.41A.61.61,0,0,1,37.41,7a1.54,1.54,0,0,0,.85-.54c.09-.09.14-.16.18-.2a.27.27,0,0,1,.1-.11,1,1,0,0,1-.93-.34.3.3,0,0,1,0-.3.1.1,0,0,1,.1-.06,1.87,1.87,0,0,0,1-.52,2.4,2.4,0,0,0,.52-.65c-.42,0-.85,0-1.31,0-.53.24-1,.67-.94.88a.34.34,0,0,0,.14.23.46.46,0,0,1,.16.42.58.58,0,0,1-.36.5.53.53,0,0,0-.15.08c-.17.12,0,.45,0,.55a.54.54,0,0,1,0,.51.45.45,0,0,1-.39.18.83.83,0,0,1-.65-.37,1.42,1.42,0,0,1-.37.83,1.18,1.18,0,0,1-.89.37,1.56,1.56,0,0,1-.57-.11.47.47,0,0,0,.05.1,1.2,1.2,0,0,1,0,1,1.38,1.38,0,0,1-1,.69,1.33,1.33,0,0,1-1.29-.44,1.88,1.88,0,0,1-.45-1c-1.93,3.58-4.32,3.86-5,3.86a3,3,0,0,1-1.31-.29A2,2,0,0,1,23.8,11a1.85,1.85,0,0,1,0-1,25.26,25.26,0,0,0-5.48,6.49.11.11,0,0,1-.1.06H13v3.14a.1.1,0,0,1-.09.1,12.88,12.88,0,0,0-4,1.86,2.52,2.52,0,0,1,.77-.05,1.61,1.61,0,0,1,1.23.69A1.23,1.23,0,0,1,11,23.38a1.08,1.08,0,0,1-1,.75A1.19,1.19,0,0,1,9.42,24l-.06,0a1.86,1.86,0,0,1,0,.33,1.09,1.09,0,0,1-.43.9,1.28,1.28,0,0,1-.73.23.72.72,0,0,1,.22.57.35.35,0,0,1-.36.37.63.63,0,0,1-.3-.09.64.64,0,0,0-.33-.12c-.07,0-.1,0-.11,0a.47.47,0,0,0-.09.12.52.52,0,0,1-.46.27h0a.45.45,0,0,1-.35-.2.3.3,0,0,0-.18-.14h0c-.2,0-.58.34-.82.73a8.16,8.16,0,0,0-.17,1.64,8.31,8.31,0,0,0,.17,1.64c.24.39.62.73.82.73h0a.3.3,0,0,0,.18-.14.4.4,0,0,1,.35-.19h0a.54.54,0,0,1,.46.27.47.47,0,0,0,.09.12s0,0,.11,0a.71.71,0,0,0,.33-.11.62.62,0,0,1,.3-.1.35.35,0,0,1,.36.37.72.72,0,0,1-.22.57h0A1.33,1.33,0,0,1,9,32a1.09,1.09,0,0,1,.43.9,1.86,1.86,0,0,1,0,.33l.06,0a1.19,1.19,0,0,1,.56-.14,1.08,1.08,0,0,1,1,.75,1.23,1.23,0,0,1-.12,1.07,1.61,1.61,0,0,1-1.23.69,2.81,2.81,0,0,1-.76-.05,12.35,12.35,0,0,0,4,1.85.11.11,0,0,1,.09.11v3.14h5.25a.11.11,0,0,1,.1.06,25.26,25.26,0,0,0,5.48,6.49,1.85,1.85,0,0,1,0-1,2,2,0,0,1,1.07-1.25,2.83,2.83,0,0,1,1.3-.3c.71,0,3.1.28,5,3.86a1.88,1.88,0,0,1,.45-1A1.33,1.33,0,0,1,32.94,47a1.4,1.4,0,0,1,1,.69,1.2,1.2,0,0,1,0,1,.54.54,0,0,0-.05.11,1.56,1.56,0,0,1,.57-.11,1.17,1.17,0,0,1,.89.36,1.45,1.45,0,0,1,.37.82.85.85,0,0,1,.63-.36h0a.45.45,0,0,1,.41.18.54.54,0,0,1,0,.51c0,.1-.17.43,0,.55l.14.08a.58.58,0,0,1,.37.5.46.46,0,0,1-.16.42A.34.34,0,0,0,37,52c0,.21.41.64.94.88l1.31.06a2.27,2.27,0,0,0-.52-.66,1.85,1.85,0,0,0-1-.52.1.1,0,0,1-.09-.06.3.3,0,0,1,0-.3,1,1,0,0,1,.93-.34.27.27,0,0,1-.1-.11,2.25,2.25,0,0,0-.18-.2,1.54,1.54,0,0,0-.85-.54.61.61,0,0,1-.48-.43.41.41,0,0,1,.13-.41.42.42,0,0,1,.3-.1,1.19,1.19,0,0,1,.87.54A2.16,2.16,0,0,1,38.78,51a.12.12,0,0,1-.08.1h0l.23.07c.06-.74.42-1.28.6-1.28s.53.54.6,1.28l.22-.07h0a.17.17,0,0,1-.08-.1,2.33,2.33,0,0,1,.55-1.17,1.21,1.21,0,0,1,.88-.54.4.4,0,0,1,.3.11.42.42,0,0,1,.13.4.64.64,0,0,1-.49.43,1.54,1.54,0,0,0-.85.54l-.17.2a.57.57,0,0,1-.1.11h.15m-4.23-1.29c-.38,0-.68.46-.73,1-.06.86.85,1.56,1.54,1.89-.28-.23-.5-.51-.44-.75a.53.53,0,0,1,.2-.34c.07-.08.11-.11.1-.24s-.1-.23-.26-.32L36.63,51c-.22-.15-.24-.45-.07-.83a.4.4,0,0,0,0-.3c0-.05-.1-.07-.2-.07m6.25,0c-.11,0-.18,0-.21.07a.4.4,0,0,0,0,.3c.17.38.14.68-.07.82l-.17.1c-.15.09-.23.13-.25.32a.24.24,0,0,0,.1.24.64.64,0,0,1,.2.34c0,.24-.16.52-.44.75.69-.33,1.6-1,1.53-1.89,0-.59-.35-1-.71-1Zm.94,1v.05a2.25,2.25,0,0,1-1.22,1.87c1.65-.44,2.61-1.1,2.85-2a1.1,1.1,0,0,0-.12-.93.69.69,0,0,0-.52-.29h0a.54.54,0,0,0-.44.18.71.71,0,0,1,.62.21A.68.68,0,0,1,44.16,51a.92.92,0,0,1-.53-.16l-.06-.06m-9.09-1.28h0a.69.69,0,0,0-.51.29,1.14,1.14,0,0,0-.13.93c.25.88,1.21,1.54,2.86,2a2.25,2.25,0,0,1-1.22-1.87v-.05l-.07.06a.89.89,0,0,1-.52.16.67.67,0,0,1-.54-1.11.71.71,0,0,1,.62-.21.55.55,0,0,0-.44-.18m13.21.08a6.61,6.61,0,0,1-2.87,2.82,23.5,23.5,0,0,0,8.65-3.88h0a1.47,1.47,0,0,1-1.47-1,1.19,1.19,0,0,1,.19-1,.88.88,0,0,1,.65-.36h.09a.93.93,0,0,1,1,.86.2.2,0,0,1-.06.17.2.2,0,0,1-.34-.08.08.08,0,0,1,0-.05c-.07-.21-.16-.42-.5-.42a.4.4,0,0,0-.39.22.71.71,0,0,0,0,.7,1,1,0,0,0,.84.38,1,1,0,0,0,.68-.25,1.25,1.25,0,0,0,.43-1,1.34,1.34,0,0,0-.59-1,2,2,0,0,0-1.16-.34,4.16,4.16,0,0,0-2.48,1,9.36,9.36,0,0,0-2,2.17,2.21,2.21,0,0,1,2.3-.27,1,1,0,0,1,.52,1,.44.44,0,0,1-.3.38.73.73,0,0,1-.57-.22l-.18-.12c-.13-.07-.21,0-.33.1a.79.79,0,0,1-.49.24.37.37,0,0,1-.3-.15l0,0c-.17-.2-.32-.39-.54-.32a3.5,3.5,0,0,0-.76.46M25.53,48.5a23.51,23.51,0,0,0,8.65,3.88,6.51,6.51,0,0,1-2.87-2.82,3.37,3.37,0,0,0-.77-.46c-.21-.07-.37.12-.53.33l0,0a.37.37,0,0,1-.3.15.81.81,0,0,1-.49-.24c-.11-.11-.2-.17-.33-.1l-.17.12a.73.73,0,0,1-.57.22.44.44,0,0,1-.3-.38,1,1,0,0,1,.51-1,2.2,2.2,0,0,1,2.3.27,9,9,0,0,0-2-2.17,4.18,4.18,0,0,0-2.48-1,2,2,0,0,0-1.17.34,1.34,1.34,0,0,0-.59,1,1.31,1.31,0,0,0,.43,1,1,1,0,0,0,.68.25,1,1,0,0,0,.85-.38.71.71,0,0,0,.05-.7.41.41,0,0,0-.38-.22.48.48,0,0,0-.51.42s0,0,0,.05a.21.21,0,0,1-.35.08.21.21,0,0,1-.05-.17.94.94,0,0,1,1-.86.9.9,0,0,1,.66.36,1.23,1.23,0,0,1,.18,1,1.45,1.45,0,0,1-1.46,1Zm7.19-1c-.47,0-.81.35-.93.92a3.12,3.12,0,0,0,1.29,2.69,1.88,1.88,0,0,1,0-1.57,1,1,0,0,1,.15-.24,1.15,1.15,0,0,1-.66-.08.64.64,0,0,1-.33-.39.72.72,0,0,1,.09-.57.67.67,0,0,1,.56-.31.42.42,0,0,1,.2,0,.18.18,0,0,1,.11.2.19.19,0,0,1-.2.13h0a.23.23,0,0,0-.19.07.29.29,0,0,0-.06.32.26.26,0,0,0,.3.15.54.54,0,0,0,.37-.25.63.63,0,0,0,.08-.52.77.77,0,0,0-.78-.59m13,1.8a2.52,2.52,0,0,1,.15.24,1.91,1.91,0,0,1,0,1.57,3.11,3.11,0,0,0,1.28-2.69c-.12-.57-.46-.92-.9-.92a.77.77,0,0,0-.8.59.66.66,0,0,0,.07.52.54.54,0,0,0,.38.25.26.26,0,0,0,.3-.15.29.29,0,0,0-.06-.32.26.26,0,0,0-.2-.07h0a.17.17,0,0,1-.18-.13.18.18,0,0,1,.1-.2.46.46,0,0,1,.21,0,.67.67,0,0,1,.56.31.72.72,0,0,1,.08.57.62.62,0,0,1-.32.39,1.16,1.16,0,0,1-.66.08m-4.1.19a1,1,0,0,0-.7.47,3.23,3.23,0,0,0-.42.68l0,0a1.83,1.83,0,0,1,1-.61.42.42,0,0,0,.32-.26.22.22,0,0,0-.06-.19.25.25,0,0,0-.15-.05m-4.28,0a.23.23,0,0,0-.15.05.18.18,0,0,0-.06.19.42.42,0,0,0,.32.26,1.79,1.79,0,0,1,1,.61l0,0a2.86,2.86,0,0,0-.42-.68,1,1,0,0,0-.69-.47m-4.84-1.06a.5.5,0,0,0,0,.34.37.37,0,0,0,.21.24.19.19,0,0,0,.09,0,.51.51,0,0,1-.25-.25.53.53,0,0,1,0-.37m13.95,0a.52.52,0,0,1,0,.37.51.51,0,0,1-.25.25l.09,0a.35.35,0,0,0,.2-.24.45.45,0,0,0,0-.34M69.08,33.51H69a.63.63,0,0,0-.59.6.85.85,0,0,0,.68.86,2.67,2.67,0,0,0,2.38-.75A1.61,1.61,0,0,1,70.17,34L70,33.87a.75.75,0,0,1-.13.5.6.6,0,0,1-.5.26.64.64,0,0,1-.38-.12.57.57,0,0,1-.14-.71.16.16,0,0,1,.27,0,.14.14,0,0,1,0,.14.3.3,0,0,0,0,.19.23.23,0,0,0,.33,0,.26.26,0,0,0,.06-.18.44.44,0,0,0-.49-.45m-61.55.72a3.26,3.26,0,0,0,1.92.83A1.19,1.19,0,0,0,9.92,35a.86.86,0,0,0,.68-.86.63.63,0,0,0-.59-.6c-.43-.05-.58.2-.59.44a.27.27,0,0,0,.07.18.22.22,0,0,0,.33,0c.06-.06,0-.18,0-.18a.17.17,0,0,1,0-.14.18.18,0,0,1,.28,0,.56.56,0,0,1-.15.71.62.62,0,0,1-.38.12.63.63,0,0,1-.5-.26.75.75,0,0,1-.12-.5L8.82,34a1.53,1.53,0,0,1-.89.27,1.75,1.75,0,0,1-.4-.05M70.45,32.5a.46.46,0,0,0-.16.35.53.53,0,0,0,.15.43.9.9,0,0,0,.8.25c.76-.11,1.43-.83,2-2.14a2.08,2.08,0,0,1-1.45.8l-.25,0h0s0,0,0,0a.8.8,0,0,1,0,.75.53.53,0,0,1-.47.27.6.6,0,0,1-.56-.29.72.72,0,0,1,0-.43M5.78,31.39c.55,1.31,1.21,2,2,2.14a.91.91,0,0,0,.8-.25.57.57,0,0,0,.15-.43.43.43,0,0,0-.17-.35.64.64,0,0,1,0,.43.57.57,0,0,1-.52.29H8a.53.53,0,0,1-.5-.27.83.83,0,0,1,0-.75l0,0h0l-.25,0a2.08,2.08,0,0,1-1.45-.8m-.07-.45c.41.57,1.09,1.14,1.72,1s.84-.42.8-.72-.09-.17-.13-.17a.39.39,0,0,0-.18.06.89.89,0,0,1-.45.15.36.36,0,0,1-.28-.12L7.08,31c-.08-.12-.13-.18-.27-.18a.23.23,0,0,0-.2.11.57.57,0,0,1-.27.22.71.71,0,0,1-.63-.23m65.19.12s-.12,0-.14.17.31.61.81.72l.2,0a2.2,2.2,0,0,0,1.52-1,.72.72,0,0,1-.63.23.56.56,0,0,1-.28-.22.21.21,0,0,0-.18-.11h0c-.16,0-.2.06-.29.18a1.13,1.13,0,0,1-.1.13.37.37,0,0,1-.29.12.88.88,0,0,1-.44-.15.39.39,0,0,0-.18-.06m.62-5.15a.37.37,0,0,1,.29.12.91.91,0,0,1,.1.13c.09.12.13.18.27.18a.22.22,0,0,0,.2-.11.5.5,0,0,1,.28-.21.69.69,0,0,1,.63.21,2.22,2.22,0,0,0-1.52-1,1.2,1.2,0,0,0-.2,0c-.5.1-.84.41-.81.71s.1.17.14.17a.39.39,0,0,0,.18-.06.88.88,0,0,1,.44-.15M6.22,26a.25.25,0,0,1,.12,0,.51.51,0,0,1,.27.21c.06.07.08.1.18.11h0c.16,0,.21-.06.29-.18L7.19,26a.36.36,0,0,1,.28-.12.89.89,0,0,1,.45.15.39.39,0,0,0,.18.06s.12,0,.13-.17-.31-.61-.8-.71a1.38,1.38,0,0,0-.2,0,2.2,2.2,0,0,0-1.52,1A.86.86,0,0,1,6.22,26m65.55-1a2.08,2.08,0,0,1,1.45.8c-.55-1.31-1.22-2-2-2.14a.93.93,0,0,0-.8.25.55.55,0,0,0-.15.43.49.49,0,0,0,.16.36.7.7,0,0,1,0-.43A.61.61,0,0,1,71,24a.54.54,0,0,1,.5.27.8.8,0,0,1,0,.75s0,0,0,0h0l.25,0M7.91,23.64H7.76c-.77.11-1.43.83-2,2.14A2.08,2.08,0,0,1,7.23,25l.25,0h0l0,0a.83.83,0,0,1,0-.75A.51.51,0,0,1,7.94,24a.62.62,0,0,1,.55.29.67.67,0,0,1,0,.44.46.46,0,0,0,.17-.36.58.58,0,0,0-.15-.43.9.9,0,0,0-.65-.26m61.64-1.52a1.72,1.72,0,0,0-.47.07c-.47.18-.72.5-.68.87a.65.65,0,0,0,.59.61h.08a.44.44,0,0,0,.5-.44.27.27,0,0,0-.06-.19.23.23,0,0,0-.34,0,.26.26,0,0,0,0,.19.16.16,0,0,1,0,.13.17.17,0,0,1-.27,0,.58.58,0,0,1,.14-.72.64.64,0,0,1,.38-.12.6.6,0,0,1,.5.26.75.75,0,0,1,.13.5l.17-.14a1.58,1.58,0,0,1,.9-.26,1.75,1.75,0,0,1,.4,0,3.26,3.26,0,0,0-1.92-.83M9.64,23a.2.2,0,0,0-.15.06.27.27,0,0,0-.07.19c0,.23.17.48.59.44a.65.65,0,0,0,.59-.61c0-.37-.22-.69-.68-.87a1.72,1.72,0,0,0-.47-.07A3.2,3.2,0,0,0,7.53,23a1.75,1.75,0,0,1,.4,0,1.53,1.53,0,0,1,.89.26l.18.14a.75.75,0,0,1,.12-.5.63.63,0,0,1,.88-.14.57.57,0,0,1,.15.72.18.18,0,0,1-.28,0,.17.17,0,0,1,0-.14s0-.12,0-.18A.23.23,0,0,0,9.64,23M48.36,8.75a9.56,9.56,0,0,0,2,2.16,4.16,4.16,0,0,0,2.48,1A2,2,0,0,0,54,11.55a1.34,1.34,0,0,0,.59-1,1.25,1.25,0,0,0-.43-1,1,1,0,0,0-.68-.25,1,1,0,0,0-.84.38.71.71,0,0,0,0,.7.42.42,0,0,0,.38.23c.35,0,.44-.22.51-.42a.11.11,0,0,1,0-.06.2.2,0,0,1,.34-.08.22.22,0,0,1,.06.17.94.94,0,0,1-1,.86.9.9,0,0,1-.65-.36,1.18,1.18,0,0,1-.19-1,1.47,1.47,0,0,1,1.47-1h0A23.59,23.59,0,0,0,44.82,4.8a6.67,6.67,0,0,1,2.87,2.82,3.5,3.5,0,0,0,.76.46c.22.07.37-.11.54-.32l0,0a.37.37,0,0,1,.3-.15.79.79,0,0,1,.49.24c.12.11.21.17.33.11l.18-.13a.68.68,0,0,1,.57-.21c.15,0,.26.17.3.37a1,1,0,0,1-.52,1,2.22,2.22,0,0,1-2.3-.26m-22.82.51a1,1,0,0,0-.68.25,1.31,1.31,0,0,0-.43,1,1.34,1.34,0,0,0,.59,1,2,2,0,0,0,1.17.34,4.18,4.18,0,0,0,2.48-1,9.23,9.23,0,0,0,2-2.16,2.22,2.22,0,0,1-2.3.26,1,1,0,0,1-.51-1c0-.2.15-.35.3-.37a.7.7,0,0,1,.57.21l.17.13c.13.06.22,0,.33-.11a.79.79,0,0,1,.49-.24.37.37,0,0,1,.3.15l0,0c.16.2.32.38.53.32a3.21,3.21,0,0,0,.77-.46A6.56,6.56,0,0,1,34.18,4.8a23.51,23.51,0,0,0-8.65,3.88h0A1.45,1.45,0,0,1,27,9.7a1.22,1.22,0,0,1-.18,1,.87.87,0,0,1-.66.36.93.93,0,0,1-1-.86.22.22,0,0,1,.05-.17.21.21,0,0,1,.35.08s0,0,0,.06a.49.49,0,0,0,.5.42.44.44,0,0,0,.39-.23.71.71,0,0,0-.05-.7,1,1,0,0,0-.85-.38M46,8.3h0a.58.58,0,0,0-.38.25.67.67,0,0,0-.07.52.77.77,0,0,0,.78.6c.46,0,.8-.36.92-.92a3.09,3.09,0,0,0-1.28-2.69,1.89,1.89,0,0,1,0,1.56l-.15.25a1.07,1.07,0,0,1,.66.07.59.59,0,0,1,.32.39.74.74,0,0,1-.08.58.68.68,0,0,1-.56.3.46.46,0,0,1-.21,0,.18.18,0,0,1-.1-.2.16.16,0,0,1,.16-.13H46a.3.3,0,0,0,.2-.07.29.29,0,0,0,.06-.32A.26.26,0,0,0,46,8.3M33.08,6.06a3.1,3.1,0,0,0-1.29,2.69c.12.56.46.91.9.92h0a.79.79,0,0,0,.81-.6.63.63,0,0,0-.08-.52.58.58,0,0,0-.37-.25.28.28,0,0,0-.3.15.29.29,0,0,0,.06.32.27.27,0,0,0,.19.07h0a.17.17,0,0,1,.08.33.42.42,0,0,1-.2,0,.67.67,0,0,1-.56-.3.74.74,0,0,1-.09-.58.64.64,0,0,1,.33-.39,1.07,1.07,0,0,1,.66-.07,1.28,1.28,0,0,1-.15-.25,1.82,1.82,0,0,1,0-1.56m-.29,2.05-.1,0a.38.38,0,0,0-.2.24.5.5,0,0,0,0,.34.53.53,0,0,1,0-.37.47.47,0,0,1,.25-.25m13.41,0a.49.49,0,0,1,.26.25.52.52,0,0,1,0,.37.45.45,0,0,0,0-.34.35.35,0,0,0-.2-.24l-.1,0m-2.12-.59a.55.55,0,0,0,.44.18h0a.69.69,0,0,0,.52-.29,1.09,1.09,0,0,0,.12-.93C45,5.6,44,4.94,42.36,4.5a2.23,2.23,0,0,1,1.21,1.87v0l.06-.06a.92.92,0,0,1,.53-.16.64.64,0,0,1,.69.58.67.67,0,0,1-.15.54.74.74,0,0,1-.62.2m-7.44-3c-1.64.44-2.6,1.1-2.85,2a1.13,1.13,0,0,0,.13.93.69.69,0,0,0,.51.29h0a.55.55,0,0,0,.44-.18.74.74,0,0,1-.62-.2.68.68,0,0,1-.16-.54.64.64,0,0,1,.7-.58.89.89,0,0,1,.52.16l.07.06v0A2.23,2.23,0,0,1,36.64,4.5m3.88,2a3.53,3.53,0,0,0,.42.69,1.07,1.07,0,0,0,.7.46.25.25,0,0,0,.15,0,.22.22,0,0,0,.06-.19.42.42,0,0,0-.32-.26,1.81,1.81,0,0,1-1-.61l0,0m-2.05,0s0,0,0,0a1.79,1.79,0,0,1-1,.61.42.42,0,0,0-.32.26.18.18,0,0,0,.06.19.23.23,0,0,0,.15,0,1,1,0,0,0,.69-.46,3.1,3.1,0,0,0,.42-.69M41.8,4.45c.29.23.51.52.45.76a.67.67,0,0,1-.2.35.22.22,0,0,0-.1.23c0,.19.1.23.25.31l.17.11c.21.14.24.44.07.82a.4.4,0,0,0,0,.3s.1.07.2.07c.37,0,.68-.46.72-1.05.07-.81-.77-1.53-1.54-1.9m-4.6,0c-.77.37-1.61,1.09-1.55,1.9.05.59.35,1,.72,1.05.11,0,.18,0,.21-.07a.4.4,0,0,0,0-.3c-.17-.37-.15-.68.07-.82l.16-.11C37,6,37,6,37.05,5.79a.24.24,0,0,0-.1-.23.56.56,0,0,1-.2-.35c-.06-.24.16-.52.45-.76M39,5.71h.06a.12.12,0,0,1,0,.1A2,2,0,0,0,39.5,7a2,2,0,0,0,.38-1.21.17.17,0,0,1,.06-.1.11.11,0,0,1,.11,0,1.06,1.06,0,0,0,.56.16.69.69,0,0,0,.58-.24v0a2.25,2.25,0,0,1-1.05-.57,2.53,2.53,0,0,1-.65-.87,2.63,2.63,0,0,1-.65.87,2.31,2.31,0,0,1-1.06.57s0,0,0,0a.7.7,0,0,0,.58.24,1,1,0,0,0,.56-.16H39m1.06,44.62H40a.23.23,0,0,1-.1-.14,1.35,1.35,0,0,1,.33-1,.61.61,0,0,1,.45-.26.3.3,0,0,1,.31.26c0,.24-.13.35-.29.45l-.15.12a1.28,1.28,0,0,0-.3.36c0,.08-.09.17-.2.17m.63-1.13s-.14,0-.28.18a1.2,1.2,0,0,0-.26.53,2,2,0,0,1,.26-.29l.18-.13c.16-.1.2-.14.19-.22a.09.09,0,0,0-.09-.07m-1.75,1.13c-.11,0-.16-.09-.21-.17a1,1,0,0,0-.29-.36,1.67,1.67,0,0,0-.16-.12c-.16-.1-.33-.21-.29-.45a.32.32,0,0,1,.32-.26.62.62,0,0,1,.45.26,1.29,1.29,0,0,1,.32,1,.17.17,0,0,1-.1.14h0m-.63-1.13a.11.11,0,0,0-.1.07c0,.08,0,.12.19.22l.19.13a2,2,0,0,1,.26.29,1.25,1.25,0,0,0-.26-.53c-.14-.16-.24-.18-.28-.18m1.19.66c-.26,0-.43-1.06-.43-1.31,0-.53.22-.72.43-.72s.43.19.43.72c0,.25-.17,1.31-.43,1.31m0-1.81c-.1,0-.2.16-.2.5a3.41,3.41,0,0,0,.2,1,3.7,3.7,0,0,0,.2-1c0-.34-.1-.5-.2-.5m9.49,0a.17.17,0,0,1-.11-.05.14.14,0,0,1,0-.13c0-.21.5-.65,1-.94s1.17-.31,1.34,0a.46.46,0,0,1,0,.44.65.65,0,0,1-.66.25,1.64,1.64,0,0,0-1.06.21l-.26.14a.34.34,0,0,1-.19.07m1.65-1.15a1.37,1.37,0,0,0-.69.23,3.1,3.1,0,0,0-.72.56l.11-.06a1.9,1.9,0,0,1,1.19-.23.43.43,0,0,0,.44-.14.22.22,0,0,0,0-.22.37.37,0,0,0-.33-.14M30,48.06a.32.32,0,0,1-.18-.07l-.26-.14a1.66,1.66,0,0,0-1.07-.21.63.63,0,0,1-.65-.25.46.46,0,0,1,0-.44c.17-.33.75-.35,1.34,0s1,.74,1,.94a.15.15,0,0,1,0,.13.17.17,0,0,1-.12.05m-1.28-.66a2,2,0,0,1,.94.24l.1.06a3.1,3.1,0,0,0-.72-.56,1.35,1.35,0,0,0-.68-.23.38.38,0,0,0-.34.14.24.24,0,0,0,0,.22.45.45,0,0,0,.44.14h.25M48,47.82c-.26,0-.43-1.06-.43-1.32,0-.53.23-.71.43-.71s.43.18.43.71c0,.26-.17,1.32-.43,1.32M48,46c-.1,0-.2.16-.2.49a3.35,3.35,0,0,0,.2,1,3.69,3.69,0,0,0,.2-1c0-.33-.1-.49-.2-.49M31,47.82c-.26,0-.43-1.06-.43-1.32,0-.53.22-.71.43-.71s.43.18.43.71c0,.26-.17,1.32-.43,1.32M31,46c-.1,0-.2.16-.2.49a3.35,3.35,0,0,0,.2,1,3.69,3.69,0,0,0,.2-1c0-.33-.1-.49-.2-.49M70.44,30.93h0a.39.39,0,0,1-.38-.46,1.15,1.15,0,0,1,.49-.75,2.27,2.27,0,0,1,1-.5c.09,0,.13,0,.14.07l.06-.14c-.68-.07-1.15-.39-1.15-.56s.47-.49,1.15-.55l-.06-.15s0,.07-.14.07a2.27,2.27,0,0,1-1-.5,1.12,1.12,0,0,1-.49-.75.4.4,0,0,1,.38-.46.55.55,0,0,1,.49.46,1.4,1.4,0,0,0,.48.76l.19.16.07.06a1,1,0,0,1,.12-.59c.12-.22.32-.32.47-.24a.14.14,0,0,1,.07.1,1.66,1.66,0,0,0,.46.91,2,2,0,0,0,.74.53c.1.05.19.09.19.19s-.09.14-.19.19a2.11,2.11,0,0,0-.74.54,1.62,1.62,0,0,0-.46.9.14.14,0,0,1-.07.1.21.21,0,0,1-.12,0,.45.45,0,0,1-.35-.26,1,1,0,0,1-.12-.6.27.27,0,0,1-.08.07l-.18.15a1.36,1.36,0,0,0-.48.76.55.55,0,0,1-.49.46m.81-1.38a3.1,3.1,0,0,0-.56.35,1,1,0,0,0-.41.58.24.24,0,0,0,0,.16.17.17,0,0,0,.12.06c.09,0,.21-.07.27-.28a1.61,1.61,0,0,1,.54-.87m-.39-1a1.92,1.92,0,0,0,1.08.34A.11.11,0,0,1,72,29a.13.13,0,0,1,0,.12A.9.9,0,0,0,72,30a.38.38,0,0,0,.12.13,2.06,2.06,0,0,1,.51-.94,2.38,2.38,0,0,1,.77-.58,2.3,2.3,0,0,1-.77-.57,2.14,2.14,0,0,1-.51-.95.31.31,0,0,0-.12.13.9.9,0,0,0,0,.88.11.11,0,0,1,0,.11.1.1,0,0,1-.09.06,1.84,1.84,0,0,0-1.08.34m-.42-2.11a.17.17,0,0,0-.12.06.21.21,0,0,0,0,.15,1,1,0,0,0,.41.6,3.64,3.64,0,0,0,.56.34,1.62,1.62,0,0,1-.54-.86c-.06-.21-.18-.29-.27-.29M8.55,30.93h0a.54.54,0,0,1-.48-.46,1.42,1.42,0,0,0-.48-.76l-.19-.15-.07-.07a1.09,1.09,0,0,1-.12.6.47.47,0,0,1-.36.26.27.27,0,0,1-.12,0,.13.13,0,0,1-.06-.1,1.6,1.6,0,0,0-.47-.9,2,2,0,0,0-.73-.54c-.1-.05-.19-.09-.19-.19s.09-.14.19-.19a2,2,0,0,0,.73-.53A1.64,1.64,0,0,0,6.67,27a.13.13,0,0,1,.06-.1c.15-.08.35,0,.48.24a1,1,0,0,1,.12.59l.07-.06.19-.16a1.46,1.46,0,0,0,.48-.76.54.54,0,0,1,.48-.46.39.39,0,0,1,.29.13.42.42,0,0,1,.1.33,1.14,1.14,0,0,1-.5.75,2.22,2.22,0,0,1-1,.5.16.16,0,0,1-.14-.07.88.88,0,0,1,0,.15c.67.06,1.15.38,1.15.55s-.48.49-1.15.56a.58.58,0,0,1,0,.14.16.16,0,0,1,.14-.07,2.12,2.12,0,0,1,1,.5,1.16,1.16,0,0,1,.5.75.41.41,0,0,1-.1.33.39.39,0,0,1-.29.13m-.8-1.38a1.61,1.61,0,0,1,.54.87c.06.21.18.28.26.28a.14.14,0,0,0,.12-.06.19.19,0,0,0,0-.16.9.9,0,0,0-.41-.58,2.75,2.75,0,0,0-.55-.35m-2.14-1a2.37,2.37,0,0,1,.76.58,2.12,2.12,0,0,1,.52.94A.52.52,0,0,0,7,30a.9.9,0,0,0,0-.88A.13.13,0,0,1,7,29a.12.12,0,0,1,.1-.05,1.88,1.88,0,0,0,1.07-.34,1.8,1.8,0,0,0-1.07-.34.11.11,0,0,1-.1-.06.11.11,0,0,1,0-.11.9.9,0,0,0,0-.88c0-.07-.09-.12-.12-.13a2.19,2.19,0,0,1-.52.95,2.2,2.2,0,0,1-.76.57m2.94-2.11c-.08,0-.2.08-.26.29a1.62,1.62,0,0,1-.54.86,3.18,3.18,0,0,0,.55-.34.92.92,0,0,0,.41-.6.17.17,0,0,0,0-.15.14.14,0,0,0-.12-.06M70.08,30H70a.31.31,0,0,1-.23-.21c0-.07,0-.27.23-.5a1.26,1.26,0,0,1,.78-.31c.12,0,.2,0,.23.11v0c0,.11-.09.16-.16.2a.89.89,0,0,0-.32.26.72.72,0,0,0-.11.15c-.08.12-.17.26-.35.26m.49-.76a1,1,0,0,0-.41.22c-.14.12-.17.22-.16.27a.05.05,0,0,0,0,0h0s.09,0,.16-.17l.12-.17.21-.2M8.92,30c-.18,0-.27-.14-.36-.26l-.1-.15a.9.9,0,0,0-.33-.26c-.07,0-.16-.09-.16-.2s0,0,0,0a.22.22,0,0,1,.22-.11,1.3,1.3,0,0,1,.79.31c.27.23.24.43.22.5A.29.29,0,0,1,9,30H8.92m-.49-.76.2.2.13.17c.08.13.11.17.18.16s.05,0,.05,0,0-.15-.15-.27a1.1,1.1,0,0,0-.41-.22m61-.21c-.49,0-.66-.2-.66-.4s.17-.4.66-.4c.18,0,1.2.14,1.2.4s-1,.4-1.2.4m0-.57c-.28,0-.43.08-.43.17s.13.17.43.17a3.36,3.36,0,0,0,.86-.17,3,3,0,0,0-.86-.17M9.6,29c-.19,0-1.2-.14-1.2-.4s1-.4,1.2-.4c.48,0,.65.21.65.4s-.17.4-.65.4m-.87-.4a3.53,3.53,0,0,0,.87.17c.29,0,.43-.09.43-.17s-.15-.17-.43-.17a3.12,3.12,0,0,0-.87.17m62.06-.35a1.37,1.37,0,0,1-.78-.3c-.27-.24-.25-.44-.23-.51a.31.31,0,0,1,.23-.21c.21,0,.33.13.42.26a.72.72,0,0,0,.11.15.89.89,0,0,0,.32.26c.07,0,.16.09.16.2v0c0,.07-.11.11-.23.11m-.72-.8s-.06,0-.07,0,0,.15.16.28a1.14,1.14,0,0,0,.41.21,1.37,1.37,0,0,1-.21-.21l-.12-.16c-.07-.11-.11-.17-.17-.17m-61.86.8h0c-.12,0-.2,0-.23-.11s0,0,0,0,.09-.16.16-.2a.9.9,0,0,0,.33-.26l.1-.15c.1-.13.2-.3.42-.26a.29.29,0,0,1,.23.21c0,.07,0,.27-.22.51a1.39,1.39,0,0,1-.78.3m.73-.8c-.07,0-.11.06-.18.17l-.13.17a1.25,1.25,0,0,1-.2.2,1.23,1.23,0,0,0,.41-.21c.14-.13.17-.23.15-.28s0,0,0,0Zm39-16c-.2,0-.43-.18-.43-.71,0-.26.17-1.32.43-1.32s.43,1.06.43,1.32c0,.53-.23.71-.43.71m0-1.71a3.35,3.35,0,0,0-.2,1c0,.33.1.49.2.49s.2-.16.2-.49a3.69,3.69,0,0,0-.2-1M31,11.39c-.21,0-.43-.18-.43-.71,0-.26.17-1.32.43-1.32s.43,1.06.43,1.32c0,.53-.23.71-.43.71m0-1.71a3.35,3.35,0,0,0-.2,1c0,.33.1.49.2.49s.2-.16.2-.49a3.69,3.69,0,0,0-.2-1m19.62.82h0a1.6,1.6,0,0,1-.8-.26c-.5-.29-1-.73-1-.94a.13.13,0,0,1,0-.12A.15.15,0,0,1,49,9.12a.38.38,0,0,1,.18.08l.26.14a1.7,1.7,0,0,0,1.06.2.64.64,0,0,1,.66.26.44.44,0,0,1,0,.43.58.58,0,0,1-.54.27m-1.41-1a4.21,4.21,0,0,0,.72.56,1.44,1.44,0,0,0,.69.22c.16,0,.29,0,.33-.14a.22.22,0,0,0,0-.22.45.45,0,0,0-.44-.14,2,2,0,0,1-1.19-.23l-.11,0m-20.87,1a.56.56,0,0,1-.54-.27.46.46,0,0,1,0-.44.66.66,0,0,1,.65-.25,1.66,1.66,0,0,0,1.07-.21,1.76,1.76,0,0,0,.25-.13c.09,0,.13-.08.19-.08a.15.15,0,0,1,.12.06.12.12,0,0,1,0,.12c0,.21-.49.65-1,.94a1.63,1.63,0,0,1-.8.26m0-.74a.41.41,0,0,0-.35.15.24.24,0,0,0,0,.22.38.38,0,0,0,.34.14,1.41,1.41,0,0,0,.68-.22,4.35,4.35,0,0,0,.73-.56l-.11,0a2,2,0,0,1-1.19.23h-.09M39.5,9.35c-.21,0-.43-.18-.43-.71,0-.26.17-1.32.43-1.32s.43,1.06.43,1.32c0,.53-.23.71-.43.71m0-1.71a3.41,3.41,0,0,0-.2,1c0,.33.1.49.2.49s.2-.16.2-.49a3.77,3.77,0,0,0-.2-1m1.19.57h0A.58.58,0,0,1,40.24,8a1.35,1.35,0,0,1-.33-1A.19.19,0,0,1,40,6.85h0c.11,0,.16.09.2.17a1.43,1.43,0,0,0,.3.37l.16.11c.15.1.32.21.28.45a.3.3,0,0,1-.31.26m-.54-.94a1.41,1.41,0,0,0,.26.54c.14.16.24.17.28.17a.08.08,0,0,0,.09-.07c0-.08,0-.12-.19-.22l-.18-.13a1.55,1.55,0,0,1-.26-.29m-1.84.94h0A.32.32,0,0,1,38,8c0-.24.13-.35.29-.45l.16-.11A1.15,1.15,0,0,0,38.73,7c.05-.08.1-.17.21-.17h0a.16.16,0,0,1,.1.14,1.29,1.29,0,0,1-.32,1,.59.59,0,0,1-.45.26m.54-.94a2,2,0,0,1-.26.29l-.19.13c-.16.1-.2.14-.19.22a.1.1,0,0,0,.1.07s.14,0,.28-.17a1.41,1.41,0,0,0,.26-.54"/><g class="cls-4"><rect class="cls-5" x="0.05" y="0.05" width="78.77" height="56.96"/></g><path class="cls-6" d="M69.71,22.81A.49.49,0,0,0,69,22.7a.45.45,0,0,0-.12.56,0,0,0,0,0,.09,0,.39.39,0,0,1,0-.29.35.35,0,0,1,.24-.12.5.5,0,0,1,.46,0v0"/><path class="cls-6" d="M70,27.78l.06,0c-.14-.2-.08-.36.06-.39a.17.17,0,0,1,.12,0c-.08-.11-.15-.2-.28-.18s-.25.26,0,.51"/><path class="cls-6" d="M68.79,28.52a.25.25,0,0,0,.18.22.11.11,0,0,1,0-.06c0-.14.17-.28.54-.28a3.34,3.34,0,0,1,.88.17s0,0,0-.05a2.4,2.4,0,0,0-1.09-.28c-.37,0-.54.13-.54.28"/><path class="cls-6" d="M68,33.78A1.14,1.14,0,0,0,68.4,35a1.1,1.1,0,0,1-.22-1.1,1,1,0,0,1,1.43-.55.71.71,0,0,1,.09.07.82.82,0,0,0-.25-.24,1,1,0,0,0-1.44.56"/><path class="cls-6" d="M72.8,28a2.12,2.12,0,0,0,.69.52s.05,0,.05,0-.34-.11-.76-.52c0,0,0,0,0,0"/><path class="cls-6" d="M45.5,9.74a1,1,0,0,1-.25-1.14.86.86,0,0,1,1.19-.46l.05,0a.51.51,0,0,0-.21-.2.93.93,0,0,0-.56-.06,1.38,1.38,0,0,1-.56.41s0,.06-.07.1a1.06,1.06,0,0,0,.41,1.31"/><path class="cls-6" d="M43.66,49.1a1.16,1.16,0,0,0-.27,1.22l.06.11a.71.71,0,0,0,.19.23l0,0a1.09,1.09,0,0,1,.14-1.42,1.29,1.29,0,0,1,1.74,0,1.32,1.32,0,0,0-1.9-.19"/><path class="cls-6" d="M50.79,7.64c-.27-.06-.47.22-.67.32a.36.36,0,0,1-.46-.12c-.11-.11-.43-.34-.62-.1s-.38.48-.69.38a2.93,2.93,0,0,1-.71-.41l.06.09a3.91,3.91,0,0,0,.82.49c.3.09.48-.16.68-.39s.51,0,.62.1a.38.38,0,0,0,.46.12c.2-.1.4-.37.67-.32h0a.24.24,0,0,0-.18-.17"/><path class="cls-6" d="M50.45,9.59a1.85,1.85,0,0,1-1.13-.22c-.33-.16-.37-.24-.42-.18s.09.22.31.43c-.11-.13-.18-.24-.15-.27s.09,0,.42.18a1.79,1.79,0,0,0,1.13.22.58.58,0,0,1,.39.08.5.5,0,0,0-.55-.24"/><path class="cls-6" d="M69.05,34.38a.45.45,0,0,1,0-.31.38.38,0,0,1,0-.24c0-.06-.06-.08-.09,0a.45.45,0,0,0,.12.56l0,0"/><path class="cls-6" d="M40,50.16c.06,0,.09-.07.15-.18a1.3,1.3,0,0,1,.28-.58c.16-.18.3-.23.41-.2h0c0-.19-.29-.28-.57.05s-.37.87-.27.92"/><path class="cls-6" d="M69.53,33.6a.62.62,0,0,1,.09.29.32.32,0,0,1-.48.31.14.14,0,0,0,0,.08.32.32,0,0,0,.35.11.4.4,0,0,0,.17-.15.26.26,0,0,0,.05-.12.19.19,0,0,0,0-.07.53.53,0,0,0-.25-.45"/><path class="cls-6" d="M71.76,26.17a.81.81,0,0,0,.16.16l-.1-.13-.06,0"/><path class="cls-6" d="M71.5,25.06a.78.78,0,0,1-.67.32.62.62,0,0,0-.25.52c0,.18.1.25.2.26a.24.24,0,0,1,0-.1c0-.36.33-.72.89-.84a1.64,1.64,0,0,1,1.41.56,1.8,1.8,0,0,0-1.55-.72"/><path class="cls-6" d="M71.13,24.17a.38.38,0,0,1,.22.06A.4.4,0,0,0,71,24a.49.49,0,0,0-.38.81.55.55,0,0,1-.22-.08.5.5,0,0,0,.38.24.49.49,0,0,1,.38-.81"/><path class="cls-6" d="M74,28.68A8.91,8.91,0,0,0,73.81,27a2.74,2.74,0,0,0-.51-.6,2.36,2.36,0,0,1,.34.44,7.88,7.88,0,0,1,0,3.35c-.26.45-.74.89-1,.8a.52.52,0,0,1-.11-.07.53.53,0,0,0,.27.23c.13,0,.31,0,.5-.2a5.15,5.15,0,0,0,.28-.45h0l-.1.27a1.87,1.87,0,0,0,.32-.42A8.09,8.09,0,0,0,74,28.68"/><path class="cls-6" d="M72.14,34a1.65,1.65,0,0,1-.61.24A2.79,2.79,0,0,1,69,35a1.68,1.68,0,0,1-.38-.19,1.33,1.33,0,0,0,.53.35c.75.27,1.87-.1,3-1.19l0,0"/><path class="cls-6" d="M73.74,30.67h0a3.79,3.79,0,0,1-.49.71c-.73,1.72-1.52,2.12-2.06,2.19a1,1,0,0,1-.75-.16,1,1,0,0,0,.91.32c.62-.08,1.58-.59,2.39-3.06"/><path class="cls-6" d="M69.75,23.47a.8.8,0,0,0,0-.15.32.32,0,0,0-.21-.33.31.31,0,0,1,.05.17.58.58,0,0,1-.71.56.83.83,0,0,1-.37-.15.74.74,0,0,0,.53.31.88.88,0,0,0,.29,0l.06,0,.06,0a1,1,0,0,0,.21-.2h0a.84.84,0,0,0,.06-.14"/><path class="cls-6" d="M43.64,6.39s-.06.08-.1.11a1.56,1.56,0,0,1-.21.68,1.26,1.26,0,0,0,.33.77l.13.11a1,1,0,0,1,0-1.51.77.77,0,0,1,.78,0,.69.69,0,0,0-.94-.12"/><path class="cls-6" d="M47.91,9.41a2.64,2.64,0,0,0-.31,1.2c0,.35.11.53.24.58a.9.9,0,0,1-.08-.41A3.2,3.2,0,0,1,48,9.61c0-.12-.09-.2-.12-.2"/><path class="cls-6" d="M47.6,46.44a2.6,2.6,0,0,0,.31,1.2s0,0,.05,0a3.42,3.42,0,0,1-.2-1c0-.41.15-.61.31-.61a.19.19,0,0,1,.08,0c-.06-.12-.14-.19-.24-.19s-.31.2-.31.61"/><path class="cls-6" d="M42.33,6.35a.8.8,0,0,1-.06.57c-.07.15-.09.4.12.49a.53.53,0,0,1,0-.33c.08-.18.19-.53,0-.68l-.07-.05"/><path class="cls-6" d="M40,6.89c-.1.05,0,.59.27.92a.6.6,0,0,0,.12.11,1.05,1.05,0,0,1-.24-.84c-.06-.11-.09-.19-.15-.19"/><path class="cls-6" d="M40.79,49.84c-.41.52-.6,1-.52,1.09s.09,0,.25-.23A3.08,3.08,0,0,1,41,50c.36-.46.72-.55.92-.46a.24.24,0,0,0-.07-.13c-.18-.16-.6-.1-1,.43"/><path class="cls-6" d="M53.63,47.05a.64.64,0,0,0-.24-.35,1.8,1.8,0,0,1,.12.29.08.08,0,0,0,.12.06"/><path class="cls-6" d="M40.44,6.28h0c-.11-.14-.14-.18-.19-.16s.11.58.52,1.09a1.58,1.58,0,0,0,.31.32c-.05-.06-.1-.09-.15-.16-.41-.51-.6-1-.51-1.09"/><path class="cls-6" d="M45.62,48.83a.62.62,0,0,0,.4.26.39.39,0,0,0,.35-.66.42.42,0,0,0-.12-.08.38.38,0,0,1-.39.58.72.72,0,0,1-.24-.1"/><path class="cls-6" d="M40.44,7.42l.14.15.23.16c-.06-.12-.23-.19-.37-.31"/><path class="cls-6" d="M52.41,48a1.17,1.17,0,0,1-.22-.43.91.91,0,0,1,.74-1.19.82.82,0,0,1,.59.17.78.78,0,0,0-.75-.33A.91.91,0,0,0,52,47.39a1.08,1.08,0,0,0,.38.59"/><path class="cls-6" d="M46,47.08a1.14,1.14,0,0,0-.93,1.54.91.91,0,0,0,.32.39.79.79,0,0,1-.16-.23,1.13,1.13,0,0,1,.93-1.53,1.17,1.17,0,0,1,1,.29A1.21,1.21,0,0,0,46,47.08"/><path class="cls-6" d="M46.31,6.29a2.87,2.87,0,0,1,.94,2.42c-.15.7-.59,1-1,1a.92.92,0,0,1-.57-.15,1,1,0,0,0,.73.32c.42,0,.86-.31,1-1a3,3,0,0,0-1.1-2.58"/><path class="cls-6" d="M45.85,48.05c-.06,0,0,.13,0,.12a.47.47,0,0,1,.22,0,.51.51,0,0,1,.38.09h0a.55.55,0,0,0-.63-.23"/><path class="cls-6" d="M46.28,8.32a.42.42,0,0,1-.07.47.41.41,0,0,1-.33.1.06.06,0,0,0,0,.11.53.53,0,0,0,.57-.17.37.37,0,0,0-.14-.51"/><path class="cls-6" d="M49.83,47c-.6.36-1,.82-.93.9s.09,0,.35-.15a3.23,3.23,0,0,1,.74-.59A1.13,1.13,0,0,1,51,47h0c-.11-.23-.55-.34-1.18,0"/><path class="cls-6" d="M46.92,50.34a2.45,2.45,0,0,0,.49-1.83,1.28,1.28,0,0,0-.47-.81,1.47,1.47,0,0,1,.31.64,3.24,3.24,0,0,1-1.33,2.82,2.22,2.22,0,0,1-.22.41,6.19,6.19,0,0,0,1.22-1.23"/><path class="cls-6" d="M49.09,49.35l-.16-.16.11.13s0,0,.05,0"/><path class="cls-6" d="M50.7,48.36l.11.09a1.1,1.1,0,0,0-.27-.25,2.11,2.11,0,0,0-2.2.3,4,4,0,0,0-.25.45,2.33,2.33,0,0,1,2.61-.59"/><path class="cls-6" d="M70.07,33.76a1.13,1.13,0,0,1,.12-1.57,1,1,0,0,1,1.11-.08A.93.93,0,0,0,70,32a1.13,1.13,0,0,0,0,1.73"/><path class="cls-6" d="M7.16,28.24a1.92,1.92,0,0,1,1,.3v0a1.53,1.53,0,0,0-1-.42l-.06.14"/><path class="cls-6" d="M9.54,28.24a2.4,2.4,0,0,0-1.09.28s.09.08.21.12a3.07,3.07,0,0,1,1-.24.88.88,0,0,1,.36.07c0-.13-.2-.23-.52-.23"/><path class="cls-6" d="M70.3,30.73c-.08-.18,0-.5.42-.82a2.62,2.62,0,0,1,.54-.34h0c.23-.2.3-.22.27-.27s-.52.09-1,.46-.53.75-.39.91a.33.33,0,0,0,.13.07"/><path class="cls-6" d="M8.92,24.43a.72.72,0,0,0-.33-.63.73.73,0,0,1,.17.47.54.54,0,0,1-.23.44.62.62,0,0,1-.09.27.54.54,0,0,0,.48-.55"/><path class="cls-6" d="M7.49,29.47s0,0,0,0,.51.09,1,.46a1.36,1.36,0,0,1,.12.12,1.48,1.48,0,0,0-.28-.28c-.47-.37-1-.54-1-.46s0,.06.17.18"/><path class="cls-6" d="M8.12,26.67a1.59,1.59,0,0,1-.52.82c-.23.21-.3.22-.27.28s.2,0,.44-.12a1.64,1.64,0,0,0,.51-.82c.08-.3.28-.4.45-.35l0-.08c-.17-.19-.48-.11-.58.27"/><path class="cls-6" d="M7.37,31.17c.15.18.44,0,.58-.05a.45.45,0,0,1,.3-.07c-.09-.22-.32-.17-.46-.09a.57.57,0,0,1-.52.09l.1.12"/><path class="cls-6" d="M8.64,29.58a1.06,1.06,0,0,0-.14-.15c.1.14.17.29.28.34a.85.85,0,0,0-.14-.19"/><path class="cls-6" d="M9.33,23.75a.73.73,0,0,1-.07-.65.32.32,0,0,1,.22-.28.49.49,0,0,1,.5,0,.63.63,0,0,0-.11-.13.5.5,0,0,0-.72.11.73.73,0,0,0,.18.94"/><path class="cls-6" d="M7.76,29.72l-.08-.06a1.56,1.56,0,0,1,.44.72.44.44,0,0,0,.24.33.67.67,0,0,1-.08-.17,1.59,1.59,0,0,0-.52-.82"/><path class="cls-6" d="M8.48,27.64C8.22,28,8,27.92,8,28s.19.05.39,0a1,1,0,0,0,.23-.21c.15-.17.21-.39.4-.37a.16.16,0,0,0-.14-.16c-.21,0-.26.19-.42.37"/><path class="cls-6" d="M9,32.22A1.14,1.14,0,0,0,8.84,32a1.1,1.1,0,0,0-.64-.19,1.36,1.36,0,0,1-.65.31h0l0,0a.63.63,0,0,0,.19.79.67.67,0,0,1,0-.63A.92.92,0,0,1,9,32.19s0,0,0,0"/><path class="cls-6" d="M25,45.11c1.13-.57,2.82-.31,4.38,1.14C27.8,44.66,26,44.36,24.86,45a1.76,1.76,0,0,0-.8,2.56c-.71-.59-1.35-1.18-1.93-1.76.62.63,1.32,1.28,2.09,1.92a1.76,1.76,0,0,1,.8-2.56"/><path class="cls-6" d="M10,23.26a.34.34,0,0,0,0-.12.13.13,0,0,0,0-.05S9.93,23,9.89,23a.42.42,0,0,1,0,.21.05.05,0,0,0,.1,0"/><path class="cls-6" d="M6,31.43a3.13,3.13,0,0,1-.53-.77h0a2.67,2.67,0,0,1,.09.26,4,4,0,0,0,.44.5"/><path class="cls-6" d="M23.86,10a1.68,1.68,0,0,0,.48,1.7,1.69,1.69,0,0,1-.12-2l-.36.31"/><path class="cls-6" d="M9.41,33.22a.46.46,0,0,1-.07.07,1.12,1.12,0,0,1-.28.54.68.68,0,0,0,.09.41,1,1,0,0,0,.15.14.75.75,0,0,1,0-.64.5.5,0,0,1,.05-.13h0a.55.55,0,0,1,.21-.19s0,0,0,0l0,0h0a1,1,0,0,1,1,.1,1,1,0,0,0-1.24-.24"/><path class="cls-6" d="M5.53,28.65A2.26,2.26,0,0,0,6.38,28a1.77,1.77,0,0,0,.5-1,.16.16,0,0,1,.15,0c-.09-.14-.21-.22-.31-.17a1.73,1.73,0,0,1-.5,1c-.49.56-.89.57-.89.65s.08.07.2.13"/><path class="cls-6" d="M9.77,34.4l.1,0a.46.46,0,0,0,.12-.56s-.11,0-.1,0a.34.34,0,0,1-.05.29.34.34,0,0,1-.39.11.32.32,0,0,0,.32.17"/><path class="cls-6" d="M8.85,23.36l.1.09a1,1,0,0,0-.26-.25A1.55,1.55,0,0,0,7.51,23l-.43.39,0,0a1.62,1.62,0,0,1,1.8-.06"/><path class="cls-6" d="M8.85,29.27C8.56,29,8.06,28.94,8,29s.08.08.19.15a.93.93,0,0,1,.74.21.35.35,0,0,0-.1-.12"/><path class="cls-6" d="M72.14,30.66c-.28,0-.32.17-.48.35s-.44,0-.59-.05-.45-.17-.49.19a.66.66,0,0,0,.31.57.56.56,0,0,1-.14-.41c0-.36.34-.28.48-.19s.44.23.59.05.2-.36.48-.34a.22.22,0,0,1,.15,0c-.08-.1-.12-.2-.31-.21"/><path class="cls-6" d="M71.34,27.55a.9.9,0,0,0,.09.1l.11.1s-.05-.07-.2-.2"/><path class="cls-6" d="M70.72,33a.6.6,0,0,1,0-.58.69.69,0,0,0-.26.11.47.47,0,0,0,.23.47"/><path class="cls-6" d="M70.44,27.19c-.21-.27-.21-.52-.11-.63a.27.27,0,0,1,.34-.06c-.14-.22-.36-.25-.5-.1s-.08.45.27.79"/><path class="cls-6" d="M70,29.78h0a.46.46,0,0,1,.2-.35,1.24,1.24,0,0,1,.44-.23c.13-.09.22-.1.22-.17s-.53,0-.83.24-.21.49,0,.51"/><path class="cls-6" d="M72,30.14a1,1,0,0,1,0-1,1.66,1.66,0,0,1-.22,0,.82.82,0,0,0,.19,1"/><path class="cls-6" d="M55.17,47.2a2.14,2.14,0,0,1-.2.47,25.32,25.32,0,0,0,5.89-6.85h5.36V37.57a12.34,12.34,0,0,0,4.6-2.31,3.1,3.1,0,0,1-.69.24,12.8,12.8,0,0,1-4.07,1.91v3.25H60.7a25.25,25.25,0,0,1-5.53,6.54"/><path class="cls-6" d="M70.66,28.52s.07.09.17.16a1.55,1.55,0,0,1,1.2-.45.84.84,0,0,1,.15-1.17c0-.09,0-.16,0-.16-.24-.13-.66.51-.28,1.17a1.59,1.59,0,0,0-1.21.45"/><path class="cls-6" d="M6.85,30.15a2,2,0,0,0-.47-.81.74.74,0,0,0-.13-.12,1.69,1.69,0,0,1,.47.93s.08,0,.13,0"/><path class="cls-6" d="M70.82,28s0,0,0,0-.12-.08-.31-.24l0,0a.75.75,0,0,0,.27.23"/><path class="cls-6" d="M7.73,25.1s-.06-.05-.07-.08c-.17-.28-.07-.87.4-.85a.49.49,0,0,1,.25.07A.47.47,0,0,0,7.9,24c-.48,0-.56.57-.41.85a.78.78,0,0,0,.24.24"/><path class="cls-6" d="M6.5,26.29l.08.06-.08-.06"/><path class="cls-6" d="M10.42,22.38a.84.84,0,0,1,.23.63.77.77,0,0,1-.7.71.7.7,0,0,1-.45-.1.61.61,0,0,0,.62.26.76.76,0,0,0,.69-.71.85.85,0,0,0-.39-.79"/><path class="cls-6" d="M6.39,31.15c.27-.09.21-.31.49-.32a.33.33,0,0,1,.23.05c-.1-.12-.17-.23-.39-.22s-.22.24-.49.34-.31,0-.5-.2c.24.25.49.42.66.35"/><path class="cls-6" d="M41.93,4.37l-.32-.08h0a3.85,3.85,0,0,1,1.28.76,3.49,3.49,0,0,0-.91-.68"/><path class="cls-6" d="M44.25,4.66l-.38-.08A7.22,7.22,0,0,1,46.1,5.8a6.86,6.86,0,0,0-1.85-1.14"/><path class="cls-6" d="M10.05,35.19a1,1,0,0,0,.76-1,.8.8,0,0,0-.32-.56.89.89,0,0,1,.16.4,1,1,0,0,1-.76,1c-.7.25-1.76-.07-2.81-1.06h0l0,0c1.1,1.09,2.22,1.46,3,1.19"/><path class="cls-6" d="M26.62,9.24a1.45,1.45,0,0,0-1.12-.51L25.19,9a1.56,1.56,0,0,1,1.43.29"/><path class="cls-6" d="M9.76,21.83a1.72,1.72,0,0,1,.87.34,1.51,1.51,0,0,0-1-.5,2.29,2.29,0,0,0-.7,0c-.18.13-.36.25-.54.39a2.71,2.71,0,0,1,1.4-.28"/><path class="cls-6" d="M33.15,7.51a1.3,1.3,0,0,0,.32.41,1.07,1.07,0,0,1-.16-.25,1.9,1.9,0,0,1,.35-2.08c-.2.15-.38.31-.55.46a1.78,1.78,0,0,0,0,1.46"/><path class="cls-6" d="M53.47,10.6a.69.69,0,0,0,.15-.24h0a.78.78,0,0,0,.07-.25.09.09,0,0,0-.18,0,.63.63,0,0,1-.64.55.48.48,0,0,1-.27-.09.52.52,0,0,0,.44.26.72.72,0,0,0,.27-.06l.12-.09,0,0"/><path class="cls-6" d="M54.27,9.5A1.4,1.4,0,0,1,54,11.58c-.88.63-2.42.44-3.79-.64l-.54-.48a8.89,8.89,0,0,0,.7.64c1.36,1.08,2.92,1.27,3.79.64a1.4,1.4,0,0,0,.17-2.22l0,0"/><path class="cls-6" d="M56.9,11.46a23.91,23.91,0,0,1,3.8,4.94h.07a24.71,24.71,0,0,0-3.87-4.94"/><path class="cls-6" d="M69.27,21.67A1.28,1.28,0,0,0,68,23.28a1.05,1.05,0,0,0,.37.47.83.83,0,0,1-.2-.31,1.27,1.27,0,0,1,1.25-1.61,2.81,2.81,0,0,1,1.4.28l-.29-.21a2.6,2.6,0,0,0-1.27-.23"/><path class="cls-6" d="M66.06,19.64l.16,0V16.56h-.16Z"/><path class="cls-6" d="M52,9.66a1,1,0,0,0,.38,1.08,1.06,1.06,0,0,1-.22-.91A1.43,1.43,0,0,1,54,9l-.26-.17A1.39,1.39,0,0,0,52,9.66"/><path class="cls-6" d="M38.71,4.9a1.94,1.94,0,0,1-1.08.55c-.06.1,0,.23.18.34a.17.17,0,0,1,0-.18,1.92,1.92,0,0,0,1.08-.55,2.42,2.42,0,0,0,.63-.85h-.24a2.69,2.69,0,0,1-.55.68"/><path class="cls-6" d="M35.47,6.3a2.12,2.12,0,0,0,.11.48l.06.12a1.11,1.11,0,0,0,.26.36,1.58,1.58,0,0,1-.26-.8c-.07-.91.86-1.65,1.62-2l.14-.1-.69.16a2.16,2.16,0,0,0-1.24,1.8"/><path class="cls-6" d="M39,6a1.68,1.68,0,0,0,.47,1.12h0a2.21,2.21,0,0,1-.34-1.19A.46.46,0,0,1,39,6"/><path class="cls-6" d="M25.39,10.17l0-.11a.09.09,0,0,0-.18,0,.89.89,0,0,0,.33.59.9.9,0,0,1-.17-.43.08.08,0,0,1,.05-.09"/><path class="cls-6" d="M27.86,10.12a.38.38,0,0,0,.16.14c-.12-.26.1-.56.55-.51a1.82,1.82,0,0,0,1.14-.22l.07,0c.14-.15.22-.27.19-.3s-.09,0-.43.18a1.85,1.85,0,0,1-1.13.22c-.46-.05-.68.26-.55.53"/><path class="cls-6" d="M72,23.24a1.65,1.65,0,0,0-1.78,0,1.71,1.71,0,0,0-.2.18.69.69,0,0,1-.29.54A1,1,0,0,0,70,25a1.2,1.2,0,0,1,.33-1.63,1.63,1.63,0,0,1,1.81.06l0,0L72,23.24"/><path class="cls-6" d="M29.37,8c.1-.11.37-.29.57-.13l-.11-.13c-.19-.24-.51,0-.62.1a.38.38,0,0,1-.46.12c-.21-.1-.4-.38-.67-.32s-.38.69.13,1.11c-.32-.41-.2-.91,0-1s.46.22.67.32A.38.38,0,0,0,29.37,8"/><path class="cls-6" d="M31.33,7.64a3.6,3.6,0,0,1-.82.48A.38.38,0,0,1,30.1,8c.15.19.32.34.57.27a3.91,3.91,0,0,0,.82-.49,8.5,8.5,0,0,1,.62-.94A6,6,0,0,1,33.5,5.43l-.17.21a7.1,7.1,0,0,1,2-1.06c-.34,0-.66.13-1,.2a6.52,6.52,0,0,0-3,2.86"/><path class="cls-6" d="M26.58,47.7a.73.73,0,0,0-.15-1,.81.81,0,0,1,0,.85,1.21,1.21,0,0,1-1.66.17l.12.14a1.21,1.21,0,0,0,1.7-.15"/><path class="cls-6" d="M34.67,52.54a23.72,23.72,0,0,1-9.39-4.1l-.09,0A23.65,23.65,0,0,0,35.33,52.8c-.23-.08-.45-.17-.66-.26"/><path class="cls-6" d="M26.15,10.78c.57,0,.71-.68.43-1.11,0-.05-.1-.08-.15-.13.26.43.11,1.07-.44,1.07a.52.52,0,0,1-.35-.1.55.55,0,0,0,.51.27"/><path class="cls-6" d="M73.49,26.29a2.72,2.72,0,0,1,.25.42h0a5.87,5.87,0,0,0-1.39-2.53,6.37,6.37,0,0,1,1.14,2.12"/><path class="cls-6" d="M16.45,44.11H10.81v.16h5.74l-.1-.16"/><path class="cls-6" d="M10.65,40.42a17.11,17.11,0,0,1-4.18-2.9,17.85,17.85,0,0,0,4.18,3Z"/><path class="cls-6" d="M70.6,16.84a19.8,19.8,0,0,1,4.82,3.41,19,19,0,0,0-4.82-3.48Z"/><path class="cls-6" d="M58.94,8.66a23.44,23.44,0,0,1,3.48,4.28h.06a24.82,24.82,0,0,0-3.54-4.28"/><path class="cls-6" d="M64.32,12.45h5.31a1,1,0,0,1,.59.22,1,1,0,0,0-.75-.37H64.2l.12.15"/><path class="cls-6" d="M14.87,44.92h0a21.83,21.83,0,0,0,2.44,2.85,20.25,20.25,0,0,1-2.39-2.85"/><path class="cls-6" d="M68.21,16.63l.17.08v-3.6h-.17Z"/><path class="cls-6" d="M8.59,43.94v-3.4l-.16-.09v3.34a.94.94,0,0,0,.38.75,1,1,0,0,1-.22-.6"/><path class="cls-6" d="M.21,28.68c0-7.45,6.39-10.78,8.38-11.84V13.43a1,1,0,0,1,1-1h5.31a31.15,31.15,0,0,1,46.9-3A31.31,31.31,0,0,0,39.43.05,31,31,0,0,0,14.71,12.3H9.4a1,1,0,0,0-1,1v3.41C6.44,17.73.05,21.07.05,28.52A11.7,11.7,0,0,0,3.61,37a11.64,11.64,0,0,1-3.4-8.29"/><path class="cls-6" d="M67.2,19.08a13.34,13.34,0,0,1,5.13,3.12A13,13,0,0,0,67.2,19Z"/><path class="cls-6" d="M39.59,56.52a27.15,27.15,0,0,0,23-12.25h5.79V40.58s8.38-3.78,8.38-11.9a12.21,12.21,0,0,0-4.19-9,12.13,12.13,0,0,1,4,8.82c0,8.12-8.38,11.9-8.38,11.9v3.69h-5.8a27.12,27.12,0,0,1-23,12.25,27.14,27.14,0,0,1-19.34-7.81,27.12,27.12,0,0,0,19.5,8"/><path class="cls-6" d="M5.73,26.25c.42-.58,1.11-1.18,1.82-1a1.46,1.46,0,0,1,.59.27,1.31,1.31,0,0,0-.75-.43,1.81,1.81,0,0,0-1.61.77c-.08.18-.16.39-.23.6l.18-.18"/><path class="cls-6" d="M18.17,40.66H13v.16h5.29l-.09-.16"/><path class="cls-6" d="M7.84,33.73a.85.85,0,0,0,1.08-.79.56.56,0,0,0-.26-.47.67.67,0,0,1,.1.31.86.86,0,0,1-1.08.79,1.83,1.83,0,0,1-1-.53,1.88,1.88,0,0,0,1.17.69"/><path class="cls-6" d="M12.8,37.41a12.75,12.75,0,0,1-4.31-2.09l-.13-.06a12.59,12.59,0,0,0,4.44,2.27Z"/><path class="cls-6" d="M61.41,15.58h4.81a1,1,0,0,1,.6.23,1,1,0,0,0-.76-.39H61.31c0,.06.08.12.1.16"/><path class="cls-6" d="M12.21,41.41a1,1,0,0,1-.22-.59V38.3l-.16-.06v2.42a1,1,0,0,0,.38.75"/><path class="cls-6" d="M21.68,46.64a27.45,27.45,0,0,1-3.91-4.85h-.06a27.89,27.89,0,0,0,4,4.85"/><path class="cls-6" d="M6.7,35a9,9,0,0,1-2.46-6.33c0-6.41,5.67-8.9,7.75-9.6V16.55a1,1,0,0,1,1-1h4.8c1.49-2.4,8.43-12.35,21.82-12.35a25,25,0,0,1,17.75,7.34,25,25,0,0,0-17.91-7.5C26,3.07,19.1,13,17.61,15.42H12.8a1,1,0,0,0-1,1v2.52c-2.08.7-7.75,3.19-7.75,9.6A9,9,0,0,0,6.7,35"/><path class="cls-6" d="M47.78,8.48A9.38,9.38,0,0,0,49.63,11a9.72,9.72,0,0,1-1.84-2.63c0,.05,0,.09,0,.14"/><path class="cls-6" d="M39.43,49.68s0,0,0,0a3.42,3.42,0,0,1-.2-1c0-.41.14-.6.31-.6l.08,0a.27.27,0,0,0-.24-.18c-.17,0-.31.19-.31.6a2.6,2.6,0,0,0,.31,1.2"/><path class="cls-6" d="M42.08,5.12c-.08.33-.34.29-.31.62a.38.38,0,0,0,.22.34.38.38,0,0,1-.06-.18c0-.33.23-.29.31-.62,0-.17-.13-.39-.37-.6a.63.63,0,0,1,.21.44"/><path class="cls-6" d="M39.12,8.57c0,.35.1.53.24.58a.92.92,0,0,1-.08-.42,3.2,3.2,0,0,1,.27-1.16c0-.12-.09-.2-.12-.2a2.64,2.64,0,0,0-.31,1.2"/><path class="cls-6" d="M28.67,10.94c-1.36,1.08-2.91,1.26-3.78.64a.86.86,0,0,1-.14-.13,1.66,1.66,0,0,0,.3.29c.87.63,2.42.44,3.78-.64A8.76,8.76,0,0,0,31.1,8.43c-.14.11-.28.19-.42.28a9,9,0,0,1-2,2.23"/><path class="cls-6" d="M38,49.19c0,.14.06.22.18.29a.19.19,0,0,1,0-.13c0-.16.22-.23.45-.05l0-.06c-.28-.33-.54-.24-.57-.05"/><path class="cls-6" d="M53.53,48.48a23.79,23.79,0,0,1-8.84,4c-.27.12-.53.25-.83.36A23.65,23.65,0,0,0,54,48.42a1.52,1.52,0,0,1-.47.06"/><path class="cls-6" d="M40.17,4.91l.15.15a2.09,2.09,0,0,0,.92.52.15.15,0,0,0,0-.13,1.92,1.92,0,0,1-1.07-.54"/><path class="cls-6" d="M45.41,50.83A1.1,1.1,0,0,0,45,49.58a1.14,1.14,0,0,1,.23,1.08c-.17.62-.78,1.49-2.94,2.06a3.39,3.39,0,0,1-.75.36h0c2.89-.55,3.62-1.57,3.81-2.25"/><path class="cls-6" d="M41.63,52.88l-.19,0h0a2.13,2.13,0,0,0,.36-.15c.3-.23.52-.49.48-.68s-.34-.28-.31-.61.25-.35.47-.5.11-.5,0-.69-.12-.54.3-.52a.59.59,0,0,1,.39.18.72.72,0,0,0-.55-.35c-.42,0-.38.35-.3.53s.19.53,0,.69-.44.17-.47.5.24.28.31.61-.49.78-1,1c-.42,0-.84,0-1.28,0l-.08.17c.52,0,1,0,1.52-.06a3.42,3.42,0,0,0,.42-.23"/><path class="cls-6" d="M41.49,7a1.65,1.65,0,0,1-.81-.49.55.55,0,0,1,.06.08,1.75,1.75,0,0,0,.91.57.93.93,0,0,1,.2.09A.53.53,0,0,0,41.49,7"/><path class="cls-6" d="M38.45,7.41c-.2.16-.45.23-.41.45A.18.18,0,0,0,38.2,8c0-.22.21-.29.41-.45a1.19,1.19,0,0,0,.28-.34c0-.17,0-.31,0-.34s-.08.22-.42.52"/><path class="cls-6" d="M54,45c-1.61-.81-4.34.06-6.24,3.64a2.13,2.13,0,0,1,0,.44c1.89-3.82,4.73-4.76,6.38-3.92a2.12,2.12,0,0,1,.52.38A2.22,2.22,0,0,0,54,45"/><path class="cls-6" d="M54.28,45.77a1.36,1.36,0,0,1-.14,1.92,1.22,1.22,0,0,1-1.55,0l0,0a1.21,1.21,0,0,0,1.7.15,1.37,1.37,0,0,0,0-2.08"/><path class="cls-6" d="M45.25,6.39a1,1,0,0,1-.75,1.36.64.64,0,0,1-.45-.14.6.6,0,0,0,.62.3,1,1,0,0,0,.74-1.36,2,2,0,0,0-.62-1,1.83,1.83,0,0,1,.46.79"/><path class="cls-6" d="M37.23,49.57c.13-.11.4-.11.7.11-.37-.36-.71-.41-.86-.27a.34.34,0,0,0,.11.55.3.3,0,0,1,0-.39"/><path class="cls-6" d="M31.24,48.74l.16.29c-.1-1.13.76-2,1.61-1.78a1.36,1.36,0,0,1,.52.22,1.38,1.38,0,0,0-.68-.39c-.82-.19-1.63.59-1.61,1.66"/><path class="cls-6" d="M32.79,9.88a.9.9,0,0,0,.92-.69.74.74,0,0,0-.3-.81.73.73,0,0,1,.13.65.87.87,0,0,1-.91.68.93.93,0,0,1-.54-.19,1,1,0,0,0,.7.36"/><path class="cls-6" d="M31,9.41a2.52,2.52,0,0,0-.31,1.2c0,.35.1.53.24.58a.9.9,0,0,1-.08-.41,3.2,3.2,0,0,1,.27-1.17c0-.12-.09-.2-.12-.2"/><path class="cls-6" d="M37.07,7.64s.06,0,.09,0c-.08-.19,0-.43.37-.52a1.71,1.71,0,0,0,.91-.57l.06-.07c.1-.22.13-.38.09-.4s-.07,0-.31.31a1.73,1.73,0,0,1-.9.57c-.43.11-.52.46-.31.64"/><path class="cls-6" d="M32.58,51.09a8,8,0,0,1-1.09-1.51l-.11-.09a7.12,7.12,0,0,0,1.2,1.6"/><path class="cls-6" d="M34.45,50.7a.38.38,0,0,1-.1-.21.57.57,0,0,1,.88-.55A.73.73,0,0,0,35,49.6a.93.93,0,0,1,.09.17c-.39-.18-.94,0-.88.56a.44.44,0,0,0,.26.37"/><path class="cls-6" d="M31,47.64s0,0,.05,0a3.42,3.42,0,0,1-.2-1c0-.41.14-.61.32-.61l.07,0a.28.28,0,0,0-.24-.18c-.17,0-.31.19-.31.6a2.48,2.48,0,0,0,.31,1.2"/><path class="cls-6" d="M31.25,8.62a1.7,1.7,0,0,0,.55,1.05,1.77,1.77,0,0,1-.4-1.33l-.15.28"/><path class="cls-6" d="M32.58,8a.55.55,0,0,0-.19.8.61.61,0,0,0,.16.16.55.55,0,0,1,.2-.8.92.92,0,0,1,.87.07.88.88,0,0,0-1-.23"/><path class="cls-6" d="M33,8.89a.51.51,0,0,1-.21,0s0,.06,0,.09a.41.41,0,0,0,.11.07L33,9c.06,0,.05-.12,0-.11"/><path class="cls-6" d="M28.06,49.41a.88.88,0,0,1,.43-1A2.34,2.34,0,0,1,31.1,49a8.4,8.4,0,0,0-1.72-2.2,8.55,8.55,0,0,1,1.56,2,2.35,2.35,0,0,0-2.61-.58c-.65.41-.53,1.14-.27,1.21"/><path class="cls-6" d="M26.1,46.2a.81.81,0,0,0-.92.75.09.09,0,0,0,.18,0,.82.82,0,0,1,.05-.14h0a.63.63,0,0,1,.15-.24l0,0,.12-.09a.89.89,0,0,1,.54-.13.62.62,0,0,1,.36.12.71.71,0,0,0-.52-.28"/><path class="cls-6" d="M28,47.39a.3.3,0,0,1,0-.29c.11-.22.55-.33,1.18,0a3.14,3.14,0,0,1,.61.47A3.12,3.12,0,0,0,29,47c-.63-.37-1.07-.26-1.18,0a.33.33,0,0,0,.17.45"/><path class="cls-6" d="M35.7,50a.88.88,0,0,1-.22.68.09.09,0,0,1,0,0,1.81,1.81,0,0,0,.71,1.41,1.65,1.65,0,0,1-.54-1.25c0-.67.4-1.15.82-1.15a.32.32,0,0,1,.18,0c0-.11-.12-.2-.34-.2a.78.78,0,0,0-.6.43"/><path class="cls-6" d="M33.35,47.66a.78.78,0,0,1,.19.36.71.71,0,0,1-.54.91.42.42,0,0,1-.25,0,.38.38,0,0,0,.41.2.73.73,0,0,0,.55-.91.91.91,0,0,0-.36-.52"/><path class="cls-6" d="M35.21,49.1a1.2,1.2,0,0,0-1.34-.22.79.79,0,0,1-.56.42,1,1,0,0,0-.16.24,1.91,1.91,0,0,0,.35,2.09,6.85,6.85,0,0,1-.78-.7,6.79,6.79,0,0,0,1,.86,1.89,1.89,0,0,1-.36-2.09,1.36,1.36,0,0,1,1.93-.55s0,0,0,0"/><path class="cls-6" d="M32.39,48.28a.54.54,0,0,0,.15.75.57.57,0,0,1,0-.59l.05-.06a.39.39,0,0,1,.06-.11.41.41,0,0,1,.33-.1c.07,0,.08-.09,0-.12a.53.53,0,0,0-.62.23"/><path class="cls-6" d="M34.52,7.91a.64.64,0,0,0,.71-.47A.88.88,0,0,1,35,7.5a.67.67,0,0,1-.6.25A.9.9,0,0,1,34,7.63a.77.77,0,0,0,.52.28"/><path class="cls-6" d="M35.23,6.39c-.3-.23-1-.21-1,.34a.52.52,0,0,0,.22.5.59.59,0,0,1-.06-.34c0-.53.68-.56,1-.36a.49.49,0,0,0-.11-.14"/><path class="cls-3" d="M62,35H55.89a.14.14,0,0,1-.14-.14V34a.14.14,0,0,1,.14-.14,4.11,4.11,0,0,0,1.09-.1.35.35,0,0,0,.25-.38,1.49,1.49,0,0,0-.11-.54l-.57-1.43h-4l-.29.75a3,3,0,0,0-.25,1c0,.42.19.54.34.59a3.28,3.28,0,0,0,1,.14.14.14,0,0,1,.14.14v.88a.14.14,0,0,1-.14.14H48.9a.14.14,0,0,1-.14-.14v-.81a3.13,3.13,0,0,1-.65.35,6.68,6.68,0,0,1-1.69.49,12.63,12.63,0,0,1-1.59.11H38.36a.14.14,0,0,1-.14-.14V34a.14.14,0,0,1,.14-.14,3.1,3.1,0,0,0,1.17-.16.71.71,0,0,0,.43-.4,2.25,2.25,0,0,0,.12-.82V24.34a1.51,1.51,0,0,0-.31-1.09c-.14-.13-.5-.29-1.41-.29a.15.15,0,0,1-.14-.15v-.89a.14.14,0,0,1,.14-.14l1.91,0,.72,0,2,0,1.13,0h.35a11.07,11.07,0,0,1,2.1.21,4.48,4.48,0,0,1,2,1,2.67,2.67,0,0,1,1,2.19,2.53,2.53,0,0,1-.77,1.85A4.85,4.85,0,0,1,46.91,28a6.16,6.16,0,0,1,1.48.57,3.59,3.59,0,0,1,1.31,1.25,3.27,3.27,0,0,1,.45,1.7,2.93,2.93,0,0,1-.58,1.86,3.73,3.73,0,0,1-.52.53,1.75,1.75,0,0,0,.69-.18A1.84,1.84,0,0,0,50.4,33a10.7,10.7,0,0,0,.72-1.55l3.72-9.75a.13.13,0,0,1,.13-.09h.91a.14.14,0,0,1,.13.08l3.93,10.06c.28.7.49,1.18.62,1.43a1.34,1.34,0,0,0,.5.53,1.9,1.9,0,0,0,.92.18.14.14,0,0,1,.14.14v.88A.14.14,0,0,1,62,35M56,34.75h5.8v-.6a1.84,1.84,0,0,1-.92-.22,1.51,1.51,0,0,1-.61-.64,14.41,14.41,0,0,1-.63-1.45l-3.9-10h-.71l-3.69,9.66a10,10,0,0,1-.74,1.6,2.31,2.31,0,0,1-.76.81,2,2,0,0,1-.83.21v.6h4.16v-.6a3,3,0,0,1-.94-.16.81.81,0,0,1-.54-.85A3.63,3.63,0,0,1,52,32.07l.31-.84a.14.14,0,0,1,.14-.09h4.19a.14.14,0,0,1,.13.09l.61,1.52a1.81,1.81,0,0,1,.12.64.62.62,0,0,1-.45.65,3.69,3.69,0,0,1-1,.11Zm-17.54,0h6.33a10.41,10.41,0,0,0,1.55-.12A6.11,6.11,0,0,0,48,34.17a3.27,3.27,0,0,0,1.34-1,2.62,2.62,0,0,0,.52-1.69,3,3,0,0,0-.4-1.55,3.27,3.27,0,0,0-1.21-1.15,6.14,6.14,0,0,0-1.91-.66.13.13,0,0,1-.12-.13.14.14,0,0,1,.1-.14,5.43,5.43,0,0,0,2.31-1.17A2.26,2.26,0,0,0,49.31,25a2.35,2.35,0,0,0-.84-2,4.17,4.17,0,0,0-1.9-.9,10.61,10.61,0,0,0-2-.2H43l-2,0-.71,0-1.78,0v.61A2.3,2.3,0,0,1,40,23a1.73,1.73,0,0,1,.4,1.3v8.15a2.57,2.57,0,0,1-.13.92,1,1,0,0,1-.59.56,3,3,0,0,1-1.14.18ZM25.24,35H18.69a.15.15,0,0,1-.15-.14V34a.15.15,0,0,1,.15-.14,3.58,3.58,0,0,0,1.19-.15.74.74,0,0,0,.46-.39,2.3,2.3,0,0,0,.12-.84V24.37a1.46,1.46,0,0,0-.31-1.07c-.13-.14-.5-.3-1.46-.3a.15.15,0,0,1-.15-.15V22a.15.15,0,0,1,.15-.14h6.55a.14.14,0,0,1,.14.14v.87a.15.15,0,0,1-.14.15,3.54,3.54,0,0,0-1.19.15.71.71,0,0,0-.46.39,2.24,2.24,0,0,0-.12.83v8.12a2.19,2.19,0,0,0,.11.81.77.77,0,0,0,.45.41,3.27,3.27,0,0,0,1.21.16.14.14,0,0,1,.14.14v.88a.14.14,0,0,1-.14.14m-6.41-.28H25.1v-.6A3.17,3.17,0,0,1,23.92,34a1,1,0,0,1-.6-.56,2.54,2.54,0,0,1-.14-.92V24.37a2.33,2.33,0,0,1,.15-.94,1,1,0,0,1,.62-.55,3.63,3.63,0,0,1,1.15-.17v-.59H18.83v.59a2.27,2.27,0,0,1,1.52.38,1.72,1.72,0,0,1,.4,1.28v8.12a2.42,2.42,0,0,1-.15.95A1,1,0,0,1,20,34a3.44,3.44,0,0,1-1.15.16Zm19,.28H26.29a.14.14,0,0,1-.14-.14V34a.14.14,0,0,1,.14-.14c.94,0,1.3-.16,1.44-.3A1.57,1.57,0,0,0,28,32.49V24.37a2.82,2.82,0,0,0-.09-.81.76.76,0,0,0-.44-.4,3.21,3.21,0,0,0-1.2-.16.15.15,0,0,1-.14-.15V22a.15.15,0,0,1,.14-.15H37a.15.15,0,0,1,.15.14l.17,3.31v0a.14.14,0,0,1-.14.14H36.3a.15.15,0,0,1-.14-.1,4.52,4.52,0,0,0-.65-1.55,1.49,1.49,0,0,0-.79-.54,7.09,7.09,0,0,0-1.41-.1H31v4.27H32.2a2.84,2.84,0,0,0,1-.11.6.6,0,0,0,.39-.37,3.66,3.66,0,0,0,.17-1,.15.15,0,0,1,.14-.14h.92a.15.15,0,0,1,.14.15v4.29a.14.14,0,0,1-.14.14H33.9a.14.14,0,0,1-.14-.13,3.19,3.19,0,0,0-.18-1,.65.65,0,0,0-.4-.38,3.2,3.2,0,0,0-1-.1H31v2.89a9.93,9.93,0,0,0,0,1.1,1,1,0,0,0,.18.52.86.86,0,0,0,.46.28,4,4,0,0,0,1,.1h1A4.37,4.37,0,0,0,35,33.53a2.39,2.39,0,0,0,1.1-.81,4.42,4.42,0,0,0,.77-2.1A.14.14,0,0,1,37,30.5h.9a.12.12,0,0,1,.1,0,.15.15,0,0,1,0,.11l-.1,4.24a.15.15,0,0,1-.15.14m-11.35-.28H37.66l.09-4h-.62a4.51,4.51,0,0,1-.82,2.12,2.55,2.55,0,0,1-1.23.9,4.57,4.57,0,0,1-1.29.17h-1a4.13,4.13,0,0,1-1.11-.11,1.08,1.08,0,0,1-.62-.39,1.4,1.4,0,0,1-.23-.65,10.56,10.56,0,0,1,0-1.13v-3a.14.14,0,0,1,.14-.14h1.33a3.49,3.49,0,0,1,1.06.12,1,1,0,0,1,.56.53,2.94,2.94,0,0,1,.19,1h.61v-4H34a3.27,3.27,0,0,1-.18,1,.88.88,0,0,1-.55.53,3.11,3.11,0,0,1-1.06.13H30.89a.15.15,0,0,1-.14-.15V23a.14.14,0,0,1,.14-.14h2.42a6.7,6.7,0,0,1,1.47.12,1.71,1.71,0,0,1,.95.63,4.46,4.46,0,0,1,.68,1.55H37l-.16-3.07H26.44v.59a3.09,3.09,0,0,1,1.16.19,1,1,0,0,1,.59.57,2.71,2.71,0,0,1,.12.9v8.12a1.8,1.8,0,0,1-.38,1.28,2.19,2.19,0,0,1-1.49.38ZM44.54,34a2.11,2.11,0,0,1-1.16-.24,1,1,0,0,1-.49-.69,5.58,5.58,0,0,1-.09-1.13V28.55a.15.15,0,0,1,.14-.15h1.55a2.66,2.66,0,0,1,2,.78,3.06,3.06,0,0,1,.72,2.14,2.4,2.4,0,0,1-.83,2,3,3,0,0,1-1.86.63m-1.46-5.28v3.22A5.75,5.75,0,0,0,43.16,33a.79.79,0,0,0,.37.52,2,2,0,0,0,1,.19,2.69,2.69,0,0,0,1.68-.57,2.14,2.14,0,0,0,.72-1.8,2.75,2.75,0,0,0-.64-1.95,2.37,2.37,0,0,0-1.81-.68Zm13.22,1.8H52.83a.17.17,0,0,1-.12-.06.15.15,0,0,1,0-.13l1.7-4.51a.14.14,0,0,1,.26,0l1.79,4.5a.17.17,0,0,1,0,.14.16.16,0,0,1-.12.06M53,30.21h3.06l-1.57-4Zm-9.31-2.57h-.78a.14.14,0,0,1-.14-.14V22.87a.14.14,0,0,1,.14-.14h1a4,4,0,0,1,1.59.29,2.25,2.25,0,0,1,1,.84,2.22,2.22,0,0,1,.34,1.24A2.37,2.37,0,0,1,46.09,27a3.56,3.56,0,0,1-2.37.68m-.64-.28h.64a3.3,3.3,0,0,0,2.18-.61,2.05,2.05,0,0,0,.69-1.65,2,2,0,0,0-.3-1.09,1.89,1.89,0,0,0-.88-.73A3.57,3.57,0,0,0,43.94,23h-.86Z"/><g class="cls-7"><rect class="cls-8" x="23.75" y="6.21" width="33.04" height="44.07" transform="translate(-4.33 49) rotate(-60)"/></g></g></g></svg>